<?xml version="1.0" encoding="utf-8"?>
<!-- Generator: Adobe Illustrator 27.9.0, SVG Export Plug-In . SVG Version: 6.00 Build 0)  -->
<svg version="1.1" id="Layer_1" xmlns="http://www.w3.org/2000/svg" xmlns:xlink="http://www.w3.org/1999/xlink" x="0px" y="0px"
	 viewBox="0 0 200 200" style="enable-background:new 0 0 200 200;" xml:space="preserve">
<style type="text/css">
	.st0{fill:#AA2C56;}
	.st1{fill:#BB6460;}
	.st2{fill:#BB6562;}
	.st3{fill:#FC3165;}
	.st4{fill:#FED8CB;}
	.st5{fill:#FC918C;}
	.st6{fill:#FC908C;}
	.st7{fill:#F9F0D5;}
	.st8{fill:#F9EFD4;}
	.st9{fill:#BD625F;}
	.st10{fill:#FA8B8A;}
	.st11{fill:#FDD8CA;}
	.st12{fill:#FEFEFE;}
	.st13{fill:#A92C56;}
	.st14{fill:#F9EFD5;}
</style>
<g>
	<path class="st0" d="M153.6,38.7c3.7-5.5,8.6-9.2,15.2-10.6c2.1-0.5,4.2-0.2,6.3,0.4c1.9,0.5,2.5,1.8,1.5,3.6c-1.6,3-3.3,6-4.4,9.3
		c-2.8,8.1-3.7,16.5-3.5,25c0.2,6.4,0.4,12.7,0.2,19.1c-0.6,18.4-8.4,33.1-22.6,44.4c-6.3,5-13.6,8.1-21.5,9.7
		c-0.3,0.1-0.6,0.1-0.9,0.1c-4.3,0.1-8.6-0.2-12.9,0.2c-1.5-0.3-3-0.2-4.5,0c-3.3,0.3-6.6-0.2-9.9,0c-0.8-0.3-1.6-0.3-2.4-0.1
		c-0.2,0-0.4,0-0.6,0c-0.5-0.6-1.3-0.8-2-0.7c-3.5,0.3-6.9-0.6-10.3-0.3c-2.4,0.2-4.8,0.2-7.2,0.5c-2.8-0.4-5.3-1.4-7.9-2.4
		c-13.9-5.4-23.5-15.4-30-28.6c-3.3-6.7-4.9-14-5.3-21.5c-0.4-6.9,0-13.8,0.2-20.7c0.3-8.6-0.7-17-3.6-25.2c-0.9-2.5-2-4.9-3.3-7.2
		c-0.3-0.6-0.6-1.1-0.9-1.7c-0.9-1.9-0.4-3.1,1.7-3.6c2.6-0.7,5.2-0.7,7.8,0.1c5.8,1.8,10.2,5.3,13.6,10.3c0.3,0.4,0.3,0.9,0.8,1.1
		c0.3,1,1,1.9,1.4,2.9c1.4,3.2,2.5,6.4,2.8,9.9c0.4,1,0.8,1.1,1.5,0.4c1.1-1.1,2.3-2.2,3.6-3.2c0.5-0.4,1.1-0.7,1.6-1.1
		c3.2-2.9,6.6-5.4,10-8c1.2-0.9,2.5-1.6,3.5-2.6c0.5,0,0.8-0.4,1.1-0.6c0.9-0.5,1.9-0.9,2.6-1.8c7.2-4.5,14.2-9.2,19.5-16
		c1.5-2,2.4-4.2,2.8-6.6c0.3-2.3,1.1-4.4,1.2-6.7c0-0.7,0.5-0.9,1.2-0.9c0.7,0,1.1,0.3,1.2,1c0.1,0.7,0.1,1.4,0.2,2.1
		c0.5,2.4,0.9,4.8,1.5,7.2c0.6,2.4,2.2,4.3,3.8,6.1c4.4,4.9,9.6,8.7,15.1,12.2c0.9,0.6,1.7,1.2,2.6,1.7c1.1,0.4,1.7,1.3,2.8,1.7
		c0.3,0.3,0.7,0.5,1.1,0.7c5.3,3.7,10.3,7.6,15.2,11.8c0.1,0.1,0.3,0.3,0.4,0.4c1,1.1,2.4,1.5,3.3,2.7c0.2,0.3,0.4,0.7,0.8,0.5
		c0.5-0.2,0.2-0.6,0.3-1c0.8-4.3,2-8.5,4.3-12.3c0.1-0.2,0.1-0.4,0.1-0.6C153,39.4,153.3,39,153.6,38.7z M124.7,38.6
		c-0.2-0.1-0.4-0.3-0.6-0.4c-0.9-0.9-2-1.5-3-2.1c-5.6-3.5-10.8-7.5-15.3-12.3c-2.6-2.7-4.7-5.8-5.4-9.5c-0.1-0.4,0-0.9-0.4-1.3
		c-0.1,0.2-0.1,0.3-0.1,0.5c-0.4,2.8-1.5,5.3-3.2,7.5c-3.6,4.7-8.1,8.5-12.9,11.9c-2.5,1.8-5.1,3.4-7.6,5.1
		c-4.9,3.1-9.4,6.6-13.9,10.3c-3,2.4-5.9,5-8.2,8c-4.8,6.2-7.7,13.2-9.6,20.8c-2.2,8.9-2.4,17.7,0.4,26.4c1.1,3.5,2.6,6.9,4.6,10
		c2.6,4.4,5.7,8.3,9.6,11.6c3.5,3,7.5,5.1,11.7,7c4,1.7,8,3.3,12.3,4c2.4,0.6,4.9,1,7.4,0.9c5.3-0.3,10.7-0.3,16-0.1
		c3.6,0.1,7.2,0.2,10.7-0.7c0.3,0,0.5-0.1,0.8-0.1c5.4-1.1,10.4-3.3,15.3-5.7c7.3-3.6,12.8-9.2,17.1-16c0.1-0.2,0.3-0.4,0.3-0.7
		c0.4-0.1,0.6-0.6,0.7-0.9c3.7-6.5,5.7-13.4,6.1-20.8c0.2-5.4-0.7-10.7-2-15.9c-1.9-7.5-5-14.4-9.9-20.4c-2.1-2.6-4.7-4.9-7.3-7
		C133.8,44.9,129.5,41.5,124.7,38.6L124.7,38.6z M32.1,47.1c-0.1,0.7,0.2,1.2,0.4,1.9c1.1,5.1,1.3,10.2,1.3,15.3
		c0,3-0.2,6.1-0.3,9.2c-0.1,4.1-0.1,8.1,0.1,12.2c0.2,4.3,0.7,8.5,1.8,12.6c1.7,6.4,4.5,12.3,8.4,17.7c2.8,3.9,6.1,7.6,9.8,10.7
		c2.8,2.3,5.9,4.3,9.1,5.9c3,1.5,6.1,2.8,9.4,3.7c1.5,0.4,2.9,0.9,4.5,0.9c-0.2-0.2-0.4-0.2-0.6-0.3c-3.3-1.2-6.5-2.5-9.6-4
		c-5.4-2.8-10.5-6.1-14.3-11c-2.2-2.8-4.3-5.7-6.1-8.8c-4.5-8.1-6.2-16.9-6.5-26.1c-0.1-3.4-0.3-6.7-0.1-10.1c0.1-2.5,0.2-5,0.3-7.5
		c0.1-1.5,0-3.1,0.2-4.6c0.2-2.3,0.3-4.6-0.1-6.9c-0.8-4.7-2.7-9.1-4.3-13.6c-0.5-1.5-1.1-2.9-1.7-4.4c5.1,6,7.6,13,8.6,20.7
		c0.4-1.8,0.6-3.6,0.4-5.5c-0.1-1.9-0.2-3.8-0.4-5.6c-0.2-1.8-0.5-3.5-0.7-5.3c3.5,7.2,4.3,14.7,2.2,22.5c0.2-0.1,0.3-0.2,0.4-0.3
		c1.4-3.3,3.4-6.2,5.4-9.1c0.4-0.6,0.5-1.1,0.2-1.7c-0.4-0.8-0.5-1.7-0.7-2.5c-0.3-1.6-0.7-3.2-1.2-4.8c-1.3-4.1-3.3-7.8-6.1-11
		c-2.1-2.3-4.5-4.2-7.4-5.4c-2.6-1.4-5.3-1.7-8.2-1.3c-0.8,0.1-0.8,0.3-0.5,0.9c0.7,1.1,1.4,2.2,2,3.4C29.8,38.7,31,42.9,32.1,47.1z
		 M165.5,31.7c-2.3,0.8-4.2,2.3-6,3.9c-3.7,3.4-6,7.7-7.6,12.4c-0.8,2.5-1,5.1-2,7.5c-0.3,0.7-0.1,1.2,0.3,1.8
		c1.8,2.5,3.4,5,4.7,7.7c0.2,0.5,0.5,0.9,0.7,1.3c-0.4-3.8-1.3-7.6-0.8-11.4c0.7-4.9,2.4-10.1,3.2-10.8c-0.7,5.3-1.4,10.7-0.7,16.1
		c0.6-3.7,1.4-7.3,2.7-10.7c1.3-3.5,3.3-6.6,5.6-9.6c0.2,0.4,0.1,0.6,0,0.7c-1.5,3.8-2.9,7.7-4.2,11.7c-0.9,2.8-1.6,5.6-1.7,8.6
		c0,4.5,0.4,9.1,0.6,13.6c0.1,4,0,8-0.1,12c-0.1,3.3-0.4,6.6-0.9,9.9c-0.7,4.9-2.2,9.6-4.3,14.1c-1.7,3.6-3.9,6.9-6.4,10
		c-1.8,2.3-3.7,4.5-5.9,6.3c-4.4,3.5-9.4,6.2-14.6,8.2c-1.5,0.6-3.1,1.2-4.8,1.9c0.2,0.1,0.3,0.1,0.4,0.1c0.2,0,0.4,0,0.6-0.1
		c5.2-1.1,10-3,14.7-5.5c3.4-1.9,6.5-4,9.3-6.7c2.1-2,3.9-4.1,5.7-6.3c4-4.8,7-10.2,9.2-16c2.4-6.4,3-13.1,3.2-19.8
		c0.2-5.1-0.1-10.3-0.3-15.4c-0.2-3.3,0.1-6.7,0.2-10c0.1-1.6,0.4-3.3,0.5-4.9c0.2-1.8,0.7-3.5,0.8-5.4c0.4-0.9,0.6-1.8,0.8-2.7
		c0.4-1.3,0.8-2.6,1.2-3.9c1.1-3.2,2.5-6.2,4.4-9c0.2-0.4,0.5-0.8-0.3-0.9C171,30,168.2,30.3,165.5,31.7z"/>
	<path class="st1" d="M74.2,139.2c2.4-0.3,4.8-0.3,7.2-0.5c3.5-0.3,6.9,0.5,10.3,0.3c0.7-0.1,1.4,0.1,2,0.7c-0.1,0-0.3,0-0.4,0.1
		c-0.9,0.1-1.8-0.3-2.8-0.2c-1.6,0.3-3.3,0.5-4.9,0.8c-4.7,0.8-9.1,2.3-13,5.2c-3.3,2.4-6,5.3-6.9,9.5c-0.6,2.8,1,5.8,3.7,6.7
		c0.4,0.2,0.7,0.2,1.1,0.1c2.8-0.4,4.8-2.2,6.5-4.4c0.5-0.1,0.7-0.5,1-0.8c1.2-1.2,2.6-2.1,4.1-2.7c2-0.8,3.9-0.4,5.7,0.6
		c0.3,0.2,0.6,0.1,0.6,0.6c0,0.5-0.4,0.5-0.7,0.6c-1.3,0.3-2.7,0.6-4,0.9c-0.5,0.1-1,0.1-1.2,0.8c-0.9,0.2-1.3,0.6-1.2,1.6
		c0.3,2.9-0.2,5.7-1.7,8.3c-1.3,2.3-2.9,4.4-4.3,6.7c-1,1.7-2.1,3.3-2.6,5.2c-0.4,1.4-0.2,1.9,1.3,2.4c1.1,0.5,2.1,0,2.9-0.6
		c2.3-1.7,3.9-4,5.1-6.5c0.9-1.1,1.5-2.3,2-3.6c0.9-2.1,1.8-4.2,2.8-6.3c0.2-0.3,0.4-0.8,0.8-0.6c0.5,0.1,0.4,0.6,0.3,1
		c-0.7,4.1-2.5,7.8-4.5,11.5c-1.2,2-2.3,4-3.9,5.6c-0.2,0.2-0.4,0.5-0.3,0.8c0.1,0.8,0.1,1.7,0.6,2.5c0.2,0.6,0.8,0.8,1.3,0.9
		c1.8,0.5,3-0.4,4-1.6c1.4-1.7,2.3-3.6,3-5.7c0.9-2.7,1.7-5.4,2.5-8.1c0.1-0.4,0.2-0.9,0.7-1.2c0.4,0.2,0.4,0.6,0.4,0.9
		c0,1.3-0.1,2.6-0.3,3.9c-0.3,1.6-0.8,3.2-0.9,4.8c-0.6,1-0.6,2.2-1.2,3.1c-1.2,2-1.2,4.1-1,6.2c0.1,0.7,0.1,1.4,0.5,2
		c0.6,1.1,1.5,1.3,2.7,0.8c1.7-0.7,2.6-2,3.4-3.6c1.9-4.1,2.5-8.4,2.2-12.8c-0.1-1.9-0.2-3.7-0.1-5.6c0-0.5,0-1,0.6-1.2
		c0.5,0.1,0.6,0.5,0.7,0.9c0.3,0.9,0.4,1.9,0.5,2.9c0.1,0.9,0.6,0.8,1.2,0.8c0.6,0,1.2,0.1,1.3-0.8c0.1-0.9,0.3-1.8,0.5-2.7
		c0.1-0.4,0.2-1,0.8-1c0.6,0.4,0.5,1,0.6,1.6c0.1,3.4-0.5,6.8,0,10.3c0.4,3.1,1.1,6.1,2.7,8.8c0.7,1.1,1.6,2.1,2.9,2.5
		c0.8,0.2,1.6,0.4,2.1-0.6l0,0c0.3,0.1,0.3-0.1,0.4-0.3c0.8-1.9,0.9-4,0.4-5.9c-0.5-1.8-1.3-3.6-2.1-5.4c-0.4-2.4-1.1-4.8-1.3-7.2
		c-0.1-0.9-0.2-1.7,0.3-2.5c0.6,0.1,0.6,0.6,0.8,1.1c0.8,2.4,1.5,4.8,2.3,7.2c0.7,2.2,1.6,4.4,3,6.3c0.5,0.7,1.2,1.4,2,1.9
		c1.4,0.7,3.1,0.3,3.8-0.9c0.6-1.5,0.9-2.9-0.6-4c-0.2-0.2-0.3-0.4-0.5-0.6c-1.1-1.3-1.7-2.9-2.8-4.2c-0.9-2-2.1-4-2.9-6.1
		c-0.7-1.8-1.2-3.6-1.5-5.4c-0.1-0.4-0.1-0.8,0.3-0.9c0.4-0.1,0.6,0.2,0.7,0.5c0.4,0.8,0.8,1.6,1.1,2.4c1.2,2.6,2.1,5.2,3.8,7.6
		c1.2,2.5,2.8,4.8,5,6.5c0.7,0.5,1.4,0.9,2.3,0.8c0.1,0,0.2,0,0.2-0.2l0,0c1.5-0.1,2.1-0.9,1.7-2.3c-0.4-1.4-1-2.6-1.7-3.8
		c-1.3-2.1-2.7-4.2-4-6.3c1,0.2,2,0.3,3,0.2c2.4,3,4.6,6.2,5.8,9.9c0.4,1.4,0.1,2.9-1.1,3.8c-1.9,1.6-3.9,1.9-6.2,1
		c-0.1-0.1-0.1-0.1-0.2,0c0,0,0,0.1,0.1,0.1c0.4,1.6,0.2,3.1-1.3,4.1c-2.3,1.6-4.7,1.5-7.1,0c-0.1,0.8,0,1.6-0.2,2.3
		c-0.8,3.5-4,5-7.2,3.4c-1.8-0.9-3-2.4-3.9-4.1c-2.1-4.2-2.7-8.7-2.4-13.4c0.1-0.8,0-1.1-0.9-1.1c-0.8,0-0.7,0.4-0.6,0.9
		c0.3,4.1-0.1,8.1-1.6,11.9c-0.8,2-1.8,3.9-3.6,5.1c-1.7,1.2-3.6,1.8-5.6,0.7c-2-1-2.7-2.8-2.8-4.9c0-0.2,0-0.5,0-0.9
		c-1.9,1.3-3.9,1.5-6,0.7c-2.2-0.9-3.1-2.6-2.4-5.1c-2.4,1.1-4.5,0.8-6.4-0.8c-1.3-1.1-1.7-2.5-1.1-4.1c0.5-1.4,1-2.8,1.9-4
		c0.6-0.2,1.4-0.1,2-0.6c-0.5-0.4-1,0-1.4-0.4c1.2-2.1,2.7-4,4.1-6c1.4-2,2.6-4.1,2.9-6.6c0-0.3,0.2-0.6,0-1
		c-0.8,0.8-1.6,1.6-2.6,2.3c-1.7,1.1-3.4,2-5.5,2.1c-3.6,0.2-5.9-1.6-7.6-4.5c-1.3-2.2-1.2-4.5-0.5-6.8c1.2-4.4,4.2-7.5,7.6-10.2
		c1.5-1.2,3-2.3,4.7-3.2c0.2-0.1,0.5-0.1,0.5-0.4C75.3,139.5,74.8,139.4,74.2,139.2z"/>
	<path class="st1" d="M111.1,139.8c4.3-0.5,8.6-0.1,12.9-0.2c0,0.4,0.4,0.4,0.6,0.6c3.6,1.9,6.6,4.5,9.2,7.6c2,2.4,3.2,5.3,3.4,8.4
		c0.5,5.9-6,10.5-11.5,8.1c-1.7-0.7-3.2-1.8-4.5-3c-0.2-0.2-0.3-0.5-0.8-0.5c0.1,1.4,0.4,2.6,1,3.9c0.7,1.5,1.7,2.9,2.6,4.3
		c-0.9,0.1-1.8-0.1-2.7,0.1c-2.1-3-3.4-6.2-2.8-9.9c0.2-1-0.3-1.6-1.2-1.9c-0.3-0.4-0.8-0.6-1.3-0.7c-1.1-0.2-2.2-0.5-3.2-0.7
		c-0.5-0.1-1.3,0.1-1.4-0.6c-0.1-0.8,0.8-0.7,1.2-0.9c2.4-1.3,4.6-0.9,6.9,0.4c1.3,0.8,2.3,1.9,3.5,2.9c1.3,1.6,2.8,2.8,4.6,3.7
		c0.9,0.4,1.9,0.7,2.9,0.4c2.2-0.7,4.1-3.2,3.8-5.6c-0.3-2.5-1.2-4.8-2.8-6.7c-3.6-4.2-8.3-6.8-13.6-8.3
		C115.7,140.6,113.4,140.3,111.1,139.8z"/>
	<path class="st2" d="M127.3,37.4c-1-0.4-1.7-1.4-2.8-1.7c0.5-0.4,0.2-1,0.2-1.5c-0.2-6.3,1.3-12.1,4.7-17.2c4-6.1,10-8.2,17-7.6
		c0.4,0,0.7,0.1,1.1,0.2c2.1,0.6,2.9,1.8,2.7,4c-0.3,3-0.6,6-0.5,9.1c0.2,5.3,1.2,10.4,3.4,15.3c0.1,0.3,0.2,0.7,0.5,0.8
		c-0.3,0.3-0.6,0.7-0.9,1c-0.6-0.3-0.4-1-0.9-1.3c-0.7-1.8-1.5-3.5-2-5.4c-1.8-6.3-2.1-12.8-1.5-19.3c0.1-1.3-0.1-1.7-1.4-1.9
		c-4.6-0.6-9,0.3-12.4,3.3c-5.9,5.1-8.1,11.9-7.4,19.6C127.2,35.7,127.4,36.5,127.3,37.4z"/>
	<path class="st2" d="M75.3,35.7c-0.7,0.9-1.7,1.3-2.6,1.8c0-0.5-0.1-1.1,0-1.6c1.1-5.8-0.4-11.1-3.3-16.1
		C66,14,58.9,10.7,52.9,11.9c-1,0.2-1.3,0.6-1.3,1.6c0.2,2.7,0.3,5.4,0.2,8.1c-0.1,5.8-1.3,11.4-3.8,16.7c-0.4,0.5-0.5,1.2-0.9,1.6
		c-0.5-0.2-0.5-0.8-0.8-1.1c1.6-2.9,2.4-6.1,3.1-9.4c1-5.1,0.9-10.3,0.3-15.5c-0.3-2.7,0.5-4,3.1-4.4c6.5-1,12.1,0.7,16.4,5.8
		c4.1,4.8,5.8,10.7,6.1,17C75.3,33.4,75.1,34.5,75.3,35.7z"/>
	<path class="st3" d="M72.3,174c0.4,0.3,0.9,0,1.4,0.4c-0.6,0.5-1.3,0.4-2,0.6C71.8,174.6,72,174.3,72.3,174z"/>
	<path class="st3" d="M121.4,169c0.9-0.2,1.8,0,2.7-0.1c0.1,0.1,0.2,0.3,0.3,0.4C123.5,169.4,122.5,169.3,121.4,169
		C121.4,169.1,121.4,169.1,121.4,169z"/>
	<path class="st4" d="M117.1,136c-3.5,0.9-7.1,0.9-10.7,0.7c-5.3-0.2-10.7-0.2-16,0.1c-2.5,0.1-5-0.2-7.4-0.9
		c0.2-0.9-0.4-1.3-1.1-1.5c-1.9-0.5-3.7-1.5-5.5-2.3c-4.4-2.2-8.5-5-12.3-8.3c-3.2-2.8-6-5.8-7.9-9.6c-2.8-5.8-4-12.1-4.3-18.5
		c-0.2-3.9,0.2-7.7,0.7-11.6c0.6-4.8,2-9.3,4-13.7c2.5-5.5,6.8-9.4,11.5-12.8c2.4-1.7,5.1-3.1,7.4-4.8c2.2-1.7,4.2-3.5,5.4-6
		c0.7-1.4,0.5-2.7-0.6-3.8c-1.7-1.7-3.8-1.6-5.9-0.9c-1.7,0.6-3.2,1.6-4.9,2.4c0-0.3,0.2-0.5,0.4-0.7c1.9-1.7,3.7-3.4,5.6-5.1
		c0.2-0.2,0.5-0.4,0.4-0.7c2.6-1.7,5.2-3.3,7.6-5.1c4.8-3.4,9.3-7.2,12.9-11.9c1.7-2.2,2.8-4.8,3.2-7.5c0-0.1,0.1-0.2,0.1-0.5
		c0.4,0.4,0.3,0.9,0.4,1.3c0.8,3.8,2.9,6.8,5.4,9.5c4.5,4.8,9.8,8.8,15.3,12.3c1,0.7,2.2,1.2,3,2.1c0,0.5,0.3,0.5,0.6,0.4
		c0,0,0,0,0,0c-0.1,0.3,0,0.5,0.2,0.6c1.4,1.3,2.8,2.6,4.2,3.9c0.5,0.4,1.1,0.7,1.2,1.4c-0.6-0.2-1.1-0.6-1.6-0.9
		c-2-1.1-3.9-2.2-6.3-2c-2.9,0.2-4.6,2.5-3.6,4.9c0.7,1.7,1.8,3.2,3.1,4.4c1.5,1.4,3.2,2.6,4.9,3.7c3.3,2,6.5,4.2,9.4,6.7
		c4.6,4,7.4,9.2,9.2,14.9c1.8,5.5,2.3,11.2,2.5,17c0.1,3.1-0.2,6.2-0.8,9.2c-0.7,3.7-1.6,7.4-3.1,10.8c-2,4.5-5.2,8.1-9,11.2
		c-5.2,4.3-10.9,7.9-17.3,10.1C117.2,134.8,116.9,135.2,117.1,136z M107.8,106.1c0,4.3,1,7.7,2.5,9.7c5.3,6.9,14.6,8.6,21.6,3.5
		c4.1-3,6.6-6.6,6.3-11.9c-0.2-3.2-1.3-6.3-2.6-9.2c-1.9-4.2-5.2-7.2-8.8-9.8c-1.4-1-2.8-2-4.4-2.6c-1.3-0.5-1.8-0.2-2.6,0.9
		c-0.4,0.7-0.9,1.3-1.3,2c-1.6,2.3-3.7,4.1-5.6,6.1C109.6,98.2,108.1,102.4,107.8,106.1z M92.1,105.6c-0.3-3.8-2.1-8.4-6.1-12
		c-2.1-1.9-4-4.1-5.6-6.5c-1.2-1.8-1.8-2.1-3.7-1.1c-6.7,3.7-11.9,8.8-14.1,16.4c-2.1,7.2-0.8,12,4.6,16.2c5.1,4,10.6,4.7,16.4,2
		C89.3,118,92.2,113.4,92.1,105.6z M101.3,124.8c1.2,0.5,2.4,0.7,3.6,0.6c1.6-0.2,3.1-1.5,3.3-3c0.1-0.7-0.1-1.3-0.9-1.5
		c-0.7-0.2-1.2,0.2-1.4,0.8c-0.7,1.6-1.6,2.1-3.2,1.5c-1.9-0.6-3.7-0.6-5.6,0c-1.6,0.5-2.5,0-3.2-1.5c-0.3-0.7-0.7-1.1-1.5-0.9
		c-0.8,0.3-0.9,0.9-0.8,1.6c0.3,1.5,1.7,2.7,3.3,2.8c0.9,0.1,1.9,0,2.8-0.3c0.5-0.2,0.8-0.2,1,0.5c0.1,0.5,0.6,0.8,1.2,0.8
		c0.5,0,0.9-0.3,1.1-0.8C101.2,125.3,101.2,125.1,101.3,124.8z M100,25.3c1.7,0.2,2.2-0.8,2.2-1.8c0.1-1.2-0.8-2-2.1-2
		c-1.5,0-2.3,0.7-2.3,2.1C97.8,24.7,98.5,25.3,100,25.3z M117.4,37.8c0-1.2-0.9-2.2-1.9-2.2c-0.9,0-1.7,0.9-1.7,2c0,1.1,0.9,2,1.9,2
		C116.7,39.6,117.4,38.8,117.4,37.8z M84.4,35.6c-0.9,0-1.9,1.2-2,2.1c0,1,0.9,1.9,1.9,1.9c1,0,2-1.1,1.9-2.1
		C86.2,36.5,85.3,35.6,84.4,35.6z M108.1,33.9c0,0.9,1.1,2,2,2c0.7,0,1.7-1,1.8-1.8c0.1-1-0.9-2-2-2C109,32.1,108.2,32.9,108.1,33.9
		z M88.1,34c0,1,0.8,2,1.7,2c0.8,0,2-1.1,2-2c0-1-0.8-1.8-1.9-1.8C89,32.1,88.1,33,88.1,34z M96,27.5c-1,0-1.8,0.9-1.8,1.9
		c0,0.9,0.9,1.7,1.7,1.7c1,0,1.9-0.8,1.9-1.7C97.8,28.4,97,27.5,96,27.5z M105.8,29.4c0-0.9-0.8-1.8-1.7-1.9c-1,0-1.8,0.8-1.9,1.8
		c0,1,0.7,1.8,1.8,1.8C105,31.2,105.8,30.4,105.8,29.4z"/>
	<path class="st5" d="M123,157.6c-1.1-1-2.1-2.1-3.5-2.9c-2.2-1.3-4.5-1.8-6.9-0.4c-0.5,0.3-1.4,0.1-1.2,0.9
		c0.1,0.7,0.9,0.5,1.4,0.6c1.1,0.3,2.2,0.5,3.2,0.7c0.5,0.1,1,0.2,1.3,0.7c0,0.6,0,1.3,0,1.9c-0.1,4.5,1,8.6,3.3,12.4
		c0.7,1.2,1.4,2.3,2.1,3.5c-0.5-0.2-1-0.3-1.4-0.5c-1.1-0.5-2.2-0.8-3.4-0.1c-1.7-2.3-2.6-5-3.8-7.6c-0.4-0.8-0.7-1.6-1.1-2.4
		c-0.1-0.3-0.3-0.7-0.7-0.5c-0.5,0.2-0.4,0.6-0.3,0.9c0.3,1.9,0.9,3.6,1.5,5.4c0.8,2.1,1.9,4.1,2.9,6.1c-0.1,0.5-0.1,0.9-0.2,1.4
		c-0.2,0.7-0.3,1.7-1.4,1.7c-0.2-0.4-0.3-0.7-0.5-1.1c-2.1-4.4-4.3-8.7-4.6-13.7c0-0.3-0.1-0.6-0.3-0.7c-0.4,0-0.4,0.4-0.5,0.6
		c-0.4,1.7-0.4,3.3-0.4,5c-0.5,0.8-0.4,1.6-0.3,2.5c0.3,2.4,0.9,4.8,1.3,7.2c-0.3,0.3-0.7,0.6-0.9,0.9c-1.5,1.7-1.5,1.7-3.5,0.8
		c-0.1-0.1-0.1-0.2-0.1-0.3c-0.6-4.2-0.8-8.5-0.6-12.8c0.1-1.4,0.4-2.7,0.4-4.1c0-0.3,0.1-0.6-0.2-0.7c-0.4-0.1-0.6,0.2-0.7,0.4
		c-0.7,1.5-1.3,3-1.3,4.7c-0.6,0.1-0.7,0.6-0.8,1c-0.2,0.9-0.4,1.8-0.5,2.7c-0.1,0.9-0.7,0.8-1.3,0.8c-0.6,0-1.1,0.1-1.2-0.8
		c-0.1-1-0.2-1.9-0.5-2.9c-0.1-0.4-0.2-0.8-0.7-0.9c-0.1-1.7-0.6-3.3-1.4-4.8c-0.1-0.2-0.3-0.4-0.5-0.4c-0.3,0-0.3,0.3-0.4,0.5
		c0,0.3-0.1,0.5,0,0.8c0.7,4,0.7,8,0.3,12c-0.1,1.5-0.1,3-0.6,4.5c-0.3,0.2-0.6,0.3-0.9,0.5c-1,0.6-1.4,0.5-2.1-0.4
		c-0.5-0.6-1-1.2-1.5-1.8c0.1-1.6,0.7-3.2,0.9-4.8c0.2-1.3,0.3-2.6,0.3-3.9c0-0.4,0-0.7-0.4-0.9c0.4-1.6,0.1-3.3-0.2-4.9
		c0-0.3-0.1-0.8-0.5-0.7c-0.4,0-0.3,0.5-0.3,0.8c-0.1,0.8-0.2,1.5-0.3,2.3c-0.8,3.9-2.5,7.5-4.2,11.1c-0.2,0.5-0.4,1.1-0.9,1.4
		c-0.6-0.7-1.1-1.3-1.1-2.3c0-0.3-0.1-0.7-0.3-0.9c2-3.6,3.8-7.3,4.5-11.5c0.1-0.4,0.1-0.9-0.3-1c-0.4-0.1-0.6,0.3-0.8,0.6
		c-0.9,2.1-1.9,4.2-2.8,6.3c-0.6,1.3-1.2,2.5-2,3.6c-1-0.6-1.9-0.5-2.9-0.1c-0.6,0.3-1.2,0.7-1.9,0.7c0-0.1,0-0.2,0.1-0.3
		c1.9-2.5,3.4-5.2,4.4-8.2c1-3,1.1-6.1,1-9.2c0.2-0.6,0.7-0.7,1.2-0.8c1.3-0.3,2.7-0.6,4-0.9c0.3-0.1,0.7-0.1,0.7-0.6
		c0-0.5-0.4-0.4-0.6-0.6c-1.8-1-3.7-1.4-5.7-0.6c-1.5,0.6-2.9,1.5-4.1,2.7c-0.3,0.3-0.5,0.7-1,0.8c0.1-1.4,0.1-2.7-0.8-3.9
		c-0.8-1-1.8-1.9-3-2.5c-0.6-0.3-1.1-0.8-1.2-1.5c0.1-0.3,0.3-0.5,0.6-0.7c5-4.3,10.8-6.9,17.3-8c1.2-0.2,2.4-0.1,3.4-1
		c0.1,0,0.3,0,0.4-0.1c0.2,0,0.4,0,0.6,0c0.8,0.4,1.6,0.3,2.4,0.1c3.3-0.2,6.6,0.3,9.9,0c0.6,0.7,1.5,0.7,2.3,0.8
		c6.6,1,12.6,3.5,17.8,7.7c0.5,0.4,1.2,0.8,1.2,1.6c-0.4,0.4-0.7,0.8-1.2,1.1C124.3,152.6,122.4,154.4,123,157.6z"/>
	<path class="st3" d="M167.8,47.1c-0.1,1.8-0.6,3.6-0.8,5.4c-0.2,1.6-0.5,3.3-0.5,4.9c-0.1,3.3-0.4,6.7-0.2,10
		c0.3,5.1,0.5,10.3,0.3,15.4c-0.2,6.7-0.8,13.4-3.2,19.8c-2.2,5.8-5.1,11.3-9.2,16c-1.8,2.2-3.7,4.3-5.7,6.3
		c-2.8,2.7-5.9,4.8-9.3,6.7c-4.6,2.6-9.5,4.5-14.7,5.5c-0.2,0-0.4,0.1-0.6,0.1c-0.1,0-0.2,0-0.4-0.1c1.7-0.7,3.2-1.3,4.8-1.9
		c5.3-2.1,10.2-4.7,14.6-8.2c2.3-1.8,4.2-4,5.9-6.3c2.4-3.1,4.7-6.4,6.4-10c2.1-4.5,3.6-9.2,4.3-14.1c0.5-3.3,0.8-6.6,0.9-9.9
		c0.1-4,0.2-8,0.1-12c-0.1-4.5-0.6-9.1-0.6-13.6c0-3,0.7-5.8,1.7-8.6c1.3-3.9,2.7-7.8,4.2-11.7c0.1-0.2,0.2-0.4,0-0.7
		c-2.3,3-4.2,6.1-5.6,9.6c-1.3,3.5-2.1,7.1-2.7,10.7c-0.8-5.4,0-10.7,0.7-16.1c-0.9,0.7-2.6,5.9-3.2,10.8c-0.5,3.8,0.4,7.5,0.8,11.4
		c-0.2-0.4-0.5-0.9-0.7-1.3c-1.3-2.7-3-5.3-4.7-7.7c-0.4-0.6-0.5-1.1-0.3-1.8c0.9-2.4,1.1-5,2-7.5c1.6-4.7,3.9-9,7.6-12.4
		c1.8-1.6,3.7-3.1,6-3.9c0.3,0.3,0.6,0.3,0.9,0.3c1.5-0.1,3.1-0.2,4.6-0.4c0.6-0.1,0.7,0.1,0.4,0.6c-1.9,4.5-2.8,9.2-3.8,13.9
		C167.6,46.5,167.5,46.8,167.8,47.1z"/>
	<path class="st3" d="M34.5,31.7c2.9,1.2,5.4,3.1,7.4,5.4c2.8,3.2,4.9,6.9,6.1,11c0.5,1.6,0.8,3.2,1.2,4.8c0.2,0.9,0.3,1.7,0.7,2.5
		c0.3,0.7,0.2,1.2-0.2,1.7c-2,2.9-4,5.8-5.4,9.1c0,0.1-0.1,0.2-0.4,0.3c2.2-7.8,1.3-15.3-2.2-22.5c0.2,1.8,0.5,3.5,0.7,5.3
		c0.2,1.9,0.3,3.7,0.4,5.6c0.1,1.8-0.1,3.7-0.4,5.5c-1-7.7-3.5-14.7-8.6-20.7c0.6,1.5,1.1,2.9,1.7,4.4c1.6,4.5,3.5,8.9,4.3,13.6
		c0.4,2.3,0.4,4.6,0.1,6.9c-0.2,1.5-0.1,3.1-0.2,4.6c-0.1,2.5-0.2,5-0.3,7.5c-0.2,3.4,0,6.7,0.1,10.1c0.3,9.1,1.9,18,6.5,26.1
		c1.7,3.1,3.9,5.9,6.1,8.8c3.8,4.9,8.8,8.2,14.3,11c3.1,1.6,6.3,2.9,9.6,4c0.2,0.1,0.4,0.2,0.6,0.3c-1.6,0-3-0.5-4.5-0.9
		c-3.2-0.9-6.4-2.2-9.4-3.7c-3.2-1.6-6.3-3.6-9.1-5.9c-3.7-3.1-7-6.7-9.8-10.7c-3.9-5.4-6.7-11.2-8.4-17.7
		c-1.1-4.2-1.6-8.4-1.8-12.6c-0.2-4.1-0.2-8.2-0.1-12.2c0.1-3.1,0.3-6.1,0.3-9.2c0-5.1-0.2-10.3-1.3-15.3c-0.1-0.6-0.5-1.2-0.4-1.9
		c0.6-0.1,0.3-0.5,0.2-0.8c-1.1-4.9-2-9.9-4.1-14.7c0.8,0.1,1.5,0.3,2.2,0.3C31.7,31.9,33.1,32.2,34.5,31.7z"/>
	<path class="st5" d="M117.1,136c-0.2-0.7,0.1-1.1,0.8-1.4c6.4-2.2,12.1-5.8,17.3-10.1c3.8-3.1,7-6.7,9-11.2
		c1.6-3.5,2.5-7.1,3.1-10.8c0.5-3,0.9-6.1,0.8-9.2c-0.2-5.7-0.7-11.5-2.5-17c-1.9-5.7-4.6-10.9-9.2-14.9c-2.9-2.6-6.1-4.7-9.4-6.7
		c-1.8-1.1-3.4-2.3-4.9-3.7c-1.4-1.2-2.5-2.7-3.1-4.4c-1-2.5,0.7-4.7,3.6-4.9c2.4-0.2,4.3,0.9,6.3,2c0.5,0.3,1,0.7,1.6,0.9
		c0.7,0.5,1.5,1.1,2.2,1.6c3.5,2.8,6.7,5.9,9.4,9.6c4.3,6,8.6,12,9.9,19.7c0.6,3.9,1.6,7.8,1.7,11.9c0,1.4-0.1,2.9,0.1,4.3
		c0.4,3.4,0,6.6-0.6,9.9c-0.6,3.6-1.9,7.1-2.7,10.6c-0.1,0.5-0.3,0.9,0.2,1.3c0.1,0.3-0.1,0.5-0.3,0.7c-4.3,6.8-9.7,12.4-17.1,16
		c-4.9,2.4-9.9,4.6-15.3,5.7C117.6,135.9,117.3,135.9,117.1,136z"/>
	<path class="st5" d="M69.7,44.5c1.6-0.8,3.1-1.9,4.9-2.4c2.1-0.7,4.2-0.8,5.9,0.9c1.1,1.1,1.2,2.4,0.6,3.8c-1.2,2.5-3.2,4.4-5.4,6
		c-2.4,1.8-5,3.1-7.4,4.8c-4.8,3.4-9,7.3-11.5,12.8c-2,4.4-3.4,8.9-4,13.7c-0.5,3.8-0.9,7.7-0.7,11.6c0.3,6.4,1.5,12.7,4.3,18.5
		c1.8,3.8,4.7,6.9,7.9,9.6c3.7,3.3,7.8,6,12.3,8.3c1.8,0.9,3.5,1.8,5.5,2.3c0.7,0.2,1.3,0.5,1.1,1.5c-4.3-0.7-8.4-2.3-12.3-4
		c-4.2-1.8-8.2-4-11.7-7c-3.9-3.3-7-7.2-9.6-11.6c0.7-0.3,0.5-0.8,0.4-1.3c-0.4-1.5-0.7-3.1-1.2-4.6c-1.1-3.4-2-6.9-2.1-10.5
		c-0.2-6.5-0.1-13,1.3-19.4c1-4.3,1.7-8.5,4-12.4c3.8-6.3,7.8-12.4,13.4-17.2C66.6,46.8,68,45.5,69.7,44.5z"/>
	<path class="st6" d="M151.9,38.4c0.5,0.3,0.3,1,0.9,1.3c0,0.2,0.1,0.4-0.1,0.6c-2.3,3.8-3.5,8-4.3,12.3c-0.1-0.1-0.2-0.2-0.2-0.3
		c-0.8-2.3-1.6-4.6-2.5-6.8c-1.5-4.1-2.7-8.3-2.9-12.6c-0.2-3.8-0.2-7.6,0.1-11.4c0-0.4,0.2-0.9-0.1-1.3c-3.4,8.9-1.7,17.4,1.3,25.9
		c-1.2-1.9-2-4-2.7-6.1c-0.8-2.1-1.3-4.3-1.8-6.5c-0.5-2.1-1-4.2-1.4-6.3c-0.6,2.4,0,4.9-0.1,7.3c0,0.7,0.1,1.4,0.3,2.1
		c0.8,4.5,2.8,8.5,5,12.4c0.2,0.4,0.5,0.7,0.4,1.1c-4.9-4.2-9.9-8.2-15.2-11.8c-0.1-2.4,0.2-4.8,0.6-7.1c1-5.2,2.7-10,7-13.6
		c3.3-2.7,7-4.1,11-5c0,5.6-0.4,11.1,0.6,16.6c0.5,2.8,1.2,5.5,2.8,7.9C150.8,37.5,151.1,38.2,151.9,38.4z"/>
	<path class="st6" d="M47.2,39.8c0.5-0.4,0.6-1.1,0.9-1.6c0.7,0,1-0.6,1.3-1.1c2.4-3.4,2.9-7.3,3.4-11.3c0.4-3.6,0.2-7.2,0.2-10.8
		c0-0.9-0.1-1.7-0.1-2.6c0.9,0,1.7,0.5,2.6,0.7c4.7,1.1,8.4,3.8,11.5,7.5c1.8,2.2,2.7,4.8,3.3,7.4c0.9,3.3,1.4,6.6,1.3,10.1
		c-1,1.1-2.4,1.8-3.5,2.6c-3.4,2.6-6.8,5.1-10,8c-0.5,0.4-1,0.7-1.6,1.1c-0.1-0.1-0.1-0.2,0-0.3c1.1-2,2.2-4,3.1-6.1
		c2.4-5.2,2.8-10.6,2.4-16.3c-1.4,6.6-2.9,13.3-6.3,19.3c3.1-8.6,5-17.2,1.5-26.2c-0.1,2.2-0.2,4.4,0,6.6c0.2,3.1,0.1,6.2-0.4,9.2
		c-0.8,4.9-2.6,9.5-4.2,14.2c-0.3,0.8-0.3,1.8-1.1,2.4c-0.4-3.5-1.4-6.7-2.8-9.9C48.2,41.7,47.5,40.9,47.2,39.8z"/>
	<path class="st7" d="M69.7,44.5c-1.6,1-3,2.3-4.5,3.6c-5.6,4.9-9.6,10.9-13.4,17.2c-2.3,3.9-3.1,8.1-4,12.4
		c-1.4,6.4-1.5,12.9-1.3,19.4c0.1,3.5,1,7,2.1,10.5c0.5,1.5,0.9,3,1.2,4.6c0.1,0.5,0.3,1-0.4,1.3c-2-3.1-3.5-6.5-4.6-10
		C42,94.6,42.2,85.8,44.4,77c1.9-7.5,4.8-14.6,9.6-20.8c2.4-3.1,5.2-5.6,8.2-8c4.5-3.6,9-7.2,13.9-10.3c0,0.3-0.2,0.5-0.4,0.7
		c-1.9,1.7-3.7,3.4-5.6,5.1C69.9,43.9,69.6,44.1,69.7,44.5z"/>
	<path class="st7" d="M150.4,113.4c-0.5-0.3-0.3-0.8-0.2-1.3c0.8-3.6,2.1-7,2.7-10.6c0.6-3.3,0.9-6.6,0.6-9.9
		c-0.2-1.4,0-2.9-0.1-4.3c-0.1-4-1.1-7.9-1.7-11.9c-1.2-7.6-5.6-13.6-9.9-19.7c-2.6-3.7-5.9-6.7-9.4-9.6c-0.7-0.6-1.4-1.1-2.2-1.6
		c-0.1-0.7-0.7-1-1.2-1.4c-1.4-1.3-2.8-2.6-4.2-3.9c-0.2-0.2-0.3-0.4-0.2-0.6c4.7,2.9,9,6.4,13.3,9.9c2.6,2.1,5.1,4.4,7.3,7
		c4.9,6,8,12.9,9.9,20.4c1.4,5.2,2.3,10.5,2,15.9c-0.3,7.4-2.4,14.4-6.1,20.8C151,112.8,150.9,113.3,150.4,113.4z"/>
	<path class="st8" d="M71.6,38c0.2-3.4-0.4-6.8-1.3-10.1c-0.7-2.6-1.6-5.2-3.3-7.4c-3-3.7-6.8-6.3-11.5-7.5
		c-0.9-0.2-1.7-0.6-2.6-0.7c0,0.9,0.1,1.7,0.1,2.6c0,3.6,0.2,7.2-0.2,10.8c-0.4,4-1,7.9-3.4,11.3c-0.3,0.5-0.6,1.1-1.3,1.1
		c2.5-5.3,3.7-10.9,3.8-16.7c0.1-2.7,0-5.4-0.2-8.1c-0.1-0.9,0.3-1.4,1.3-1.6c6-1.2,13.1,2.2,16.5,7.9c2.9,5,4.4,10.3,3.3,16.1
		c-0.1,0.5,0,1.1,0,1.6C72.4,37.7,72.1,38.1,71.6,38z"/>
	<path class="st8" d="M151.9,38.4c-0.7-0.2-1.1-0.9-1.5-1.5c-1.6-2.4-2.3-5.1-2.8-7.9c-1-5.5-0.6-11.1-0.6-16.6c-4,0.9-7.7,2.4-11,5
		c-4.3,3.6-6,8.3-7,13.6c-0.4,2.3-0.7,4.7-0.6,7.1c-0.4-0.2-0.8-0.4-1.1-0.7c0.2-0.9-0.1-1.7-0.2-2.6c-0.7-7.7,1.5-14.5,7.4-19.6
		c3.5-3,7.8-3.9,12.4-3.3c1.3,0.2,1.5,0.5,1.4,1.9c-0.6,6.5-0.3,13,1.5,19.3C150.3,34.9,151.2,36.6,151.9,38.4z"/>
	<path class="st9" d="M51.5,52.6c0.8-0.6,0.8-1.6,1.1-2.4c1.6-4.7,3.4-9.3,4.2-14.2c0.5-3.1,0.6-6.1,0.4-9.2c-0.2-2.2,0-4.4,0-6.6
		c3.5,8.9,1.7,17.6-1.5,26.2c3.4-6,4.8-12.7,6.3-19.3c0.4,5.6,0.1,11.1-2.4,16.3c-1,2.1-2,4.1-3.1,6.1c-0.1,0.1-0.1,0.2,0,0.3
		c-1.3,1-2.4,2.1-3.6,3.2C52.3,53.7,51.9,53.5,51.5,52.6z M55.4,47.3C55.4,47.3,55.4,47.3,55.4,47.3c-0.1-0.1-0.1,0-0.1,0
		C55.4,47.3,55.4,47.3,55.4,47.3C55.4,47.4,55.4,47.3,55.4,47.3z"/>
	<path class="st9" d="M143.5,50c0.1-0.4-0.2-0.8-0.4-1.1c-2.1-3.9-4.2-7.9-5-12.4c-0.1-0.7-0.3-1.4-0.3-2.1c0.1-2.4-0.5-4.8,0.1-7.3
		c0.5,2.1,0.9,4.2,1.4,6.3c0.5,2.2,1.1,4.4,1.8,6.5c0.8,2.1,1.6,4.1,2.7,6.1c-3-8.5-4.7-17.1-1.3-25.9c0.3,0.4,0.2,0.9,0.1,1.3
		c-0.3,3.8-0.3,7.6-0.1,11.4c0.2,4.3,1.5,8.5,2.9,12.6c0.8,2.3,1.6,4.6,2.5,6.8c0,0.1,0.1,0.2,0.2,0.3c0,0.3,0.2,0.8-0.3,1
		c-0.4,0.2-0.6-0.2-0.8-0.5c-0.9-1.1-2.4-1.6-3.3-2.7C143.8,50.2,143.7,50.1,143.5,50z M144.3,46.7c0,0.1,0.1,0.2,0.1,0.3
		c0,0,0.1-0.1,0.1-0.1C144.4,46.9,144.4,46.8,144.3,46.7c0-0.1,0-0.2,0-0.3c0,0-0.1,0-0.1,0.1C144.2,46.6,144.3,46.7,144.3,46.7z"/>
	<path class="st8" d="M127.9,149.9c0.1-0.9-0.7-1.2-1.2-1.6c-5.2-4.2-11.2-6.7-17.8-7.7c-0.8-0.1-1.7-0.1-2.3-0.8
		c1.5-0.2,3-0.2,4.5,0c2.3,0.5,4.6,0.8,6.8,1.4c5.3,1.4,10,4.1,13.6,8.3c1.6,1.9,2.6,4.2,2.8,6.7c0.3,2.3-1.6,4.9-3.8,5.6
		c0.3-0.9,1-1.7,1.2-2.6c0.7-3.3-0.4-6.1-2.7-8.5C128.8,150.2,128.5,149.8,127.9,149.9z"/>
	<path class="st10" d="M167.8,47.1c-0.3-0.3-0.2-0.6-0.1-0.9c1-4.7,1.9-9.5,3.8-13.9c0.2-0.5,0.2-0.6-0.4-0.6
		c-1.5,0.2-3.1,0.3-4.6,0.4c-0.3,0-0.7,0-0.9-0.3c2.7-1.4,5.5-1.7,8.4-1.2c0.8,0.1,0.5,0.5,0.3,0.9c-1.9,2.8-3.3,5.8-4.4,9
		c-0.4,1.3-0.8,2.6-1.2,3.9C168.4,45.3,168.2,46.2,167.8,47.1z"/>
	<path class="st10" d="M34.5,31.7c-1.3,0.5-2.7,0.1-4.1,0.1c-0.7,0-1.4-0.2-2.2-0.3c2.1,4.8,3,9.7,4.1,14.7c0.1,0.3,0.4,0.7-0.2,0.8
		c-1.1-4.2-2.2-8.4-4.3-12.2c-0.6-1.2-1.3-2.3-2-3.4c-0.4-0.6-0.3-0.8,0.5-0.9C29.1,30,31.9,30.4,34.5,31.7z"/>
	<path class="st1" d="M96.8,139.8c-0.8,0.3-1.6,0.3-2.4-0.1C95.2,139.5,96,139.5,96.8,139.8z"/>
	<path class="st7" d="M124.7,38.6c-0.3,0.1-0.6,0.1-0.6-0.4C124.3,38.3,124.5,38.4,124.7,38.6z"/>
	<path class="st11" d="M72,149.5c0.1,0.7,0.6,1.2,1.2,1.5c1.1,0.7,2.1,1.5,3,2.5c0.9,1.1,0.9,2.5,0.8,3.9c-1.7,2.2-3.6,4-6.5,4.4
		c-0.4,0.1-0.7,0.1-1.1-0.1c0.1-0.4-0.2-0.7-0.4-1c-0.7-1.1-1-2.4-1-3.7c0.1-1.3,0.3-2.5,0.9-3.6C69.6,152,70.5,150.5,72,149.5z"/>
	<path class="st7" d="M72,149.5c-1.5,1-2.4,2.5-3.1,4c-0.5,1.1-0.8,2.3-0.9,3.6c-0.1,1.4,0.2,2.6,1,3.7c0.2,0.3,0.5,0.6,0.4,1
		c-2.7-0.8-4.3-3.9-3.7-6.7c0.9-4.2,3.6-7.1,6.9-9.5c3.9-2.9,8.3-4.4,13-5.2c1.6-0.3,3.3-0.5,4.9-0.8c1-0.2,1.9,0.2,2.8,0.2
		c-1,0.8-2.3,0.8-3.4,1c-6.5,1.1-12.3,3.7-17.3,8C72.3,149,72.1,149.2,72,149.5z"/>
	<path class="st8" d="M108.5,169.7c0-1.7,0-3.4,0.4-5c0.1-0.3,0.1-0.7,0.5-0.6c0.3,0,0.3,0.4,0.3,0.7c0.3,5,2.5,9.3,4.6,13.7
		c0.2,0.4,0.3,0.7,0.5,1.1c0.2,0.2,0.4,0.5,0.5,0.7c1.1,2.2,2.4,4.2,5,5c-0.7,1.3-2.3,1.7-3.8,0.9c-0.8-0.4-1.4-1.1-2-1.9
		c-1.4-1.9-2.3-4-3-6.3c-0.7-2.4-1.5-4.8-2.3-7.2C109.2,170.3,109.1,169.8,108.5,169.7z"/>
	<path class="st7" d="M84.8,179.7c0.5-0.3,0.7-0.9,0.9-1.4c1.7-3.6,3.4-7.2,4.2-11.1c0.2-0.8,0.2-1.5,0.3-2.3c0-0.3-0.1-0.7,0.3-0.8
		c0.4,0,0.5,0.4,0.5,0.7c0.2,1.6,0.5,3.2,0.2,4.9c-0.5,0.2-0.5,0.7-0.7,1.2c-0.9,2.7-1.7,5.4-2.5,8.1c-0.7,2.1-1.6,4-3,5.7
		c-1,1.3-2.2,2.2-4,1.6c-0.5-0.2-1.1-0.3-1.3-0.9c0-0.4,0.3-0.5,0.6-0.5c0.9-0.2,1.6-0.7,2.1-1.4C83.5,182.3,84.3,181,84.8,179.7z"
		/>
	<path class="st11" d="M105.1,181.1c2,0.9,2,0.9,3.5-0.8c0.3-0.3,0.6-0.6,0.9-0.9c0.7,1.8,1.6,3.6,2.1,5.4c0.5,1.9,0.4,4-0.4,5.9
		c-0.2,0-0.4,0-0.4,0.3c0,0,0,0,0,0c-0.4-0.2-0.7,0.5-1.1,0.2c-0.5-0.4-1.1-0.7-1.4-1.2C106.4,187.3,105.2,184.4,105.1,181.1z"/>
	<path class="st11" d="M90.5,179.4c0.5,0.6,1,1.2,1.5,1.8c0.7,0.9,1.1,1,2.1,0.4c0.3-0.2,0.6-0.3,0.9-0.5c0.1,0.6-0.1,1.3-0.2,1.9
		c-0.6,2.5-1.4,5-3.1,7.1c-0.8,0.9-1.5,1.6-2.8,0.7c-0.5-0.6-0.5-1.3-0.5-2c-0.2-2.2-0.2-4.3,1-6.2
		C89.9,181.6,89.9,180.4,90.5,179.4z"/>
	<path class="st8" d="M88.8,190.8c1.2,0.9,2,0.2,2.8-0.7c1.8-2,2.5-4.5,3.1-7.1c0.2-0.6,0.3-1.2,0.2-1.9c0.5-1.4,0.4-3,0.6-4.5
		c0.4-4,0.4-8-0.3-12c0-0.3,0-0.5,0-0.8c0-0.2,0.1-0.5,0.4-0.5c0.3,0,0.4,0.2,0.5,0.4c0.8,1.5,1.3,3.1,1.4,4.8
		c-0.5,0.2-0.5,0.7-0.6,1.2c-0.1,1.9,0,3.7,0.1,5.6c0.3,4.4-0.4,8.7-2.2,12.8c-0.7,1.6-1.7,2.9-3.4,3.6
		C90.3,192.1,89.5,191.8,88.8,190.8z"/>
	<path class="st8" d="M105.1,181.1c0.1,3.3,1.4,6.2,3.2,8.9c0.4,0.5,0.9,0.8,1.4,1.2c0.4,0.3,0.7-0.4,1.1-0.2
		c-0.5,1-1.3,0.9-2.1,0.6c-1.3-0.4-2.2-1.4-2.9-2.5c-1.6-2.7-2.3-5.7-2.7-8.8c-0.5-3.4,0.2-6.8,0-10.3c0-0.6,0.1-1.2-0.6-1.6
		c0-1.7,0.6-3.2,1.3-4.7c0.1-0.3,0.3-0.6,0.7-0.4c0.3,0.1,0.2,0.5,0.2,0.7c0.1,1.4-0.3,2.7-0.4,4.1c-0.2,4.3,0,8.5,0.6,12.8
		C104.9,181,105,181,105.1,181.1z"/>
	<path class="st8" d="M82.6,157.3c0.1,3.1,0,6.2-1,9.2c-1,3-2.4,5.7-4.4,8.2c-0.1,0.1-0.1,0.2-0.1,0.3c-1,1.4-2.2,2.8-2.3,4.7
		c0,0.6,0.1,1.5-0.8,1.8c-1.4-0.5-1.7-1-1.3-2.4c0.6-1.9,1.6-3.6,2.6-5.2c1.4-2.3,3-4.4,4.3-6.7c1.5-2.6,2-5.3,1.7-8.3
		C81.2,157.9,81.7,157.5,82.6,157.3z"/>
	<path class="st8" d="M122.7,175c-0.7-1.2-1.4-2.3-2.1-3.5c-2.3-3.8-3.4-7.9-3.3-12.4c0-0.6,0-1.3,0-1.9c0.9,0.3,1.3,0.9,1.2,1.9
		c-0.6,3.7,0.7,6.9,2.8,9.9c0,0,0,0.1,0.1,0.1c1.3,2.1,2.7,4.2,4,6.3c0.8,1.2,1.4,2.5,1.7,3.8c0.4,1.4-0.2,2.2-1.7,2.3
		c-0.2-0.7-0.3-1.3-0.4-2C124.8,177.8,123.9,176.3,122.7,175z"/>
	<path class="st11" d="M74,181.5c0.9-0.3,0.7-1.2,0.8-1.8c0.2-1.9,1.3-3.3,2.3-4.7c0.7,0,1.3-0.4,1.9-0.7c1-0.4,2-0.5,2.9,0.1
		c-1.2,2.5-2.8,4.8-5.1,6.5C76.1,181.5,75.1,182,74,181.5z"/>
	<path class="st11" d="M122.7,175c1.2,1.3,2.1,2.8,2.4,4.6c0.1,0.7,0.3,1.3,0.4,2c0,0,0,0,0,0c-0.1,0.1-0.1,0.1-0.2,0.2
		c-0.9,0.1-1.7-0.3-2.3-0.8c-2.3-1.7-3.8-3.9-5-6.5c1.1-0.7,2.2-0.4,3.4,0.1C121.8,174.7,122.2,174.8,122.7,175z"/>
	<path class="st11" d="M120.3,185.2c-2.6-0.8-3.9-2.8-5-5c-0.1-0.3-0.4-0.5-0.5-0.7c1.1,0,1.2-0.9,1.4-1.7c0.1-0.4,0.2-0.9,0.2-1.4
		c1,1.3,1.7,2.9,2.8,4.2c0.2,0.2,0.3,0.5,0.5,0.6C121.2,182.3,120.9,183.7,120.3,185.2z"/>
	<path class="st11" d="M84.8,179.7c-0.6,1.4-1.4,2.7-2.3,3.8c-0.6,0.7-1.2,1.2-2.1,1.4c-0.3,0-0.6,0.1-0.6,0.5
		c-0.4-0.8-0.4-1.7-0.6-2.5c-0.1-0.3,0.1-0.6,0.3-0.8c1.6-1.6,2.8-3.7,3.9-5.6c0.2,0.2,0.4,0.6,0.3,0.9
		C83.7,178.3,84.2,179,84.8,179.7z"/>
	<path class="st8" d="M110.8,191c0.1-0.2,0.2-0.2,0.4-0.3C111.1,190.9,111,191.2,110.8,191z"/>
	<path class="st8" d="M125.3,181.7c0.1-0.1,0.1-0.1,0.2-0.2C125.6,181.7,125.4,181.7,125.3,181.7z"/>
	<path class="st12" d="M122.8,184.2c0,0-0.1-0.1-0.1-0.1c0.1-0.1,0.1-0.1,0.2,0C122.9,184.1,122.9,184.1,122.8,184.2z"/>
	<path class="st11" d="M127.9,149.9c0.6-0.1,0.9,0.3,1.2,0.7c2.2,2.4,3.4,5.2,2.7,8.5c-0.2,1-0.9,1.7-1.2,2.6c-1,0.3-2,0.1-2.9-0.4
		c-1.8-0.9-3.4-2.1-4.6-3.7c-0.7-3.3,1.3-5.1,3.7-6.6C127.2,150.7,127.6,150.3,127.9,149.9z"/>
	<path class="st13" d="M107.8,106.1c0.3-3.7,1.7-7.9,5-11.4c1.9-2,4.1-3.7,5.6-6.1c0.5-0.7,0.9-1.3,1.3-2c0.7-1.1,1.3-1.3,2.6-0.9
		c1.6,0.6,3,1.6,4.4,2.6c3.6,2.7,6.8,5.7,8.8,9.8c1.4,2.9,2.4,5.9,2.6,9.2c0.4,5.3-2.2,8.9-6.3,11.9c-7,5.1-16.4,3.3-21.6-3.5
		C108.8,113.8,107.9,110.3,107.8,106.1z M134,114c0.8-1,1.2-1.8,1.5-2.7c0.8-2.7,0.4-5.3-0.3-7.9c-2-7-7-11.4-12.9-15.1
		c-0.6-0.4-0.8,0-1.1,0.4c-2,3-4.1,6-6.6,8.6c-1.7,1.7-2.8,3.8-3.6,6c-0.8,2.4-0.6,4.9,0.1,7.3c-0.2-4.8,2.2-9.8,6.1-11.9
		c4.6-2.4,9-1.5,13.1,1.3C135.2,103.5,135.2,108.4,134,114z M123.9,105.4c0-2-2.5-3.5-4.5-2.7c-1,0.4-1.8,1.2-2.4,2.1
		c-0.4,0.6-0.5,1.2-0.2,1.9c0.5,1.4,2.5,2.7,3.7,2.5C122.2,108.8,123.9,107,123.9,105.4z"/>
	<path class="st13" d="M92.1,105.6c0.1,7.7-2.8,12.3-8.4,15c-5.8,2.7-11.3,2-16.4-2c-5.4-4.2-6.7-9-4.6-16.2
		c2.2-7.6,7.4-12.7,14.1-16.4c1.9-1.1,2.5-0.7,3.7,1.1c1.6,2.4,3.4,4.6,5.6,6.5C90,97.2,91.8,101.8,92.1,105.6z M88.9,110.9
		c0.6-1.9,0.8-3.5,0.7-5.2c-0.4-3.3-2-6.1-4.2-8.4c-2.5-2.6-4.6-5.5-6.5-8.5c-0.4-0.7-0.8-0.6-1.4-0.3c-2.1,1.2-4,2.8-5.8,4.4
		c-4.4,3.8-6.9,8.6-7.5,14.3c-0.3,2.4,0.2,4.7,1.8,6.6c-0.9-3.8-1.2-7.5,1.1-10.9c2.3-3.4,5.7-5,9.6-5.4
		C83.8,96.9,89,102.6,88.9,110.9z M76.1,105.4c0,1.6,1.6,3.3,3.3,3.7c1.1,0.2,3.1-1,3.7-2.2c0.3-0.6,0.4-1.3,0-1.9
		c-0.7-1-1.5-1.9-2.7-2.3C78.5,101.9,76.1,103.5,76.1,105.4z"/>
	<path class="st0" d="M101.3,124.8c-0.1,0.3-0.1,0.5-0.2,0.7c-0.2,0.5-0.5,0.8-1.1,0.8c-0.6,0-1-0.2-1.2-0.8c-0.2-0.7-0.5-0.7-1-0.5
		c-0.9,0.3-1.8,0.4-2.8,0.3c-1.6-0.2-3-1.4-3.3-2.8c-0.2-0.7,0-1.4,0.8-1.6c0.7-0.2,1.2,0.2,1.5,0.9c0.6,1.5,1.5,2.1,3.2,1.5
		c1.9-0.6,3.7-0.6,5.6,0c1.6,0.5,2.5,0,3.2-1.5c0.3-0.6,0.7-1.1,1.4-0.8c0.7,0.2,1,0.8,0.9,1.5c-0.2,1.5-1.7,2.8-3.3,3
		C103.7,125.6,102.5,125.3,101.3,124.8z"/>
	<path class="st5" d="M100,25.3c-1.5,0-2.2-0.5-2.2-1.8c0-1.4,0.8-2.1,2.3-2.1c1.3,0,2.2,0.8,2.1,2C102.2,24.5,101.7,25.5,100,25.3z
		"/>
	<path class="st5" d="M117.4,37.8c0,1-0.7,1.8-1.7,1.9c-1.1,0-1.9-0.9-1.9-2c0-1.1,0.8-2,1.7-2C116.5,35.6,117.4,36.6,117.4,37.8z"
		/>
	<path class="st5" d="M84.4,35.6c0.9,0,1.8,0.9,1.8,1.9c0,1-1,2.1-1.9,2.1c-1,0-1.9-0.9-1.9-1.9C82.4,36.8,83.5,35.6,84.4,35.6z"/>
	<path class="st5" d="M108.1,33.9c0-1,0.9-1.8,1.8-1.8c1.1,0,2,1,2,2c-0.1,0.8-1,1.8-1.8,1.8C109.2,35.9,108.1,34.8,108.1,33.9z"/>
	<path class="st5" d="M88.1,34c0-1,0.9-1.8,1.9-1.8c1,0,1.9,0.9,1.9,1.8c0,0.8-1.2,1.9-2,2C88.9,36,88.1,35,88.1,34z"/>
	<path class="st5" d="M96,27.5c1,0,1.8,0.9,1.8,1.9c0,0.9-0.9,1.7-1.9,1.7c-0.9,0-1.7-0.9-1.7-1.7C94.2,28.4,95,27.5,96,27.5z"/>
	<path class="st5" d="M105.8,29.4c0,1-0.9,1.8-1.8,1.8c-1,0-1.8-0.8-1.8-1.8c0-1.1,0.9-1.9,1.9-1.8C105,27.5,105.9,28.5,105.8,29.4z
		"/>
	<path class="st6" d="M55.4,47.3C55.4,47.3,55.4,47.4,55.4,47.3c-0.1,0-0.1,0-0.1,0C55.4,47.3,55.4,47.3,55.4,47.3
		C55.4,47.3,55.4,47.3,55.4,47.3z"/>
	<path class="st6" d="M144.3,46.7c-0.1-0.1-0.1-0.1-0.2-0.2c0,0,0.1,0,0.1-0.1C144.3,46.5,144.3,46.6,144.3,46.7L144.3,46.7z"/>
	<path class="st6" d="M144.3,46.7c0.1,0.1,0.1,0.2,0.1,0.2c0,0,0,0-0.1,0.1C144.4,46.9,144.3,46.8,144.3,46.7
		C144.3,46.7,144.3,46.7,144.3,46.7z"/>
	<path class="st14" d="M134,114c1.3-5.5,1.2-10.5-3.8-14c-4-2.8-8.5-3.7-13.1-1.3c-3.9,2-6.4,7.1-6.1,11.9c-0.8-2.4-1-4.8-0.1-7.3
		c0.8-2.3,2-4.3,3.6-6c2.5-2.6,4.7-5.6,6.6-8.6c0.3-0.4,0.5-0.8,1.1-0.4c5.9,3.6,10.8,8.1,12.9,15.1c0.8,2.6,1.1,5.2,0.3,7.9
		C135.2,112.2,134.8,113,134,114z"/>
	<path class="st7" d="M123.9,105.4c0,1.6-1.7,3.4-3.4,3.7c-1.2,0.2-3.2-1.1-3.7-2.5c-0.2-0.7-0.2-1.3,0.2-1.9
		c0.7-0.9,1.4-1.6,2.4-2.1C121.4,101.9,123.9,103.4,123.9,105.4z"/>
	<path class="st14" d="M88.9,110.9c0.1-8.3-5.2-14-12.3-13.4c-3.9,0.3-7.4,1.9-9.6,5.4c-2.2,3.4-1.9,7.2-1.1,10.9
		c-1.6-1.9-2.1-4.2-1.8-6.6c0.7-5.7,3.2-10.5,7.5-14.3c1.8-1.6,3.7-3.1,5.8-4.4c0.6-0.3,0.9-0.4,1.4,0.3c1.9,3,4,5.9,6.5,8.5
		c2.2,2.4,3.9,5.1,4.2,8.4C89.8,107.4,89.5,109,88.9,110.9z"/>
	<path class="st7" d="M76.1,105.4c0-2,2.4-3.5,4.3-2.8c1.2,0.4,2,1.3,2.7,2.3c0.4,0.6,0.3,1.3,0,1.9c-0.5,1.2-2.6,2.4-3.7,2.2
		C77.7,108.7,76.1,107,76.1,105.4z"/>
</g>
</svg>
