<?xml version="1.0" encoding="utf-8"?>
<!-- Generator: Adobe Illustrator 27.9.0, SVG Export Plug-In . SVG Version: 6.00 Build 0)  -->
<svg version="1.1" id="Layer_1" xmlns="http://www.w3.org/2000/svg" xmlns:xlink="http://www.w3.org/1999/xlink" x="0px" y="0px"
	 viewBox="0 0 200 200" style="enable-background:new 0 0 200 200;" xml:space="preserve">
<style type="text/css">
	.st0{fill:#4B6D6B;}
	.st1{fill:#ED8D49;}
	.st2{fill:#9BC98B;}
	.st3{fill:#FAFAED;}
	.st4{fill:#F0E477;}
	.st5{fill:#EBC557;}
	.st6{fill:#649C74;}
	.st7{fill:#FDB1AE;}
	.st8{fill:#F8B0AD;}
	.st9{fill:#F0E378;}
	.st10{fill:#FAB0AC;}
	.st11{fill:#F0E276;}
	.st12{fill:#FCB0AB;}
	.st13{fill:#486C6A;}
	.st14{fill:#FCFCFC;}
</style>
<g>
	<path class="st0" d="M139,50.3c3.1,0.9,5.7,2.6,8.1,4.6c6.4,5.6,11.1,12.4,13.1,20.8c1.2,5.1,1,10.3,0.8,15.4
		c-0.2,6-1.2,11.9-3.9,17.3c-0.2,0.4-0.2,0.7,0.1,1.1c1.7,3,3.4,6.1,5.2,9.1c3.4,5.6,6.5,11.3,8.1,17.7c0.8,3,1.2,6.1,1.4,9.3
		c0.5,7.4-2.2,13.7-7,19.2c-7,8.1-15.9,13.3-25.9,16.9c-12.4,4.5-25.2,7.8-38.1,10.3c-9.9,1.9-20,2.4-30,0.4
		c-7.1-1.4-13.5-4.6-19.7-8.1c-4.3-2.4-8.3-5.3-11.8-8.7c-6.2-6.2-9.6-13.7-9.9-22.5c0-0.7,0-1.4-0.1-2.1c0,0-0.1,0-0.1-0.1
		c-0.3-0.1-0.5,0.2-0.7,0.4c-2.1,1.4-4.3,1.5-6.3,0.2c-2-1.3-2.5-3.4-2.3-5.6c0.1-2.1,1.1-3.9,2.4-5.5c2.2-2.7,4.8-5,8-6.5
		c1.7-0.8,2.7-1.9,3.4-3.6c1.7-4.5,4.1-8.7,7-12.6c1.7-2.3,3.8-4.1,6-5.9c0.4-0.3,0.7-0.6,0.3-1.1c-2.7-3.9-3.1-8.4-2.5-12.9
		c1-7.8,4.3-14.9,8.3-21.6c3.3-5.4,7.3-10.3,11.9-14.6c0.3-0.2,0.6-0.4,0.7-0.8c0.4-0.5,1-0.8,1.4-1.4c0.6,0.1,0.9-0.4,1.2-0.7
		c2.2-1.9,4.6-3.6,7.1-5.1c1.3-0.8,2.5-1.6,3.7-2.3c1-0.5,2.1-1,3-1.8c0.4,0.1,0.6-0.1,0.9-0.2c6.6-3.4,13.8-5,21.1-6
		c3.7-0.5,7.3-0.7,11-0.2c0.4,0,0.7,0,1.1,0.2c-0.6,0.7-1.2,1.4-1.8,2.1c-3.7-0.3-7.4,0.2-11.1,0.7c-5.8,0.9-11.6,2.2-16.9,4.7
		c-9.6,4.5-18,10.6-24.8,18.8c-6.1,7.4-10.6,15.6-13,24.9c-0.9,3.4-1.1,6.9-0.3,10.4c0.9,3.6,3.2,6.2,5.9,8.6
		c0.1,0.2,0.3,0.3,0.5,0.2l0,0c0,0.3,0.2,0.4,0.4,0.6c3,2.5,6.1,4.7,9.6,6.4c0.3,0.2,0.8,0.2,1,0.8c-1.9-0.3-3.5-0.9-5.1-1.6
		c-1-0.4-1.9-1-3-1.2c0-0.1-0.1-0.3-0.1-0.3c-3-1.4-5.7-3.2-8.1-5.4c-0.2-0.2-0.5-0.3-0.6,0c-0.6,1-1.7,1.5-2.2,2.6
		c-0.5,0.3-0.8,0.7-1.1,1.1c-0.9,0.7-1.5,1.7-2.2,2.6c-4.2,5.9-7,12.5-8.8,19.5c-1.3,5.1-1.6,10.3-1.1,15.5c0.1,2.2,0.4,4.4,1.2,6.4
		c1.4,4.7,3.9,8.7,7.4,12.1c0.4,0.5,0.8,0.9,1.3,1.3c0,0,0,0,0,0c0.1,0.1,0.1,0.2,0.2,0.2c0.8,0.9,1.6,1.8,2.7,2.3
		c0.4,0.2,0.7,0.5,1.1,0.7c1.7,1.5,3.6,2.6,5.6,3.7c2.5,1.6,5.3,2.9,8,4.2c8.2,4,16.8,5.4,25.8,4.8c7.8-0.5,15.4-1.4,22.9-3.6
		c0.3,0.2,0.6,0.2,0.9,0.1c1.6-0.5,3.3-0.8,4.8-1.5c0.8-0.2,1.7-0.5,2.5-0.7c2.6-0.8,5.3-1.2,7.9-1.8c3.9-1,7.6-2.4,11.3-3.7
		c6.2-2.2,11.8-5.4,17.1-9.2c2.1-1.3,4-2.9,5.8-4.5c4.8-4.3,8.1-9.5,8.8-15.9c0.6-5-0.3-9.9-1.8-14.6c-1.7-5.4-4.4-10.5-7.4-15.4
		c-0.1-0.3-0.2-0.5-0.5-0.7c0,0.1-0.1,0.2-0.1,0.3c0,0.5-0.1,0.9-0.7,1c-0.6,0.1-0.6-0.5-0.8-0.9c-0.2-0.4-0.1-0.9-0.5-1.2
		c-0.4,0.9-0.6,1.8-1.1,2.5c-0.3,0.3-0.5,0.8-1.1,0.6c-0.5-0.2-0.3-0.7-0.3-1.1c0.1-0.7,0.5-1.3,0.4-2.2c-0.9,1.7-1.8,3.1-3.1,4.3
		c-0.3,0.1-0.7,0.1-1,0c-0.1-0.5,0.3-0.9,0.5-1.3c0.7-0.9,1.4-1.8,1.9-3c-0.6,0.2-0.8,0.6-1.1,0.9c-1.3,1.3-2.7,2.5-4.3,3.6
		c-0.3,0.2-0.6,0.6-0.9,0.1c-0.2-0.3,0.2-0.6,0.4-0.8c1-1,2.1-2.1,3.1-3.1c0.1-0.1,0.2-0.3,0.3-0.4c0.1-0.1,0.3-0.2,0.4-0.3
		c0.1-0.1,0.1-0.2,0.2-0.2c0.2-0.1,0.3-0.2,0.2-0.4c0.1,0,0.2-0.1,0.2-0.2c0,0,0.1-0.1,0.1-0.1c0,0-0.1,0-0.1,0c0,0,0,0.1,0,0.1
		c-0.1,0.1-0.1,0.1-0.2,0.2c-0.2,0.1-0.3,0.2-0.2,0.4c-0.1,0.1-0.2,0.1-0.2,0.2c-0.2,0-0.3,0-0.4,0.2c-0.1,0.1-0.2,0.3-0.3,0.4
		c-0.4,0-0.6,0.2-0.9,0.4c-1,0.8-2,1.4-3.1,2.1c-2.7,1.6-5.6,2.5-8.5,3.7c-6.7,2.9-13.7,4.4-20.9,5c-6.6,0.5-13-0.5-19.1-3.1
		c-0.6-0.2-1.1-0.5-1.6-0.8c0-0.1,0.1-0.2,0.1-0.3c6.7,0.9,13.4,0.9,20.2,0.9c2.8-0.2,5.5-0.5,8.2-1.2c1.3-0.3,2.7-0.4,4-1
		c0.7,0,1.4-0.3,2-0.5c8.9-3.2,16.1-8.8,22.3-15.7c1.6-1.8,2.9-3.7,3.5-6.1c1.4-6.3,2.3-12.6,1.8-19c-0.1-1.4-0.3-2.7-0.4-4
		c-0.3-2.9-1.1-5.7-2.3-8.3c-3.2-6.8-7.4-12.8-13.9-16.9c-1-0.7-2.2-1-3.1-1.8C138.6,51.3,138.8,50.8,139,50.3z M29.1,137.8
		c-0.9,0.8-1.8,1.5-2.6,2.4c-1.5,1.6-3,3.3-3.3,5.6c-0.2,2,0.5,3.8,2.9,3.3c1.9-1,3.9-1.9,3.8-4.6c0-0.9,0.2-1.7,0.4-2.6
		c0.3-1.9,0.8-3.8,1.3-5.9C30.7,136.7,29.7,137.1,29.1,137.8z"/>
	<path class="st1" d="M114.1,45.4c0.6-0.7,1.2-1.4,1.8-2.1c0.3,0,0.6,0,0.8-0.3c2.4-2.7,4.8-5.5,5.9-9.1c0.4-1.3,0.4-2.7,0.2-4.2
		c-0.5-4-3.1-6.8-4.9-10.1c-1.2-2.3-2.4-4.6-2.6-7.2c-0.5-4.2,3.1-7.1,7.1-5.8c2,0.7,3.6,1.9,5,3.5c5.1,6,9.4,12.4,12.5,19.7
		c2.6,6.2,2.3,12.3-0.2,18.5c-0.3,0.7-0.7,1.3-0.8,2.1c-0.2,0.5-0.4,1-0.7,1.5c-0.1,0.1-0.3,0.1-0.4,0.2c-1.2,2.1-2.4,4.3-3.6,6.4
		c-0.9,1.1-1.7,2.3-2.6,3.4c0,0,0,0,0,0c-0.3,0.1-0.4,0.4-0.5,0.6c-0.1,0-0.1,0.1-0.1,0.2c-0.1,0.1-0.2,0.2-0.2,0.3l0,0
		c-0.7,0.4-1,1.3-1.8,1.5c-0.2-0.3,0.1-0.6,0.1-0.9c0.2-0.4,0.5-0.8,0.6-1.3c1.1-3,2.2-5.9,3.9-8.6c0.4-0.6,0.8-1.2,0.8-2
		c0.1-0.1,0.3-0.1,0.4-0.2c1.5-2.9,3-5.8,3.6-9.1c0.4-1.8,0.3-3.6,0.2-5.3c-0.1-2.6-0.9-5-2.2-7.2c-0.7-1.8-1.6-3.6-2.7-5.3
		c-0.6-1.1-1.1-2.2-2-3.1c-0.1-0.7-0.6-1.2-1-1.8c-1.1-1.5-1.8-3.1-3.2-4.4c0-0.5-0.4-0.8-0.7-1.2c-1.4-1.8-2.8-3.7-5-4.6
		c-1.1-0.6-2.1-0.6-3.1,0.1c-1,0.8-1,1.9-0.7,3c0.4,1.7,1.2,3.2,2,4.8c1.4,2.5,3,4.9,4.3,7.5c1.9,3.8,2.1,7.6,0.2,11.4
		c-0.7,1.3-0.5,2.4,0.2,3.6c1,1.9,2.3,3.6,3.8,5.3c0.1,0.5,0.4,1,0.9,1.3c0.1,0.3,0.4,0.6-0.2,0.6c-0.2-0.5-0.7-0.8-1.1-1.1
		c-1.1-1-2.2-2.1-3.3-3.1c-0.3-0.6-0.6-1.3-1.1-1.8c-0.2-0.5-0.3-1.1-0.8-1.4c0,0-0.2,0.1-0.2,0.2c-0.1,0.6,0.1,1.2,0.5,1.7
		c0,0,0.1,0,0.1,0.1c0.1,0.8,0.7,1.4,1.2,2c0.9,1,1.6,2.2,2.6,3.1c0.4,1,1.3,1.5,1.8,2.4l-0.1,0.1c-0.1,0-0.3,0-0.4-0.1
		c-2.7-1.5-5.3-3.1-6.8-5.9c-0.1-0.4,0-0.9-0.5-1c-0.1,0-0.4,0.2-0.5,0.4c-0.2,0.4-0.3,0.8,0.3,1.1c0,0.6,0.4,1.1,0.7,1.6
		c1,1.6,2.4,3,3.7,4.3c1.8,1.8,3.6,3.5,5.4,5.3l0,0.1c-0.1,0-0.2,0-0.3,0c-4.4-2.2-8.6-4.7-10.9-9.3c-0.1-0.3-0.2-0.7-0.6-0.8
		c-0.4,0-0.5,0.3-0.8,0.6c-0.3,0.3,0,0.6,0.1,0.9c0.7,1.1,1.6,2.2,2.5,3.2c2,2.1,4.5,3.8,6.7,5.7c1,0.9,2,1.7,3,2.6
		c-0.2,0.1-0.3,0.1-0.3,0.1c-0.8-0.3-1.6-0.7-2.4-1c-4.5-2-8.3-4.8-11-9c-0.2-0.3-0.3-1-0.9-0.5c-0.5,0.4-0.5,0.8-0.1,1.2
		c0.7,0.9,1.3,1.7,2.1,2.6c1.3,1.6,2.5,3.3,4.2,4.8c-0.4,0-0.5,0-0.6,0c-2.8-1.3-5.3-2.9-7-5.6c-0.3-0.4-0.4-1.4-1.1-1.1
		c-0.5,0.3,0.2,0.9,0.4,1.4c0.6,1.5,1.6,2.8,2.5,4.4c-2.1-0.8-3.4-2.2-4.8-3.5c-0.2,0.4-0.1,0.7,0,1c0.5,1.8,1.8,2.9,3.1,4
		c2.4,2,5,3.6,7.5,5.4c1.1,0.8,2.5,1.4,3,2.8c-0.8,1-1.5,0.2-2.2-0.1c-3-1.5-5.7-3.5-8.3-5.5c-2.3-1.7-4.6-3.5-5.7-6.3
		c-0.5-2-0.1-3.7,1.4-5.1c0.4-0.1,0.7-0.4,1.1-0.4C112.5,47.3,113.3,46.3,114.1,45.4z"/>
	<path class="st1" d="M66.9,59.3c-0.3,0.6-1,0.9-1.4,1.4c-5-1.4-7.6-4.7-8-10c-0.3-4.6,1.1-8.9,3-13c2.6-5.6,5.1-11.2,7.7-16.9
		c1.7-3.7,4-6.9,7.1-9.6c1-0.8,2.1-1.3,3.4-1.2c2,0.3,3,2.1,2.3,4c-2.5,6.3-4.5,12.7-5.7,19.3c-0.9,4.8,0.4,9.2,3.8,12.9
		c0.9,1,1.9,2,2.7,3.2c-0.9,0.7-2,1.2-3,1.8c-1.8,0.2-3.3,1-4.8,1.7c-1.8,0.9-3.6,1.8-5.4,2.7l-0.1-0.1c1.2-1.5,2.7-2.5,4.2-3.6
		c1.7-1.2,3.6-2,5.8-2.5c-0.5-0.5-0.9-0.5-1.4-0.4c-1.9,0.4-3.5,1.1-5.2,2.1c-1.8,1.1-3.6,2.3-5.6,2.9L66.4,54
		c2.6-2.9,5.4-5.4,9.3-6.2c0.3-0.1,0.7-0.1,0.6-0.5C76.1,47,75.8,47,75.5,47c-0.6,0-1.1,0.3-1.6,0.4c-2.4,0.9-4.5,2.4-6.8,3.4
		c0,0-0.1-0.1-0.1-0.1c0.3-0.8,1.2-1.2,1.6-1.9c1.5-1.5,3.4-2.4,5.3-3.3c0.2-0.1,0.7,0,0.6-0.4c-0.1-0.5-0.5-0.1-0.7,0
		c-1.4,0.3-2.6,1.1-4.1,1.3l0,0c0.1-0.3,0.4-0.5,0.7-0.7c1-0.8,2.2-1.2,3.1-2.2c0.5-0.4,0.1-0.7,0-1.1c-0.3-1.1-0.8-2.2-0.9-3.3
		c0-1.6,0-3.2,0-4.9c0.4-2.5,1.2-4.9,1.8-7.3c0.5-1.1,0.7-2.4,1.1-3.6c1.4-3.1,2.3-6.5,3.9-9.6c0.2-0.4,0.1-0.8-0.3-1.1
		c-0.3-0.4-0.6-0.5-1-0.3c-0.6,0.3-1.2,0.6-1.7,1.1C74,16.1,72,18.8,70.6,22c-2.3,5.5-4.7,10.9-7.2,16.4c-1.7,3.8-3.2,7.7-2.8,12.1
		c0.2,2.1,0.7,4,2.2,5.6c0.2,0.4,0.5,0.5,0.8,0.8C64.6,57.8,66,58.2,66.9,59.3z"/>
	<path class="st2" d="M131.8,61.8c0.9-1.1,1.7-2.3,2.6-3.4c2,1.6,3.6,3.7,5,5.8c0.4,0.6,0.4,0.9-0.4,1.1c-1.4,0.5-2.5,1.4-2.9,2.9
		c-0.4,1.5,0.4,3.3,1.5,3.1c1.6-0.3,2.8,0.3,4,1.1c0.1,0.1,0.2,0.1,0.3,0.1c1.3-0.3,1.5,0.7,1.7,1.6c1.5,5.8,2.4,11.7,1.9,17.7
		c-0.3,2.9-0.6,5.8-1.2,8.6c-1.2,6.3-4.2,11.7-8.9,16.2c-2.5,2.4-5.4,4.5-8.7,5.8c-2.5,1-5,1.5-7.7,1c-0.4-0.1-0.8-0.1-0.8-0.6
		c0-0.6,0.3-1.1,0.8-1.3c0.4-0.2,0.5-0.1,0.8,0.3c0.4,0.6,1.2,0.7,1.9,0.5c0.7-0.2,1.1-0.8,1.1-1.6c0-1.1-0.5-1.8-1.5-2.2
		c-1-0.4-2.1-0.3-3.2-0.3c-1.9,0.1-3.5,0.8-4.7,2.3c-1.2,1.5-0.8,3.9,0.9,5c0.6,0.4,1.2,0.7,1.8,1c-6.7,0-13.5-0.1-20.2-0.9
		c0,0.1-0.1,0.2-0.1,0.3c0.5,0.3,1.1,0.6,1.6,0.8c6.1,2.6,12.5,3.7,19.1,3.1c7.2-0.6,14.2-2.1,20.9-5c2.8-1.2,5.8-2.1,8.5-3.7
		c1.1-0.7,2.1-1.3,3.1-2.1c0.3-0.2,0.5-0.5,0.9-0.4c0,0,0.1,0.1,0.1,0.1c-1,1-2.1,2.1-3.1,3.1c-0.2,0.2-0.6,0.5-0.4,0.8
		c0.3,0.4,0.7,0.1,0.9-0.1c1.6-1,3-2.2,4.3-3.6c0.3-0.3,0.5-0.7,1.1-0.9c-0.4,1.2-1.2,2.1-1.9,3c-0.3,0.4-0.6,0.7-0.5,1.3
		c-0.3,0-0.6,0.1-0.9,0.1c-1.1-0.1-1.6,0.4-1.8,1.4c0,0.2-0.2,0.5-0.2,0.7c-0.7,2.6-1.9,4.7-4.7,5.4c-1.1-0.1-2.1,0-3.2-0.1
		c-2.7-0.4-5.4-1.2-8.1-1.7c-1.2-0.2-2.2,0-3.1,0.7c-1,0.7-1.7,1.7-2.3,2.8c-1.3,2-2.9,3.6-5.4,4c-3.3,0.5-6.2-0.4-8.9-2
		c-1.6-1-3.2-2-4.9-2.9c-0.8-0.4-1.2-0.2-1.9,0.4c-1.5,1.4-3.2,2.3-5.5,1.9c-2.6-0.5-4.8-1.6-6.7-3.5c-1.8-1.8-2.6-1.9-4.7-0.4
		c-0.9,0.6-1.7,1.4-2.8,1.6c-3.4,0.7-6.4,0-9-2.3c-1.9-1.7-4.2-2.1-6-0.8c-2.9,2-5.9,2.1-9,0.9c-1.7-0.7-3-1.8-3.4-3.7
		c-0.2-0.8-0.4-1.6-0.7-2.4c-0.2-0.7-0.7-1.1-1.6-1.1c-1.3,0-2.4,0.4-3.4,1c-1.6,1-3.4,1.5-5.3,1.5c-1.1,0-2-0.4-2.9-0.9
		c0.2-1.3,1.2-2.4,1.5-3.7c0.2-0.8,0.5-1.6-0.6-2c0.3-0.4,0.7-0.9,1.1-1.1c0.2,0.1,0.3,0.3,0.5,0.4c3.4,1.3,7,2.2,10.6,2.7
		c1.1,0.2,2,0.8,3,1.2c1.6,0.7,3.3,1.3,5.1,1.6c-0.2-0.6-0.7-0.6-1-0.8c-3.5-1.7-6.6-3.9-9.6-6.4c-0.2-0.2-0.5-0.3-0.4-0.6
		c0.3,0,0.5,0,0.8,0c3.5,0.6,5.1-0.5,5.7-3.9c0.6-2.9-1.7-5.5-4.7-5.4c-1.2,0.1-2.1,0.8-2.4,1.9c-0.2,0.9,0.4,2.5,1.2,2.8
		c1,0.4,1.5-0.3,1.9-1.1c0.1-0.1,0.2-0.3,0.3-0.2c0.4,0.1,0.5,0.5,0.7,0.8c0.2,0.4,0,0.6-0.3,0.8c-0.9,0.5-1.8,0.6-2.8,0.3
		c-3.3-0.8-4.9-3.2-5.7-6.2c-0.1-0.4-0.1-0.8-0.4-1.1c0.4-2,0.8-4,1.3-5.9c1.2-4.7,3.4-9,5.7-13.2c2.3-4.2,4.8-8.1,7.8-11.8
		c1.9-2.3,4-4.5,6-6.7c2.6-2.8,5.1-5.7,8.4-7.6c0.4-0.2,0.7-0.6,1.2-0.5c-0.3,0.4-0.7,0.8-0.9,1.3c-0.5,1.1,0,2.1,1.1,2.6
		c1.2,0.6,2.5,0.2,3-1c0.4-0.9,1-1.4,2-1.5c0.7-0.1,1.4-0.4,2-0.8c1.2-1,1-2.5-0.6-4c1.1-0.7,2.4-1,3.6-1.4c0.5,1.6,2,2,3.2,0.9
		c0.6-0.6,0.7-1.3,1-2c0.8-0.3,1.5-0.5,2.3-0.8c0.3,0.3,0.7,0.1,1.1,0.2c1.8,0,3.5,0,5.3,0c0.9,0,1.9-0.1,1.6,1.4
		c0,0.1,0.1,0.3,0.1,0.4c0.7,2,2.8,2.4,4.7,0.8c1.1,2.8,3.4,4.6,5.7,6.3c2.7,2,5.3,4,8.3,5.5c0.7,0.3,1.4,1.2,2.2,0.1
		c1.5,0,3-0.4,4.4-1.1c0.1,0.3-0.3,0.5-0.1,0.9c0.8-0.2,1.2-1.1,1.8-1.5c-0.4,2-1.4,3.2-2.9,3.5c-0.9,0.1-1.7-0.1-2.6-0.4
		c-2.4-0.6-4.5-1.8-6.5-3.1c-0.7-0.5-1.4-0.9-2.1-0.1c-0.3,0.1-0.5-0.3-0.9,0c0.3,0.5,0.6,0.9,0.9,1.3c2.5,3.7,5.6,6.4,10.4,6.7
		c3,0.2,6.4-2.2,7-5.1c0.2-1.2,0.7-2.7-0.8-3.6C133.1,61.1,132.4,61.9,131.8,61.8z M118.9,70.2c-11.6-0.1-20.6,9.2-20.7,20.7
		c-0.1,11.5,9.1,20.7,20.5,20.7c11.5,0,20.7-9.2,20.8-20.5C139.7,79.6,130.3,70,118.9,70.2z M55.5,91c0,0.9,0,2,0.2,3
		c1.9,9.5,11.3,14.5,19.8,11.2c8.5-3.3,12.6-13.3,9-21.6c-2.7-6.2-8.8-9.4-14.7-8.9C61.1,75.6,55.4,83.2,55.5,91z M85.4,103.1
		c0,0.6,0,0.9,0,1.3c0,2.4,1,3.4,3.4,3.4c1.4,0,2.7-0.1,4.1-0.3c2.9-0.2,4.6-4.2,4.1-6.2c-0.2-0.7-0.5-1-1.2-0.5
		c-1.1,0.7-1.9,1.7-2.4,3c-0.3,0.7-0.8,1.1-1.6,1.2c-0.9,0.1-1.8,0.1-2.6,0.2c-0.8,0.1-1.2-0.2-1.2-1.1c0-1,0.1-2.1-0.2-3.1
		c-0.2-0.6-0.5-1-1.2-0.9c-0.7,0-0.9,0.4-1.1,1.1C85.5,101.8,85.4,102.6,85.4,103.1z M95.8,56.5c0,0.6,0.2,1.5,1.1,1.7
		c1,0.2,1.3,0.8,1.4,1.7c0.1,0.9,1.1,1.6,2,1.5c2.7-0.2,4.4-3.1,3.2-5.5c-1-2-2.6-3.4-4.8-2.7C96.8,53.8,95.8,54.8,95.8,56.5z
		 M109.5,64c1.6,0,2.5-0.8,2.5-2.3c0-1.6-1.3-2.8-3-2.8c-1.3,0-2.6,1.1-2.5,2.3C106.6,63.1,107.9,64.1,109.5,64z"/>
	<path class="st3" d="M52.5,181.2c-1.9-1.1-3.8-2.3-5.6-3.7c0-0.5,0.1-1-0.1-1.5c-0.6-2.6-1.1-5.2-2-7.8c-1-3-0.7-5.7,0.9-8.4
		c1.3-2.2,2.8-4.4,4.5-6.4c2.6-3.1,5.2-6.3,8.3-9c2.1-1.9,4.6-3.1,7.3-4c4.6-1.4,9.5-1.6,14.2-2.1c1.9-0.2,3.8-0.6,5.7-1.3
		c2.9,0.6,5.9,1.2,8.8,1.7c3.3,0.7,6.7,1.3,9.9,2.5c0.2,0.8,0.4,1.6,0.5,2.5c0.2,1.7-0.1,2.1-1.8,2.3c-3.7,0.6-7.4,0.8-11.1,0.8
		c-3.6,0.1-7.1-0.1-10.7,0.3c-0.8,0.1-1.6,0.1-2.3,0.6c-0.3,0-0.7,0-1,0c-1.2,0-2.4,0-3.6,0c-0.4,0-0.8,0.2-0.9,0.7
		c-0.1,0.5,0.2,0.8,0.6,0.9c0.3,0.1,0.6,0.2,0.9,0.3c1.7,0.2,3.5,0.4,5.3,0.6c6.3,0.6,12.5,1.2,18.8,1.7c3.2,0.2,6.4,0.7,9.6,0.1
		c0.2,0.1,0.4,0.1,0.4,0.4c0.1,1.9,0.5,3.8,0.2,5.7c-0.1,1-0.7,1.8-1.8,2.1c-1.8,0.5-3.7,1-5.5,1.6c-2.7,0.9-5.5,0.7-8.3,0.8
		c-4.6,0.2-9.2,0.2-13.8,0.3c-1.1,0-2.1,0.2-3.1,0.5c-1.9-0.1-3.9-0.2-5.8-0.3c-0.6,0-1.5-0.4-1.6,0.4c-0.2,0.9,0.8,1,1.5,1.2
		c3.2,0.9,6.6,1.4,9.9,1.7c10.6,1.1,21.2,1.1,31.8-0.1c0.1,1.1,0.2,2.3,0.5,3.4c0.4,2.2-0.2,3.6-2.1,4.8c-1.3,0.8-2.7,1.1-4.1,1.5
		c-2,0.5-4.1,0.3-6.1,0.8c-4.9,1-9.8,0.5-14.6,0.5c-5.2,0-10.3-0.8-15.5-0.6c-0.4,0-0.9,0-1.2,0.4c-2-0.3-4-0.6-6-0.9
		c-0.4,0-0.8-0.1-1,0.4c-0.2,0.5,0.2,0.8,0.5,1c0.8,0.5,1.7,0.8,2.6,1c8.1,2,16.3,3.4,24.6,3.6c7.3,0.2,14.5-0.6,21.7-1.2
		c0,0.4-0.3,0.6-0.6,0.9c-1.8,1.8-4,3.1-6.5,3.7c-6.4,1.5-13,2.2-19.5,2.4c-2.5,0.1-4.9-0.2-7.4-0.4c-4.2-0.4-8.5-0.9-12.5-2.3
		c-3.5-1.2-7-2.6-10.6-3.9C53.9,180.9,53.2,180.6,52.5,181.2z"/>
	<path class="st4" d="M47.2,123.5c1.9,0.1,3.7-0.5,5.3-1.5c1.1-0.6,2.2-1,3.4-1c0.9,0,1.3,0.3,1.6,1.1c0.2,0.8,0.5,1.6,0.7,2.4
		c0.4,1.9,1.6,3.1,3.4,3.7c3.1,1.2,6.1,1.1,9-0.9c1.8-1.3,4.1-0.9,6,0.8c2.6,2.4,5.6,3,9,2.3c1.1-0.2,1.9-1,2.8-1.6
		c2.1-1.5,2.9-1.5,4.7,0.4c1.9,1.9,4.1,3,6.7,3.5c2.3,0.4,3.9-0.5,5.5-1.9c0.6-0.6,1.1-0.8,1.9-0.4c1.7,0.9,3.3,1.9,4.9,2.9
		c2.8,1.6,5.7,2.6,8.9,2c2.5-0.4,4.1-1.9,5.4-4c0.6-1,1.3-2,2.3-2.8c0.9-0.7,1.9-0.9,3.1-0.7c2.7,0.5,5.3,1.3,8.1,1.7
		c1.1,0.1,2.1,0.1,3.2,0.1c0,0.2,0.2,0.3,0.4,0.5c0.9,0.6,1.9,1,2.7,1.8c2.7,2.9,4,6.4,4.4,10.2c0.4,3.8-0.4,7.4-1.9,10.8
		c-2.9,6.3-6.6,11.9-11.9,16.6c-3.7,3.3-7.9,5.5-12.5,7.2c-1.7,0.7-3.6,0.9-5.3,1.8c0.1-1.1,0.2-2.2,0.2-3.3
		c0.2-4.1-0.8-7.9-2.1-11.7c-1-3-2.1-5.9-3.2-8.9c-1.3-3.8-2.4-7.7-4.1-11.4c-1.4-2.9-3.4-4.8-6.6-5.6c-3-0.7-6.1-1.4-9.1-2
		c-5.1-1-10.1-2.3-15.3-2.5c-4.5-0.2-8.9-0.7-13.4-0.3c-3.6,0.3-6.7,1.5-9.3,3.9c-2.3,2.2-4.2,4.8-6.3,7.2c-3.3,3.6-6,7.5-8.1,11.9
		c-1.4,2.8-2.1,5.8-1.4,9c0.3,1.6,0.7,3.1,1.1,4.7c-0.1,1.1,0.6,2.2,0.5,3.4c-3.5-3.4-6.1-7.4-7.4-12.1c0.2-0.1,0.3-0.3,0.3-0.5
		c0.2-1.9,0.5-3.8,0.7-5.7c0.5-4.5,1.5-8.8,3-13c1.6-4.8,4-9.2,6.5-13.5C45.6,126.6,46.6,125.2,47.2,123.5z M123.4,148.2
		c-0.2,0-0.3,0.1-0.4,0.3c-0.7,1.7-1.5,3.4-1.8,5.3c-0.5,2.7-0.1,5.1,1.6,7.3c1.3,1.6,3,2.6,5,2.4c4.1-0.4,7.3-2.6,9.4-6.1
		c1.1-1.8,2-3.7,2.6-5.8c0-0.4,0.3-0.6,0.6-0.9c1.4-1.9,1.1-3.9,0.8-6c-1,1.1-1.8,2.2-2.7,3.3c-1.4,1.9-2.9,3.7-5.1,4.7
		c-0.1-0.4-0.5-0.4-0.8-0.4c-2.7-0.4-3.7-2.1-2.7-4.7c0.7-1.8,2.1-2.9,3.6-4c0.7-0.5,1.6-1,2-1.8c0.4-0.2,0.7-0.4,1-0.6
		c1.1-0.8,2.1-1.6,2.3-3.1c0.1-0.5,0-1-0.6-1.2c-0.6-0.2-0.9,0.1-1.2,0.5c-0.6,0.9-1.4,1.3-2.4,1.7c-0.8,0.3-1.6,0.5-2.4,0.8
		C128,141.2,124.8,143.7,123.4,148.2z"/>
	<path class="st5" d="M119,178.7c1.7-0.8,3.6-1.1,5.3-1.8c4.6-1.7,8.8-4,12.5-7.2c5.3-4.6,9-10.3,11.9-16.6
		c1.6-3.4,2.3-7.1,1.9-10.8c-0.4-3.8-1.7-7.3-4.4-10.2c-0.8-0.8-1.8-1.3-2.7-1.8c-0.2-0.1-0.4-0.2-0.4-0.5c2.8-0.7,4-2.8,4.7-5.4
		c0.1-0.2,0.2-0.5,0.2-0.7c0.2-1,0.7-1.6,1.8-1.4c0.3,0,0.6,0,0.9-0.1c0.3,0.1,0.7,0.1,1,0c0.9,0,1.9,0.1,2.8,0.1
		c1.9-0.1,3.7-0.6,4.7-2.4c1.1,4.2,2.4,8.2,3.6,12.3c1.3,4.3,2,8.7,2.1,13.2c0,3-0.2,6-0.6,9c-0.6,4.4-2.7,7.7-6.1,10.5
		c-1.7,1.4-3.2,3-4.3,5c-5.3,3.8-10.9,7.1-17.1,9.2c-3.7,1.3-7.5,2.7-11.3,3.7c-2.6,0.7-5.3,1.1-7.9,1.8c-0.8,0.3-1.7,0.5-2.5,0.7
		C116.6,183.3,118.5,181.4,119,178.7z"/>
	<path class="st6" d="M116.3,126.5c-0.6-0.3-1.2-0.7-1.8-1c-1.6-1-2.1-3.5-0.9-5c1.2-1.5,2.8-2.3,4.7-2.3c1.1,0,2.1-0.2,3.2,0.3
		c1,0.4,1.5,1.1,1.5,2.2c0,0.8-0.4,1.4-1.1,1.6c-0.7,0.2-1.5,0.1-1.9-0.5c-0.3-0.4-0.5-0.5-0.8-0.3c-0.5,0.3-0.8,0.7-0.8,1.3
		c0,0.5,0.4,0.5,0.8,0.6c2.7,0.5,5.3,0,7.7-1c3.3-1.3,6.1-3.4,8.7-5.8c4.6-4.4,7.6-9.8,8.9-16.2c0.6-2.8,0.9-5.7,1.2-8.6
		c0.5-6-0.4-11.9-1.9-17.7c-0.2-0.9-0.4-1.9-1.7-1.6c-0.1,0-0.2-0.1-0.3-0.1c-1.2-0.7-2.4-1.3-4-1.1c-1.1,0.2-1.9-1.6-1.5-3.1
		c0.4-1.5,1.5-2.5,2.9-2.9c0.8-0.3,0.8-0.6,0.4-1.1c-1.5-2.1-3-4.2-5-5.8c1.2-2.1,2.4-4.3,3.6-6.4c0.1-0.1,0.2-0.2,0.4-0.2
		c0.9,0.8,2.1,1.2,3.1,1.8c6.5,4.2,10.7,10.1,13.9,16.9c1.2,2.6,2,5.4,2.3,8.3c-1,0.6-0.9,1.6-0.9,2.4c0.1,2.6-0.3,5.2-0.8,7.8
		c-1,5.5-3.3,10.5-5.9,15.4c-3.6,6.7-8.6,11.9-15.1,15.9c-2.2,1.3-4.6,2.3-6.5,4c-1.2,0.7-2.7,0.7-4,1
		C121.8,126,119.1,126.3,116.3,126.5z"/>
	<path class="st1" d="M119,178.7c-0.5,2.7-2.4,4.6-4,6.7c-1.6,0.6-3.2,1-4.8,1.5c-0.3,0.1-0.7,0.1-0.9-0.1c0.4-0.1,0.7-0.1,1-0.4
		c0.7-1.1,1.8-1.8,2.6-2.8c0.8-1,1.8-1.7,2.5-2.9c-1.3-0.2-2.4,0.2-3.6,0.2c-7.2,0.6-14.4,1.4-21.7,1.2c-8.3-0.2-16.5-1.6-24.6-3.6
		c-0.9-0.2-1.8-0.5-2.6-1c-0.3-0.2-0.7-0.5-0.5-1c0.2-0.4,0.6-0.4,1-0.4c2,0.3,4,0.6,6,0.9c0.6,0.1,1.2,0.2,1.7,0.3
		c4.2,0.5,8.4,1.2,12.6,1.6c4.1,0.4,8.1,0.5,12.2,0.3c4.3-0.2,8.6-0.7,12.9-1.1c1.8-0.2,3.6-0.4,5.3-0.6c1.2-0.2,2.2-1.2,2.3-2
		c0.1-2.6-0.3-5-0.9-7.5c-0.2-0.7-0.3-1.8-0.8-2.1c-0.5-0.4-1.4,0.4-2.1,0.5c-10.6,1.2-21.2,1.1-31.8,0.1c-3.3-0.3-6.7-0.8-9.9-1.7
		c-0.6-0.2-1.6-0.3-1.5-1.2c0.1-0.8,1.1-0.5,1.6-0.4c1.9,0,3.9,0.2,5.8,0.3c0.1,0,0.2,0.1,0.3,0.1c3.7,0.3,7.4,0.8,11.2,0.9
		c5.7,0.2,11.3,0.1,17-0.2c2.2-0.1,4.5-0.2,6.6-0.8c1.3-0.4,1.8-1.2,1.4-2.4c-1-2.6-1.9-5.3-2.8-8c-0.4-1.3-0.4-1.3-1.8-0.9
		c-3.2,0.6-6.4,0.2-9.6-0.1c-6.3-0.5-12.5-1.1-18.8-1.7c-1.8-0.2-3.5-0.4-5.3-0.6c-0.3,0-0.6-0.1-0.9-0.3c-0.4-0.2-0.7-0.4-0.6-0.9
		c0.1-0.5,0.5-0.7,0.9-0.7c1.2,0,2.4,0,3.6,0c0.3,0,0.7,0,1,0c4.5,0.3,9,0.6,13.5,0.9c2.4,0.2,4.8,0.3,7.1,0.5
		c2.5,0.2,5,0.2,7.5,0.1c1.1,0,1.8-1.1,1.4-2.1c-0.6-1.6-1.3-3.2-2.4-4.6c-0.5-0.6-0.9-1.2-1.8-1.4c-3.2-1.2-6.5-1.8-9.9-2.5
		c-2.9-0.6-5.9-1.2-8.8-1.7c-1.8-0.3-3.7-0.6-5.6-0.7c-4.9-0.3-9.8-1-14.8-0.7c-3.3,0.2-6,1.3-8.3,3.7c-2,2.1-3.9,4.3-5.8,6.5
		c-3.1,3.4-5.7,7.1-7.7,11.2c-1,1.9-1.5,4-1.4,6.2c0.1,2.5,0.9,4.9,1.7,7.3c0.7,2.2,1.8,4.2,2.2,6.4c-1.2-0.4-1.9-1.4-2.7-2.3
		c-0.1-0.1-0.1-0.2-0.2-0.2c0,0,0,0,0,0c-0.4-1.6-1.1-3.1-1.7-4.7c-0.4-1.6-0.8-3.1-1.1-4.7c-0.6-3.2,0.1-6.2,1.4-9
		c2.1-4.4,4.8-8.3,8.1-11.9c2.1-2.4,4-5,6.3-7.2c2.6-2.5,5.8-3.6,9.3-3.9c4.5-0.4,9,0.1,13.4,0.3c5.2,0.2,10.2,1.4,15.3,2.5
		c3.1,0.6,6.1,1.3,9.1,2c3.2,0.8,5.2,2.7,6.6,5.6c1.7,3.7,2.8,7.6,4.1,11.4c1.1,3,2.2,5.9,3.2,8.9c1.3,3.8,2.3,7.7,2.1,11.7
		C119.1,176.5,119,177.6,119,178.7z"/>
	<path class="st7" d="M45.8,176.8c-0.4-2.3-1.5-4.3-2.2-6.4c-0.8-2.4-1.6-4.8-1.7-7.3c-0.1-2.1,0.5-4.2,1.4-6.2
		c2-4.1,4.6-7.8,7.7-11.2c2-2.1,3.8-4.4,5.8-6.5c2.3-2.4,5.1-3.4,8.3-3.7c5-0.4,9.9,0.4,14.8,0.7c1.9,0.1,3.7,0.4,5.6,0.7
		c-1.8,0.7-3.7,1.1-5.7,1.3c-4.8,0.5-9.6,0.7-14.2,2.1c-2.7,0.8-5.2,2.1-7.3,4c-3,2.7-5.6,5.9-8.3,9c-1.7,2-3.2,4.1-4.5,6.4
		c-1.6,2.7-1.9,5.4-0.9,8.4c0.9,2.5,1.4,5.2,2,7.8c0.1,0.5,0,1,0.1,1.5C46.6,177.3,46.2,177,45.8,176.8z"/>
	<path class="st8" d="M95.8,49.9c-0.8,0.3-1.5,0.5-2.3,0.8c-1.5,0.1-2.8,0.7-4.2,1.1c-1.2,0.4-2.5,0.7-3.6,1.5
		c-1.8,0.4-3.4,1.2-4.9,2.2c-0.3,0.1-0.6,0.1-0.6,0.5l0,0c-0.3,0-0.6,0-0.7,0.4c0,0-0.1,0-0.1,0c-0.1,0.1-0.2,0.1-0.3,0.2l0,0
		c-0.5-0.1-0.8,0.3-1.2,0.5c-3.3,2-5.9,4.8-8.4,7.6c-2,2.2-4.1,4.4-6,6.7c-3,3.7-5.5,7.7-7.8,11.8c-2.3,4.2-4.5,8.5-5.7,13.2
		c-0.5,1.9-0.9,3.9-1.3,5.9c-0.2,0.8-0.3,1.6-0.7,2.4c-0.8-3.5-0.6-6.9,0.3-10.4c2.4-9.3,6.8-17.6,13-24.9
		c6.8-8.2,15.1-14.3,24.8-18.8c5.4-2.5,11.1-3.8,16.9-4.7c3.7-0.6,7.4-1,11.1-0.7c-0.9,0.9-1.6,1.9-3.1,1.9c-0.4,0-0.7,0.3-1.1,0.4
		C105.2,48.3,100.4,48.5,95.8,49.9z"/>
	<path class="st9" d="M111.7,180.7c1.1,0,2.2-0.4,3.6-0.2c-0.7,1.2-1.7,2-2.5,2.9c-0.8,1-1.9,1.7-2.6,2.8c-0.2,0.4-0.6,0.4-1,0.4
		c-7.5,2.1-15.2,3.1-22.9,3.6c-9,0.6-17.7-0.8-25.8-4.8c-2.7-1.3-5.4-2.6-8-4.2c0.7-0.6,1.4-0.3,2.1-0.1c3.5,1.3,7,2.6,10.6,3.9
		c4,1.4,8.3,1.9,12.5,2.3c2.5,0.2,4.9,0.5,7.4,0.4c6.6-0.3,13.1-0.9,19.5-2.4c2.5-0.6,4.7-1.8,6.5-3.7
		C111.3,181.4,111.7,181.2,111.7,180.7z"/>
	<path class="st8" d="M128.5,124.3c1.9-1.7,4.3-2.7,6.5-4c6.5-3.9,11.5-9.2,15.1-15.9c2.6-4.9,4.9-9.9,5.9-15.4
		c0.5-2.6,0.8-5.1,0.8-7.8c0-0.9-0.1-1.9,0.9-2.4c0.1,1.3,0.3,2.7,0.4,4c0.5,6.4-0.4,12.8-1.8,19c-0.5,2.4-1.8,4.3-3.5,6.1
		c-6.2,7-13.4,12.5-22.3,15.7C129.9,124,129.2,124.3,128.5,124.3z"/>
	<path class="st10" d="M153.9,169.9c1.1-2,2.6-3.6,4.3-5c3.4-2.7,5.5-6.1,6.1-10.5c0.4-3,0.6-6,0.6-9c0-4.5-0.7-8.9-2.1-13.2
		c-1.3-4.1-2.6-8.2-3.6-12.3c0.1-0.1,0.1-0.3,0.2-0.4c3,4.9,5.7,9.9,7.4,15.4c1.5,4.7,2.3,9.6,1.8,14.6c-0.7,6.5-4,11.7-8.8,15.9
		C157.9,167,156,168.6,153.9,169.9z"/>
	<path class="st5" d="M47.2,123.5c-0.6,1.7-1.6,3.1-2.5,4.7c-2.5,4.4-4.9,8.8-6.5,13.5c-1.5,4.2-2.5,8.5-3,13
		c-0.2,1.9-0.4,3.8-0.7,5.7c0,0.2-0.1,0.4-0.3,0.5c-0.8-2.1-1.1-4.2-1.2-6.4c0.3-0.4,0.2-0.8,0.2-1.3c0.1-1.3,0.2-2.6,0.4-3.9
		c0.4-2.4,1.2-4.8,2-7.1c2.2-6.4,4.7-12.7,7.9-18.7c0.2-0.3,0.2-0.8,0.7-0.9C45.1,123,46.1,123.5,47.2,123.5z"/>
	<path class="st10" d="M44.2,122.5c-0.5,0.1-0.5,0.6-0.7,0.9c-3.1,6-5.6,12.3-7.9,18.7c-0.8,2.3-1.7,4.6-2,7.1
		c-0.2,1.3-0.2,2.6-0.4,3.9c0,0.4,0.1,0.9-0.2,1.3c-0.5-5.2-0.2-10.4,1.1-15.5c1.8-7,4.6-13.6,8.8-19.5c0.7-0.9,1.3-1.9,2.2-2.6
		c1.1,0.4,0.8,1.3,0.6,2C45.4,120.1,44.5,121.2,44.2,122.5z"/>
	<path class="st11" d="M68.6,55.6c1.8-0.9,3.6-1.9,5.4-2.7c1.6-0.7,3.1-1.5,4.8-1.7c-1.2,0.8-2.5,1.6-3.7,2.3
		c-2.5,1.5-4.9,3.2-7.1,5.1c-0.4,0.3-0.7,0.7-1.2,0.7c-0.9-1.1-2.3-1.5-3.3-2.5c-0.3-0.3-0.6-0.4-0.8-0.8c-0.1-0.9-0.2-1.7-0.2-2.6
		c0.5-0.8,0.1-1.6,0.3-2.5c0.3-1.2,0.3-1.2,1.2-0.4c0.4,0.3,0.8,0.7,1.4,0.5c0.6-0.2,0.8-0.7,0.9-1.3c0-0.2,0-0.4,0.1-0.5
		c0.2-0.5,0.1-1.3,0.5-1.5c0.6-0.1,1.2,0.5,1.6,1c-0.5,0.7-1.3,1.1-1.6,1.9c-0.1,0.1-0.3,0.2-0.4,0.3c0,0-0.1,0.1-0.1,0.1
		c0,0,0.1-0.1,0.1-0.1c0.1-0.1,0.3-0.1,0.4-0.2c2.3-1,4.4-2.5,6.8-3.4c0.5-0.2,1-0.4,1.6-0.4c0.3,0,0.7,0,0.7,0.4
		c0.1,0.4-0.3,0.4-0.6,0.5c-3.9,0.9-6.7,3.3-9.3,6.2c0,0-0.1,0.1-0.1,0.1c0.1,0,0.1-0.1,0.2-0.1c2.1-0.6,3.8-1.8,5.6-2.9
		c1.6-1,3.3-1.7,5.2-2.1c0.5-0.1,0.9-0.1,1.4,0.4c-2.2,0.5-4.1,1.3-5.8,2.5C71.3,53.1,69.7,54.1,68.6,55.6c-0.1,0-0.2,0-0.3,0
		c0,0,0.1,0.1,0.1,0.1C68.5,55.7,68.5,55.7,68.6,55.6z"/>
	<path class="st6" d="M48,104.9c0.4-0.8,0.5-1.6,0.7-2.4c0.3,0.3,0.3,0.7,0.4,1.1c0.8,3.1,2.4,5.4,5.7,6.2c1,0.2,1.9,0.2,2.8-0.3
		c0.3-0.2,0.5-0.5,0.3-0.8c-0.2-0.3-0.3-0.7-0.7-0.8c-0.2-0.1-0.2,0.1-0.3,0.2c-0.4,0.8-0.9,1.4-1.9,1.1c-0.8-0.3-1.4-1.8-1.2-2.8
		c0.3-1.1,1.3-1.9,2.4-1.9c2.9-0.1,5.2,2.5,4.7,5.4c-0.7,3.4-2.3,4.4-5.7,3.9c-0.3,0-0.5,0-0.8,0c0,0,0,0,0,0
		c-0.1-0.2-0.3-0.2-0.5-0.2C51.2,111.1,48.9,108.5,48,104.9z"/>
	<path class="st5" d="M29.1,137.8c0.7-0.7,1.6-1.1,2.6-1.8c-0.5,2.1-1.1,4-1.3,5.9c-0.1,0.9-0.4,1.7-0.4,2.6c0,2.7-2,3.6-3.8,4.6
		c-0.8-1.2-0.8-2.5-0.5-3.9c0.4-1.6,1.4-2.9,2.2-4.4C28.4,139.9,29.2,139,29.1,137.8z"/>
	<path class="st8" d="M29.1,137.8c0.2,1.2-0.7,2.1-1.2,3c-0.8,1.4-1.8,2.7-2.2,4.4c-0.3,1.4-0.3,2.7,0.5,3.9
		c-2.4,0.5-3.2-1.3-2.9-3.3c0.3-2.3,1.8-4,3.3-5.6C27.3,139.3,28.2,138.6,29.1,137.8z"/>
	<path class="st6" d="M57.3,118.8c-3.6-0.5-7.2-1.4-10.6-2.7c-0.2-0.1-0.3-0.3-0.5-0.4c0.5-1.1,1.6-1.6,2.2-2.6
		c0.2-0.3,0.4-0.2,0.6,0c2.4,2.2,5.2,4,8.1,5.4C57.3,118.5,57.3,118.7,57.3,118.8z"/>
	<path class="st2" d="M159.4,119.5c-0.1,0.1-0.1,0.3-0.2,0.4c-1,1.8-2.8,2.3-4.7,2.4c-0.9,0.1-1.9,0-2.8-0.1
		c1.2-1.2,2.2-2.7,3.1-4.3c0.1,0.9-0.3,1.5-0.4,2.2c0,0.4-0.2,0.9,0.3,1.1c0.5,0.2,0.8-0.2,1.1-0.6c0.6-0.7,0.7-1.7,1.1-2.5
		c0.4,0.3,0.3,0.8,0.5,1.2c0.2,0.4,0.2,1,0.8,0.9c0.5-0.1,0.7-0.5,0.7-1c0-0.1,0-0.2,0.1-0.3C159.1,119,159.3,119.2,159.4,119.5z"/>
	<path class="st10" d="M41.2,169.6c0.6,1.5,1.4,3,1.7,4.7c-0.5-0.4-0.9-0.8-1.3-1.3C41.8,171.8,41.1,170.8,41.2,169.6z"/>
	<path class="st2" d="M150.4,118.2c-0.1,0.1-0.2,0.3-0.3,0.4c0,0-0.1-0.1-0.1-0.1c0.1-0.1,0.2-0.3,0.3-0.4
		C150.4,118.2,150.4,118.2,150.4,118.2z"/>
	<path class="st2" d="M150.8,117.9c-0.1,0.1-0.3,0.2-0.4,0.3c0,0-0.1-0.1-0.1-0.1C150.4,118,150.6,117.9,150.8,117.9
		C150.8,117.9,150.8,117.9,150.8,117.9z"/>
	<path class="st2" d="M53.9,113.5c0.2,0,0.4,0,0.5,0.2C54.2,113.8,54.1,113.7,53.9,113.5z"/>
	<path class="st2" d="M151.2,117.3c0,0.2,0,0.4-0.2,0.4l0,0C151,117.5,151.1,117.4,151.2,117.3C151.2,117.3,151.2,117.3,151.2,117.3
		z"/>
	<path class="st2" d="M151,117.7c-0.1,0.1-0.1,0.2-0.2,0.2c0,0,0,0,0,0C150.9,117.8,150.9,117.8,151,117.7
		C151,117.7,151,117.7,151,117.7z"/>
	<path class="st2" d="M151.5,117c0,0.1-0.1,0.2-0.2,0.2c0,0,0,0,0,0C151.3,117.2,151.4,117.1,151.5,117L151.5,117z"/>
	<path class="st2" d="M151.5,117.1C151.5,117,151.5,117,151.5,117.1c0.1-0.1,0.1-0.1,0.1-0.1C151.5,117,151.5,117,151.5,117.1
		C151.5,117,151.5,117.1,151.5,117.1z"/>
	<path class="st10" d="M42.9,174.3c0.1,0.1,0.1,0.2,0.2,0.2C43,174.4,43,174.4,42.9,174.3z"/>
	<path class="st11" d="M129.1,63.6c-1.4,0.7-2.8,1.1-4.4,1.1c-0.5-1.5-1.8-2-2.9-2.8c-2.5-1.8-5.2-3.4-7.5-5.4
		c-1.3-1.1-2.6-2.3-3.1-4c-0.1-0.3-0.2-0.6,0-1c1.4,1.3,2.7,2.7,4.8,3.5c-0.9-1.6-1.9-2.9-2.5-4.4c-0.2-0.5-0.9-1.1-0.4-1.4
		c0.7-0.4,0.8,0.6,1.1,1.1c1.7,2.7,4.2,4.3,7,5.6c0.1,0,0.2,0,0.6,0c-1.7-1.5-2.8-3.3-4.2-4.8c-0.7-0.8-1.4-1.7-2.1-2.6
		c-0.3-0.4-0.4-0.9,0.1-1.2c0.7-0.4,0.7,0.2,0.9,0.5c2.6,4.2,6.4,7.1,11,9c0.8,0.3,1.6,0.7,2.4,1c0,0,0.1,0,0.3-0.1
		c-1.1-0.9-2.1-1.8-3-2.6c-2.2-1.9-4.7-3.6-6.7-5.7c-0.9-1-1.8-2-2.5-3.2c-0.2-0.3-0.5-0.6-0.1-0.9c0.2-0.2,0.4-0.6,0.8-0.6
		c0.4,0,0.4,0.5,0.6,0.8c2.4,4.6,6.5,7.1,10.9,9.3c0.1,0,0.2,0,0.3,0c0.1,0.1,0.2,0.1,0.2,0.1c0,0,0,0,0.1-0.1
		c-0.1,0-0.2-0.1-0.3-0.1c-1.8-1.8-3.6-3.5-5.4-5.3c-1.3-1.4-2.7-2.7-3.7-4.3c-0.3-0.5-0.7-1-0.7-1.6c0.2-0.2,0.5-0.3,0.7-0.5
		c1.6,2.8,4.1,4.5,6.8,5.9c0.1,0.1,0.3,0.1,0.4,0.1c0,0,0.1,0.1,0.1,0.1c0,0-0.1-0.1-0.1-0.1c-0.5-0.9-1.4-1.4-1.8-2.4
		c0.5,0,0.7-0.5,1.1-0.7c0.4,0.3,0.9,0.6,1.1,1.1c-0.1,0.8-0.1,1.8,0.8,2.1c0.8,0.4,1.7,0.1,2.4-0.5c0.7-0.6,1.4-1.3,2.5-1.8
		c-0.1,1.7-0.5,3.3-0.4,4.9c0,0.8-0.5,1.4-0.8,2c-1.6,2.7-2.8,5.6-3.9,8.6C129.6,62.7,129.4,63.1,129.1,63.6z"/>
	<path class="st4" d="M136.4,29.7c1.3,2.2,2.1,4.7,2.2,7.2c0.1,1.8,0.1,3.6-0.2,5.3c-2.3-1.8-3.4,0.6-5,1.7c0.1-1.1,0.4-1.9,0.4-2.8
		c0-0.8-0.3-1.5-1-2c-0.8-0.5-1.5-0.1-2.1,0.4c-0.8,0.6-1.6,1.3-2.3,2c-0.2,0.2-0.3,0.5-0.6,0.4c-0.3-0.2-0.2-0.5-0.1-0.8
		c0-0.1,0.1-0.2,0.1-0.3c0-1.6,0.8-3.3-0.4-4.8c0.3-2.1,0.7-4.3,0-6.4c0.2,0,0.4,0.1,0.6,0.2c1,0.7,2,0.4,2.4-0.8
		c0.2-0.5,0.3-1,0.4-1.5c0.1-0.3,0.2-0.4,0.5-0.5c1.2-0.3,2.3,0.1,3.1,1.1C135,28.8,135.6,29.5,136.4,29.7z"/>
	<path class="st5" d="M127.4,36.1c1.2,1.5,0.4,3.2,0.4,4.8c0,0.1-0.1,0.2-0.1,0.3c0,0.3-0.2,0.6,0.1,0.8c0.3,0.1,0.4-0.2,0.6-0.4
		c0.7-0.7,1.5-1.4,2.3-2c0.6-0.5,1.3-0.8,2.1-0.4c0.7,0.4,1,1.1,1,2c0,0.9-0.3,1.7-0.4,2.8c1.6-1.1,2.7-3.5,5-1.7
		c-0.6,3.3-2,6.2-3.6,9.1c-0.1,0.1-0.2,0.1-0.4,0.2c-0.2-1.6,0.2-3.2,0.4-4.9c-1,0.5-1.7,1.2-2.5,1.8c-0.8,0.6-1.6,0.9-2.4,0.5
		c-0.9-0.4-0.8-1.3-0.8-2.1c0.6,0,0.3-0.4,0.2-0.6c0.3-0.6,0.5-1.2,0.6-2c-0.6,0.2-0.9,0.7-1.5,0.7c-1.4-1.6-2.8-3.3-3.8-5.3
		C126.1,38.9,126.6,37.4,127.4,36.1z"/>
	<path class="st12" d="M127.4,36.1c-0.8,1.3-1.3,2.8-2.6,3.6c-0.6-1.2-0.8-2.2-0.2-3.6c1.9-3.8,1.7-7.6-0.2-11.4
		c-1.3-2.6-2.9-4.9-4.3-7.5c-0.8-1.5-1.6-3.1-2-4.8c-0.3-1.1-0.3-2.2,0.7-3c1-0.7,2-0.7,3.1-0.1c-0.9,2.3-0.3,4.5,0.4,6.7
		c0.3,1.5,0.8,2.8,1.7,4c0.7,1.5,1.3,2.9,2,4.4c0.1,1.9,0.8,3.6,1.4,5.3C128,31.9,127.6,34,127.4,36.1z"/>
	<path class="st4" d="M126,24.5c-0.7-1.5-1.3-2.9-2-4.4c1.7,0,1.9-0.3,2-1.9c0-0.2-0.1-0.5,0.2-0.7c0.3-0.2,0.5,0.1,0.7,0.2
		c0.8,0.6,1.6,1.2,2.4,1.9c0.8,0.7,1.4,1.5,2.5,1.7c0.9,0.9,1.4,2,2,3.1c-0.7-0.1-1.4,0.3-2.2,0.2c-1.7-0.4-2.2-0.1-3,1.5
		c-0.3,0.5-0.4,0.5-0.8,0.1C127.2,25.6,127,24.6,126,24.5z"/>
	<path class="st6" d="M116.8,62.9c0.7-0.8,1.4-0.4,2.1,0.1c2,1.3,4.1,2.5,6.5,3.1c0.9,0.2,1.7,0.5,2.6,0.4c1.5-0.2,2.5-1.5,2.9-3.5
		c0,0,0,0,0,0c0.1-0.1,0.2-0.2,0.2-0.3c0-0.1,0.1-0.1,0.1-0.2c0.3-0.1,0.5-0.3,0.5-0.6c0,0,0,0,0,0c0.5,0.1,1.3-0.7,1.5,0.4
		c-0.9,0.2-0.7,0.9-0.7,1.5c0.1,1.9-0.7,3.3-2.3,4.2c-1.9,1.2-3.9,1.2-5.8,0.2C121.7,66.7,119.5,64.5,116.8,62.9z"/>
	<path class="st6" d="M95.8,49.9c4.6-1.4,9.4-1.6,14.1-2.2c-1.5,1.4-1.9,3.1-1.4,5.1c-1.9,1.5-3.9,1.2-4.7-0.8
		c-0.1-0.1-0.1-0.3-0.1-0.4c0.3-1.5-0.6-1.4-1.6-1.4c-1.8,0-3.5,0-5.3,0C96.5,50.1,96.1,50.2,95.8,49.9z"/>
	<path class="st5" d="M126,24.5c1,0.1,1.2,1.2,1.8,1.7c0.4,0.4,0.5,0.5,0.8-0.1c0.8-1.6,1.3-1.9,3-1.5c0.8,0.2,1.4-0.2,2.2-0.2
		c1,1.7,1.9,3.5,2.7,5.3c-0.9-0.3-1.5-0.9-2-1.6c-0.8-1-1.9-1.4-3.1-1.1c-0.3,0.1-0.4,0.3-0.5,0.5c-0.1,0.5-0.3,1-0.4,1.5
		c-0.4,1.2-1.4,1.6-2.4,0.8c-0.2-0.1-0.4-0.2-0.6-0.2C126.8,28,126.1,26.3,126,24.5z"/>
	<path class="st5" d="M131.8,21.3c-1.1-0.3-1.7-1.1-2.5-1.7c-0.8-0.7-1.6-1.3-2.4-1.9c-0.2-0.2-0.4-0.4-0.7-0.2
		c-0.3,0.2-0.2,0.5-0.2,0.7c-0.1,1.6-0.4,1.8-2,1.9c-0.9-1.2-1.5-2.5-1.7-4c0.7,0.4,1.4,1.1,1.4-0.6c0-1.2,1.2-1.7,2.4-1.2
		c0.6,0.2,0.9,0.8,1.6,0.9c1.3,1.2,2.1,2.9,3.2,4.4C131.2,20.1,131.7,20.6,131.8,21.3z"/>
	<path class="st11" d="M127.6,15.2c-0.6-0.1-1-0.7-1.6-0.9c-1.2-0.5-2.4,0-2.4,1.2c0,1.7-0.7,0.9-1.4,0.6c-0.7-2.2-1.3-4.4-0.4-6.7
		c2.2,0.9,3.6,2.8,5,4.6C127.2,14.4,127.6,14.7,127.6,15.2z"/>
	<path class="st5" d="M128.1,45.9c-0.4,0.2-0.6,0.7-1.1,0.7c-1-0.9-1.7-2.1-2.6-3.1c0.1-0.2,0.3-0.4,0.4-0.7
		C125.8,43.8,126.9,44.8,128.1,45.9z"/>
	<path class="st11" d="M124.7,42.8c-0.1,0.2-0.3,0.4-0.4,0.7c-0.5-0.6-1-1.1-1.2-2c0.2-0.2,0.3-0.3,0.5-0.5
		C124.1,41.5,124.4,42.2,124.7,42.8z"/>
	<path class="st11" d="M128.5,45c0.5,0,0.9-0.4,1.5-0.7c-0.1,0.8-0.3,1.4-0.6,2C128.9,46,128.6,45.6,128.5,45z"/>
	<path class="st12" d="M123.6,41c-0.2,0.2-0.3,0.3-0.5,0.5c0,0-0.1,0-0.1-0.1c-0.4-0.5-0.6-1-0.5-1.7c0-0.1,0.2-0.2,0.2-0.2
		C123.3,39.9,123.4,40.5,123.6,41z"/>
	<path class="st12" d="M121.4,43c-0.2,0.2-0.5,0.3-0.7,0.5c-0.5-0.3-0.5-0.7-0.3-1.1c0.1-0.2,0.3-0.4,0.5-0.4
		C121.4,42.1,121.4,42.6,121.4,43z"/>
	<path class="st2" d="M131.8,61.8c0,0.4-0.2,0.6-0.5,0.6C131.4,62.2,131.5,61.9,131.8,61.8z"/>
	<path class="st2" d="M131.1,62.6c-0.1,0.1-0.2,0.2-0.2,0.3C131,62.8,131.1,62.7,131.1,62.6z"/>
	<path class="st12" d="M62.6,53.4c0.1,0.9,0.2,1.7,0.2,2.6c-1.5-1.5-2-3.5-2.2-5.6c-0.4-4.3,1.1-8.3,2.8-12.1
		c2.5-5.4,4.9-10.9,7.2-16.4c1.4-3.2,3.4-5.9,5.7-8.5c0.5-0.5,1.1-0.8,1.7-1.1c0.4-0.2,0.8-0.2,1,0.3c-0.7,1.4-1.8,2.7-2.6,4.1
		c-0.7,1.1-1.6,2.1-1.9,3.4c-1.7,2.1-2.7,4.5-3.7,6.9c-1,1.9-1.9,3.9-2.6,6c-1.2,2.8-2.4,5.5-3.3,8.4c-0.7,1.8-1.2,3.6-1.6,5.5
		c-0.3,0.3-0.3,0.8-0.3,1.2C62.6,49.9,62,51.7,62.6,53.4z"/>
	<path class="st11" d="M63.3,47c0.4-1.9,0.8-3.7,1.6-5.5c1,0.4,1.4-0.3,1.8-1c0.4-0.7,0.7-1.6,1.4-2.3c0.1,0.6,0.2,1.1,0.3,1.7
		c0.1,0.6,0.1,1.2,0.9,1.3c0.7,0.1,1-0.4,1.3-1c0.4-0.8,0.7-1.6,1.1-2.5c0.5,0.4,0.3,1.1,0.9,1.2c0.1,1.2,0.6,2.2,0.9,3.3
		c0.1,0.3,0.5,0.7,0,1.1c-0.8-1.2-2-1.3-3-0.4c-0.6,0.6-1,1.3-1.3,2c-0.3,0.8-0.7,0.8-1.4,0.4c-1.5-0.9-2.1-0.6-2.7,1
		c-0.2,0.5-0.1,1.3-0.5,1.5C63.9,48.1,63.9,47.1,63.3,47z"/>
	<path class="st5" d="M72.6,39c-0.7-0.1-0.5-0.8-0.9-1.2c-0.4,0.8-0.7,1.7-1.1,2.5c-0.3,0.5-0.5,1.1-1.3,1c-0.8-0.1-0.8-0.7-0.9-1.3
		c-0.1-0.5-0.2-1-0.3-1.7c-0.7,0.7-1,1.5-1.4,2.3c-0.4,0.7-0.8,1.4-1.8,1c0.9-2.9,2.2-5.6,3.3-8.4c1.5,0,1.6,0.1,1.8,2.2
		c1.3-1.7,1.5-1.8,2.6-1.1C72.6,35.8,72.6,37.4,72.6,39z"/>
	<path class="st5" d="M63.3,47c0.6,0.1,0.6,1.2,1.2,0.9c0.5-0.2,0.3-1,0.5-1.5c0.7-1.6,1.3-1.8,2.7-1c0.7,0.4,1.1,0.4,1.4-0.4
		c0.3-0.7,0.7-1.5,1.3-2c1-0.9,2.3-0.8,3,0.4c-0.9,0.9-2.1,1.4-3.1,2.2c-0.2,0.2-0.5,0.4-0.7,0.7c0,0-0.1,0.1-0.1,0.1
		c0,0,0.1-0.1,0.1-0.1c1.4-0.2,2.7-1,4.1-1.3c0.2-0.1,0.6-0.4,0.7,0c0.1,0.4-0.4,0.3-0.6,0.4c-1.9,0.9-3.8,1.8-5.3,3.3
		c-0.4-0.5-1-1.1-1.6-1c-0.5,0.1-0.4,1-0.5,1.5c-0.1,0.2-0.1,0.4-0.1,0.5c-0.1,0.6-0.3,1.1-0.9,1.3c-0.6,0.2-1-0.2-1.4-0.5
		c-0.9-0.8-0.8-0.8-1.2,0.4c-0.2,0.8,0.2,1.7-0.3,2.5c-0.6-1.8,0-3.5,0.3-5.2C63,47.8,62.9,47.3,63.3,47z"/>
	<path class="st11" d="M72.6,34.2c-1.1-0.7-1.3-0.6-2.6,1.1c-0.3-2.1-0.3-2.2-1.8-2.2c0.8-2,1.6-4,2.6-6c0.9-0.4,0.8-1.6,1.8-2.2
		c-0.2,0.6-0.3,1-0.4,1.4c-0.2,0.5-0.1,1.1,0.5,1.3c0.6,0.3,1.1,0.1,1.3-0.5c0.1-0.1,0.1-0.4,0.4-0.2C73.7,29.3,73,31.7,72.6,34.2z"
		/>
	<path class="st5" d="M74.4,26.9c-0.3-0.2-0.3,0.1-0.4,0.2c-0.3,0.6-0.7,0.8-1.3,0.5c-0.6-0.3-0.6-0.8-0.5-1.3
		c0.1-0.4,0.3-0.8,0.4-1.4c-1,0.6-1,1.7-1.8,2.2c1.1-2.4,2.1-4.8,3.7-6.9c0.5,0.6,0.5,1.2,0.3,1.9c-0.1,0.5-0.4,1.2,0.6,1.2
		C75.1,24.5,74.9,25.8,74.4,26.9z"/>
	<path class="st11" d="M75.4,23.3c-1,0-0.7-0.7-0.6-1.2c0.2-0.7,0.2-1.4-0.3-1.9c0.2-1.4,1.2-2.3,1.9-3.4c0.8-1.4,1.9-2.6,2.6-4.1
		c0.4,0.3,0.5,0.7,0.3,1.1C77.7,16.8,76.8,20.2,75.4,23.3z"/>
	<path class="st13" d="M118.9,70.2c11.4-0.2,20.8,9.4,20.7,20.9c-0.1,11.3-9.4,20.5-20.8,20.5c-11.4,0-20.6-9.2-20.5-20.7
		C98.3,79.4,107.3,70.1,118.9,70.2z M110.2,89.9c3.3,0,5.9-2.6,5.9-5.8c0-3.3-2.6-5.9-5.9-6c-3.3,0-5.9,2.5-5.9,5.8
		C104.3,87.2,106.9,89.9,110.2,89.9z M121.9,90.1c-1.6,0-3.1,1.4-3.1,3c0,2,1.6,3.1,3.4,3.2c1.5,0.1,2.9-1.4,2.9-3
		C125,91.6,123.6,90.1,121.9,90.1z"/>
	<path class="st13" d="M55.5,91c-0.2-7.7,5.6-15.4,14.3-16.3c5.8-0.6,11.9,2.6,14.7,8.9c3.7,8.3-0.5,18.4-9,21.6
		c-8.5,3.3-17.9-1.6-19.8-11.2C55.6,93,55.5,91.9,55.5,91z M65.3,79.7c-2,0-3.7,1.6-3.7,3.6c0,2,1.6,3.8,3.6,3.7
		c1.9-0.1,4-1.4,3.9-3.6C69,81.3,67.4,79.7,65.3,79.7z M73.5,92.1c1.2,0,2.1-0.7,2.1-1.8c0-1.1-1.2-2.2-2.3-2.3
		c-1.1,0-1.9,0.9-2,2.1C71.3,91.3,72.2,92.1,73.5,92.1z"/>
	<path class="st0" d="M85.4,103.1c0-0.5,0-1.3,0.2-2c0.1-0.6,0.4-1,1.1-1.1c0.7,0,1,0.4,1.2,0.9c0.3,1,0.3,2,0.2,3.1
		c0,0.9,0.4,1.2,1.2,1.1c0.9-0.1,1.8-0.2,2.6-0.2c0.8-0.1,1.3-0.4,1.6-1.2c0.5-1.2,1.3-2.2,2.4-3c0.8-0.5,1-0.2,1.2,0.5
		c0.5,2-1.2,6-4.1,6.2c-1.4,0.1-2.7,0.2-4.1,0.3c-2.4,0-3.4-1-3.4-3.4C85.4,104,85.4,103.7,85.4,103.1z"/>
	<path class="st6" d="M95.8,56.5c0-1.7,1-2.7,2.9-3.3c2.2-0.7,3.8,0.7,4.8,2.7c1.2,2.4-0.5,5.2-3.2,5.5c-0.9,0.1-1.9-0.6-2-1.5
		c-0.1-0.9-0.4-1.5-1.4-1.7C95.9,58,95.8,57.1,95.8,56.5z"/>
	<path class="st13" d="M116.8,62.9c2.7,1.6,5,3.8,7.8,5.3c2,1,4,1,5.8-0.2c1.5-1,2.4-2.4,2.3-4.2c0-0.6-0.3-1.3,0.7-1.5
		c1.5,0.9,1,2.4,0.8,3.6c-0.5,2.9-4,5.3-7,5.1c-4.7-0.3-7.9-3-10.4-6.7c-0.3-0.4-0.6-0.9-0.9-1.3C116.3,62.6,116.5,63,116.8,62.9z"
		/>
	<path class="st6" d="M79.4,56.5c0,0,0.1,0,0.1,0c0.4,0.1,0.6-0.1,0.7-0.4c0,0,0,0,0,0c0.4,0,0.6-0.1,0.6-0.5c1.5-1,3.1-1.8,4.9-2.2
		c1.6,1.5,1.8,3,0.6,4c-0.6,0.5-1.3,0.8-2,0.8c-1.1,0.1-1.6,0.6-2,1.5c-0.5,1.2-1.8,1.5-3,1c-1.1-0.5-1.6-1.6-1.1-2.6
		c0.2-0.5,0.6-0.9,0.9-1.3c0,0,0,0,0,0C79.3,56.6,79.4,56.6,79.4,56.5z"/>
	<path class="st6" d="M109.5,64c-1.6,0.1-2.9-1-3-2.8c-0.1-1.2,1.1-2.3,2.5-2.3c1.7,0,3,1.2,3,2.8C111.9,63.2,111.1,64,109.5,64z"/>
	<path class="st6" d="M89.4,51.9c1.4-0.5,2.7-1,4.2-1.1c-0.3,0.7-0.3,1.5-1,2C91.4,53.8,89.9,53.4,89.4,51.9z"/>
	<path class="st9" d="M112.5,166.2c0.8-0.1,1.6-0.9,2.1-0.5c0.5,0.4,0.6,1.4,0.8,2.1c0.7,2.5,1,5,0.9,7.5c0,0.9-1.1,1.9-2.3,2
		c-1.8,0.3-3.6,0.5-5.3,0.6c-4.3,0.4-8.6,0.9-12.9,1.1c-4.1,0.2-8.1,0.1-12.2-0.3c-4.2-0.5-8.4-1.1-12.6-1.6
		c-0.6-0.1-1.2-0.2-1.7-0.3c0.3-0.4,0.8-0.4,1.2-0.4c5.2-0.2,10.3,0.5,15.5,0.6c4.9,0,9.8,0.6,14.6-0.5c2-0.4,4.1-0.3,6.1-0.8
		c1.4-0.4,2.9-0.7,4.1-1.5c1.9-1.2,2.5-2.6,2.1-4.8C112.7,168.5,112.6,167.3,112.5,166.2z"/>
	<path class="st9" d="M108.6,151.9c1.4-0.4,1.4-0.4,1.8,0.9c0.8,2.7,1.7,5.4,2.8,8c0.5,1.2,0,2.1-1.4,2.4c-2.2,0.6-4.4,0.7-6.6,0.8
		c-5.7,0.4-11.3,0.4-17,0.2c-3.7-0.1-7.4-0.6-11.2-0.9c-0.1,0-0.2-0.1-0.3-0.1c1-0.3,2.1-0.5,3.1-0.5c4.6-0.1,9.2,0,13.8-0.3
		c2.8-0.1,5.6,0.1,8.3-0.8c1.8-0.6,3.6-1.1,5.5-1.6c1.1-0.3,1.7-1.1,1.8-2.1c0.2-1.9-0.1-3.8-0.2-5.7
		C109,152.1,108.8,152,108.6,151.9z"/>
	<path class="st9" d="M104.3,141.2c0.8,0.2,1.3,0.8,1.8,1.4c1,1.4,1.8,3,2.4,4.6c0.4,1-0.3,2.1-1.4,2.1c-2.5,0.1-5,0.1-7.5-0.1
		c-2.4-0.2-4.8-0.3-7.1-0.5c-4.5-0.3-9-0.6-13.5-0.9c0.7-0.6,1.5-0.6,2.3-0.6c3.6-0.4,7.1-0.2,10.7-0.3c3.7-0.1,7.4-0.2,11.1-0.8
		c1.7-0.3,2-0.6,1.8-2.3C104.7,142.8,104.5,142,104.3,141.2z"/>
	<path class="st1" d="M133.4,152.6c2.2-1.1,3.7-2.8,5.1-4.7c0.8-1.1,1.7-2.3,2.7-3.3c0.3,2.1,0.6,4.2-0.8,6
		c-0.2,0.3-0.5,0.5-0.6,0.9c-1.8,1.7-3.6,3.5-5.9,4.5c-2.4,1.1-6.5,1.2-8.6-1.7c-1.3-1.8-1.8-3.9-1.8-6.1c1.4-4.5,4.6-7,8.9-8.4
		c0.8-0.3,1.6-0.5,2.4-0.8c1-0.3,1.8-0.8,2.4-1.7c0.3-0.4,0.6-0.7,1.2-0.5c0.6,0.2,0.6,0.7,0.6,1.2c-0.2,1.5-1.2,2.3-2.3,3.1
		c-0.3,0.2-0.7,0.4-1,0.6c-2.3,0.7-4.6,1.3-6.4,3c-1.4,1.3-2.9,2.7-2.6,4.8C127.1,153.6,130.2,154.6,133.4,152.6z"/>
	<path class="st5" d="M123.4,148.2c0,2.2,0.5,4.3,1.8,6.1c2.1,2.9,6.2,2.7,8.6,1.7c2.3-1,4.1-2.7,5.9-4.5c-0.6,2.1-1.5,4-2.6,5.8
		c-2.1,3.5-5.3,5.6-9.4,6.1c-2,0.2-3.7-0.8-5-2.4c-1.7-2.2-2.1-4.6-1.6-7.3c0.3-1.9,1.2-3.5,1.8-5.3
		C123.1,148.3,123.2,148.2,123.4,148.2z"/>
	<path class="st12" d="M133.4,152.6c-3.2,1.9-6.3,1-6.8-3.1c-0.3-2.1,1.1-3.6,2.6-4.8c1.8-1.6,4.1-2.3,6.4-3c-0.4,0.9-1.2,1.3-2,1.8
		c-1.5,1.1-2.9,2.1-3.6,4c-1,2.5,0,4.2,2.7,4.7C132.9,152.2,133.3,152.2,133.4,152.6z"/>
	<path class="st2" d="M80.3,56c-0.1,0.3-0.4,0.5-0.7,0.4C79.7,56.1,80,56,80.3,56z"/>
	<path class="st2" d="M80.9,55.5c0,0.4-0.3,0.5-0.6,0.5C80.3,55.6,80.6,55.6,80.9,55.5z"/>
	<path class="st2" d="M79.4,56.5c-0.1,0.1-0.2,0.1-0.3,0.2C79.3,56.6,79.4,56.6,79.4,56.5z"/>
	<path class="st1" d="M67.1,50.8c-0.1,0.1-0.3,0.1-0.4,0.2c0,0,0,0,0,0C66.7,50.9,66.9,50.8,67.1,50.8C67,50.7,67,50.8,67.1,50.8z"
		/>
	<path class="st1" d="M68.6,55.6c-0.1,0.1-0.1,0.1-0.2,0.1c0,0-0.1-0.1-0.1-0.1C68.4,55.6,68.5,55.6,68.6,55.6
		C68.6,55.6,68.6,55.6,68.6,55.6z"/>
	<path class="st1" d="M66.6,51c0,0-0.1,0.1-0.1,0.1C66.5,51,66.6,51,66.6,51C66.6,51,66.6,51,66.6,51z"/>
	<path class="st1" d="M66.4,54.1c-0.1,0-0.1,0.1-0.2,0.1C66.3,54.1,66.3,54.1,66.4,54.1C66.4,54,66.4,54.1,66.4,54.1z"/>
	<path class="st1" d="M130.5,54.7c0.1,0,0.2,0.1,0.3,0.1c0,0-0.1,0.1-0.1,0.1C130.6,54.9,130.5,54.8,130.5,54.7
		C130.4,54.8,130.5,54.7,130.5,54.7z"/>
	<path class="st1" d="M128.7,49c0,0,0.1,0.1,0.1,0.1C128.8,49.1,128.7,49,128.7,49C128.7,49,128.7,49,128.7,49z"/>
	<path class="st1" d="M69.7,46.3c0,0-0.1,0.1-0.1,0.1C69.6,46.4,69.7,46.4,69.7,46.3C69.7,46.3,69.7,46.3,69.7,46.3z"/>
	<path class="st14" d="M110.2,89.9c-3.3,0-5.9-2.7-5.9-6c0-3.2,2.6-5.8,5.9-5.8c3.4,0,6,2.6,5.9,6C116.1,87.4,113.5,90,110.2,89.9z"
		/>
	<path class="st14" d="M121.9,90.1c1.7,0,3.2,1.4,3.2,3.1c0,1.6-1.3,3.1-2.9,3c-1.8-0.1-3.4-1.2-3.4-3.2
		C118.8,91.5,120.2,90.1,121.9,90.1z"/>
	<path class="st14" d="M65.3,79.7c2.1,0,3.7,1.7,3.8,3.7c0.1,2.2-2,3.5-3.9,3.6c-1.9,0.1-3.6-1.7-3.6-3.7
		C61.6,81.3,63.3,79.7,65.3,79.7z"/>
	<path class="st14" d="M73.5,92.1c-1.3,0-2.2-0.8-2.2-1.9c0-1.2,0.9-2.1,2-2.1c1.1,0,2.3,1.2,2.3,2.3C75.6,91.4,74.7,92.1,73.5,92.1
		z"/>
</g>
</svg>
