<?xml version="1.0" encoding="utf-8"?>
<!-- Generator: Adobe Illustrator 27.9.0, SVG Export Plug-In . SVG Version: 6.00 Build 0)  -->
<svg version="1.1" id="Layer_1" xmlns="http://www.w3.org/2000/svg" xmlns:xlink="http://www.w3.org/1999/xlink" x="0px" y="0px"
	 viewBox="0 0 200 200" style="enable-background:new 0 0 200 200;" xml:space="preserve">
<style type="text/css">
	.st0{fill:#059278;}
	.st1{fill:#7FC996;}
	.st2{fill:#C7EAB0;}
	.st3{fill:#EFE6B6;}
	.st4{fill:#FC806B;}
	.st5{fill:#F3C417;}
	.st6{fill:#DEEAB0;}
</style>
<g>
	<path class="st0" d="M50.8,136.1c1.1-0.3,2.1-0.8,3.2-1c1-0.2,1.6-0.6,2-1.4c0.1-0.1,0.2-0.3,0.2-0.4c2.4-4.8,5.4-9.2,8.5-13.5
		c0.6-0.9,1-1.8,0.7-2.9c-0.1-0.4-0.2-0.8-0.1-1.2c0.1-1.2-0.4-2-1.6-2.6c-1-0.4-1.5-1.4-1.5-2.5c0-0.8,0-1.6,0-2.4
		c0-1,0-1.9,0.1-2.9c0.6-1.4,0.5-3,0.8-4.5c0.1-0.5-0.1-0.9-0.4-1.3c-1.9-2.6-2.1-5.4-1.6-8.5c0.6-3.9,1.6-7.6,2.8-11.3
		c1.6-5,3.3-10,5.1-14.9c0.6-1.6,0.6-3.2,0.2-4.9c-1.6-6.6-1.2-13.1,0.5-19.6c1.1-4,2.7-7.7,5.1-11c1.7-2.4,3.8-4.5,6.4-6
		c0.7-0.4,1.3-0.9,1.8-1.6c0.3-0.4,0.7-0.9,1.1-1.3c2.4-2.8,5.5-4.3,9.1-4.6c1.1-0.1,1.7-0.5,2.4-1.3c4.2-4.6,10.4-5.3,15.6-1.8
		c1.5,1,2.7,2.2,3.7,3.7c1.6,2.1,2.8,4.5,3.8,6.9c2.1,4.9,3.5,10.1,5.3,15.1c0.7,2,1.1,4.2,2,6.1c0.8,2.8,1.6,5.7,2.3,8.5
		c1.1,4.6,2.2,9.1,3.3,13.7c0.1,0.3,0.2,0.6,0.3,0.9c0.1,0.5,0.2,1.1,0.3,1.6c3,11,5.5,22.1,8,33.2c2.1,9,4.2,18,6.7,26.9
		c1.6,5.4,2.9,10.8,3.9,16.3c0.3,1.9,0.5,3.8,1.3,5.6c0.1,0.5,0,1.1,0.2,1.6c0.7,2.7,0.9,5.4,0.9,8.1c0,0.7,0.1,1.4,0.1,2.1
		c-0.1,0.4-0.2,0.8-0.2,1.2c0.2,3.9-1.4,7.1-3.7,10.1c-2.4,3-5.2,5.6-8.3,7.9c-6.9,5.1-14.7,7.8-23.1,9.2c-3,0.5-6,0.8-9,1.1
		c-4.7,0.4-9.4,0.8-14.1,0.5c-3.7-0.2-7.5-0.3-11.2-0.6c-4.2-0.3-8.4-0.7-12.6-1.5c-6.3-1.3-12-3.7-17-7.7c-1.4-1.1-2.5-2.5-3.3-4
		c-0.7-1.3-1.2-2.6-1.5-4c-0.7-3.3-1.2-6.6-1.4-9.9c-0.1-0.6,0.1-1.3-0.4-1.9c-0.7,0.3-1.3,0.6-2,0.8c-0.8,0.3-1.5,0.5-2.3,0.3
		c-4.7-1-9.7-5-7.9-12c0.6-2.3,1.7-4.3,3-6.2c2.6-3.5,5.8-6.3,9.6-8.5C49,137.3,50.1,137,50.8,136.1z M45,143.2
		c-0.3,0-0.5,0.1-0.5,0.5l0,0c-0.4-0.1-0.6,0.1-0.8,0.4c-2.1,2-3.9,4.2-5.1,6.8c-0.6,1.2-0.9,2.4-1.1,3.6c-0.3,2.3,0.4,4.2,2.2,5.7
		c0.8,0.7,1.7,1.2,2.7,1.6c1.3,0.5,2.5,0.6,3.6-0.4c1.4-0.6,1.9-1.6,2.1-3.1c0.3-2.3,0.8-4.5,1.3-6.8c0.9-4.1,2.1-8.2,3.7-12.1
		c0.1-0.2,0.2-0.5,0.2-0.7c0-0.1,0-0.3-0.1-0.4c-0.1-0.1-0.3-0.2-0.4-0.1c-2.3,1.3-4.7,2.3-6.6,4.2c-0.3,0.1-0.4,0.2-0.5,0.5l0,0
		C45.2,142.7,45,142.9,45,143.2L45,143.2z M91.4,102.9c-0.8,0-1.6,0.1-2.4,0.1c-0.3,0-0.7,0-0.7,0.4c0,0.2,0.1,0.4,0.3,0.6
		c1.4,1.5,2.9,3,4.4,4.4c0.4,0.4,1,0.8,1.5,1.1c0.3,0.2,0.6,0.1,0.8-0.3c1.4-2.1,2.1-5.2,2-8.5C95.4,101.9,93.4,102.3,91.4,102.9z
		 M68.7,102.1c-0.4-0.1-0.8-0.2-1.1-0.3c-2.4-0.5-2.4-0.5-2.7,1.9c-0.3,2.2-0.4,4.4-0.2,6.6c0.1,1,0.7,1.2,1.9,0.6
		c2.6-2.1,4.6-4.8,7-7.1c0.3-0.3,0.1-0.7-0.4-0.8C71.7,102.6,70.2,102.2,68.7,102.1z M59.8,132c-0.8,1.3-1.5,2.6-2.3,3.9
		c-1.1,1.7-2,3.6-2.7,5.6c-1.4,4-2.6,8-3.4,12.1c-0.7,3.2-1.2,6.4-1.1,9.7c0.1,3.7,0.7,7.3,1.4,10.9c0.2,0.9,0.4,1.7,0.7,2.5
		c1,2.6,2.7,4.7,5.2,5.9c0.2,0.2,0.3,0.3,0.5,0.5c4.4,3,9.4,4.7,14.5,5.7c5.1,1,10.4,1.4,15.6,1.5c0.4,0.4,0.9,0.3,1.4,0.3
		c7.6,0.1,15.3,0.3,22.9-0.8c4.3-0.6,8.5-1.3,12.6-2.4c5-1.3,9.6-3.4,13.8-6.4c2.8-2,5.3-4.3,7.7-6.8c3.6-3.8,4.8-8.3,4.1-13.4
		c0.2-1.5,0.2-3-0.1-4.5c-0.6-3-1.2-6-1.8-9.1c-0.4-1.9-0.8-3.7-1.2-5.6c-0.3-2.2-0.8-4.4-1.4-6.5c-1.6-5.9-3.3-11.8-4.8-17.7
		c-1.7-6.7-3.2-13.5-4.8-20.2c-0.9-3.7-1.6-7.5-2.6-11.2c-0.5-1.9-0.7-3.9-1.6-5.7c0-1-0.2-1.9-0.4-2.8c-1.2-4.8-2.4-9.6-3.6-14.3
		c-2.2-8.7-4.5-17.4-7.3-25.9c-0.3-0.9-0.4-1.9-1.1-2.6c-0.1-1.4-0.7-2.6-1.1-3.9c-1.2-3.6-2.5-7.2-4.4-10.5c-1.2-2.2-2.7-4.3-5-5.6
		c-1.6-1.4-3.5-1.8-5.5-1.7c-2.3,0.2-4.4,1.2-6.3,2.4c-0.3,0.2-0.2,0.6,0.1,0.7c0.9,0.4,1.9,0.8,2.9,0.8c-0.1,0.8,0.6,1.1,1.1,1.5
		c3,2.6,4.7,5.9,5.7,9.8c0.7,2.9,1,6,1.4,9c0.2,2.4,0.4,4.8,0.7,7.1c0.5,3.2,0,6.2-0.4,9.3c-0.6,4.6-2.2,9-3.7,13.3
		c-0.2,0.6-0.5,1.2-0.8,1.7c-1.2,2.2-2.8,4-4.7,5.7c-4.8,4.1-10.2,6-16.6,4.8c-4.3-0.8-7.5-2.9-9.6-6.8c-0.3-0.5-0.5-1.2-1.2-1.5
		c-0.4-1.5-0.8-3-1.2-4.8c-0.2,0.6-0.3,0.9-0.4,1.2c-1.4,4.1-2.7,8.2-4.1,12.3c-1.1,3.3-2.1,6.7-2.7,10.2c-0.3,1.8-0.6,3.6-0.3,5.5
		c0.5,2.9,1.9,4.4,4.8,4.7c2.2,0.3,4.4,0.7,6.6,1.1c1.5,0.3,3,0.6,4.5,0.2c2.2,0,4.4,0,6.7-0.3c1.8-0.2,3.6-0.3,5.4-0.6
		c2.7-0.5,5.1-1.7,6.9-3.8c0.4-0.5,0.9-0.9,1.5-1.2c1-0.5,1.9-0.3,2.5,0.6c0.5,0.9,0.9,1.8,1.3,2.8c0.3,0.8,0.6,1.7,0.9,2.4
		c1.6,3.5,3.2,7,4.9,10.4c1.4,2.9,2.1,5.8,1.9,9c-0.2,3.7-1.9,6.3-5.4,7.7c-0.7,0.3-1.5,0.6-2.3,0.7c-2.9,0.7-5.8,0.6-8.8,0.9
		c-0.4,0-0.8-0.1-1.2-0.1c-3.2-0.4-6.3-0.3-9.5,0c-3.3,0.4-6.7,0.2-10-0.5c-2.7-0.6-4.8-2-6.2-4.4c-0.4-0.8-0.9-1.5-1.3-2.3
		c-0.2-0.3-0.3-0.5-0.8-0.6c-0.7,0.7-1.2,1.6-1.6,2.5c-0.1,0.3-0.1,0.6,0.1,0.9c-0.5-0.1-0.9,0.2-1.2,0.6
		C62.1,127.8,60.7,129.7,59.8,132z M106.4,110.5c-0.2-0.5-0.3-1.1-0.6-1.6c-0.3-0.7-0.6-0.8-1.3-0.6c-5,1.5-8.9,4.4-11.5,9
		c-0.8,1.5-1.8,2.8-2.9,4.1c-0.3-0.9-0.2-1.9,0-2.8c0.2-0.9,0.6-1.8,0.8-2.7c0.1-0.1,0.3-0.2,0.3-0.3c0.5-0.9,0.4-1.2-0.5-1.2
		c-5.2,0.2-9.5,2.1-13,5.9c-1.5,1.7-2.4,3.7-3.8,5.4c-0.1,0.2,0,0.5,0.3,0.6c0.4,0.1,0.8,0.1,1.2,0.1c0.5,0.4,1.2,0.4,1.8,0.5
		c1.7,0.1,3.3,0.1,5,0.1c4-0.1,7.9-0.3,11.9-0.1c1.7,0.1,3.5,0,5.2,0c1.3-0.1,2.5-0.2,3.8-0.4c3.8-0.7,5.9-3.3,6-7.2
		c0-1.4-0.1-2.7-0.6-4C108,113.6,107.4,112,106.4,110.5z M77.6,73.3c0-0.1-0.1-0.2-0.1-0.3c-0.1,0.1-0.1,0.1-0.2,0.2
		C77.3,73.2,77.5,73.2,77.6,73.3c0.7,1.6,2.3,2.1,3.7,2.7c1.4,0.6,2.9,0.7,4.5,0.8c2.8,0.2,5.4-0.2,7.9-1.4c2.8-1.4,5.2-3.3,7.2-5.8
		c1.1-1.3,1.9-2.8,2.4-4.4c0.4-1.4,0.9-2.7,1.4-4.1c1.7-5.2,2.6-10.6,2.1-16c-0.4-4.7-0.9-9.4-1.5-14c-0.3-2-0.8-3.9-1.7-5.7
		c-1.1-2.3-2.5-4.3-4.6-5.7C97,18.5,95,18,92.7,18.5c-2,0.4-3.8,1.1-5.5,2.2c-0.3,0.2-0.7,0.3-0.6,0.8c1,0.1,2.1,0.1,3.1,0.3
		c3.4,0.7,5.9,2.7,7.9,5.4c1.9,2.6,3.1,5.5,3.9,8.7c1.5,6.3,1.3,12.6-0.3,18.9c-1.2,4.6-3,8.9-5.9,12.7c-1.7,2.2-3.7,4.2-6.2,5.5
		c-3.2,1.7-6.5,2-9.9,0.7C78.6,73.5,78.2,73.1,77.6,73.3z M81.4,41c0-1.2-0.2-2.4-1-3.4c-0.6-0.7-1.3-0.8-2.1-0.5
		c-0.7,0.4-1.3,0.9-1.7,1.6c-1.1,1.6-1.6,3.4-1.8,5.3c-0.1,0.9,0.2,1.7,0.5,2.5c0.6,1.4,2.1,1.8,3.3,0.7c0.4-0.4,0.8-0.8,1.1-1.2
		C80.8,44.6,81.3,42.9,81.4,41z M82.4,33c-0.7,0-1.3,0.5-1.2,1.2c0,0.7,0.6,1.2,1.2,1.2c0.6,0,1.2-0.6,1.2-1.2
		C83.7,33.6,83.1,33.1,82.4,33z M79.8,32.1c0.5,0,1.1-0.5,1.1-1c0-0.6-0.6-1.3-1.2-1.2c-0.5,0-1,0.6-1,1.1
		C78.7,31.6,79.2,32.1,79.8,32.1z"/>
	<path class="st1" d="M64.6,125.2c-0.2-0.3-0.2-0.6-0.1-0.9c0.4-0.9,0.9-1.8,1.6-2.5c0.4,0.1,0.6,0.3,0.8,0.6
		c0.4,0.8,0.9,1.5,1.3,2.3c1.4,2.4,3.5,3.9,6.2,4.4c3.3,0.7,6.6,0.9,10,0.5c3.2-0.4,6.3-0.4,9.5,0c0.4,0,0.8,0.2,1.2,0.1
		c2.9-0.3,5.9-0.2,8.8-0.9c0.8-0.2,1.5-0.4,2.3-0.7c3.5-1.4,5.2-4,5.4-7.7c0.2-3.2-0.5-6.1-1.9-9c-1.7-3.4-3.3-6.9-4.9-10.4
		c-0.4-0.8-0.6-1.6-0.9-2.4c-0.4-0.9-0.8-1.9-1.3-2.8c-0.6-0.9-1.5-1.1-2.5-0.6c-0.6,0.3-1.1,0.7-1.5,1.2c-1.8,2.2-4.2,3.3-6.9,3.8
		c-1.8,0.3-3.6,0.4-5.4,0.6c-2.2,0.3-4.4,0.4-6.7,0.3c-0.6-0.6-1.4-0.7-2.2-0.9c-2-0.7-4.1-1.3-6.1-2c-1.1-0.4-2.3-0.8-3.3-1.4
		c-0.9-0.5-1.4-1.2-1.4-2.3c0-1.5-0.1-3,0.4-4.5c0.8-2.6,1.5-5.2,2.3-7.8c1-3.4,2.1-6.8,2.6-10.4c0.1-0.4,0.1-0.8,0.6-1
		c0.7,0.3,0.9,0.9,1.2,1.5c2.1,3.9,5.3,6,9.6,6.8c6.4,1.2,11.8-0.7,16.6-4.8c1.9-1.6,3.5-3.5,4.7-5.7c0.3-0.6,0.6-1.1,0.8-1.7
		c1.5-4.4,3.1-8.7,3.7-13.3c0.4-3.1,0.8-6.1,0.4-9.3c-0.3-2.3-0.5-4.7-0.7-7.1c-0.3-3-0.6-6-1.4-9c-1-3.8-2.7-7.1-5.7-9.8
		c-0.4-0.4-1.1-0.7-1.1-1.5c0.1-0.2,0.2-0.5,0.4-0.6c2.2-1,4.5-1.6,6.9-1.3c0.6,0.1,1.1,0.1,1.6-0.3c2.3,1.3,3.8,3.3,5,5.6
		c1.9,3.3,3.2,6.9,4.4,10.5c0.4,1.3,1,2.5,1.1,3.9c-1.8,0.3-2.8,1.4-3.4,3c-0.9,2.3-0.7,4.7-0.5,7.1c0.3,2.6,1,5.1,1.5,7.7
		c0.6,3,0.6,6-0.7,8.9c-0.9,2-1.8,4.1-2.9,6c-0.8,1.6-1.3,3.2-1.7,4.9c-0.1,0.4-0.2,0.8-0.1,1.2c0.4,2.5,1.5,4.5,3.8,5.7
		c1.6,0.8,3,0.8,4.5-0.3c0.4-0.3,0.9-0.7,1.4-1c1.2-0.6,1.8-0.5,2.8,0.4c0.6,0.6,1.2,1.3,1.8,1.9c0.9,0.9,2,1.1,3.3,1.2
		c1.1,0.1,1.7-0.8,2.6-1c1,1.8,1.2,3.8,1.6,5.7c0.9,3.7,1.7,7.4,2.6,11.2c1.6,6.7,3.1,13.5,4.8,20.2c1.5,5.9,3.2,11.8,4.8,17.7
		c0.6,2.1,1.1,4.3,1.4,6.5c-0.5,0.5-1.1,0.9-1.6,1.4c-1.3,1.4-2.8,2.3-4.6,2.8c-1.4,0.4-2.7,0.9-4.1,1.3c-1.6,0.5-3.2,1.1-4.6,1.9
		c-1.4,0.7-2.5,1.8-3.3,3c-1.3,1.8-0.3,4,1.8,4.3c0.4,0.1,0.8,0,1.2,0.1c0.6,0.1,1.1,0.3,1.3,0.9c0.2,0.6-0.2,1.1-0.6,1.4
		c-0.6,0.5-1.4,0.8-2.1,1c-2.7,0.9-5.5,1.8-8.1,2.9c-2.3,1-4.5,2.3-6,4.6c-1.2,1.8-1.4,4.7,1.2,6.6c1.8,1.4,3.9,2.2,6.2,2.2
		c1.4,0,2.7,0,4.1,0c3.3-0.1,6.4-1.1,9.3-2.7c2-1.1,3.8-2.6,5.6-4c2.9-2.3,5.3-4.8,6.8-8.1c0.1-0.3,0.4-0.5,0.7-0.6
		c0.7,5.1-0.5,9.6-4.1,13.4c-2.4,2.5-4.8,4.9-7.7,6.8c-4.2,2.9-8.8,5-13.8,6.4c-4.2,1.1-8.4,1.8-12.6,2.4
		c-7.6,1.1-15.3,0.9-22.9,0.8c-0.5,0-1,0-1.4-0.3c-0.2-0.4-0.6-0.5-1-0.6c-4.1-1-8-2.5-11.8-4.4c-1.6-0.8-3-1.8-4.2-3.1
		c-0.3-0.4-0.7-0.7-0.7-1.2c-0.2-1.5-0.1-2.8,1-4c0.6-0.7,1.3-1.1,2.1-1.5c1.6-0.8,3.2-1.5,4.6-2.5c1.4-1,2.7-2.3,3.3-4
		c1-2.9,0.4-5.4-1.9-7c-1.7-1.1-3.4-1.5-5.4-1.5c-3.2,0.1-5.6,1.4-7.1,4.3c-0.3,0.6-0.6,1.3-1,1.9c-0.3,0.6-0.7,1-1.2,1.5
		c-0.6,0.5-1.5,0.3-1.6-0.6c-0.1-0.9,0-1.7-0.1-2.6c-0.1-1.7-1.2-3.2-2.9-3.4c-2.1-0.3-4.3-0.5-6,1.3c-0.4,0.5-0.9,1-1.6,0.9
		c-0.1-2.8,0.1-5.5,0.3-8.2c0.3-3.1,0.8-6.1,2.1-8.9c0.2,0,0.3,0,0.5-0.1c1.9-1.3,3.8-2.6,5.6-4c1.6-1.3,2.3-3.2,1.8-5.3
		c-0.2-1.2-0.6-2.3-0.9-3.4c-0.4-1.4-0.4-2.5,0.6-3.7C63.8,128.7,64.4,127,64.6,125.2z M113.9,138.5c0.5-0.4,1-0.8,1.5-1.2
		c1.3-1.1,1.9-2.5,2.3-4.1c0.1-0.5,0.1-1,0.1-1.4c0-0.4,0.1-0.8,0-1.2c-0.1-0.4,0.3-0.9-0.4-1.2c-0.6,1.2-1.2,2.5-1.9,3.6
		c-1.1,1.9-2.6,3.4-4.8,4.1c-2.9,0.9-5.5,2.5-7.9,4.4c-2.9,2.3-4.4,5.2-5.1,8.6c-0.4,2.3,0.2,4.5,1.5,6.4c2.3,3.1,5.6,4.1,9.3,3.8
		c2.2-0.2,4.1-1.2,5.9-2.5c1.8-1.3,3-3,4.3-4.7c1.1-1.5,2.2-3.1,3.3-4.7c0.8-1.2,2.1-1.9,2.8-3.2c0.1,0,0.1,0,0.2-0.1
		c0,0,0-0.1,0-0.1c-0.1,0.1-0.1,0.2-0.2,0.2c-2.5,0.4-4.6,1.6-6.3,3.5c-1.3,1.5-2.4,3.2-3.5,4.8c-1.6,2.2-3.9,3.5-6.5,4.1
		c-0.2-0.4-0.5-0.6-0.9-0.8c-0.4-0.1-0.8-0.3-1.1-0.4c-2.5-1.2-4.1-3.6-2.6-6.9c0.9-2.1,2.2-3.9,4-5.2c1.7-1.3,3.5-2.5,4.9-4.1
		C113.5,139.6,113.9,139.2,113.9,138.5z"/>
	<path class="st2" d="M150.6,160.8c-0.3,0.1-0.6,0.3-0.7,0.6c-1.6,3.3-4,5.9-6.8,8.1c-1.8,1.4-3.6,2.9-5.6,4
		c-2.9,1.6-5.9,2.7-9.3,2.7c-1.4,0-2.7,0-4.1,0c-2.3,0-4.3-0.8-6.2-2.2c-2.5-1.9-2.3-4.8-1.2-6.6c1.5-2.3,3.6-3.6,6-4.6
		c2.6-1.1,5.4-2,8.1-2.9c0.8-0.3,1.5-0.5,2.1-1c0.4-0.4,0.8-0.8,0.6-1.4c-0.2-0.6-0.7-0.9-1.3-0.9c-0.4,0-0.8,0-1.2-0.1
		c-2.2-0.4-3.1-2.6-1.8-4.3c0.9-1.2,2-2.3,3.3-3c1.5-0.8,3-1.4,4.6-1.9c1.4-0.4,2.7-0.9,4.1-1.3c1.8-0.6,3.3-1.5,4.6-2.8
		c0.5-0.5,1.1-1,1.6-1.4c0.4,1.9,0.8,3.7,1.2,5.6c0.6,3,1.2,6,1.8,9.1C150.7,157.8,150.8,159.3,150.6,160.8z"/>
	<path class="st2" d="M52.7,163.8c0.7,0,1.2-0.5,1.6-0.9c1.7-1.8,3.9-1.7,6-1.3c1.6,0.3,2.7,1.7,2.9,3.4c0.1,0.9,0,1.8,0.1,2.6
		c0.1,0.8,1,1.1,1.6,0.6c0.5-0.4,0.9-0.9,1.2-1.5c0.3-0.6,0.6-1.3,1-1.9c1.5-2.9,3.9-4.3,7.1-4.3c2,0,3.7,0.4,5.4,1.5
		c2.3,1.6,2.9,4.1,1.9,7c-0.6,1.7-1.9,2.9-3.3,4c-1.4,1-3,1.7-4.6,2.5c-0.8,0.4-1.5,0.9-2.1,1.5c-1.1,1.2-1.2,2.5-1,4
		c0.1,0.5,0.4,0.8,0.7,1.2c1.2,1.3,2.6,2.3,4.2,3.1c3.8,1.9,7.7,3.4,11.8,4.4c0.4,0.1,0.8,0.2,1,0.6c-5.2-0.2-10.5-0.5-15.6-1.5
		c-5.2-1-10.1-2.7-14.5-5.7c-0.2-0.1-0.3-0.3-0.5-0.5c0-1-0.6-1.8-1-2.6c-2.1-4-3-8.2-3.3-12.7c0-0.5-0.1-1.1-0.3-1.6
		C52.7,165,52.7,164.4,52.7,163.8z"/>
	<path class="st2" d="M132.3,80.5c-0.9,0.2-1.5,1.1-2.6,1c-1.3-0.1-2.4-0.3-3.3-1.2c-0.6-0.6-1.2-1.3-1.8-1.9c-1-0.9-1.6-1-2.8-0.4
		c-0.5,0.3-0.9,0.6-1.4,1c-1.4,1.1-2.9,1.1-4.5,0.3c-2.3-1.2-3.5-3.2-3.8-5.7c-0.1-0.4,0-0.8,0.1-1.2c0.4-1.7,0.9-3.4,1.7-4.9
		c1-2,2-4,2.9-6c1.3-2.9,1.2-5.9,0.7-8.9c-0.5-2.6-1.2-5.1-1.5-7.7c-0.3-2.3-0.5-4.8,0.5-7.1c0.6-1.6,1.6-2.7,3.4-3
		c0.7,0.7,0.8,1.7,1.1,2.6c2.8,8.5,5.1,17.2,7.3,25.9c1.2,4.8,2.4,9.6,3.6,14.3C132.1,78.6,132.3,79.5,132.3,80.5z"/>
	<path class="st3" d="M77.6,73.3c0.6-0.2,1.1,0.2,1.6,0.4c3.4,1.3,6.7,1,9.9-0.7c2.5-1.3,4.5-3.2,6.2-5.5c2.9-3.8,4.8-8.1,5.9-12.7
		c1.6-6.3,1.8-12.6,0.3-18.9c-0.8-3.1-2-6.1-3.9-8.7c-2-2.7-4.5-4.7-7.9-5.4c-1-0.2-2.1-0.2-3.1-0.3c-0.1-0.5,0.3-0.6,0.6-0.8
		c1.7-1.1,3.5-1.8,5.5-2.2c2.2-0.4,4.3,0,6.2,1.3c2.1,1.4,3.6,3.4,4.6,5.7c0.9,1.8,1.4,3.8,1.7,5.7c0.6,4.7,1.2,9.3,1.5,14
		c0.4,5.5-0.4,10.8-2.1,16c-0.4,1.4-0.9,2.7-1.4,4.1c-0.5,1.6-1.4,3.1-2.4,4.4c-2,2.4-4.4,4.4-7.2,5.8c-2.5,1.2-5.1,1.7-7.9,1.4
		c-1.5-0.1-3-0.2-4.5-0.8C79.8,75.4,78.3,74.9,77.6,73.3L77.6,73.3z"/>
	<path class="st4" d="M91,115.9c-0.3,0.9-0.6,1.8-0.8,2.7c-0.2,0.9-0.4,1.9,0,2.8c0,0.7-0.2,1.5,0.1,2.2c0.7,0,0.9-0.5,1.2-0.8
		c1.7-1.7,3.3-3.4,5-5.1c2.9-3,6.2-5.5,10-7.2c1,1.4,1.6,3.1,2.2,4.7c0.4,1.3,0.6,2.6,0.6,4c-0.1,3.9-2.2,6.5-6,7.2
		c-1.2,0.2-2.5,0.4-3.8,0.4c-1.7,0.1-3.5,0.1-5.2,0c-4-0.2-7.9,0-11.9,0.1c-1.7,0.1-3.3,0-5-0.1c-0.6,0-1.3-0.1-1.8-0.5
		c1.4-2.3,3-4.3,5-6.1C83.5,117.8,86.9,116.1,91,115.9z"/>
	<path class="st1" d="M46,142.3c1.9-1.8,4.3-2.9,6.6-4.2c0.1,0,0.3,0,0.4,0.1c0.1,0.1,0.1,0.3,0.1,0.4c0,0.2-0.1,0.5-0.2,0.7
		c-1.6,3.9-2.7,8-3.7,12.1c-0.5,2.2-1,4.5-1.3,6.8c-0.2,1.5-0.7,2.5-2.1,3.1c-0.5-0.6-1.4-0.4-1.8-1.1c-0.9-1.4-1.9-2.8-2-4.5
		c-0.3-3.5,0.1-6.9,1.8-10.1c0.3-0.6,0.8-1.2,0.6-2c0,0,0,0,0,0c0.3,0,0.5-0.2,0.5-0.5c0,0,0,0,0,0c0.3-0.1,0.4-0.3,0.5-0.5
		c0,0,0,0,0,0C45.6,142.6,45.8,142.4,46,142.3z"/>
	<path class="st3" d="M72.4,70.9c-0.4,0.2-0.5,0.6-0.6,1c-0.5,3.5-1.6,7-2.6,10.4c-0.8,2.6-1.5,5.2-2.3,7.8c-0.5,1.5-0.4,3-0.4,4.5
		c0,1.1,0.6,1.8,1.4,2.3c1,0.6,2.2,1,3.3,1.4c2,0.7,4.1,1.3,6.1,2c0.7,0.3,1.6,0.4,2.2,0.9c-1.5,0.5-3,0.1-4.5-0.2
		c-2.2-0.4-4.4-0.8-6.6-1.1c-2.9-0.3-4.4-1.8-4.8-4.7c-0.3-1.9,0-3.7,0.3-5.5c0.7-3.4,1.6-6.8,2.7-10.2c1.3-4.1,2.7-8.2,4.1-12.3
		c0.1-0.3,0.2-0.6,0.4-1.2C71.6,67.9,72,69.4,72.4,70.9z"/>
	<path class="st3" d="M52.7,163.8c0,0.6,0,1.3,0.2,1.9c0.2,0.5,0.2,1.1,0.3,1.6c0.3,4.4,1.2,8.7,3.3,12.7c0.4,0.8,1,1.6,1,2.6
		c-2.5-1.3-4.2-3.3-5.2-5.9c-0.3-0.8-0.5-1.7-0.7-2.5c-0.7-3.6-1.3-7.2-1.4-10.9c-0.1-3.3,0.4-6.5,1.1-9.7c0.9-4.1,2-8.2,3.4-12.1
		c0.7-2,1.6-3.8,2.7-5.6c0.8-1.3,1.6-2.6,2.3-3.9c-0.1,2.3-1.1,4.5-2,6.6c-0.9,2.1-1.8,4.2-2.5,6.4c-0.2,0.5-0.3,1.1-0.2,1.6
		c-1.3,2.8-1.8,5.8-2.1,8.9C52.7,158.3,52.6,161,52.7,163.8z"/>
	<path class="st3" d="M44.5,143.6c0.2,0.8-0.2,1.4-0.6,2c-1.7,3.2-2.1,6.6-1.8,10.1c0.1,1.7,1.1,3.1,2,4.5c0.4,0.6,1.3,0.5,1.8,1.1
		c-1.1,1-2.3,0.9-3.6,0.4c-1-0.4-1.9-0.9-2.7-1.6c-1.8-1.5-2.5-3.4-2.2-5.7c0.2-1.3,0.5-2.5,1.1-3.6c1.3-2.6,3-4.8,5.1-6.8
		C43.9,143.8,44.2,143.6,44.5,143.6z"/>
	<path class="st2" d="M55.1,146.6c-0.1-0.6,0.1-1.1,0.2-1.6c0.7-2.2,1.6-4.3,2.5-6.4c0.9-2.1,1.8-4.2,2-6.6c0.9-2.3,2.3-4.2,3.7-6.2
		c0.3-0.4,0.6-0.7,1.2-0.6c-0.2,1.8-0.8,3.4-2,4.8c-1.1,1.2-1.1,2.4-0.6,3.7c0.4,1.1,0.7,2.3,0.9,3.4c0.4,2.1-0.2,4-1.8,5.3
		c-1.8,1.4-3.7,2.7-5.6,4C55.4,146.6,55.3,146.6,55.1,146.6z"/>
	<path class="st3" d="M106.4,110.5c-3.8,1.7-7.1,4.2-10,7.2c-1.7,1.7-3.3,3.4-5,5.1c-0.3,0.3-0.6,0.8-1.2,0.8
		c-0.3-0.7,0-1.5-0.1-2.2c1.1-1.3,2.1-2.6,2.9-4.1c2.6-4.6,6.5-7.5,11.5-9c0.7-0.2,1-0.1,1.3,0.6C106.1,109.5,106.2,110,106.4,110.5
		z"/>
	<path class="st3" d="M81.4,41c0,1.9-0.6,3.6-1.6,5.1c-0.3,0.5-0.7,0.9-1.1,1.2c-1.2,1-2.7,0.7-3.3-0.7c-0.4-0.8-0.6-1.7-0.5-2.5
		c0.1-1.9,0.6-3.7,1.8-5.3c0.5-0.7,1-1.2,1.7-1.6c0.8-0.4,1.6-0.3,2.1,0.5C81.2,38.7,81.4,39.8,81.4,41z"/>
	<path class="st3" d="M91,115.9c-4.1,0.2-7.5,1.9-10.6,4.5c-2,1.7-3.6,3.8-5,6.1c-0.4,0-0.8,0-1.2-0.1c-0.2-0.1-0.4-0.4-0.3-0.6
		c1.4-1.7,2.3-3.8,3.8-5.4c3.5-3.9,7.9-5.7,13-5.9c0.9,0,1,0.2,0.5,1.2C91.3,115.7,91.1,115.8,91,115.9z"/>
	<path class="st5" d="M68.7,102.1c1.5,0.1,3,0.5,4.4,0.9c0.5,0.1,0.7,0.5,0.4,0.8c-2.4,2.3-4.4,5-7,7.1c-0.2-2.7,0.4-5.2,1.7-7.5
		C68.4,103,68.5,102.5,68.7,102.1z"/>
	<path class="st5" d="M91.4,102.9c2-0.6,4-1,5.8-2.1c0.2,3.3-0.5,6.4-2,8.5C94,107.2,92.7,105,91.4,102.9z"/>
	<path class="st3" d="M68.7,102.1c-0.2,0.4-0.3,0.9-0.6,1.3c-1.3,2.3-1.9,4.8-1.7,7.5c-1.1,0.6-1.8,0.5-1.9-0.6
		c-0.2-2.2-0.1-4.4,0.2-6.6c0.4-2.4,0.4-2.4,2.7-1.9C68,101.9,68.3,102,68.7,102.1z"/>
	<path class="st6" d="M109.3,14.8c-0.5,0.4-1,0.4-1.6,0.3c-2.4-0.3-4.7,0.4-6.9,1.3c-0.2,0.1-0.2,0.4-0.4,0.6
		c-1.1,0.1-2-0.4-2.9-0.8c-0.3-0.1-0.4-0.6-0.1-0.7c2-1.2,4-2.3,6.3-2.4C105.8,13,107.7,13.4,109.3,14.8z"/>
	<path class="st6" d="M91.4,102.9c1.3,2.1,2.6,4.3,3.9,6.4c-0.2,0.3-0.5,0.4-0.8,0.3c-0.5-0.3-1.1-0.7-1.5-1.1
		c-1.5-1.5-2.9-2.9-4.4-4.4c-0.1-0.2-0.3-0.4-0.3-0.6c0-0.4,0.4-0.4,0.7-0.4C89.8,103,90.6,102.9,91.4,102.9z"/>
	<path class="st2" d="M82.4,33c0.7,0,1.2,0.6,1.2,1.2c0,0.6-0.6,1.2-1.2,1.2c-0.6,0-1.2-0.6-1.2-1.2C81.2,33.6,81.7,33,82.4,33z"/>
	<path class="st2" d="M79.8,32.1c-0.5,0-1.1-0.6-1.1-1.1c0-0.5,0.5-1.1,1-1.1c0.6-0.1,1.2,0.6,1.2,1.2
		C80.8,31.6,80.3,32.1,79.8,32.1z"/>
	<path class="st3" d="M77.6,73.3c-0.1,0-0.2-0.1-0.3-0.1c0.1-0.1,0.1-0.1,0.2-0.2C77.5,73.1,77.5,73.2,77.6,73.3
		C77.6,73.3,77.6,73.3,77.6,73.3z"/>
	<path class="st3" d="M46,142.3c-0.2,0.2-0.3,0.3-0.5,0.5C45.5,142.5,45.7,142.3,46,142.3z"/>
	<path class="st3" d="M45.5,142.7c-0.1,0.3-0.2,0.4-0.5,0.5C45,142.9,45.2,142.7,45.5,142.7z"/>
	<path class="st3" d="M45,143.2c0,0.3-0.2,0.5-0.5,0.5C44.5,143.3,44.7,143.2,45,143.2z"/>
	<path class="st0" d="M108.6,157.5c2.6-0.6,4.9-1.8,6.5-4.1c1.2-1.6,2.3-3.3,3.5-4.8c1.6-1.9,3.7-3.2,6.3-3.5l0,0
		c-0.7,1.3-2,2-2.8,3.2c-1.1,1.6-2.2,3.1-3.3,4.7c-1.3,1.7-2.5,3.5-4.3,4.7c-1.8,1.3-3.7,2.3-5.9,2.5c-3.7,0.3-7-0.6-9.3-3.8
		c-1.4-1.8-1.9-4.1-1.5-6.4c0.6-3.5,2.2-6.4,5.1-8.6c2.4-1.9,4.9-3.5,7.9-4.4c2.2-0.7,3.6-2.2,4.8-4.1c0.7-1.2,1.2-2.4,1.9-3.6
		c0.7,0.3,0.3,0.8,0.4,1.2c0.1,0.4,0,0.8,0,1.2c0,0.5,0,1-0.1,1.4c-0.3,1.6-1,3-2.3,4.1c-0.5,0.4-1,0.8-1.5,1.2
		c-1.5,0.6-2.9,1.3-4.4,1.9c-2.4,1-4.5,2.4-6.3,4.2c-2.1,2.1-3,4.7-2.8,7.6c0.2,2.2,1.3,3.9,3.5,4.7
		C105.5,157.5,107,157.8,108.6,157.5z"/>
	<path class="st3" d="M108.6,157.5c-1.6,0.3-3.2,0-4.7-0.6c-2.2-0.8-3.3-2.5-3.5-4.7c-0.3-2.9,0.7-5.5,2.8-7.6
		c1.8-1.8,3.9-3.3,6.3-4.2c1.5-0.6,2.9-1.3,4.4-1.9c0,0.7-0.4,1.2-0.9,1.6c-1.5,1.6-3.2,2.8-4.9,4.1c-1.8,1.4-3.1,3.2-4,5.2
		c-1.5,3.3,0.1,5.8,2.6,6.9c0.4,0.2,0.7,0.3,1.1,0.4C108.1,156.9,108.5,157.1,108.6,157.5z"/>
	<path class="st0" d="M125,145.1c0.1-0.1,0.1-0.2,0.2-0.2c0,0,0,0.1,0,0.1C125.1,145.1,125,145.1,125,145.1
		C124.9,145.1,125,145.1,125,145.1z"/>
</g>
</svg>
