<?xml version="1.0" encoding="utf-8"?>
<!-- Generator: Adobe Illustrator 27.9.0, SVG Export Plug-In . SVG Version: 6.00 Build 0)  -->
<svg version="1.1" id="Layer_1" xmlns="http://www.w3.org/2000/svg" xmlns:xlink="http://www.w3.org/1999/xlink" x="0px" y="0px"
	 viewBox="0 0 200 200" style="enable-background:new 0 0 200 200;" xml:space="preserve">
<style type="text/css">
	.st0{fill:#94083E;}
	.st1{fill:#F75159;}
	.st2{fill:#FDD8BE;}
	.st3{fill:#F6B172;}
	.st4{fill:#FCEDD8;}
	.st5{fill:#F65159;}
	.st6{fill:#FBE9D6;}
	.st7{fill:#AE1B59;}
	.st8{fill:#F55C52;}
	.st9{fill:#F9D1BC;}
	.st10{fill:#F6B373;}
	.st11{fill:#93073D;}
	.st12{fill:#93063C;}
	.st13{fill:#F75259;}
	.st14{fill:#FCFBFC;}
</style>
<g>
	<path class="st0" d="M159,142.5c-0.1,0.6,0.2,1.1,0.3,1.6c0.3,1.6-0.2,3-1.4,3.5c-1.2,0.5-2.9-0.2-3.7-1.5
		c-0.7-1.1-0.8-2.3-0.5-3.5c1-3.4-0.3-5.9-2.7-8.2c-0.6-0.5-1.1-1.1-1.8-1.8c0,0.4,0,0.6,0,0.9c0.5,7.9,0.6,15.8,0.3,23.7
		c-0.1,3.3-0.4,6.5-1.6,9.6c-2.2,5.7-6.2,9.1-12.4,9.9c-0.6,0.1-1.1,0.2-1.7,0.2c-1.3,0-2.4,0.2-3.4,1.3c-1,1.1-2.5,1.2-4,1.3
		c-1.5,0.2-3,0.3-4.5,0.5c-0.5,0-0.6,0.2-0.7,0.7c-0.2,2.1-0.6,4.3-0.9,6.4c-0.1,0.5,0,0.6,0.5,0.7c1.7,0.2,3.2,0.8,4.6,1.9
		c0.9,0.7,1.5,1.6,1.3,2.8c-0.3,1.2-1.3,1.7-2.4,2c-2.2,0.4-4.4,0-6.5-0.3c-1.5-0.2-2.9-0.5-4.4-0.7c-1.3-0.2-1.8-0.7-1.8-2
		c0-1.9,0.1-3.9-0.1-5.8c-0.1-0.7-0.3-1.4-0.6-2.1c-0.3-0.8-0.8-1.1-1.6-1.1c-0.2,0-0.4,0-0.6,0c-1.1-0.2-2.1-0.2-2.9,0.8
		c-0.5,0.6-1.3,0.8-2,0.9c-2.6,0.4-5.2,0.4-7.7,0c-1.1-0.1-2-0.6-2.7-1.4c-0.3-0.4-0.6-0.4-1.1-0.4c-0.4,0.1-0.7,0.1-1.1,0.1
		c-1.8,0.1-2.4,0.7-2.7,2.5c-0.3,2-0.3,4.1-0.2,6.1c0.1,1.8-0.3,2.3-2.1,2.5c-2.7,0.4-5.5,1-8.2,1.1c-1,0-2,0-3-0.4
		c-1.9-0.7-2.4-2.5-1-4c1.3-1.5,3.1-2.1,5-2.4c0.6-0.1,0.7-0.3,0.6-0.8c-0.4-2.2-0.8-4.3-0.9-6.5c0-0.6-0.4-0.5-0.7-0.5
		c-1.8-0.2-3.7-0.3-5.5-0.6c-1.3-0.2-2.5-0.7-3.6-1.6c-0.8-0.8-2-0.7-3-0.8c-2.7-0.3-5.3-0.8-7.6-2.3c-4-2.5-6.1-6.2-7-10.8
		c-0.7-3.8-0.9-7.6-0.9-11.5c0-6.5,0-13,0.5-19.5c-3.1,1.5-5.3,5.7-4.6,9c0.2,1,0.3,1.9,0.1,2.9c-0.1,0.8-0.5,1.5-1,2
		c-0.9,0.9-2.4,1.2-3.3,0.7c-1-0.5-1.4-1.6-1.3-3c0.1-0.6,0.5-1.2,0.3-1.9c-0.5,0.2-0.7,0.6-1,1c-0.4,0.6-0.7,1.3-1.2,1.9
		c-0.8,1.2-1.7,1.6-2.9,1.4c-1.2-0.3-2.2-1.5-2.3-2.8c-0.1-1.8,0.8-3,2.2-4c0.7-0.5,1.5-0.8,2.3-1.2c0.5-0.2,0.8-0.6,0.7-1.2
		c-0.1-0.7-0.5-1-1.2-0.7c-0.4,0.2-0.8,0.5-1.3,0.8c-0.7,0.4-1.4,0.5-2.1,0c-0.7-0.4-0.8-1.1-0.8-1.9c0.1-1,0.6-1.7,1.3-2.4
		c1.3-1.1,2.9-1.5,4.6-1.4c1.1,0.1,2.1,0.3,3.2,0.2c1.2-0.1,2.3-0.5,3.1-1.4c2.5-2.7,4.6-5.8,6.2-9.1c0.7-1.5,0.7-3.4,0.9-5.1
		c1.2-8.8,2.5-17.6,5-26.1c1.4-4.7,3.2-9.3,5.5-13.6c0.7-1.4,1.3-2.8,2.1-4.1c2.8-5.2,7.2-8.7,12.5-11.1c5-2.2,10.2-3.9,15.6-4.7
		c0.2,0,0.4-0.1,0.6-0.1c-0.4-0.7-0.8-1.4-1.8-1.6c-0.8-0.2-1.4-0.8-1.5-1.6c-0.1-0.9,0.3-1.5,1-2.1c0.1-0.1,0.3-0.2,0.5-0.4
		c-1.6-0.8-3-1.8-4.4-2.9c-3.9-3.1-7.1-6.7-8.8-11.5c-1.8-5-1.2-10,0.7-14.8c1.3-3.3,2.8-6.6,3.3-10.2c0.3-1.6,0.4-3.2,0.7-4.9
		c0.1-0.6,0.1-1.3,0.8-1.6c0.7-0.3,1.2,0.2,1.7,0.6c5.3,5,8.5,11.1,9,18.4c0.3,4.4-0.1,8.8-0.7,13.1c0,0.3-0.1,0.6-0.1,1.1
		c0.6-0.8,1-1.3,1.4-1.9c2.1-2.6,4.7-4.8,7.2-7c1.4-1.2,2.7-2.4,4.1-3.6c3.9-3.5,5.9-7.9,6.5-13c0.2-1.4,0.4-2.8,0.6-4.2
		c0.3-2,1.5-2.6,3.2-1.4c4,2.8,6.7,6.6,8,11.3c2.5,9.3,0.6,17.5-5.9,24.6c-2.1,2.3-4.8,3.9-7.6,5.1c-1.1,0.5-2.2,0.9-3.2,1.4
		c-0.5,0.2-1.1,0.5-1.5,1c0.3,0.2,0.6,0.3,0.9,0.5c0.7,0.5,1.2,1.1,1.1,2c-0.1,0.9-0.6,1.5-1.5,1.7c-0.9,0.2-1.4,0.8-1.8,1.6
		c1.6,0.3,3.3,0.6,4.9,1c4.9,1.2,9.7,2.9,14.2,5.3c4.5,2.4,7.8,5.9,10.1,10.5c2.2,4.4,4.5,8.8,6.1,13.6c2.1,6.4,3.6,13,4.6,19.7
		c0.7,4.7,1.4,9.4,2.1,14.1c0,0.3,0.1,0.6,0.3,0.9c1.6,2.9,3.4,5.6,5.5,8.2c1.4,1.7,3.2,2.3,5.3,2.1c1.4-0.2,2.8-0.3,4.1,0.1
		c1.3,0.4,2.5,1.1,3.1,2.4c0.5,1.1,0.4,2.2-0.3,2.8c-0.7,0.6-1.6,0.5-2.6-0.1c-0.2-0.1-0.5-0.3-0.7-0.4c-0.4-0.3-0.9-0.4-1.2,0.1
		c-0.3,0.5-0.3,1.1,0.3,1.4c0.5,0.3,1.2,0.6,1.7,0.9c1.5,0.8,2.8,1.8,3.1,3.7c0.2,1.2-0.2,2.3-1.1,3.1c-1.2,1.1-2.7,1-3.7-0.3
		c-0.5-0.6-0.9-1.4-1.4-2.1C159.8,143.3,159.6,142.8,159,142.5z M45.9,135.1C45.9,135.1,45.9,135,45.9,135.1
		C45.9,135,45.9,135.1,45.9,135.1c-0.1,0.1-0.1,0.1-0.2,0.2c-0.7-0.2,0.2-0.6-0.1-0.9c-0.3,0-0.4,0.3-0.6,0.4
		c-0.9,0.6-1.6,1.5-2.7,1.9l0,0c0.4-1,1.2-1.7,1.8-2.9c-0.9,0.4-1.7,0.2-2.5,0.3c-1-0.1-2-0.3-2.9-0.3c-1.3-0.1-2.5,0.3-3.3,1.4
		c-0.3,0.3-0.5,0.8-0.2,1.2c0.3,0.4,0.7-0.1,1-0.2c0.3-0.1,0.5-0.3,0.7-0.4c1.2-0.6,2-0.5,2.9,0.4c0.5,1.1,0.5,2.2-0.2,3.2
		c-0.6,0.4-1.2,0.8-1.8,1.2c-0.7,0.4-1.4,0.8-1.9,1.5c-0.5,0.7-0.6,1.4-0.2,2.2c0.5,0.9,1.1,0.9,1.6,0.1c0.8-1.3,1.5-2.8,2.8-3.8
		c0.9-0.2,1.7,0.3,2.5,0.6c0.4,1.2,0.4,2.5,0,3.7c-0.1,0.3,0,0.6,0.3,0.7c0.3,0.1,0.5-0.1,0.7-0.2c0.6-0.6,0.6-1.4,0.5-2.2
		c-0.1-1-0.2-1.9-0.3-2.9c-0.1-1,0.2-1.9,0.6-2.8c0.3-0.8,1-1.5,1.3-2.3C45.8,135.2,45.8,135.2,45.9,135.1z M156.1,140.8
		c0,0.6-0.1,1.2-0.2,1.8c-0.1,0.8-0.2,1.6,0.1,2.4c0.2,0.5,0.6,0.9,1.1,0.7c0.5-0.2,0.3-0.7,0.2-1.1c-0.5-1.3-0.4-2.5,0.4-3.6
		c0.6-0.2,1.2-0.5,1.9-0.4c1,0.4,1.6,1.2,2.1,2.1c0.3,0.5,0.6,1.1,0.9,1.6c0.2,0.3,0.4,0.9,0.9,0.7c0.5-0.1,0.8-0.5,1-1
		c0.3-1-0.2-1.8-1-2.4c-1-0.8-2.1-1.5-3.2-2.2c-0.5-1.1-0.6-2.3,0-3.4c0.5-0.3,1-0.6,1.7-0.6c0.7,0.1,1.3,0.5,1.9,0.8
		c0.3,0.1,0.6,0.5,0.9,0.2c0.3-0.3,0.1-0.7-0.1-1c-0.5-0.8-1.3-1.2-2.3-1.4c-1-0.2-2,0.1-3,0.1c-0.1,0-0.2,0-0.3,0.1
		c-0.1,0-0.2,0.1-0.3,0.1c-0.7,0-1.4,0-2.1,0c-0.5,0-0.6,0.1-0.3,0.6c0.5,0.7,1.1,1.2,1.4,2c-0.4,0-0.6-0.2-0.9-0.4
		c-0.6-0.5-1.2-1-1.9-1.5c-0.3-0.2-0.7-0.6-0.7,0.2l0,0c-0.2,0.3-0.2,0.4,0.2,0.8c1.1,1.3,1.6,2.8,1.7,4.5c0,0.1,0,0.1-0.1,0.1
		C156.2,140.6,156.1,140.7,156.1,140.8z M97.7,56.2c2.2,0.3,4.3,0.5,6.4-0.6c-0.5-0.5-1-0.3-1.4-0.4c-1.7-0.2-3.3-0.6-5,0.1
		c-0.6,0-1.2,0-1.8,0.2C96.4,56,97,56.2,97.7,56.2z M82.9,40.1c0,0.1,0,0.1,0.1,0.2c0.6,0.9,1.2,1.8,2,2.5c0.5,0.5,1,1.1,1.6,1.8
		c-0.2-1.2-0.2-2.2-0.1-3.2c0.3-2,1.6-3.3,2.7-4.9c0.3-0.4,0.8-0.4,1.2-0.2c0.4,0.2,0.5,0.6,0.5,1c0,1.8,0.1,3.6,0.2,5.4
		c0,1,0.2,1.9,0.6,2.8c0.1-0.4,0.1-0.8,0.1-1.2c0.1-4.8,1.3-9.5,1.4-14.3c0.1-3.9,0-7.8-1.2-11.6c-1-3-2.4-5.8-4.6-8.2
		c-0.5-0.8-1.1-1.5-1.8-2.3c-0.1,0.5-0.2,0.8-0.2,1.2c-0.2,3.9-1.4,7.5-2.9,11c-0.4,0.9-0.9,1.8-1.1,2.8c-1,2-1.5,4.2-1.6,6.4
		C79.7,33.3,80.6,36.9,82.9,40.1L82.9,40.1z M79.2,192.1c2.2-0.3,4.3-0.6,6.5-0.9c0.3,0,0.4-0.2,0.4-0.5c-0.1-1.1,0.3-2.3,0.1-3.5
		c-0.5,0.7-0.2,1.6-0.8,2.2c-0.1-0.9-0.2-1.6-0.3-2.4c-0.4,0.6-0.1,1.4-0.6,2.1c-0.2-1-0.4-1.9-0.6-3.1c-0.4,1.2-0.3,2.2-0.8,3.3
		c-0.2-1.2-0.3-2.2-0.5-3.3c-0.4,0.6-0.2,1.3-0.4,2c-0.4-0.8-0.3-1.6-0.6-2.4c-0.1,0.4-0.2,0.7-0.2,1c0,0.6-0.1,1.2,0.1,1.8
		c0.2,0.7-0.5,1.2-1.8,1.4c-1.5,0.1-2.8,0.6-3.9,1.6c-0.4,0.3-0.4,0.5,0.2,0.6C77.1,192.4,78.1,192.2,79.2,192.1z M120.5,192.1
		c1.1,0.1,2.1,0.3,3.2,0.1c0.2,0,0.6,0,0.6-0.3c0.1-0.3-0.2-0.4-0.4-0.6c-0.9-0.7-2-1.1-3.1-1.3c-0.4-0.3-0.8-0.1-1.2-0.2
		c-0.9-0.1-1.4-0.6-1.2-1.5c0.2-0.9-0.1-1.8-0.2-2.7c-0.2,0.8-0.3,1.6-0.5,2.4c-0.1,0-0.1,0-0.2,0c0-0.7-0.1-1.4-0.1-2.3
		c-0.4,1.3-0.3,2.4-0.8,3.7c-0.2-1.3-0.4-2.3-0.6-3.5c-0.4,1.1-0.2,2.2-0.8,3.3c-0.2-0.6,0-1.2-0.5-1.6c-0.3,0.6,0,1.2-0.4,1.8
		c-0.3-0.6-0.2-1.3-0.7-1.9c0,1.1,0,2.1,0,3.1c0,0.4,0.2,0.5,0.5,0.5C116.4,191.5,118.5,191.8,120.5,192.1z M106.6,29.7
		c-2.6,2.2-5.3,4.3-7.7,6.8c-1.8,1.8-3.4,3.9-4.2,6.3c-1,2.6-0.9,5.2,0.5,7.6c0.4,0.7,1.2,0.4,1.7,0.3c0.5-0.1,0-0.7,0.1-1
		c0-0.1,0-0.2,0-0.4c0.3-2.1,1.3-3.8,2.9-5.2c2.1-1.7,4-3.7,4.8-6.4c0.2-0.7,0.5-1.3,1.3-1.3c0.9,0,1.2,0.7,1.4,1.4
		c0.6,2,0.7,4.1,0,6.2c-0.5,1.4-1.4,2.4-2.4,3.5c-0.8,0.9-1.7,1.6-2.3,2.7c-0.1,0.2-0.4,0.6,0,0.6c0.6,0.1,1.4,0.3,1.8-0.3
		c1.6-1.9,3.8-2.8,6-3.6c5.2-2,8.7-5.7,11.2-10.6c2.3-4.7,2.6-9.7,1.7-14.8c-0.8-3.9-2.4-7.3-5.2-10.1c-0.4-0.6-0.9-1-1.5-1.5
		c-0.2-0.1-0.3-0.4-0.5-0.3c-0.2,0.1-0.2,0.4-0.2,0.6c-0.1,1.3-0.3,2.6-0.4,3.9C115,20.6,111.7,25.7,106.6,29.7z M146.6,131.6
		c-0.3-3.5-0.8-7-1.3-10.5c-0.3-1.7-0.4-3.5-0.8-5.1c0-0.4,0-0.7,0-1.1c-0.4-2.6-0.8-5.3-1.2-7.9c-0.3-1.9-0.5-3.9-1-5.8
		c-0.1-1.1-0.3-2.1-0.8-3.1c-0.1-1.5-0.6-2.8-0.9-4.3c-0.9-4-2.2-7.8-3.9-11.5c-0.2-0.9-0.7-1.6-1.1-2.4c-1-2-2.1-4-3-6.1
		c-1.1-2.5-2.8-4.5-4.9-6.2c-1.7-1.3-3.6-2.5-5.6-3.5c-5-2.2-10.1-4.1-15.5-5.1c-2.6-0.5-5.1-1-7.8-0.7c-0.5,0-0.9,0-1.4,0.1
		c-6.9,0.9-13.5,3-19.9,5.9c-2.1,1-4,2.3-5.8,3.7c-2.4,1.9-3.7,4.6-5.1,7.2c-4.1,7.7-6.9,15.9-8.6,24.4c-1,5.2-1.7,10.4-2.5,15.6
		c-1,6.1-1.7,12.3-2.3,18.4c-0.5,5.6-0.4,11.2-0.5,16.8c-0.1,2.5,0,5,0.1,7.6c0.1,2,0.3,4,0.8,5.9c0.9,4,3,7.2,6.7,9.2
		c1.7,0.9,3.5,1.7,5.3,2.5c0.6,0.3,1.2,0.5,1.8,0.8c-1.8-2.7-2.8-5.6-3.1-8.8c0-0.3,0-0.6-0.1-0.8c-0.7-6.3-1.6-12.7-1.6-19.1
		c0.5-0.7,0.8-0.5,1,0.2c0.3,0.9,0.6,1.8,0.7,2.7c0.8,5.4,1.5,10.9,2.2,16.4c0.4,2.9,1.2,5.5,3,7.8c0.9,1.1,1.9,2,3.5,2.2
		c1,0.1,1.9,0.4,2.9,0.7c1.2,0.4,2.4,0.8,3.6,1.2c0.2,0.1,0.5,0.2,0.7,0c0.1-0.1,0-0.3,0-0.4c-1.1-2.3-1.4-4.8-1.7-7.3
		c0-0.2,0-0.5-0.1-0.7c-0.6-5.3-1.5-10.6-1.8-15.9c-0.1-1-0.1-2,0.3-2.9c0.7-0.1,0.8,0.5,0.9,0.9c0.5,1.8,0.7,3.6,1,5.4
		c0.6,3.9,1.2,7.8,1.8,11.7c0.4,2.4,0.6,4.8,1.5,7c0.7,1.9,1.7,3.5,3.9,3.8c1.4,0.2,2.9,0.4,4.3,0.6c0.8,0.1,1.5,0.3,2.3,0.3
		c-0.2-0.7-0.5-1.4-0.7-2.1c-0.8-2.9-1-5.9-1.2-8.8c-0.3-5-0.8-10-0.5-15.1c0.8-0.4,1.1-0.1,1.3,0.6c0.2,0.9,0.3,1.7,0.4,2.6
		c0.5,5.5,1.1,11,1.6,16.5c0.2,1.7,0.5,3.5,1.3,5.1c0.4,0.8,1.1,1.3,2,1.4c2.2,0.2,4.4,0.2,6.5,0c0.6-0.1,1.1-0.3,1.4-0.7
		c0.6-0.7,0.9-1.5,1.1-2.4c0.5-1.8,0.7-3.6,0.9-5.5c0.5-4.9,0.9-9.7,1.4-14.6c0.1-0.9,0.2-1.8,0.5-2.6c0.2-0.5,0.5-0.9,1.1-0.5
		c0.4,1.9,0.2,3.9,0.2,5.9c-0.1,4.5-0.5,8.9-0.9,13.3c-0.3,2.1-0.5,4.3-1.4,6.3c-0.2,0.6,0,0.6,0.5,0.5c1.9-0.3,3.9-0.6,5.8-0.8
		c1.4-0.2,2.5-0.9,3.2-2.2c0.5-1,1-2,1.2-3.1c0.5-2.3,0.8-4.6,1.2-6.9c0.5-3.6,1-7.1,1.6-10.7c0.3-1.8,0.5-3.6,1.1-5.3
		c0.1-0.3,0.2-0.6,0.5-0.7c0.3,0,0.4,0.4,0.6,0.5c0.2,3-0.3,6-0.6,8.9c-0.5,3.7-0.9,7.5-1.4,11.2c-0.4,2.2-0.8,4.5-1.8,6.6
		c0.5,0.2,0.9,0,1.3-0.2c2.2-0.7,4.3-1.5,6.6-1.9c1-0.2,1.7-0.6,2.3-1.4c1.4-1.7,2.7-3.6,3.1-5.8c1-4.9,1.4-9.9,2.1-14.8
		c0.3-2.1,0.5-4.3,1.1-6.3c0.1-0.5,0.2-1.2,0.9-1.2c0.5,1.2,0.4,2.4,0.3,3.6c-0.5,6.6-1.1,13.2-2.1,19.7c-0.6,2-1.5,3.9-2.7,5.6
		c0.3,0.2,0.4,0.1,0.5,0c1.9-0.8,3.8-1.7,5.6-2.5c4.1-2,6.7-5.1,7.7-9.6c0.5-2.4,0.9-4.9,0.9-7.4c0.1-5.1,0.2-10.2-0.1-15.3
		c0-0.2,0.1-0.4,0.1-0.5C147,137.8,146.9,134.7,146.6,131.6z M106.1,39.4c-0.4,0.8-0.7,1.4-1.1,2c-1.1,1.7-2.7,2.9-4.2,4.2
		c-1.3,1.1-2.2,2.5-2.2,4.4c0,0.4-0.1,0.9,0.5,0.8c0.5,0,1.2,0.3,1.3-0.6c0.1-0.7,0.5-1.2,0.9-1.7c0.9-1.3,2.1-2.3,3.3-3.4
		C106.3,43.6,106.4,41.7,106.1,39.4z M89,39.7c-1.5,1-1,5.4,0.8,6.7C89.1,44.1,89.1,41.9,89,39.7z M93.2,53.4
		c0.9,0.5,1.4-0.2,2.2-0.5C94.5,52.9,93.9,52.9,93.2,53.4z M104.8,52.9c0.7,0.5,1.2,1,1.9,0.5C106.2,53,105.7,52.9,104.8,52.9z
		 M113.8,187.2C113.8,187.2,113.8,187.1,113.8,187.2C113.8,187.1,113.7,187.1,113.8,187.2C113.7,187.2,113.7,187.2,113.8,187.2z"/>
	<path class="st1" d="M78.4,171.2c0.4,2.5,0.7,5,1.7,7.3c0.1,0.1,0.2,0.3,0,0.4c-0.2,0.2-0.5,0.1-0.7,0c-1.2-0.4-2.4-0.8-3.6-1.2
		c-0.9-0.3-1.9-0.6-2.9-0.7c-1.5-0.2-2.6-1.1-3.5-2.2c-1.8-2.3-2.6-5-3-7.8c-0.7-5.5-1.5-10.9-2.2-16.4c-0.1-0.9-0.4-1.8-0.7-2.7
		c-0.2-0.7-0.5-0.8-1-0.2c-0.4-1.4-0.5-2.8-0.7-4.2c-0.1-0.5,0.1-1.2-0.5-1.2c-0.6,0-0.4,0.8-0.4,1.2c0,5.2,0.2,10.3,1.2,15.5
		c0.5,2.9,1.1,5.8,2.1,8.6c0.3,3.1,1.3,6,3.1,8.8c-0.6-0.2-1.2-0.5-1.8-0.8c-1.8-0.8-3.5-1.6-5.3-2.5c-3.7-2-5.8-5.2-6.7-9.2
		c-0.4-2-0.6-3.9-0.8-5.9c-0.2-2.5-0.3-5-0.1-7.6c0.1,0.8,0.3,1.5,0.4,2.3c0.2,0.7,0.3,1.5,0.9,2.1c0.2-5.8,0.7-11.5,1.4-17.2
		c0.7,0.2,1.3,0.5,2,0.6c3.8,0.5,7.4,0.2,10.8-1.7c1.5-0.8,3.2-1.3,5-1.3c2.9-0.1,5.5,1,8,2.3c1.8,1,3.6,2,5.6,2.7
		c5.3,2.1,10.7,2.3,16,0.4c3.1-1.2,6.3-1.5,9.5-0.6c0.9,0.3,1.9,0.6,2.8,0.9c3,1.1,5.9,0.3,8.7-0.7c2.1-0.8,4.1-1.9,6.3-2.6
		c2.6-0.8,5.1-1,7.7,0.1c1.9,0.8,3.6,1.7,5.4,2.6c1.1,0.5,2.3,1.1,3.6,1.1c0.3,5.1,0.2,10.2,0.1,15.3c0,2.5-0.3,5-0.9,7.4
		c-1,4.4-3.6,7.6-7.7,9.6c-1.9,0.9-3.8,1.7-5.6,2.5c-0.1,0.1-0.3,0.1-0.5,0c1.3-1.7,2.1-3.6,2.7-5.6c1.2-2.4,2-4.9,2.4-7.5
		c0.7-4.6,1.1-9.2,1.5-13.8c0.2-2.6,0.4-5.2,0.2-7.9c0-0.5,0-1.4-0.7-1.4c-0.6,0-0.6,0.8-0.7,1.3c-0.3,2-0.5,3.9-0.7,5.9
		c-0.7,0.1-0.8,0.7-0.9,1.2c-0.6,2.1-0.8,4.2-1.1,6.3c-0.7,4.9-1.1,9.9-2.1,14.8c-0.4,2.2-1.6,4.1-3.1,5.8c-0.6,0.7-1.4,1.2-2.3,1.4
		c-2.3,0.4-4.4,1.2-6.6,1.9c-0.4,0.1-0.7,0.3-1.3,0.2c1-2.1,1.4-4.4,1.8-6.6c0.7-1.7,1.2-3.5,1.6-5.3c1.6-6,2.3-12.1,2.7-18.2
		c0.1-1.5,0.2-3.1,0.1-4.6c0-0.3,0-0.8-0.4-0.8c-0.5-0.1-0.6,0.4-0.7,0.7c-0.3,0.8-0.5,1.7-0.6,2.6c-0.3,1.8-0.5,3.6-0.8,5.5
		c-0.2-0.2-0.2-0.6-0.6-0.5c-0.3,0-0.4,0.4-0.5,0.7c-0.6,1.7-0.8,3.5-1.1,5.3c-0.6,3.5-1.1,7.1-1.6,10.7c-0.3,2.3-0.6,4.6-1.2,6.9
		c-0.3,1.1-0.7,2.1-1.2,3.1c-0.7,1.3-1.8,2-3.2,2.2c-1.9,0.3-3.9,0.5-5.8,0.8c-0.5,0.1-0.7,0.1-0.5-0.5c0.8-2,1-4.2,1.4-6.3
		c1-2.6,1.7-5.3,2-8.1c0.5-4.3,0.8-8.6,1-13c0.1-2.5,0.2-5.1,0-7.6c0-0.5,0-1.3-0.7-1.3c-0.7,0-0.7,0.8-0.7,1.3
		c-0.3,3.2-0.6,6.4-0.9,9.6c-0.6-0.5-0.9-0.1-1.1,0.5c-0.3,0.8-0.4,1.7-0.5,2.6c-0.5,4.9-0.9,9.7-1.4,14.6c-0.2,1.8-0.4,3.7-0.9,5.5
		c-0.2,0.9-0.5,1.7-1.1,2.4c-0.4,0.4-0.9,0.7-1.4,0.7c-2.2,0.2-4.4,0.2-6.5,0c-0.9-0.1-1.6-0.5-2-1.4c-0.8-1.6-1.1-3.3-1.3-5.1
		c-0.6-5.5-1.1-11-1.6-16.5c-0.1-0.9-0.2-1.8-0.4-2.6c-0.2-0.7-0.5-1.1-1.3-0.6c-0.1-0.2-0.1-0.4-0.2-0.6c-0.3-2-0.5-4-0.8-6
		c-0.2-1.2-0.2-2.5-0.7-3.6c-0.1-0.2-0.2-0.5-0.5-0.5c-0.3,0-0.4,0.3-0.4,0.6c0,0.7,0,1.4,0,2c0.1,6.6,0.9,13.1,2.2,19.5
		c0.2,1.2,0.4,2.5,0.9,3.7c0.2,3,0.4,5.9,1.2,8.8c0.2,0.7,0.4,1.3,0.7,2.1c-0.8,0-1.6-0.2-2.3-0.3c-1.4-0.2-2.9-0.4-4.3-0.6
		c-2.2-0.3-3.2-1.9-3.9-3.8c-0.9-2.3-1.1-4.7-1.5-7c-0.6-3.9-1.2-7.8-1.8-11.7c-0.3-1.8-0.5-3.7-1-5.4c-0.1-0.4-0.2-1-0.9-0.9
		c0-0.1-0.1-0.3-0.1-0.4c-0.4-3-0.8-5.9-1.2-8.9c-0.1-0.7-0.2-1.4-0.4-2.1c-0.1-0.2-0.1-0.6-0.5-0.6c-0.3,0.1-0.2,0.4-0.2,0.6
		c-0.2,1.3-0.1,2.5,0,3.8c0.2,6.2,0.8,12.3,1.7,18.4C76.6,165.4,77.3,168.3,78.4,171.2z"/>
	<path class="st2" d="M98.8,58.3c2.6-0.3,5.2,0.3,7.8,0.7c5.4,1,10.5,2.8,15.5,5.1c2,0.9,3.8,2.1,5.6,3.5c2.1,1.6,3.8,3.6,4.9,6.2
		c0.9,2.1,2,4.1,3,6.1c-0.1,0.1-0.1,0.3-0.2,0.4c-0.3,0.5-0.6,1-0.2,1.6c0.4,0.6,0.9,0.5,1.5,0.4c1.6,3.7,3,7.5,3.9,11.5
		c-0.1,0.5-0.7,0.4-1,0.8c-0.5,0.6-0.7,1.2-0.4,1.9c0.4,1,1.1,1.6,2.3,1.6c0.5,1,0.6,2.1,0.8,3.1c-0.1,0-0.3,0.1-0.4,0.1
		c-2.3,1.3-5.3,0.7-7.1-1.4c-1.2-1.4-2.8-2.3-4.5-2.9c-1.4-0.5-2.8-0.6-4.2-0.7c-2.8-0.2-5.5-0.1-8.2,1c-1.9,0.8-3.8,1.4-5.9,1
		c-1.3-0.3-2.6-0.5-3.9-0.6c-2.6-0.1-5.2,0.4-7.7,1.2c-2.8,0.9-5.6,1.1-8.4,0.5c-3.1-0.7-6-2-8.9-3.3c-2.6-1.2-5.2-1.5-8-0.8
		c-1.2,0.3-2.4,0.6-3.6,0.3c-2.8-0.6-5.7-1.1-8.6-1.1c0-0.2,0-0.3,0-0.5c1-2.3,2.1-4.6,3.2-6.9c0.2-0.4,0.3-1,0.9-1.1
		c0.8,1.4,2.1,1.4,3.4,1.5c0.9,0.1,1.8-0.3,2.2-1.1c0.5-0.9,0.3-1.8-0.3-2.7c-0.9-1.2-2.1-1.3-3.5-1.3c0-0.4,0.3-0.8,0.5-1.2
		c0.9-1.4,1.8-2.8,2.8-4.1c2.6-3.3,5.3-6.5,8.7-9c2.4-1.7,4.9-3.3,7.6-4.7c3-1.5,6.1-3,9.1-4.5C98,58.9,98.6,58.9,98.8,58.3z
		 M92,88.3c-1.4-0.1-2.6,0.3-3.7,0.9c-1,0.6-1.6,1.8-1.3,2.9c0.3,1.5,0.7,1.8,2.3,1.9c0.2,0,0.4,0.1,0.5,0.1c1.8,0.3,3.5,0.3,4.9-1
		c1.3-1.2,1.4-3,0.2-4C94.1,88.4,93,88.2,92,88.3z M127.9,87.5c1.8,0.2,3.3-1.8,3.3-3c0-1.9-1.8-3.5-3.8-3.5c-1.8,0-3.2,1.4-3.3,3.1
		C124.2,86.1,125.8,87.5,127.9,87.5z M78.7,90c-1.7,0.1-3.3,0.3-4.9,0.8c-0.5,0.2-1.1,0.6-1.1,1.1c0,0.6,0.8,0.6,1.3,0.6
		c2.7,0.3,5.5,0.3,8.1,1c0.8,0.2,1.8-0.3,2-1c0.3-0.9-0.3-1.4-1-1.7C81.7,90.1,80.2,90,78.7,90z M121.3,90c-1.5,0-3,0.1-4.3,0.7
		c-1,0.5-1.4,1.1-1.1,1.8c0.2,0.7,1.2,1.3,2.1,1c2.6-0.7,5.2-0.8,7.8-1c0.6-0.1,1.3,0,1.4-0.6c0.1-0.6-0.6-1-1.2-1.2
		c-0.2-0.1-0.4-0.1-0.5-0.2C124.2,90.2,122.8,90.1,121.3,90z M102.2,92.5c1.1,0,1.8-0.8,1.8-1.9c0-1-0.8-1.9-1.9-1.8
		c-1,0-1.8,0.8-1.8,1.8C100.3,91.8,101,92.5,102.2,92.5z M136.4,91.2c0-1-0.8-1.8-1.8-1.8c-0.9,0-1.7,1-1.7,1.9c0,1,0.8,1.7,1.8,1.8
		C135.7,93.1,136.4,92.3,136.4,91.2z M90.1,81.7c0-0.8-0.8-1.6-1.6-1.6c-0.9,0-1.7,0.6-1.7,1.4c0,0.5,1.2,1.6,1.8,1.6
		C89.3,83.2,90.1,82.5,90.1,81.7z M79,81c-0.9,0-1.1,0.3-1.1,1.1c0,0.9,0.4,1.3,1.2,1.3c0.8,0,1.4-0.5,1.4-1.2
		C80.5,81.5,79.9,81,79,81z M115.5,85.2c0-0.6-0.7-1.4-1.3-1.3c-0.6,0.1-1.2,0.4-1.2,1c-0.1,0.8,0.6,1.5,1.3,1.5
		C114.8,86.4,115.5,85.7,115.5,85.2z M78.7,75.5c0-0.7-0.4-1.2-1.1-1.2c-0.7,0-1.1,0.4-1.2,1.1c0,0.8,0.4,1.2,1.1,1.2
		C78.2,76.5,78.6,76.2,78.7,75.5z M123.6,75.7c-0.5,0.1-1,0.4-1.1,1c0,0.6,0.7,1,1.4,1c0.7,0,1-0.4,0.9-1
		C124.9,76,124.4,75.7,123.6,75.7z"/>
	<path class="st3" d="M62.9,94.5c2.9,0,5.7,0.6,8.6,1.1c1.2,0.2,2.4,0,3.6-0.3c2.8-0.7,5.4-0.4,8,0.8c2.9,1.3,5.8,2.6,8.9,3.3
		c2.8,0.7,5.6,0.4,8.4-0.5c2.5-0.8,5.1-1.3,7.7-1.2c1.3,0.1,2.6,0.3,3.9,0.6c2.1,0.4,4-0.2,5.9-1c2.6-1.1,5.4-1.2,8.2-1
		c1.4,0.1,2.8,0.2,4.2,0.7c1.8,0.6,3.3,1.5,4.5,2.9c1.8,2.1,4.8,2.7,7.1,1.4c0.1-0.1,0.3-0.1,0.4-0.1c0.5,1.9,0.7,3.9,1,5.8
		c0.4,2.6,0.8,5.3,1.2,7.9c0.1,0.4,0,0.7,0,1.1c-0.4,1.1-1,2.2-1.9,2.9c-0.7,0.6-1.5,1.1-2.2,1.7c-2.4,2-4,4.4-3.9,7.7
		c0,2.2,1.1,3.8,2.9,4.8c2,1,4.1,1,6-0.4c0.4-0.3,0.8-0.7,1.2-1.1c0.3,3.1,0.4,6.2,0.5,9.3c0,0.2-0.1,0.4-0.1,0.5
		c-1.3,0-2.4-0.6-3.6-1.1c-1.8-0.8-3.6-1.8-5.4-2.6c-2.6-1.1-5.1-0.9-7.7-0.1c-2.2,0.7-4.2,1.8-6.3,2.6c-2.8,1-5.7,1.8-8.7,0.7
		c-0.9-0.3-1.9-0.6-2.8-0.9c-3.2-0.9-6.4-0.6-9.5,0.6c-5.4,2-10.7,1.8-16-0.4c-1.9-0.8-3.7-1.8-5.6-2.7c-2.5-1.3-5-2.4-8-2.3
		c-1.8,0.1-3.4,0.5-5,1.3c-3.4,1.8-7.1,2.2-10.8,1.7c-0.7-0.1-1.4-0.4-2-0.6c0.1-0.7,0.2-1.5,0.3-2.2c4.4,2.1,8.6,1.1,12.7-0.9
		c0.8-0.4,1.4-1.2,1.4-2.2c-0.1-1.1-0.7-1.7-1.7-2.1c-0.8-0.3-1.7-0.5-2.3-1.1c-1.4-1.3-2.9-2.6-4.1-4.1c-1.1-1.4-2.6-2.6-4.5-2.9
		c0.4-3.1,0.8-6.1,1.2-9.2c0.5-3.7,0.9-7.4,1.9-11.1C61,99.4,61.7,96.8,62.9,94.5z M139,110.9c0-0.4,0-0.7-0.1-1.1
		c0-0.2,0-0.4-0.1-0.5c-0.9-4.2-3.1-7.6-6.4-10.3c-2.1-1.7-4.5-2.2-7.1-2c-5,0.3-8.9,2.9-12.1,6.6c-0.9,1-1.6,2.2-2,3.5
		c-0.8,2.5-1.1,5.2-1.2,7.8c0,0.7,0.2,1.3,0.8,1.6c0.7,0.4,1.3,1,1.8,1.5c1.4,1.3,3,2.3,4.7,3c3.3,1.3,6.6,2,10.2,2.1
		c2.4,0.1,4.6-0.4,6.5-1.9C137.5,118.6,138.8,115,139,110.9z M73.5,123.1c2.8-0.3,5.9-0.8,8.8-2c2.2-0.9,3.9-2.4,5.7-3.8
		c1.7-1.2,2.1-2.5,1.8-4.4c0-0.1,0-0.2,0-0.3c-0.2-2.2-0.4-4.5-1.5-6.6c-2.5-4.8-6.5-7.7-11.7-8.9c-3-0.7-6-0.5-8.7,1.4
		c-1.3,0.9-2.4,2.1-3.4,3.4c-3,3.9-4.6,8.1-2.9,13c1.3,3.9,3.6,6.8,7.7,8C70.6,123.3,71.9,123,73.5,123.1z M100,136.6
		c0.4,0,0.7,0,1.1,0c2.9-0.2,5.5-1,7.8-3c1.7-1.6,2.7-3.4,2.4-5.8c-0.1-0.5-0.4-1.2,0.4-1.5c0.4-0.1,0.8-0.3,0.6-0.8
		c-0.2-0.5-0.6-0.5-1.1-0.4c-0.9,0.2-1.9,0.4-2.8,0.4c-5.6,0.5-11.3,0.5-16.9,0c-1-0.1-2.1-0.3-3.1-0.5c-0.4-0.1-0.8,0-0.9,0.4
		c-0.1,0.4,0.2,0.7,0.5,0.8c0.8,0.2,0.7,0.6,0.6,1.2c-0.3,2.4,0.4,4.4,2.2,6C93.5,135.7,96.6,136.6,100,136.6z M121.8,130.3
		c-2,0-3.1,1.1-3.1,2.7c0.1,2.8,3.6,5.7,6.4,5.2c1.1-0.2,2.1-0.7,2.4-1.9c0.3-1.2-0.7-1.6-1.5-2.1c-0.3-0.2-0.4-0.5-0.5-0.8
		C124.7,131.6,123.5,130.4,121.8,130.3z M73.8,129.6c-0.3,2.6,2.9,4.7,5.1,4.6c1,0,1.9-0.6,1.9-1.6c0-2-0.2-3.9-1.9-5.3
		c-1.1-0.9-2.3-1-3.6-0.4C74.2,127.5,73.8,128.4,73.8,129.6z"/>
	<path class="st4" d="M62.9,94.5c-1.2,2.3-1.9,4.9-2.6,7.4c-0.9,3.6-1.4,7.4-1.9,11.1c-0.4,3.1-0.8,6.1-1.2,9.2c-0.2,2-0.5,4-0.7,6
		c-0.3,2.4-0.5,4.8-0.7,7.2c-0.1,0.7-0.2,1.5-0.3,2.2c-0.7,5.7-1.2,11.4-1.4,17.2c-0.6-0.6-0.7-1.4-0.9-2.1
		c-0.2-0.7-0.3-1.5-0.4-2.3c0.1-5.6,0-11.2,0.5-16.8c0.6-6.2,1.4-12.3,2.3-18.4c0.8-5.2,1.4-10.4,2.5-15.6
		c1.7-8.5,4.5-16.7,8.6-24.4c1.4-2.7,2.7-5.3,5.1-7.2c1.8-1.4,3.7-2.7,5.8-3.7c6.3-2.9,12.9-5,19.9-5.9c0.5-0.1,0.9,0,1.4-0.1
		c-0.2,0.6-0.8,0.6-1.3,0.8c-3,1.5-6,3-9.1,4.5c-2.7,1.3-5.2,3-7.6,4.7c-3.5,2.5-6.2,5.7-8.7,9c-1,1.3-2,2.7-2.8,4.1
		c-0.2,0.4-0.5,0.7-0.5,1.2c-0.9,1-1.7,2.1-1.8,3.5c-0.6,0.1-0.7,0.7-0.9,1.1C65,89.4,64,91.7,62.9,94
		C62.9,94.2,62.9,94.3,62.9,94.5z"/>
	<path class="st5" d="M118.3,11.4c2.7,2.9,4.4,6.2,5.2,10.1c1,5.1,0.7,10.1-1.7,14.8c-2.4,4.9-5.9,8.7-11.2,10.6
		c-2.2,0.8-4.4,1.7-6,3.6c-0.5,0.6-1.2,0.3-1.8,0.3c-0.4-0.1-0.1-0.4,0-0.6c0.6-1,1.5-1.8,2.3-2.7c1-1,1.9-2.1,2.4-3.5
		c0.8-2.1,0.7-4.1,0-6.2c-0.2-0.7-0.6-1.4-1.4-1.4c-0.8,0-1.1,0.6-1.3,1.3c-0.8,2.7-2.7,4.7-4.8,6.4c-1.6,1.3-2.6,3.1-2.9,5.2
		c0-0.5-0.2-1-0.1-1.6c0.5-4.2,2.4-7.8,5.6-10.5c3.3-2.9,6.7-5.7,9.5-9.2C115.9,23.3,118.3,17.8,118.3,11.4z"/>
	<path class="st5" d="M87.4,10.3c2.2,2.4,3.6,5.2,4.6,8.2c1.2,3.8,1.3,7.6,1.2,11.6c-0.2,4.8-1.4,9.5-1.4,14.3c0,0.4,0,0.8-0.1,1.2
		c-0.5-0.9-0.6-1.8-0.6-2.8c-0.1-1.8-0.1-3.6-0.2-5.4c0-0.4-0.1-0.8-0.5-1c-0.4-0.2-0.9-0.2-1.2,0.2c-1.1,1.5-2.4,2.9-2.7,4.9
		c-0.1,1-0.1,1.9,0.1,3.2c-0.7-0.7-1.1-1.2-1.6-1.8c0-0.2,0-0.4-0.1-0.6c-0.8-2.9-1.3-5.9-1.3-9c0-3.2,0.6-6.3,1.3-9.4
		C85.9,19.3,87.6,15,87.4,10.3z"/>
	<path class="st1" d="M146.6,131.6c-0.4,0.4-0.8,0.8-1.2,1.1c-1.9,1.4-4,1.5-6,0.4c-1.8-1-2.9-2.6-2.9-4.8c-0.1-3.3,1.5-5.7,3.9-7.7
		c0.7-0.6,1.4-1.1,2.2-1.7c1-0.8,1.5-1.8,1.9-2.9c0.5,1.7,0.6,3.4,0.8,5.1C145.8,124.6,146.3,128.1,146.6,131.6z"/>
	<path class="st3" d="M118.3,11.4c0,6.4-2.4,11.8-6.3,16.8c-2.8,3.5-6.2,6.3-9.5,9.2c-3.2,2.8-5.1,6.3-5.6,10.5
		c-0.1,0.5,0.1,1,0.1,1.6c0,0.1,0,0.3,0,0.4c-0.1,0.4,0.4,0.9-0.1,1c-0.5,0.1-1.3,0.4-1.7-0.3c0.2-0.4,0.3-0.9,0.3-1.3
		c0.3-4.2,1.9-7.8,4.6-11c2.1-2.5,4.2-4.9,6.3-7.3c0.3-0.3,0.6-0.6,0.2-1c5-4.1,8.4-9.1,9-15.7c0.1-1.3,0.3-2.6,0.4-3.9
		c0-0.2-0.1-0.5,0.2-0.6c0.2-0.1,0.4,0.2,0.5,0.3C117.3,10.4,117.9,10.8,118.3,11.4z"/>
	<path class="st3" d="M87.4,10.3c0.2,4.7-1.5,9.1-2.5,13.5c-0.7,3.1-1.4,6.2-1.3,9.4c0,3,0.6,6,1.3,9c0.1,0.2,0.1,0.4,0.1,0.6
		c-0.8-0.7-1.4-1.6-2-2.5c0,0,0-0.1,0-0.1c0,0-0.1-0.1-0.1-0.1c0,0,0,0,0,0c0-0.6-0.2-1.2-0.3-1.8c-1.2-4.1-1.4-8.2-1-12.4
		c0.1-1,0.2-2-0.1-2.9c0.2-1,0.7-1.9,1.1-2.8c1.5-3.5,2.6-7.2,2.9-11c0-0.3,0.1-0.7,0.2-1.2C86.3,8.8,86.9,9.5,87.4,10.3z"/>
	<path class="st6" d="M109.7,155.3c0.3-3.2,0.6-6.4,0.9-9.6c0.1-0.5,0-1.3,0.7-1.3c0.7,0,0.7,0.8,0.7,1.3c0.2,2.5,0.1,5.1,0,7.6
		c-0.2,4.3-0.5,8.7-1,13c-0.3,2.8-1,5.5-2,8.1c0.4-4.4,0.7-8.9,0.9-13.3C110,159.2,110.1,157.3,109.7,155.3z"/>
	<path class="st6" d="M137,147.3c0.2-2,0.5-3.9,0.7-5.9c0.1-0.5,0.1-1.3,0.7-1.3c0.7,0,0.6,0.9,0.7,1.4c0.2,2.6,0.1,5.2-0.2,7.9
		c-0.4,4.6-0.8,9.2-1.5,13.8c-0.4,2.6-1.2,5.1-2.4,7.5c1-6.6,1.7-13.1,2.1-19.7C137.4,149.7,137.5,148.5,137,147.3z"/>
	<path class="st6" d="M123.4,152.2c0.3-1.8,0.5-3.7,0.8-5.5c0.1-0.9,0.3-1.8,0.6-2.6c0.1-0.3,0.2-0.8,0.7-0.7
		c0.4,0.1,0.4,0.5,0.4,0.8c0.2,1.5,0,3.1-0.1,4.6c-0.4,6.1-1.2,12.2-2.7,18.2c-0.5,1.8-1,3.6-1.6,5.3c0.5-3.7,0.9-7.5,1.4-11.2
		C123.2,158.1,123.6,155.2,123.4,152.2z"/>
	<path class="st6" d="M78.4,171.2c-1.1-2.8-1.9-5.7-2.3-8.7c-0.9-6.1-1.5-12.2-1.7-18.4c0-1.3-0.1-2.5,0-3.8c0-0.2-0.1-0.6,0.2-0.6
		c0.4-0.1,0.4,0.3,0.5,0.6c0.2,0.7,0.3,1.4,0.4,2.1c0.4,3,0.8,5.9,1.2,8.9c0,0.2,0.1,0.3,0.1,0.4c-0.4,0.9-0.4,1.9-0.3,2.9
		c0.4,5.3,1.2,10.6,1.8,15.9C78.4,170.7,78.4,170.9,78.4,171.2z"/>
	<path class="st6" d="M106.6,29.7c0.4,0.4,0,0.7-0.2,1c-2.1,2.5-4.2,4.9-6.3,7.3c-2.7,3.2-4.3,6.8-4.6,11c0,0.5-0.1,0.9-0.3,1.3
		c-1.4-2.5-1.5-5-0.5-7.6c0.9-2.5,2.4-4.5,4.2-6.3C101.3,34,104.1,32,106.6,29.7z"/>
	<path class="st6" d="M90.6,170.4c-0.5-1.2-0.7-2.4-0.9-3.7c-1.3-6.5-2.1-13-2.2-19.5c0-0.7,0-1.4,0-2c0-0.2,0.1-0.5,0.4-0.6
		c0.3,0,0.4,0.2,0.5,0.5c0.5,1.2,0.5,2.4,0.7,3.6c0.3,2,0.5,4,0.8,6c0,0.2,0.1,0.4,0.2,0.6C89.8,160.4,90.3,165.4,90.6,170.4z"/>
	<path class="st6" d="M64.4,167.6c-1-2.8-1.6-5.7-2.1-8.6c-0.9-5.1-1.2-10.3-1.2-15.5c0-0.4-0.2-1.2,0.4-1.2c0.6,0,0.5,0.7,0.5,1.2
		c0.2,1.4,0.3,2.8,0.7,4.2c0,6.4,0.9,12.7,1.6,19.1C64.3,167.1,64.3,167.3,64.4,167.6z"/>
	<path class="st7" d="M156.3,140.4c-0.1-1.7-0.6-3.2-1.7-4.5c-0.3-0.4-0.3-0.5-0.2-0.8c0,0,0.1,0,0.1,0c0,0-0.1,0-0.1,0
		c0-0.8,0.4-0.5,0.7-0.2c0.6,0.5,1.3,1,1.9,1.5c0.3,0.2,0.5,0.4,0.9,0.4l0,0.1l0,0l-0.1,0c-0.3-0.8-0.9-1.3-1.4-2
		c-0.3-0.4-0.3-0.6,0.3-0.6c0.7,0,1.4,0,2.1,0c0.5,0.6,1.2,1,1.4,1.8c-0.5,1.1-0.5,2.3,0,3.4c-0.1,0.5-0.5,0.8-0.8,1.2
		c-0.7-0.1-1.3,0.2-1.9,0.4C157.1,141,156.7,140.7,156.3,140.4z"/>
	<path class="st7" d="M42.6,141.2c-0.8-0.3-1.6-0.8-2.5-0.6c-0.3-0.3-0.4-0.7-0.5-1.2c0.7-1,0.7-2.1,0.2-3.2c0.5-0.7,1.1-1.4,1.8-2
		c0.8-0.1,1.6,0.1,2.5-0.3c-0.6,1.1-1.5,1.9-1.8,2.9c-0.1,0-0.2,0-0.2,0.1c0,0,0,0,0,0.1c0.1,0,0.1-0.1,0.2-0.1
		c1.1-0.4,1.8-1.3,2.7-1.9c0.2-0.1,0.3-0.5,0.6-0.4c0.4,0.2-0.5,0.7,0.1,0.9c0,0,0,0,0,0c-0.3,0.8-1,1.4-1.3,2.3
		c-0.4,0.9-0.7,1.8-0.6,2.8C43.4,140.6,43.2,141.1,42.6,141.2z"/>
	<path class="st7" d="M106.1,39.4c0.3,2.3,0.1,4.2-1.5,5.7c-1.1,1.1-2.3,2.1-3.3,3.4c-0.4,0.5-0.8,1-0.9,1.7
		c-0.1,0.9-0.8,0.5-1.3,0.6c-0.6,0.1-0.5-0.4-0.5-0.8c0-1.8,0.9-3.2,2.2-4.4c1.5-1.3,3.1-2.5,4.2-4.2
		C105.4,40.8,105.7,40.2,106.1,39.4z"/>
	<path class="st8" d="M120.5,192.1c-2.1-0.3-4.1-0.6-6.2-0.9c-0.3,0-0.5-0.1-0.5-0.5c0-1,0-2,0-3.1c0.4,0.6,0.3,1.3,0.7,1.9
		c0.4-0.5,0.1-1.2,0.4-1.8c0.5,0.4,0.3,1,0.5,1.6c0.5-1.1,0.3-2.2,0.8-3.3c0.2,1.2,0.3,2.2,0.6,3.5c0.5-1.3,0.3-2.4,0.8-3.7
		c0.1,1,0.1,1.6,0.1,2.3c0.1,0,0.1,0,0.2,0c0.2-0.8,0.3-1.6,0.5-2.4c0.1,0.9,0.4,1.8,0.2,2.7c-0.2,0.8,0.3,1.3,1.2,1.5
		c0.4,0.1,0.8-0.1,1.2,0.2c0.3,0.2,0.5,0.4,0.8,0.7c0.2,0.1,0.5,0.2,0.4,0.5c-0.1,0.3-0.4,0.3-0.6,0.4
		C121.2,191.7,120.7,191.7,120.5,192.1z"/>
	<path class="st8" d="M79.7,189.9c1.3-0.1,2-0.6,1.8-1.4c-0.2-0.6-0.1-1.2-0.1-1.8c0-0.3,0.1-0.7,0.2-1c0.3,0.8,0.2,1.6,0.6,2.4
		c0.2-0.7-0.1-1.4,0.4-2c0.2,1.1,0.3,2.1,0.5,3.3c0.5-1.1,0.4-2.1,0.8-3.3c0.2,1.2,0.4,2.1,0.6,3.1c0.5-0.7,0.2-1.5,0.6-2.1
		c0.1,0.8,0.2,1.5,0.3,2.4c0.6-0.7,0.3-1.6,0.8-2.2c0.1,1.2-0.2,2.3-0.1,3.5c0,0.3-0.1,0.4-0.4,0.5c-2.2,0.3-4.3,0.6-6.5,0.9
		c-0.4-0.2-0.8-0.3-1.2-0.5C78.4,190.9,79.6,190.9,79.7,189.9z"/>
	<path class="st6" d="M81.4,23c0.4,1,0.2,2,0.1,2.9c-0.4,4.2-0.2,8.3,1,12.4c0.2,0.6,0.4,1.2,0.3,1.8c-2.3-3.2-3.2-6.8-3-10.7
		C79.9,27.2,80.5,25,81.4,23z"/>
	<path class="st9" d="M159.6,140.7c0.3-0.4,0.7-0.7,0.8-1.2c1.1,0.7,2.1,1.4,3.2,2.2c0.8,0.6,1.3,1.4,1,2.4c-0.1,0.5-0.4,0.9-1,1
		c-0.6,0.1-0.7-0.4-0.9-0.7c-0.3-0.5-0.6-1.1-0.9-1.6C161.2,141.8,160.5,141.1,159.6,140.7z"/>
	<path class="st9" d="M39.6,139.5c0.1,0.4,0.2,0.8,0.5,1.2c-1.3,1-2,2.5-2.8,3.8c-0.5,0.9-1.1,0.8-1.6-0.1c-0.4-0.8-0.3-1.5,0.2-2.2
		c0.5-0.7,1.2-1.1,1.9-1.5C38.4,140.3,39,139.9,39.6,139.5z"/>
	<path class="st9" d="M41.5,134.2c-0.7,0.6-1.2,1.3-1.8,2c-0.9-0.9-1.7-1-2.9-0.4c-0.2,0.1-0.5,0.3-0.7,0.4c-0.3,0.1-0.6,0.6-1,0.2
		c-0.4-0.4-0.1-0.8,0.2-1.2c0.8-1.1,2-1.4,3.3-1.4C39.6,134,40.5,134.1,41.5,134.2z"/>
	<path class="st9" d="M160.3,136c-0.3-0.8-0.9-1.2-1.4-1.8c0.1,0,0.2-0.1,0.3-0.1c0.1,0,0.2,0,0.3-0.1c1,0,2-0.3,3-0.1
		c0.9,0.2,1.7,0.6,2.3,1.4c0.2,0.3,0.4,0.7,0.1,1c-0.3,0.3-0.6,0-0.9-0.2c-0.6-0.3-1.2-0.7-1.9-0.8
		C161.3,135.4,160.8,135.8,160.3,136z"/>
	<path class="st5" d="M97.7,55.3c1.7-0.7,3.3-0.3,5-0.1c0.5,0.1,1,0,1.4,0.4c-2.1,1.1-4.2,0.9-6.4,0.6
		C97.7,55.9,97.7,55.6,97.7,55.3z"/>
	<path class="st3" d="M141.4,98.1c-1.1,0-1.8-0.6-2.3-1.6c-0.3-0.7,0-1.3,0.4-1.9c0.3-0.3,0.9-0.2,1-0.8
		C140.9,95.2,141.3,96.6,141.4,98.1z"/>
	<path class="st9" d="M156.3,140.4c0.4,0.3,0.8,0.7,1.4,0.7c-0.8,1.1-0.9,2.3-0.4,3.6c0.1,0.3,0.3,0.9-0.2,1.1
		c-0.5,0.2-0.9-0.2-1.1-0.7c-0.3-0.8-0.2-1.6-0.1-2.4c0.1-0.6,0.2-1.2,0.2-1.8c0-0.1,0-0.2,0.1-0.3
		C156.2,140.4,156.3,140.4,156.3,140.4z"/>
	<path class="st9" d="M42.6,141.2c0.5-0.1,0.7-0.6,1.2-0.9c0.1,1,0.2,1.9,0.3,2.9c0.1,0.8,0.1,1.6-0.5,2.2c-0.2,0.2-0.5,0.4-0.7,0.2
		c-0.3-0.1-0.3-0.5-0.3-0.7C43.1,143.7,43,142.5,42.6,141.2z"/>
	<path class="st7" d="M89,39.7c0.1,2.3,0.2,4.5,0.8,6.7C88,45.1,87.5,40.6,89,39.7z"/>
	<path class="st3" d="M79.7,189.9c-0.2,1-1.3,0.9-1.8,1.7c0.4,0.2,0.8,0.3,1.2,0.5c-1.1,0.2-2.1,0.3-3.2,0c-0.5-0.1-0.5-0.3-0.2-0.6
		C77,190.6,78.3,190.1,79.7,189.9z"/>
	<path class="st3" d="M120.5,192.1c0.2-0.4,0.6-0.3,1-0.5c0.2-0.1,0.5-0.1,0.6-0.4c0.1-0.3-0.3-0.4-0.4-0.5
		c-0.3-0.2-0.5-0.4-0.8-0.7c1.2,0.1,2.2,0.6,3.1,1.3c0.2,0.1,0.5,0.3,0.4,0.6c-0.1,0.3-0.4,0.2-0.6,0.3
		C122.7,192.4,121.6,192.2,120.5,192.1z"/>
	<path class="st3" d="M136.7,82.3c-0.5,0.1-1.1,0.2-1.5-0.4c-0.4-0.6-0.1-1.1,0.2-1.6c0.1-0.1,0.1-0.3,0.2-0.4
		C136,80.7,136.4,81.4,136.7,82.3z"/>
	<path class="st3" d="M97.7,55.3c0,0.3,0,0.6,0,0.9c-0.7,0-1.3-0.2-1.8-0.7C96.5,55.2,97.1,55.2,97.7,55.3z"/>
	<path class="st3" d="M93.2,53.4c0.7-0.5,1.3-0.5,2.2-0.5C94.6,53.2,94.2,53.9,93.2,53.4z"/>
	<path class="st5" d="M104.8,52.9c0.8,0,1.4,0.1,1.9,0.5C106,53.9,105.5,53.4,104.8,52.9z"/>
	<path class="st8" d="M113.8,187.2C113.7,187.2,113.7,187.2,113.8,187.2C113.7,187.1,113.8,187.1,113.8,187.2
		C113.8,187.1,113.8,187.2,113.8,187.2z"/>
	<path class="st7" d="M159.5,134.1c-0.1,0-0.2,0-0.3,0.1C159.3,134.1,159.4,134.1,159.5,134.1z"/>
	<path class="st7" d="M45.9,135.1C45.9,135.1,45.9,135,45.9,135.1C45.9,135,45.9,135.1,45.9,135.1C45.9,135.1,45.9,135.1,45.9,135.1
		z"/>
	<path class="st7" d="M45.9,135.1c-0.1,0.1-0.1,0.1-0.2,0.2c0,0,0,0,0,0C45.8,135.2,45.8,135.2,45.9,135.1
		C45.9,135.1,45.9,135.1,45.9,135.1z"/>
	<path class="st6" d="M82.9,40.1C82.9,40.1,83,40.2,82.9,40.1c0.1,0.1,0.1,0.1,0.1,0.2C82.9,40.2,82.9,40.2,82.9,40.1z"/>
	<path class="st7" d="M156.2,140.5c0,0.1,0,0.2-0.1,0.3C156.1,140.7,156.2,140.6,156.2,140.5z"/>
	<path class="st10" d="M92,88.3c1-0.1,2.1,0.1,2.9,0.8c1.2,1,1.1,2.8-0.2,4c-1.4,1.3-3.1,1.3-4.9,1c-0.2,0-0.4-0.1-0.5-0.1
		c-1.7-0.2-2-0.5-2.3-1.9c-0.2-1,0.3-2.3,1.3-2.9C89.4,88.5,90.6,88.2,92,88.3z"/>
	<path class="st10" d="M127.9,87.5c-2.1,0-3.7-1.4-3.7-3.4c0-1.8,1.4-3.1,3.3-3.1c2,0,3.8,1.7,3.8,3.5
		C131.2,85.7,129.7,87.7,127.9,87.5z"/>
	<path class="st0" d="M78.7,90c1.5,0,3,0.1,4.4,0.8c0.7,0.4,1.3,0.8,1,1.7c-0.2,0.7-1.2,1.3-2,1c-2.7-0.7-5.4-0.8-8.1-1
		c-0.5,0-1.2-0.1-1.3-0.6c0-0.5,0.6-0.9,1.1-1.1C75.4,90.3,77,90.1,78.7,90z"/>
	<path class="st11" d="M121.3,90c1.4,0.1,2.8,0.2,4.2,0.6c0.2,0,0.4,0.1,0.5,0.2c0.6,0.2,1.3,0.6,1.2,1.2c-0.1,0.5-0.9,0.5-1.4,0.6
		c-2.6,0.3-5.3,0.3-7.8,1c-0.9,0.3-1.9-0.2-2.1-1c-0.2-0.7,0.1-1.4,1.1-1.8C118.4,90.1,119.9,90,121.3,90z"/>
	<path class="st10" d="M67,86c0.1-1.4,0.9-2.5,1.8-3.5c1.3-0.1,2.6,0.1,3.5,1.3c0.6,0.8,0.9,1.8,0.3,2.7c-0.4,0.8-1.3,1.1-2.2,1.1
		C69.1,87.4,67.8,87.4,67,86z"/>
	<path class="st10" d="M102.2,92.5c-1.2,0-1.9-0.7-1.9-1.9c0-1,0.8-1.8,1.8-1.8c1,0,1.9,0.8,1.9,1.8C104,91.8,103.3,92.5,102.2,92.5
		z"/>
	<path class="st10" d="M136.4,91.2c0,1-0.8,1.8-1.8,1.8c-1,0-1.8-0.8-1.8-1.8c0-1,0.9-1.9,1.7-1.9C135.6,89.4,136.4,90.2,136.4,91.2
		z"/>
	<path class="st10" d="M90.1,81.7c0,0.8-0.8,1.5-1.5,1.5c-0.6,0-1.8-1.1-1.8-1.6c0-0.8,0.8-1.5,1.7-1.4
		C89.3,80.1,90.1,80.9,90.1,81.7z"/>
	<path class="st10" d="M79,81c0.8,0,1.5,0.5,1.4,1.2c0,0.7-0.6,1.2-1.4,1.2c-0.8,0-1.2-0.5-1.2-1.3C77.9,81.3,78.2,81,79,81z"/>
	<path class="st10" d="M115.5,85.2c0,0.5-0.6,1.2-1.2,1.2c-0.7,0-1.4-0.7-1.3-1.5c0.1-0.7,0.6-1,1.2-1
		C114.8,83.8,115.5,84.5,115.5,85.2z"/>
	<path class="st10" d="M78.7,75.5c0,0.7-0.5,1.1-1.1,1.1c-0.7,0-1.1-0.4-1.1-1.2c0-0.8,0.5-1.2,1.2-1.1
		C78.3,74.2,78.6,74.8,78.7,75.5z"/>
	<path class="st10" d="M123.6,75.7c0.7,0,1.2,0.4,1.3,1c0,0.6-0.2,1-0.9,1c-0.7,0-1.5-0.5-1.4-1C122.6,76,123.1,75.8,123.6,75.7z"/>
	<path class="st11" d="M139,110.9c-0.3,4.1-1.6,7.7-4.9,10.3c-1.9,1.5-4,2-6.5,1.9c-3.5-0.1-6.9-0.8-10.2-2.1
		c-1.8-0.7-3.3-1.8-4.7-3c-0.6-0.5-1.1-1.1-1.8-1.5c-0.6-0.4-0.9-0.9-0.8-1.6c0.1-2.7,0.3-5.3,1.2-7.8c0.4-1.3,1.1-2.5,2-3.5
		c3.2-3.7,7-6.3,12.1-6.6c2.6-0.2,5.1,0.3,7.1,2c3.3,2.7,5.6,6.1,6.4,10.3c0,0.2,0.1,0.4,0.1,0.5C139,110.2,139,110.5,139,110.9z
		 M125.8,121.2c1.5-0.3,3-0.2,4.5-0.6c0.9-0.3,1.7-0.6,2.5-1.2c2.7-2.3,4-5.3,3.9-8.8c-0.1-3.5-2.1-6.2-4.4-8.7
		c-1.9-2-4.3-2.8-7-2.5c-5,0.5-8.5,3.2-11.3,7.2c-0.2,0.3-0.4,0.7-0.6,1.3c5.9-3.2,10.8-2.9,13.7,0.9
		C129.5,112.1,130,116.7,125.8,121.2z M120.2,114c2.3,0,4.3-1.8,4.3-3.8c0-1.8-1.5-3.4-3.2-3.4c-2.6,0-4.4,1.6-4.4,3.8
		C117,112.5,118.5,114,120.2,114z"/>
	<path class="st11" d="M73.5,123.1c-1.6-0.1-2.9,0.2-4.1-0.2c-4.1-1.2-6.4-4.1-7.7-8c-1.7-4.9-0.1-9.1,2.9-13c1-1.3,2.1-2.4,3.4-3.4
		c2.7-1.9,5.7-2.1,8.7-1.4c5.2,1.2,9.2,4.1,11.7,8.9c1.1,2,1.2,4.3,1.5,6.6c0,0.1,0,0.2,0,0.3c0.4,1.9-0.1,3.1-1.8,4.4
		c-1.9,1.4-3.6,2.9-5.7,3.8C79.3,122.3,76.2,122.8,73.5,123.1z M74.4,121.2c-4.3-4.5-4-8.9-1.4-12.5c2.8-3.9,7.5-4.2,13.7-1.1
		c-0.2-0.6-0.4-1.2-0.8-1.6c-2.5-3.3-5.7-5.8-9.8-6.6c-2.5-0.5-5-0.3-7.1,1.4c-2,1.6-3.6,3.6-4.6,5.9c-1.9,4.2-0.9,8,1.9,11.5
		c1.1,1.4,2.6,2.2,4.3,2.5C71.7,120.9,73,121.1,74.4,121.2z M78.6,114.2c0.5-0.1,1.1-0.2,1.6-0.3c1.5-0.3,2.4-1.2,2.8-2.6
		c0.3-1.1-0.6-3-1.6-3.8c-1.2-0.9-2.5-0.9-3.8-0.2c-0.9,0.5-1.4,1.4-1.9,2.2C74.4,111.3,76.3,114.4,78.6,114.2z"/>
	<path class="st12" d="M100,136.6c-3.4,0-6.5-0.8-9.1-3.2c-1.8-1.6-2.5-3.6-2.2-6c0.1-0.6,0.1-1.1-0.6-1.2c-0.3-0.1-0.6-0.4-0.5-0.8
		c0.1-0.4,0.5-0.5,0.9-0.4c1,0.2,2.1,0.4,3.1,0.5c5.6,0.5,11.3,0.5,16.9,0c0.9-0.1,1.9-0.3,2.8-0.4c0.4-0.1,0.9-0.1,1.1,0.4
		c0.1,0.5-0.2,0.7-0.6,0.8c-0.9,0.3-0.5,1-0.4,1.5c0.3,2.4-0.7,4.2-2.4,5.8c-2.2,2-4.9,2.8-7.8,3C100.8,136.6,100.4,136.6,100,136.6
		z M93.8,127.6c0.2,1.5,0.7,2,2.2,1.9c1,0,0.7-1.2,1.3-1.9C95.9,127.6,94.9,127.6,93.8,127.6z M102.9,127.6c0.3,1.2,0.6,1.8,0.9,1.9
		c0.8,0.3,2.4-0.8,2.4-1.7c0-0.3-0.1-0.3-0.4-0.3C104.9,127.5,103.9,127.6,102.9,127.6z"/>
	<path class="st13" d="M55.8,135.4c0.2-2.4,0.5-4.8,0.7-7.2c0.2-2,0.5-4,0.7-6c1.9,0.3,3.4,1.4,4.5,2.9c1.2,1.6,2.6,2.8,4.1,4.1
		c0.6,0.6,1.5,0.8,2.3,1.1c1,0.4,1.6,1,1.7,2.1c0.1,1.1-0.5,1.8-1.4,2.2C64.3,136.6,60.1,137.5,55.8,135.4z"/>
	<path class="st13" d="M121.8,130.3c1.7,0.1,2.9,1.4,3.7,3.2c0.1,0.3,0.2,0.6,0.5,0.8c0.8,0.4,1.8,0.9,1.5,2.1
		c-0.3,1.2-1.3,1.7-2.4,1.9c-2.8,0.6-6.3-2.3-6.4-5.2C118.6,131.4,119.8,130.3,121.8,130.3z"/>
	<path class="st13" d="M73.8,129.6c-0.1-1.2,0.4-2.1,1.5-2.6c1.3-0.6,2.6-0.5,3.6,0.4c1.7,1.3,1.9,3.3,1.9,5.3
		c0,0.9-0.9,1.5-1.9,1.6C76.7,134.3,73.5,132.1,73.8,129.6z"/>
	<path class="st0" d="M154.4,135.1C154.4,135.1,154.4,135.1,154.4,135.1C154.4,135.1,154.4,135.1,154.4,135.1
		C154.4,135.1,154.4,135.1,154.4,135.1z"/>
	<polygon class="st0" points="157.9,136.8 158,136.8 157.9,136.8 	"/>
	<path class="st0" d="M42.2,136.8c-0.1,0-0.1,0.1-0.2,0.1c0,0,0,0,0-0.1C42,136.8,42.1,136.8,42.2,136.8
		C42.2,136.8,42.2,136.8,42.2,136.8z"/>
	<path class="st14" d="M125.8,121.2c4.2-4.5,3.8-9.1,1.1-12.5c-2.9-3.8-7.8-4.1-13.7-0.9c0.2-0.5,0.4-0.9,0.6-1.3
		c2.8-4,6.4-6.7,11.3-7.2c2.7-0.3,5.1,0.5,7,2.5c2.4,2.5,4.3,5.2,4.4,8.7c0.1,3.5-1.2,6.5-3.9,8.8c-0.7,0.6-1.6,1-2.5,1.2
		C128.8,121,127.2,120.9,125.8,121.2z"/>
	<path class="st14" d="M120.2,114c-1.8,0-3.2-1.5-3.3-3.4c0-2.2,1.7-3.8,4.4-3.8c1.6,0,3.2,1.6,3.2,3.4
		C124.5,112.2,122.6,114,120.2,114z"/>
	<path class="st14" d="M74.4,121.2c-1.4-0.2-2.7-0.3-3.9-0.5c-1.7-0.3-3.2-1.1-4.3-2.5c-2.8-3.5-3.7-7.2-1.9-11.5
		c1.1-2.3,2.6-4.3,4.6-5.9c2.1-1.7,4.6-1.9,7.1-1.4c4.2,0.8,7.3,3.3,9.8,6.6c0.3,0.5,0.6,1,0.8,1.6c-6.2-3.1-10.8-2.8-13.7,1.1
		C70.4,112.3,70.1,116.7,74.4,121.2z"/>
	<path class="st14" d="M78.6,114.2c-2.3,0.2-4.2-2.9-2.9-4.7c0.6-0.8,1-1.6,1.9-2.2c1.3-0.8,2.5-0.8,3.8,0.2c1,0.8,1.9,2.7,1.6,3.8
		c-0.4,1.4-1.3,2.4-2.8,2.6C79.7,114,79.2,114.1,78.6,114.2z"/>
	<path class="st14" d="M93.8,127.6c1.1,0,2.2,0,3.4,0c-0.5,0.7-0.3,1.9-1.3,1.9C94.4,129.6,94,129,93.8,127.6z"/>
	<path class="st14" d="M102.9,127.6c1,0,2-0.1,2.9-0.1c0.3,0,0.4,0,0.4,0.3c0,0.9-1.6,2.1-2.4,1.7
		C103.5,129.4,103.2,128.8,102.9,127.6z"/>
</g>
</svg>
