<?xml version="1.0" encoding="utf-8"?>
<!-- Generator: Adobe Illustrator 27.9.0, SVG Export Plug-In . SVG Version: 6.00 Build 0)  -->
<svg version="1.1" id="Layer_1" xmlns="http://www.w3.org/2000/svg" xmlns:xlink="http://www.w3.org/1999/xlink" x="0px" y="0px"
	 viewBox="0 0 200 200" style="enable-background:new 0 0 200 200;" xml:space="preserve">
<style type="text/css">
	.st0{fill:#4E3D83;}
	.st1{fill:#01BCD5;}
	.st2{fill:#FCA20B;}
	.st3{fill:#FA6004;}
	.st4{fill:#A2E1ED;}
	.st5{fill:#ABE7F0;}
	.st6{fill:#524385;}
	.st7{fill:#493882;}
</style>
<g>
	<path class="st0" d="M99.7,45.7c0.4-0.6,0.8-1.2,1.3-1.7c1.3-1.7,2.9-2.7,5-3.1c2.6-0.6,5.1-0.2,7.7,0.3c5.3,0.9,10.6,1.9,15.9,2.8
		c0.9,0.2,1.7-0.1,2.4-0.6c3.6-2.4,7.2-4.7,11.2-6.4c5.6-2.3,11.4-3.8,17.5-3.9c1.2,0,2.4,0,3.7,0.1c1.9,0.4,3.8,0.9,5.5,1.8
		c0.9,0.5,1.8,0.9,2.7,1.4c0.8,0.6,1.6,1.2,2.3,1.9c2.5,2,4.4,4.5,5.5,7.6c1.7,4.6,2.4,9.3,2.3,14.1c-0.1,3.8-0.5,7.6-0.9,11.4
		c-0.4,3-0.7,6-1,9c-0.4,4.4-0.8,8.7-1.2,13.1c-0.2,2.5-0.4,5-0.7,7.5c-0.1,0.6,0,1.1,0.6,1.4c2,1.1,3.1,3,3.8,5.1
		c0.9,2.8,1.5,5.7,1.8,8.6c0.4,3.2,0.6,6.4,1,9.6c1.2,9,3.3,17.8,6.1,26.4c0.8,2.3,1.5,4.7,2.1,7c0.4,1.4,0.7,2.9,0.7,4.5
		c0,1.6-0.6,2.8-2.1,3.5c-0.7,0.3-1.2,0.7-1.7,1.3c-0.9,1-2.1,1.5-3.4,1.6c-1,0.1-2,0.2-3-0.1c-0.6-0.2-1.1,0-1.6,0.3
		c-1.4,1.1-2.9,1.4-4.6,1.4c-0.3,0-0.6,0-0.9,0c-2.1,0.4-4.2,0.7-6.3,1.2c-3.4,0.7-5.5,0.4-7.4-3.3c-0.6-1.2-1.2-1.8-2.6-1.3
		c-0.9,0.3-2,0.2-3,0.3c-2.1,0.2-4.1,0.3-6.2,0.5c-2.3,0.2-4.6,0.4-6.9,0.4c-4.3,0-4-0.5-5.7-3.1c-0.8-1.3-1.6-2.5-2.4-3.8
		c-0.3-0.5-0.7-0.9-1-1.4c-1.2-1.3-2.8-1.1-3.7,0.5c-0.4,0.8-0.7,1.6-0.7,2.5c0,0.4,0,0.7-0.1,1.1c-0.1,0.5-0.4,0.7-0.8,0.9
		c-0.2,0.1-0.4,0.1-0.6,0.1c-1.2,0.1-2.4,0.2-3.6,0.7c-0.3,1.1-0.6,2.2-0.8,3.3c-0.6,2.8-1.5,5.5-2.9,8c-1,0.7-2.2,0.9-3.4,0.9
		c-0.8,0-1.7-0.1-2.5-0.2c-0.6-0.1-1.1-0.1-1.7,0.1c-2,0.9-4.1,1-6.3,0.9c-0.9-0.4-1.7-0.5-2.7-0.4c-3.6,0.5-7.2,0.5-10.9,0.2
		c-1.7-0.2-3.4-0.6-4.8-1.5c-0.7-0.8-1.4-1.6-1.9-2.6c-0.3-0.5-0.6-0.5-1.1-0.3c-2.5,1.2-5,2.2-7.7,2.7c-5.7,1.2-11.4,2.4-17.1,3.5
		c-5.4,1-10.9,1.6-16.4,2.1c-6.4,0.5-12.4-0.6-18.4-2.6c-2.9-1-5.5-2.5-8.1-4.1c-1.2-0.8-2.4-1.6-3.6-2.4c-3-2-5.4-4.7-7.1-7.9
		c-0.9-1.6-1.5-3.2-1.7-5.1c-0.2-1.9-0.5-3.8-0.7-5.8c-0.8-6.2,2.4-11.8,7.8-14.6c0.8-0.4,1.7-0.8,2.6-1c2.6-0.5,4.9,0,6.7,1.9
		c2.1,2.1,3.5,4.5,3.5,7.6c0,1.7-0.6,3.2-1.4,4.7c-0.5,1-1.1,1.9-1.6,2.8c-0.4,0.7-0.6,1.4-0.7,2.2c0,0.7,0.1,1.4,0.6,2
		c0.8,1,1.7,1.9,2.9,2.5c0.9,0.5,1.9,0.7,2.9,0.5c5.3-0.8,10.6-1.8,15.7-3.8c4.1-1.6,7.7-3.9,11-6.7c0.6-0.5,0.7-1,0.6-1.7
		c-0.4-3.7-0.7-7.4-0.3-11.2c0.2-1.5,0.4-3,0.9-4.4c1-3.1,3.1-5.1,6.4-5.8c1-0.2,2-0.4,3-0.4c3.2-0.2,6.5-0.4,9.7-0.4
		c0.9,0,1.5-0.3,1.9-1.1c1.1-1.9,2.2-3.7,3.3-5.6c0.3-0.5,0.4-0.9-0.1-1.3c-0.2-0.2-0.4-0.4-0.5-0.7c-2.4-4.6-4.8-9.2-5.4-14.4
		c-0.2-1.5-0.3-3-0.2-4.5c0.3-3.5,2-6.1,5.3-7.5c1.9-0.8,3.8-1.2,5.8-1.5c2.1-0.3,4.1-0.5,6.2-0.8c0.6-0.1,1.3-0.3,1.9-0.3
		c1.2,0,1.9-0.7,2.4-1.7c1.5-3.1,3.1-6.1,4.8-9.2c0.5-0.9,0.7-1.8,0.4-2.9c-0.3-1-0.4-2.1-0.5-3.2c-0.2-4.5-0.5-9-1.4-13.4
		c-0.6-2.7-1.1-5.3-1.3-8C99.2,51,99.1,48.3,99.7,45.7z M127.2,50.5L127.2,50.5c-0.3,0-0.4,0.1-0.4,0.4l0,0c-0.3,0-0.5,0.2-0.5,0.5
		l0,0c-0.4,0.1-0.5,0.3-0.5,0.7c-1,0.4-1.6,1.1-2.3,1.9c-2.6,2.8-5.1,5.8-7.3,9c-1.4,2-2.9,3.9-4,6.1c-1.2,1.2-2,2.7-2.9,4.2
		c-4.8,8.2-9.2,16.6-13,25.3c-0.2,0.5-0.6,1-0.5,1.6c-0.4,0.3-0.5,0.8-0.5,1.3l0,0c-0.8,0.9-1.2,1.9-1.3,3l0,0
		c-0.9,1.2-1.4,2.5-1.7,3.9l0,0c-0.6,0.7-0.9,1.6-1.2,2.4c-0.6,1.2-1.3,2.3-1.6,3.6c-0.6,0.6-0.8,1.3-1.2,2
		c-4.4,9.1-9.5,17.8-16.3,25.4c-0.6,0.6-1.2,1.2-1.5,2.1c-0.7,0.3-1.1,0.9-1.6,1.4c-2.1,2.4-4.3,4.6-6.7,6.7
		c-0.6,0.5-1.1,1.1-1.6,1.7c-0.4,0.4-0.9,0.7-1.3,1.1c-4.3,3.6-8.9,6.7-14.2,8.6c-4.7,1.6-9.5,2.6-14.4,3.3
		c-1.9,0.3-3.8,0.2-5.8,0.4c-1.1-0.1-2.3-0.1-3.4-0.3c-3.7-0.6-7.1-2-10.4-3.9c-0.2-0.1-0.5-0.3-0.7-0.4c-0.1,0-0.3,0-0.4,0
		c-0.1,0.1-0.2,0.2-0.1,0.4c0,0.2,0,0.4,0.1,0.6c1.4,3,3.1,5.8,5.8,7.8c1.9,1.4,3.8,2.8,5.8,4c6.2,3.8,12.9,5.7,20.1,6
		c3.2,0.1,6.4-0.4,9.6-0.5c0.2,0,0.4-0.1,0.6-0.1c2.6-0.4,5.2-0.7,7.9-1.1c2.8-0.5,5.7-0.8,8.4-1.7c0.6,0,1.2,0,1.7-0.1
		c3-0.6,6-1.1,9.1-1.7c2.5-0.5,5-1.3,7.3-2.4c0.4-0.2,0.7-0.6,0.4-1c-0.8-1.5-1.3-3-2.3-4.3c-0.1-0.9-0.6-1.6-0.9-2.4
		c-0.2-0.6-0.7-1.1-0.5-1.8l0,0c0.2,0.1,0.4,0.1,0.6,0.3c2.3,2.1,4.2,4.6,5.4,7.5c0.4,0.9,0.8,1.8,1.4,2.6c0.1,0.3,0.1,0.7,0.5,0.8
		l0,0c0.1,0.3,0.2,0.6,0.3,0.8c0.7,0.9,1.7,1.3,2.8,1.5c3.8,0.7,7.7,0.4,11.5,0.1c0.4,0,0.7-0.2,0.9-0.5c0.2-1.3,0.4-2.5,1.3-3.6
		c1.2-1.7,2.9-2.1,4.8-1.2c0.5,0.2,0.9,0.7,1.5,0.7c0.5-0.4,0.6-1,0.9-1.5c1.8-2.8,4.7-3.2,7.1-0.9c0.3,0.3,0.5,0.9,1.1,0.9
		c0.3-0.1,0.3-0.5,0.4-0.7c0.7-2.4,1.2-4.9,1.1-7.4c0-1.1,0-2.2,0-3.2c0.1-2.7,0.6-5.3,1.7-7.7c2-4.5,3.8-9,5.2-13.6
		c0.7-2.4,1.8-4.7,3.2-6.8c2.1-3,4.8-5.3,7.9-7.1c3.2-1.9,6.7-2.9,10.5-2.7c2.8,0.1,5,1.4,6.5,3.6c1.5,2.1,2,4.6,1.8,7.2
		c-0.2,1.8-0.5,3.7-1,5.5c-0.8,2.8-1.4,5.6-2.1,8.3c-0.6,2.2-0.8,4.5-0.7,6.8c0.1,0.8,0.2,1.5,0.6,2.2c1.2,2.1,2.3,4.3,3.6,6.4
		c1.4,2.4,2.8,4.7,4.2,7c0.9,1.4,2,1.9,3.7,1.5c1.2-0.3,2.4-0.5,3.6-0.7c1.6-0.3,1.6-0.2,1.7-1.8c0.2-3.4,3.7-6.7,7.2-5.1
		c0.6,0.3,1.1,0.2,1.5-0.4c0.4-0.5,0.8-1,1.3-1.4c1.3-1.1,3.5-1,4.5,0.2c0.3,0.3,0.6,0.6,0.9,0.9c0.4,0.9,0.7,1.7,1.1,2.6
		c0,0.1,0.2,0.2,0.3,0.2c0.1,0,0.3-0.1,0.3-0.2c0.5-0.8,0.5-1.8,0.3-2.7c-0.4-2.5-1-4.9-1.8-7.3c-1.4-4.3-2.8-8.6-3.8-13
		c-1.2-5-2.4-10-2.9-15.2c-0.3-2.4-0.5-4.8-0.7-7.3c-0.3-2.6-0.6-5.3-1-7.9c-0.3-1.6-0.6-3.2-1.3-4.8c0-0.1-0.2-0.2-0.3-0.2
		c-0.1,0-0.3,0.1-0.3,0.2c-0.6,2.2-2.2,3.2-4.2,3.9c-1.8,0.6-3.6,1-5.5,1.2c-3.4,0.4-6.8,0.8-10.3,1.1c-5.9,0.5-11.7,0.2-17.5-1.3
		c-4.1-1.1-7.9-2.9-11.5-5.2c-0.6-0.4-1.2-1-2.1-1l0,0c0-0.5-0.5-0.6-0.8-0.8c-1-0.9-2.3-1.5-3.1-2.5c0-0.2,0.1-0.5,0.1-0.7
		c0.7,0.3,1.3,0.5,2,0.9c3.5,2,7.1,3.7,10.8,5.3c4.2,1.8,8.6,3.2,13.3,2.9c0.3,0,0.6,0,0.9,0c1.7,0.2,2.7-0.7,3.5-1.9
		c0.5-0.7,0.8-1.5,1-2.4c0.1-0.7,0.3-1.4,0.4-2.1c0.2-1,0.8-1.7,1.8-1.9c0.3-0.1,0.7-0.2,1-0.3c1.6-0.2,3.1-0.4,4.7-0.5
		c0.6-0.1,1.3,0,1.9,0c1.4,0.1,2.5,0.7,3.2,1.9c0.4,0.7,0.7,1.5,1.1,2.3c0.4,0.9,0.7,1.9,1.6,2.5c0.2,0.4,0.5,0.6,1,0.6
		c0.7,0,1.3-0.2,1.9-0.5c0.5-0.2,0.7-0.5,0.7-1c0-1.1,0-2.1,0.1-3.2c0-1.2,0-2.4,0.1-3.6c0.2-2.7,0.5-5.4,0.7-8.1
		c0.2-2.5,0.5-5,0.7-7.5c0.2-2.3,0.4-4.6,0.5-6.8c0.4-2.5,0.7-4.9,0.8-7.5l0-0.2c0.7-4.2,1-8.4,1-12.6c0-2.8-0.5-5.6-1.1-8.3
		c-0.2-1-0.5-2.1-1.1-3c-0.1-0.3,0-0.8-0.5-0.8l0,0c0.1-0.6-0.2-1-0.5-1.4c-2-3.3-4.8-5.7-8.2-7.4c-1.5-0.8-3.1-1.5-4.9-1.6
		c-2.4-0.2-4.9-0.3-7.3,0.1c-6.2,1-12.1,2.7-17.6,5.9c-3.5,2.1-7,4.2-10.1,6.9c-0.6,0.5-1.3,0.9-1.6,1.7l0,0
		C127.4,50,127.2,50.2,127.2,50.5z M104.6,75.5c-0.1,0.3-0.2,0.6,0.1,0.7c0.4,0.1,0.5-0.2,0.6-0.5c0-0.2,0-0.5-0.1-0.5
		C104.9,75,104.8,75.3,104.6,75.5z M71.7,138c0.3,0,0.5-0.2,0.6-0.5c2.3-2.4,4-4.7,4.3-6c-0.3,0-0.6,0-0.9,0c-2.5,0.2-5,0.3-7.5,0.5
		c-1.4,0.1-2.9,0.3-4.2,0.8c-2.2,0.8-3.6,2.3-3.9,4.6c-1.1,2-0.8,4.3-1,6.4c0,0.4,0.3,0.4,0.6,0.2c0.1-0.1,0.3-0.1,0.4-0.2
		c0.1,0.1,0.1,0.1,0.2,0.2c0.1,1.1-1.1,1.9-0.9,3.2c0.7-0.1,0.9-0.7,1.2-1.1c0.4-0.4,0.6-1.1,1.3-1.3l0,0c0.4,0.8-0.5,1.5-0.2,2.4
		c0.5-0.6,0.9-1.2,1.4-1.7c0.5-0.6,0.9-1.3,1.7-1.5c0.6,0.7-0.5,1.4-0.1,2.1c0.5,0,0.8-0.4,1-0.7c1.9-2.1,3.8-4.3,5.7-6.4
		C71.5,138.7,71.7,138.4,71.7,138L71.7,138z M89.8,107c0.3,0,0.4-0.3,0.4-0.5c0.1-0.2,0.3-0.3,0.4-0.5c1.6-3.7,3.2-7.3,4.8-11
		c0.1-0.2,0.3-0.5,0-0.9c-3.2,0.8-6.6,0.9-9.8,1.6c-1.2,0.3-2.4,0.6-3.5,1.1c-1.5,0.7-2.8,1.7-3.2,3.5c-0.8,1.4-0.8,2.9-0.7,4.4
		c0.3,2.5,0.8,4.9,1.6,7.3c0.1,0.3,0.2,0.7,0.6,0.8c0.5-0.4,0.4-1.2,1-1.5c0.5,1.6-0.7,3.2,0.3,5c0.4-1.3,0.8-2.4,1.2-3.5
		c0.1-0.3,0.2-0.7,0.7-0.6c0,0.8,0,1.7,0,2.7c0.9-1.1,0.8-2.5,2-3.4c0.3,0.8,0.1,1.4,0,2c-0.1,0.7-0.2,1.4-0.3,2.1
		c-0.1,0.6-0.5,1.1,0,1.8c1.5-3.2,2.9-6.3,4.4-9.4C89.8,107.6,89.8,107.3,89.8,107L89.8,107z M19.6,161.1c0.4,0.5,0.9,1,1.6,1.8
		c-0.1-0.7-0.1-1.1-0.2-1.4c-0.3-1-0.1-2,0-3c0.2-1.1,0.7-2,1.2-2.9c0.9-1.5,1.8-2.9,2.4-4.5c0.6-1.6,0.6-3.2-0.4-4.7
		c-0.4-1.7-1.6-2.8-2.9-3.8c-0.6-0.5-1.4-0.7-2.2-0.8c-1.1-0.1-2.2,0-3.1,0.5c-3.5,1.7-6.1,4.2-6.9,8.1c-0.7,1-0.4,2.2-0.5,3.3
		c-0.1,3.3,1.5,5.6,4.2,7.2c1.1,0.6,2.3,1.1,3.5,1.7c0.3,0.2,0.7,0.4,1,0.2c0.5-0.3,0-0.8,0-1.2c0-0.3-0.1-0.5,0.2-0.7
		c0.8,0.3,0.9,1.4,1.8,1.7c0-0.5-0.1-0.9-0.1-1.3C19.4,161.3,19.5,161.2,19.6,161.1z M106.6,62.1L106.6,62.1
		c0.3,0.7,0.1,1.4-0.1,2.1c-0.3,1.1-0.7,2.2-1.1,3.3c-0.4,1.1-0.7,2.2-1.1,3.3c0,0.1,0,0.3,0.1,0.4c0.2,0.2,0.4,0,0.5-0.2
		c0.7-1.7,1.4-3.3,2.1-5c0.5-1.1,1.1-2.1,2.1-2.9c0.3,0.4,0.2,0.8,0.1,1.1c-0.4,1.3-0.9,2.6-1.5,3.8c-0.8,1.8-1.5,3.6-2.2,5.4
		c-0.3,0.8-0.2,1.3,0.1,1.3c0.5,0,0.6-0.5,0.9-0.9c2.8-4.5,5.6-9,8.8-13.3c1.2-1.6,2.4-3.2,3.6-4.8c0.2-0.2,0.5-0.3,0.6-0.5
		c2.7-3.1,5.5-6,8.6-8.7c0.2-0.1,0.2-0.3,0.4-0.5c-0.4-0.5-1-0.5-1.6-0.6c-4.4-0.7-8.9-1.4-13.3-2.1c-2.3-0.3-4.5-0.7-6.8-0.2
		c-1.7,0.4-3.1,1.1-3.9,2.7c-1.1,0.9-1.1,2.2-1.2,3.5c-0.1,4,0.5,8,1.5,11.9c0,0.2,0.2,0.3,0.2,0.5c0.5-0.2,0.4-1,1.1-1
		c0.1,0.6,0,1.1-0.1,1.7c-0.2,0.9-0.4,1.8-0.5,2.7c0,0.4-0.1,0.9,0.6,1c0.4-1.1,0.9-2.2,1.6-3.3C106,62.5,106.1,62.1,106.6,62.1z
		 M130.7,148.2c-0.3,0-0.3,0.2-0.3,0.4c-0.6,1.3-1.2,2.6-1.8,3.9c-0.5,1-0.6,2.1-0.5,3.1c0.2,2.4,1.3,3.4,3.7,3.4
		c3.5,0,7-0.4,10.5-1.1c3.1-0.6,6.2-1.4,9-2.8c2.3-1.1,3.8-2.9,4.4-5.5c0.8-3.9,1.8-7.8,2.8-11.7c0.2-0.6,0.3-1.3,0.3-1.9l0-0.1
		c0.3-0.3,0.4-0.7,0.3-1.1c0.6-1.9,0.6-3.8,0-5.7c-0.8-2.8-2.9-4.8-5.5-5c-1.4-0.1-2.8-0.1-4.3,0.2c-4.1,0.8-7.6,3-10.6,5.7
		c-3,2.7-4.8,6.2-5.7,10.1c-0.6,2.3-1.2,4.6-2.1,6.8C130.7,147.4,130.7,147.8,130.7,148.2L130.7,148.2z M160.2,110.4
		c1.9,0,3.8-0.4,5.8-0.6c1.5-0.1,3.1-0.2,4.6-0.6c-0.2-1.7-1.4-2.9-1.9-4.4c-0.4-1.1-1.2-1.5-2.4-1.5c-2,0-4,0.4-6,0.6
		c-0.5,0-0.8,0.3-0.8,0.8c-0.3,1.7-0.7,3.3-1.6,4.9c-0.3,0.5,0,0.8,0.6,0.8C159.1,110.5,159.6,110.4,160.2,110.4z M119.5,177.2
		c0.2,0,0.8-0.1,1.4-0.2c0.3,0,0.6-0.3,0.5-0.6c-0.1-1.1,0.1-2.3-0.2-3.4c-0.3-1.1-1.1-1.8-2.2-2.2c-0.4-0.1-0.8-0.1-1.2,0.1
		c-1.7,0.8-2.3,2.5-1.8,5.3c0.2,1.4,1.8,0.8,2.7,1C118.9,177.2,118.9,177.2,119.5,177.2z M187.1,168.2c1.2,0,1.8-0.1,2.4-0.6
		c0.4-0.3,0.6-0.6,0.6-1.1c-0.2-1.5-0.8-2.9-1.9-4c-0.6-0.6-1.3-0.6-1.9-0.1c-0.7,0.5-1.1,1.2-1.3,1.9c-0.1,0.5-0.1,1-0.3,1.5
		c-0.4,1.9-0.1,2.2,1.9,2.4C186.8,168.2,187,168.2,187.1,168.2z M179.1,169.8c0.3,0,0.9-0.1,1.5-0.2c2.7-0.7,2.7-1.7,1.7-3.9
		c-0.4-0.8-1.1-1.1-1.9-1.1c-1.8-0.1-3.5,2.3-3.2,4.1C177.4,169.5,177.8,169.8,179.1,169.8z M111.1,178c0.5,0,0.9,0,1.2-0.1
		c1.6-0.3,2-1,1.2-2.5c-0.1-0.3-0.3-0.5-0.5-0.7c-0.8-0.8-1.6-1.5-2.8-1.3c-1.2,0.3-1.8,1.3-2.1,2.5c-0.3,1.2,0,1.6,1.3,1.9
		C110.2,177.9,110.7,178,111.1,178z"/>
	<path class="st1" d="M190.5,162.1c-0.3-0.3-0.7-0.6-0.9-0.9c-1-1.2-3.2-1.3-4.5-0.2c-0.5,0.4-0.9,0.9-1.3,1.4
		c-0.4,0.6-0.9,0.7-1.5,0.4c-3.5-1.6-7,1.7-7.2,5.1c-0.1,1.6-0.1,1.6-1.7,1.8c-1.2,0.2-2.4,0.4-3.6,0.7c-1.6,0.4-2.8-0.1-3.7-1.5
		c-1.4-2.3-2.9-4.6-4.2-7c-1.2-2.1-2.3-4.3-3.6-6.4c-0.4-0.7-0.6-1.4-0.6-2.2c-0.2-2.3,0.1-4.6,0.7-6.8c0.7-2.8,1.3-5.6,2.1-8.3
		c0.5-1.8,0.8-3.6,1-5.5c0.2-2.6-0.3-5-1.8-7.2c-1.6-2.3-3.8-3.5-6.5-3.6c-3.8-0.2-7.2,0.8-10.5,2.7c-3.1,1.9-5.8,4.1-7.9,7.1
		c-1.5,2.1-2.5,4.4-3.2,6.8c-1.4,4.7-3.3,9.2-5.2,13.6c-1.1,2.5-1.5,5.1-1.7,7.7c-0.1,1.1-0.1,2.2,0,3.2c0.1,2.5-0.5,5-1.1,7.4
		c-0.1,0.3-0.1,0.6-0.4,0.7c-0.6,0-0.8-0.6-1.1-0.9c-2.4-2.3-5.3-1.9-7.1,0.9c-0.3,0.5-0.4,1.1-0.9,1.5c-0.6,0-1-0.5-1.5-0.7
		c-1.8-0.8-3.5-0.4-4.8,1.2c-0.8,1.1-1.1,2.3-1.3,3.6c-1.2-0.6-2.5-0.7-3.9-0.7c-3.9,0.1-7.8,0.1-11.6-1.2l0,0
		c0-0.4-0.2-0.6-0.5-0.8c-0.6-0.8-1-1.7-1.4-2.6c-1.2-2.9-3-5.4-5.4-7.5c-0.1-0.1-0.4-0.2-0.6-0.3c0-0.1,0-0.1-0.1-0.2
		c0,0-0.1,0-0.1,0c0.1,0.1,0.1,0.1,0.2,0.2c-0.2,0.7,0.2,1.2,0.5,1.8c0.3,0.8,0.8,1.5,0.9,2.4c-0.2,0.9,0,1.8,0,2.8
		c0,0.6-0.2,1.1-0.8,1.4c-0.4,0.2-0.8,0.4-1.1,0.6c-2.8,1.4-5.8,2.3-8.8,3.2c-1.8,0.5-3.7,0.9-5.5,1.8c-2.7,0.8-5.6,1.2-8.4,1.7
		c-2.6,0.4-5.2,0.8-7.9,1.1c-0.2,0-0.4,0.1-0.6,0.1c-3.2,0.1-6.4,0.7-9.6,0.5c-7.2-0.3-14-2.1-20.1-6c-2-1.3-3.9-2.6-5.8-4
		c-2.7-2-4.5-4.8-5.8-7.8c-0.1-0.2-0.1-0.4-0.1-0.6c0-0.1,0.1-0.3,0.1-0.4c0.1-0.1,0.3-0.1,0.4,0c0.3,0.1,0.5,0.3,0.7,0.4
		c3.2,1.9,6.7,3.3,10.4,3.9c1.1,0.2,2.3,0.2,3.4,0.3c0.1,0.4,0.4,0.6,0.8,0.6c0.6,0,1.2,0.1,1.7,0c1.4-0.2,2.9-0.2,4.3-0.3
		c0.5,0,1-0.1,1.4,0.3c0.7,0.7,1.6,0.6,2.4,0.6c1.1,0,2.3-0.1,3.4-0.4c0.3-0.1,0.8-0.1,1,0.2c0.5,1.1,1.3,0.9,2.2,0.7
		c0.5-0.1,1-0.1,1.5-0.2c0.9-0.2,1.5,0,1.8,1c0.1,0.4,0.7,0.5,1.1,0.3c0.3-0.2,0.6-0.4,0.8-0.7c0.3-0.6,0.6-1.4,0.6-2
		c0-0.9,0.4-1.1,1-1.4c1.1-0.6,2.3-1.2,3.4-1.9c0.5-0.3,1.1-0.7,1-1.3c0-1,0.7-1.3,1.4-1.7c2.3-1.3,4.3-3,6.5-4.6
		c0.5-0.3,0.9-0.7,1.1-1.3c0.3-0.6,0-1.1-0.7-1.3c-0.3-0.1-0.6,0-0.9,0c0.5-0.6,1-1.2,1.6-1.7c2.4-2.1,4.6-4.3,6.7-6.7
		c0.5-0.5,0.9-1.1,1.6-1.4c0.9,0,1.5-0.5,2-1c1.6-1.6,2.9-3.4,4.2-5.2c0.6-0.9,1.2-1.8,2.3-2.1c0.3-0.1,0.5-0.5,0.8-0.7
		c0.4-0.5,0.7-1.1,1.3-1.4c0.3,0,0.5,0.2,0.7,0.4c0.4,0.4,0.9,0.4,1.4,0.1c0.4-0.2,0.7-0.5,1-0.8c0.3-0.3,0.6-0.2,1-0.1
		c0.9,0.2,1.4-0.1,1.6-0.8c0.1-0.4,0.1-0.9,0.2-1.3c0.2-0.8-0.1-1.3-0.8-1.8c-0.7-0.4-0.7-0.5-0.4-1.1c0.4-0.8,0.8-1.5,1.1-2.3
		c0.2-0.6,0.1-1.1-0.6-1.4c-0.5-0.2-0.6-0.4-0.4-0.9c1-2,2-3.9,3-5.9c0.3-0.6,0.5-1.2,0.7-1.8c0.2-0.6,0-1-0.3-1.4
		c0.3-1.3,1-2.4,1.6-3.6c0.8-0.6,1.2-1.4,1.2-2.4c0,0,0,0,0,0c1.1-1.2,1.5-2.1,1.7-3.9c0,0,0,0,0,0c1-0.8,1.3-1.9,1.3-3c0,0,0,0,0,0
		c0.3-0.2,0.6-0.4,0.9-0.6c0.1,0.3,0.3,0.5,0.6,0.5c0.4,0.1,0.7-0.1,0.9-0.4c0.4-0.6,0.7-1.3,1-1.9c0.6-1.2,1.2-2.5,1.8-3.7
		c0.1-0.3,0.4-0.4,0.7-0.3c0.1,0.1,0.2,0.4,0.2,0.6c-0.1,0.5-0.3,1-0.4,1.5c-0.1,0.3-0.1,0.7,0,1.1c0,0.5,0.7,0.8,1.1,0.6
		c0.5-0.2,0.8-0.6,1.1-1c0.6-0.8,1.1-1.7,1.7-2.5c0.3-0.4,0.4-0.9,1.1-1c0.5,0.3,1,0.7,1.6,1c0.4,0.2,0.6,0.1,0.8-0.3
		c0.3-0.6,0.6-1.2,0.2-1.8c-0.5-0.8-0.3-1.5-0.1-2.3c0.1-0.3,0.2-0.7,0.3-1c0.2-1.1-0.1-1.5-1.3-1.6c-0.8,0-1-0.3-0.7-1
		c0.2-0.5,0.4-1.1,0.7-1.6c0.4-1.1,0.9-2.3,1.3-3.4c0.3-0.9-0.1-1.3-1-1.4c-0.2,0-0.6,0.2-0.7-0.3c0.9-1.5,1.8-3,2.7-4.6
		c1-1.6,2.1-3.3,3.1-4.9c0.2-0.3,0.4-0.6,0.3-1c-0.1-0.4-0.3-0.6-0.6-0.8c1-2.2,2.6-4.1,4-6.1c2.2-3.2,4.7-6.1,7.3-9
		c0.7-0.7,1.4-1.5,2.3-1.9c0.2-0.2,0.5-0.3,0.5-0.7c0,0,0,0,0,0c0.3,0,0.5-0.1,0.5-0.5c0,0,0,0,0,0c0.3,0,0.5-0.1,0.5-0.5
		c0,0,0,0,0,0c0.3,0,0.5-0.1,0.5-0.5c0,0,0,0,0,0c0.3,0.2,0.6,0.1,0.8,0c0.4-0.2,0.7-0.5,1-0.8c3.2-2.5,6.6-4.8,10.2-6.8
		c0.8-0.4,1.6-0.8,2.6-0.7c0.5,0.1,1-0.2,1.4-0.3c1-0.3,1.9-0.6,2.9-0.8c0.8-0.2,1.7-0.4,2.4,0.4c0.2,0.2,0.7,0.3,1,0.3
		c0.9,0,1.7-0.1,2.2,1c0.1,0.2,0.3,0.3,0.5,0.3c0.8,0.1,1.3,0.5,1.7,1.1c0.2,0.3,0.7,0.1,0.9-0.2c0.4-0.6,0.5-1.2,0.2-1.8
		c-0.2-0.4-0.4-0.7-0.4-1.2c0.1-0.4-0.4-0.8,0.1-1.3c0.5-0.1,1.2-0.3,1.8-0.5c0.4-0.1,0.9-0.2,1.1-0.6c0.4-1,1.3-1,2.2-1.1
		c0.9,0,1.9,0,2.8-0.1c1-0.1,1.8,0.1,2.7,0.5c2.2,0.8,4.1,2,6,3.4c1.6,1.2,3.1,2.6,4.5,4c0.4,0.4,0.7,1,1.4,0.8c0,0,0,0,0,0
		c-0.1,0.5,0.1,0.7,0.5,0.8c0.6,0.9,0.9,2,1.1,3c0.6,2.7,1.1,5.5,1.1,8.3c0,4.2-0.3,8.4-1,12.6c-0.2,0-0.3,0.1-0.4,0.3
		c-0.3,0-0.5,0.1-0.4,0.4c-0.6-0.2-1.1,0.2-1.6,0.4c-0.5,0.3-1,0.7-1.5,0.7c-0.7,0.1-0.8-0.7-1.2-1.1c-0.1-0.1-0.2-0.2-0.3-0.3
		c-0.3-0.2-0.7-0.3-1-0.1c-0.3,0.2-0.6,0.7-0.3,1.1c0.8,1.1,0.8,1.9-0.5,2.5c-0.2,0.1-0.3,0.3-0.4,0.5c-0.1,0.2-0.1,0.5,0,0.6
		c0.1,0.2,0.3,0.3,0.5,0.3c0.6,0,1.1-0.3,1.6-0.6c0.5-0.3,0.9-0.1,1.3,0.3c0.4,0.5,0.7,1.2,1.5,1.4c0.1-0.8-0.3-1.4-0.6-1.9
		c-0.3-0.7-0.2-1.2,0.4-1.7c0.7-0.7,1.6-1.2,2-2.2c0.2-0.1,0.4-0.2,0.4-0.4c0.1,0,0.3-0.1,0.4-0.1c-0.1,2.5-0.4,5-0.8,7.5
		c-0.7,1-0.7,2.3-1,3.5c-0.5,2.5-1.1,5-1.5,7.6c-0.4,3.5-0.6,7.1-1,10.7c-0.3,2.9-0.6,5.8-2.3,8.4c-0.9-0.6-1.1-1.6-1.6-2.5
		c-0.4-0.8-0.7-1.6-1.1-2.3c-0.7-1.2-1.8-1.8-3.2-1.9c-0.6,0-1.3,0-1.9,0c-1.6,0.1-3.1,0.3-4.7,0.5c-0.4,0-0.7,0.2-1,0.3
		c-1,0.2-1.6,0.9-1.8,1.9c-0.2,0.7-0.3,1.4-0.4,2.1c-0.2,0.9-0.5,1.6-1,2.4c-0.8,1.3-1.9,2.2-3.5,1.9c-0.3,0-0.6,0-0.9,0
		c-4.7,0.3-9.1-1.1-13.3-2.9c-3.7-1.6-7.3-3.4-10.8-5.3c-0.6-0.4-1.3-0.6-2-0.9c-0.8-0.8-1.8-1.3-2.8-1.9c-0.1-0.1-0.3,0-0.4,0
		c-0.1,0-0.1,0.3,0,0.3c1,0.8,1.9,1.7,3.1,2.2c0.9,1,2.2,1.6,3.1,2.5c0,0.5,0.2,0.9,0.8,0.8l0,0c-0.1,0.5,0.3,0.7,0.6,1
		c2.7,2.1,5.7,3.8,8.9,5.2c4.4,2,9.1,3.1,13.9,3.2c4.4,0.1,8.9,0.2,13.3-0.3c4.5-0.5,9-1.1,13.3-2.5c0.3-0.1,0.7-0.2,1-0.1
		c0.2,0.3,0.3,0.6,0.3,1c0.5,3.4,0.7,6.8,1.2,10.2c0.6,4.1,1.2,8.2,2,12.3c1.3,6.9,3.1,13.7,5.1,20.4
		C189.7,157.8,190.4,159.9,190.5,162.1z M148.4,95.7c-0.1,0-0.1,0-0.2,0c0,0,0,0.1-0.1,0.1C148.2,95.8,148.3,95.8,148.4,95.7
		l0.1-0.1C148.5,95.6,148.4,95.7,148.4,95.7z M121.2,98.7c0,0-0.1-0.1-0.1-0.1C121.1,98.7,121.2,98.7,121.2,98.7
		c0.1,0,0.1,0,0.2,0.1C121.3,98.8,121.3,98.8,121.2,98.7z M101.8,165.1c-0.5-0.1-0.8,0.2-1.1,0.5c-0.5,0.4-0.9,0.9-1.4,1.3
		c-0.4,0.3-0.7,0.4-1.2,0.1c-0.5-0.3-1-0.6-1.5-0.9c-0.4-0.2-0.7,0-1,0.3c-0.3,0.3-0.2,0.7,0.1,1c1.1,0.9,1.7,1.9,0.5,3.2
		c0,0-0.1,0.1-0.1,0.2c0,0.2,0,0.4,0.2,0.6c0.1,0.1,0.4,0.2,0.6,0.2c0.3,0,0.6-0.1,0.8-0.3c0.9-1.1,1.9-1.1,2.9-0.2
		c0.1,0.1,0.3,0,0.4,0c0.1-0.1,0.1-0.3,0.1-0.4c-0.2-0.3-0.4-0.6-0.6-0.9c-0.6-0.6-0.5-1.2-0.1-1.9
		C100.9,166.8,101.6,166.1,101.8,165.1c0.2-0.1,0.2-0.2,0.1-0.2C101.9,164.9,101.8,165,101.8,165.1z M65.2,173.7
		c0,0.1,0,0.1,0.1,0.1c0,0,0.1,0,0.1,0C65.3,173.8,65.2,173.8,65.2,173.7c0.1-0.8-0.5-1.3-1-1.8c-0.4-0.5-0.5-1-0.2-1.6
		c0.3-0.7,0.6-1.5,0.9-2.2c0.1-0.3,0.4-0.6-0.1-0.9c-0.7,0.9-1.4,1.8-2.1,2.6c-0.7-0.3-1.2-0.6-1.8-0.8c-0.3-0.1-0.6,0-0.8,0.3
		c-0.2,0.2-0.2,0.5-0.1,0.8c0,0.1,0.1,0.3,0.2,0.4c1.4,0.9,1,1.8,0.1,2.8c0,0.1-0.1,0.1-0.1,0.2c-0.2,0.3-0.2,0.7,0.1,1
		c0.4,0.3,0.8,0.3,1.2,0.1c0.5-0.2,0.7-0.7,1-1.1c0.3-0.4,0.6-0.5,1.1-0.3C64.1,173.3,64.6,173.7,65.2,173.7z M129,59.5
		c-0.4-0.1-0.7,0.1-1,0.3c-0.4,0.4-0.8,0.8-1.3,1.1c-0.9,0.7-0.9,0.7-1.9-0.1c-0.2-0.1-0.3-0.3-0.5-0.4c-0.3-0.1-0.6-0.2-0.8,0
		c-0.3,0.2-0.5,0.5-0.3,0.9c0.1,0.3,0.2,0.5,0.4,0.8c0.5,0.7,0.5,1.3-0.1,1.9c-0.3,0.3-0.5,0.7-0.7,1.1c-0.2,0.5-0.3,1,0.1,1.4
		c0.3,0.3,0.8,0.3,1.4-0.1c0.3-0.3,0.6-0.6,1-0.8c0.3-0.3,0.7-0.2,0.9,0.1c0.5,0.6,1,1.2,1.6,2c0-1.2-0.3-1.9-0.6-2.7
		c-0.4-1-0.2-1.7,0.4-2.6C128,61.5,128.8,60.7,129,59.5c0.2-0.1,0.2-0.2,0.1-0.2C129,59.3,129,59.5,129,59.5z M160.1,63.9
		c0.7,0.2,0.9,0.7,1.1,1c0.4,0.7,0.9,1.3,1.5,1.8c2.5,2.4,5.7,2.4,8.3,0.1c1.5-1.3,2.5-3,3.2-4.8c1.8-4.7,1.8-9.5,0.3-14.3
		c-0.5-1.7-1.4-3.3-2.5-4.7c-1.2-1.5-2.7-2.5-4.8-2.6c-2.3-0.1-4,0.9-5.4,2.6c-1.1,1.3-2,2.8-2.5,4.5c-0.3,1-0.5,1.9-0.8,2.9
		c-0.1,0.3-0.5,0.4-0.7,0.2c-0.3-0.4-0.6-0.8-1-1.1c-1.6-1.9-3.6-3.3-6-4c-1.4-0.4-2.8-0.8-4.2-0.5c-4.7,0.7-8.1,3.2-10,7.6
		c-2.1,4.8-1.8,9.5,0.5,14.1c1.4,2.7,3.4,4.8,6.2,6c3.8,1.6,7.6,1.5,11.1-0.8c2.3-1.5,3.9-3.6,4.9-6.1
		C159.6,65.2,159.9,64.6,160.1,63.9z M130.2,85.5C130.2,85.5,130.2,85.5,130.2,85.5c-0.1,0.5-0.1,1-0.1,1.5c0,0.1,0.1,0.3,0.2,0.3
		c0.2,0.2,0.4,0,0.5-0.1c0.5-0.7,0.9-1.4,1.4-2.2c0.3-0.5,0.6-0.7,1.2-0.5c0.6,0.2,1.2,0.4,1.9,0.3c0.1,0,0.3-0.1,0.3-0.2
		c0-0.1,0-0.3,0-0.4c-0.4-0.7-1.2-1-1.9-1.4c-0.4-0.2-0.6-0.6-0.5-1.1c0.1-0.6,0.2-1.3,0.2-1.9c0-0.5-0.4-0.9-0.8-0.9
		c-0.4,0-0.7,0.2-0.8,0.6c-0.2,0.5-0.3,1-0.5,1.4c-0.2,0.5-0.5,0.6-1,0.4c-0.6-0.2-1.2-0.5-1.8-0.7c-0.3-0.1-0.6,0-0.8,0.2
		c-0.2,0.3-0.1,0.7,0.1,1c0.5,0.5,1.2,0.8,1.8,1.1c0.5,0.3,0.7,0.6,0.6,1.2C130.3,84.7,130.2,85.1,130.2,85.5z M121.9,120.1
		c-0.4-1-0.9-1.7-1.4-2.4c-0.6-0.7-0.8-1.4-0.4-2.4c0.2-0.5,0.6-1.3,0.2-1.6c-0.7-0.4-1,0.6-1.4,0.9c-0.5,0.3-0.8,0.5-1.3,0.1
		c-0.6-0.4-1.2-0.9-1.9-1c-0.4-0.1-0.7,0-0.9,0.4c-0.1,0.3-0.1,0.6,0.1,0.8c0.5,0.4,1,0.8,1.5,1.3c0.4,0.3,0.5,0.7,0.2,1.1
		c-0.4,0.7-0.8,1.4-1.1,2.1c-0.2,0.3-0.1,0.7,0.2,1c0.4,0.3,0.8,0.2,1.2,0c0.6-0.3,0.9-1,1.3-1.4c0.5-0.6,0.7-0.6,1.3-0.2
		C120.2,119.3,120.9,119.9,121.9,120.1z M158.7,84.2c0.1,0.6-0.1,1-0.5,1.4c-0.5,0.6-1.1,1.1-1.4,1.9c-0.2,0.5-0.2,0.9,0.2,1.2
		c0.3,0.2,0.7,0.2,1,0c0.1,0,0.1-0.1,0.2-0.1c0.5-0.3,0.8-1,1.4-0.8c0.6,0.2,0.6,0.9,1,1.3c0.2,0.2,0.4,0.5,0.7,0.5
		c0.4,0,0.4-0.4,0.4-0.7c0-0.7,0-1.4-0.2-2.1c-0.2-0.7,0-1.2,0.4-1.8c0.4-0.5,0.8-1,1.1-1.6c0.2-0.3,0.3-0.6,0.4-1
		c0-0.1-0.1-0.3-0.2-0.3c-0.2,0-0.4,0.1-0.6,0.2c-0.6,0.3-1.1,0.8-1.7,0.9c-0.8,0.1-0.7-0.9-1.2-1.3c-0.2-0.1-0.4-0.2-0.6-0.2
		c-0.3,0-0.5,0.2-0.6,0.5c-0.1,0.3-0.1,0.6,0,0.8C158.5,83.4,158.6,83.8,158.7,84.2z M97.8,122.4c0.2-0.1,0.5-0.1,0.7-0.2
		c0.4-0.3,0.8-0.6,1.1-1c0.4-0.4,0.7-0.4,1.1-0.1c0.5,0.3,0.9,1.2,1.5,0.7c0.5-0.4-0.1-1-0.2-1.6c0-0.2-0.2-0.4-0.2-0.6
		c-0.2-0.5-0.1-1,0.1-1.4c0.3-0.4,0.5-0.8,0.8-1.3c0.2-0.4,0.4-0.7,0.6-1.1c0-0.1,0-0.3-0.1-0.4c-0.1-0.1-0.3-0.1-0.4-0.1
		c-0.4,0.2-0.7,0.4-1.1,0.7c-0.4,0.3-0.8,0.7-1.3,0.8c-0.7,0.2-0.9-0.6-1.4-0.9c-0.3-0.2-0.7-0.3-1,0c-0.3,0.2-0.4,0.6-0.3,0.9
		c0.1,0.3,0.2,0.7,0.4,1c0.5,0.6,0.3,1.1-0.2,1.7c-0.4,0.4-0.7,0.9-0.9,1.4c-0.1,0.2-0.1,0.6-0.1,0.8
		C97.2,122.1,97.5,122.2,97.8,122.4z M144.8,103.7c0.2-1.1,0.1-1.8-0.1-2.5c-0.3-0.8-0.1-1.5,0.6-2.1c0.8-0.7,1.5-1.6,2.2-2.3
		c0.1-0.1,0.1-0.3,0-0.4c-0.1-0.1-0.3-0.1-0.4-0.1c-0.7,0.4-1.4,0.8-2,1.2c-1.1,0.6-1.1,0.6-1.6-0.4c-0.3-0.5-0.5-1-0.9-1.4
		c-0.3-0.3-0.6-0.4-1-0.2c-0.4,0.2-0.5,0.6-0.4,0.9c0.2,0.6,0.4,1.2,0.7,1.8c0.3,0.7,0.3,1.4-0.4,1.9c-0.6,0.4-1.1,0.9-1.4,1.6
		c-0.2,0.5,0.2,1.1,0.7,1c0.3,0,0.6-0.1,0.8-0.2c0.4-0.2,0.8-0.6,1.3-0.8c0.3-0.2,0.6-0.1,0.7,0.1
		C143.8,102.3,144.2,102.9,144.8,103.7z M82.6,148.1c-0.9,0.5-1.5,1.3-2.2,1.9c-0.7,0.6-0.8,0.6-1.5,0.1c-0.3-0.2-0.7-0.5-1.1-0.7
		c-0.3-0.1-0.5,0-0.8,0.2c-0.2,0.2-0.3,0.5-0.2,0.8c0.2,0.4,0.4,0.7,0.7,1.1c0.4,0.6,0.5,1.2,0.1,1.8c-0.2,0.4-0.5,0.7-0.7,1.1
		c-0.1,0.3-0.1,0.7-0.1,1c0,0.5,0.7,0.8,1.1,0.5c0.2-0.1,0.4-0.2,0.5-0.4c0.8-1.2,1.8-1.6,3-0.5c0.1,0,0.3,0,0.3-0.1
		c0.1-0.1,0.1-0.3,0.1-0.4c0-0.1-0.1-0.3-0.1-0.4c-1.1-1.9-0.7-1.8,0.2-3.7c0.1-0.3,0.3-0.5,0.4-0.8C82.5,149.1,83,148.7,82.6,148.1
		z M108.9,153.3c0.1-0.1,0.2-0.3,0.2-0.4c-0.1-0.4-0.2-0.9-0.4-1.2c-0.5-0.8-0.4-1.6,0-2.4c0.2-0.4,0.3-0.9,0.4-1.4
		c0-0.1-0.2-0.2-0.3-0.2c-0.1,0-0.3,0.1-0.4,0.2c-1.3,1.3-1.6,1.1-2.7-0.2c-0.2-0.3-0.5-0.5-0.9-0.6c-0.3-0.2-0.7-0.2-1,0.1
		c-0.3,0.3-0.3,0.6-0.1,1c0.1,0.2,0.2,0.4,0.3,0.5c1.2,1.1,1.3,2.2,0.1,3.4c-0.2,0.2-0.4,0.6-0.5,0.9c-0.1,0.4,0,0.7,0.3,1
		c0.3,0.3,0.7,0.3,1,0.1c0.5-0.3,0.9-0.7,1.3-1.1c0.7-0.6,0.7-0.7,1.7-0.1C108.2,153,108.5,153.3,108.9,153.3z M172.5,120.7
		c-1.2,0.6-1.8,1.3-2.5,1.9c-0.4,0.3-0.8,0.3-1.1-0.1c-0.4-0.5-0.9-0.9-1.3-1.4c-0.3-0.3-0.6-0.4-1-0.1c-0.4,0.3-0.5,0.7-0.3,1.1
		c0.1,0.3,0.3,0.5,0.4,0.7c0.7,0.9,1,1.8,0.1,2.9c-0.2,0.2-0.3,0.7-0.3,1c0,0.2,0.1,0.4,0.2,0.6c0.2,0.2,0.5,0.2,0.8,0.1
		c0.2-0.1,0.4-0.2,0.5-0.3c1.1-0.8,1.1-0.8,2.1,0.1c0.2,0.2,0.3,0.3,0.4,0.5c0.2,0.2,0.4,0.7,0.8,0.4c0.2-0.2,0-0.5-0.1-0.8
		c-0.1-0.4-0.2-0.8-0.5-1.2c-0.6-0.9-0.4-1.7,0.3-2.5C171.7,122.8,172.1,122,172.5,120.7z M183.1,148.5c-0.2-0.9-0.8-1.3-1.2-1.9
		c-0.6-0.7-0.9-1.4-0.4-2.3c0.1-0.1,0.1-0.3,0.1-0.4c0.1-0.5,0.5-1.1,0.3-1.7c-0.8-0.1-0.9,0.7-1.3,1.1c-0.6,0.7-0.7,0.7-1.6,0.2
		c-0.5-0.3-1-0.8-1.7-0.9c-0.5-0.1-1,0.4-0.9,0.9c0.1,0.4,0.3,0.7,0.5,0.9c0.4,0.3,0.8,0.6,1.2,0.9c0.4,0.3,0.5,0.7,0.3,1.1
		c-0.3,0.7-0.6,1.3-0.6,2c0,0.3,0.2,0.5,0.4,0.7c0.3,0.2,0.6,0.2,0.8,0c0.3-0.3,0.6-0.6,0.9-0.9c0.9-1.1,0.9-1.1,2-0.4
		C182.2,148.2,182.5,148.6,183.1,148.5z M123.6,128.1c-1.1,0.3-1.4,1.2-2,1.8c-0.3,0.3-0.7,0.4-1.1,0.1c-0.4-0.3-0.8-0.6-1.3-0.7
		c-0.4,0-0.9,0-1.1,0.5c-0.2,0.4,0,0.7,0.2,1c0.3,0.3,0.6,0.6,0.9,0.9c0.3,0.3,0.4,0.7,0.1,1.2c-0.2,0.4-0.5,0.9-0.7,1.3
		c-0.1,0.3-0.1,0.7,0.2,1c0.3,0.3,0.7,0.2,1,0c0.3-0.3,0.6-0.6,0.9-0.9c0.4-0.4,0.7-0.4,1.2-0.1c0.5,0.3,0.9,0.9,1.7,1
		c0-0.2,0.2-0.4,0.1-0.6c-0.2-0.5-0.3-1-0.7-1.3c-0.9-1.1-0.7-2.1-0.1-3.2C123.2,129.6,123.6,129,123.6,128.1z M170.1,155.3
		c-0.1-0.2-0.3-0.3-0.5-0.2c-0.8,0.3-1.3-0.1-1.7-0.8c-0.3-0.6-0.7-1.2-1.1-1.8c-0.3-0.4-1.1-0.3-1.3,0.1c-0.1,0.2-0.2,0.6-0.1,0.8
		c0.2,0.6,0.5,1.2,0.8,1.8c0.4,1,0.4,1-0.3,1.6c-0.3,0.3-0.7,0.5-0.9,0.9c-0.2,0.3-0.2,0.7,0,1c0.2,0.3,0.6,0.4,0.9,0.3
		c0.3-0.1,0.5-0.2,0.8-0.3c1.2-0.5,1.2-0.5,2.1,0.3c0.1,0.1,0.2,0.2,0.3,0.3c0.1,0,0.2,0,0.2,0c0.1-0.1,0.2-0.2,0.2-0.3
		c0-0.2,0-0.5-0.1-0.6c-0.6-1.1-0.2-1.9,0.6-2.7C170.1,155.6,170.1,155.5,170.1,155.3z M31.8,170.7c-0.6,0.1-0.7,0.7-1,1
		c-0.7,0.8-0.7,0.8-1.7,0.3c-0.5-0.2-0.9-0.5-1.4-0.1c-0.4,0.3-0.3,0.7,0.4,1.4c0.6,0.7,0.6,0.7,0.1,1.6c-0.1,0.2-0.2,0.4-0.3,0.5
		c-0.2,0.5-0.1,1,0.2,1.1c0.4,0.2,0.7,0.1,1-0.2c0.3-0.4,0.6-0.8,0.9-1.2c0.2-0.2,0.5-0.3,0.8-0.2c0.4,0.2,0.9,0.4,1.4,0.6
		c0,0,0.2-0.2,0.2-0.3c-0.2-0.3-0.3-0.6-0.6-0.9c-0.7-0.7-0.7-1.5-0.3-2.3C31.6,171.8,32,171.3,31.8,170.7z"/>
	<path class="st2" d="M130.6,148.2c0.1-0.4,0.1-0.9,0.3-1.2c0.9-2.2,1.5-4.5,2.1-6.8c0.9-3.9,2.7-7.4,5.7-10.1
		c3.1-2.8,6.5-4.9,10.6-5.7c1.4-0.3,2.8-0.3,4.3-0.2c2.6,0.3,4.8,2.3,5.5,5c0.5,1.9,0.5,3.8,0,5.7c-0.4,0.3-0.3,0.7-0.3,1.1
		c0,0,0,0.1,0,0.1c-0.7,0.5-0.9,1.3-1.2,2c-0.7,1.6-1.7,3-2.6,4.4c-0.8,1.2-1.8,2-3.2,2.4c-0.8,0.3-1.7,0.3-2.5,0.3
		c-3.5,0-7,0-10.5,0c-2,0-3.8,0.4-5.5,1.4C132.3,147.1,131.4,147.7,130.6,148.2z M143.1,140.2c-1.1,0.1-2.1,0.1-3.2,0.2
		c-0.3,0-0.5,0.2-0.8,0.3c0,0-0.1,0.1-0.1,0.2c0,0.1,0.1,0.3,0.2,0.3c0.3,0.1,0.6,0.2,0.8,0.2c3.2-0.1,6.3,0.3,9.4,0.8
		c0.9,0.2,1.8,0.2,2.8,0.2c0.3,0,0.8,0,0.8-0.4c0-0.3-0.3-0.5-0.6-0.6c-0.3-0.1-0.7-0.2-1-0.3C148.7,140.6,145.9,140.1,143.1,140.2z
		 M143.6,135.1c-0.8,0-1.5,0-2.2,0.4c-0.1,0.1-0.1,0.2-0.1,0.4c0,0.1,0.1,0.3,0.2,0.3c0.3,0.1,0.6,0.1,0.8,0.1
		c2.4,0.1,4.8,0.4,7.2,0.8c1.1,0.2,2.2,0.5,3.3,0.7c0.2,0,0.4,0,0.4-0.3c0-0.1-0.1-0.3-0.1-0.4c-0.9-0.7-2-1-3.1-1.3
		C147.9,135.4,145.7,135.4,143.6,135.1z M156.1,132.5c-0.1-0.1-0.1-0.3-0.2-0.3c-3.7-1.9-7.6-2.3-11.7-2c-0.3,0-0.6,0.2-0.5,0.5
		c0,0.2,0.3,0.4,0.4,0.4c0.6,0.1,1.3,0.2,1.9,0.2c3,0.2,6,0.5,8.9,1.2C155.3,132.7,155.8,132.9,156.1,132.5z"/>
	<path class="st3" d="M130.6,148.2c0.8-0.5,1.6-1.1,2.5-1.6c1.7-1,3.6-1.4,5.5-1.4c3.5,0,7,0,10.5,0c0.9,0,1.7-0.1,2.5-0.3
		c1.4-0.4,2.4-1.2,3.2-2.4c0.9-1.4,1.9-2.9,2.6-4.4c0.3-0.7,0.5-1.5,1.2-2c0.1,0.7-0.1,1.3-0.3,1.9c-0.9,3.9-2,7.8-2.8,11.7
		c-0.6,2.6-2,4.3-4.4,5.5c-2.9,1.4-5.9,2.2-9,2.8c-3.5,0.6-6.9,1.1-10.5,1.1c-2.5,0-3.6-1-3.7-3.4c-0.1-1.1,0-2.1,0.5-3.1
		c0.6-1.3,1.2-2.6,1.8-3.9C130.5,148.5,130.6,148.4,130.6,148.2L130.6,148.2z M148.9,148.1c0.6,0,0.8,0,1,0c0.6-0.1,1.3,0.4,1.7-0.4
		c0.2-0.4-0.4-0.8-1.6-1c-0.1,0-0.3-0.1-0.4-0.1c-4.3-0.3-8.6-0.3-12.8,0.5c-0.1,0-0.3,0.1-0.4,0.1c-0.3,0.1-0.8,0.1-0.7,0.6
		c0.1,0.4,0.4,0.3,0.7,0.3c0.8,0,1.6-0.1,2.4-0.2c1.9-0.2,3.9-0.3,5.8-0.2C146.1,147.9,147.7,148,148.9,148.1z"/>
	<path class="st2" d="M102.7,45.7c0.9-1.6,2.2-2.3,3.9-2.7c2.3-0.5,4.6-0.1,6.8,0.2c4.5,0.7,8.9,1.4,13.3,2.1
		c0.5,0.1,1.1,0.1,1.6,0.6c-0.1,0.2-0.2,0.4-0.4,0.5c-3.1,2.7-6,5.6-8.6,8.7c-0.2,0.2-0.4,0.4-0.6,0.5c-0.4,0.1-0.9,0-1.3,0.2
		c-0.9,0.3-1.9,0.3-2.8,0.2c-4.1-0.6-7.4-2.6-9.8-5.9c-0.9-1.2-1.7-2.5-1.9-4C102.9,45.9,102.8,45.8,102.7,45.7z"/>
	<path class="st4" d="M190.5,162.1c-0.1-2.2-0.8-4.4-1.4-6.5c-2.1-6.7-3.8-13.5-5.1-20.4c-0.8-4.1-1.4-8.2-2-12.3
		c-0.5-3.4-0.7-6.8-1.2-10.2c0-0.4-0.1-0.7-0.3-1c-0.4-0.1-0.7,0-1,0.1c-4.3,1.4-8.8,2-13.3,2.5c-4.4,0.5-8.9,0.4-13.3,0.3
		c-4.8-0.1-9.5-1.2-13.9-3.2c-3.1-1.4-6.1-3.1-8.9-5.2c-0.3-0.3-0.8-0.4-0.6-1c0.9,0,1.4,0.6,2.1,1c3.6,2.3,7.4,4.1,11.5,5.2
		c5.7,1.6,11.6,1.9,17.5,1.3c3.4-0.3,6.8-0.7,10.3-1.1c1.9-0.2,3.7-0.5,5.5-1.2c2-0.7,3.6-1.8,4.2-3.9c0-0.1,0.2-0.2,0.3-0.2
		c0.1,0,0.3,0.1,0.3,0.2c0.7,1.5,1,3.1,1.3,4.8c0.4,2.6,0.7,5.3,1,7.9c0.3,2.4,0.5,4.8,0.7,7.3c0.6,5.1,1.8,10.2,2.9,15.2
		c1,4.4,2.4,8.7,3.8,13c0.8,2.4,1.4,4.8,1.8,7.3c0.2,0.9,0.2,1.9-0.3,2.7c-0.1,0.1-0.2,0.2-0.3,0.2c-0.1,0-0.3-0.1-0.3-0.2
		C191.2,163.8,190.9,163,190.5,162.1z"/>
	<path class="st3" d="M102.7,45.7c0.1,0.1,0.2,0.2,0.3,0.3c0.2,1.5,1,2.8,1.9,4c2.4,3.4,5.7,5.3,9.8,5.9c0.9,0.1,1.8,0.1,2.8-0.2
		c0.4-0.1,0.8-0.1,1.3-0.2c-1.2,1.6-2.4,3.2-3.6,4.8c-3.1,4.3-6,8.7-8.8,13.3c-0.2,0.3-0.3,0.8-0.9,0.9c-0.3,0-0.4-0.5-0.1-1.3
		c0.7-1.8,1.4-3.6,2.2-5.4c0.5-1.2,1.1-2.5,1.5-3.8c0.1-0.3,0.2-0.7-0.1-1.1c-1,0.8-1.6,1.8-2.1,2.9c-0.7,1.6-1.4,3.3-2.1,5
		c-0.1,0.2-0.2,0.4-0.5,0.2c-0.1-0.1-0.1-0.3-0.1-0.4c0.4-1.1,0.7-2.2,1.1-3.3c0.4-1.1,0.8-2.2,1.1-3.3c0.2-0.7,0.4-1.4,0.1-2.1
		c0.2,0,0.3-0.1,0.1-0.3c0,0.1-0.1,0.2-0.1,0.3c-0.4,0-0.6,0.4-0.8,0.7c-0.6,1-1.1,2.1-1.6,3.3c-0.6-0.1-0.6-0.6-0.6-1
		c0.1-0.9,0.3-1.8,0.5-2.7c0.1-0.5,0.3-1.1,0.1-1.7c-0.7,0-0.6,0.8-1.1,1c-0.1-0.2-0.2-0.3-0.2-0.5c-0.9-3.9-1.6-7.9-1.5-11.9
		C101.6,47.9,101.6,46.6,102.7,45.7z"/>
	<path class="st2" d="M9.2,150.5c0.9-3.9,3.4-6.4,6.9-8.1c1-0.5,2-0.6,3.1-0.5c0.8,0,1.6,0.3,2.2,0.8c1.3,1,2.5,2.2,2.9,3.8
		c0,1.4-0.2,2.7-0.7,4c-1.2,3.7-3.8,5.8-7.4,6.7c-1.6,0.4-3.1,0.3-4.3-1.2c-0.3-0.3-0.6-0.6-0.9-0.9C9.7,153.8,9,152.3,9.2,150.5z"
		/>
	<path class="st2" d="M78.9,100.3c0.3-1.8,1.6-2.8,3.2-3.5c1.1-0.5,2.3-0.8,3.5-1.1c3.3-0.8,6.6-0.9,9.8-1.6c0.3,0.4,0.1,0.7,0,0.9
		c-1.6,3.7-3.2,7.3-4.8,11c-0.1,0.2-0.2,0.3-0.4,0.5c-0.2,0.1-0.4,0.3-0.4,0.5c0,0,0.1,0,0.1,0c-0.3,0-0.6,0-0.8,0.1
		c-1.4,0.8-2.9,0.7-4.3,0.7c-1.1,0-1.9-0.4-2.7-1.1c-1.1-0.9-1.7-2.1-2.1-3.4C79.5,102.3,79.2,101.3,78.9,100.3z"/>
	<path class="st5" d="M112.3,68.9c0.3,0.2,0.6,0.4,0.6,0.8c0.1,0.4-0.1,0.7-0.3,1c-1,1.6-2.1,3.3-3.1,4.9c-0.9,1.5-1.8,3.1-2.7,4.6
		c0.1,0.6,0.5,0.3,0.7,0.3c0.9,0.2,1.3,0.6,1,1.4c-0.4,1.2-0.8,2.3-1.3,3.4c-0.2,0.5-0.5,1.1-0.7,1.6c-0.3,0.7,0,1,0.7,1
		c1.2,0.1,1.5,0.4,1.3,1.6c-0.1,0.4-0.2,0.7-0.3,1c-0.2,0.8-0.4,1.5,0.1,2.3c0.4,0.6,0.1,1.2-0.2,1.8c-0.2,0.4-0.5,0.5-0.8,0.3
		c-0.5-0.3-1.1-0.7-1.6-1c-0.7,0.1-0.8,0.6-1.1,1c-0.6,0.8-1.1,1.7-1.7,2.5c-0.3,0.4-0.6,0.8-1.1,1c-0.5,0.2-1.1-0.1-1.1-0.6
		c0-0.4,0-0.7,0-1.1c0.1-0.5,0.3-1,0.4-1.5c0-0.2,0-0.5-0.2-0.6c-0.3-0.1-0.5,0-0.7,0.3c-0.6,1.2-1.2,2.5-1.8,3.7
		c-0.3,0.6-0.6,1.3-1,1.9c-0.2,0.3-0.5,0.5-0.9,0.4c-0.3,0-0.5-0.3-0.6-0.5c0-0.3-0.1-0.6-0.4-0.7c0-0.6,0.3-1.1,0.5-1.6
		c3.8-8.7,8.3-17.1,13-25.3C110.3,71.6,111.1,70.1,112.3,68.9z M101.8,92.5c0.2,0.6,0.2,0.6,0.7,0.2c0.2-0.4,0.4-0.9,0.6-1.3
		c0.1-0.2,0-0.4-0.2-0.5c-0.1,0-0.3,0.1-0.3,0.2C102.3,91.5,102,92,101.8,92.5z M101.8,94c0.1-0.2,0-0.3-0.1-0.3
		c-0.2,0-0.3,0.1-0.3,0.3c0,0.1,0.1,0.2,0.2,0.3C101.6,94.2,101.7,94.1,101.8,94z M105.9,89.6l0.1-0.2l-0.1,0L105.9,89.6z
		 M106.4,88.4c0,0.1-0.1,0.1-0.1,0.2c0.1,0.2,0.2,0.2,0.3,0C106.5,88.6,106.4,88.5,106.4,88.4z"/>
	<path class="st5" d="M177.7,45.7c-0.7,0.1-1-0.4-1.4-0.8c-1.4-1.4-2.9-2.8-4.5-4c-1.9-1.4-3.8-2.6-6-3.4c-0.9-0.3-1.8-0.5-2.7-0.5
		c-0.9,0.1-1.9,0.1-2.8,0.1c-0.9,0-1.7,0.1-2.2,1.1c-0.2,0.4-0.6,0.5-1.1,0.6c-0.6,0.1-1.2,0.3-1.8,0.5c-0.5,0.5,0,0.9-0.1,1.3
		c-0.1,0.5,0.1,0.8,0.4,1.2c0.4,0.6,0.2,1.2-0.2,1.8c-0.2,0.3-0.7,0.5-0.9,0.2c-0.4-0.6-0.9-1-1.7-1.1c-0.2,0-0.4-0.2-0.5-0.3
		c-0.4-1.1-1.3-1-2.2-1c-0.3,0-0.8-0.1-1-0.3c-0.7-0.7-1.6-0.6-2.4-0.4c-1,0.2-1.9,0.6-2.9,0.8c-0.5,0.1-1,0.4-1.4,0.3
		c-1-0.2-1.8,0.2-2.6,0.7c-3.6,1.9-7,4.3-10.2,6.8c-0.3,0.3-0.7,0.5-1,0.8c-0.2,0.2-0.5,0.2-0.8,0c0.3-0.8,1-1.2,1.6-1.7
		c3-2.8,6.5-4.8,10.1-6.9c5.4-3.2,11.4-5,17.6-5.9c2.4-0.4,4.9-0.3,7.3-0.1c1.7,0.1,3.3,0.8,4.9,1.6c3.4,1.7,6.2,4.1,8.2,7.4
		C177.4,44.8,177.8,45.1,177.7,45.7z"/>
	<path class="st5" d="M60.8,153.5c0.3,0,0.6-0.1,0.9,0c0.7,0.2,0.9,0.7,0.7,1.3c-0.2,0.5-0.6,0.9-1.1,1.3c-2.1,1.6-4.1,3.3-6.5,4.6
		c-0.7,0.4-1.4,0.7-1.4,1.7c0,0.6-0.6,1-1,1.3c-1.1,0.7-2.2,1.3-3.4,1.9c-0.6,0.3-1.1,0.6-1,1.4c0,0.7-0.3,1.4-0.6,2
		c-0.1,0.3-0.5,0.5-0.8,0.7c-0.4,0.3-0.9,0.2-1.1-0.3c-0.3-1-0.9-1.2-1.8-1c-0.5,0.1-1,0.1-1.5,0.2c-0.9,0.2-1.7,0.4-2.2-0.7
		c-0.2-0.4-0.6-0.3-1-0.2c-1.1,0.3-2.2,0.4-3.4,0.4c-0.9,0-1.7,0-2.4-0.6c-0.4-0.4-0.9-0.3-1.4-0.3c-1.4,0.1-2.9,0-4.3,0.3
		c-0.6,0.1-1.1,0.1-1.7,0c-0.4,0-0.6-0.3-0.8-0.6c1.9-0.2,3.8-0.1,5.8-0.4c4.9-0.7,9.7-1.7,14.4-3.3c5.4-1.9,9.9-5,14.2-8.6
		C59.9,154.2,60.4,153.8,60.8,153.5z"/>
	<path class="st2" d="M60,137.4c0.4-2.3,1.8-3.8,3.9-4.6c1.4-0.5,2.8-0.6,4.2-0.8c2.5-0.2,5-0.4,7.5-0.5c0.3,0,0.6,0,0.9,0
		c-0.3,1.3-1.9,3.6-4.3,6c-0.3,0-0.5,0.2-0.6,0.5c0,0,0.1,0,0.1,0c-0.7-0.2-1.2,0.3-1.8,0.5c-0.6,0.3-1.1,0.6-1.8,0.6
		c-1.4,0-2.9,0.1-4.3,0c-0.8-0.1-1.7-0.3-2.4-0.8C61,138,60.5,137.7,60,137.4z"/>
	<path class="st5" d="M89.6,114.2c0.3,0.4,0.6,0.8,0.3,1.4c-0.3,0.6-0.4,1.2-0.7,1.8c-1,2-2,3.9-3,5.9c-0.3,0.5-0.1,0.7,0.4,0.9
		c0.7,0.3,0.8,0.8,0.6,1.4c-0.3,0.8-0.7,1.6-1.1,2.3c-0.3,0.7-0.3,0.7,0.4,1.1c0.7,0.4,1,0.9,0.8,1.8c-0.1,0.4-0.1,0.9-0.2,1.3
		c-0.2,0.8-0.8,1-1.6,0.8c-0.4-0.1-0.7-0.2-1,0.1c-0.3,0.3-0.7,0.5-1,0.8c-0.5,0.3-0.9,0.4-1.4-0.1c-0.2-0.2-0.4-0.4-0.7-0.4
		c-0.6,0.3-0.9,0.9-1.3,1.4c-0.2,0.3-0.5,0.6-0.8,0.7c-1.2,0.3-1.7,1.2-2.3,2.1c-1.3,1.8-2.6,3.6-4.2,5.2c-0.6,0.6-1.1,1.1-2,1
		c0.3-0.9,0.9-1.4,1.5-2.1c6.7-7.6,11.8-16.3,16.3-25.4C88.8,115.5,89,114.7,89.6,114.2z"/>
	<path class="st3" d="M9.2,150.5c-0.2,1.9,0.6,3.3,1.8,4.6c0.3,0.3,0.6,0.6,0.9,0.9c1.1,1.5,2.7,1.6,4.3,1.2c3.6-1,6.2-3.1,7.4-6.7
		c0.4-1.3,0.7-2.6,0.7-4c1,1.5,1,3,0.4,4.7c-0.6,1.6-1.5,3.1-2.4,4.5c-0.6,0.9-1,1.8-1.2,2.9c-0.2,1-0.3,2,0,3
		c0.1,0.3,0.1,0.7,0.2,1.4c-0.7-0.8-1.1-1.3-1.6-1.8c-0.1-0.1-0.1-0.3-0.2-0.4c0-0.1-0.1-0.1-0.2-0.1c-0.1,0.1-0.2,0.2-0.2,0.2
		c0,0.2,0.1,0.4,0.2,0.6c0,0.4,0.1,0.8,0.1,1.3c-0.9-0.3-1-1.4-1.8-1.7c-0.3,0.2-0.2,0.5-0.2,0.7c0,0.4,0.5,0.8,0,1.2
		c-0.3,0.2-0.7,0-1-0.2c-1.2-0.6-2.4-1-3.5-1.7c-2.7-1.6-4.3-3.9-4.2-7.2C8.7,152.7,8.5,151.5,9.2,150.5z"/>
	<path class="st3" d="M78.9,100.3c0.3,1,0.6,2,1,3c0.4,1.3,1.1,2.5,2.1,3.4c0.8,0.7,1.6,1.1,2.7,1.1c1.5,0,3,0.2,4.3-0.7
		c0.2-0.1,0.5-0.1,0.8-0.1c0,0.3,0,0.6-0.1,0.8c-1.4,3.1-2.9,6.2-4.4,9.4c-0.5-0.8,0-1.3,0-1.8c0.1-0.7,0.2-1.4,0.3-2.1
		c0.1-0.6,0.2-1.2,0-2c-1.2,0.9-1.1,2.3-2,3.4c0-1,0-1.8,0-2.7c-0.6-0.1-0.6,0.3-0.7,0.6c-0.4,1.1-0.8,2.3-1.2,3.5
		c-1.1-1.7,0.1-3.4-0.3-5c-0.7,0.3-0.5,1.2-1,1.5c-0.4-0.1-0.5-0.4-0.6-0.8c-0.8-2.4-1.3-4.8-1.6-7.3
		C78.1,103.2,78.1,101.6,78.9,100.3z"/>
	<path class="st5" d="M160.2,110.4c-0.6,0-1.1,0-1.7,0c-0.6,0-0.8-0.3-0.6-0.8c0.8-1.5,1.3-3.2,1.6-4.9c0.1-0.5,0.4-0.8,0.8-0.8
		c2-0.2,4-0.6,6-0.6c1.1,0,2,0.4,2.4,1.5c0.6,1.5,1.8,2.7,1.9,4.4c-1.5,0.5-3.1,0.5-4.6,0.6C164.1,110,162.2,110.5,160.2,110.4z"/>
	<path class="st3" d="M60,137.4c0.5,0.3,1,0.6,1.5,0.9c0.7,0.5,1.6,0.8,2.4,0.8c1.4,0.1,2.9,0,4.3,0c0.7,0,1.2-0.4,1.8-0.6
		c0.6-0.3,1.1-0.7,1.8-0.5c0,0.4-0.3,0.7-0.5,0.9c-1.9,2.1-3.8,4.3-5.7,6.4c-0.3,0.3-0.6,0.7-1,0.7c-0.4-0.7,0.6-1.3,0.1-2.1
		c-0.8,0.3-1.2,1-1.7,1.5c-0.5,0.5-0.9,1.1-1.4,1.7c-0.2-0.9,0.7-1.6,0.2-2.4c0.3,0.1,0.4,0,0.2-0.3c-0.1,0.1-0.1,0.2-0.2,0.3
		c-0.7,0.2-0.9,0.9-1.3,1.3c-0.4,0.4-0.5,1-1.2,1.1c-0.2-1.2,1-2,0.9-3.2c0.2-0.1,0.3-0.3,0.1-0.5c-0.1,0.1-0.2,0.2-0.2,0.3
		c-0.1,0.1-0.3,0.1-0.4,0.2c-0.3,0.1-0.6,0.2-0.6-0.2C59.2,141.7,59,139.5,60,137.4z"/>
	<path class="st4" d="M172.8,108.1c1.7-2.5,2-5.5,2.3-8.4c0.4-3.5,0.5-7.1,1-10.7c0.3-2.5,0.9-5,1.5-7.6c0.2-1.2,0.3-2.4,1-3.5
		c-0.2,2.3-0.3,4.6-0.5,6.8c-0.2,2.5-0.5,5-0.7,7.5c-0.2,2.7-0.5,5.4-0.7,8.1c-0.1,1.2-0.1,2.4-0.1,3.6c0,1.1,0,2.1-0.1,3.2
		c0,0.5-0.2,0.8-0.7,1c-0.6,0.2-1.2,0.5-1.9,0.5C173.3,108.7,173,108.5,172.8,108.1z"/>
	<path class="st4" d="M68.5,177.6c1.7-0.9,3.6-1.2,5.5-1.8c3-0.9,6-1.8,8.8-3.2c0.4-0.2,0.8-0.4,1.1-0.6c0.6-0.3,0.8-0.8,0.8-1.4
		c0-0.9-0.2-1.8,0-2.8c1,1.3,1.6,2.9,2.3,4.3c0.2,0.5,0,0.8-0.4,1c-2.3,1.1-4.8,1.9-7.3,2.4c-3,0.6-6,1.2-9.1,1.7
		C69.7,177.6,69.1,177.6,68.5,177.6z"/>
	<path class="st5" d="M119.5,177.2c-0.5,0-0.6,0-0.7,0c-1-0.2-2.5,0.4-2.7-1c-0.5-2.7,0.1-4.4,1.8-5.3c0.4-0.2,0.8-0.2,1.2-0.1
		c1.1,0.4,1.8,1.1,2.2,2.2c0.3,1.1,0.1,2.3,0.2,3.4c0,0.3-0.3,0.5-0.5,0.6C120.3,177.1,119.6,177.2,119.5,177.2z"/>
	<path class="st5" d="M187.1,168.2c-0.1,0-0.3,0-0.4,0c-2-0.2-2.3-0.5-1.9-2.4c0.1-0.5,0.1-1,0.3-1.5c0.2-0.8,0.6-1.5,1.3-1.9
		c0.7-0.5,1.4-0.4,1.9,0.1c1.1,1.1,1.6,2.5,1.9,4c0.1,0.5-0.2,0.8-0.6,1.1C188.9,168.1,188.3,168.3,187.1,168.2z"/>
	<path class="st5" d="M179.1,169.8c-1.3,0-1.6-0.3-1.8-1.2c-0.4-1.8,1.3-4.2,3.2-4.1c0.9,0,1.6,0.3,1.9,1.1c1,2.2,1,3.2-1.7,3.9
		C180,169.7,179.3,169.7,179.1,169.8z"/>
	<path class="st5" d="M111.1,178c-0.4-0.1-1-0.1-1.5-0.2c-1.3-0.3-1.6-0.7-1.3-1.9c0.3-1.2,0.9-2.2,2.1-2.5c1.1-0.3,2,0.5,2.8,1.3
		c0.2,0.2,0.3,0.5,0.5,0.7c0.8,1.5,0.4,2.2-1.2,2.5C112,178,111.7,178,111.1,178z"/>
	<path class="st4" d="M91,175c3.8,1.3,7.7,1.3,11.6,1.2c1.4,0,2.7,0.1,3.9,0.7c-0.2,0.4-0.5,0.5-0.9,0.5c-3.8,0.3-7.7,0.5-11.5-0.1
		c-1.1-0.2-2.1-0.6-2.8-1.5C91.2,175.5,91.1,175.2,91,175z"/>
	<path class="st6" d="M125.4,101.9c-1.2-0.4-2.1-1.3-3.1-2.2c-0.1-0.1-0.1-0.3,0-0.3c0.1-0.1,0.3-0.1,0.4,0c1,0.5,2,1.1,2.8,1.9
		C125.5,101.5,125.5,101.7,125.4,101.9z"/>
	<path class="st4" d="M94.1,104.3c-0.2,1.8-0.6,2.7-1.7,3.9C92.6,106.8,93.2,105.5,94.1,104.3z"/>
	<path class="st4" d="M95.4,101.3c0,1.2-0.3,2.3-1.3,3C94.2,103.2,94.6,102.2,95.4,101.3z"/>
	<path class="st4" d="M92.3,108.2c0.1,1-0.4,1.8-1.2,2.4C91.4,109.7,91.7,108.9,92.3,108.2z"/>
	<path class="st4" d="M95.8,100c0.3,0.1,0.4,0.4,0.4,0.7c-0.3,0.2-0.6,0.4-0.9,0.6C95.3,100.8,95.4,100.4,95.8,100z"/>
	<path class="st6" d="M105.3,75.7c-0.1,0.3-0.2,0.6-0.6,0.5c-0.4-0.1-0.3-0.4-0.1-0.7C104.8,75.5,105,75.6,105.3,75.7z"/>
	<path class="st4" d="M129.4,105.2c-0.7,0.2-0.8-0.2-0.8-0.8C128.9,104.6,129.4,104.7,129.4,105.2z"/>
	<path class="st5" d="M178.2,46.5c-0.4-0.1-0.6-0.4-0.5-0.8C178.2,45.8,178.1,46.2,178.2,46.5z"/>
	<path class="st4" d="M90.6,174.2c0.3,0.2,0.5,0.4,0.5,0.8C90.7,174.9,90.7,174.5,90.6,174.2z"/>
	<path class="st3" d="M158.7,136c0-0.4,0-0.8,0.3-1.1C159.1,135.3,159.1,135.7,158.7,136z"/>
	<path class="st3" d="M89.8,107c0-0.3,0.2-0.4,0.4-0.5C90.2,106.7,90.1,106.9,89.8,107z"/>
	<path class="st3" d="M105.3,75.7c-0.2-0.1-0.5-0.1-0.7-0.2c0.2-0.2,0.3-0.5,0.6-0.3C105.3,75.2,105.2,75.5,105.3,75.7z"/>
	<path class="st4" d="M179.3,70.6c-0.1,0-0.3,0.1-0.4,0.1l0,0c0-0.2,0.2-0.3,0.4-0.3C179.3,70.4,179.3,70.6,179.3,70.6z"/>
	<path class="st5" d="M126.4,51.3c0,0.3-0.2,0.5-0.5,0.7C125.9,51.6,126,51.4,126.4,51.3z"/>
	<path class="st5" d="M126.8,50.9c0,0.3-0.2,0.5-0.5,0.5C126.4,51,126.5,50.9,126.8,50.9z"/>
	<path class="st5" d="M127.2,50.4c0,0.3-0.1,0.5-0.5,0.5C126.8,50.6,127,50.4,127.2,50.4z"/>
	<path class="st5" d="M127.7,50c0.1,0.4-0.1,0.5-0.5,0.5C127.2,50.2,127.4,50,127.7,50z"/>
	<path class="st3" d="M71.7,138c0.1-0.3,0.3-0.4,0.6-0.5C72.2,137.8,72,138,71.7,138z"/>
	<path class="st2" d="M130.7,148.2c-0.1,0.1-0.2,0.3-0.3,0.4C130.4,148.4,130.4,148.2,130.7,148.2z"/>
	<path class="st4" d="M10.8,16.1c0.1-0.5,0.5-0.6,0.9-0.6C11.6,16,11.2,16,10.8,16.1z"/>
	<path class="st7" d="M160.1,63.9c-0.3,0.7-0.5,1.3-0.7,1.9c-1,2.5-2.7,4.6-4.9,6.1c-3.5,2.3-7.2,2.4-11.1,0.8
		c-2.8-1.2-4.8-3.3-6.2-6c-2.3-4.6-2.6-9.4-0.5-14.1c1.9-4.3,5.3-6.9,10-7.6c1.5-0.2,2.9,0.1,4.2,0.5c2.4,0.7,4.4,2.1,6,4
		c0.3,0.4,0.6,0.8,1,1.1c0.2,0.2,0.6,0.1,0.7-0.2c0.3-1,0.5-1.9,0.8-2.9c0.5-1.7,1.4-3.2,2.5-4.5c1.4-1.7,3.1-2.7,5.4-2.6
		c2,0.1,3.5,1.1,4.8,2.6c1.2,1.4,2,3,2.5,4.7c1.5,4.8,1.4,9.6-0.3,14.3c-0.7,1.8-1.7,3.5-3.2,4.8c-2.6,2.3-5.8,2.3-8.3-0.1
		c-0.6-0.5-1.1-1.1-1.5-1.8C161,64.6,160.8,64.2,160.1,63.9z M145.3,54.9c0.1-1.6-0.7-2.9-2.1-3.3c-0.3-0.1-0.7-0.2-1-0.1
		c-1.6,0.5-2.9,2.6-2.6,4.2c0.1,0.5,0.3,1,0.7,1.3c0.7,0.6,1.5,1,2.5,1.1c0.8,0.1,1.4-0.2,1.8-0.9C145.1,56.6,145.3,55.8,145.3,54.9
		z M166.5,50.2c0.1-0.7-0.3-1.7-1.2-2.4c-0.7-0.5-1.7-0.6-2.2-0.2c-1.7,1.4-2.5,4.2-0.3,6.1c0.8,0.7,1.7,0.6,2.5-0.2
		C166,52.7,166.4,51.7,166.5,50.2z"/>
	<path class="st5" d="M130.2,85.5c0-0.4,0.1-0.9,0.1-1.3c0.1-0.6-0.1-0.9-0.6-1.2c-0.6-0.3-1.3-0.6-1.8-1.1c-0.3-0.3-0.3-0.6-0.1-1
		c0.2-0.2,0.5-0.3,0.8-0.2c0.6,0.2,1.2,0.5,1.8,0.7c0.5,0.2,0.9,0.1,1-0.4c0.2-0.5,0.3-1,0.5-1.4c0.1-0.3,0.4-0.6,0.8-0.6
		c0.4,0,0.8,0.4,0.8,0.9c0,0.6-0.1,1.3-0.2,1.9c-0.1,0.5,0.1,0.8,0.5,1.1c0.7,0.4,1.4,0.7,1.9,1.4c0.1,0.1,0.1,0.3,0,0.4
		c0,0.1-0.2,0.2-0.3,0.2c-0.7,0.1-1.3-0.1-1.9-0.3c-0.6-0.2-0.9,0-1.2,0.5c-0.4,0.7-0.9,1.5-1.4,2.2c-0.1,0.2-0.3,0.3-0.5,0.1
		c-0.1-0.1-0.2-0.2-0.2-0.3C130.1,86.5,130.1,86,130.2,85.5C130.2,85.5,130.2,85.5,130.2,85.5z"/>
	<path class="st5" d="M121.9,120.1c-1.1-0.2-1.7-0.8-2.4-1.2c-0.6-0.4-0.8-0.3-1.3,0.2c-0.4,0.5-0.7,1.1-1.3,1.4
		c-0.4,0.2-0.8,0.3-1.2,0c-0.3-0.3-0.3-0.7-0.2-1c0.3-0.7,0.7-1.4,1.1-2.1c0.3-0.5,0.2-0.8-0.2-1.1c-0.5-0.4-1-0.8-1.5-1.3
		c-0.2-0.2-0.3-0.5-0.1-0.8c0.2-0.4,0.5-0.5,0.9-0.4c0.7,0.1,1.3,0.5,1.9,1c0.5,0.4,0.9,0.2,1.3-0.1c0.5-0.3,0.7-1.3,1.4-0.9
		c0.4,0.3,0,1.1-0.2,1.6c-0.4,0.9-0.2,1.6,0.4,2.4C121.1,118.4,121.6,119.1,121.9,120.1z"/>
	<path class="st4" d="M158.7,84.2c-0.1-0.4-0.3-0.8-0.3-1.2c0-0.3,0-0.6,0-0.8c0.1-0.3,0.3-0.5,0.6-0.5c0.2,0,0.4,0.1,0.6,0.2
		c0.5,0.3,0.4,1.4,1.2,1.3c0.6-0.1,1.1-0.6,1.7-0.9c0.2-0.1,0.4-0.2,0.6-0.2c0.1,0,0.2,0.2,0.2,0.3c-0.1,0.3-0.2,0.7-0.4,1
		c-0.3,0.5-0.7,1.1-1.1,1.6c-0.4,0.5-0.6,1.1-0.4,1.8c0.2,0.7,0.2,1.4,0.2,2.1c0,0.3,0,0.6-0.4,0.7c-0.3,0-0.5-0.2-0.7-0.5
		c-0.3-0.4-0.4-1.2-1-1.3c-0.6-0.2-0.9,0.6-1.4,0.8c-0.1,0-0.1,0.1-0.2,0.1c-0.3,0.2-0.7,0.3-1,0c-0.4-0.3-0.4-0.7-0.2-1.2
		c0.3-0.7,0.9-1.3,1.4-1.9C158.6,85.2,158.9,84.8,158.7,84.2z"/>
	<path class="st5" d="M97.8,122.4c-0.4-0.1-0.6-0.3-0.7-0.6c0-0.3,0-0.6,0.1-0.8c0.3-0.5,0.5-1,0.9-1.4c0.5-0.6,0.7-1.1,0.2-1.7
		c-0.2-0.3-0.3-0.6-0.4-1c-0.1-0.4,0-0.7,0.3-0.9c0.3-0.3,0.6-0.2,1,0c0.5,0.3,0.7,1.1,1.4,0.9c0.5-0.1,0.8-0.5,1.3-0.8
		c0.4-0.2,0.7-0.5,1.1-0.7c0.1,0,0.3,0,0.4,0.1c0.1,0.1,0.1,0.3,0.1,0.4c-0.2,0.4-0.4,0.8-0.6,1.1c-0.3,0.4-0.5,0.9-0.8,1.3
		c-0.3,0.5-0.4,0.9-0.1,1.4c0.1,0.2,0.2,0.4,0.2,0.6c0.1,0.5,0.7,1.2,0.2,1.6c-0.7,0.5-1.1-0.4-1.5-0.7c-0.4-0.3-0.8-0.2-1.1,0.1
		c-0.4,0.4-0.7,0.7-1.1,1C98.3,122.3,98,122.3,97.8,122.4z"/>
	<path class="st4" d="M144.8,103.7c-0.6-0.9-0.9-1.5-1.3-2c-0.2-0.3-0.5-0.3-0.7-0.1c-0.4,0.3-0.8,0.6-1.3,0.8
		c-0.2,0.1-0.5,0.2-0.8,0.2c-0.5,0.1-0.9-0.5-0.7-1c0.3-0.7,0.9-1.2,1.4-1.6c0.7-0.5,0.8-1.2,0.4-1.9c-0.2-0.6-0.5-1.2-0.7-1.8
		c-0.1-0.3,0-0.7,0.4-0.9c0.4-0.2,0.7,0,1,0.2c0.4,0.4,0.7,0.9,0.9,1.4c0.5,1,0.6,1,1.6,0.4c0.7-0.4,1.4-0.8,2-1.2
		c0.1,0,0.3,0,0.4,0.1c0.1,0.1,0.1,0.3,0,0.4c-0.7,0.8-1.4,1.6-2.2,2.3c-0.7,0.6-0.9,1.3-0.6,2.1C144.9,101.9,145,102.6,144.8,103.7
		z"/>
	<path class="st5" d="M82.6,148.1c0.3,0.6-0.1,1-0.3,1.4c-0.1,0.3-0.3,0.5-0.4,0.8c-0.9,1.9-1.3,1.8-0.2,3.7
		c0.1,0.1,0.1,0.3,0.1,0.4c0,0.1,0,0.3-0.1,0.4c-0.1,0.1-0.3,0.2-0.3,0.1c-1.2-1.1-2.2-0.6-3,0.5c-0.1,0.2-0.3,0.3-0.5,0.4
		c-0.5,0.3-1.1,0-1.1-0.5c0-0.3,0-0.7,0.1-1c0.2-0.4,0.4-0.7,0.7-1.1c0.4-0.6,0.3-1.2-0.1-1.8c-0.2-0.3-0.5-0.7-0.7-1.1
		c-0.1-0.3,0-0.6,0.2-0.8c0.2-0.2,0.5-0.3,0.8-0.2c0.4,0.2,0.7,0.5,1.1,0.7c0.7,0.5,0.8,0.5,1.5-0.1
		C81.2,149.4,81.7,148.5,82.6,148.1z"/>
	<path class="st4" d="M108.9,153.3c-0.4,0-0.7-0.2-1-0.4c-0.9-0.5-0.9-0.5-1.7,0.1c-0.4,0.4-0.8,0.8-1.3,1.1c-0.3,0.2-0.7,0.2-1-0.1
		c-0.3-0.3-0.4-0.6-0.3-1c0.1-0.3,0.3-0.7,0.5-0.9c1.2-1.2,1.1-2.3-0.1-3.4c-0.1-0.1-0.2-0.3-0.3-0.5c-0.2-0.3-0.2-0.7,0.1-1
		c0.3-0.3,0.7-0.3,1-0.1c0.3,0.2,0.6,0.4,0.9,0.6c1.1,1.3,1.5,1.4,2.7,0.2c0.1-0.1,0.2-0.2,0.4-0.2c0.1,0,0.3,0.2,0.3,0.2
		c-0.1,0.5-0.2,1-0.4,1.4c-0.4,0.8-0.5,1.6,0,2.4c0.2,0.3,0.3,0.8,0.4,1.2C109.1,153,108.9,153.2,108.9,153.3z"/>
	<path class="st4" d="M128.9,59.5c-0.2,1.2-1,2-1.6,3c-0.6,0.8-0.8,1.6-0.4,2.6c0.3,0.8,0.7,1.6,0.6,2.7c-0.6-0.8-1.1-1.4-1.6-2
		c-0.3-0.3-0.6-0.3-0.9-0.1c-0.3,0.3-0.6,0.6-1,0.8c-0.5,0.4-1.1,0.4-1.4,0.1c-0.4-0.4-0.3-0.9-0.1-1.4c0.2-0.4,0.4-0.8,0.7-1.1
		c0.6-0.6,0.6-1.2,0.1-1.9c-0.2-0.2-0.3-0.5-0.4-0.8c-0.1-0.4,0-0.7,0.3-0.9c0.3-0.2,0.5-0.2,0.8,0c0.2,0.1,0.3,0.2,0.5,0.4
		c1,0.8,1,0.8,1.9,0.1c0.4-0.4,0.8-0.8,1.3-1.1C128.3,59.6,128.6,59.4,128.9,59.5L128.9,59.5z"/>
	<path class="st4" d="M172.5,120.7c-0.4,1.3-0.8,2.2-1.4,2.9c-0.6,0.8-0.8,1.6-0.3,2.5c0.2,0.4,0.3,0.8,0.5,1.2
		c0.1,0.3,0.3,0.6,0.1,0.8c-0.4,0.3-0.6-0.2-0.8-0.4c-0.2-0.1-0.3-0.3-0.4-0.5c-0.9-0.9-0.9-0.9-2.1-0.1c-0.2,0.1-0.4,0.2-0.5,0.3
		c-0.3,0.1-0.6,0.1-0.8-0.1c-0.1-0.1-0.3-0.4-0.2-0.6c0-0.3,0.1-0.8,0.3-1c0.9-1,0.6-2-0.1-2.9c-0.2-0.2-0.3-0.5-0.4-0.7
		c-0.2-0.4-0.1-0.9,0.3-1.1c0.4-0.3,0.7-0.1,1,0.1c0.5,0.4,0.9,0.9,1.3,1.4c0.4,0.4,0.7,0.4,1.1,0.1
		C170.7,122,171.3,121.2,172.5,120.7z"/>
	<path class="st4" d="M183.1,148.5c-0.7,0-0.9-0.3-1.3-0.5c-1.2-0.7-1.1-0.7-2,0.4c-0.3,0.3-0.6,0.7-0.9,0.9c-0.2,0.2-0.5,0.2-0.8,0
		c-0.2-0.2-0.4-0.4-0.4-0.7c0-0.7,0.4-1.4,0.6-2c0.2-0.5,0.1-0.8-0.3-1.1c-0.4-0.3-0.8-0.6-1.2-0.9c-0.3-0.2-0.5-0.5-0.5-0.9
		c-0.1-0.5,0.4-1,0.9-0.9c0.7,0.1,1.1,0.6,1.7,0.9c0.9,0.5,1,0.5,1.6-0.2c0.4-0.4,0.5-1.2,1.3-1.1c0.2,0.6-0.1,1.1-0.3,1.7
		c0,0.1,0,0.3-0.1,0.4c-0.5,0.9-0.1,1.6,0.4,2.3C182.3,147.2,182.9,147.6,183.1,148.5z"/>
	<path class="st5" d="M123.6,128.1c-0.1,0.9-0.4,1.4-0.7,2c-0.6,1.1-0.8,2.1,0.1,3.2c0.3,0.4,0.5,0.9,0.7,1.3
		c0.1,0.2-0.1,0.4-0.1,0.6c-0.7-0.1-1.1-0.7-1.7-1c-0.4-0.3-0.8-0.3-1.2,0.1c-0.3,0.3-0.6,0.6-0.9,0.9c-0.3,0.2-0.7,0.3-1,0
		c-0.3-0.3-0.3-0.6-0.2-1c0.2-0.5,0.4-0.9,0.7-1.3c0.2-0.4,0.2-0.8-0.1-1.2c-0.3-0.3-0.6-0.6-0.9-0.9c-0.2-0.3-0.4-0.6-0.2-1
		c0.2-0.5,0.7-0.5,1.1-0.5c0.5,0.1,0.9,0.4,1.3,0.7c0.4,0.3,0.8,0.2,1.1-0.1C122.2,129.3,122.6,128.4,123.6,128.1z"/>
	<path class="st4" d="M170.1,155.3c0,0.1,0,0.3-0.1,0.4c-0.8,0.7-1.2,1.6-0.6,2.7c0.1,0.2,0.1,0.4,0.1,0.6c0,0.1-0.1,0.2-0.2,0.3
		c0,0-0.2,0-0.2,0c-0.1-0.1-0.2-0.2-0.3-0.3c-0.9-0.9-0.9-0.9-2.1-0.3c-0.3,0.1-0.5,0.2-0.8,0.3c-0.4,0.1-0.7,0-0.9-0.3
		c-0.2-0.3-0.2-0.7,0-1c0.3-0.3,0.6-0.6,0.9-0.9c0.8-0.6,0.7-0.6,0.3-1.6c-0.3-0.6-0.6-1.2-0.8-1.8c-0.1-0.2,0-0.6,0.1-0.8
		c0.2-0.5,0.9-0.6,1.3-0.1c0.4,0.6,0.8,1.2,1.1,1.8c0.4,0.8,0.8,1.1,1.7,0.8C169.7,155.1,170,155.1,170.1,155.3z"/>
	<path class="st4" d="M65.2,173.7c-0.6,0-1.1-0.4-1.5-0.7c-0.5-0.2-0.8-0.1-1.1,0.3c-0.3,0.4-0.6,0.8-1,1.1
		c-0.4,0.2-0.8,0.3-1.2-0.1c-0.3-0.3-0.3-0.6-0.1-1c0-0.1,0.1-0.1,0.1-0.2c0.8-1,1.2-1.9-0.1-2.8c-0.1-0.1-0.1-0.2-0.2-0.4
		c-0.1-0.3-0.1-0.6,0.1-0.8c0.2-0.3,0.5-0.4,0.8-0.3c0.6,0.2,1.1,0.5,1.8,0.8c0.7-0.9,1.4-1.7,2.1-2.6c0.5,0.3,0.2,0.6,0.1,0.9
		c-0.3,0.7-0.5,1.5-0.9,2.2c-0.2,0.6-0.2,1.1,0.2,1.6C64.7,172.4,65.3,172.9,65.2,173.7L65.2,173.7z"/>
	<path class="st4" d="M101.8,165.1c-0.2,1-0.9,1.8-1.4,2.6c-0.4,0.7-0.5,1.3,0.1,1.9c0.2,0.3,0.4,0.6,0.6,0.9c0,0.1,0,0.3-0.1,0.4
		c-0.1,0.1-0.3,0.1-0.4,0c-1.1-0.9-2-0.9-2.9,0.2c-0.2,0.2-0.5,0.3-0.8,0.3c-0.2,0-0.4,0-0.6-0.2c-0.1-0.1-0.1-0.4-0.2-0.6
		c0-0.1,0-0.2,0.1-0.2c1.2-1.3,0.6-2.2-0.5-3.2c-0.3-0.2-0.3-0.6-0.1-1c0.2-0.3,0.6-0.4,1-0.3c0.5,0.3,1,0.6,1.5,0.9
		c0.4,0.3,0.8,0.2,1.2-0.1c0.5-0.4,0.9-0.9,1.4-1.3C101,165.3,101.3,165,101.8,165.1L101.8,165.1z"/>
	<path class="st4" d="M178.5,71.1c-0.4,0.9-1.3,1.5-2,2.2c-0.6,0.5-0.7,1-0.4,1.7c0.3,0.6,0.6,1.1,0.6,1.9c-0.8-0.2-1-0.9-1.5-1.4
		c-0.4-0.4-0.7-0.6-1.3-0.3c-0.5,0.3-1,0.6-1.6,0.6c-0.2,0-0.4-0.1-0.5-0.3c-0.1-0.2-0.1-0.4,0-0.6c0.1-0.2,0.2-0.4,0.4-0.5
		c1.3-0.6,1.3-1.5,0.5-2.5c-0.3-0.4,0-0.9,0.3-1.1c0.3-0.2,0.7-0.1,1,0.1c0.1,0.1,0.2,0.2,0.3,0.3c0.4,0.4,0.5,1.2,1.2,1.1
		c0.5-0.1,1-0.5,1.5-0.7C177.4,71.3,177.9,70.9,178.5,71.1C178.5,71.1,178.5,71.1,178.5,71.1z"/>
	<path class="st4" d="M31.8,170.7c0.2,0.6-0.2,1.1-0.5,1.6c-0.4,0.9-0.4,1.6,0.3,2.3c0.2,0.2,0.4,0.6,0.6,0.9c0,0-0.2,0.3-0.2,0.3
		c-0.5-0.2-0.9-0.4-1.4-0.6c-0.3-0.1-0.6-0.1-0.8,0.2c-0.3,0.4-0.6,0.8-0.9,1.2c-0.3,0.3-0.6,0.4-1,0.2c-0.3-0.1-0.4-0.7-0.2-1.1
		c0.1-0.2,0.2-0.4,0.3-0.5c0.6-0.9,0.6-0.9-0.1-1.6c-0.7-0.8-0.7-1.1-0.4-1.4c0.5-0.4,0.9-0.2,1.4,0.1c1,0.5,1,0.5,1.7-0.3
		C31.1,171.3,31.2,170.7,31.8,170.7z"/>
	<path class="st6" d="M121.2,98.7c0.1,0,0.1,0,0.2,0.1C121.3,98.8,121.3,98.7,121.2,98.7L121.2,98.7z"/>
	<path class="st6" d="M121.2,98.7c0,0-0.1-0.1-0.1-0.1C121.1,98.7,121.2,98.7,121.2,98.7C121.2,98.7,121.2,98.7,121.2,98.7z"/>
	<path class="st4" d="M148.3,95.7c-0.1,0.1-0.2,0.1-0.2,0.2c0,0,0-0.1,0.1-0.1C148.2,95.7,148.3,95.7,148.3,95.7L148.3,95.7z"/>
	<polygon class="st4" points="148.4,95.7 148.5,95.6 148.3,95.7 	"/>
	<path class="st4" d="M178.9,70.7c-0.1,0.2-0.2,0.4-0.4,0.4c0,0,0,0,0,0C178.5,70.8,178.7,70.7,178.9,70.7
		C179,70.7,178.9,70.7,178.9,70.7z"/>
	<path class="st4" d="M129,59.5c0-0.1,0-0.2,0.1-0.2C129.2,59.4,129.1,59.4,129,59.5C128.9,59.5,129,59.5,129,59.5z"/>
	<path class="st4" d="M101.8,165.1c0-0.1,0-0.2,0.1-0.2C102,164.9,102,165,101.8,165.1C101.8,165.1,101.8,165.1,101.8,165.1z"/>
	<path class="st4" d="M65.2,173.7c0.1,0,0.1,0.1,0.2,0.1c0,0-0.1,0-0.1,0C65.2,173.8,65.2,173.7,65.2,173.7
		C65.2,173.7,65.2,173.7,65.2,173.7z"/>
	<path class="st6" d="M83.3,163.8c-0.1-0.1-0.1-0.1-0.2-0.2c0,0,0.1,0,0.1,0C83.2,163.7,83.3,163.7,83.3,163.8
		C83.3,163.8,83.3,163.8,83.3,163.8z"/>
	<path class="st6" d="M143.1,140.2c2.8,0,5.6,0.5,8.3,1c0.3,0.1,0.7,0.2,1,0.3c0.3,0.1,0.6,0.3,0.6,0.6c0,0.5-0.5,0.5-0.8,0.4
		c-0.9-0.1-1.9-0.1-2.8-0.2c-3.1-0.5-6.2-0.9-9.4-0.8c-0.3,0-0.6-0.1-0.8-0.2c-0.1,0-0.1-0.2-0.2-0.3c0,0,0-0.1,0.1-0.2
		c0.2-0.1,0.5-0.3,0.8-0.3C141,140.3,142,140.2,143.1,140.2z"/>
	<path class="st6" d="M143.6,135.1c2.1,0.3,4.3,0.3,6.5,0.7c1.1,0.2,2.2,0.6,3.1,1.3c0.1,0.1,0.1,0.2,0.1,0.4c0,0.3-0.2,0.3-0.4,0.3
		c-1.1-0.2-2.2-0.5-3.3-0.7c-2.4-0.4-4.8-0.7-7.2-0.8c-0.3,0-0.6,0-0.8-0.1c-0.1,0-0.2-0.2-0.2-0.3c0-0.1,0-0.3,0.1-0.4
		C142.1,135.1,142.8,135.1,143.6,135.1z"/>
	<path class="st6" d="M156.1,132.5c-0.4,0.4-0.8,0.2-1.2,0.1c-2.9-0.7-5.9-1.1-8.9-1.2c-0.6,0-1.3-0.1-1.9-0.2
		c-0.2,0-0.4-0.2-0.4-0.4c0-0.3,0.2-0.5,0.5-0.5c4.1-0.4,8,0.1,11.7,2C156,132.2,156,132.4,156.1,132.5z"/>
	<path class="st6" d="M148.9,148.1c-1.2-0.1-2.8-0.3-4.3-0.3c-1.9-0.1-3.9,0-5.8,0.2c-0.8,0.1-1.6,0.1-2.4,0.2
		c-0.3,0-0.6,0.1-0.7-0.3c-0.1-0.5,0.4-0.5,0.7-0.6c0.1-0.1,0.3-0.1,0.4-0.1c4.2-0.8,8.5-0.8,12.8-0.5c0.1,0,0.3,0,0.4,0.1
		c1.2,0.2,1.8,0.6,1.6,1c-0.4,0.7-1.2,0.3-1.7,0.4C149.7,148.2,149.5,148.1,148.9,148.1z"/>
	<path class="st0" d="M106.6,62.1c0-0.1,0.1-0.2,0.1-0.3C106.9,62,106.8,62.1,106.6,62.1C106.6,62.1,106.6,62.1,106.6,62.1z"/>
	<path class="st4" d="M101.8,92.5c0.2-0.5,0.5-1,0.7-1.5c0.1-0.1,0.3-0.2,0.3-0.2c0.2,0.1,0.3,0.3,0.2,0.5c-0.2,0.5-0.4,0.9-0.6,1.3
		C102.2,92.6,102,92.5,101.8,92.5z"/>
	<path class="st1" d="M101.8,94c-0.1,0.1-0.1,0.2-0.2,0.3c-0.1-0.1-0.2-0.2-0.2-0.3c0-0.2,0.1-0.4,0.3-0.3
		C101.8,93.7,101.8,93.9,101.8,94z"/>
	<path class="st1" d="M101.8,92.5c0.2,0.1,0.5,0.1,0.7,0.2C102,93.1,102,93.1,101.8,92.5z"/>
	<polygon class="st1" points="105.9,89.6 105.9,89.4 106,89.4 	"/>
	<path class="st1" d="M106.4,88.4c0,0.1,0.1,0.1,0.1,0.2c-0.1,0.2-0.2,0.2-0.3,0C106.2,88.5,106.3,88.5,106.4,88.4z"/>
	<path class="st0" d="M19.3,161.4c-0.1-0.2-0.2-0.4-0.2-0.6c0-0.1,0.1-0.2,0.2-0.2c0,0,0.1,0.1,0.2,0.1c0.1,0.1,0.1,0.3,0.2,0.4
		C19.5,161.2,19.4,161.3,19.3,161.4z"/>
	<path class="st0" d="M60,143.9c0.1-0.1,0.2-0.2,0.2-0.3c0.2,0.2,0.1,0.3-0.1,0.5C60.1,144,60,144,60,143.9z"/>
	<path class="st0" d="M61.7,144.8c0.1-0.1,0.1-0.2,0.2-0.3C62.1,144.8,62,144.9,61.7,144.8C61.7,144.8,61.7,144.8,61.7,144.8z"/>
	<path class="st5" d="M145.3,54.9c0,0.9-0.3,1.7-0.7,2.4c-0.4,0.7-1,0.9-1.8,0.9c-1-0.1-1.8-0.5-2.5-1.1c-0.4-0.3-0.6-0.8-0.7-1.3
		c-0.3-1.6,1-3.7,2.6-4.2c0.4-0.1,0.7-0.1,1,0.1C144.6,52.1,145.4,53.3,145.3,54.9z"/>
	<path class="st5" d="M166.5,50.2c-0.1,1.5-0.5,2.5-1.2,3.3c-0.8,0.8-1.7,0.9-2.5,0.2c-2.2-1.9-1.4-4.7,0.3-6.1
		c0.5-0.4,1.5-0.3,2.2,0.2C166.2,48.5,166.6,49.5,166.5,50.2z"/>
</g>
</svg>
