<?xml version="1.0" encoding="utf-8"?>
<!-- Generator: Adobe Illustrator 27.9.0, SVG Export Plug-In . SVG Version: 6.00 Build 0)  -->
<svg version="1.1" id="Layer_1" xmlns="http://www.w3.org/2000/svg" xmlns:xlink="http://www.w3.org/1999/xlink" x="0px" y="0px"
	 viewBox="0 0 200 200" style="enable-background:new 0 0 200 200;" xml:space="preserve">
<style type="text/css">
	.st0{fill:#4A5258;}
	.st1{fill:#ED8D4A;}
	.st2{fill:#FDF6B0;}
	.st3{fill:#609178;}
	.st4{fill:#D8EAAD;}
	.st5{fill:#D4E8AD;}
	.st6{fill:#629379;}
	.st7{fill:#FEFEFE;}
	.st8{fill:#FDDF64;}
	.st9{fill:#FCDF64;}
	.st10{fill:#FDF5AF;}
	.st11{fill:#FBF6B8;}
	.st12{fill:#4A5157;}
	.st13{fill:#495057;}
	.st14{fill:#F5F5F6;}
</style>
<g>
	<path class="st0" d="M52.1,71.9c0.2-0.4,0-0.7-0.3-1c-1-1.2-1.6-2.6-2-4.1c-0.1-0.4-0.3-0.9-0.1-1.3c0.5-1-0.1-1.6-0.6-2.4
		c-5.3-7.3-6-15-2.6-23.1c0.5-1.2,1.2-2.3,2.3-3.2c1.5-1.3,3.5-1.2,4.8,0.3c0.7,0.8,1.1,1.8,1.5,2.9c0.8,2.5,1.5,5,2.6,7.4
		c1.1,2.4,3,4.1,5.2,5.5c0.2,0.1,0.3,0.2,0.5,0.1c1.3-0.8,2.4-0.1,3.5,0.5c0.2,0.1,0.4,0.2,0.8,0.4c-1.2-4.4-2.4-8.7-3.4-13
		c-1.3-5-3.3-9.9-4.5-14.9c-0.4-1.7-0.9-3.5-1.1-5.2c-0.2-2.7,1.3-4.4,4.3-4.6c1.7-0.1,3.3,0.4,4.8,1.1c5,2.6,9.4,5.9,13.4,9.6
		c0.3,0.3,0.5,0.6,1,0.7c1.4-2.7,2.2-5.7,2.5-8.7c0.4-3.3,0.4-6.6-0.4-9.8c-0.2-0.9-0.3-1.8-0.4-2.6c-0.2-1.7,0.5-2.7,2.4-3.2
		c1.7-0.4,3.3,0,4.9,0.6c3.4,1.3,6.3,3.4,8.8,5.9c4.6,4.5,8.1,9.6,9.7,15.7c0.3,0,0.4-0.2,0.6-0.3c7.6-7.2,16.7-12.3,26.8-15.9
		c1.7-0.6,3.6-1,5.4-1.3c2.5-0.4,3.9,0.6,4.2,3c0.2,1.5-0.3,2.9-0.9,4.3c-2.3,5.3-5.1,10.4-7.9,15.4c-3.4,6.1-6.7,12.3-8.5,19
		c-0.1,0.4-0.2,0.7-0.3,1.1c0,0.1-0.1,0.2-0.1,0.2c0.1,0,0.2,0,0.3-0.1c1.3-0.9,2.7-1.6,4.4-1.1c0.5,0.2,0.8-0.2,1.1-0.5
		c3-2.6,4.7-5.7,4.7-9.5c0-0.7-0.1-1.4,0-2.2c0.2-2.5,2.8-3.7,5.1-2.4c1.1,0.6,1.8,1.5,2.4,2.5c1.6,2.9,2.3,6.1,2.2,9.3
		c-0.1,4-0.8,7.9-3.3,11.3c-0.8,1.1-1.4,2-0.7,3.3c0.3,0.6,0.1,1.3-0.1,2c-0.1,0.4-0.2,0.7,0,1.1c-0.6,0.3-1.1,0.8-1.5,1.3
		c-0.2,0-0.3-0.1-0.4-0.3c-3.4-5.4-8.5-8.8-14.8-10.9c-1-0.3-2-0.7-3-0.5c-3.7,0.5-7.3,1-10.7,2.5c-0.6,0.3-0.9,0.5-0.7,1.2
		c0.4,1.8,0.5,3.6,0.3,5.4c-0.1,0.7-0.1,1.6-0.9,2c-1.8,1.2-3.7,2.3-5.9,2.8c-6.9,1.5-13-0.2-18-4.7c-1.1-1-2.4-1.8-3.9-2.4
		c-1.5-0.7-3.1-1.3-4.8-1.8c-3.3-0.9-6.5-1.9-9.9-2.4c-0.6-0.4-1.1-0.3-1.5,0.2c-0.6,0.6-1.3,1.1-1.9,1.6
		c-4.9,4.1-9.3,8.6-12.9,13.7C53.6,72.9,52.9,72.3,52.1,71.9z M137.3,55.2c-0.6-1.2-1.9-1.8-2.7-2.7c-2.1-2.2-4.6-1-6,1.1
		c-0.4,0.3,0,0.3,0.2,0.4c0.9,0.3,1.8,0.5,2.6,0.8c3.4,1.2,6.3,3,8.8,5.4c1.1,1,1.9,2.2,3.1,3.4c0-1-0.1-1.7-0.5-2.4
		c-0.4-1-1.3-1.6-2-2.3C139.6,57.7,138.7,56.2,137.3,55.2z M58.6,59.5c-2.3,1.7-4.3,3.5-6.3,5.5c-0.5,0.5-0.8,1.1-0.7,1.9
		c0.2,1.3,0.9,2.4,1.5,3.8c0.5-0.8,1.2-1.2,1.3-1.9c0.9-0.5,1.3-1.4,1.9-2.1c2.2-2.7,4.9-5,7.6-7.3c1.3-1.1,2.8-2.1,4.2-3.1
		c-0.9-0.6-1.8-1.1-2.8-1.5c-0.5-0.2-0.9-0.1-1.3,0.2C62.2,56.4,60.4,58,58.6,59.5z M91.2,62.1c0.3,0.7,1,1.1,1.6,1.5
		c0.2,0.1,0.4,0.4,0.6,0.3c0.4-0.1,0.2-0.5,0.2-0.7c0.1-2,0-4,0.2-5.9c0.2-2,0-4.1,0-6.2c0.1-1,0.3-2.1,0.4-3.1
		c0.1-0.4,0.1-0.8,0.7-0.8c0.3,1.2,0.2,2.4,0.3,3.7c0.4,4.6,0.3,9.1-0.2,13.7c0,0.3,0,0.6,0.4,0.8c1.5,0.8,3.2,1.2,4.9,1.2
		c-0.4-5.8-1.6-11.3-2.4-17.1c0.6,0.3,0.6,0.7,0.7,1c1.4,5.1,2,10.3,2.9,15.5c0.1,0.3-0.1,0.8,0.5,0.8c1.3,0,2.5,0.1,3.8-0.1
		c0.6-0.1,0.8-0.3,0.5-0.9c-0.3-0.5-0.6-1.1-0.7-1.6c-0.9-4.7-2.8-9.2-4.3-13.8c-0.1-0.3-0.5-0.6,0-0.8c0.4-0.1,0.5,0.3,0.6,0.6
		c0.5,1.3,1.1,2.6,1.6,3.9c1.6,3.7,3.2,7.3,4,11.2c0.1,0.6,0.4,0.8,1.1,0.6c0.9-0.3,1.7-0.6,2.6-0.9c0.4-0.1,0.4-0.2,0.4-0.6
		c-0.4-2.2-0.6-4.5-1.4-6.6c-1.3-3.6-3.4-6.8-5.9-9.8c-1-1.1-1.9-2.3-3.2-3.2c0-0.1,0-0.2-0.1-0.3c-1.6-1.7-3.7-2.8-5.6-4.2
		c-0.4-0.3-0.5,0-0.6,0.3c-0.5,1.2-1,2.4-1.4,3.6c-2,5.2-3.5,10.5-3.5,16.1C89.9,61.1,90.2,61.8,91.2,62.1z M87.8,27.2
		c0-0.4,0.1-0.9,0-1.3c-0.1-1.1-0.2-2.2,0-3.3c0.1-0.4,0.1-0.8,0.6-0.9c0.5-0.2,0.7,0.3,0.9,0.6c0.2,1.4,0.5,2.9,0.7,4.3
		c0.7,3.9,2.2,7.5,4,11c0.2,0.3,0.3,0.6,0.7,0.5c0.5-0.1,0.2-0.5,0.1-0.7c-0.7-1.9-1.5-3.9-2-5.9C92,28,91.2,24.6,91.2,21
		c0-0.3-0.1-0.8,0.4-0.9c0.5-0.1,0.6,0.4,0.7,0.8c0,0.1,0,0.2,0.1,0.3c0.7,3.2,1.3,6.3,2,9.5c0.5,2.5,1.8,4.7,2.9,7.1
		c0.3,0.6,0.7,1,1.5,1.1c-0.1-0.5-0.3-0.9-0.4-1.3c-0.8-4.9-2.3-9.6-4.2-14.2c-0.2-0.4-0.5-0.9,0.1-1.2c0.6-0.3,0.9,0.1,1.3,0.5
		c1.1,1.6,1.8,3.4,2.4,5.1c1.2,3.3,2.1,6.6,2.6,10.4c0.4-0.7,0.6-1.1,0.9-1.5c1-1.1,1.2-2.2,0.4-3.5c-0.3-0.5-0.4-1.2-0.5-1.8
		c-0.5-1.8-1-3.6-1.8-5.3c-1.2-2.6-2.4-5.2-3.9-7.6c-0.2-0.3-0.6-0.7-0.1-1.1c0.6-0.4,0.8,0.2,1.2,0.5c0.1,0.1,0.2,0.2,0.3,0.3
		c2.2,3,3.9,6.2,5,9.7c0.6,1.8,1.4,3.5,1.6,5.4c0.6-0.7,1.2-1.5,1.7-2.2c0.1-0.2,0.1-0.4,0-0.6c-1-1.9-1.3-4.1-2.1-6
		c-1.4-3.2-3.3-6.1-5.3-8.9c-0.6-0.8-1.3-1.7-1.6-2.8c2.9,1.1,8.5,10.7,9.9,17c0.7-0.8,1.3-1.6,2-2.4c0.2-0.3,0.3-0.5,0.1-0.8
		c-0.6-1.6-1.1-3.2-1.9-4.8c-1.9-3.7-4.4-7-7.4-10c-2.7-2.8-5.8-5.1-9.8-6.2c-0.9-0.2-1.8-0.6-2.7-0.1c-1.2,0-0.9,0.7-0.7,1.3
		c1,3.8,1.4,7.6,1,11.5c-0.4,3.4-1.1,6.7-2.5,9.9c-0.2,0.5-1.3,0.8-0.7,1.5c0.4,0.5,0.9,0.9,1.3,1.4c0,0,0.1,0,0.1,0
		c0.4,0.5,0.7,1.2,1.5,1.7c-0.1-0.3-0.1-0.4-0.1-0.5c-0.1-0.4-0.2-0.9,0.3-1.1c0.6-0.2,0.8,0.3,0.9,0.7c1.3,2.6,2.6,5.1,4.1,7.6
		c0.1,0.2,0.1,0.8,0.6,0.5c0.3-0.2,0.4-0.5,0.1-0.9c-0.4-0.4-0.8-0.9-1-1.3c-1.2-2.5-2.2-5-2.9-7.6C88.3,29.2,88.3,28.1,87.8,27.2z
		 M136.6,52.2c1.2,1.4,1.1,1.3,2.3,0c0.7-0.9,1.4-1.8,2.6-2.6c-0.5,1.7-1.1,3.1-2.4,4.1c-0.2,0.2-0.5,0.4-0.3,0.7
		c0.3,0.4,0.6,0.1,0.9-0.1c0.6-0.4,1-1,1.4-1.6c1-1.5,1.8-3,3.1-4.3c-0.3,1.2-0.7,2.4-1.2,3.6c-0.6,1.2-1.3,2.3-2.4,3.2
		c-0.2,0.2-0.7,0.3-0.4,0.6c0.3,0.3,0.6-0.1,0.8-0.2c1-0.8,1.9-1.6,3.1-2.5c-0.3,1.2-1,1.8-1.4,2.7c-0.3,0.7-1.6,0.8-1.1,1.7
		c0.4,0.6,1.1,1.1,1.7,1.7c0.3,0.4,0.5,0.3,0.7-0.1c1-1.6,2.1-3.2,2.6-5.1c0.3-1.2,0.4-2.3,0.6-3.5c0.5-3.9-0.1-7.5-1.9-11.1
		c-0.4-0.7-0.9-1.4-1.5-1.9c-0.6-0.5-1.2-0.7-2-0.2c-0.7,0-0.6,0.5-0.6,0.9c0,0.7,0,1.5,0,2.2c-0.2,3.8-1.7,7.2-4.8,9.8
		c-1.2,1.1-1.3,1,0.2,2C136.5,52.2,136.6,52.2,136.6,52.2z M102.9,41.7c0.2,0.9,1.4,1.1,1.8,1.9c0.1,0.2,0.3,0.5,0.7,0.5
		c0.3-0.1,0.3-0.5,0.4-0.7c0.8-2.8,1.8-5.4,3-8c0.4-1,1.2-1.8,1.3-2.9c0.8-0.7,1.2-1.8,2.2-2.3c0.3,1.2-0.2,2.2-0.6,3.2
		c-1.8,3.9-3.2,7.9-4.6,11.9c-0.1,0.2-0.1,0.5,0,0.7c0.9,1.2,1.9,2.5,2.8,3.8c0.1-0.2,0.2-0.2,0.2-0.3c1.6-7.1,4.2-13.9,7.8-20.4
		c0.8-1.4,1.7-2.7,3-3.8c0.2-0.1,0.3-0.3,0.6-0.2c0.1,0.1,0.1,0.3,0.1,0.5c-0.1,0.8-0.5,1.4-0.9,2.1c-1.9,3-3.3,6.3-4.7,9.5
		c-1.9,4.3-3.1,8.8-5,13.1c-0.2,0.4-0.2,0.9,0.1,1.3c0.8,1.1,1.3,2.4,1.9,3.6c0.1,0.3,0.2,0.9,0.7,0.8c0.5-0.1,0.7-0.5,0.8-1
		c0.4-1.9,0.8-3.8,1.2-5.7c1.1-4.6,2.9-8.9,4.7-13.3c1.4-3.6,3.1-7,5.3-10.2c0.4-0.6,0.9-1.1,1.3-1.6c0.2-0.3,0.6-0.3,0.9-0.1
		c0.3,0.2,0.2,0.5,0.1,0.7c-0.2,0.4-0.3,0.8-0.5,1.1c-2.5,4.3-4.6,8.8-6.5,13.4c-1.7,4.2-3.3,8.5-4.6,12.8c-0.3,1-0.7,2-1.1,3.1
		c0.7-0.3,1.2-0.5,1.7-0.6c2-0.4,3.3-1.3,3.5-3.3c0-0.3,0.1-0.5,0.2-0.8c3.3-8.5,7.4-16.7,12.2-24.6c0.6-1,1.1-2.1,2.4-2.7
		c0,0.5-0.2,0.9-0.4,1.3c-1.6,3.1-3.2,6.1-4.8,9.2c-3.1,6.2-6.1,12.4-8.5,18.8c-0.2,0.6-0.1,0.9,0.6,0.8c1.2-0.1,2.4-0.2,3.7-0.2
		c0.5,0,0.7-0.2,0.7-0.6c0.2-3.3,1.4-6.3,2.6-9.3c2-5.3,5-10.1,7.8-15.1c2.2-3.9,4.4-7.8,6.3-11.8c0.7-1.4,1.4-2.9,1.3-4.5
		c-0.1-1.2-0.3-1.4-1.6-1.4c-0.2-0.2-0.4-0.1-0.6-0.1c-1.9,0.1-3.5,1.2-5.2,1.8c-8.1,2.7-15.2,6.8-21.8,11.8
		c-4.9,3.7-8.4,8.4-11.8,13.3c-0.7,1-1.4,2.1-2.1,3.2c-0.2,0.2-0.4,0.6,0,0.8C101.8,41,102.2,41.6,102.9,41.7z M49.6,50.5
		c0.4,0.3,0.5,0.8,0.7,1.1c1.4,2.3,2.8,4.7,4.6,6.7c0.2,0.2,0.4,0.7,0.8,0.4c0.4-0.3-0.1-0.5-0.2-0.7c-1.2-1.4-1.8-3-2.3-4.7
		c0.5,0,0.6,0.4,0.8,0.6c0.9,1.1,1.8,2.2,2.7,3.4c0.3,0.3,0.5,0.5,0.9,0.2c1.2-1.2,2.7-2.1,4.1-3.2c-1.5-0.6-2.8-1.3-3.8-2.4
		c-2-2.2-3.1-4.8-3.8-7.6c-0.4-1.5-0.7-3-1.2-4.5c-0.3-0.9-0.6-1.9-2-1.9c-0.3-0.1-0.6,0.1-0.8,0.3c-0.7,0.6-1.3,1.4-1.7,2.3
		c-1.9,3.7-2.5,7.7-2.1,11.8c0.4,3.8,2,7.3,4.3,10.4c0.2,0.3,0.4,0.8,0.8,0.1c0.5-0.5,1-1.1,1.6-1.6c0.5-0.4,0.6-0.7,0-1.2
		c-0.9-0.8-1.5-1.8-1.9-2.9c0.5-0.1,0.6,0.2,0.7,0.4c0.7,0.8,1.3,1.6,2.1,2.2c0.2,0.1,0.4,0.3,0.6,0.1c0.2-0.2,0.1-0.4-0.1-0.5
		c-1.1-0.7-1.7-1.8-2.4-2.8C50.8,54.7,50,52.6,49.6,50.5L49.6,50.5z M69.3,53.2c0.6,1.3,2.7,2.3,4.7,2.2c0.7,0,0.7-0.2,0.5-0.7
		c-0.7-1.7-1.3-3.4-1.9-5c-0.1-0.4-0.4-0.9,0.1-1.1c0.6-0.3,0.9,0.3,1.1,0.7c0.8,1.9,1.9,3.7,2.1,5.8c0,0.3,0.1,0.6,0.5,0.6
		c1.4,0.2,2.7,0.6,4.2,0.7c-0.3-0.6-0.5-1-0.7-1.5c-1.2-3.1-2.3-6.2-4-9.1c-1.6-2.7-3.1-5.4-4.7-8c-0.2-0.3-0.4-0.7,0-0.9
		c0.4-0.2,0.7,0,1,0.3c0.7,0.9,1.4,1.8,2.1,2.7c2.1,2.9,3.7,6.1,5.2,9.3c1.1,2.3,2.4,4.6,2.5,7.2c0,0.4,0.2,0.6,0.6,0.7
		c1.4,0.4,2.8,1,4.3,1.6c-0.2-0.5-0.4-0.8-0.5-1.1c-1.3-3.7-2.6-7.4-4.4-10.9c-1.8-3.4-3.6-6.9-6.1-9.9c-2-2.4-4.1-4.9-6.1-7.3
		c-0.3-0.4-0.8-0.8-0.4-1.2c0.5-0.5,0.9,0.1,1.2,0.3c1.9,1.4,3.4,3.2,4.9,4.9c4.2,4.6,7.1,10,9.6,15.5c0.8,1.9,1.7,3.8,2.5,5.7
		c0.1-0.1,0.2-0.2,0.3-0.3c0.4-1.7,0.8-3.4,1.2-5.1c0.1-0.3,0-0.5-0.1-0.8c-1.1-1.7-1.9-3.5-2.9-5.2c-2.6-4.4-5.7-8.4-9.3-12.1
		c-0.7-0.7-1.6-1.4-1.7-2.6c3.7,1.9,6.2,4.9,8.6,7.9c2.4,3.1,4.5,6.4,6.1,10.1c0.6-1.4,1-2.7,1.5-3.9c0.2-0.5,0-0.8-0.3-1.2
		c-1.2-1.5-2.4-2.9-3.6-4.4c-0.4-0.5-0.6-1.2-1.4-1.4c0-0.3-0.2-0.5-0.3-0.7c-4.8-5.5-10.2-10.5-16.7-14.3c-1.4-0.8-2.8-1.6-4.4-1.9
		c-2.7-0.6-4.1,0.6-3.6,3.1c0.5,2.4,1.1,4.8,1.8,7.1c1.9,6.1,3.5,12.3,4.7,18.6C67.8,49.3,68.1,51.4,69.3,53.2z"/>
	<path class="st1" d="M52.1,71.9c0.8,0.4,1.5,1,2.5,1c-0.5,1.2-1.7,2-2.4,3.1c-2.8,4.3-4.9,8.9-6.7,13.6c-0.1,0.2-0.3,0.4,0.1,0.7
		c1.4-1.1,2.9-2.1,4.3-3.2c0.5-0.3,1-1.1,1.6-0.6c0.5,0.4,0,1.1-0.3,1.6c-0.8,1.4-2.2,2.4-3.4,3.5c-0.6,0.6-1.1,1.2-1.4,1.9
		c-0.5,1.3-1,2.6-1.5,3.9c-2.4,6.3-3.5,12.8-3.1,19.4c0,0.5,0,1.1,0,1.6c0,0.5,0,1,0,1.5c1.4-3.1,2.9-6.1,5.2-8.6
		c0.5-0.6,1-1.2,1.7-1.6c0.3-0.2,0.6-0.5,1-0.2c0.4,0.3,0.1,0.6,0,0.9c-0.3,0.6-0.6,1.2-1,1.7c-1.5,2.1-2.5,4.3-2,7
		c0.7,3.8,0.9,7.7,1.8,11.4c1.6,6.1,4.6,11.5,8.5,16.6c0.5,0.7,1.2,1.3,1.8,1.9c0.6-0.6,1.2-1.3,1.9-1.9c0.1-0.1,0.1-0.1,0.2-0.2
		c0.1-0.1,0.1-0.2,0.2-0.2c0,0,0,0,0,0c0.3,0,0.4-0.4,1-0.1c-2,3.9-1.4,8.1-0.9,12.2c0.5,4.4,3,7.9,5.7,11.3
		c0.6-0.9,1.1-1.7,1.6-2.4c1.9-2.2,3.7-4.4,5.9-6.4c0.4-0.4,0.4-0.6,0-1c-0.6-0.7-1.2-1.5-1.8-2.2c-0.6-0.7-0.6-1.4-0.4-2.3
		c0.2,0.2,0.3,0.3,0.4,0.4c1.6,1.8,3.2,3.6,5.4,4.9c0.5,0.3,0.9,0.7,1.3,1.2c1.9,1.9,3.6,3.9,4.9,6.2c0.2,0.4,0.4,0.5,0.8,0.3
		c2.2-1,4.2-2.1,5.9-3.6c1.9-1.7,3.7-3.4,5.8-4.8c0.8-0.5,1.6-1,2.7-1.2c-1.1,1.5-2.2,2.9-3.3,4.3c-0.3,0.4-0.4,0.5,0.2,0.7
		c1.1,0.4,2.1,0.8,3.2,1.2c3.9,1.6,8.2,2.8,11.4,5.7c0.3,0.3,0.6,0.2,0.7-0.2c0.4-0.9,1.2-1.6,1.9-2.3c1.6-1.4,3.1-2.9,4.5-4.4
		c0.6-0.6,0.4-0.9-0.2-1.4c-1.3-1-2.4-2-3.7-3.1c0.3-0.3,0.5-0.2,0.7-0.2c2.3,0.4,4.5,1.3,6.4,2.6c2.5,1.6,5.1,2.9,8.1,3.6
		c0.8,0.2,1,0,1.2-0.7c0.6-2.6,1.3-5.3,1.8-7.9c0.4-1.9,1-3.8,1.1-5.8c0.7-1.6,0.9-3.4,1.5-5.1c0.1-0.2-0.1-0.4-0.2-0.7
		c-0.4-1.1-0.9-2.2-0.8-3.4c0-0.4,0.2-0.8,0.6-0.9c0.5-0.1,0.7,0.2,0.9,0.6c0.1,0.2,0.2,0.4,0.2,0.6c0.8,1.9,1.8,3.7,3.2,5.4
		c1.3-2.6,2.6-4.9,4.3-7.2c2-2.7,3.7-5.5,5.1-8.4c0.6-1.3,1.3-2.5,1.6-3.9c0.8-1.4,1.2-2.9,1.6-4.4c0.9-3.6,2.1-7.1,1.3-10.9
		c-0.1-0.3-0.1-0.7,0.3-0.8c0.4-0.1,0.7,0,1,0.3c0.6,0.7,1.1,1.5,1.4,2.3c0.4,1,0.8,2,1.2,3c0.2-0.8,0.3-1.7,0.3-2.5
		c0.1-3.7,0.1-7.4-0.4-11.1c-0.3-2.3-0.7-4.6-1.6-6.8c-0.9-3.1-1.7-6.2-3.5-9c-0.3-0.4-0.6-0.8-0.1-1.2c0.4-0.3,0.8-0.1,1.2,0.1
		c0.5,0.3,1,0.7,1.5,1c0,0,0.1,0,0.1,0c0,0-0.1,0-0.1,0c0-0.3,0-0.7-0.1-1c-0.8-3.5-1.9-7-3.6-10.3c-1-2-2.2-3.9-3.7-5.6
		c-0.1-0.4-0.3-0.7-0.5-1c-0.9-1.4-1.8-2.9-2.7-4.3c0.4-0.5,0.9-0.9,1.5-1.3c0.5,0.2,0.7,0.6,1,1c4.4,5.9,8.5,11.9,10.2,19
		c0.9,3.4,1.5,6.8,1.1,10.3c-0.2,1.6,0.4,3,0.7,4.4c1.6,8,2.2,15.9,0.1,23.9c-0.3,1-0.6,1.8-1.6,2.5c-0.9-2-1.6-4-2-6.1
		c-0.2,1-0.4,1.9-0.6,2.9c-2.2,8.7-6.1,16.6-12.6,23.4c-0.8,0.9-1.8,1.7-2.3,2.9c-0.2,0.5-0.5,0.2-0.8,0.1c-0.6-0.2-1.1-0.9-1.6-0.6
		c-0.5,0.3-0.4,1.1-0.5,1.6c-0.3,1.5-0.6,3-1,4.5c0.2,0,0.3,0,0.3,0c2.8-2.7,6.4-3.8,10.3-4.5c2.2-0.4,4.4-0.9,6.3-2
		c3.6-2.1,5.8-6.4,5.1-10.3c-0.1-0.4-0.3-0.6-0.5-0.9c-0.7-0.9-1.2-1.8-1.5-2.8c-0.1-0.4-0.2-0.8,0.2-1c0.4-0.2,0.7-0.1,1,0.1
		c0.4,0.3,0.7,0.7,1.1,1c0.2-1,0-2,0.3-2.9c0.1-0.4,0-0.9,0.6-1.1c0.6-0.1,0.9,0.3,1.2,0.8c0.1,0.2,0.2,0.4,0.3,0.6
		c0.9-0.5,1.7-1,2.8-1.1c1.9-0.2,3.9,0.8,4.9,2.6c1.9,3.2,2,6.6,1,10.1c-0.2,0.7-0.1,1,0.7,1c0.5,0,0.9,0.2,0.9,0.7
		c0,0.5-0.5,0.6-0.9,0.8c-0.8,0.2-1.8,0.1-2.1,1.2c-0.1,0.5-0.2,0.8,0.1,1.2c0.6,0.8,1.5,1.6,1.8,2.5l0,0c-1.1-0.1-1.7-0.9-2.5-1.4
		c-0.3-0.2-0.6-0.4-0.9,0c-2.6,3.4-6.5,4.9-10.6,6.1c-2.1,0.7-4.2,1.2-6.3,1.7c-3.9,1-7.3,2.5-9.5,5.8c0.6,0.2,0.9-0.3,1.2-0.6
		c2.2-1.4,4.6-2.2,7.2-1.9c4.7,0.4,7.8,4.7,6.6,9.1c-0.3,1-0.7,2-1.1,3c-0.1,0.1-0.1,0.1,0,0.2c0,0,0.1-0.1,0.1-0.1
		c1.3-0.2,2.7-0.5,4.1-0.4c4.8,0.6,7.3,3.7,6.3,8.1c-0.6,2.8-2.1,5.2-4.8,6.8c-2.7,1.6-4.9,3.7-7.3,5.6c-2.9,2.4-6.2,3.8-10.3,3.5
		c-1.4-0.1-2.7-0.4-4-0.8c-3.5-1.1-7.1-1.7-10.9-1.5c-1.3,0.1-2.5,0-3.6-0.8c-0.3-1.3-1.1-2.3-2.2-3c-0.3-2.1,0.4-3.9,2.1-5.4
		c0.3-0.3,0.8-0.5,0.9-1c1.9-1.7,3.3-3.7,4.6-5.8c2.2-3.5,4.3-7.2,6.8-10.6c1.1-1.5,1-3.4-0.5-4.6c-0.1-0.1-0.2-0.3-0.4-0.4
		c-0.2-0.2-0.5-0.6-0.8-0.5c-0.4,0.1-0.2,0.5-0.3,0.8c-0.3,1.2-0.6,2.4-1,3.6c-0.4,1.3-0.8,1.3-2.2,1.3c-3.2,0-6.1-1-8.8-2.5
		c-1-0.5-1.4-0.2-1.7,0.6c-0.3,0.2-0.5,0.5-0.8,0.7c-1.4,1.7-3,3.3-4.7,4.8c-0.8,0.7-1.7,1.4-2.8,1.2c-1.5-0.2-2.9-0.7-4.3-1.2
		c-3.9-1.5-7.6-3.1-11.3-4.9c-2.1-1-2.1-1-3.8,0.5c-1.9,1.6-4,2.8-6.5,3.4c-0.3,0.1-0.6,0.2-0.9,0c-1.8-1.4-3.7-2.7-5-4.5
		c-0.8-1.1-1.8-2-2.7-3c-0.7-0.8-1-0.5-1.5,0.1c-2,2.6-4.3,5-6.3,7.7c-1,1.4-2.9,1.4-4.2,0.3c-1.1-1-2.1-2-3-3.1
		c-0.8-1.8-1.5-3.6-2.3-5.4c-0.1,0.1-0.3,0.1-0.4,0.2c-2.2,2.3-2,4.2,0.7,6.5c0.1,0.2,0.2,0.5,0.3,0.7c1.4,2.3,2.8,4.5,4.2,6.8
		c0.8,1.2,1.3,2.5,2.4,3.5c1.1,1.7,2.3,3.2,3.8,4.6c1.4,1.2,2.3,2.6,2.4,4.4c-0.8,1.5-1.6,3.1-2.8,4.4c-0.8,0.4-1.6,0.6-2.5,0.5
		c-4.2-0.2-8.2,0.5-12.2,1.7c-5,1.5-9.4,0.5-13.3-2.7c-2.8-2.3-5.7-4.5-8.6-6.6c-3-2.1-4.3-5.3-3.8-8.9c0.4-3.4,4.4-5.7,8.5-5.1
		c0.7,0.1,1.4,0.2,2.2,0.4c0-0.5-0.3-0.9-0.4-1.3c-1-2.2-1.2-4.5-0.2-6.8c1.5-3.3,4.8-4.8,9-4.1c2.2,0.4,4.1,1.4,5.8,2.8
		c0.3,0.3,0.7,0.5,1.1,0.9c0.4-1.8,1.4-3,3-3.7c0.4-0.2,0.4-0.5,0.3-0.9c-0.6-2.6-0.8-5.2-0.4-7.9c0.1-0.4-0.1-0.7-0.5-1
		c-1.5-1.6-2.8-3.3-4.2-4.9c-4.5-5.4-6.8-11.6-8-18.2c-0.5-2.8-0.5-5.6-0.9-8.7c-1.2,2.9-2.3,5.5-3.4,8.3c-0.4-2.3-0.9-4.2-1.2-6.2
		c-1.1-7.9-0.6-15.8,2.4-23.4c0.1-0.2,0.1-0.3,0.1-0.5c0.1-0.1,0.2-0.2,0.1-0.3c-0.1,0.1-0.1,0.2-0.2,0.2c-0.8,0.5-1.3,1.3-2.1,2.1
		c-0.3-1.3,0.2-2.3,0.6-3.3c0.2-0.6,0.4-1.2,0.4-1.8c0-2.7,1.3-5.2,2.2-7.7c1.9-4.9,4.1-9.6,7.4-13.9C51.5,72.5,51.8,72.2,52.1,71.9
		z M140.2,158.7c0.1-0.1,0.2-0.1,0.2-0.2c0,0,0-0.1,0-0.1c0.3,0,0.6-0.1,0.8-0.3c1.6-1.2,3.5-1.9,5.5-2.5c3.5-1.1,7.2-1.7,10.6-3
		c2.4-0.9,4.7-1.9,6.4-3.9c0.6-0.7,0.5-1-0.2-1.6c-1.1-0.9-1.1-1.2-0.1-2.3c0.7-0.1,1.3-0.2,2-0.2c0.4,0,0.6-0.2,0.7-0.6
		c0.6-1.9,0.9-3.9,0.6-5.9c-0.2-1.5-0.5-3-1.5-4.2c-0.7-1-2-1.4-3.1-1c-1.3,0.4-1.9,1.3-1.9,2.5c0.1,0.9,0,1.8,0.2,2.8
		c0.1,0.6-0.1,1.1-0.8,1.3c-0.6,0.1-0.7,0.5-0.7,1c0,1.8-0.6,3.4-1.4,5c-0.7,1.2-1.7,2.1-2.4,3.2c-0.3,0-0.4,0.3-0.6,0.4
		c-2.4,1.7-5.1,2.6-8,3.1c-1.8,0.3-3.6,0.6-5.3,1.1c-3.2,1-5.4,3-6.9,5.7c-0.4,0.7-0.5,1.4,0.6,1.8c0.8,0.3,1.5,0.8,2,1.4
		c0.4,0.4,0.6,0.4,0.8-0.1c0.5-1.1,1.2-2.1,2.1-3C140.1,158.9,140.1,158.8,140.2,158.7L140.2,158.7z M65.4,191.8c1,0,1.7,0,2.4,0
		c2.6-0.1,3.2-1.9,2.4-3.6c-0.8-1.5-1.5-3.1-3-4.3c-1.3-1-2.2-2.2-3.1-3.5c-2.2-3.4-4.3-6.9-6.6-10.2c-1.8-2.7-4-5.2-7.2-6.7
		c-2.2-1-4.6-1.2-6.7,0.2c-1.9,1.3-2.4,3.2-2.1,5.2c0.5,2.4,1.3,4.7,3.2,6.6c0.4,0.4,0.7,0.7,1,1.1c0.3,0.3,0.4,0.6,0.1,0.9
		c-0.3,0.4-0.7,0.3-1.1,0.1c-0.2-0.1-0.3-0.2-0.5-0.3c-2-1-3.8-2.2-6.2-2.5c-2.8-0.4-5.7,1.1-5.9,3.3c-0.3,3.1,0.8,5.7,3.6,7.5
		c2.4,1.5,4.6,3,6.6,4.8c1.3,1.1,2.6,2.1,4.2,2.8c3,1.3,5.9,1,8.9,0.1C58.9,192.4,62.2,191.7,65.4,191.8z M161.7,179.7
		c0-2.8-1-4.1-3.2-4.7c-1.7-0.4-3.4-0.4-5,0.3c-1.4,0.6-2.9,1.3-4.2,2.1c-0.4,0.2-0.9,0.5-1.3,0.1c-0.4-0.5,0-0.8,0.3-1.2
		c0-0.1,0.1-0.1,0.1-0.2c2.3-2.2,3.6-4.9,3.9-7.8c0.3-2.9-1.5-5.6-5.2-5.7c-2.7-0.1-4.8,1.1-6.7,2.7c-3.3,2.7-5.2,6.3-7.4,9.7
		c-1.8,2.8-3.3,5.9-5.9,8.2c-1.5,1.4-2.5,3-3.5,4.7c-0.8,1.4-0.3,2.9,1.1,3.5c0.6,0.3,1.2,0.2,1.9,0.2c4.2-0.2,8.2,0.5,12.1,1.7
		c4.3,1.3,8.1,0.6,11.5-2.1c2.4-2,4.7-4,7.5-5.5C160.5,184.3,161.5,181.9,161.7,179.7z M156.9,95.8L156.9,95.8L156.9,95.8
		L156.9,95.8z"/>
	<path class="st0" d="M121,190.4c1.1,0.8,1.9,1.8,2.2,3c-1.3-0.4-2.7-0.3-4-0.9c-0.2-0.1-0.4,0.1-0.6,0.2c-3,1.9-6.4,2.7-9.9,2.7
		c-8.3,0-16.5,0.2-24.8-0.1c-3-0.1-5.9-0.9-8.5-2.5c-0.2-0.1-0.5-0.4-0.8-0.2c-1.4,0.7-3.1,0.4-4.4,1.2c1.2-1.3,2-2.9,2.8-4.4
		c0,0.1,0.1,0.3,0,0.4c-0.2,0.9,0.2,1,0.9,0.6c1.1-0.5,2.2-1.2,3.2-1.9c2.2-1.5,3.7-3.4,3.9-6c0.1-1.1,0.3-2.2,0.5-3.2
		c0.1-0.4,0.3-0.8,0.8-0.9c0.6-0.1,0.8,0.3,1,0.7c0,0.3,0.1,0.6,0.1,1c0,0.2,0,0.5,0,0.7c0,1.7,0.4,2.2,2.2,2.5
		c0.3,0.1,0.7,0.1,1,0.2c3.7,0.2,7.3,0.4,11,0.4c0.5,0.2,1-0.1,1.5-0.1c3.6,0,7-0.9,10.6-1.2c0.5,0,0.7-0.2,0.7-0.7c0-1,0-2.1,0-3.1
		c0-0.3-0.1-0.5-0.5-0.6c-1.4-0.5-2.8-1-4.3-1.5c0-0.2,0.1-0.5-0.2-0.5c-0.3,0-0.2,0.3-0.2,0.5c-2.1-0.4-4.2-0.1-6.3,0.2
		c0-0.3-0.2-0.4-0.5-0.4c-0.4,0-0.4,0.3-0.4,0.6c-0.1,0.2-0.3,0.2-0.5,0.2c0-0.2,0.1-0.5-0.3-0.6c-0.5,0-0.4,0.3-0.4,0.6
		c-0.7-0.2-1.3-0.4-2-0.6c0.2-0.5,0.6-0.9,0.7-1.5c0.5,0.1,0.8,0.3,1.1,0.7c0,0.3,0.1,0.5,0.5,0.3c0.2-0.1,0.1-0.3-0.1-0.4
		c0.2-0.1,0.3-0.2,0.5-0.3c0.5,0.5,0.7,0.2,0.7-0.3c0.4-0.2,0.7-0.3,1.1-0.3c0.3,0.3,0.4,0.2,0.5-0.1c0.4,0,0.7-0.1,1.1-0.1
		c0.9,0.3,1.7,0.6,2.5-0.1c0.7,0,1.4-0.1,2,0.2c0.2,0.3,0.4,0.6,0.7,0.1c0.1,0,0.3,0.1,0.4,0.1c0,0.2-0.3,0.4,0,0.5
		c0.4,0.2,0.5-0.2,0.7-0.3l0,0c0.1,0,0.2,0.1,0.3,0.1l0,0c0,0.1,0,0.1,0,0.2c0,0,0.1-0.1,0.1-0.1c0.1,0,0.1,0.1,0.2,0.1
		c0,0.1,0.1,0.2,0.1,0.3c0,0,0.1-0.1,0.1-0.1c0.2,0,0.5,0.1,0.6,0.3c0.1,0.8,0.5,1.2,1.4,1.2c1.5,1.3,2.6,2.8,2.5,4.9
		c0,0.3,0.1,0.7,0.2,1c0.3,1.4,0.7,2.7,1.8,3.8c1.5,1.5,3.3,2.8,5.3,3.7C120.3,190.5,120.7,190.8,121,190.4z M82.9,185.2
		c-1,2.2-0.9,2.5,1.8,2.9c3.9,0.6,7.9,0.6,11.9,0.2c0.8,0.1,1.6-0.2,2.4-0.2c4.1-0.2,8.2-0.2,12.2-0.8c0.4-0.1,0.7-0.1,0.4-0.5
		c-0.4-0.8-0.7-1.7-0.9-2.6c-0.1-0.5-0.4-0.4-0.7-0.3c-3.2,1-6.5,1-9.8,1.2c-4.3,0.2-8.6,0.1-12.9-0.2c-1.2-0.1-2.4-0.2-3.4-0.8
		c-0.4-0.2-0.7-0.3-0.7,0.3C83.1,184.6,83,184.9,82.9,185.2z M79.4,190c-1,0.3-1.6,1-2.6,1.5c2.4,1.2,4.8,1.9,7.4,2
		c4.7,0.1,9.4-0.3,14-0.3c3.8,0.1,7.7,0.3,11.5,0.2c2.4,0,4.5-0.7,6.6-1.5c0.8-0.3,0.7-0.6,0-0.9c-1.1-0.6-2-1.4-2.8-2.1
		c-0.6-0.5-1.1-0.6-1.8-0.3c-0.9,0.5-2,0.7-3,0.7c-4.4,0.2-8.8,0.3-13.2,0.6c-3.1,0.2-6.2-0.1-9.3-0.2c-1.5-0.1-3.1-0.3-4.4-1.2
		c-0.4-0.3-0.7-0.2-1.1,0.1C80.3,189.1,79.7,189.4,79.4,190z M107.7,176.2c-0.1-0.3-0.3-0.2-0.5-0.2c-0.2,0-0.5,0.1-0.4,0.3
		c0,0.3,0.3,0.3,0.5,0.2C107.5,176.5,107.6,176.5,107.7,176.2z M101.1,175.4c-0.2,0-0.2,0.1-0.2,0.3c0,0.2,0.1,0.2,0.3,0.2
		c0.2,0,0.3-0.1,0.3-0.3C101.4,175.4,101.3,175.4,101.1,175.4z M100.3,175.5c-0.1,0-0.1-0.1-0.2-0.1c0,0-0.1,0.1-0.1,0.2
		c0.1,0,0.1,0.1,0.2,0.1C100.3,175.7,100.3,175.6,100.3,175.5z"/>
	<path class="st1" d="M169.3,150.9C169.3,150.9,169.3,151,169.3,150.9C169.3,150.9,169.3,150.9,169.3,150.9
		C169.3,150.9,169.3,150.9,169.3,150.9z"/>
	<path class="st2" d="M143.5,66.5c0.9,1.4,1.8,2.9,2.7,4.3c0.2,0.3,0.5,0.6,0.5,1c-0.5,0.3-0.8,0.7-1.2,1.1
		c-1.5,1.6-3.4,2.7-5.8,2.6c-3.3-0.1-6.3-1-9.2-2.6c-1.2-0.7-1.7-0.5-2,0.8c-0.2,1.2-0.4,2.4-0.7,3.6c-0.7,3.7-3.1,5-6.7,4.7
		c-4.6-0.3-8.8-1.7-12.5-4.4c-0.8-0.6-1.6-1.2-2.8-1.2c-1.7,0-3,0.7-4.2,1.7c-1,0.8-1.8,1.8-2.7,2.7c-2.4,2.4-4.9,3.4-7.8,1.6
		c-1.6-1-2.8-2.3-3.8-3.8c-0.9-1.4-1-3-1.5-4.5c-0.5-1.4-0.6-1.4-2-1.1c-1.5,0.3-2.7,1-4,1.7c-1.9,1-3.6,2.5-5.4,3.6
		c-2.1,1.2-4.5,1.2-5.6-1.4c-0.8-1.9-0.7-3.8-0.1-5.7c0.3-1,0.1-1.2-1-0.9c-1.1,0.2-2.2,0.6-3.2,1.1c-2.2,1-4.1,2.5-6.3,3.4
		c1.3-2.6,2.9-5,4.6-7.3c1.9-2.6,4.3-4.8,6.5-7.3c0.7-0.8,1.5-1.6,1.7-2.7c3.4,0.6,6.6,1.5,9.9,2.4c1.6,0.5,3.2,1.1,4.8,1.8
		c1.4,0.6,2.7,1.4,3.9,2.4c5.1,4.5,11.1,6.2,18,4.7c2.2-0.5,4.1-1.6,5.9-2.8c0.7-0.5,0.8-1.3,0.9-2c0.1-1.8,0.1-3.6-0.3-5.4
		c-0.2-0.7,0.1-0.9,0.7-1.2c3.4-1.5,7-2,10.7-2.5c1.1-0.1,2.1,0.2,3,0.5c6.2,2.1,11.4,5.5,14.8,10.9
		C143.2,66.4,143.3,66.5,143.5,66.5z"/>
	<path class="st3" d="M142.9,10c1.3,0,1.5,0.2,1.6,1.4c0.1,1.6-0.6,3.1-1.3,4.5c-1.9,4-4.1,7.9-6.3,11.8c-2.8,5-5.8,9.8-7.8,15.1
		c-1.1,3-2.4,6-2.6,9.3c0,0.4-0.3,0.6-0.7,0.6c-1.2,0-2.4,0.1-3.7,0.2c-0.7,0.1-0.8-0.2-0.6-0.8c2.3-6.5,5.4-12.7,8.5-18.8
		c1.5-3.1,3.2-6.1,4.8-9.2c0.2-0.4,0.4-0.8,0.4-1.3c-1.3,0.6-1.8,1.7-2.4,2.7c-4.8,7.9-8.9,16.1-12.2,24.6c-0.1,0.3-0.2,0.5-0.2,0.8
		c-0.2,2-1.5,2.9-3.5,3.3c-0.5,0.1-1,0.4-1.7,0.6c0.4-1.1,0.7-2.1,1.1-3.1c1.4-4.3,2.9-8.6,4.6-12.8c1.9-4.6,4-9,6.5-13.4
		c0.2-0.4,0.4-0.7,0.5-1.1c0.1-0.3,0.2-0.5-0.1-0.7c-0.3-0.2-0.7-0.1-0.9,0.1c-0.5,0.5-0.9,1.1-1.3,1.6c-2.2,3.2-3.9,6.7-5.3,10.2
		c-1.8,4.4-3.6,8.8-4.7,13.3c-0.5,1.9-0.9,3.8-1.2,5.7c-0.1,0.5-0.3,0.9-0.8,1c-0.5,0.1-0.6-0.5-0.7-0.8c-0.6-1.2-1.2-2.4-1.9-3.6
		c-0.3-0.4-0.2-0.9-0.1-1.3c1.9-4.3,3.1-8.8,5-13.1c1.4-3.2,2.8-6.5,4.7-9.5c0.4-0.7,0.8-1.3,0.9-2.1c0-0.2,0-0.4-0.1-0.5
		c-0.2-0.2-0.4,0-0.6,0.2c-1.3,1.1-2.2,2.4-3,3.8c-3.6,6.5-6.2,13.3-7.8,20.4c0,0.1-0.1,0.1-0.2,0.3c-1-1.3-1.9-2.5-2.8-3.8
		c-0.2-0.2-0.1-0.5,0-0.7c1.5-4,2.9-8,4.6-11.9c0.5-1,1-2.1,0.6-3.2c1.8-1.9,3.9-3.6,6-5.3c4.7-3.8,10.1-6.5,15.5-9.3
		C137,13.9,140.3,12.4,142.9,10z"/>
	<path class="st4" d="M70.9,57.4c-0.2,1.1-1,1.9-1.7,2.7c-2.1,2.4-4.5,4.7-6.5,7.3c-1.7,2.3-3.3,4.7-4.6,7.3c-0.9,0.9-1.3,2-1.9,3.1
		c-1.1,2-2,4.1-2.8,6.2c-0.1,0.3-0.4,0.6,0,0.9c1.3,1,1.4,1.6,0.7,3c-0.6,1.2-1.6,2.3-1.8,3.6c-0.3,2.3-1,4.5-1.8,6.7
		c-1.1,3.3-2.2,6.6-2.9,10c-0.2,0.7-0.1,1.2,0.9,0.9c0.9-0.2,1.8-0.8,2.8-0.2c0.7,1,0.3,2,0.3,3.1c-0.1,4.6,0,9.2,1.1,13.7
		c0.5,1.9,0.6,4,1.5,5.8c0.5,2.1,1.3,4.2,2.1,6.2c1.3,3.2,3.3,6.1,4.2,9.4c-0.6,0.6-1.2,1.3-1.9,1.9c-0.6-0.6-1.3-1.2-1.8-1.9
		c-3.9-5.1-6.9-10.5-8.5-16.6c-1-3.8-1.2-7.6-1.8-11.4c-0.5-2.7,0.5-4.9,2-7c0.4-0.5,0.7-1.1,1-1.7c0.1-0.3,0.4-0.7,0-0.9
		c-0.4-0.3-0.7,0-1,0.2c-0.7,0.4-1.1,1.1-1.7,1.6c-2.3,2.6-3.8,5.5-5.2,8.6c0-0.5,0-1,0-1.5c0-0.5,0-1.1,0-1.6
		c-0.4-6.7,0.7-13.1,3.1-19.4c0.5-1.3,1-2.6,1.5-3.9c0.3-0.8,0.8-1.4,1.4-1.9c1.2-1.1,2.6-2.1,3.4-3.5c0.3-0.5,0.8-1.1,0.3-1.6
		c-0.6-0.5-1.1,0.2-1.6,0.6c-1.5,1-2.9,2.1-4.3,3.2c-0.4-0.2-0.2-0.5-0.1-0.7c1.7-4.7,3.9-9.3,6.7-13.6c0.7-1.1,1.9-1.9,2.4-3.1
		c3.6-5.1,8-9.6,12.9-13.7c0.6-0.5,1.3-1,1.9-1.6C69.8,57.2,70.3,57,70.9,57.4z"/>
	<path class="st3" d="M86,35.5c0.7,0.3,0.9,0.9,1.4,1.4c1.2,1.5,2.4,2.9,3.6,4.4c0.3,0.4,0.5,0.7,0.3,1.2c-0.5,1.2-1,2.5-1.5,3.9
		c-1.6-3.7-3.7-7-6.1-10.1c-2.4-3-4.9-6-8.6-7.9c0.1,1.2,1,1.9,1.7,2.6c3.5,3.8,6.7,7.8,9.3,12.1c1,1.7,1.8,3.5,2.9,5.2
		c0.2,0.3,0.2,0.5,0.1,0.8c-0.4,1.7-0.8,3.4-1.2,5.1c0,0.1-0.1,0.1-0.3,0.3c-0.9-1.9-1.7-3.8-2.5-5.7c-2.5-5.6-5.3-10.9-9.6-15.5
		c-1.5-1.7-3-3.5-4.9-4.9c-0.3-0.2-0.7-0.8-1.2-0.3c-0.5,0.5,0.1,0.9,0.4,1.2c2,2.4,4.1,4.8,6.1,7.3c2.5,3,4.3,6.5,6.1,9.9
		c1.8,3.5,3.1,7.2,4.4,10.9c0.1,0.3,0.3,0.6,0.5,1.1c-1.5-0.6-2.9-1.2-4.3-1.6c-0.3-0.1-0.6-0.3-0.6-0.7c-0.1-2.6-1.4-4.9-2.5-7.2
		c-1.5-3.2-3.2-6.3-5.2-9.3c-0.6-0.9-1.4-1.8-2.1-2.7c-0.2-0.3-0.6-0.5-1-0.3c-0.4,0.2-0.2,0.6,0,0.9c1.6,2.7,3.1,5.4,4.7,8
		c1.7,2.9,2.8,6,4,9.1c0.2,0.5,0.5,0.9,0.7,1.5c-1.5-0.1-2.9-0.4-4.2-0.7c-0.4-0.1-0.5-0.3-0.5-0.6c-0.2-2.1-1.3-3.9-2.1-5.8
		c-0.2-0.4-0.5-0.9-1.1-0.7c-0.4,0.2-0.2,0.7-0.1,1.1c0.6,1.7,1.2,3.4,1.9,5c0.2,0.5,0.2,0.7-0.5,0.7c-2,0-4.1-0.9-4.7-2.2
		c0.7-0.5,0.7-1.3,0.6-2c-0.1-3.4-0.4-6.8-1-10.2c-1-6.4-2.6-12.7-4.3-18.9c-0.1-0.2-0.2-0.5,0.1-0.7c3.8,1.2,7,3.3,10.2,5.4
		c3.4,2.2,6.3,5,9.3,7.7C84.7,34.9,85.1,35.5,86,35.5z"/>
	<path class="st3" d="M86.5,5.5c0.9-0.5,1.8-0.1,2.7,0.1c4,1.1,7.1,3.5,9.8,6.2c3,3,5.5,6.3,7.4,10c0.8,1.5,1.4,3.2,1.9,4.8
		c0.1,0.3,0.1,0.6-0.1,0.8c-0.7,0.8-1.3,1.5-2,2.4c-1.4-6.2-7-15.9-9.9-17c0.2,1.1,0.9,1.9,1.6,2.8c2,2.8,3.9,5.7,5.3,8.9
		c0.9,2,1.1,4.1,2.1,6c0.1,0.2,0.1,0.4,0,0.6c-0.5,0.7-1,1.5-1.7,2.2c-0.2-1.9-1-3.6-1.6-5.4c-1.2-3.5-2.8-6.7-5-9.7
		c-0.1-0.1-0.2-0.2-0.3-0.3c-0.3-0.3-0.6-0.8-1.2-0.5c-0.5,0.3-0.1,0.8,0.1,1.1c1.5,2.4,2.8,5,3.9,7.6c0.8,1.7,1.2,3.5,1.8,5.3
		c0.2,0.6,0.2,1.3,0.5,1.8c0.8,1.3,0.6,2.4-0.4,3.5c-0.3,0.3-0.5,0.8-0.9,1.5c-0.4-3.8-1.4-7.1-2.6-10.4c-0.7-1.8-1.3-3.6-2.4-5.1
		c-0.3-0.4-0.7-0.9-1.3-0.5c-0.6,0.3-0.2,0.8-0.1,1.2c1.9,4.6,3.4,9.3,4.2,14.2c0.1,0.4,0.2,0.8,0.4,1.3c-0.8-0.1-1.2-0.5-1.5-1.1
		c-1.1-2.3-2.4-4.6-2.9-7.1c-0.7-3.2-1.4-6.3-2-9.5c0-0.1,0-0.2-0.1-0.3c-0.2-0.3-0.2-0.9-0.7-0.8c-0.5,0.1-0.4,0.5-0.4,0.9
		c0,3.6,0.7,7,1.6,10.5c0.5,2,1.3,3.9,2,5.9c0.1,0.3,0.4,0.6-0.1,0.7c-0.4,0.1-0.6-0.2-0.7-0.5c-1.8-3.5-3.3-7.2-4-11
		c-0.3-1.4-0.5-2.9-0.7-4.3c0.7-2.8,0.9-5.6,0.8-8.4c-0.1-2.8-0.3-5.6-3-7.6C86.8,6.1,86.7,5.8,86.5,5.5z"/>
	<path class="st3" d="M101.1,44.7c1.3,0.8,2.3,2,3.2,3.2c2.5,3,4.6,6.2,5.9,9.8c0.8,2.1,1,4.4,1.4,6.6c0.1,0.4,0,0.5-0.4,0.6
		c-0.9,0.3-1.8,0.6-2.6,0.9c-0.7,0.2-1,0-1.1-0.6c-0.9-3.9-2.5-7.5-4-11.2c-0.6-1.3-1.1-2.6-1.6-3.9c-0.1-0.3-0.2-0.7-0.6-0.6
		c-0.5,0.2-0.1,0.5,0,0.8c1.5,4.6,3.3,9.1,4.3,13.8c0.1,0.6,0.4,1.1,0.7,1.6c0.3,0.6,0.1,0.8-0.5,0.9c-1.3,0.2-2.5,0.1-3.8,0.1
		c-0.6,0-0.4-0.5-0.5-0.8c-0.9-5.2-1.5-10.4-2.9-15.5c-0.1-0.3-0.1-0.7-0.7-1c0.8,5.8,2,11.4,2.4,17.1c-1.7,0-3.4-0.4-4.9-1.2
		c-0.4-0.2-0.4-0.4-0.4-0.8c0.5-4.6,0.6-9.1,0.2-13.7c-0.1-1.2,0-2.5-0.3-3.7c0.5-1.4,1.3-2.7,1.3-4.2c0-0.5,0.3-0.4,0.6-0.2
		c0.7,0.5,1.3,1,2,1.4C99.6,44.7,100.3,45,101.1,44.7z"/>
	<path class="st5" d="M86,35.5c-0.8,0.1-1.3-0.5-1.7-1c-3-2.7-5.9-5.5-9.3-7.7c-3.2-2.1-6.4-4.2-10.2-5.4c-0.3,0.2-0.1,0.5-0.1,0.7
		c1.7,6.3,3.3,12.5,4.3,18.9c0.5,3.4,0.8,6.8,1,10.2c0,0.7,0,1.4-0.6,2c-1.2-1.8-1.5-3.9-1.9-6c-1.2-6.3-2.8-12.5-4.7-18.6
		c-0.7-2.3-1.3-4.7-1.8-7.1c-0.5-2.4,0.9-3.6,3.6-3.1c1.6,0.4,3,1.1,4.4,1.9c6.5,3.8,11.9,8.8,16.7,14.3C85.8,34.9,86,35.2,86,35.5z
		"/>
	<path class="st3" d="M49.6,50.5c0.3,2.2,1.1,4.2,2.5,6.1c0.7,1,1.3,2.1,2.4,2.8c0.2,0.1,0.3,0.3,0.1,0.5c-0.2,0.2-0.4,0.1-0.6-0.1
		c-0.8-0.6-1.4-1.5-2.1-2.2c-0.2-0.2-0.2-0.4-0.7-0.4c0.4,1.1,1,2.1,1.9,2.9c0.5,0.5,0.5,0.8,0,1.2c-0.6,0.5-1.1,1-1.6,1.6
		c0-1.2-0.4-2.3-0.9-3.3c-2.4-4.6-2.9-9.4-1.7-14.4c0.6-2.4,1.3-4.8,2.1-7.1c1.4,0,1.7,1.1,2,1.9c0.5,1.5,0.8,3,1.2,4.5
		c0.7,2.8,1.8,5.3,3.8,7.6c1,1.1,2.3,1.8,3.8,2.4c-1.4,1.1-2.9,2-4.1,3.2c-0.4,0.4-0.6,0.1-0.9-0.2c-0.9-1.1-1.8-2.3-2.7-3.4
		c-0.2-0.2-0.3-0.6-0.8-0.6c0.5,1.7,1.1,3.3,2.3,4.7c0.2,0.2,0.6,0.5,0.2,0.7c-0.3,0.2-0.6-0.2-0.8-0.4c-1.9-2-3.3-4.4-4.6-6.7
		C50.1,51.2,50,50.8,49.6,50.5c0-0.1-0.1-0.2-0.1-0.3c0,0-0.1,0.1-0.1,0.1C49.5,50.3,49.6,50.4,49.6,50.5z M50.7,56.2
		C50.7,56.2,50.7,56.2,50.7,56.2C50.7,56.2,50.7,56.2,50.7,56.2C50.7,56.2,50.8,56.3,50.7,56.2C50.8,56.3,50.8,56.3,50.7,56.2
		C50.8,56.3,50.8,56.2,50.7,56.2z"/>
	<path class="st5" d="M142.9,10c-2.6,2.5-5.9,3.9-9.1,5.5c-5.4,2.8-10.8,5.5-15.5,9.3c-2.1,1.7-4.2,3.4-6,5.3
		c-1.1,0.5-1.5,1.5-2.2,2.3c-2.8,2.8-5.6,5.7-7.1,9.3c-0.7-0.1-1-0.7-1.5-1c-0.4-0.3-0.1-0.6,0-0.8c0.7-1.1,1.3-2.1,2.1-3.2
		c3.4-4.8,6.9-9.6,11.8-13.3c6.6-4.9,13.8-9.1,21.8-11.8c1.7-0.6,3.3-1.7,5.2-1.8C142.5,9.9,142.7,9.8,142.9,10z"/>
	<path class="st3" d="M141.8,37.1c0.7-0.5,1.4-0.2,2,0.2c0.7,0.5,1.2,1.2,1.5,1.9c1.8,3.5,2.4,7.2,1.9,11.1
		c-0.2,1.2-0.3,2.4-0.6,3.5c-0.5,1.9-1.6,3.4-2.6,5.1c-0.2,0.3-0.4,0.5-0.7,0.1c-0.5-0.6-1.3-1-1.7-1.7c-0.5-0.9,0.8-1.1,1.1-1.7
		c0.3-0.9,1.1-1.5,1.4-2.7c-1.2,0.9-2.1,1.7-3.1,2.5c-0.2,0.2-0.5,0.6-0.8,0.2c-0.3-0.3,0.2-0.4,0.4-0.6c1.1-0.9,1.8-2,2.4-3.2
		c0.5-1.1,0.9-2.4,1.2-3.6c-1.3,1.3-2.2,2.8-3.1,4.3c-0.4,0.6-0.8,1.2-1.4,1.6c-0.2,0.2-0.6,0.4-0.9,0.1c-0.3-0.3,0.1-0.5,0.3-0.7
		c1.3-1,1.9-2.4,2.4-4.1c-1.2,0.8-1.9,1.7-2.6,2.6c-1.1,1.4-1.1,1.4-2.3,0c1.3-0.9,2.6-1.8,3.5-3.1
		C142.4,45.3,143.6,41.4,141.8,37.1z"/>
	<path class="st5" d="M86.5,5.5c0.2,0.2,0.3,0.5,0.6,0.7c2.7,2,2.9,4.8,3,7.6c0.1,2.8-0.1,5.6-0.8,8.4c-0.2-0.3-0.4-0.8-0.9-0.6
		c-0.5,0.1-0.5,0.6-0.6,0.9c-0.2,1.1-0.1,2.2,0,3.3c0.1,0.4,0,0.9,0,1.3c-0.9,1.3-1.7,2.8-2.8,4c0,0-0.1,0-0.1,0
		c-0.4-0.5-0.9-0.9-1.3-1.4c-0.5-0.7,0.5-1,0.7-1.5c1.4-3.2,2-6.5,2.5-9.9c0.5-3.9,0-7.7-1-11.5C85.6,6.2,85.3,5.5,86.5,5.5z"/>
	<path class="st5" d="M101.1,44.7c-0.8,0.3-1.5,0-2.2-0.4c-0.7-0.5-1.4-0.9-2-1.4c-0.3-0.2-0.6-0.3-0.6,0.2
		c-0.1,1.5-0.8,2.8-1.3,4.2c-0.7-0.1-0.7,0.4-0.7,0.8c-0.1,1-0.3,2.1-0.4,3.1c-0.6,1.5-1,3-1.3,4.5c-0.5,2.2-0.3,4.4-1.3,6.5
		c-1-0.3-1.3-0.9-1.3-1.9c-0.1-5.6,1.5-10.9,3.5-16.1c0.5-1.2,1-2.4,1.4-3.6c0.1-0.3,0.2-0.6,0.6-0.3c1.9,1.3,4,2.5,5.6,4.2
		C101.1,44.5,101.1,44.6,101.1,44.7z"/>
	<path class="st3" d="M58.6,59.5c1.8-1.5,3.7-3.1,5.5-4.6c0.4-0.3,0.8-0.4,1.3-0.2c0.9,0.4,1.8,0.9,2.8,1.5c-1.5,1.1-2.9,2-4.2,3.1
		c-2.7,2.3-5.4,4.6-7.6,7.3c-0.6,0.7-1,1.6-1.9,2.1c-0.8-1.5-0.8-2.9,0.6-4.1c0.6-0.6,1.2-1.2,1.8-1.9
		C57.6,61.8,58.7,60.9,58.6,59.5z"/>
	<path class="st5" d="M51,37.9c-0.8,2.3-1.6,4.7-2.1,7.1c-1.2,5-0.8,9.8,1.7,14.4c0.6,1.1,0.9,2.2,0.9,3.3c-0.4,0.7-0.6,0.2-0.8-0.1
		c-2.3-3.2-3.9-6.6-4.3-10.4c-0.4-4.1,0.2-8,2.1-11.8c0.4-0.8,1-1.6,1.7-2.3C50.4,38,50.6,37.8,51,37.9z"/>
	<path class="st5" d="M141.8,37.1c1.9,4.3,0.6,8.1-1.7,11.9c-0.8,1.3-2.2,2.2-3.5,3.1c0,0-0.1,0-0.1,0c-1.4-1-1.4-0.9-0.2-2
		c3-2.7,4.6-6,4.8-9.8c0-0.7,0-1.5,0-2.2C141.2,37.7,141.1,37.2,141.8,37.1z"/>
	<path class="st3" d="M137.3,55.2c1.4,1,2.3,2.5,3.5,3.7c0.7,0.7,1.6,1.4,2,2.3c0.3,0.7,0.5,1.5,0.5,2.4c-1.1-1.2-2-2.4-3.1-3.4
		c-2.5-2.4-5.4-4.3-8.8-5.4c-0.9-0.3-1.8-0.5-2.6-0.8c-0.3-0.1-0.6-0.1-0.2-0.4c4-1.1,4.2-1,6.4,1.3
		C135.8,55.7,136.3,55.8,137.3,55.2z"/>
	<path class="st3" d="M102.9,41.7c1.6-3.6,4.3-6.5,7.1-9.3c-0.1,1.1-0.8,2-1.3,2.9c-1.2,2.6-2.3,5.3-3,8c-0.1,0.2,0,0.6-0.4,0.7
		c-0.3,0.1-0.5-0.2-0.7-0.5C104.3,42.7,103.1,42.6,102.9,41.7z"/>
	<path class="st5" d="M58.6,59.5c0.1,1.4-1,2.3-1.8,3.3c-0.5,0.7-1.1,1.3-1.8,1.9c-1.4,1.2-1.4,2.6-0.6,4.1
		c-0.1,0.7-0.8,1.1-1.3,1.9c-0.6-1.4-1.2-2.5-1.5-3.8c-0.1-0.7,0.1-1.3,0.7-1.9C54.2,63,56.3,61.2,58.6,59.5z"/>
	<path class="st3" d="M85,31.1c1.1-1.2,1.9-2.6,2.8-4c0.5,0.9,0.5,2,0.7,3c0.7,2.6,1.7,5.2,2.9,7.6c0.2,0.5,0.6,0.9,1,1.3
		c0.3,0.4,0.2,0.7-0.1,0.9c-0.5,0.3-0.4-0.3-0.6-0.5c-1.5-2.5-2.8-5-4.1-7.6c-0.2-0.4-0.3-0.9-0.9-0.7c-0.5,0.2-0.4,0.7-0.3,1.1
		c0,0.1,0.1,0.2,0.1,0.5C85.7,32.4,85.4,31.7,85,31.1z"/>
	<path class="st6" d="M91.2,62.1c1.1-2.1,0.9-4.3,1.3-6.5c0.3-1.5,0.7-3.1,1.3-4.5c0,2.1,0.2,4.1,0,6.2c-0.2,2-0.1,4-0.2,5.9
		c0,0.3,0.2,0.6-0.2,0.7c-0.3,0.1-0.4-0.2-0.6-0.3C92.2,63.2,91.6,62.8,91.2,62.1z"/>
	<path class="st5" d="M137.3,55.2c-1.1,0.6-1.5,0.6-2.4-0.3c-2.2-2.3-2.4-2.4-6.4-1.3c1.4-2.1,3.9-3.3,6-1.1
		C135.5,53.4,136.7,54,137.3,55.2z"/>
	<path class="st7" d="M129.1,51.2c-0.1,0-0.2,0-0.3,0.1c0-0.1,0.1-0.2,0.1-0.2C129,51.1,129.1,51.1,129.1,51.2z"/>
	<path class="st8" d="M51.4,109c-1-0.5-1.9,0-2.8,0.2c-1.1,0.2-1.1-0.2-0.9-0.9c0.7-3.4,1.8-6.7,2.9-10c0.7-2.2,1.5-4.4,1.8-6.7
		c0.2-1.3,1.2-2.4,1.8-3.6c0.7-1.4,0.6-2-0.7-3c-0.4-0.3-0.2-0.6,0-0.9c0.8-2.1,1.8-4.2,2.8-6.2c0.6-1.1,1-2.2,1.9-3.1
		c2.3-0.9,4.2-2.3,6.3-3.4c1-0.5,2.1-0.9,3.2-1.1c1.1-0.2,1.3,0,1,0.9c-0.6,1.9-0.7,3.8,0.1,5.7c1.1,2.6,3.6,2.6,5.6,1.4
		c1.9-1.1,3.5-2.5,5.4-3.6c1.3-0.7,2.6-1.4,4-1.7c1.5-0.3,1.6-0.3,2,1.1c0.5,1.5,0.6,3.1,1.5,4.5c1,1.5,2.2,2.9,3.8,3.8
		c2.9,1.8,5.5,0.8,7.8-1.6c0.9-0.9,1.7-1.9,2.7-2.7c1.2-0.9,2.5-1.6,4.2-1.7c1.2,0,2,0.6,2.8,1.2c3.7,2.7,7.9,4,12.5,4.4
		c3.6,0.3,6-1,6.7-4.7c0.2-1.2,0.4-2.4,0.7-3.6c0.3-1.3,0.8-1.5,2-0.8c2.8,1.5,5.9,2.4,9.2,2.6c2.4,0.1,4.2-1,5.8-2.6
		c0.4-0.4,0.7-0.8,1.2-1.1c1.5,1.7,2.6,3.6,3.7,5.6c1.7,3.3,2.8,6.7,3.6,10.3c0.1,0.3,0.1,0.7,0.1,1l0,0c-0.5-0.3-1-0.7-1.5-1
		c-0.4-0.2-0.8-0.5-1.2-0.1c-0.4,0.4-0.1,0.8,0.1,1.2c1.8,2.8,2.6,5.9,3.5,9c-0.4,0-0.8,0-1.2-0.1c-2.1-0.5-4-1.4-6.1-2
		c-2.3-0.6-4.5,0-5.8,1.9c-0.9,1.3-1.7,2.7-2.5,4.1c-1.1,1.8-2.6,3.2-4.2,4.5c-0.7,0.6-1.1,0.6-1.7-0.3c-1.1-1.7-2.6-3.2-4.9-3.5
		c-2-0.2-4-0.1-5.9,0.7c-0.8,0.3-1.5,0.7-2.3,1.1c1.4-3,2.3-6.1,2.9-9.3c0.4-2,0.5-4.1-0.1-6.1c-0.8-2.6-3.3-4.2-5.7-3.6
		c-1.9,0.5-3,1.9-3.9,3.4c-0.5,0.8-0.9,1.7-1.4,2.6c-2,4.3-3.1,8.6-1.6,13.3c0.8,2.6,3.1,4.7,6.7,3.1c-1,1.7-2.1,3.3-3.6,4.6
		c-1.2,1-1.8,1.1-3.2,0.3c-1.2-0.7-2-1.8-2.9-2.8c-1.2-1.2-2.4-2.5-4.3-2.8c-3.1-0.6-5.7,0.5-8.1,2.2c-1.3,0.9-2.4,2-3.6,3.1
		c-2.1,1.8-5.3,2.2-7.3-0.1c-0.9-1-1.6-2-2.5-3c-1.3-1.6-2.8-3.1-5-3.6c-2.9-0.7-5.5,0-7.9,1.4c-2,1.1-3.6,2.7-5.3,4.1
		c-2.3,1.8-3.9,2.2-5.8,1c-0.2-0.2-0.4-0.4-0.7-0.5C55.6,110,53.8,108.8,51.4,109z M93.9,96.8c0.1-1.5-0.2-3.2-0.6-4.8
		c-0.7-3.2-2.4-5.7-5.4-7.5c-1-0.6-2-1-3.1-1c-1.3,0-2.1,0.5-2.6,1.6c-0.4,1-0.8,1.9-1,2.9c-1.7,5.9-0.7,11.5,2.9,16.7
		c0.8,1.1,1.7,2,3,2.5c0.8,0.3,1.6,0.4,2.4,0c1.7-1,3-2.4,3.5-4.3C93.5,100.9,94,98.9,93.9,96.8z"/>
	<path class="st2" d="M51.4,109c2.4-0.2,4.2,1,6,2.3c0.2,0.2,0.4,0.4,0.7,0.5c1.9,1.2,3.5,0.9,5.8-1c1.7-1.4,3.3-2.9,5.3-4.1
		c2.4-1.4,5.1-2.1,7.9-1.4c2.2,0.5,3.7,2,5,3.6c0.8,1,1.6,2.1,2.5,3c2,2.2,5.2,1.9,7.3,0.1c1.2-1,2.3-2.1,3.6-3.1
		c2.4-1.8,5-2.8,8.1-2.2c1.8,0.3,3.1,1.5,4.3,2.8c0.9,1,1.7,2.1,2.9,2.8c1.4,0.8,2,0.7,3.2-0.3c1.5-1.3,2.6-3,3.6-4.6
		c1.3-0.9,2.2-2,3-3.3c0.8-0.4,1.5-0.7,2.3-1.1c1.9-0.8,3.9-0.9,5.9-0.7c2.3,0.3,3.8,1.8,4.9,3.5c0.6,0.9,1,0.8,1.7,0.3
		c1.6-1.3,3.1-2.7,4.2-4.5c0.8-1.4,1.6-2.8,2.5-4.1c1.3-1.9,3.5-2.5,5.8-1.9c2.1,0.6,4,1.5,6.1,2c0.4,0.1,0.8,0.1,1.2,0.1
		c0.8,2.2,1.2,4.5,1.6,6.8c0.6,3.7,0.5,7.4,0.4,11.1c0,0.8-0.1,1.6-0.3,2.5c-0.4-1-0.8-2-1.2-3c-0.3-0.8-0.8-1.6-1.4-2.3
		c-0.3-0.3-0.6-0.4-1-0.3c-0.4,0.2-0.3,0.5-0.3,0.8c0.8,3.8-0.4,7.3-1.3,10.9c-0.4,1.5-0.8,3-1.6,4.4c-1-0.3-1.5-1.1-2.1-1.8
		c-1.7-2.1-3.5-2.5-6-1.2c-2.1,1-3.7,2.6-5.7,3.7c-1.5,0.8-3,1.5-4.8,1c-2-0.5-3-2.1-4.3-3.3c2.2-0.4,4.2-1.1,6.1-2.2
		c0.3-0.2,0.8-0.4,0.6-0.9c-0.2-0.4-0.7-0.1-1,0c-2.4,0.8-4.8,1-7.4,0.8c-6.5-0.4-13-0.5-19.6-0.3c-5,0.2-10.1,0.3-15.1,0.2
		c-4.4-0.1-8.7-0.2-13.1,0.1c-2.9,0.2-5.8,0.2-8.7-0.4c-1.1-0.2-2.3-0.3-3.5-0.5c1.2,1,2.5,1.7,4,2c1.4,0.3,1.4,0.3,1.1,1.6
		c-0.6,0.7-1.3,1.4-1.8,2.2c-1.7,2.4-4.1,2.9-7,2.5c-2.5-0.3-4.9-0.8-7.5-0.7c-1-1.8-1.1-3.9-1.5-5.8c-1.1-4.5-1.2-9.1-1.1-13.7
		C51.7,111,52.1,110,51.4,109z"/>
	<path class="st9" d="M127,127.1c1.3,1.2,2.3,2.8,4.3,3.3c1.8,0.5,3.3-0.2,4.8-1c2-1.1,3.7-2.7,5.7-3.7c2.5-1.3,4.2-0.9,6,1.2
		c0.6,0.7,1.1,1.4,2.1,1.8c-0.3,1.4-1,2.6-1.6,3.9c-1.4,2.9-3.1,5.8-5.1,8.4c-1.7,2.2-3,4.6-4.3,7.2c-1.3-1.7-2.4-3.5-3.2-5.4
		c-0.1-0.2-0.1-0.4-0.2-0.6c-0.2-0.3-0.4-0.7-0.9-0.6c-0.4,0.1-0.6,0.5-0.6,0.9c-0.1,1.2,0.4,2.3,0.8,3.4c0.1,0.2,0.3,0.5,0.2,0.7
		c-0.6,1.7-0.8,3.5-1.5,5.1c-0.1,0-0.3,0-0.4,0c-1.6-0.5-2.6,0.1-3.5,1.3c-0.8,1.1-1.5,2.3-2.2,3.4c-1,1.4-1,1.4-2.6,0.7
		c-2.6-1.1-5.2-2.3-7.9-3c-2.1-0.6-4.3-0.9-6.3,0.2c-1.5,0.9-2.5,2.2-3.3,3.7c-0.3,0.6-0.7,0.7-1.3,0.4c-1.1-0.6-2.2-1.2-3.3-1.9
		c-2-1.3-3.9-2.6-6.1-3.6c-1.8-0.8-3.7-0.6-4.7,0.5c-0.9,1-1.9,2-2.7,3.1c-1.5,2.1-2.4,2.3-4.8,1.1c-1.2-0.6-2.3-1.2-3.5-1.8
		c-2.7-1.4-5-3.3-7.9-4.4c-2-0.7-3.2-0.5-4.4,1.2c-0.7,0.9-1.2,1.9-1.8,2.9c-0.2,0.4-0.5,0.7-1,0.4c-0.2-0.2-0.2-0.4-0.2-0.7
		c-0.3-2.7-0.5-5.4-0.4-8.1c0-1-0.8-1.8-1.7-1.9c-1.3-0.1-2.1,0.4-2.3,1.7c0,0,0,0,0,0c-0.1,0.1-0.1,0.2-0.2,0.2
		c-0.1,0.1-0.1,0.1-0.2,0.2c-0.9-3.3-3-6.2-4.2-9.4c-0.8-2-1.6-4.1-2.1-6.2c2.5-0.1,5,0.4,7.5,0.7c2.8,0.4,5.3-0.1,7-2.5
		c0.5-0.8,1.2-1.4,1.8-2.2c0.2,2.4,1.2,4.6,2.5,6.6c1.8,3,4.5,5.2,7.3,7.4c5.2,4.2,11.4,6.1,18.3,6c5.5-0.1,10.7-1.4,15.5-3.8
		c7.1-3.5,11.3-8.9,12.2-16.4C126.3,127.1,126.5,127,127,127.1z"/>
	<path class="st10" d="M65.7,155.9c0.5,0.3,0.8,0,1-0.4c0.6-1,1.1-2,1.8-2.9c1.2-1.7,2.4-1.9,4.4-1.2c2.9,1.1,5.2,3,7.9,4.4
		c1.2,0.6,2.3,1.3,3.5,1.8c2.4,1.2,3.3,1,4.8-1.1c0.8-1.1,1.8-2.1,2.7-3.1c1-1.1,2.9-1.3,4.7-0.5c2.2,1,4.1,2.3,6.1,3.6
		c1.1,0.7,2.2,1.3,3.3,1.9c0.6,0.3,0.9,0.2,1.3-0.4c0.8-1.4,1.8-2.8,3.3-3.7c2-1.2,4.2-0.8,6.3-0.2c2.8,0.7,5.3,1.9,7.9,3
		c1.6,0.7,1.7,0.7,2.6-0.7c0.8-1.1,1.4-2.3,2.2-3.4c0.9-1.2,1.9-1.8,3.5-1.3c0.1,0,0.3,0,0.4,0c-0.1,2-0.7,3.9-1.1,5.8
		c-0.6,2.6-1.2,5.3-1.8,7.9c-0.2,0.7-0.4,0.8-1.2,0.7c-3-0.7-5.6-2-8.1-3.6c-1.9-1.2-4.1-2.1-6.4-2.6c-0.2,0-0.4-0.1-0.7,0.2
		c1.2,1,2.4,2.1,3.7,3.1c0.6,0.5,0.7,0.7,0.2,1.4c-1.4,1.5-3,3-4.5,4.4c-0.7,0.7-1.5,1.3-1.9,2.3c-0.2,0.4-0.4,0.5-0.7,0.2
		c-3.2-2.9-7.4-4.1-11.4-5.7c-1-0.4-2.1-0.9-3.2-1.2c-0.6-0.2-0.5-0.4-0.2-0.7c1.2-1.4,2.3-2.8,3.3-4.3c-1,0.2-1.9,0.7-2.7,1.2
		c-2.1,1.4-4,3.1-5.8,4.8c-1.7,1.5-3.8,2.7-5.9,3.6c-0.5,0.2-0.6,0.1-0.8-0.3c-1.3-2.3-3-4.3-4.9-6.2c-0.4-0.4-0.8-0.9-1.3-1.2
		c-2.2-1.3-3.8-3.1-5.4-4.9c-0.1-0.1-0.2-0.2-0.4-0.4c-0.3,0.9-0.2,1.6,0.4,2.3c0.6,0.7,1.2,1.5,1.8,2.2c0.4,0.4,0.4,0.7,0,1
		c-2.2,2-4,4.2-5.9,6.4c-0.1-1.3-0.6-2.6-1-3.8C66.6,161.3,65.8,158.7,65.7,155.9z"/>
	<path class="st9" d="M106.7,175c-0.1,0-0.3-0.1-0.4-0.1c-0.2,0-0.5-0.1-0.7-0.1c-0.7-0.2-1.3-0.2-2-0.2c-0.8-0.1-1.7-0.1-2.5,0.1
		c-0.4,0-0.7,0.1-1.1,0.1c-0.2,0-0.3,0.1-0.5,0.1c-0.4,0-0.8,0.1-1.1,0.3c-0.3,0-0.5,0.1-0.7,0.3c-0.2,0.1-0.3,0.2-0.5,0.3
		c-0.1,0-0.3,0-0.4,0c-0.3-0.3-0.6-0.6-1.1-0.7c-2.4-1-4.8-1.1-7.2-0.1c-1.5,0.6-3,1.3-3.9,2.8c-0.2,0.2-0.5,0.3-0.7,0.5
		c-0.7-0.9-1.7-1.2-2.7-1.7c-2.3-1.1-3.6-0.7-5.1,1.2c-1.5,2.1-1.5,2.1-4,0.8c-2.9-1.6-4.1-1.2-5.3,1.7c-1.1-1-1.6-2.3-2.4-3.5
		c-1.4-2.3-2.8-4.5-4.2-6.8c-0.1-0.2-0.2-0.5-0.3-0.7c0.6-0.5,1.3-1,2-1.3c1,1.1,1.9,2.2,3,3.1c1.3,1.2,3.2,1.1,4.2-0.3
		c1.9-2.7,4.3-5.1,6.3-7.7c0.5-0.6,0.9-0.9,1.5-0.1c0.8,1,1.9,2,2.7,3c1.4,1.8,3.3,3.1,5,4.5c0.3,0.2,0.6,0.1,0.9,0
		c2.5-0.6,4.6-1.9,6.5-3.4c1.8-1.5,1.8-1.5,3.8-0.5c3.7,1.8,7.5,3.4,11.3,4.9c1.4,0.5,2.8,0.9,4.3,1.2c1.1,0.2,2.1-0.5,2.8-1.2
		c1.7-1.5,3.3-3.1,4.7-4.8c0.2-0.3,0.5-0.5,0.8-0.7c2.9,1.7,6,2.8,9.2,3.8c1.7,0.5,3.3,0,3.8-1.2c0.8-1.8,1.7-3.5,2.1-5.5
		c1.5,1.3,1.6,3.1,0.5,4.6c-2.5,3.4-4.6,7-6.8,10.6c-1.3,2.1-2.7,4.1-4.6,5.8c-0.8-1.6-2.2-2.1-4-1.9c-0.3,0-0.6,0-0.9,0
		c-1,0-1.2-0.2-0.8-1.1c0.4-0.8,0.8-1.6,1.1-2.5c0.6-1.9-0.4-3.4-2.4-3.1c-2.3,0.3-4.6,0.5-6.8,1.2c-0.4-0.3-0.7-0.7-1.2-0.8
		c-0.2-0.2-0.4-0.3-0.6-0.3c-0.1,0-0.2-0.1-0.3-0.1c-0.1,0-0.1-0.1-0.2-0.1c0,0-0.1-0.1-0.1,0c0,0,0,0,0,0c-0.1,0-0.2-0.1-0.3-0.1
		c0,0,0,0,0,0C107.1,175,106.9,174.9,106.7,175z"/>
	<path class="st11" d="M65.4,191.8c-3.2-0.1-6.5,0.6-9.8,1.5c-3,0.9-5.9,1.2-8.9-0.1c-1.6-0.7-3-1.7-4.2-2.8
		c-2.1-1.8-4.3-3.4-6.6-4.8c-2.9-1.8-3.9-4.4-3.6-7.5c0.2-2.2,3.1-3.7,5.9-3.3c2.3,0.3,4.2,1.6,6.2,2.5c0.2,0.1,0.3,0.2,0.5,0.3
		c0.4,0.2,0.8,0.3,1.1-0.1c0.3-0.3,0.1-0.6-0.1-0.9c-0.3-0.4-0.7-0.7-1-1.1c-1.9-1.9-2.7-4.2-3.2-6.6c-0.4-2,0.2-3.9,2.1-5.2
		c2.1-1.4,4.5-1.2,6.7-0.2c3.2,1.5,5.4,3.9,7.2,6.7c2.2,3.4,4.4,6.8,6.6,10.2c0.8,1.3,1.8,2.5,3.1,3.5c1.5,1.1,2.2,2.8,3,4.3
		c0.9,1.7,0.2,3.5-2.4,3.6C67.1,191.8,66.4,191.8,65.4,191.8z M36.8,181.7c0,0.5,0.1,1.1,0.5,1.7c2.1,3.1,5,5.1,9.1,5.5
		c2.8,0.2,4.8-1.1,5-3.4c0.1-1.4-0.4-2.6-1.4-3.6c-2.3-2.4-5.3-3.7-8.8-4C38.5,177.6,36.8,179.2,36.8,181.7z M51.3,177.4
		c3.3,0.1,5.3-2,4.8-4.5c-0.2-1.1-0.7-2.1-1.6-2.9c-1.3-1.3-2.9-2.1-4.6-2.8c-1.8-0.8-3.4-0.6-4.5,0.5c-1.4,1.3-1.6,3.1-0.7,4.7
		c0.2,0.4,0.4,0.7,0.7,1.1C46.9,175.6,48.9,177.2,51.3,177.4z M59,191.6c3.3,0,6-2.3,6-5.1c0-2.6-2.6-4.8-5.7-4.8
		c-2.7,0-5.4,2.8-5.3,5.6C53.9,189.8,56.1,191.6,59,191.6z"/>
	<path class="st11" d="M161.7,179.7c-0.2,2.2-1.2,4.6-4,6.1c-2.8,1.5-5.1,3.6-7.5,5.5c-3.4,2.8-7.2,3.5-11.5,2.1
		c-3.9-1.2-7.9-1.9-12.1-1.7c-0.6,0-1.3,0.1-1.9-0.2c-1.4-0.6-1.9-2.1-1.1-3.5c1-1.7,2-3.3,3.5-4.7c2.6-2.3,4.1-5.4,5.9-8.2
		c2.2-3.4,4.1-7,7.4-9.7c1.9-1.6,4-2.8,6.7-2.7c3.7,0.1,5.5,2.8,5.2,5.7c-0.3,2.9-1.6,5.6-3.9,7.8c-0.1,0-0.1,0.1-0.1,0.2
		c-0.3,0.4-0.7,0.7-0.3,1.2c0.4,0.4,0.9,0.1,1.3-0.1c1.3-0.8,2.8-1.5,4.2-2.1c1.6-0.7,3.3-0.8,5-0.3
		C160.7,175.6,161.7,176.9,161.7,179.7z M146.8,189.8c1.3,0,2.4-0.4,3.5-0.9c2.5-1.1,4.8-2.5,6.3-4.6c1.1-1.5,1.2-3.2,0.2-4.8
		c-1-1.5-2.6-1.8-4.3-1.6c-3.8,0.5-6.9,2.1-9.4,4.7c-1.3,1.3-1.8,3-0.9,4.7C143.1,188.9,144.7,189.8,146.8,189.8z M141.5,178.1
		c3.3,0,7.7-3.7,8-6.7c0.2-2.2-1.8-4.3-4-4.3c-3.5-0.1-7,2.2-8.1,5.4C136.4,175.3,138.4,178,141.5,178.1z M129,186.3
		c0,2.7,2.5,5.1,5.3,5.1c2.6,0,5.2-2.4,5.1-4.8c0-2.4-2.7-4.7-5.5-4.7C131.3,181.9,129,183.9,129,186.3z"/>
	<path class="st10" d="M66.8,180.3c1.2-2.9,2.4-3.3,5.3-1.7c2.4,1.3,2.4,1.3,4-0.8c1.5-2,2.8-2.3,5.1-1.2c1,0.4,2.1,0.8,2.7,1.7
		c-0.1,0.3-0.2,0.5-0.5,0.7c-0.2-0.4-0.4-0.8-1-0.7c-0.5,0.1-0.7,0.5-0.8,0.9c-0.2,1.1-0.4,2.2-0.5,3.2c-0.2,2.6-1.7,4.5-3.9,6
		c-1,0.7-2.1,1.3-3.2,1.9c-0.8,0.4-1.2,0.3-0.9-0.6c0-0.1,0-0.3,0-0.4c-0.1-1.8-1-3.2-2.4-4.4C69.1,183.5,67.9,182,66.8,180.3z"/>
	<path class="st4" d="M65.7,155.9c0.1,2.8,0.9,5.5,1.8,8.1c0.4,1.3,0.9,2.5,1,3.8c-0.5,0.8-1,1.6-1.6,2.4c-2.8-3.4-5.2-7-5.7-11.3
		c-0.5-4.2-1.1-8.3,0.9-12.2c-0.6-0.3-0.7,0.1-1,0.1c0.2-1.2,1-1.8,2.3-1.7c0.9,0.1,1.8,0.9,1.7,1.9c-0.1,2.7,0.1,5.4,0.4,8.1
		C65.5,155.4,65.5,155.7,65.7,155.9z"/>
	<path class="st10" d="M110.1,176.6c2.2-0.7,4.5-0.9,6.8-1.2c2-0.3,3,1.2,2.4,3.1c-0.3,0.8-0.7,1.6-1.1,2.5
		c-0.4,0.9-0.2,1.1,0.8,1.1c0.3,0,0.6,0,0.9,0c1.8-0.2,3.2,0.3,4,1.9c-0.1,0.5-0.5,0.7-0.9,1c-1.7,1.5-2.4,3.2-2.1,5.4
		c-0.4,0.4-0.7,0.1-1-0.1c-2-0.9-3.8-2.1-5.3-3.7c-1.1-1.1-1.5-2.4-1.8-3.8c-0.1-0.3-0.2-0.7-0.2-1c0.1-2-1-3.5-2.5-4.9
		C110.2,176.9,110.1,176.7,110.1,176.6z"/>
	<path class="st9" d="M163.5,144.8c-0.9,1.1-1,1.4,0.1,2.3c0.7,0.6,0.7,0.9,0.2,1.6c-1.7,1.9-4,3-6.4,3.9c-3.5,1.3-7.1,1.9-10.6,3
		c-1.9,0.6-3.8,1.3-5.5,2.5c-0.2,0.2-0.5,0.3-0.8,0.3c0.4-0.6,0.8-1.2,0.6-2c-0.1-0.5,0.3-0.7,0.6-0.9c1.7-1,3.5-1.9,5.4-2.7
		c2-0.8,4.2-1.3,6.2-2.2c0.7-0.3,1.2-0.8,1.3-1.5c0.2-0.2,0.3-0.4,0.6-0.4c0.7,0.4,1.3,0.1,1.9-0.3c1.2-1,2-2.3,2.8-3.5
		c0.8-1.3,1.6-2.7,2.5-4.2C163.3,142,163,143.5,163.5,144.8z"/>
	<path class="st4" d="M163.5,144.8c-0.5-1.3-0.2-2.8-1.1-4.3c-0.9,1.5-1.7,2.9-2.5,4.2c-0.8,1.3-1.6,2.5-2.8,3.5
		c-0.6,0.5-1.2,0.8-1.9,0.3c0.7-1.1,1.7-2,2.4-3.2c0.9-1.6,1.4-3.2,1.4-5c0-0.5,0.1-0.8,0.7-1c0.7-0.2,0.9-0.7,0.8-1.3
		c-0.2-0.9-0.1-1.8-0.2-2.8c-0.1-1.2,0.5-2.1,1.9-2.5c1.2-0.4,2.4,0,3.1,1c1,1.3,1.3,2.8,1.5,4.2c0.3,2,0,3.9-0.6,5.9
		c-0.1,0.3-0.3,0.5-0.7,0.6C164.8,144.6,164.2,144.7,163.5,144.8z"/>
	<path class="st10" d="M154.6,149c-0.1,0.8-0.6,1.2-1.3,1.5c-2,1-4.2,1.4-6.2,2.2c-1.9,0.8-3.7,1.7-5.4,2.7
		c-0.4,0.2-0.7,0.4-0.6,0.9c0.1,0.8-0.2,1.4-0.6,2c0,0,0,0.1,0,0.1c-0.1,0.1-0.2,0.1-0.2,0.2c0,0,0,0,0,0c-0.1,0.1-0.1,0.1-0.2,0.2
		c-0.8,0.9-1.6,1.9-2.1,3c-0.2,0.5-0.5,0.6-0.8,0.1c-0.5-0.6-1.2-1.1-2-1.4c-1.1-0.4-1-1-0.6-1.8c1.5-2.7,3.7-4.7,6.9-5.7
		c1.7-0.5,3.5-0.8,5.3-1.1C149.5,151.6,152.2,150.7,154.6,149z"/>
	<path class="st10" d="M134.9,163c-0.3,1.9-1.3,3.7-2.1,5.5c-0.5,1.2-2.2,1.7-3.8,1.2c-3.2-1-6.3-2.1-9.2-3.8
		c0.3-0.8,0.7-1.1,1.7-0.6c2.7,1.5,5.6,2.5,8.8,2.5c1.4,0,1.8-0.1,2.2-1.3c0.4-1.2,0.6-2.4,1-3.6c0.1-0.3-0.1-0.7,0.3-0.8
		c0.3-0.1,0.5,0.3,0.8,0.5C134.7,162.7,134.8,162.9,134.9,163z"/>
	<path class="st4" d="M61.9,167.9c-0.8,0.3-1.4,0.8-2,1.3c-2.7-2.3-2.9-4.2-0.7-6.5c0.1-0.1,0.2-0.1,0.4-0.2
		C60.4,164.3,61.1,166.1,61.9,167.9z"/>
	<path class="st7" d="M42.6,97.4c0.1-0.1,0.1-0.2,0.2-0.2c0.1,0.1,0.1,0.2-0.1,0.3C42.7,97.5,42.6,97.5,42.6,97.4z"/>
	<path class="st7" d="M153.7,172.9c0,0-0.1,0.1-0.1,0.1c-0.1-0.1-0.1-0.1,0-0.2C153.6,172.9,153.6,172.9,153.7,172.9z"/>
	<path class="st9" d="M140,158.9c0.1-0.1,0.1-0.1,0.2-0.2C140.1,158.8,140.1,158.9,140,158.9z"/>
	<path class="st9" d="M140.2,158.7c0.1-0.1,0.2-0.1,0.2-0.2C140.4,158.6,140.3,158.6,140.2,158.7z"/>
	<polygon class="st7" points="156.9,95.8 156.9,95.8 156.9,95.8 	"/>
	<path class="st8" d="M154.1,88.7C154.1,88.7,154.1,88.7,154.1,88.7C154.1,88.7,154.1,88.7,154.1,88.7
		C154.1,88.7,154.1,88.7,154.1,88.7z"/>
	<path class="st4" d="M60.8,147.1c0.1-0.1,0.1-0.2,0.2-0.2C61,146.9,60.9,147,60.8,147.1z"/>
	<path class="st3" d="M83.4,179c0.3-0.2,0.4-0.4,0.5-0.7c0.2-0.2,0.5-0.3,0.7-0.5c0.1,0.5,0.5,0.6,1,0.4c0.5-0.1,0.9-0.3,1.3-0.6
		c2.5-1.7,5.2-1.9,8.1-1c0.7,0.2,1.3,0.4,2,0.6c0.2,0,0.4,0,0.7,0c0.2,0,0.4,0,0.5-0.2c0.3-0.1,0.6-0.2,0.9-0.2
		c2.1-0.3,4.2-0.6,6.3-0.2c0.1,0,0.3,0,0.4,0c1.4,0.5,2.8,1,4.3,1.5c0.3,0.1,0.5,0.3,0.5,0.6c0,1,0,2.1,0,3.1c0,0.5-0.2,0.6-0.7,0.7
		c-3.5,0.3-7,1.2-10.6,1.2c-0.5,0-1,0.3-1.5,0.1c-0.3-0.3-0.3-0.3-0.8-0.3c-3.7-0.4-7.4-0.8-10.9-2.3c-0.9-0.4-1.5-1-2.5-1.2
		C83.4,179.6,83.4,179.3,83.4,179z"/>
	<path class="st3" d="M79.4,190c0.3-0.6,0.9-0.9,1.3-1.4c0.3-0.3,0.6-0.4,1.1-0.1c1.3,0.9,2.9,1.1,4.4,1.2c3.1,0.2,6.2,0.5,9.3,0.2
		c4.4-0.3,8.8-0.4,13.2-0.6c1,0,2.1-0.2,3-0.7c0.6-0.3,1.2-0.3,1.8,0.3c0.9,0.8,1.8,1.6,2.8,2.1c0.6,0.3,0.7,0.6,0,0.9
		c-2.1,0.9-4.3,1.5-6.6,1.5c-3.8,0.1-7.7-0.1-11.5-0.2c-0.1-0.1-0.2-0.1-0.3-0.1c-3.2-0.4-6.4-0.8-9.6-1
		C85.2,191.7,82.2,191.2,79.4,190z"/>
	<path class="st3" d="M82.9,185.2c0.1-0.3,0.2-0.6,0.2-0.9c0.1-0.6,0.4-0.5,0.7-0.3c1.1,0.6,2.3,0.7,3.4,0.8
		c4.3,0.3,8.6,0.4,12.9,0.2c3.3-0.2,6.6-0.2,9.8-1.2c0.3-0.1,0.6-0.2,0.7,0.3c0.2,0.9,0.5,1.8,0.9,2.6c0.2,0.5-0.1,0.5-0.4,0.5
		c-4,0.6-8.1,0.7-12.2,0.8c-0.8,0-1.6,0.3-2.4,0.2c-1.6-0.2-3.2-0.4-4.8-0.6C88.6,187.4,85.5,187.2,82.9,185.2z"/>
	<path class="st5" d="M79.4,190c2.8,1.2,5.8,1.8,8.9,2.1c3.2,0.3,6.4,0.6,9.6,1c0.1,0,0.2,0.1,0.3,0.1c-4.7,0-9.4,0.4-14,0.3
		c-2.6-0.1-4.9-0.8-7.4-2C77.7,191,78.4,190.2,79.4,190z"/>
	<path class="st12" d="M95,176.6c-2.9-0.9-5.6-0.7-8.1,1c-0.4,0.3-0.8,0.4-1.3,0.6c-0.4,0.1-0.8,0-1-0.4c0.8-1.5,2.3-2.1,3.9-2.8
		c2.4-1,4.8-0.9,7.2,0.1C95.6,175.7,95.2,176.1,95,176.6z"/>
	<path class="st5" d="M83.4,179.9c1,0.1,1.7,0.8,2.5,1.2c3.5,1.5,7.2,1.8,10.9,2.3c0.5,0.1,0.5,0,0.8,0.3c-3.7,0-7.3-0.1-11-0.4
		c-0.3,0-0.7-0.1-1-0.2c-1.8-0.4-2.2-0.8-2.2-2.5C83.4,180.4,83.4,180.2,83.4,179.9z"/>
	<path class="st5" d="M82.9,185.2c2.5,2,5.7,2.2,8.8,2.5c1.6,0.2,3.2,0.4,4.8,0.6c-4,0.4-7.9,0.4-11.9-0.2
		C82,187.7,81.9,187.4,82.9,185.2z"/>
	<path class="st12" d="M101,174.7c0.8-0.2,1.7-0.2,2.5-0.1C102.7,175.3,101.9,175,101,174.7z"/>
	<path class="st12" d="M110.1,176.6c0.1,0.1,0.1,0.3,0.2,0.4c-0.9,0-1.3-0.5-1.4-1.2C109.4,175.9,109.7,176.3,110.1,176.6z"/>
	<path class="st12" d="M107.7,176.2c0,0.3-0.2,0.4-0.4,0.4c-0.2,0-0.5,0-0.5-0.2c0-0.3,0.2-0.3,0.4-0.3
		C107.3,176,107.6,175.9,107.7,176.2z"/>
	<path class="st12" d="M99,176.8c-0.3,0.1-0.6,0.2-0.9,0.2c0-0.3,0-0.6,0.4-0.6C98.8,176.4,99,176.5,99,176.8z"/>
	<path class="st12" d="M97.7,177.2c-0.2,0-0.4,0-0.7,0c0-0.2-0.1-0.6,0.4-0.6C97.8,176.7,97.7,177,97.7,177.2z"/>
	<path class="st12" d="M101.1,175.4c0.2,0,0.3,0,0.3,0.2c0.1,0.2-0.1,0.3-0.3,0.3c-0.2,0-0.3-0.1-0.3-0.2
		C100.9,175.6,100.9,175.4,101.1,175.4z"/>
	<path class="st12" d="M106.7,175c0.3,0,0.5,0,0.7,0.2c-0.2,0.1-0.3,0.5-0.7,0.3C106.3,175.3,106.6,175.1,106.7,175z"/>
	<path class="st12" d="M97.7,175.5c0.2-0.2,0.4-0.3,0.7-0.3C98.3,175.7,98.2,176,97.7,175.5z"/>
	<path class="st12" d="M96.8,175.8c0.1,0,0.3,0,0.4,0c0.2,0.1,0.3,0.3,0.1,0.4C97,176.3,96.8,176,96.8,175.8z"/>
	<path class="st12" d="M105.8,176.6c-0.1,0-0.3,0-0.4,0c0-0.2-0.1-0.5,0.2-0.5C105.8,176.1,105.7,176.4,105.8,176.6z"/>
	<path class="st12" d="M105.5,174.7c0.2,0,0.5,0.1,0.7,0.1C105.9,175.3,105.7,175,105.5,174.7z"/>
	<path class="st12" d="M100.3,175.5c0,0.1,0,0.1-0.1,0.2c0,0-0.1,0-0.2-0.1c0-0.1,0-0.1,0.1-0.2
		C100.2,175.4,100.2,175.5,100.3,175.5z"/>
	<path class="st12" d="M99.5,174.9c0.2,0,0.3-0.1,0.5-0.1C99.9,175.1,99.7,175.3,99.5,174.9z"/>
	<path class="st12" d="M108,175.4c0.1,0,0.2,0.1,0.3,0.1c0,0-0.1,0.1-0.1,0.1C108.1,175.6,108,175.5,108,175.4z"/>
	<path class="st12" d="M107.6,175.3c0.1,0,0.1,0,0.1,0c0,0-0.1,0.1-0.1,0.1C107.7,175.4,107.6,175.3,107.6,175.3z"/>
	<path class="st12" d="M107.3,175.2c0.1,0,0.2,0.1,0.3,0.1C107.5,175.3,107.4,175.2,107.3,175.2z"/>
	<path class="st0" d="M49.6,50.5c-0.1-0.1-0.1-0.1-0.2-0.2c0,0,0.1,0,0.1-0.1C49.6,50.3,49.6,50.4,49.6,50.5
		C49.6,50.5,49.6,50.5,49.6,50.5z"/>
	<path class="st0" d="M50.7,56.2C50.8,56.2,50.8,56.3,50.7,56.2C50.8,56.3,50.8,56.3,50.7,56.2C50.8,56.3,50.7,56.2,50.7,56.2
		L50.7,56.2z"/>
	<path class="st0" d="M50.7,56.2C50.7,56.2,50.7,56.2,50.7,56.2C50.7,56.2,50.7,56.2,50.7,56.2C50.7,56.2,50.7,56.2,50.7,56.2z"/>
	<path class="st13" d="M93.9,96.8c0,2.2-0.4,4.1-0.9,6c-0.5,1.9-1.7,3.3-3.5,4.3c-0.8,0.5-1.6,0.4-2.4,0c-1.3-0.5-2.3-1.4-3-2.5
		C80.5,99.5,79.6,94,81.3,88c0.3-1,0.7-2,1-2.9c0.5-1.1,1.2-1.6,2.6-1.6c1.2,0,2.2,0.4,3.1,1c3,1.8,4.7,4.3,5.4,7.5
		C93.7,93.6,94,95.2,93.9,96.8z M89.6,89.9c0.1-1.2-0.9-2.1-2.2-2.1c-1.3-0.1-2.3,0.9-2.4,2.1c-0.1,1.2,1.1,2.5,2.4,2.5
		C88.5,92.4,89.5,91.2,89.6,89.9z"/>
	<path class="st13" d="M120.4,104.1c-0.8,1.3-1.7,2.5-3,3.3c-3.6,1.5-5.9-0.5-6.7-3.1c-1.5-4.6-0.3-9,1.6-13.3
		c0.4-0.9,0.9-1.7,1.4-2.6c0.9-1.5,2-2.9,3.9-3.4c2.3-0.6,4.8,1,5.7,3.6c0.6,2,0.5,4.1,0.1,6.1C122.7,97.9,121.8,101.1,120.4,104.1z
		 M117.1,88.4c-1.8,0-2.7,0.7-2.7,2c0,1.3,0.9,2.2,2.1,2.2c1.6,0,2.7-1,2.7-2.4C119.1,88.9,118.6,88.4,117.1,88.4z"/>
	<path class="st12" d="M127,127.1c-0.4-0.1-0.7,0-0.7,0.5c-0.9,7.4-5.1,12.8-12.2,16.4c-4.8,2.4-10,3.7-15.5,3.8
		c-6.9,0.1-13-1.8-18.3-6c-2.8-2.2-5.5-4.4-7.3-7.4c-1.3-2.1-2.2-4.2-2.5-6.6c0.3-1.3,0.3-1.3-1.1-1.6c-1.5-0.3-2.9-1-4-2
		c1.2,0.1,2.4,0.2,3.5,0.5c2.9,0.6,5.8,0.6,8.7,0.4c4.4-0.3,8.7-0.2,13.1-0.1c5,0.1,10.1,0,15.1-0.2c6.5-0.2,13-0.1,19.6,0.3
		c2.5,0.1,5,0,7.4-0.8c0.3-0.1,0.8-0.4,1,0c0.2,0.4-0.3,0.7-0.6,0.9C131.2,126,129.2,126.7,127,127.1z M85,139.8
		c-1.3,0.9-1.3,1.1-0.4,1.7c3.7,2.4,7.9,3.6,12.4,3.9c5,0.2,9.9-0.3,14.5-2.2c1.9-0.8,1.9-0.8,1-2.6c-1.6-3.4-7-3.9-10.5-3.1
		c0.4,0.4,0.5,1,1.2,1.3c0.2,0.4,0.3,0.8,0.5,1.2c-1.7,0.1-3-0.6-4.3-1.4c-2.6-1.5-5.3-2.3-8.4-1.6C88.6,137.4,86.5,138.2,85,139.8z
		 M92.7,127.3C92.7,127.3,92.7,127.2,92.7,127.3c-1.2-0.1-2.4-0.1-3.6-0.1c-0.3,0-0.8-0.2-0.9,0.1c-0.2,0.4,0.3,0.7,0.5,0.9
		c2,1.6,4.3,1.8,6.7,1.1c0.8-0.2,1.3-0.8,1.6-1.5c0.2-0.4,0.1-0.6-0.4-0.6C95.3,127.3,94,127.3,92.7,127.3z M100.6,127.2
		c0,0.1,0,0.2-0.1,0.3c2.4,1.5,5,2.4,8,1.7c0.7-0.2,1.1-0.6,1.5-1.2c0.3-0.5,0.3-0.8-0.5-0.8C106.6,127.3,103.6,127.2,100.6,127.2z
		 M79.6,127c1.7,1.8,4.2,1.8,5.8,0C83.4,127,81.5,127,79.6,127z M113,127.1c1.4,1.3,3.3,1.2,4.2,0
		C115.8,127.1,114.5,127.1,113,127.1z"/>
	<path class="st6" d="M36.8,181.7c0-2.5,1.7-4,4.3-3.8c3.4,0.3,6.4,1.6,8.8,4c1,1,1.5,2.2,1.4,3.6c-0.2,2.2-2.1,3.6-5,3.4
		c-4.1-0.3-6.9-2.4-9.1-5.5C36.9,182.8,36.8,182.2,36.8,181.7z M41,185.2c-0.4-0.8-0.7-1.5-1-2.2c-0.5-1.2-0.2-2,1-2.6
		c0.6-0.3,0.7-0.8,0.1-1.2c-0.7-0.5-1.7-0.3-2.3,0.5C37.1,181.8,38.1,184.4,41,185.2z"/>
	<path class="st6" d="M51.3,177.4c-2.4-0.2-4.4-1.8-5.9-4c-0.2-0.3-0.4-0.7-0.7-1.1c-0.9-1.6-0.7-3.4,0.7-4.7
		c1.1-1.1,2.7-1.2,4.5-0.5c1.7,0.7,3.3,1.6,4.6,2.8c0.8,0.8,1.3,1.8,1.6,2.9C56.6,175.4,54.6,177.5,51.3,177.4z M45.8,170
		c0,0.6,0.2,1,0.8,1.2c0.6,0.2,1.1,0,1.5-0.5c0.3-0.4,0.6-0.8,1-1.2c0.3-0.4,0.6-0.8,0.2-1.2c-0.3-0.5-0.8-0.6-1.4-0.5
		C46.6,167.9,45.8,168.8,45.8,170z"/>
	<path class="st6" d="M59,191.6c-2.9,0-5.1-1.8-5.1-4.3c0-2.8,2.6-5.6,5.3-5.6c3.1,0,5.7,2.2,5.7,4.8C65,189.3,62.3,191.6,59,191.6z
		 M54.7,187.1c0,1.1,0.5,1.9,1.3,2.3c0.5,0.3,0.8,0.3,0.8-0.4c0-1.8,0.7-3.4,1.7-4.9c0.2-0.3,0.4-0.6,0.1-0.9
		c-0.3-0.3-0.8-0.3-1.1-0.1C56.1,184.2,55,185.5,54.7,187.1z"/>
	<path class="st6" d="M146.8,189.8c-2.1,0-3.7-0.9-4.6-2.6c-1-1.7-0.4-3.3,0.9-4.7c2.5-2.6,5.7-4.2,9.4-4.7c1.7-0.2,3.3,0.1,4.3,1.6
		c1.1,1.6,1,3.3-0.2,4.8c-1.6,2.1-3.8,3.5-6.3,4.6C149.2,189.4,148,189.8,146.8,189.8z M155.6,181.8c-0.1-0.5-0.3-1-0.6-1.4
		c-1.3-1.5-2.8-1.8-5-1.1c-0.7,0.3-1.7,0.6-1.4,1.4c0.3,1,1.3,0.6,2,0.4c2.1-0.5,2.2-0.4,3.2,1.3c0.2,0.4,0.3,1.3,0.9,1.2
		c0.7-0.1,0.8-0.9,0.9-1.5C155.5,182.1,155.6,181.9,155.6,181.8z"/>
	<path class="st6" d="M141.5,178.1c-3.1,0-5.1-2.8-4.1-5.7c1.1-3.1,4.6-5.4,8.1-5.4c2.2,0,4.2,2.1,4,4.3
		C149.2,174.3,144.8,178.1,141.5,178.1z M146.4,172c1.1-1.6,0.7-3.6-1-4c-1.3-0.3-4.5,0.6-5.3,1.6c-0.3,0.3-0.4,0.6-0.1,1
		c0.3,0.3,0.7,0.4,1.1,0.3c0.5-0.1,0.9-0.4,1.3-0.6c1.7-0.7,2.2-0.5,3.3,0.8C145.9,171.5,146,171.9,146.4,172z"/>
	<path class="st6" d="M129,186.3c0-2.4,2.3-4.4,4.9-4.4c2.8,0,5.5,2.3,5.5,4.7c0,2.4-2.6,4.8-5.1,4.8C131.5,191.3,129,189,129,186.3
		z M136.8,186c-0.2-0.7-0.1-1.6-0.8-2.2c-1.1-0.9-4.2-0.8-5.3,0.2c-0.4,0.4-0.7,0.8-0.3,1.4c0.4,0.5,1,0.3,1.4,0
		c0.8-0.6,1.6-0.5,2.5-0.4c0.8,0.2,1,0.9,1.6,1.3c0.2,0.2,0.3,0.5,0.7,0.4C136.9,186.6,136.8,186.3,136.8,186z"/>
	<path class="st14" d="M89.6,89.9c-0.1,1.3-1.1,2.5-2.2,2.5c-1.3,0-2.5-1.3-2.4-2.5c0.1-1.2,1.1-2.1,2.4-2.1
		C88.7,87.9,89.7,88.8,89.6,89.9z"/>
	<path class="st14" d="M117.1,88.4c1.5,0,2.1,0.5,2.1,1.8c0,1.4-1.1,2.4-2.7,2.4c-1.2,0-2.1-0.9-2.1-2.2
		C114.4,89.2,115.3,88.4,117.1,88.4z"/>
	<path class="st3" d="M103.5,140c-0.2-0.4-0.3-0.8-0.5-1.2c1.6-0.1,3,0.4,4.6,0.7c1.6,0.3,3.1,0.9,4.8,1.1c0.9,1.8,0.9,1.8-1,2.6
		c-4.6,1.9-9.5,2.4-14.5,2.2c-4.5-0.2-8.7-1.4-12.4-3.9c-0.9-0.6-0.9-0.7,0.4-1.7c1.5,0,3-0.1,4.4-0.5c1.9-0.6,3.8-0.4,5.7,0
		c2.5,0.5,4.7,1.6,7.2,2.3c0.8,0.2,1.6,0.3,2.4,0.3c0.5,0,1-0.1,1-0.6c0.1-0.5-0.4-0.6-0.8-0.8C104.5,140.4,104,140.2,103.5,140z"/>
	<path class="st5" d="M103.5,140c0.5,0.2,1,0.3,1.5,0.5c0.4,0.1,0.8,0.3,0.8,0.8c-0.1,0.5-0.6,0.6-1,0.6c-0.8,0-1.6-0.1-2.4-0.3
		c-2.4-0.7-4.7-1.8-7.2-2.3c-1.9-0.4-3.8-0.5-5.7,0c-1.4,0.4-2.9,0.5-4.4,0.5c1.5-1.7,3.7-2.4,5.9-2.8c3-0.6,5.8,0.1,8.4,1.6
		C100.5,139.4,101.9,140.1,103.5,140z"/>
	<path class="st5" d="M112.4,140.6c-1.7-0.2-3.2-0.8-4.8-1.1c-1.5-0.3-3-0.8-4.6-0.7c-0.6-0.2-0.8-0.8-1.2-1.3
		C105.5,136.7,110.9,137.2,112.4,140.6z"/>
	<path class="st14" d="M92.7,127.3c1.3,0,2.6,0,3.9,0c0.5,0,0.7,0.2,0.4,0.6c-0.3,0.7-0.8,1.3-1.6,1.5c-2.4,0.6-4.7,0.5-6.7-1.1
		c-0.3-0.2-0.7-0.5-0.5-0.9c0.2-0.3,0.6-0.1,0.9-0.1C90.3,127.2,91.5,127.2,92.7,127.3C92.7,127.2,92.7,127.3,92.7,127.3z"/>
	<path class="st14" d="M100.6,127.2c3,0,5.9,0,8.9,0c0.8,0,0.8,0.2,0.5,0.8c-0.3,0.6-0.8,1-1.5,1.2c-3,0.7-5.6-0.1-8-1.7
		C100.6,127.4,100.6,127.3,100.6,127.2z"/>
	<path class="st14" d="M79.6,127c2,0,3.8,0,5.8,0C83.7,128.8,81.3,128.8,79.6,127z"/>
	<path class="st14" d="M113,127.1c1.5,0,2.8,0,4.2,0C116.3,128.4,114.4,128.4,113,127.1z"/>
	<path class="st5" d="M41,185.2c-2.9-0.8-3.9-3.4-2.2-5.5c0.6-0.8,1.6-1,2.3-0.5c0.6,0.4,0.5,0.9-0.1,1.2c-1.2,0.6-1.5,1.4-1,2.6
		C40.3,183.7,40.7,184.4,41,185.2z"/>
	<path class="st5" d="M45.8,170c0-1.1,0.9-2.1,2-2.3c0.6-0.1,1.1,0.1,1.4,0.5c0.3,0.5,0.1,0.8-0.2,1.2c-0.3,0.4-0.6,0.8-1,1.2
		c-0.4,0.4-0.8,0.7-1.5,0.5C46,171,45.8,170.5,45.8,170z"/>
	<path class="st5" d="M54.7,187.1c0.3-1.5,1.3-2.9,2.8-3.9c0.3-0.2,0.8-0.3,1.1,0.1c0.3,0.3,0.1,0.6-0.1,0.9c-1,1.5-1.7,3.1-1.7,4.9
		c0,0.7-0.3,0.7-0.8,0.4C55.2,188.9,54.7,188.1,54.7,187.1z"/>
	<path class="st5" d="M155.6,181.8c0,0.1-0.1,0.2-0.1,0.4c-0.1,0.6-0.2,1.4-0.9,1.5c-0.6,0.1-0.6-0.7-0.9-1.2
		c-1-1.8-1.1-1.8-3.2-1.3c-0.7,0.2-1.7,0.6-2-0.4c-0.3-0.9,0.6-1.2,1.4-1.4c2.2-0.8,3.6-0.4,5,1.1
		C155.3,180.8,155.5,181.3,155.6,181.8z"/>
	<path class="st5" d="M146.4,172c-0.4-0.1-0.5-0.5-0.7-0.8c-1.1-1.3-1.7-1.5-3.3-0.8c-0.4,0.2-0.9,0.4-1.3,0.6
		c-0.4,0.1-0.8,0-1.1-0.3c-0.3-0.4-0.1-0.7,0.1-1c0.8-1,4-2,5.3-1.6C147.1,168.4,147.5,170.5,146.4,172z"/>
	<path class="st5" d="M136.8,186c0,0.3,0.1,0.6-0.2,0.7c-0.4,0.2-0.5-0.2-0.7-0.4c-0.6-0.4-0.8-1.2-1.6-1.3
		c-0.9-0.2-1.7-0.2-2.5,0.4c-0.4,0.3-1,0.5-1.4,0c-0.4-0.5-0.1-1,0.3-1.4c1.1-1,4.2-1.1,5.3-0.2C136.7,184.4,136.7,185.3,136.8,186z
		"/>
</g>
</svg>
