<?xml version="1.0" encoding="utf-8"?>
<!-- Generator: Adobe Illustrator 27.9.0, SVG Export Plug-In . SVG Version: 6.00 Build 0)  -->
<svg version="1.1" id="Layer_1" xmlns="http://www.w3.org/2000/svg" xmlns:xlink="http://www.w3.org/1999/xlink" x="0px" y="0px"
	 viewBox="0 0 200 200" style="enable-background:new 0 0 200 200;" xml:space="preserve">
<style type="text/css">
	.st0{fill:#4D3B81;}
	.st1{fill:#4F3C82;}
	.st2{fill:#705FA5;}
	.st3{fill:#F4DC8E;}
	.st4{fill:#D4406C;}
	.st5{fill:#873780;}
	.st6{fill:#D1406D;}
	.st7{fill:#F0D98F;}
	.st8{fill:#4A3880;}
	.st9{fill:#4B3981;}
	.st10{fill:#57448A;}
	.st11{fill:#A18EE0;}
	.st12{fill:#EAD490;}
	.st13{fill:#FAFAFB;}
	.st14{fill:#F6F6F8;}
</style>
<g>
	<path class="st0" d="M81.7,40.7c1-1.7,2-3.4,3-5.1C85,35,85.2,33.9,86,34c0.8,0.1,0.9,1.1,1.2,1.7c1.9,3.9,2.3,8.2,2.7,12.4
		c0,0.4,0,0.8,0.2,1.3c0.9-2.6,1.9-5.1,2.8-7.7c0.1-0.3,0.2-0.7,0.1-0.9c-2.2-2.7-1.4-6.3-3.2-9.3c-3.3-5.3-1.1-12.3,1.8-16.5
		c0.6-0.9,1.3-0.9,1.9,0c1.1,1.7,1.5,3.5,1.7,5.5c0.3,3.8-0.3,7.5-1.3,11.1c-0.8,2.7-1.3,5.3-0.5,8.4c1.6-4,2.9-7.8,4.7-11.5
		c0.5-1,1-2,1.5-3c0.3-0.6,0.6-1.2,1.5-1.2c0.9,0,1.2,0.6,1.5,1.2c2.1,4,3.8,8.2,5.4,12.4c0.2,0.5,0.4,1,0.9,1.5
		c0.3-1.8,0.5-3.6,0.1-5.4c-0.7-3-1.6-5.9-1.9-9c-0.3-3.4-0.2-6.6,1.5-9.7c0.7-1.3,1.5-1.5,2.3-0.1c3.3,5.6,4.7,11.3,1.1,17.4
		c-0.7,1.2-1.4,2.5-1.2,4c0.2,1.2-0.3,2.4-1,3.1c-0.9,0.9-0.5,1.5-0.1,2.4c0.9,2.2,1.6,4.4,2.6,7.1c0.5-3.7,0.7-6.9,1.5-10
		c0.4-1.6,1.1-3.2,1.9-4.7c0.6-1.1,1-1.2,1.6-0.1c1.1,1.9,2.2,3.8,3.3,5.9c1.4-3.7,1.4-7.2,0.9-10.8c-0.9-6.8-1.1-13.6,1-20.3
		c0.4-1.1,0.5-2.8,1.6-2.9c1-0.1,1.3,1.7,1.6,2.7c2.5,6.9,2.7,13.6-1.8,19.9c-0.6,0.8-0.7,1.7-0.6,2.6c0.4,3.2,0,6.3-1.9,9
		c-0.3,0.4-0.5,0.7-0.4,1.2c0.6,1.9,1.2,3.9,2,6.2c1.2-5.3,2-10.2,4-14.8c0.2-0.4,0.3-0.8,0.5-1.2c0.7-1.4,1.3-1.5,2.1-0.1
		c0.8,1.3,1.4,2.7,2,4c5.6,11.7,8.3,24.2,10.1,36.9c0.9,6.3,1.1,12.6,1.5,18.9c0.1,1.8,0.5,3.4,2.1,4.6c2.1,1.7,2.6,4.3,3.2,6.8
		c1.3,5.7,1.5,11.4,1.7,17.2c0,1,0.3,1.5,1.3,1.8c6.7,2.3,10.5,7.1,11.7,14.1c0.6,3.6,0.4,7.1-0.4,10.7c-0.3,1.3-0.1,2.3,0.9,3.3
		c1.6,1.6,1.7,3.9,0.6,5.7c-1.9,3.1-5.3,2.8-7.4-0.6c-0.5,0.2-1,0.6-1.5,0.7c-1.1,0.3-2.1,0-2.9-0.8c-0.8-0.8-0.7-1.8-0.3-2.8
		c0.4-0.8,1-1.5,1.7-2c2.4-1.6,3-3.9,2.4-6.6c-0.7-3.3-2.2-6.1-5.1-8c-1.8-1.2-2.1-1-2.4,1c-1.4,7.5-3.7,14.8-7.3,21.6
		c-5.3,10.1-12.8,18.1-23.1,23.2c-2,1-4.1,1.9-6.4,2c-0.7,0-1.1,0.2-0.7,1c0,0.1,0,0.1,0,0.2c-0.2,1.7-1.9,2.3-2.5,3.5
		c-0.5,1.1,0,2.7-1.3,3.7c-0.4,0.3-0.9,0.6-1.3,0.7c-3.7,0.5-7.3,1.1-11.1,0.5c-2.8-0.5-3.8-1.9-3.2-4.6c0.2-0.7,0-0.8-0.5-1.1
		c-1.2-0.6-1.9-1.6-1.9-3c0-0.6-0.2-0.9-0.8-1.1c-15.8-5.3-25.2-16.9-31.1-31.8c-2.2-5.7-3.8-11.5-4.7-17.5c-0.1-1-0.5-1.2-1.4-1.2
		c-6.4-0.4-13.2-5.8-15-12c-1.8-5.7,0.6-13.3,5.4-17c0.6-0.5,1.2-1,1.8-1.4c1-0.7,1.6-1.4,0.9-2.7c-0.6-1.3-0.2-2.5,1.2-3.1
		c1.4-0.6,2.4,0.2,2.8,1.4c0.3,0.8,0.6,0.9,1.3,0.6c0.9-0.5,1.8-0.1,2.4,0.6c0.6,0.7,0.7,1.5,0.3,2.5c-0.6,1.5-1.9,2.3-3.1,3.1
		c-4.9,3.2-6.4,10.6-3.2,15.5c0.7,1.1,1.7,1.8,3,2.1c1.9,0.4,2.9-0.4,2.9-2.3c0-6.1,0.6-12.1,1.9-18.1c0.5-2.4,1.4-4.7,3.5-6.3
		c1-0.7,1.3-1.8,1.4-3c0.5-6.6,0.9-13.1,1.5-19.7c0.6-6.8,2.5-13.3,4-19.9c1.5-7,4.4-13.5,7.4-20c0.5-1,0.9-2.5,2.1-2.4
		c1,0,1.1,1.5,1.5,2.4c1.8,4,2.6,8.3,3.6,12.6c0.1,0.6,0.3,1.2,0.5,2c0.7-2.4,1.4-4.6,2.1-6.9C81.6,41.1,81.6,40.9,81.7,40.7z
		 M109.2,179.1c0.3,0,0.6-0.1,0.8-0.4c0.1,0,0.3,0,0.4-0.1c6-3.7,11.6-8,15.8-13.8c0.3-0.5,0.5-1.7,1.6-0.8
		c-4.5,8.1-11.5,13.6-19.5,17.9c0.2,0.4,0.5,0.5,0.8,0.5c3.7-0.5,7.3-1.2,10.7-3.2c10.9-6.3,18.1-15.7,22.6-27.2
		c2.1-5.4,4-10.9,4.5-16.8c0.9-2.6,0.9-5.4,1-8.2c0.3-7.1,0.2-14.2-1.1-21.2c-0.6-3.3-1.1-6.7-4.2-9c-0.7-0.5-1-1.3-1.1-2.1
		c-0.8-4.2-0.7-8.5-1-12.7c-0.5-6.6-1.3-13.1-2.7-19.6c-1.9-9.2-4.3-18.2-8.3-26.8c-0.1-0.9-0.4-1.8-1.2-2.7
		c-4.5,14.8-6.3,29.8-7.6,44.9c-0.5,4.1-0.9,8.3-1.4,12.4c-0.1,0.7,0.3,1.5-0.7,2.1c0-4.1-0.7-8-1.3-11.8c-1.5-9.1-3.1-18.2-6-27
		c-2.8-8.7-5.5-17.6-9.6-25.8c-0.1-0.6-0.1-1.3-0.8-1.8c-2.1,5.2-4.2,10.3-6.1,15.5c-5.3,14.8-9.2,29.9-10.8,45.6
		c-0.3,0.2-0.3,0.5-0.1,0.8c0,0.8-0.1,1.5-0.1,2.3c-0.9,0.7-0.1,1.8-0.7,2.7c-0.3-2.6-0.6-5.1-0.9-7.6c-0.6-6.1-1.5-12.1-2-18.2
		c-0.5-6.5-1.6-12.9-3-19.2c-1-4.7-1.5-9.5-3.6-13.9c-0.2-0.4-0.3-0.8-0.6-0.1c-0.5,1.4-1,2.8-1.6,4.2c-4.5,10-6.7,20.6-8.6,31.2
		c-1.4,8-1.6,16.1-2.2,24.2c-0.1,1.7-0.6,3.1-1.9,4.1c-1.8,1.4-2.6,3.4-3,5.5c-0.8,4.2-1.4,8.4-1.6,12.7
		c-0.7,10.1,0.2,19.9,3.2,29.6c2.6,8.5,6.2,16.4,12.1,23.1c0.4,0.4,0.6,1.3,1.5,1l0,0c-0.3,0.8,0.3,1.1,0.8,1.5
		c2.9,2.9,5.8,5.6,9.6,7.3c-3.2-2.7-6.1-5.5-8.7-8.7c-2.3-2.8-4.6-5.6-5.9-9.1l0,0c0.4,0,0.7,0.2,1,0.5c2.3,3.4,4.9,6.4,7.6,9.5
		c3.2,3.8,7.1,6.6,11.5,8.8c0.2,0.3,0.4,0.4,0.8,0.4c0.1,0.1,0.3,0.2,0.4,0.3c0,0,0.1-0.1,0.1-0.1c-0.2-0.1-0.3-0.1-0.5-0.2
		c-0.2-0.3-0.4-0.4-0.7-0.4c0-0.6-0.3-0.9-0.7-1.2c-2.3-1.7-4.3-3.7-6-5.8c-2-2.4-4.1-4.7-5.3-7.6l0,0c0.5,0,0.8,0.3,1.1,0.7
		c3.9,4.9,8.3,9.2,13.2,13c1.4,1.1,2.9,2.3,4.8,2.7c-4.4-4.2-9-8.2-12.6-13.8c1.4,0.4,1.8,1,2.3,1.5c4.2,4.3,8.2,8.7,13.2,12.2
		c2.9,2,3,2,5.8-0.1c0.1,0,0.1-0.1,0.1-0.1c2.7-1.8,4.4-4.4,6.3-6.8c0.3-0.3,0.4-1,0.9-0.7c0.5,0.3,0.2,0.9,0,1.3
		c-0.2,0.6-0.9,1.1-0.9,1.8c-0.1,0.1-0.2,0.3-0.3,0.4c0,0,0.1,0.1,0.1,0.1c0.1-0.2,0.1-0.3,0.2-0.5c0.7,0,1.1-0.6,1.5-1
		c2.7-2.4,4.4-5.6,6.4-8.5c0.3-0.5,0.5-1.2,1.7-1.4c-1.2,3.1-2.7,5.7-4.5,8.2c-1.3,1.9-3.4,3.1-4.4,5.2
		C109.6,178.7,109.3,178.8,109.2,179.1c-0.1,0-0.1,0.1-0.2,0.2C109.1,179.2,109.1,179.2,109.2,179.1z M95.6,181.8
		c0.1,0.1,0.1,0.1,0.2,0.2C95.7,181.9,95.7,181.8,95.6,181.8c-0.2-0.3-0.4-0.7-0.8-0.6c-0.1,0-0.2,0.2-0.1,0.3
		C94.8,181.9,95.3,181.7,95.6,181.8z M83.5,179.5c0.2,0.3,0.4,0.4,0.8,0.3c0,0,0.1-0.1,0.1-0.1C84.1,179.6,83.9,179.5,83.5,179.5
		c-0.1-0.8-0.6-1.1-1.4-0.9C82.4,179.3,83,179.4,83.5,179.5z M111.4,20.4c-0.1-0.2-0.2-0.3-0.2-0.5c-0.1-1.3-0.7-2.4-1.4-3.7
		c-0.9,1.1-0.5,2.2-0.7,3.2c-0.2,0.2-0.5,0.3-0.5,0.5c-0.2,3.1-0.3,6.3,1,9.7c0.1-1,0.1-1.6,0.1-2.3c0.7,0.5,0.4,1.5,1.2,1.8
		c0.4-0.9,0.2-1.7,0.3-2.5c0.1,0,0.2,0,0.4,0c0.1,0.9,0.2,1.8,0.4,2.6c-0.2,0.2-0.4,0.4-0.1,0.5c0.4,0.1,0.4-0.3,0.5-0.6
		c0-0.7,0.1-1.4,0.2-2c0.3-2.2,0.1-4.3-1.1-6.2C111.4,20.9,111.4,20.7,111.4,20.4z M97.8,189.3c-0.8-0.2-1.7-0.3-2.5-0.5
		c-0.8-0.2-1.6-0.5-1.9,0.7c-0.2,1,0.3,1.6,1.2,2.1c1.2,0.5,2.4,0.3,3.7,0.3c2.3-0.1,4.6-0.2,6.9-0.4c0.8-0.1,1.8-0.3,1.8-1.3
		c-0.1-1.2-1.1-0.9-1.9-0.9C102.6,189.3,100.2,189.3,97.8,189.3z M91,21.4c-1.3,1.6-1.5,5.9-0.2,8.5c0-1.6,0-2.9,0-4.2
		c0.1,0,0.1,0,0.2,0c0.2,1.2,0.4,2.5,0.7,4c0.4-1.2,0.8-2,1.2-3c0.6,1.2-0.6,2.1,0,3.2c0.7-0.9,0.8-2.1,0.8-3.1
		c0-1.9,1.2-3.8,0.1-5.6c0.1-1.6-0.1-3.1-1.1-4.7C91.5,18.1,91.1,19.7,91,21.4z M123.2,13.6c-1.5,3.8-0.5,7.6-0.6,11.4
		c0.8-2.3,2.1-4.4,2.5-6.9c0,1.7,0,3.5,0,5.2c1-2.4,0.7-4.8,0.6-7.2c-0.2-2.2-0.3-4.5-1.4-6.8C123.5,10.8,123,12.1,123.2,13.6z
		 M43.9,105.2L43.9,105.2c-2.4,1.2-3.8,3.4-4.6,5.9c-1.6,4.7-2.1,9.4,1.6,13.6c2.4,3.4,5.7,5.6,9.8,6.5c1.2,0.3,2.2,0.2,1.9-1.5
		c-0.3-1.4-0.4-2.7-0.3-4.1c0.1-1-0.2-1.3-1.2-1.1c-2.7,0.5-4.7-0.7-6.2-2.9c-3.7-5.4-1.3-15.1,3.8-17.7c0.9-0.4,1.8-1,2.4-1.8
		c0.3-0.4,0.8-1,0.1-1.5c-0.6-0.4-0.9,0.2-1.3,0.5c-0.6,0.4-1,1.5-2,1c-1-0.5-0.2-1.3-0.2-2c0-0.2,0-0.4,0-0.6
		c-0.1-0.6-0.4-1.3-1.1-1.2c-0.8,0.1-0.9,1-0.5,1.5c1.5,2.3-0.2,3.7-1.6,5.1C44.1,104.8,43.9,104.9,43.9,105.2z M95.5,184.6
		c-1.1-0.1-2.1-0.2-3.2-0.1c-0.5,0-1.2-0.7-1.5,0.1c-0.3,0.8,0.2,1.5,1,1.8c1.5,0.7,3.1,1.2,4.8,1.1c1.2,0.1,2.4,0.3,3.5,0.3
		c2.6,0.1,5.4,0.8,7.9-0.7c0.7-0.4,1.7-0.9,1.3-2c-0.4-1-1.4-0.7-2.2-0.6C103.3,185,99.4,184.8,95.5,184.6z M87.6,41.4
		c-0.2-2.1-0.9-4-1.9-6.1c-1.5,3-2.8,5.8-3.6,8.7c-1,3.4-2.3,6.9-1.5,10.6c0.3,1.8,0.5,3.5,0.8,5.3c0.1,0,0.2,0,0.3,0
		c0-1.7,0-3.4,0-5.1c0.8,2.4,1.1,5,1.4,7.5c0.3-3.2,0.7-6.5,1-9.7c0.2,5.1,0.4,10.3,0,15.4c1-4.1,1.6-8.3,2.8-12.5
		c0.7,2-0.5,3.8-0.1,5.6C89.7,54.6,89.1,48,87.6,41.4z M113.7,50.5c-0.7,0.9-0.5,2-0.3,2.9c0.7,3,1.6,5.9,2.5,9.2
		c0-3-0.8-5.6-0.5-8.3c0.9,4.2,1.7,8.5,2.6,12.7c0.1,0,0.2,0,0.2,0c0-4.2,0-8.5,0-12.7c0.3,2.6,0.9,5.2,1,7.8c0.3-2.5,0.6-5,0.9-7.5
		c0.2,1.4,0.4,2.8,0.8,4c1.3-4.2,1.2-8.5-0.1-12.7c-0.6-1.7-0.6-3.7-2.1-5c-0.1-2.1-1.2-3.7-2.1-5.8
		C114.4,40.4,113.7,45.4,113.7,50.5z M149.6,132.4c0,0.6-0.3,1.2,0.6,1.5c4.6,1.5,6.8,5.1,7.8,9.5c0.8,3.4,0.6,6.5-2.7,8.7
		c-0.4,0.2-0.7,0.6-1,0.9c-0.3,0.4-0.9,0.9-0.3,1.4c0.5,0.4,1.1,0.3,1.5-0.1c0.3-0.2,0.5-0.5,0.8-0.8c1.4-0.8,2.2-0.3,2.5,1.2
		c0.2,0.9,0.6,1.8,1.7,1.7c1,0,1.8-0.6,2.3-1.5c0.8-1.5,0.2-2.7-0.9-3.7c-1.2-1.1-1.4-2.2-1.1-3.8c0.8-3.9,0.9-8,0.1-11.9
		c-1.1-5.2-4.2-8.7-9-10.8c-1.1-0.5-1.9-0.5-1.9,1.1C149.9,128,149.7,130.2,149.6,132.4z"/>
	<path class="st1" d="M81.7,40.7c0,0.2-0.1,0.4-0.1,0.7c-1.8-1.9-2.7-4.3-2.5-6.9c0.2-2.9-0.6-5.4-2-7.9c-3.7-6.5-2.3-13.1,0.6-19.5
		c0.6-1.3,1.1-0.4,1.4,0.3c1.3,2.7,1.8,5.6,2.2,8.5c0.9,5.2,0,10.3-0.6,15.4C80.4,34.5,80.9,37.6,81.7,40.7z M77.6,11.3
		c-1.4,3.1-1.6,8.1-0.5,11.2c0.2-1.2,0.4-2.4,0.6-3.6c-0.2,2.5,2,4.3,1.9,6.7c0.7-3.2,1-6.3,0.1-9.5c-0.3-2.3-0.5-4.6-1.6-6.9
		C77.5,9.9,77.5,10.6,77.6,11.3z M77.3,23.6c0,0.1,0,0.1,0,0.2c0,0,0.1,0,0.1,0c0-0.1,0-0.1,0-0.2C77.4,23.7,77.3,23.7,77.3,23.6z"
		/>
	<path class="st2" d="M86.9,179.1c-4.4-2.3-8.2-5.1-11.5-8.8c-2.6-3.1-5.3-6.2-7.6-9.5c-0.2-0.3-0.6-0.5-1-0.5
		c-0.1,0-0.1-0.1-0.2-0.1c0.1,0,0.1,0.1,0.2,0.1c1.3,3.5,3.6,6.2,5.9,9.1c2.6,3.2,5.5,6.1,8.7,8.7c-3.8-1.7-6.8-4.4-9.6-7.3
		c0.1-0.7,0-1.2-0.8-1.5c0,0,0,0,0,0c0.1-0.7-0.5-1.1-0.8-1.6c-2.9-4.1-5-8.5-6.9-13.1c-7.2-17.3-8.2-35-4.3-53.1
		c0.3-1.2,0.7-2.3,2-3.2c0.4,1.3,0.3,2.5,0.9,3.7c0.7-7.7,1-15.3,2.1-22.8c0.4,0.6,0.2,1.2,0.2,1.8c0.4,2.6,0.1,5.4,1.1,8
		c0.2,1.7,0.4,3.5,0.6,5.6c0.5-2-0.1-3.7,0.5-5.3c0.1,1.4,0.1,2.8,0.2,4.3c0.3-1.6,0.6-3.2,0.6-4.8c0-7.2,1.2-14.3,3.3-21.2
		c0.6-2,1.8-4,1.2-6.2c-0.4-1.4-0.2-2.6,0.2-3.8c0.2-0.7,0.2-1.5,0.2-2.2c-0.1-0.5,0.4-1.4-0.4-1.6c-0.7-0.1-0.9,0.8-1.1,1.3
		c-0.6,1.6-0.9,3.4-0.7,5.1c0.2,2.1-0.5,4-1.6,5.8c-0.2-0.2-0.3-0.5-0.2-0.9c0.6-2.3,1.1-4.6,0.1-6.9c-0.1-0.3,0.1-0.7,0.1-1.1
		c0.8-4.4,2.3-8.5,3.3-12.8c0.2-0.7,0.6-1.4-0.2-2.1c0.7-2.8,1.4-5.6,2.4-8.3c2.1,4.4,2.6,9.2,3.6,13.9c1.3,6.3,2.5,12.7,3,19.2
		c0.5,6.1,1.4,12.1,2,18.2c0.2,2.5,0.6,5,0.9,7.6c0.6-0.9-0.3-2,0.7-2.7c0.6,2.5,0.1,5.1,1.2,7.5c0.2-3.7,0.9-7.2,1.1-10.9
		c0.4,0.5,0,1.1,0.5,1.5c0.4-3.3,0.9-6.5,1.2-9.7c0.9-9.7,3.7-19,7.1-28.1c0,0.2,0.2,0.5,0.1,0.7c-1.1,5.2-2.1,10.5-2.4,15.9
		c-0.3,4.3-0.8,8.6-0.5,13c0.6-1-0.1-2,0.6-2.8c0.1,3.8,0,7.7,0.7,11.5c0.3,4,0.4,8,1.5,11.9c0.1-2.4,0.3-4.8,0-7.1
		C94.6,88.3,94.8,83,95,77.7c0.2-5.1,0.9-10.2,0.6-15.4c0-2.9,0.8-5.8,0.5-8.8c0-2.1,0.6-4.1,0.9-6.2c0.1-0.6,0.5-1.2-0.5-1.4
		c1.8-6.1,3.6-12.1,5.4-18.2c4.1,8.3,6.8,17.1,9.6,25.8c2.9,8.8,4.5,17.9,6,27c0.6,3.9,1.3,7.7,1.3,11.8c1-0.6,0.6-1.4,0.7-2.1
		c0.5-4.1,1-8.3,1.4-12.4c0.2,5.6,0,11.3,1.1,17c0.6-0.8,0.4-1.6,0.5-2.4c0.4-4.4,0.3-8.9,0.3-13.4c-0.1-7.8,1.4-15.4,2.6-23.1
		c1-6.9,2.9-13.6,4.4-20.3c4,8.6,6.4,17.6,8.3,26.8c1.3,6.5,2.2,13,2.7,19.6c0.3,4.2,0.3,8.5,1,12.7c0.2,0.8,0.5,1.6,1.1,2.1
		c3,2.2,3.6,5.6,4.2,9c1.3,7,1.3,14.1,1.1,21.2c-0.1,2.7-0.2,5.5-1,8.2c-0.5,0.3-0.6,0.9-0.8,1.4c-1.3,4.6-2.9,9.2-4.9,13.6
		c-2.5,5.6-5,11.2-8.9,16.1c-0.1-0.1-0.2-0.1-0.2-0.2c0.5-1.8,2-3.1,2.2-5.1c-3.2,3.6-5.5,8-9.5,10.8c2.9-4.2,5.5-8.6,7.2-13.4
		c0.2-0.2,0.3-0.5,0.1-0.6c-0.3-0.1-0.2,0.3-0.3,0.4c-1.5,1.8-2.4,4.1-4,5.8c-1.1-0.9-1.2,0.3-1.6,0.8c-4.2,5.8-9.8,10.1-15.8,13.8
		c-0.1,0.1-0.2,0-0.4,0.1c0,0,0,0,0,0c1-2.2,3.1-3.3,4.4-5.2c1.7-2.5,3.2-5.1,4.5-8.2c-1.1,0.2-1.3,0.9-1.7,1.4
		c-2,2.9-3.7,6.1-6.4,8.5c-0.5,0.4-0.8,1-1.5,1l0,0c0-0.7,0.7-1.2,0.9-1.8c0.2-0.5,0.5-1,0-1.3c-0.5-0.3-0.7,0.3-0.9,0.7
		c-1.9,2.5-3.7,5.1-6.3,6.8c-0.1,0-0.1,0.1-0.1,0.1c-2.8,2.1-2.8,2.1-5.8,0.1c-5-3.5-9-7.9-13.2-12.2c-0.5-0.5-0.9-1.2-2.3-1.5
		c3.6,5.6,8.2,9.6,12.6,13.8c-1.9-0.4-3.4-1.6-4.8-2.7c-4.9-3.8-9.4-8.1-13.2-13c-0.3-0.4-0.6-0.7-1.1-0.7c-0.1-0.2-0.1-0.3-0.2-0.5
		c0,0-0.1,0.1-0.1,0.1c0.1,0.1,0.2,0.3,0.3,0.4c1.2,3,3.3,5.3,5.3,7.6c1.8,2.1,3.8,4.2,6,5.8C86.6,178.2,87,178.5,86.9,179.1
		L86.9,179.1z M136.2,79.5c-0.3-6.7-3.1-12.8-3.6-19.7c-1.2,1.4-0.6,2.7-0.9,3.9c-0.6-1.3-0.2-2.6-0.3-3.9c0-1.5-0.5-2.9-1.3-4.2
		c0,1.7,1,3.3,0.5,4.9c-0.5,1.8-0.1,3.3,0.5,4.9c2.8,8.3,4,16.9,4.1,25.6c0,1.1-0.1,2.2,0.1,3.2c0.1,0.6,0.3-0.2,0.4-0.2
		c0.4,0.3,0,1,0.6,1.3c0.2-2.6,0.5-5.1,0.7-7.6c0.8-1.5,0.6-3.2,0.7-4.7c0.5-6.1-0.5-12.1-2.2-18c-0.5-1.7-1.4-3.5-1-5.3
		c0.5-2.6,0.1-5-0.5-7.4c-0.9-3.4-2-6.8-3.5-10c0.2,2.6,1.1,4.9,1.7,7.4c0.7,2.9,2.2,5.7,1.7,8.8c-0.4,2.5-0.2,4.8,0.4,7.2
		c1.1,5.2,2.6,10.3,2.3,15.7C136.2,80.9,136.5,80.2,136.2,79.5z M128.8,80.3c-0.1-2.1,0.3-4.2-0.3-6.3c-0.2-0.7-0.4-1.4-1.2-1.5
		c-0.9-0.2-1.1,0.6-1.4,1.3c-0.6,1.7-1.1,3.4-1.4,5.2c-0.1,0.5-0.2,0.9,0.3,1.1c0.6,0.2,0.7-0.4,0.8-0.8c0.4-1.2,0.8-2.4,1.3-3.9
		C127.8,77.2,127.6,79,128.8,80.3c-0.2,1.1-0.4,2.3-0.6,3.5c-0.1,0.5,0,1,0.4,1.1c0.6,0.2,0.7-0.4,0.8-0.7c0.4-1,0.7-2.1,1.1-3.5
		c0.4,1.5,0.7,2.8,1.1,4.3c0.8-2.6,0.5-5.1,0.5-7.5c0-0.7-0.2-1.6-1.2-1.7c-0.8-0.1-0.9,0.7-1.1,1.3
		C129.5,78.2,129.2,79.3,128.8,80.3z M84.7,158.8c3,1.5,3,1.5,4.4-0.6c0.6,0.6,1,1.8,2.2,1.2c1-0.5,1-1.6,1.6-2.4
		c1.1,0.8,1.3,2.3,2.8,2.8c-0.4-1.9-0.7-3.6-1.6-5.1c-0.8-1.5-1.8-1.4-2.6,0c-0.3,0.6-0.2,1.4-1,1.7c-1-0.6-0.9-2.8-2.6-2.3
		c-1.7,0.5-0.6,2.3-1.2,3.5c-0.8-0.1-1.3-0.7-2-1.1c-0.6-0.3-1.2-0.4-1.8-0.1c-0.7,0.4-0.6,1.1-0.5,1.7c0.2,1.3,0.6,2.5,1.3,3.7
		c0.2,0.3,0.5,0.6,0.9,0.4c0.5-0.2,0.5-0.6,0.4-0.9C84.8,160.4,84.6,159.6,84.7,158.8L84.7,158.8z M94.1,117.2
		c-0.1,0.1-0.2,0.3-0.3,0.4c-0.2-0.1-0.4-0.1-0.6-0.2c-0.4-0.9-1.1-0.3-1.6-0.3c-4.5,0.4-8.9,0.5-13.2-1.5c-0.4-0.2-0.9-0.6-1.3,0.1
		c-0.7-0.1-1.1-1.4-1.6-0.8c-0.7,0.7,0.4,1.3,0.9,1.7c0.5,0.6,0.6,1,0.5,1.8c-0.7,5-1.3,9.9-0.1,14.9c1.6,6.9,5.2,12.1,11.8,14.7
		c5.2,2.1,10.9,2.4,16.5,1.9c2.9-0.3,5.9-0.6,8.6-1.8c8.1-3.5,11.9-10.1,12.5-18.6c0.3-3.7,0.1-7.4-0.7-11c-0.1-0.7-0.1-1.5,0.5-2.1
		c0.5-0.5,1.7-1.1,1.1-1.9c-0.5-0.6-1.3,0.7-2,0.8c-0.3,0-0.5-0.1-0.7,0c-4.8,1.8-9.7,1.9-14.6,0.8c-1.3-0.3-2.3,0.2-3,1.3
		c-0.5,0.8-1.1,1.5-2,1.5c-3.3,0-6.8,1.4-9.6-1.6C94.8,117.2,94.4,117.3,94.1,117.2z M72.2,98c-1.5-0.1-3.9,0.6-6.2,1.9
		c-2.4,1.4-4,3.9-3.5,6.1c0.5,2.5,2.6,3.3,4.8,3.6c3,0.3,5.8,1.2,8.7,2.2c1.4,0.5,2.9,0.6,4.4,0.3c4.8-0.9,6.5-5,3.6-8.9
		C81.2,99.6,77.6,98.1,72.2,98z M129.3,98c-1.7-0.1-3.4,0.2-5,0.7c-2.4,0.8-4.4,2.3-5.8,4.3c-1.5,2-2.1,4.3-0.7,6.7
		c1,1.7,4.1,2.7,6.5,2.5c3-0.3,5.6-2.1,8.7-2.3c1.4-0.1,2.8-0.3,4.2-0.9c2.7-1.1,3.6-3.7,2.1-6.1C137,99.2,133.3,98.3,129.3,98z
		 M104.7,67.4c0-2.5-0.4-4.6-0.8-6.8c-0.1-0.7-0.5-1.4-1.3-1.4c-0.8,0-0.9,0.7-1,1.3c-0.2,1.2-0.5,2.4-0.7,3.7
		c-0.2,1.2,0,2.9-0.8,3.6c-2.1,1.9-2.3,4.5-3.1,6.9c-0.2,0.4-0.6,1,0.1,1.3c0.7,0.3,0.9-0.3,1.2-0.9c0.6-1.4,1.1-2.8,1.9-4.6
		c1,2.7,1.8,4.9,2.7,7.2c0-4.7-2.6-9.3,0-14C103.6,64.8,103.5,66.2,104.7,67.4z M107,63.2c0.5,12.9,0.9,25.7,0.1,38.6
		C109.4,88.9,108.5,76.1,107,63.2z M115.1,161.4c0.9-1.3,1.1-2.6,1.3-3.9c0.1-0.7-0.2-1.2-0.8-1.6c-0.7-0.4-1.3-0.1-1.9,0.4
		c-0.4,0.4-0.6,0.9-1.4,1c0-0.8,0-1.6,0-2.4c0-0.5-0.2-0.8-0.7-1c-0.5-0.1-0.9,0-1.2,0.4c-1.2,1.8-2.4,3.5-3.6,5.3
		c-0.3,0.4-0.4,1,0.2,1.3c0.5,0.3,0.8-0.1,1.1-0.4c0.7-0.9,1.3-1.7,2.1-2.7c0.5,1-0.2,2.5,1.5,2.5c1.3,0.1,1.7-1.4,2.8-1.7
		C114.6,159.5,114.8,160.3,115.1,161.4z M131.7,153.4c1.1-0.8,0.8-2,1.1-2.9c0.3-0.9,0.4-2-0.5-2.8c-1-0.8-1.7,0.2-2.5,0.5
		c-0.1,0.1-0.3,0-0.5,0c0-0.5,0-0.9-0.1-1.4c-0.3-1.3-1.4-1.7-2.4-0.8c-1,0.9-1.9,2-2.8,3c-0.3,0.3-0.6,0.7-0.2,1.1
		c0.4,0.4,0.8,0.2,1.2,0c0.7-0.4,1-1.2,1.9-1.4c0.4,2.8,0.8,2.9,4.1,1.4C131.1,151.2,131.4,152.2,131.7,153.4z M138.8,140.1
		c0.9-1.2,0.5-2.6,0.5-3.9c0-1,0.3-2.1-0.9-2.6c-1.1-0.5-1.7,0.5-2.4,1.1c-0.1,0.1-0.2,0-0.3,0.1c-0.4-0.7-0.4-1.9-1.5-1.9
		c-1,0-1.4,1-1.8,1.8c-0.6,1-1.2,2.1-1.7,3.1c-0.3,0.5-0.8,1.2-0.1,1.7c0.7,0.4,0.9-0.5,1.3-0.8c0.9-0.7,0.9-2,2-2.6
		c0.7,2.3,1.1,2.4,2.6,0.9c1-0.9,1.2-0.5,1.3,0.5C138,138.3,138.2,139.2,138.8,140.1z M105.5,46.4c2,10.7,3.2,21.5,4.3,32.4
		C110.2,67.7,108.8,56.9,105.5,46.4z M138.1,122.1c-0.5-1.3-1.4-2.2-2.2-1c-0.9,1.2-1.2,2.8-1.8,4.3c-0.1,0.2,0,0.6,0.2,0.7
		c0.3,0.2,0.6,0,0.8-0.2c0.5-0.8,0.9-1.6,1.4-2.4c1.4,1.6,1.4,1.6,3.5-0.7c0.7,1.2,0.6,2.9,1.8,4.1c0.3-2.3,0.3-3.7-0.2-5.3
		c-0.2-0.6-0.3-1.2-1.1-1.3c-0.7-0.1-1.2,0.2-1.6,0.7C138.7,121.3,138.5,121.6,138.1,122.1z M70.8,130.8c-0.3-1-0.5-2.4-1-3.7
		c-0.8-2.2-2.7,0.8-3.8-0.6c-0.3-0.4-0.8,0-1.2,0.3c-1.1,1.1-1.8,2.4-2,3.9c0,0.3-0.1,0.7,0.3,0.8c0.2,0,0.5-0.1,0.6-0.3
		c0.8-0.8,1.5-1.7,2.8-0.8c0.1,0.1,0.6-0.2,0.8-0.4c1.2-1.4,1.5-0.6,1.7,0.6c0.1,0.3,0.1,0.6,0.3,0.9c0.2,0.4,0.3,1.1,1,0.9
		C70.9,132.1,70.7,131.5,70.8,130.8z M68.3,142.3c0.7,0.8,0.7,1.7,1.1,2.5c0.2,0.5,0.4,1.2,1.1,1c0.7-0.2,0.7-0.9,0.5-1.4
		c-0.4-1.1-0.7-2.3-1.3-3.3c-0.7-1.4-1.4-1.5-2.6-0.3c-0.4,0.4-0.6,0.6-1.2,0.7c-1.9,0.2-3.5,2.6-3.3,4.8c1.3-0.3,1.8-2.2,2.7-2
		C67.2,144.5,67.7,143.5,68.3,142.3z M73.5,152.6c0.7,0.9,1.3,1.7,2,2.5c0.3,0.3,0.6,0.8,1.1,0.5c0.5-0.3,0.1-0.8-0.1-1.2
		c-0.7-1.1-1.4-2.3-2.1-3.4c-0.3-0.5-0.6-1-1.3-0.9c-0.7,0.1-0.7,0.8-1,1.2c-0.3,0.5,0,1.8-1.4,0.9c-1.2-0.8-1.6,0.2-2,1.2
		c-0.4,1.1-0.9,2.6,0,3.1c1,0.5,1.2-1.1,1.6-1.9c0-0.1,0.2-0.1,0.3-0.2C72.4,155.8,72.4,155.8,73.5,152.6z M109.8,169.1
		c-0.1-0.7-0.1-1.3-0.2-1.9c-0.1-0.8-0.3-1.7-1.1-2c-1-0.4-1.7,0.2-2.3,0.9c-0.8,1-1.6,2-2.4,3.1c-0.4,0.6-1.6,1.4-0.6,2.1
		c0.9,0.6,1.5-0.5,2.1-1.1c0,0,0.1-0.1,0.1-0.2c0.6-0.8,1.2-1.8,2-2.2C108.5,167.2,108.5,169.3,109.8,169.1z M76.7,77.9
		c0.2-2.2,0.1-4.2-0.4-6.1c-0.1-0.6-0.3-1.3-1.1-1.3c-0.7,0-0.9,0.6-1,1.2c-0.3,1.2-0.6,2.4-0.8,3.6c-0.2,1.1-0.8,2.2,0,3.4
		c1.1-1.3,1.1-2.8,1.7-4.2C75.9,75.5,75.7,76.9,76.7,77.9z M99.4,169.9c-0.3-1.4-0.6-2.7-1.3-3.9c-0.4-0.7-1-1.2-1.9-1
		c-0.7,0.2-1.1,0.8-1.3,1.5c-0.3,1.2-0.5,2.4-0.7,3.7c-0.1,0.5,0,1.1,0.5,1.3c0.6,0.2,0.9-0.4,1.1-0.8c0.5-0.8,0.1-2.4,1-2.6
		C97.8,167.8,98.2,169.5,99.4,169.9z M121.9,159c0,0.2,0.1,0.4,0.1,0.7c0.2,0.6,0.2,1.4,1.1,1.3c0.8-0.1,0.8-0.8,0.8-1.5
		c0-0.9,0-1.9,0-2.8c0-0.6,0.1-1.3-0.7-1.6c-0.9-0.3-1.2,0.3-1.6,0.9c-0.4,0.5-0.9,1.1-1.2,1.7c-0.4,0.6-1.1,1.3-0.3,2
		C120.9,160.3,121.2,159,121.9,159z M79.3,67.6c-0.1-1.8-0.2-3.3-0.4-4.7c-0.1-0.5-0.4-0.9-1-0.9c-0.5,0-0.8,0.5-0.8,0.9
		c-0.4,1.7-0.7,3.4-1,5.1c-0.1,0.4,0.2,0.8,0.6,0.9c0.4,0.1,0.7-0.2,0.8-0.6c0.2-0.8,0.4-1.5,0.6-2.3C78.6,66.2,78.5,67,79.3,67.6z
		 M98.5,109.3c-0.5,2,0,3.6,0.5,5.2c0.2,0.5,0.5,0.9,1.1,0.8c0.6-0.1,0.8-0.6,0.8-1.1C100.6,112.4,100.2,110.7,98.5,109.3z
		 M104.7,111.1c-0.1-0.6,0.2-1.4-0.5-1.6c-0.8-0.2-1,0.7-1.2,1.2c-0.4,1-0.7,2-0.7,3.1c0,0.5,0.1,1.1,0.7,1.1
		c0.5,0.1,0.8-0.4,0.9-0.8C104.3,113,104.5,112,104.7,111.1z"/>
	<path class="st3" d="M73.9,33.9c-1.1,2.7-1.8,5.5-2.4,8.3c-0.9,1.7-1.3,3.5-1.9,5.3c-3.3,10.3-4.4,21-5.5,31.7
		C63,86.7,62.7,94.3,62,102c-0.6-1.2-0.6-2.4-0.9-3.7c-1.2,0.9-1.7,2-2,3.2c-3.9,18.1-2.9,35.8,4.3,53.1c1.9,4.6,4,9,6.9,13.1
		c0.3,0.5,0.9,0.9,0.8,1.6c-0.9,0.3-1.1-0.5-1.5-1c-5.9-6.7-9.5-14.7-12.1-23.1c-2.9-9.7-3.8-19.5-3.2-29.6
		c0.3-4.3,0.8-8.5,1.6-12.7c0.4-2.1,1.2-4.1,3-5.5c1.3-1,1.8-2.4,1.9-4.1c0.6-8.1,0.8-16.2,2.2-24.2C65.1,58.6,67.2,48,71.7,38
		c0.6-1.4,1.1-2.8,1.6-4.2C73.6,33.1,73.8,33.5,73.9,33.9z"/>
	<path class="st3" d="M132.3,166.4c3.9-4.8,6.4-10.5,8.9-16.1c2-4.4,3.6-8.9,4.9-13.6c0.2-0.5,0.2-1.1,0.8-1.4
		c-0.5,5.9-2.4,11.4-4.5,16.8c-4.5,11.6-11.8,20.9-22.6,27.2c-3.3,1.9-6.9,2.7-10.7,3.2c-0.3,0-0.6-0.1-0.8-0.5
		c8-4.3,15-9.8,19.5-17.9c1.7-1.7,2.5-4,4-5.8c0.1,0.1,0.2,0.1,0.2,0.2c-1.8,4.8-4.3,9.2-7.2,13.4c4-2.9,6.3-7.2,9.5-10.8
		c-0.2,1.9-1.7,3.3-2.2,5.1c-0.3,0.3-0.7,0.5-0.5,1C132.1,167.2,132.2,166.8,132.3,166.4z M123.7,172.9c-0.1,0.1-0.3,0.3-0.4,0.4
		c-0.2,0.2-0.4,0.4-0.6,0.5c-0.1,0.1-0.2,0.2-0.4,0.4c-0.1,0.1-0.1,0.3-0.2,0.4c0.1,0,0.3-0.1,0.4-0.1c0.1-0.1,0.3-0.2,0.4-0.3
		c0.2-0.2,0.4-0.4,0.6-0.5c0.1-0.1,0.3-0.2,0.4-0.4c0.2-0.1,0.4-0.3,0.1-0.5C124.1,172.6,123.9,172.8,123.7,172.9z"/>
	<path class="st3" d="M101.8,27.9C100,33.9,98.2,40,96.4,46c-0.3,1-0.9,1.9-0.9,2.9c-0.4,0.4-0.4,1-0.5,1.5l0,0
		c-3.4,9.1-6.2,18.3-7.1,28.1c-0.3,3.2-0.8,6.4-1.2,9.7c-0.5-0.4-0.1-1-0.5-1.5c-0.2,3.7-1,7.3-1.1,10.9c-1.1-2.4-0.6-5-1.2-7.5
		c0-0.8,0.1-1.5,0.1-2.3c0-0.3,0.1-0.5,0.1-0.8c1.5-15.7,5.5-30.8,10.8-45.6c1.8-5.2,4-10.3,6.1-15.5
		C101.7,26.5,101.7,27.2,101.8,27.9z"/>
	<path class="st4" d="M149.6,132.4c0.1-2.2,0.3-4.4,0.3-6.6c0-1.6,0.8-1.7,1.9-1.1c4.7,2.2,7.9,5.7,9,10.8c0.8,4,0.7,8-0.1,11.9
		c-0.3,1.6-0.1,2.7,1.1,3.8c1.1,1,1.7,2.2,0.9,3.7c-0.5,0.9-1.2,1.5-2.3,1.5c-1.1,0-1.5-0.8-1.7-1.7c-0.3-1.5-1.1-2-2.5-1.2
		c0-0.7,0.4-1.2,0.9-1.6c2.3-2.2,2.4-4.9,1.8-7.8C157.9,138.4,155.5,134.1,149.6,132.4z"/>
	<path class="st4" d="M44.4,104.8c1.4-1.4,3-2.7,1.6-5.1c-0.3-0.5-0.3-1.4,0.5-1.5c0.8-0.1,1,0.6,1.1,1.2c0,0.2,0,0.4,0,0.6
		c0,0.7-0.8,1.5,0.2,2c1,0.5,1.4-0.6,2-1c0.4-0.3,0.7-0.9,1.3-0.5c0.6,0.5,0.2,1-0.1,1.5c-0.6,0.9-1.5,1.4-2.4,1.8
		c-5.1,2.6-7.5,12.2-3.8,17.7c1.5,2.2,3.5,3.4,6.2,2.9c1-0.2,1.3,0.1,1.2,1.1c-0.1,1.4,0.1,2.7,0.3,4.1c0.3,1.6-0.7,1.8-1.9,1.5
		c-4.1-0.9-7.4-3-9.8-6.5c0-0.4,0-0.9-0.1-1.3c-1.3-3.9-0.7-7.7,0.2-11.6c0.5-2.4,2-4.4,2.9-6.6c0,0,0,0,0,0
		C44.2,105.2,44.3,105,44.4,104.8z"/>
	<path class="st5" d="M118.7,41.1c1.6,1.3,1.6,3.3,2.1,5c1.4,4.2,1.4,8.5,0.1,12.7c-0.4-1.3-0.6-2.6-0.8-4c-0.3,2.5-0.6,5-0.9,7.5
		c-0.1-2.6-0.7-5.2-1-7.8c0,4.2,0,8.5,0,12.7c-0.1,0-0.2,0-0.2,0c-0.9-4.2-1.7-8.5-2.6-12.7c-0.4,2.7,0.5,5.3,0.5,8.3
		c-0.9-3.3-1.8-6.2-2.5-9.2c-0.2-0.9-0.4-2,0.3-2.9c1.1-2.8,1.5-5.9,2.8-8.7c0.4,0.5-0.1,1.1,0.5,1.6c0.2-0.8,0.4-1.6,0.6-2.3
		c0.4,0.2,0.3,1,0.8,0.9C118.6,41.9,118.6,41.3,118.7,41.1z"/>
	<path class="st3" d="M129.6,35.8c-1.5,6.8-3.4,13.5-4.4,20.3c-1.1,7.7-2.7,15.3-2.6,23.1c0.1,4.5,0.2,8.9-0.3,13.4
		c-0.1,0.8,0.1,1.6-0.5,2.4c-1.1-5.7-0.9-11.3-1.1-17c1.3-15.1,3.1-30.2,7.6-44.9C129.2,34,129.5,34.9,129.6,35.8z"/>
	<path class="st5" d="M87.6,41.4c1.5,6.6,2,13.2-1,19.6c-0.4-1.8,0.8-3.6,0.1-5.6c-1.1,4.2-1.8,8.4-2.8,12.5
		c0.5-5.1,0.3-10.2,0-15.4c-0.3,3.2-0.7,6.5-1,9.7c-0.3-2.5-0.5-5-1.4-7.5c0,1.7,0,3.4,0,5.1c-0.1,0-0.2,0-0.3,0
		c-0.3-1.8-0.5-3.5-0.8-5.3c0.3-0.7,0.6-1.5,0.9-2.2c1.1-2.9,0.8-6.4,3.6-8.7c0.8-0.7,1.1-2,1.8-3.2C86.9,41,87.1,41.5,87.6,41.4z"
		/>
	<path class="st6" d="M87.6,41.4c-0.6,0.1-0.7-0.4-0.8-1c-0.6,1.2-0.9,2.6-1.8,3.2c-2.8,2.3-2.4,5.8-3.6,8.7
		c-0.3,0.7-0.6,1.5-0.9,2.2c-0.8-3.7,0.5-7.1,1.5-10.6c0.8-2.9,2.2-5.7,3.6-8.7C86.7,37.4,87.4,39.3,87.6,41.4z"/>
	<path class="st5" d="M95.5,184.6c3.9,0.3,7.8,0.5,11.7-0.1c0.8-0.1,1.8-0.4,2.2,0.6c0.4,1-0.6,1.6-1.3,2c-2.5,1.5-5.3,0.8-7.9,0.7
		c-1.2,0-2.3-0.2-3.5-0.3C96,186.6,94.2,186.2,95.5,184.6z"/>
	<path class="st3" d="M43.9,105.2c-0.9,2.2-2.4,4.2-2.9,6.6c-0.9,3.9-1.5,7.7-0.2,11.6c0.1,0.4,0.1,0.9,0.1,1.3
		c-3.7-4.1-3.2-8.8-1.6-13.6C40.1,108.6,41.5,106.4,43.9,105.2z"/>
	<path class="st7" d="M149.6,132.4c5.9,1.7,8.3,6,9.4,11.7c0.6,3,0.4,5.6-1.8,7.8c-0.4,0.4-0.9,0.9-0.9,1.6
		c-0.2,0.3-0.5,0.6-0.8,0.8c-0.5,0.4-1.1,0.5-1.5,0.1c-0.6-0.6,0-1,0.3-1.4c0.3-0.3,0.6-0.6,1-0.9c3.2-2.2,3.4-5.3,2.7-8.7
		c-1-4.4-3.2-8-7.8-9.5C149.3,133.6,149.6,133,149.6,132.4z"/>
	<path class="st5" d="M111.1,26.8c-0.1,0.8,0.2,1.6-0.3,2.5c-0.8-0.3-0.5-1.4-1.2-1.8c0,0.7-0.1,1.3-0.1,2.3c-1.3-3.4-1.2-6.6-1-9.7
		c0-0.2,0.3-0.3,0.5-0.5c0.1,0.7,0.2,1.4,0.3,2.1c0.8-0.3,0.4-1,0.8-1.3c0.3,0.6,0,1.5,0.7,2c0.2-0.4,0.3-0.8,0.5-1.2
		c1.2,1.9,1.3,4.1,1.1,6.2c-0.1,0.7-0.2,1.4-0.2,2c-0.1,0-0.3,0-0.4,0c-0.1-0.9-0.2-1.8-0.4-2.6c0-0.4-0.1-0.8-0.1-1.3
		C111,25.9,111.1,26.4,111.1,26.8z"/>
	<path class="st6" d="M118.7,41.1c-0.1,0.3-0.1,0.8-0.3,0.9c-0.6,0.1-0.4-0.6-0.8-0.9c-0.2,0.8-0.4,1.5-0.6,2.3
		c-0.5-0.4,0-1.1-0.5-1.6c-1.4,2.8-1.7,5.9-2.8,8.7c0-5.1,0.7-10.2,2.9-15.3C117.5,37.4,118.7,39,118.7,41.1z"/>
	<path class="st5" d="M125.7,16.1c0.1,2.4,0.4,4.8-0.6,7.2c0-1.7,0-3.5,0-5.2c-0.4,2.5-1.6,4.6-2.5,6.9c0-3.8-0.9-7.7,0.6-11.4
		c0.6,0.3,0.1,1.1,0.6,1.5c0.1-0.6,0.2-1.1,0.2-1.6C125,14.2,124.2,15.8,125.7,16.1z"/>
	<path class="st5" d="M93.7,21.1c1.1,1.9-0.1,3.8-0.1,5.6c0,1-0.1,2.1-0.8,3.1c-0.6-1.1,0.6-2,0-3.2c-0.4,1-0.7,1.9-1.2,3
		c-0.3-1.5-0.5-2.7-0.7-4c-0.1,0-0.1,0-0.2,0c0,1.3,0,2.6,0,4.2c-1.3-2.5-1.1-6.9,0.2-8.5c0.1,0.5,0.1,1,0.2,2
		c0.5-1.3,0.8-2.3,1.2-3.5c0.3,1.2,0.5,2.1,0.7,3.1C93.6,22.4,93.1,21.6,93.7,21.1z"/>
	<path class="st5" d="M97.8,189.3c2.4,0,4.7,0,7.1,0c0.8,0,1.9-0.3,1.9,0.9c0,1-1,1.2-1.8,1.3c-2.3,0.2-4.6,0.3-6.9,0.4
		c-0.5-1,0.6-0.6,0.8-1c-0.8-0.3-1.6-0.7-2.5-1C97,189.6,97.6,189.8,97.8,189.3z"/>
	<path class="st6" d="M97.8,189.3c-0.2,0.5-0.8,0.2-1.3,0.6c0.9,0.4,1.7,0.7,2.5,1c-0.2,0.4-1.3,0-0.8,1c-1.2,0-2.5,0.2-3.7-0.3
		c-0.9-0.4-1.4-1.1-1.2-2.1c0.3-1.2,1.1-0.9,1.9-0.7C96.1,189.1,97,189.2,97.8,189.3z"/>
	<path class="st6" d="M95.5,184.6c-1.3,1.6,0.5,2,1.2,2.8c-1.7,0.1-3.3-0.4-4.8-1.1c-0.7-0.3-1.2-1.1-1-1.8c0.3-0.7,1,0,1.5-0.1
		C93.4,184.4,94.4,184.5,95.5,184.6z"/>
	<path class="st6" d="M93.7,21.1c-0.6,0.5-0.1,1.3-0.5,2c-0.2-1-0.4-1.9-0.7-3.1c-0.4,1.2-0.7,2.1-1.2,3.5c-0.1-1-0.2-1.5-0.2-2
		c0-1.7,0.5-3.3,1.6-5C93.6,18,93.7,19.5,93.7,21.1z"/>
	<path class="st6" d="M125.7,16.1c-1.4-0.3-0.6-1.9-1.6-2.6c-0.1,0.5-0.2,1-0.2,1.6c-0.6-0.4,0-1.2-0.6-1.5
		c-0.1-1.5,0.4-2.7,1.1-4.3C125.4,11.6,125.4,13.9,125.7,16.1z"/>
	<path class="st6" d="M111.4,21.1c-0.2,0.4-0.3,0.8-0.5,1.2c-0.7-0.5-0.4-1.3-0.7-2c-0.4,0.3-0.1,1-0.8,1.3
		c-0.1-0.7-0.2-1.4-0.3-2.1c0.2-1-0.2-2.2,0.7-3.2c0.7,1.2,1.3,2.3,1.4,3.7c0.1,0.2,0.2,0.3,0.2,0.5
		C111.4,20.7,111.4,20.9,111.4,21.1z"/>
	<path class="st2" d="M83.5,179.5c-0.5-0.1-1.1-0.2-1.4-0.9C82.9,178.5,83.4,178.7,83.5,179.5L83.5,179.5z"/>
	<path class="st3" d="M71.1,169.3c0.8,0.2,0.8,0.8,0.8,1.5C71.3,170.4,70.7,170.1,71.1,169.3z"/>
	<path class="st2" d="M95.6,181.8c-0.3,0-0.8,0.1-1-0.3c0-0.1,0.1-0.3,0.1-0.3C95.3,181.1,95.4,181.4,95.6,181.8L95.6,181.8z"/>
	<path class="st1" d="M111.1,26.8c0-0.4-0.1-0.8,0.3-1.3c0,0.5,0.1,0.9,0.1,1.3C111.3,26.8,111.2,26.8,111.1,26.8z"/>
	<path class="st1" d="M111.8,29.4c0.1,0,0.3,0,0.4,0c0,0.3,0,0.7-0.5,0.6C111.4,29.8,111.6,29.6,111.8,29.4z"/>
	<path class="st2" d="M83.6,179.5c0.3,0.1,0.5,0.1,0.8,0.2c0,0-0.1,0.1-0.1,0.1C84,179.9,83.7,179.8,83.6,179.5
		C83.5,179.5,83.6,179.5,83.6,179.5z"/>
	<path class="st2" d="M84.2,87.1c0,0.3-0.1,0.5-0.1,0.8C83.9,87.6,83.9,87.3,84.2,87.1z"/>
	<path class="st2" d="M87.7,179.5c0.2,0.1,0.3,0.1,0.5,0.2c0,0-0.1,0.1-0.1,0.1C88,179.7,87.8,179.6,87.7,179.5
		C87.7,179.5,87.7,179.5,87.7,179.5z"/>
	<path class="st2" d="M87,179.1c0.3,0,0.6,0.1,0.7,0.4c0,0,0,0,0,0C87.4,179.5,87.1,179.4,87,179.1C86.9,179.1,87,179.1,87,179.1z"
		/>
	<path class="st2" d="M109.2,179.1c0.2-0.3,0.4-0.4,0.7-0.4c0,0,0,0,0,0C109.8,179.1,109.5,179.1,109.2,179.1L109.2,179.1z"/>
	<path class="st2" d="M109.2,176.1c-0.1,0.2-0.1,0.3-0.2,0.5c0,0-0.1-0.1-0.1-0.1C109,176.4,109.1,176.2,109.2,176.1
		C109.2,176.1,109.2,176.1,109.2,176.1z"/>
	<path class="st2" d="M109.2,179.1c-0.1,0.1-0.1,0.1-0.2,0.2C109.1,179.2,109.1,179.2,109.2,179.1
		C109.2,179.1,109.2,179.1,109.2,179.1z"/>
	<path class="st5" d="M111.4,20.4c-0.1-0.2-0.2-0.3-0.2-0.5C111.2,20.1,111.3,20.3,111.4,20.4z"/>
	<path class="st2" d="M95.6,181.8c0.1,0.1,0.1,0.1,0.2,0.2C95.7,181.9,95.7,181.8,95.6,181.8C95.6,181.8,95.6,181.8,95.6,181.8z"/>
	<path class="st3" d="M44.4,104.8c-0.1,0.2-0.2,0.4-0.5,0.4C43.9,104.9,44.1,104.8,44.4,104.8z"/>
	<path class="st5" d="M79.7,16.1c0.9,3.1,0.6,6.3-0.1,9.5c0.1-2.4-2.1-4.2-1.9-6.7c-0.2,1.2-0.4,2.4-0.6,3.6
		c-1.1-3.1-0.8-8.1,0.5-11.2c0.3,1.5,0.6,3,0.9,4.8c0.1-0.6,0.2-1,0.3-1.4C79.3,15.1,78.6,16.1,79.7,16.1z"/>
	<path class="st6" d="M79.7,16.1c-1,0-0.4-1-0.9-1.5c-0.1,0.4-0.2,0.8-0.3,1.4c-0.3-1.8-0.6-3.3-0.9-4.8c0-0.7,0-1.4,0.5-2.1
		C79.1,11.5,79.4,13.8,79.7,16.1z"/>
	<path class="st5" d="M77.3,23.6c0,0,0.1,0,0.1,0c0,0.1,0,0.1,0,0.2c0,0-0.1,0-0.1,0C77.2,23.7,77.3,23.7,77.3,23.6z"/>
	<path class="st8" d="M93.1,117.4c0.2,0.1,0.4,0.1,0.6,0.2c0.1,0,0.2,0,0.3,0c1,1.8,2.4,3.3,4.7,3.2c1.9,0,3.8-0.1,5.6-0.2
		c1.1,0,2.1-0.5,2.5-1.4c1.1-2.3,2.8-2,4.7-1.4c3.7,1.2,7.4,0.9,11-0.7c0.9-0.4,2-0.7,2.4-1.9c0.8-0.1,1.5-1.4,2-0.8
		c0.7,0.8-0.6,1.3-1.1,1.9c-0.6,0.6-0.7,1.3-0.5,2.1c0.7,3.6,1,7.3,0.7,11c-0.6,8.5-4.4,15.1-12.5,18.6c-2.7,1.2-5.7,1.5-8.6,1.8
		c-5.6,0.5-11.2,0.1-16.5-1.9c-6.6-2.6-10.3-7.9-11.8-14.7c-1.1-5-0.6-9.9,0.1-14.9c0.1-0.8,0.1-1.3-0.5-1.8c-0.5-0.5-1.6-1-0.9-1.7
		c0.6-0.6,1,0.8,1.6,0.8c1.4,1,3,1.8,4.6,2.3C85.7,119.4,89.4,118.3,93.1,117.4z M107,143.3c-1.7-0.2-3.5-0.3-4.2-2.3
		c0.1-0.6,0.4-1.1-0.4-1.5c-2.8-1.5-9.1-0.4-11.1,2.1c-1.4,1.7-1,3.5,0.9,4.7c3,1.8,6.3,1.9,9.6,1.9c3.4-0.1,6.8-0.5,10.1-1.8
		c2.4-0.9,4.7-2,6.2-4.2c0.6-0.1,1.2-0.1,1.3-0.8c0.1-0.5-0.4-0.6-0.8-0.7c-3.8-1.3-7.6-2.2-11.5-0.9c-2.5,0.8-2.5,0.8-0.7,2.6
		C106.5,142.7,106.7,143,107,143.3z M112.3,130.8c2-0.2,4.7-0.7,7.4-1.5c1.1-0.3,1.5-1,1.3-2.3c-0.3-2.3-1.5-4.3-2.3-6.5
		c-0.2-0.7-0.7-0.6-1.2-0.5c-1.7,0.4-3.4,0.1-5-0.3c-2-0.5-3.7-0.8-4.9,1.3c-0.3,0.6-1.4,0.5-1.2,1.4c0.3,2.2,0.6,4.3,1.7,6.3
		C108.9,130.2,109.9,130.9,112.3,130.8z M90.4,130.8c1,0.1,2.1,0,2.8-0.8c1.9-1.9,2.3-4.5,2.7-7c0.3-1.6-1.4-1.6-1.8-2.5
		c-0.1-0.1-0.2-0.2-0.2-0.3c-0.5-1-1.2-1.1-2.3-0.9c-2.2,0.6-4.5,1.1-6.9,0.6c-0.5-0.1-1-0.1-1.2,0.6c-0.7,2.1-1.8,4-2.2,6.1
		c-0.3,1.3,0.1,2.3,1.6,2.6C85.4,130,87.9,130.5,90.4,130.8z"/>
	<path class="st9" d="M72.2,98c5.5,0.1,9.1,1.6,11.7,5.1c2.9,3.9,1.2,8-3.6,8.9c-1.5,0.3-3,0.2-4.4-0.3c-2.8-1-5.7-1.8-8.7-2.2
		c-2.1-0.2-4.3-1-4.8-3.6c-0.4-2.2,1.1-4.8,3.5-6.1C68.2,98.6,70.7,97.8,72.2,98z M67.4,101.5c-1.8,0.5-3.4,2.6-3.2,4
		c0.2,1.5,1.9,2.5,4.2,2.5C66.5,106,66.8,103.7,67.4,101.5c0.1-0.1,0.1-0.2,0.2-0.2c-0.1,0-0.1,0-0.2-0.1
		C67.4,101.3,67.4,101.4,67.4,101.5z M75.4,110c2.6,1,5,1.1,7.2-0.6c1.1-0.9,1.2-2.2,0.8-3.4c-0.6-1.9-1.7-3.5-3.9-4.3
		C80.9,105.6,79.8,107.9,75.4,110z M73.8,100.3c-1.1-0.1-1.5,0.5-1.6,1.5c0,1,0.8,1.2,1.6,1.2c1,0,2.1-0.4,2-1.4
		C75.8,100.6,74.7,100.3,73.8,100.3z"/>
	<path class="st9" d="M129.3,98c4,0.3,7.7,1.2,10,4.9c1.5,2.5,0.6,5-2.1,6.1c-1.4,0.6-2.8,0.8-4.2,0.9c-3,0.2-5.6,2-8.7,2.3
		c-2.4,0.2-5.5-0.8-6.5-2.5c-1.4-2.4-0.8-4.7,0.7-6.7c1.5-2,3.4-3.5,5.8-4.3C126,98.2,127.6,97.9,129.3,98z M126.8,109.9
		c-3.6-1.7-5.8-4.1-3.9-8.6c-3.4,2.1-4.9,5.2-3.8,7.3C120.2,110.6,123.9,111.3,126.8,109.9z M134.8,101.2c1,2.4,0.8,4.7-0.9,7.1
		c2.1-0.5,3.9-0.8,4.3-2.9C138.5,104,136.9,102.1,134.8,101.2z M128.3,102.9c1,0,1.9-0.2,1.8-1.3c0-0.8-0.5-1.4-1.5-1.4
		c-0.9,0.1-1.9,0.2-2.1,1.2C126.4,102.6,127.6,102.7,128.3,102.9z"/>
	<path class="st10" d="M64.1,79.2c1.1-10.7,2.3-21.4,5.5-31.7c0.6-1.8,1-3.6,1.9-5.3c0.7,0.6,0.3,1.3,0.2,2.1
		c-1,4.3-2.5,8.5-3.3,12.8c-0.1,0.4-0.2,0.8-0.1,1.1c1.1,2.3,0.6,4.6-0.1,6.9c-0.1,0.3,0,0.6,0.2,0.9c0,0.3,0,0.6-0.3,0.7
		c-0.4,0.2-0.4,0.4-0.2,0.7c-0.1,0.5-0.5,0.7-0.7,1.3c-1.4,6.7-2.2,13.4-1.9,20.2c-0.9-2.6-0.6-5.3-1.1-8
		C64.2,80.4,64.5,79.8,64.1,79.2z"/>
	<path class="st7" d="M125,115.4c-0.4,1.2-1.5,1.5-2.4,1.9c-3.6,1.6-7.2,1.9-11,0.7c-1.9-0.6-3.6-0.9-4.7,1.4
		c-0.4,0.9-1.4,1.3-2.5,1.4c-1.9,0-3.8,0.2-5.6,0.2c-2.3,0-3.6-1.4-4.7-3.2c0-0.1,0-0.3,0-0.4c0.3,0.1,0.7,0,0.9,0.2
		c2.8,3,6.3,1.6,9.6,1.6c0.9,0,1.5-0.7,2-1.5c0.7-1.1,1.7-1.6,3-1.3c4.9,1.1,9.8,1,14.6-0.8C124.5,115.3,124.8,115.4,125,115.4z"/>
	<path class="st11" d="M84.7,158.8c-0.1,0.8,0.1,1.6,0.3,2.4c0.1,0.3,0.1,0.8-0.4,0.9c-0.4,0.1-0.8-0.1-0.9-0.4
		c-0.6-1.2-1-2.4-1.3-3.7c-0.1-0.6-0.2-1.3,0.5-1.7c0.6-0.3,1.2-0.2,1.8,0.1c0.6,0.4,1.1,1,2,1.1c0.6-1.1-0.5-3,1.2-3.5
		c1.7-0.5,1.6,1.7,2.6,2.3c0.8-0.3,0.6-1.2,1-1.7c0.9-1.4,1.8-1.5,2.6,0c0.9,1.5,1.2,3.2,1.6,5.1c-1.5-0.5-1.7-2-2.8-2.8
		c-0.6,0.8-0.6,2-1.6,2.4c-1.2,0.6-1.6-0.6-2.2-1.2C87.7,160.2,87.7,160.2,84.7,158.8c-0.1,0-0.1,0-0.2-0.1
		C84.6,158.7,84.6,158.7,84.7,158.8z"/>
	<path class="st9" d="M136.6,81.5c0.3-5.4-1.1-10.5-2.3-15.7c-0.5-2.4-0.8-4.7-0.4-7.2c0.5-3-1-5.9-1.7-8.8
		c-0.6-2.4-1.5-4.8-1.7-7.4c1.4,3.3,2.5,6.6,3.5,10c0.6,2.4,1.1,4.8,0.5,7.4c-0.4,1.7,0.5,3.6,1,5.3c1.7,5.9,2.7,11.8,2.2,18
		c-0.1,1.6,0.1,3.2-0.7,4.7c0-0.3,0-0.7,0-1c0-1.4,0.4-2.9-0.3-4.3C136.7,82.2,136.7,81.9,136.6,81.5z"/>
	<path class="st7" d="M65.4,89c-0.3-6.8,0.6-13.5,1.9-20.2c0.1-0.5,0.5-0.8,0.7-1.3c0.1-0.2,0.1-0.5,0.2-0.7
		c0.3-0.2,0.3-0.5,0.3-0.7c1.1-1.8,1.7-3.7,1.6-5.8c-0.1-1.8,0.1-3.5,0.7-5.1c0.2-0.6,0.4-1.4,1.1-1.3c0.9,0.1,0.3,1,0.4,1.6
		c-0.9,2.1-1.9,4.1-1.1,6.4c0.2,0.7-0.1,1.4-0.4,2c-3.2,8.2-4.7,16.7-4.3,25.5c-0.5,1.6,0,3.3-0.5,5.3C65.8,92.5,65.6,90.7,65.4,89z
		"/>
	<path class="st11" d="M104.7,67.4c-1.1-1.2-1-2.6-1.9-3.6c-2.6,4.7,0,9.3,0,14c-0.8-2.3-1.7-4.5-2.7-7.2c-0.7,1.8-1.3,3.2-1.9,4.6
		c-0.2,0.5-0.4,1.2-1.2,0.9c-0.7-0.3-0.2-0.9-0.1-1.3c0.8-2.4,1-5,3.1-6.9c0.7-0.7,0.5-2.3,0.8-3.6c0.2-1.2,0.5-2.4,0.7-3.7
		c0.1-0.6,0.2-1.4,1-1.3c0.8,0,1.2,0.6,1.3,1.4C104.3,62.8,104.7,64.9,104.7,67.4z"/>
	<path class="st1" d="M135.7,94.1c-0.2,0.1-0.3,0.8-0.4,0.2c-0.2-1-0.1-2.1-0.1-3.2c-0.1-8.7-1.3-17.3-4.1-25.6
		c-0.5-1.6-1-3.2-0.5-4.9c0.5-1.6-0.5-3.3-0.5-4.9c0.9,1.3,1.3,2.6,1.3,4.2c0,1.3-0.3,2.6,0.3,3.9c1.7,5.2,3.3,10.4,3.9,15.8
		c0.1,2.1,0.2,4.1,0.3,6.2C136.1,88.5,135.4,91.3,135.7,94.1z"/>
	<path class="st9" d="M107,63.2c1.5,12.8,2.4,25.7,0.1,38.6C107.8,88.9,107.4,76.1,107,63.2z"/>
	<path class="st0" d="M95.5,62.4c0.3,5.1-0.4,10.2-0.6,15.4c-0.2,5.3-0.3,10.5,0.2,15.8c0.2,2.4,0,4.8,0,7.1
		c-1.1-3.9-1.2-7.9-1.5-11.9c0-0.3,0.1-0.6,0.1-0.9c0-6.6,0.3-13.1,0.8-19.6C94.7,66.3,94.5,64.2,95.5,62.4z"/>
	<path class="st1" d="M66.5,89.2c-0.5-8.8,1-17.3,4.3-25.5c0.3-0.6,0.6-1.3,0.4-2c-0.7-2.4,0.3-4.4,1.1-6.4c0,0.7,0,1.5-0.2,2.2
		c-0.4,1.2-0.6,2.5-0.2,3.8c0.6,2.2-0.6,4.2-1.2,6.2c-2.1,6.9-3.3,13.9-3.3,21.2c0,1.6-0.3,3.2-0.6,4.8
		C66.6,92.1,66.5,90.7,66.5,89.2z"/>
	<path class="st11" d="M115.1,161.4c-0.3-1-0.5-1.9-0.7-2.7c-1.1,0.3-1.5,1.7-2.8,1.7c-1.7-0.1-1-1.5-1.5-2.5
		c-0.7,1-1.4,1.9-2.1,2.7c-0.3,0.3-0.6,0.7-1.1,0.4c-0.6-0.3-0.4-0.9-0.2-1.3c1.2-1.8,2.4-3.5,3.6-5.3c0.3-0.4,0.7-0.5,1.2-0.4
		c0.5,0.1,0.7,0.5,0.7,1c0,0.8,0,1.6,0,2.4c0.8,0,1.1-0.6,1.4-1c0.6-0.5,1.1-0.8,1.9-0.4c0.6,0.3,0.9,0.9,0.8,1.6
		C116.1,158.7,116,160,115.1,161.4z"/>
	<path class="st11" d="M131.7,153.4c-0.3-1.2-0.6-2.2-0.8-3.2c-3.3,1.6-3.7,1.4-4.1-1.4c-0.9,0.2-1.2,1-1.9,1.4
		c-0.4,0.2-0.9,0.4-1.2,0c-0.4-0.4-0.1-0.8,0.2-1.1c0.9-1,1.8-2.1,2.8-3c1-0.9,2-0.5,2.4,0.8c0.1,0.4,0.1,0.9,0.1,1.4
		c0.2,0,0.4,0.1,0.5,0c0.8-0.4,1.5-1.3,2.5-0.5c0.9,0.8,0.8,1.9,0.5,2.8C132.5,151.4,132.8,152.6,131.7,153.4z"/>
	<path class="st11" d="M138.8,140.1c-0.6-0.8-0.8-1.7-1-2.7c-0.1-1-0.3-1.5-1.3-0.5c-1.6,1.5-2,1.4-2.6-0.9c-1.1,0.6-1.2,1.9-2,2.6
		c-0.4,0.3-0.6,1.2-1.3,0.8c-0.7-0.4-0.2-1.1,0.1-1.7c0.6-1.1,1.2-2.1,1.7-3.1c0.4-0.8,0.8-1.7,1.8-1.8c1.1,0,1.1,1.2,1.5,1.9
		c0.1,0,0.3,0,0.3-0.1c0.7-0.6,1.3-1.6,2.4-1.1c1.2,0.5,0.9,1.7,0.9,2.6C139.3,137.5,139.7,138.8,138.8,140.1z"/>
	<path class="st1" d="M95.6,49c0-1.1,0.6-1.9,0.9-2.9c1,0.2,0.6,0.8,0.5,1.4c-0.4,2-1,4.1-0.9,6.2c-0.3,0.2-0.3,0.5-0.4,0.8
		c-1.4,7.6-2.1,15.2-2.7,22.9c-0.7,0.8,0,1.8-0.6,2.8c-0.3-4.5,0.2-8.7,0.5-13c0.4-5.4,1.3-10.6,2.4-15.9c0-0.2-0.1-0.5-0.1-0.7
		c0,0,0,0,0,0C95.9,50.1,95.5,49.5,95.6,49z"/>
	<path class="st9" d="M105.5,46.4c3.3,10.5,4.7,21.3,4.3,32.4C108.7,67.9,107.5,57.1,105.5,46.4z"/>
	<path class="st12" d="M92.9,77.3c0.5-7.7,1.2-15.3,2.7-22.9c0.1-0.3,0.1-0.6,0.4-0.8c0.3,2.9-0.5,5.8-0.5,8.8c-1,1.8-0.9,3.9-1,5.8
		c-0.5,6.5-0.9,13.1-0.8,19.6c0,0.3-0.1,0.6-0.1,0.9C93,85,93.1,81.1,92.9,77.3z"/>
	<path class="st11" d="M138.1,122.1c0.4-0.5,0.6-0.8,0.8-1.1c0.4-0.5,0.9-0.8,1.6-0.7c0.8,0.1,0.9,0.7,1.1,1.3
		c0.5,1.6,0.5,3,0.2,5.3c-1.2-1.2-1.1-2.8-1.8-4.1c-2,2.3-2,2.3-3.5,0.7c-0.5,0.8-0.9,1.6-1.4,2.4c-0.2,0.3-0.5,0.5-0.8,0.2
		c-0.2-0.1-0.2-0.5-0.2-0.7c0.5-1.5,0.9-3.1,1.8-4.3C136.7,119.9,137.6,120.8,138.1,122.1z"/>
	<path class="st11" d="M70.8,130.8c-0.1,0.7,0.1,1.3-0.4,1.5c-0.7,0.2-0.8-0.4-1-0.9c-0.1-0.3-0.2-0.6-0.3-0.9
		c-0.2-1.2-0.5-2-1.7-0.6c-0.2,0.2-0.7,0.5-0.8,0.4c-1.3-0.9-2,0-2.8,0.8c-0.1,0.2-0.4,0.3-0.6,0.3c-0.4-0.1-0.4-0.5-0.3-0.8
		c0.2-1.6,0.9-2.8,2-3.9c0.3-0.3,0.9-0.7,1.2-0.3c1.1,1.4,3-1.5,3.8,0.6C70.3,128.4,70.5,129.8,70.8,130.8z"/>
	<path class="st11" d="M68.3,142.3c-0.6,1.2-1.1,2.2-2.9,1.9c-0.9-0.2-1.5,1.7-2.7,2c-0.2-2.2,1.4-4.6,3.3-4.8
		c0.6-0.1,0.9-0.3,1.2-0.7c1.1-1.2,1.9-1.1,2.6,0.3c0.5,1.1,0.9,2.2,1.3,3.3c0.2,0.6,0.2,1.2-0.5,1.4c-0.7,0.2-0.9-0.5-1.1-1
		C69,144,69,143.1,68.3,142.3z"/>
	<path class="st11" d="M73.5,152.6c-1.1,3.2-1.1,3.2-2.9,1.9c-0.1,0.1-0.2,0.1-0.3,0.2c-0.4,0.8-0.6,2.4-1.6,1.9
		c-0.9-0.5-0.4-2,0-3.1c0.3-0.9,0.8-1.9,2-1.2c1.3,0.9,1.1-0.4,1.4-0.9c0.3-0.5,0.2-1.1,1-1.2c0.7-0.1,1,0.4,1.3,0.9
		c0.7,1.1,1.4,2.2,2.1,3.4c0.2,0.4,0.5,0.9,0.1,1.2c-0.5,0.3-0.8-0.2-1.1-0.5C74.8,154.3,74.2,153.5,73.5,152.6z"/>
	<path class="st11" d="M128.8,80.3c0.4-1,0.7-2.1,1.1-3.1c0.2-0.6,0.3-1.4,1.1-1.3c0.9,0.1,1.1,1,1.2,1.7c0,2.4,0.3,4.9-0.5,7.5
		c-0.4-1.5-0.7-2.8-1.1-4.3c-0.4,1.3-0.7,2.4-1.1,3.5c-0.1,0.4-0.3,1-0.8,0.7c-0.4-0.2-0.5-0.7-0.4-1.1
		C128.4,82.6,128.6,81.5,128.8,80.3L128.8,80.3z"/>
	<path class="st11" d="M128.8,80.3c-1.2-1.3-1-3.1-1.8-4.8c-0.5,1.4-0.9,2.7-1.3,3.9c-0.1,0.4-0.2,1-0.8,0.8
		c-0.5-0.2-0.4-0.7-0.3-1.1c0.2-1.8,0.8-3.5,1.4-5.2c0.2-0.6,0.5-1.4,1.4-1.3c0.8,0.1,1,0.8,1.2,1.5
		C129.1,76.1,128.7,78.2,128.8,80.3C128.8,80.3,128.8,80.3,128.8,80.3z"/>
	<path class="st11" d="M109.8,169.1c-1.3,0.1-1.3-1.9-2.4-1.2c-0.8,0.5-1.3,1.5-2,2.2c0,0-0.1,0.1-0.1,0.2c-0.6,0.6-1.2,1.8-2.1,1.1
		c-1-0.7,0.1-1.5,0.6-2.1c0.7-1.1,1.6-2.1,2.4-3.1c0.6-0.7,1.3-1.3,2.3-0.9c0.9,0.3,1,1.2,1.1,2
		C109.6,167.9,109.7,168.5,109.8,169.1z"/>
	<path class="st7" d="M135.7,79.6c-0.7-5.4-2.2-10.7-3.9-15.8c0.3-1.2-0.3-2.5,0.9-3.9c0.5,6.9,3.3,13,3.6,19.7
		C136,79.5,135.8,79.6,135.7,79.6z"/>
	<path class="st12" d="M93.1,117.4c-3.7,0.9-7.5,2-11.4,0.7c-1.7-0.6-3.2-1.3-4.6-2.3c0.4-0.7,0.8-0.2,1.3-0.1
		c4.2,2,8.7,1.8,13.2,1.5C92.1,117.1,92.8,116.5,93.1,117.4z"/>
	<path class="st11" d="M76.7,77.9c-1-1-0.8-2.4-1.6-3.3c-0.6,1.4-0.7,2.9-1.7,4.2c-0.8-1.2-0.2-2.4,0-3.4c0.2-1.2,0.5-2.4,0.8-3.6
		c0.1-0.5,0.3-1.1,1-1.2c0.8,0,1,0.7,1.1,1.3C76.8,73.7,76.9,75.7,76.7,77.9z"/>
	<path class="st11" d="M99.4,169.9c-1.2-0.4-1.6-2.1-2.5-1.9c-0.9,0.2-0.5,1.8-1,2.6c-0.3,0.4-0.5,1-1.1,0.8
		c-0.6-0.2-0.6-0.7-0.5-1.3c0.2-1.2,0.5-2.4,0.7-3.7c0.2-0.7,0.6-1.3,1.3-1.5c0.8-0.2,1.4,0.3,1.9,1
		C98.7,167.2,99.1,168.5,99.4,169.9z"/>
	<path class="st11" d="M121.9,159c-0.7,0-1,1.3-1.8,0.6c-0.8-0.7,0-1.4,0.3-2c0.3-0.6,0.8-1.1,1.2-1.7c0.4-0.5,0.8-1.2,1.6-0.9
		c0.7,0.3,0.7,1,0.7,1.6c0,0.9,0,1.9,0,2.8c0,0.6,0,1.4-0.8,1.5c-0.8,0.1-0.9-0.7-1.1-1.3C122,159.5,121.9,159.2,121.9,159z"/>
	<path class="st12" d="M135.7,79.6c0.2,0,0.4,0,0.6,0c0.3,0.6-0.1,1.4,0.4,2c0,0.3,0.1,0.7,0.1,1c0,1.4-0.2,2.9,0.3,4.3
		c0,0.3,0,0.7,0,1c-0.2,2.5-0.5,5-0.7,7.6c-0.6-0.3-0.3-1-0.6-1.3c-0.3-2.8,0.4-5.6,0.3-8.4C135.9,83.7,135.8,81.6,135.7,79.6z"/>
	<path class="st11" d="M79.3,67.6c-0.8-0.6-0.7-1.4-1.3-1.6c-0.2,0.8-0.4,1.6-0.6,2.3c-0.1,0.4-0.4,0.7-0.8,0.6
		C76.2,68.7,76,68.4,76,68c0.3-1.7,0.6-3.4,1-5.1c0.1-0.4,0.3-0.9,0.8-0.9c0.6,0,1,0.5,1,0.9C79.1,64.4,79.2,65.8,79.3,67.6z"/>
	<path class="st11" d="M98.5,109.3c1.7,1.4,2.1,3.1,2.4,4.9c0.1,0.5-0.2,1-0.8,1.1c-0.6,0.1-0.9-0.3-1.1-0.8
		C98.4,112.9,97.9,111.3,98.5,109.3z"/>
	<path class="st11" d="M104.7,111.1c-0.2,0.9-0.4,2-0.7,3c-0.1,0.4-0.3,0.9-0.9,0.8c-0.6-0.1-0.7-0.6-0.7-1.1c0-1.1,0.3-2.1,0.7-3.1
		c0.2-0.5,0.3-1.4,1.2-1.2C104.9,109.7,104.6,110.5,104.7,111.1z"/>
	<path class="st3" d="M131.7,158.3c0.1-0.2,0-0.6,0.3-0.4c0.2,0.1,0.1,0.4-0.1,0.6C131.9,158.5,131.8,158.4,131.7,158.3z"/>
	<path class="st0" d="M74.9,164.4c-0.1-0.1-0.2-0.3-0.3-0.4c0,0,0.1-0.1,0.1-0.1C74.8,164.1,74.8,164.2,74.9,164.4
		C74.9,164.4,74.9,164.4,74.9,164.4z"/>
	<path class="st12" d="M94.1,117.2c0,0.1,0,0.3,0,0.4c-0.1,0-0.2,0-0.3,0C93.9,117.5,94,117.4,94.1,117.2z"/>
	<path class="st0" d="M67,160.3c-0.1,0-0.1-0.1-0.2-0.1C66.9,160.2,66.9,160.2,67,160.3C67,160.3,67,160.3,67,160.3z"/>
	<path class="st2" d="M132.3,166.4c-0.2,0.3-0.3,0.8-0.8,0.8c-0.1-0.5,0.3-0.8,0.5-1C132.2,166.3,132.3,166.4,132.3,166.4z"/>
	<path class="st2" d="M122.7,173.8c0.2-0.2,0.4-0.4,0.6-0.5c0.1,0.1,0.2,0.2,0.2,0.3c-0.2,0.2-0.4,0.4-0.6,0.5
		C122.9,174,122.8,173.9,122.7,173.8z"/>
	<path class="st2" d="M122.5,174.4c-0.1,0-0.3,0.1-0.4,0.1c0.1-0.1,0.1-0.3,0.2-0.4C122.4,174.2,122.5,174.3,122.5,174.4z"/>
	<path class="st2" d="M122.3,174.2c0.1-0.1,0.2-0.2,0.4-0.4c0.1,0.1,0.2,0.2,0.3,0.3c-0.1,0.1-0.3,0.2-0.4,0.3
		C122.5,174.3,122.4,174.2,122.3,174.2z"/>
	<path class="st2" d="M124,173.2c-0.1,0.1-0.3,0.2-0.4,0.4c-0.1-0.1-0.2-0.2-0.2-0.3c0.1-0.1,0.3-0.3,0.4-0.4
		C123.8,173,123.9,173.1,124,173.2z"/>
	<path class="st2" d="M123.7,172.9c0.1-0.1,0.3-0.2,0.4-0.2c0.3,0.2,0,0.4-0.1,0.5C123.9,173.1,123.8,173,123.7,172.9z"/>
	<path class="st2" d="M95.6,49c0,0.5,0.3,1.2-0.5,1.5C95.2,49.9,95.1,49.4,95.6,49z"/>
	<path class="st13" d="M112.3,130.8c-2.3,0.1-3.4-0.6-4.2-2c-1.1-2-1.4-4.1-1.7-6.3c-0.1-1,0.9-0.9,1.2-1.4c1.2-2.1,2.9-1.9,4.9-1.3
		c1.6,0.4,3.3,0.7,5,0.3c0.5-0.1,1-0.2,1.2,0.5c0.7,2.2,2,4.2,2.3,6.5c0.2,1.2-0.2,1.9-1.3,2.3C117,130.1,114.3,130.6,112.3,130.8z"
		/>
	<path class="st13" d="M90.4,130.8c-2.5-0.3-5-0.8-7.5-1.5c-1.5-0.4-1.9-1.3-1.6-2.6c0.4-2.2,1.5-4.1,2.2-6.1
		c0.2-0.7,0.7-0.7,1.2-0.6c2.3,0.4,4.6-0.1,6.9-0.6c1.1-0.3,1.8-0.2,2.3,0.9c0.1,0.1,0.2,0.2,0.2,0.3c0.5,0.9,2.1,0.9,1.8,2.5
		c-0.4,2.6-0.8,5.1-2.7,7C92.5,130.8,91.5,130.9,90.4,130.8z"/>
	<path class="st5" d="M102.7,141c0.7,2,2.5,2.1,4.2,2.3c0,0,0,0,0,0c0.1,0.3,0.2,0.3,0.4,0c0.3,0,1.2,0.5,0.9-0.1
		c-0.6-1.3,0.4-1.3,1-1.3c2.9,0,5.8-0.5,8.7,0.3c-1.5,2.2-3.8,3.3-6.2,4.2c-3.2,1.2-6.6,1.6-10.1,1.8c-0.2-0.6-0.9-0.6-1.4-0.9
		c-1.8-0.9-3.8-1.6-5.2-3.2c-0.7-0.8-0.7-1.5,0.3-1.9C97.7,141,100.1,140.2,102.7,141z"/>
	<path class="st4" d="M102.7,141c-2.6-0.8-5,0-7.4,1.1c-1,0.5-1,1.1-0.3,1.9c1.4,1.7,3.4,2.3,5.2,3.2c0.5,0.2,1.1,0.2,1.4,0.9
		c-3.3-0.1-6.6-0.1-9.6-1.9c-1.9-1.1-2.3-2.9-0.9-4.7c2-2.5,8.3-3.6,11.1-2.1C103.2,139.9,102.8,140.4,102.7,141z"/>
	<path class="st6" d="M117.9,142.2c-2.9-0.9-5.8-0.4-8.7-0.3c-0.5,0-1.5,0-1,1.3c0.3,0.6-0.6,0.1-0.9,0.1c-0.1,0-0.3,0-0.4,0
		c0,0,0,0,0,0c-0.2-0.3-0.5-0.6-0.7-0.8c-1.8-1.7-1.8-1.8,0.7-2.6c4-1.2,7.8-0.4,11.5,0.9c0.3,0.1,0.9,0.2,0.8,0.7
		C119.1,142.1,118.5,142.2,117.9,142.2z"/>
	<path class="st14" d="M75.4,110c4.4-2.1,5.6-4.4,4.1-8.3c2.2,0.8,3.3,2.4,3.9,4.3c0.4,1.2,0.3,2.5-0.8,3.4
		C80.4,111.1,78,111,75.4,110z"/>
	<path class="st14" d="M67.3,101.4c-0.5,2.3-0.8,4.6,1,6.6c-2.3,0-4-1.1-4.2-2.5C63.9,104,65.6,102,67.3,101.4L67.3,101.4z"/>
	<path class="st14" d="M73.8,100.3c0.9,0.1,2,0.3,2,1.2c0,1-1,1.4-2,1.4c-0.8,0-1.6-0.2-1.6-1.2C72.3,100.8,72.8,100.2,73.8,100.3z"
		/>
	<path class="st14" d="M67.4,101.5c0-0.1,0-0.2,0.1-0.3c0.1,0,0.1,0,0.2,0.1C67.5,101.3,67.4,101.4,67.4,101.5
		C67.3,101.4,67.4,101.5,67.4,101.5z"/>
	<path class="st14" d="M126.8,109.9c-2.9,1.3-6.6,0.7-7.7-1.3c-1.2-2.1,0.3-5.2,3.8-7.3C121,105.9,123.2,108.3,126.8,109.9z"/>
	<path class="st14" d="M134.8,101.2c2.1,0.9,3.7,2.8,3.4,4.2c-0.4,2.1-2.2,2.4-4.3,2.9C135.6,105.9,135.8,103.7,134.8,101.2z"/>
	<path class="st14" d="M128.3,102.9c-0.7-0.2-1.8-0.3-1.7-1.4c0.1-1,1.2-1.1,2.1-1.2c1-0.1,1.4,0.6,1.5,1.4
		C130.1,102.7,129.3,102.9,128.3,102.9z"/>
	<path class="st2" d="M68.1,66.8C68.1,67,68,67.3,68,67.5C67.7,67.2,67.7,66.9,68.1,66.8z"/>
	<path class="st2" d="M84.7,158.8c-0.1,0-0.1,0-0.2-0.1C84.6,158.7,84.6,158.7,84.7,158.8C84.7,158.8,84.7,158.8,84.7,158.8z"/>
	<path class="st2" d="M137,86.9c-0.5-1.4-0.2-2.9-0.3-4.3C137.4,84,137,85.4,137,86.9z"/>
	<path class="st8" d="M106.9,143.3c0.1,0,0.3,0,0.4,0C107.2,143.6,107,143.6,106.9,143.3z"/>
</g>
</svg>
