<?xml version="1.0" encoding="utf-8"?>
<!-- Generator: Adobe Illustrator 27.9.0, SVG Export Plug-In . SVG Version: 6.00 Build 0)  -->
<svg version="1.1" id="Layer_1" xmlns="http://www.w3.org/2000/svg" xmlns:xlink="http://www.w3.org/1999/xlink" x="0px" y="0px"
	 viewBox="0 0 200 200" style="enable-background:new 0 0 200 200;" xml:space="preserve">
<style type="text/css">
	.st0{fill:#CB5011;}
	.st1{fill:#F78F4C;}
	.st2{fill:#EE7F48;}
	.st3{fill:#FCCB73;}
	.st4{fill:#A31D3B;}
	.st5{fill:#FAE1B5;}
	.st6{fill:#FDFDFD;}
</style>
<g>
	<path class="st0" d="M85.2,106.7c2.2,3.2,2.9,6.9,3.8,10.6c0-0.7-0.2-1.4,0-2.1c0.5-1.7,0.9-3.5,2.3-4.7c0.6-0.6,0.3-1,0.2-1.5
		c-0.6-5.6-3.4-10.3-6.1-15.1c-3.7-6.5-9.1-11.4-14.1-16.7C65.6,71,61.3,63.8,58.5,55.7c-0.2-0.7-0.4-1.5-1.1-2
		c-4.8-3.3-8.6-7.6-13-11.4c-2.3-2-4.7-3.5-7.7-3.9c-0.8-0.1-1.4-0.3-1.6-1.1c-0.2-0.8,0.5-1.3,1.1-1.6c6.3-3,12.5-6.1,19.8-5.4
		c0.2,0,0.4-0.1,0.6,0c3.6,1.5,6.2-0.2,8.9-2.4c3.4-2.7,7.5-4,11.6-5.4c-0.1-1-1-1.1-1.6-1.5c-3.3-2.5-5.6-5.7-6.1-9.9
		c-0.2-1.6-0.6-3.2-0.9-4.8c-0.3-1.4,0.4-2.2,1.7-2c9.9,1,19.9,1.6,29.1,5.9c4.6,2.1,9,4.7,12.7,8.2c6.5,6.1,13.6,11.5,20.4,17.2
		c16.1,13.5,25.7,31.1,30,51.6c1.2,5.9,2,11.9,2.1,17.9c0.4,13.5-2.6,26.3-7.4,38.8c-0.9,2.4-1.6,4.8-2.1,7.2
		c-2,8.5-6.3,16.2-9.3,24.3c-0.4,1.2-0.9,2.3-1.3,3.5c-0.6,1.9-0.9,3.6,1.2,5c1.2,0.8,1.6,2.3,1.1,3.8c-0.4,1.4-1.7,1.8-3,2
		c-1,0.2-2.1,0.2-3.1,0.2c-0.3,0.7,0.3,1.2,0.4,1.8c0.5,1.6-0.1,2.6-1.6,3.2c-4.3,1.5-8.7,1.7-13.1,0.7c-2.5-0.6-3.6-2.2-3.3-4.8
		c0.1-1.4,0.4-2.7,0.7-4.3c-2.8,1-5.4,0-8.4-0.6c0.7,0.8,1.1,1.2,1.5,1.7c1.8,2.5,0.8,5.6-2.1,6.3c-3,0.7-5.9,2.3-9.2,1.4
		c-2-0.5-3.8-0.9-4.8-3.6c-0.6,2.7-2.3,3-4.1,3c-3.6-0.1-7.2-0.2-10.8-0.3c-2.7-0.1-5.3-1.7-5.4-3.3c-0.1-2.5,1.8-3.6,3.6-4.7
		c2.5-1.5,2.5-1.5,0.2-3.4c-4.5-3.7-9.3-7.1-13-11.7c-4.8-6-6-12.6-3-19.9c2-4.9,5.3-9.1,7.6-13.8c3.4-6.7,3.5-13.1-1-19.4
		c-1.7-2.3-3.1-4.9-4.4-7.4c-1.1-2.2-1.7-4.6-1.6-7.1c0.3-4.8,5.4-7.6,9.5-5.2c2.9,1.7,4.8,4.3,6.2,7.3l-0.1,0.1
		c-1.1-0.1-2-1.3-3.2-1c-1.3-1.4-2.3-3.1-4.2-3.8c-2.5-1.4-5-0.1-5.2,2.7c-0.2,2.6,0.7,4.9,2.1,7l0,0c0,0.1,0.1,0.3,0.1,0.4
		c0.2,0.4,0.5,0.9,0.7,1.3c-0.9,1.2,0,2.4,0.2,3.4c0.6,2.2,1.6,4.4,4.4,4.6c0.3,0.8,0.7,1.5,0.9,2.3c0.9,3.3,0.3,6.6,0,9.9
		c-0.9,2.7-2.1,5.3-3.8,7.7c-0.8,1.1-1.4,2.4-1.7,3.7c-1.6,1.9-2.7,4.1-3.7,6.4c-0.3,0.8-0.6,1.6-0.9,2.4c-2.5,7.1-0.5,14.2,5,18.8
		c0,0,0,0,0,0c0.1,0.2,0.3,0.4,0.4,0.6c2.1,1.9,4.1,4,6.3,5.7c1.8,1.5,3.4,3.3,5.5,4.2l0,0c-0.1,0.4,0.1,0.7,0.4,0.9l0,0
		c0.1,0.1,0.3,0.3,0.4,0.4l0,0c-0.1,0.4,0,0.7,0.4,0.9l0,0c0.1,0.5,0.1,1.1,0.2,1.6c-0.2,0.9-1,1.4-1.6,2c0.6,0.4,1.6-0.2,1.6,0.8
		c0,0.6-0.9,0.6-1.3,0.8c-0.7,0.3-1.6,0.3-2.3,1.1c4,0.1,7.9,1,11.8,0.1c1.5-0.4,2.1-1.3,1.9-2.7c-0.2-1.3-0.9-2.3-1.8-3.3
		c-0.9-2.3-2.5-4.2-3.9-6.2c-4.3-6.3-8.1-12.8-9.4-20.5c-0.2-1-1-2.2,0.6-2.9c1.1,1.6,1.7,3.5,2.2,5.4c2.1,7,6.2,12.9,10.5,18.7
		c0,0,0,0,0,0c0.1,0.2,0.3,0.4,0.4,0.6c1.5,2.9,3.7,5.5,4.4,8.7c0.5,2.5,2.1,3.2,4.2,3.6c0.5,0.1,1.1,0.4,1.3-0.1
		c0.3-0.6-0.3-1-0.8-1.3c-0.5-0.3-1.3-0.2-1-1c0.2-0.8,0.9-0.7,1.6-0.5c0.4,0.1,0.8,0.1,1.2,0.2c0.3,0.6,0.7,1.2,1,1.8
		c0.3,0.6,0.8,0.7,1.4,0.4c0.3-0.2,0.9-0.1,0.9-0.7c0-0.5-0.6-0.7-1-0.9c-0.7-0.3-1.3-0.7-2.1-0.7c-0.1-1.2,0.5-1.3,1.4-1.1
		c1.1,0.4,2.3,0.7,3.1,1.6c0.3,0.3,0.6,0.9,1.2,0.4c0.4-0.4,0.2-0.9,0.1-1.4c-0.1-0.6-0.7-0.8-1.2-1.1c-1.2-0.6-2.5-1.3-3.7-1.9
		c-1.1-1.1-1.7-2.4-2.1-3.8c-0.7-2.2-1.4-4.4-2.2-6.5c-2.5-6.5-5-12.9-6.3-19.7c-0.1-0.4-0.5-0.9,0.2-1.3c0.6,1,1.3,2.1,1.9,3.1
		c2.8,7.3,5.8,14.6,8.1,22.1c0.6,1.9,1.2,3.2,3.7,2.9c1.4-0.1,2.9,0.5,4.3,1c1.6,0.5,3.1,0.8,4.8,0.6c1.7-0.2,3-0.9,3.4-2.8
		c0.7-3.4,1.6-6.8,2.4-10.2c0.8-3.3,1.2-6.8,2.5-10c0.2-0.6,0.3-2.2,1.7-1c-0.5,2.8-0.9,5.6-1.5,8.4c-1,4.9-2.1,9.8-3.2,14.7
		c-0.9,1.8-1.3,3.7-1.7,5.6c-0.5,2.8,0,3.5,2.8,3.3c0.4,0,0.9,0.2,1.1-0.3c0.1-0.4-0.2-0.8-0.6-0.9c-0.6-0.2-0.8-0.6-0.5-1.1
		c0.4-0.6,1-0.7,1.7-0.5c0.7,0.3,1.1,0.9,1.3,1.6c0.6,1.7,1.7,2,3.3,1.5c-0.1-1-0.6-1.7-1.2-2.4c-0.3-0.4-1.2-0.4-0.9-1.2
		c0.3-0.8,1.1-0.4,1.7-0.6c1.1,0.8,1.7,2,2.4,3.2c0.3,0.6,0.7,0.6,1.2,0.3c0.6-0.3,0.7-0.7,0.4-1.2c-0.5-0.8-1-1.5-1.6-2.2
		c-2.6-3.3-2.6-4.8-0.3-8.3c1.1-1.6,2.3-3.2,3.4-4.8c5.4-8.7,9.1-18.2,13-27.6c1.7-3.9,3.5-7.8,4.3-12.1l0,0
		c0.5-0.2,0.4-0.6,0.4-0.9c1.2-3.7,2.4-7.4,2.5-11.4l0,0c0.4-0.2,0.4-0.5,0.4-0.8c1-4.1,0.9-8.3,1.3-12.4c0.1-0.7,0.5-1.8-0.8-2
		c1.2-3.8,1.5-7.7,1.6-11.5c0-1.7-0.1-3.7-1.8-4.9c-1-4.8-1.8-9.7-3.6-14.4c0-0.4,0-0.7-0.4-0.9l0,0c-0.1-0.4-0.1-0.8-0.3-1.2
		c-4.7-13.4-12.1-25.1-22.4-34.9c-2.7-2.6-5.3-5.2-8.6-7l0,0c-0.2-0.4-0.4-0.6-0.9-0.4l0,0c0.1-0.4-0.2-0.5-0.4-0.6
		c-6.7-4.5-14-7.5-22-8.8c-0.9-0.7-2-0.4-3-0.5c-4.8-0.3-9.6-0.7-14.3,0.3c-5.1,0.5-9.9,2-14.3,4.6l0,0c-0.4,0-0.7,0.1-1,0.4
		c-1.6,0.4-2.6,1.6-3.9,2.4c-1.2,0.8-1.1,1.3,0.1,1.8c3.6,1.3,6.8,3.4,9.7,5.8c2.1,1.8,4.4,3.5,5.7,6.1c-1.1,0.9-1.5-0.4-2-0.7
		c-2.1-1.3-3.6-3.4-6-4.3c-1.7-1.9-4.1-2.9-6.3-4C60,32.5,53.1,31.3,46,34.2c-1.9,0.5-3.7,1.2-5.4,2.3c0.7,0.8,1.5,1,2.4,1.1
		c2.7,2.5,5.6,4.8,8.2,7.4c4.1,3.9,8.3,7.7,13.8,9.8c2.8,0.6,5.8,0.7,7.9,3c-3.7,0.7-7.3,0.5-11-1.2c3.5,9.2,8.9,16.4,15.7,22.8
		c2.1,2.3,4.2,4.7,6.4,7c6.9,7.1,9.9,15.9,10.6,25.5c0,0.9,0,1.7,0,2.6c-0.1,0.9-0.6,1.8-0.4,2.8c-1.1,0.5-1.4,1.6-1.5,2.6
		c-0.3,2-1,3.9-1.5,5.9c-1,1.7-2,3.4-2.9,5.1c-1.1,1.4-2.2,2.8-3.3,4.1c-0.2,0.2-0.3,0.3-0.5,0.5l0.1,0c-1.8,0.3-2.5,1.9-3.5,3
		c-0.9,0.9-1.1,2.4-2.5,2.9c0.3-1.7,1.6-2.8,2.4-4.2c1.4-2.4,3.4-4.7,4.2-7.3c1.3-4.1,1.4-8.4,0.7-12.7c0.9-0.7,1.1-1.7,1.2-2.8
		c0.2-2.8-1.1-5.1-1.8-7.7L85.2,106.7z M140.9,184.4c0.9,0.1,1.1,1.8,2.5,1c-1.2-1-1.9-2.1-1.8-3.7c0.1-1.3,0.2-2.6,0.6-3.9
		c0.4-1.2,1.2-2.3,0.8-3.8c-0.9,1.3-1.7,2.7-2.6,4c-1,1.2-2.1,2.4-3,3.7c-0.6,0.8-1.2,1.7-1.2,2.9c0,0.4,0,0.9,0.4,1.1
		c0.6,0.3,0.7-0.2,0.9-0.6c0.4-0.7,0.9-0.9,1.5-0.3C140.1,186.1,140.4,184.8,140.9,184.4z M103.4,14.6
		C103.4,14.6,103.4,14.7,103.4,14.6c0-0.1-0.1-0.3-0.2-0.3c-9.6-5.6-20.2-7.1-31.1-7.7c-0.6,0-1,0.1-0.8,0.8
		c-0.2,0.8,0.3,1.4,0.5,2.1c0.5,3.1,1.3,6.1,4,8.1c2.5,2.1,4.8,4.9,8.6,3c0.9-0.1,1.8,0.2,2.5-0.7c-1.1-0.7-2.5-0.3-3.7-1.5
		c1.9,0,3.6,0,5.2,0c0-0.1,0-0.2,0.1-0.3c-1.3-0.4-2.7-0.9-4-1.3c0-0.1,0.1-0.2,0.1-0.3c2.3,0.3,4.5,0.5,7.3,0.8
		c-1.2-1.2-2.7-1-3.7-2.3c2.3,0.5,4.4,1,6.4,1.4c0.4,0.1,0.9,0.3,1.1-0.2c0.1-0.2-0.3-0.6-0.5-0.9c0.7-0.6,1.5,0.6,2.2,0
		c0.4,0.1,0.8,0.2,1.2,0.4c4.6,1.7,9,3.5,13.5,5.6c0.1,0.2,0.2,0.3,0.4,0.1c-0.1-0.1-0.2-0.2-0.3-0.2c-2.4-2.3-5-4.4-8-5.9
		C104.1,14.7,103.8,14.6,103.4,14.6z M96.9,16.5c0,0,0,0.1,0,0.1c0,0,0.1,0,0.2,0c0-0.1,0-0.1,0-0.2C97,16.5,96.9,16.5,96.9,16.5z"
		/>
	<path class="st0" d="M84.8,105.9c0.3,0.2,0.4,0.5,0.4,0.8c0,0-0.1,0.1-0.1,0.1c-0.2-0.3-0.3-0.5-0.5-0.8L84.8,105.9z"/>
	<path class="st1" d="M81,44.7c-1.2-2.6-3.6-4.3-5.7-6.1c-2.9-2.5-6-4.5-9.7-5.8c-1.3-0.5-1.4-1-0.1-1.8c1.3-0.8,2.3-2,3.9-2.4
		c0.4,0,0.8,0,1-0.4c0,0,0,0,0,0c2.1,0.4,4-1,6.4-1.2c-0.9,0.8-1.6,1.4-2.3,2c-0.4,0.4-0.9,0.8-0.5,1.4c0.4,0.6,1,0.4,1.5,0.3
		c1.2-0.2,2.2-1.1,3.6-1.1c-0.3,0.8-1,1.4-0.4,2.1c0.5,0.6,1.3,0.3,2,0.1c0.5-0.1,1.1-0.1,1.7-0.2c-0.3,0.7-0.8,1.4-0.1,2.1
		c0.6,0.7,1.3-0.2,2,0c1.1,0.3,2.8-2.3,3.5,0.7c0.1,0.5,1.4,0.2,2.2,0.1c1.3-0.2,2.6-0.5,3.9-0.8c1.3-0.3,2.8-0.3,4-1.3
		c-1-0.7-2-0.1-3-0.5c0.8-0.5,2.2-0.5,1.7-1.8c-0.4-1.2-1.5-0.5-2.3-0.6c-1.8-0.1-3.4,0.9-5.4,0.8c1-0.8,2-0.9,2.9-1.2
		c0.6-0.2,1.3-0.5,1.1-1.3c-0.1-0.9-0.8-1-1.6-1.1c-0.4,0-1.1,0.6-1.2-0.2c-0.4-2.5-2.4-1.6-3.7-1.5c-1.4,0.2-1.6-0.2-1.6-1.3
		c4.8-1,9.6-0.6,14.3-0.3c1,0.1,2.1-0.2,3,0.5c0.7,1,1.7,1.4,2.7,1.9c4.1,2.1,8.2,4.3,12,7c12.2,8.4,22,19.1,29.9,31.6
		c0.8,1.3,2,2.6,2,4.3c-1.3,1.9-1.7,4.2-2.7,6.3c-1.6,3.6-3.8,6.9-6.7,9.6c-0.4,0.4-0.8,1-1.3-0.1c-1.1-2.5-3-2.9-5.1-1.1
		c-1.1,0.9-1.8,2.1-2.4,3.4c-2.8,6-6.4,11.5-11.6,15.7c-1,0.8-1.6,1.6-2.6-0.2c-1.2-2.2-3.1-2.5-5.1-0.9c-2.1,1.6-4.1,3.4-6,5.2
		c-3,2.9-6.5,4.5-10.5,5.2c-0.7-9.7-3.7-18.4-10.6-25.5c-2.2-2.3-4.2-4.6-6.4-7c0.8-0.7,0.2-1.3-0.1-1.9c-1.5-4-2.5-8.1-3.4-12.2
		c-0.5-2.5-0.3-5.1-1.2-7.5c-2.2-2.3-5.1-2.4-7.9-3c0.4-0.6,0.3-1.1-0.3-1.6c-4.3-3.4-7.9-7.6-11.4-11.7c-1.2-1.4-2.9-2.4-3.5-4.4
		c3.4-0.6,6.9-0.5,10.2,0.1C68.6,39,76,43.3,82.6,49c1.4,1.2,2.7,2.5,5,3.3C85.6,49.1,83.5,46.7,81,44.7z M72.1,49.3
		c-0.6,0.2-1.2,0.6-0.6,1.1c0.8,0.7,1.6,1.6,3.1,1.6c-0.5-0.8-0.9-1.3-1.3-1.9c0.8,0.1,1.5,0.2,2.3,0.2c-0.6-1.1-1.6-1.6-2.3-2.4
		c1.1-0.3,2,0.7,3.3,0.2c-0.8-1-1.8-1.5-2.7-2c-0.6-0.3-1.4-1.1-2-0.1c-0.5,0.9,0.8,0.9,1,1.5C71.9,47.8,71.7,48.4,72.1,49.3z
		 M92.8,43.4c-0.8,0-1.7,0-2.4,0.4c-0.5,0.3-1.1,0.5-0.3,1.2c1.8,1.5,0.8,2.7-0.6,3.9c0.8,0.4,1.4,0.7,2,1c1.1,2.3,2.7,1,3.8,0.2
		c1.4-0.9,2.1-2.5,1.2-4.2C95.8,44.5,95.2,42.6,92.8,43.4z M120.3,55.2c-0.9,0-1.4,0.6-2,1.1c-2.2,1.5-4.4,2.6-6.9,3.4
		c-2,0.6-4.1,1.4-5-1.6c0-0.1-0.3-0.2-0.5-0.3c0-0.8,0-1.7,0.1-2.5c0.2-1.7-0.3-2.4-2.1-1.7c-1.6,0.6-3.1,1.1-4.7,1.7
		c-1.5,0.6-1.4,1.4-0.2,2.2c1,0.7,2.1,1.3,3.2,2c0.1,3-0.4,3.8-2.9,4.9c-1,0.4-2,0.6-3,0.7c-2,0.3-4,0.8-6.3,1.3
		c1.1,0.6,1.8,0.8,2.6,0.8c0.2,0.2,0.5,0.7,0.7,0.7c3.2,0.1,4.2,2.7,5.5,4.9c0.2,0.3,0.3,0.6,0.5,0.9c1.2,1.5,2,1.4,2.8-0.3
		c0.2-0.4,0.3-0.7,0.5-1.1c0.9,0.1,1.2-0.6,1.5-1.2c1-1.8,2.7-2.6,4.5-3.5c2.8-1.3,5.6-0.8,8.4-0.8c1.3,0.8,2,0.4,2-1.1
		c0-0.6-0.1-1.3,0-1.9c0.3-1.8-1.2-3.7,0.1-5.4C119.7,57.3,120.3,56.4,120.3,55.2c0-0.1,0.1-0.1,0.1-0.2
		C120.3,55.1,120.3,55.2,120.3,55.2z M111,93.6c0.7,1.9,1.7,2,3.1,1.4c0.9-0.4,1.7-1,2.4-1.6c4.6-3.9,6.8-9.4,9.2-14.7
		c0.4-0.8,0.8-2-0.2-2.5c-1.1-0.5-1.7,0.6-2.1,1.5c-1.1,2.3-2,4.6-3.3,6.8c-1.3,2.4-2.7,4.8-5.4,6.9c0.2-1.5,0.3-2.5,0.5-3.4
		c0.3-1.1,0.5-2.2-0.7-2.7c-1.4-0.6-1.9,0.6-2.5,1.6c-2.5,5.2-5.5,9.9-10,13.6c-0.4,0.3-1.1,0.7-0.6,1.3c0.4,0.4,1.1,0.3,1.6,0
		c0.7-0.4,1.4-0.8,1.9-1.3C107.1,98.5,109.4,96.6,111,93.6z M61.5,38.3c-2.4,0-3.9,1.5-4,3.7c0,2.3,1.7,5,3.9,5.8
		c2,0.8,3.8,0.3,4.3-1.1c0.6-1.6-1-4.2-2.7-4.6c-0.7-0.1-1.5-0.2-1.8,0.7c-0.2,0.8,0.4,0.9,1,1.1c0.4,0.2,0.9,0.4,1.2,0.8
		c0.3,0.3,0.8,0.8,0.5,1.3c-0.3,0.5-0.9,0.2-1.3,0.1c-1.6-0.5-2.6-1.7-3-3.2c-0.4-1.4,0.2-2.3,1.8-2.4c3.1-0.2,7.6,3.2,8.2,6.2
		c0.1,0.6,0.3,1.5-0.5,1.7c-2.4,0.6-1.3,1.6-0.5,2.8c0.8,1.2,1.9,2.1,3.1,2.8c0.5,0.3,1.2,1,1.6,0.2c0.4-0.6-0.4-0.9-0.8-1.3
		c-1.4-1.3-3.2-2.4-1.4-4.6c0.2-0.3,0.1-0.8,0.1-1.2C70.6,42.5,65.9,38.3,61.5,38.3z M139.5,70.7c-0.3-0.6-0.5-1-0.6-1.5
		c-0.3-1-0.7-1.7-1.8-1.7c-1.1,0-1.3,0.9-1.6,1.7c-0.7,2.3-1.7,4.6-3,6.7c-0.4,0.6-1,1.5,0,2c0.9,0.5,1.4-0.3,1.8-1
		c0.6-1.1,1.3-2.2,1.8-3.3c0.6-1.1,1.1-1.3,1.7,0c0.7,1.4,1.8,1.5,2.9,0.6c2-1.5,2.4-5.2,0.9-7.3C140.6,67.8,140.7,69.4,139.5,70.7z
		 M105.6,37c-1.1,0.1-2.2,0.2-1.3,1.8c0.6,1.1,0.2,2-0.7,2.8c-0.5,0.4-0.6,0.8,0,1c1.1,0.5,2.3,0.6,3.4-0.2c1.1-0.9,1.8-2,1.3-3.5
		C107.9,37.7,106.9,37.1,105.6,37z"/>
	<path class="st2" d="M94.5,111.8c4-0.7,7.6-2.4,10.5-5.2c1.9-1.8,3.9-3.6,6-5.2c2-1.5,3.9-1.3,5.1,0.9c1,1.8,1.6,1,2.6,0.2
		c5.2-4.3,8.8-9.7,11.6-15.7c0.6-1.3,1.3-2.5,2.4-3.4c2.1-1.8,4-1.5,5.1,1.1c0.5,1.2,0.9,0.5,1.3,0.1c3-2.7,5.1-5.9,6.7-9.6
		c0.9-2.1,1.4-4.4,2.7-6.3c0.3,0.2,0.6,0.4,0.8,0.7c3.9,6.8,6.6,14.2,9.1,21.7c0.3,1,0,1.8-0.6,2.5c-2,2.4-4.2,4.5-6.5,6.6
		c-3,2.7-5.9,5.6-8.8,8.4c-0.1,0-0.1,0-0.2,0.1c0,0,0,0.1,0,0.1c0.1-0.1,0.1-0.1,0.2-0.2c0.8-0.1,1.7-0.3,2.5-0.4l0,0
		c-0.1,0.4-0.7,0.6-0.5,1.2c1.2-0.2,1.9-1.1,3.1-1.2c-0.2,0.9,0.4,1.4,0.8,2.1c-2.7,2.6-5.9,4.8-8.4,8.1c1.4,0,2.2-1.1,3.3-0.9
		c-0.5,0.5-0.9,1-1.4,1.6c-0.6,0.7-1.7,1.3-1,2.3c0.6,0.9,1.6,0.5,2.5,0.1c6.8-2.8,12.9-6.6,17.2-12.8c1.3,0.3,0.9,1.3,0.8,2
		c-0.4,4.1-0.3,8.3-1.3,12.4c-0.3,0.2-0.4,0.5-0.4,0.8c0,0,0,0,0,0c-1.3,2-2.5,4.2-4.3,5.9c-1.6,1.6-3.4,3.3-5.8,2.8
		c-1.6-0.3-2.1,0.4-2.4,1.5c-0.8,2.5-1.7,5.1-2.3,7.6c-3.4,14.1-8.7,27.5-15.2,40.4c-0.5,1-1.2,1.9-2.6,1.7
		c1.1-4.9,2.2-9.8,3.2-14.7c0.6-2.8,1-5.6,1.5-8.4c4.3-0.2,4.7-0.8,3.3-4.9c-0.3-0.8-0.3-1.8-1.1-2.4c0.8-1.2,1.9-2.2,1.8-3.8
		c1.6,0.2,3.3-0.1,3.6-1.8c0.3-1.6-0.6-3-2.3-3.7c0.2-0.4,0.3-0.9,0.5-1.3c2.2,0,3.2-0.8,2.4-2.3c-0.7-1.2-1.1-2.7-2.4-3.5
		c0.6-1.5,0-2.9-0.5-4.2c0.4-0.7,1.1-0.4,1.7-0.7c1.1-0.6,1.3-1.7,0.2-2.4c-1.2-0.8-2.5-1.4-3.7-2.2l0,0c0.8-0.8,1.7-1.7,2.5-2.6
		c0.3-0.4,0.8-1.1,0-1.4c-2.4-0.7-4.8-2.2-7.4-1c-0.3-0.3-0.5-0.6-0.8-0.8c0.4-0.8,0.9-1.6,1.3-2.4c0.3-0.6,0.9-1.3,0.5-1.9
		c-0.4-0.6-1.3-0.4-2-0.3c-0.8,0.1-1.6,0.4-2.4,0.7c-1.8,0.7-3.6,1.5-5.4,2.3c-0.9,0.4-1.6,0.7-2.5-0.1c-0.9-0.7-1.5-0.3-2.1,0.6
		c-0.7,1.1-1.4,2.2-2.2,3.3c-1.8-2.6-2-2.6-3.5-0.1c-1,1.6-1.8,3.3-2.7,5c-0.7,1.3-1.1,2.8-2.2,3.9c-0.8-0.7-0.8-1.8-2-2.2
		c-1.1,3.8,0.1,7.5-0.1,11.2c-0.6,1.2-1.1,2.5-1.3,3.8c-1.1-0.5-2.2-1.4-3.7-1.7c0.7,3.1,1.4,6,2,8.8c0,0.4,0.1,0.8,0.1,1.2
		c0,1.5-0.1,2.9-0.1,4.4c-0.6-1-1.3-2.1-1.9-3.1c-0.7,0.4-0.3,0.8-0.2,1.3c1.3,6.8,3.9,13.2,6.3,19.7c0.8,2.2,1.5,4.3,2.2,6.5
		c0.5,1.4,1.1,2.7,2.1,3.8c-3.1,1.6-4.2,1.3-5.6-1.9c-1.4-3.1-2.5-6.2-3.8-9.3c-2.6-6.5-4.7-13.2-7.6-19.5c-1.3-2.8-1.8-3-4.6-1.8
		c-0.2-1.5,0-3-0.4-4.6c-1.4-5.7-1.5-11.3,0.5-16.9c0.2-0.5,0.3-0.9-0.2-1.3c1-1.7,2-3.4,2.9-5.1c1.6,1.1,3.5,1.3,5.4,1.6
		c0.8,0.1,1.7-0.1,2-0.8c0.4-1-0.6-1-1.1-1.4c-0.3-0.2-0.8-0.3-1-0.9c0.5,0,0.9-0.1,1.4-0.1c2,0,3.9,0,5.8-0.9
		c-0.4-0.6-1.2-0.1-1.5-0.8c0-0.4-0.1-0.7-0.1-1.1c1.3-0.1,2.6-0.2,4.2-0.3c-2.6-1.6-5-2.7-7.5-3.7c-1.6-0.6-3.1-1.5-4.3-2.9
		C94.5,113.5,94.5,112.7,94.5,111.8z"/>
	<path class="st3" d="M101.2,157.9c0-1.5,0.1-2.9,0.1-4.4c0.8,0.7,1.1,0.3,1.2-0.5c0.1-1.5,0.5-2.9-0.2-4.4
		c-1.1,1.1-1.1,2.5-1.1,3.8c-0.7-2.8-1.3-5.7-2-8.8c1.5,0.3,2.6,1.1,3.7,1.7c0.4,0.8,0.8,1.1,1.4,0.2c1.1-1.7,1.6-3.4,1.5-5.5
		c-0.9,0.4-1.2,1-1.6,1.6c0.2-3.7-1.1-7.4,0.1-11.2c1.2,0.4,1.2,1.6,2,2.2c1.1-1.1,1.5-2.6,2.2-3.9c0.9-1.7,1.7-3.4,2.7-5
		c1.6-2.5,1.8-2.5,3.5,0.1c0.8-1.1,1.5-2.2,2.2-3.3c0.5-0.8,1.2-1.3,2.1-0.6c0.9,0.7,1.7,0.5,2.5,0.1c1.8-0.8,3.6-1.5,5.4-2.3
		c0.8-0.3,1.6-0.6,2.4-0.7c0.7-0.1,1.6-0.3,2,0.3c0.4,0.6-0.2,1.3-0.5,1.9c-0.4,0.8-0.9,1.6-1.3,2.4c-0.3-0.1-0.5-0.1-0.8-0.2
		c-0.7-0.3-1.6-0.6-2,0.3c-0.4,1,0.5,1.4,1.1,1.7c1.2,0.6,2.4,1,3.7,1.6c0-1.2-0.8-1.8-1.2-2.5c2.7-1.2,5,0.3,7.4,1
		c0.8,0.3,0.3,1,0,1.4c-0.8,0.9-1.7,1.7-2.5,2.6c-0.2-0.3-0.4-0.6-0.7-0.8c-0.6-0.5-1.3-0.9-1.9-0.2c-0.7,0.7,0.1,1.3,0.6,1.7
		c0.8,0.7,1.6,1.4,2.4,2.2c0.3-1.2-0.3-2-0.4-2.9c1.2,0.7,2.5,1.4,3.7,2.2c1,0.7,0.9,1.8-0.2,2.4c-0.5,0.3-1.3,0-1.7,0.7
		c-1.6-0.2-1.9,0.6-1.5,1.9c0.4,1.3,0.9,2.5,1.8,3.8c0.1-0.6,0.2-1.1,0.2-1.5c1.3,0.8,1.8,2.3,2.4,3.5c0.8,1.4-0.2,2.3-2.4,2.3
		c-0.2-0.7,0.4-2-0.8-2.1c-1.3-0.1-1,1.2-1.1,2.1c0,1.1,0,2.3,0,3.4c0.1,0,0.3,0,0.4,0c0.3-0.7,0.6-1.4,1-2.1
		c1.7,0.7,2.6,2.1,2.3,3.7c-0.3,1.7-2,1.9-3.6,1.8c-0.7-1.4-1.6-1-2,0.1c-0.4,1.2-0.6,2.5,0.2,3.7c0.8,0.6,0.9,1.6,1.1,2.4
		c1.4,4.2,1,4.7-3.3,4.9c-1.4-1.1-1.5,0.4-1.7,1c-1.3,3.2-1.6,6.6-2.5,10c-0.8,3.4-1.7,6.8-2.4,10.2c-0.4,1.9-1.7,2.6-3.4,2.8
		c-1.6,0.2-3.2-0.1-4.8-0.6c-1.4-0.4-2.9-1.1-4.3-1c-2.4,0.3-3.1-1-3.7-2.9C107,172.5,104,165.2,101.2,157.9z M117.7,156.1
		c0.2-0.1,0.3-0.3,0.5-0.4c2.2-0.5,3.8-1.9,5.2-3.5c0.4-0.4,0.9-1.1,0.2-1.7c-0.7-0.7-1.3-0.1-1.8,0.4c-0.5,0.4-0.7,1-1.5,1.1
		c0-0.2,0-0.4,0-0.6c0.2-0.6,0.7-1.4-0.1-1.9c-0.8-0.5-1.4,0.2-2,0.7c-0.5,0.4-0.9,0.8-1.4,1.2c0.1-0.5,0.2-1.1,0.4-1.6
		c0.1-0.4,0.2-0.9-0.2-1.2c-0.4-0.3-0.8-0.1-1.1,0.2c-2.1,2.1-4,4.3-6,7.3c2.8-1.2,4.4-2.9,6.2-4.3c0.1,1.9-2.2,2.6-2.3,4.5
		c1.5-0.4,2.3-1.6,3.5-2.2c0.7-0.4,1.3-1.8,1.9-1.2c0.9,0.8-0.8,1.4-0.9,2.2c0,0.1-0.1,0.3-0.1,0.4C118,155.8,117.8,156,117.7,156.1
		c-0.1,0-0.1,0-0.1,0.1c0,0,0,0.1,0,0.1C117.6,156.3,117.7,156.2,117.7,156.1z M116.5,123.6c-1.6,0.4-2.9,1.2-3.7,2.8
		c-0.2,0.4-0.3,1,0.2,1.3c0.4,0.3,0.8,0,1.1-0.3C115.2,126.3,116.2,125.2,116.5,123.6c0-0.1,0.1-0.1,0.2-0.1c0,0-0.1,0-0.1,0
		C116.5,123.5,116.5,123.6,116.5,123.6z M120.7,143.9c2.2-0.5,3.8-2,5.4-3.5c0.6-0.6,1.4-1.3,0.7-2.1c-0.7-0.8-1.7-0.1-2.2,0.4
		C123.1,140.3,121.5,141.8,120.7,143.9c-0.1,0-0.1,0.1-0.2,0.2C120.6,144,120.6,144,120.7,143.9z M113.5,142.7
		c2.6-0.8,4.2-2.8,6-4.7c0.4-0.4,0.4-0.9,0.1-1.4c-0.4-0.5-0.9-0.3-1.3,0C116.3,138.2,114.2,139.9,113.5,142.7
		c-0.3,0-0.4,0.1-0.6,0.1c0,0.1,0.1,0.2,0.1,0.1C113.2,142.9,113.4,142.8,113.5,142.7z M116.8,143.7c1.8-1.6,4.1-2.4,5.5-4.4
		c0.3-0.4,0.8-1,0.3-1.5c-0.5-0.6-1.2-0.3-1.7,0.2C119.1,139.6,117.6,141.4,116.8,143.7z M110.9,129.9c-2.1,1.3-3.3,2.9-3.9,5
		c-0.1,0.5-0.3,1,0.3,1.3c0.6,0.3,0.9-0.2,1.2-0.6C109.6,133.9,110.5,132.1,110.9,129.9z M125.8,121.7c-1.8-0.6-3.4-1.2-5.1-1
		c-0.8,0.1-1.6,0.3-1.6,1.3c0,1,0.9,0.8,1.6,0.9C122.3,122.9,124,122.7,125.8,121.7z M130.9,159.3c1.5-1,2.4-1.9,2.5-3.5
		c0-0.6-0.2-1.1-0.9-1.3c-0.6-0.1-0.9,0.2-1.2,0.6C130.6,156.4,130.8,157.6,130.9,159.3z"/>
	<path class="st1" d="M127.4,183.6c1.4,0.2,2.1-0.7,2.6-1.7c6.6-12.9,11.8-26.3,15.2-40.4c0.6-2.6,1.5-5.1,2.3-7.6
		c0.4-1.1,0.8-1.8,2.4-1.5c2.4,0.5,4.2-1.2,5.8-2.8c1.8-1.7,2.9-3.9,4.3-5.9c-0.1,4-1.4,7.6-2.5,11.4c-0.4,0.2-0.4,0.5-0.4,0.9
		c0,0,0,0,0,0c-0.6,0.2-0.8,0.7-1,1.3c-2.1,4.4-4.2,8.9-6.3,13.3c-0.8,1.8-1.7,3.6-2.7,5.6c-0.2-1.1,0-2-0.8-2.5
		c-0.7,1-1.1,2.2-1.4,3.3c-0.1,0.4-0.1,0.9-0.7,0.8c-2.5-0.4-2,1.1-1.4,2.3c1.2,2.3,0.9,4.1-0.4,6.4c-2.7,4.7-5.8,9.3-8.8,13.9
		c-2,3.1-2,4.1-0.1,7.1c0.3,0.4,0.5,0.8,0.8,1.3c-0.6,0.2-1.4-0.2-1.7,0.6c-0.3,0.8,0.6,0.8,0.9,1.2c0.6,0.7,1.1,1.4,1.2,2.4
		c-1.6,0.5-2.7,0.2-3.3-1.5c-0.2-0.7-0.6-1.3-1.3-1.6c-0.7-0.3-1.3-0.2-1.7,0.5c-0.3,0.5-0.1,0.9,0.5,1.1c0.5,0.1,0.8,0.5,0.6,0.9
		c-0.2,0.5-0.7,0.3-1.1,0.3c-2.8,0.1-3.3-0.5-2.8-3.3C126.1,187.2,126.5,185.3,127.4,183.6z"/>
	<path class="st3" d="M142.6,108.4c2.9-2.8,5.8-5.6,8.8-8.4c2.3-2.1,4.6-4.2,6.5-6.6c0.6-0.8,0.9-1.6,0.6-2.5
		c-2.5-7.5-5.2-14.8-9.1-21.7c-0.2-0.3-0.5-0.4-0.8-0.7c0-1.7-1.2-3-2-4.3c-7.9-12.5-17.7-23.2-29.9-31.6c-3.8-2.6-7.9-4.8-12-7
		c-1-0.5-2.1-0.9-2.7-1.9c8,1.2,15.3,4.3,22,8.8c0.1,0.2,0.3,0.4,0.4,0.6c0,0,0,0,0,0c0.2,0.4,0.5,0.5,0.9,0.4c0,0,0,0,0,0
		c-0.1,0.6,0.2,0.9,0.6,1.3c1.7,1.8,3.4,3.7,5.2,5.5c3.5,3.5,7.1,7,10.1,11c4.7,6.1,9,12.5,12.2,19.6c0.9,2,1.5,4.2,3.3,5.8
		c0,0,0,0,0,0c0,0.3,0,0.7,0.4,0.9c1.8,4.6,2.6,9.5,3.6,14.4c0.8,2.7,0.1,4.7-2.1,6.5c-3.7,3-7.3,6.1-10.7,9.5c-1.1,0-1.9,1-3.1,1.2
		c-0.2-0.6,0.4-0.8,0.5-1.2c0.1,0,0.1,0,0.2-0.1c0,0,0-0.1,0-0.1c-0.1,0.1-0.1,0.1-0.2,0.2C144.3,108.1,143.5,108.3,142.6,108.4
		L142.6,108.4z"/>
	<path class="st2" d="M84.7,155.3c-1.6,0.7-0.7,1.9-0.6,2.9c1.3,7.7,5.1,14.2,9.4,20.5c1.4,2,3,3.9,3.9,6.2c-1,0.2-1.6-0.4-2.2-1.1
		c-1.5-1.6-3.3-2.8-4.9-4.2c-4.7-3.9-9.5-7.9-11.9-13.8c-2.1-5.2-4.1-10.4-2.9-16.2c0.2-1,0.3-1.9,0.6-2.9c0.2-0.8,0-1-0.7-1.1
		c0.1-0.1,0.2-0.3,0.3-0.4c0.9-0.1,1.2-1,1.9-1.3c-0.1,0.8-0.2,1.5-0.3,2.3c-0.3,2.2-0.4,4.3,0,6.5c0.1,0.6,0.4,1.3,1.2,1.3
		c0.8,0,0.6-0.7,0.9-1.2c0.5-1,0-2.1,0.7-3c1.2,1,0.9,3,2.6,4.1c-0.2-1.5-0.6-2.8-0.5-4.1c0.9,0.2,1.9,0.5,2.9,0.4
		c1,1.4,1.7,3,2.2,4.7c-0.3,0-0.6,0-0.9,0C85.7,154.6,85,153.9,84.7,155.3z"/>
	<path class="st1" d="M86.4,154.9c0.3,0,0.6,0,0.9,0c0.2,0.2,0.5,0.6,0.5,0.5c0.7-0.5,0.2-1.2,0.4-1.8c2.8-1.2,3.3-1.1,4.6,1.8
		c2.9,6.4,5,13.1,7.6,19.5c1.3,3.1,2.4,6.3,3.8,9.3c1.4,3.1,2.5,3.4,5.6,1.9c1.2,0.6,2.5,1.3,3.7,1.9c0.5,0.3,1,0.5,1.2,1.1
		c0.1,0.5,0.3,1-0.1,1.4c-0.5,0.5-0.9-0.1-1.2-0.4c-0.8-0.9-2-1.3-3.1-1.6c-0.9-0.3-1.5-0.1-1.4,1.1l-0.1,0.1c-0.4,0-0.9,0-1.2-0.2
		c-0.7-0.2-1.3-0.4-1.6,0.5c-0.2,0.8,0.5,0.8,1,1c0.5,0.3,1.1,0.6,0.8,1.3c-0.2,0.5-0.9,0.2-1.3,0.1c-2.1-0.4-3.7-1.1-4.2-3.6
		c-0.7-3.2-2.9-5.8-4.4-8.7c-0.1-0.2-0.3-0.4-0.4-0.6c0,0,0,0,0,0c0.1-0.8-0.3-1.5-0.7-2.2c-1.1-2.1-2.2-4.3-3.4-6.3
		c-1-1.6-1.5-3.1,0.4-4.3c0.1,0,0-0.3,0.1-0.6c-3.2,0.5-0.7-2.2-1.8-3.1c-0.5,0.6-1,1.3-1.6,2.2C89.1,161.5,87.7,158.2,86.4,154.9z"
		/>
	<path class="st4" d="M147.7,108c3.3-3.4,7-6.5,10.7-9.5c2.3-1.8,3-3.8,2.1-6.5c1.7,1.2,1.9,3.2,1.8,4.9c-0.1,3.9-0.4,7.8-1.6,11.5
		c-4.3,6.2-10.4,10-17.2,12.8c-0.8,0.3-1.9,0.7-2.5-0.1c-0.7-1,0.4-1.6,1-2.3c0.5-0.5,0.9-1,1.4-1.6c0,0,0,0,0,0
		c0.2-0.1,0.3-0.2,0.5-0.4c2.9-1.8,5.5-4,8.1-6.8c-1.5,0-2.5,0-3.5,0C148.1,109.5,147.5,108.9,147.7,108z"/>
	<path class="st1" d="M75.3,145.6c0.7,0.1,1,0.3,0.7,1.1c-0.3,0.9-0.4,1.9-0.6,2.9c-1.2,5.8,0.8,11,2.9,16.2
		c2.4,5.9,7.2,9.9,11.9,13.8c1.7,1.4,3.5,2.6,4.9,4.2c0.6,0.6,1.2,1.2,2.2,1.1c0.9,0.9,1.6,2,1.8,3.3c0.2,1.3-0.4,2.3-1.9,2.7
		c-3.9,0.9-7.8-0.1-11.8-0.1c0.7-0.7,1.6-0.7,2.3-1.1c0.5-0.2,1.3-0.2,1.3-0.8c0-1-1-0.3-1.6-0.8c0.6-0.6,1.4-1.1,1.6-2
		c0.4,0,1,0.2,0.9-0.4c0-0.6-0.3-1.2-1.1-1.2c0,0,0,0,0,0c0-0.4,0-0.7-0.4-0.9c0,0,0,0,0,0c-0.1-0.1-0.3-0.3-0.4-0.4c0,0,0,0,0,0
		c0-0.4,0-0.7-0.4-0.9c0,0,0,0,0,0c-0.2-1.2-1.1-2.1-1.9-3c-5.3-5.8-9.6-12.2-11.7-19.9C72.8,154.7,73,150.1,75.3,145.6z"/>
	<path class="st3" d="M84.7,23.6c0,1.1,0.2,1.5,1.6,1.3c1.3-0.2,3.2-1.1,3.7,1.5c0.1,0.8,0.8,0.2,1.2,0.2c0.7,0,1.4,0.2,1.6,1.1
		c0.1,0.8-0.5,1.1-1.1,1.3c-0.9,0.3-1.9,0.4-2.9,1.2c2,0.1,3.6-0.9,5.4-0.8c0.9,0,1.9-0.6,2.3,0.6c0.5,1.3-0.9,1.3-1.7,1.8
		c1,0.5,2-0.1,3,0.5c-1.2,1.1-2.7,1-4,1.3c-1.3,0.3-2.6,0.5-3.9,0.8c-0.8,0.1-2.1,0.4-2.2-0.1c-0.8-3-2.4-0.3-3.5-0.7
		c-0.6-0.2-1.3,0.7-2,0c-0.7-0.7-0.2-1.4,0.1-2.2c0,0,0,0,0,0.1c0,0,0.1,0,0.1-0.1c0,0,0-0.1,0-0.1c0,0-0.1,0-0.1,0.1
		c-0.6,0.1-1.1,0.2-1.7,0.3c-0.7,0.2-1.4,0.5-2-0.1c-0.5-0.7,0.2-1.3,0.4-2.1c-1.4,0-2.4,0.9-3.6,1.1C75,30.7,74.3,31,74,30.4
		c-0.4-0.6,0.1-1.1,0.5-1.4c0.6-0.6,1.3-1.2,2.3-2c-2.4,0.2-4.2,1.6-6.4,1.2C74.8,25.6,79.6,24.1,84.7,23.6z M87.9,30.6
		c0,0,0-0.1,0-0.1c0,0-0.1,0-0.2,0c0,0.1,0,0.1,0,0.2C87.8,30.6,87.8,30.6,87.9,30.6z"/>
	<path class="st2" d="M97.5,15.2c-0.7,0.6-1.4-0.5-2.2,0c0.2,0.3,0.6,0.7,0.5,0.9c-0.2,0.4-0.7,0.2-1.1,0.2c-2-0.4-4.1-0.9-6.4-1.4
		c1,1.3,2.5,1.2,3.7,2.3c-2.7-0.3-5-0.6-7.3-0.8c0,0.1-0.1,0.2-0.1,0.3c1.3,0.4,2.7,0.9,4,1.3c0,0.1,0,0.2-0.1,0.3
		c-1.7,0-3.3,0-5.2,0c1.2,1.2,2.6,0.8,3.7,1.5c-0.7,0.8-1.7,0.6-2.5,0.7c-1.4-0.5-2.7-1-4.1-1.4c-1.5-0.4-2.8-1.7-4.5-1.6
		c-2.7-2-3.6-5-4-8.1c4.7,0.4,9.5,0.7,14.1,1.8C89.8,12.3,93.9,13,97.5,15.2z"/>
	<path class="st3" d="M134.2,188.6c-0.3-0.4-0.5-0.9-0.8-1.3c-2-3-1.9-4,0.1-7.1c3-4.6,6-9.1,8.8-13.9c1.3-2.3,1.6-4.1,0.4-6.4
		c-0.7-1.3-1.1-2.8,1.4-2.3c0.6,0.1,0.6-0.4,0.7-0.8c0.3-1.2,0.7-2.3,1.4-3.3c0.9,0.5,0.6,1.4,0.8,2.5c1-2.1,1.9-3.9,2.7-5.6
		c2.1-4.4,4.2-8.9,6.3-13.3c0.2-0.5,0.4-1.1,1-1.3c-0.8,4.2-2.7,8.1-4.3,12.1c-3.9,9.4-7.6,18.9-13,27.6c-1,1.7-2.3,3.2-3.4,4.8
		c-2.4,3.5-2.3,5,0.3,8.3c0.6,0.7,1.1,1.4,1.6,2.2c0.3,0.5,0.2,0.9-0.4,1.2c-0.5,0.2-0.9,0.3-1.2-0.3
		C136,190.6,135.3,189.4,134.2,188.6z"/>
	<path class="st2" d="M72.9,57.7c0.9,2.4,0.7,5,1.2,7.5c0.9,4.2,1.8,8.3,3.4,12.2c0.2,0.6,0.9,1.2,0.1,1.9
		C70.8,73,65.4,65.7,61.9,56.5C65.6,58.3,69.2,58.4,72.9,57.7z"/>
	<path class="st3" d="M81,44.7c2.5,2,4.6,4.4,6.6,7.6c-2.3-0.8-3.7-2.1-5-3.3c-6.6-5.7-14-10-22.7-11.8c-3.3-0.7-6.8-0.8-10.2-0.1
		c-2.2,0.2-4.6-0.6-6.8,0.5c-0.9-0.1-1.8-0.3-2.4-1.1c1.7-1.1,3.6-1.7,5.4-2.3c0.7,0.6,1.5,0.4,2.2,0.3c4.8-0.9,9.4-0.1,14,1.3
		c3.6,1.2,7.2,2.5,10.8,3.8c2.4,1,3.9,3.1,6,4.3C79.6,44.3,80,45.6,81,44.7z"/>
	<path class="st3" d="M75.3,145.6c-2.4,4.5-2.5,9.2-1.2,14c2.1,7.7,6.4,14.1,11.7,19.9c0.8,0.9,1.6,1.7,1.9,3
		c-2.2-1-3.7-2.8-5.5-4.2c-2.2-1.8-4.2-3.8-6.3-5.7c-0.1-0.2-0.3-0.4-0.4-0.6c0,0,0,0,0,0c0.2-0.9-0.2-1.7-0.6-2.4
		c-2.8-5.2-3.8-10.7-3.2-16.5c0.1-0.7,0.3-1.5-0.3-2.2c1.1-2.2,2.1-4.5,3.7-6.4c0.1,0.3,0.3,0.5,0.7,0.5c0,0.1,0,0.2-0.1,0.4
		C75.6,145.3,75.5,145.4,75.3,145.6z"/>
	<path class="st4" d="M84.7,106c0.2,0.3,0.3,0.5,0.5,0.8c0.7,2.5,2,4.9,1.8,7.7c-0.1,1.1-0.2,2.1-1.2,2.8c-0.1-1.8-0.6-3.4-1.2-5.5
		c-0.6,1.2-2.2,1.4-1.9,2.8c0.4,1.6-0.1,2.8-1.2,3.9c-0.9,0.5-2.3,0.5-1.7,2.1c-2.9-0.2-3.9-2.4-4.4-4.6c-0.3-1-1.1-2.2-0.2-3.4
		c0.2,0.4,0.5,0.9,0.8,1.3c0.4,0.5,0.4,1.6,1.4,1c0.8-0.5,1.6-1.1,1-2.4c-1.1-2.4-1.1-2.5,1.5-3.4c2.6-0.9,3-1.8,1.8-4.1
		C82.7,104.7,83.5,105.9,84.7,106z"/>
	<path class="st1" d="M81.4,118.6c1.1-1.1,1.6-2.4,1.2-3.9c-0.3-1.4,1.3-1.6,1.9-2.8c0.6,2,1.1,3.7,1.2,5.5
		c0.7,4.3,0.6,8.6-0.7,12.7c-0.8,2.6-2.8,4.8-4.2,7.3c-0.8,1.4-2.1,2.5-2.4,4.2c0,0,0,0,0,0c-1.3,0.9-1.6,2.4-2.7,3.4
		c-0.3,0-0.6-0.2-0.7-0.5c0.3-1.4,1-2.6,1.7-3.7c1.6-2.4,2.9-4.9,3.8-7.7c1-0.5,1.1-1.5,1.3-2.5C82.4,126.4,82.6,122.5,81.4,118.6z"
		/>
	<path class="st4" d="M85.1,150.2c-1,0.1-1.9-0.2-2.9-0.4c-0.7-0.4-1.1-1.3-2-1.2c-0.1,0-0.1,0.8-0.2,1.2c-0.8,0.9-0.3,2-0.7,3
		c-0.2,0.5,0,1.2-0.9,1.2c-0.8,0-1.1-0.7-1.2-1.3c-0.4-2.2-0.3-4.3,0-6.5c0.1-0.8,0.2-1.5,0.3-2.3c0,0,0,0,0,0
		c0.4-0.1,0.3-0.3,0-0.4c0.3-0.7,1-1.2,0.8-2.1c0,0,0,0,0,0c1.4-0.4,1.6-2,2.5-2.9c1.1-1.1,1.7-2.7,3.5-3c-1,3.9-0.1,7.6,1.2,11.3
		C86.1,148.1,86.2,149.2,85.1,150.2z"/>
	<path class="st2" d="M43,37.6c2.2-1.1,4.5-0.3,6.8-0.5c0.5,1.9,2.3,3,3.5,4.4c3.6,4.1,7.2,8.3,11.4,11.7c0.7,0.5,0.7,1,0.3,1.6
		c-5.4-2-9.7-5.8-13.8-9.8C48.6,42.4,45.7,40.1,43,37.6z"/>
	<path class="st5" d="M156.6,76.8c-1.8-1.5-2.4-3.8-3.3-5.8c-3.2-7.1-7.5-13.4-12.2-19.6c-3-4-6.6-7.4-10.1-11
		c-1.8-1.8-3.4-3.7-5.2-5.5c-0.3-0.4-0.7-0.7-0.6-1.3c3.3,1.8,6,4.4,8.6,7c10.3,9.8,17.6,21.5,22.4,34.9
		C156.5,75.9,156.5,76.3,156.6,76.8z"/>
	<path class="st3" d="M97.5,15.2c-3.6-2.2-7.7-2.9-11.6-3.8c-4.6-1.1-9.3-1.5-14.1-1.8c-0.2-0.7-0.7-1.3-0.5-2.1
		c1.4,0.3,2.9,0.7,4.3,0.9c8.2,0.8,16.2,2.5,23.9,5.4c1.2,0.5,2.5,1.1,3.9,0.9c0,0,0,0,0,0c0.2,0.4,0.5,0.4,0.9,0.4
		c3,1.5,5.6,3.6,8,5.9l-0.1,0.1c-4.4-2-8.9-3.9-13.5-5.6C98.3,15.4,97.9,15.3,97.5,15.2z"/>
	<path class="st3" d="M81.4,105c1.2,2.3,0.8,3.2-1.8,4.1c-2.5,0.9-2.6,1-1.5,3.4c0.6,1.3-0.3,1.9-1,2.4c-1,0.6-1-0.6-1.4-1
		c-0.3-0.4-0.5-0.8-0.8-1.3c-0.2-0.4-0.5-0.9-0.7-1.3c0.3-0.2,0.1-0.3-0.1-0.4c0,0,0,0,0,0c0-1,0-2.1-0.2-3.1
		c-0.9-3.9-0.4-4.9,3.3-6.7C79.1,102,80.1,103.7,81.4,105z"/>
	<path class="st4" d="M102,121.2c0,0.4,0.1,0.7,0.1,1.1c-1.3,0.9-2.9,1-4.3,1.7c-0.5,0-0.9,0.1-1.4,0.1c0.2,0.6,0.6,0.7,1,0.9
		c0.5,0.4,1.6,0.4,1.1,1.4c-0.3,0.7-1.2,1-2,0.8c-1.8-0.3-3.8-0.5-5.4-1.6c0.5-1.9,1.2-3.8,1.5-5.9c0.1-1,0.5-2.1,1.5-2.6
		C96.3,119.5,99.2,120.3,102,121.2z"/>
	<path class="st3" d="M85.1,150.2c1.1-1,1-2.1,0.5-3.4c-1.3-3.6-2.2-7.4-1.2-11.3c0,0-0.1,0-0.1,0c0.3,0,0.4-0.3,0.5-0.5
		c1.1-1.4,2.2-2.8,3.3-4.1c0.5,0.4,0.3,0.8,0.2,1.3c-2,5.6-1.9,11.2-0.5,16.9c0.4,1.5,0.2,3.1,0.4,4.6c-0.2,0.6,0.3,1.3-0.4,1.8
		c0,0-0.3-0.3-0.5-0.5C86.8,153.2,86.1,151.7,85.1,150.2z"/>
	<path class="st3" d="M86.4,154.9c1.3,3.3,2.7,6.6,4.1,10.1c0.7-0.9,1.1-1.5,1.6-2.2c1.1,1-1.4,3.6,1.8,3.1c0,0.3,0,0.6-0.1,0.6
		c-1.9,1.3-1.4,2.7-0.4,4.3c1.2,2,2.3,4.2,3.4,6.3c0.4,0.7,0.8,1.4,0.7,2.2c-4.3-5.8-8.4-11.7-10.5-18.7c-0.6-1.9-1.1-3.8-2.2-5.4
		C85,153.9,85.7,154.6,86.4,154.9z"/>
	<path class="st5" d="M103.4,14.7c-1.4,0.2-2.6-0.5-3.9-0.9c-7.7-2.9-15.7-4.6-23.9-5.4c-1.5-0.1-2.9-0.6-4.3-0.9
		c-0.2-0.7,0.2-0.8,0.8-0.8c10.8,0.6,21.5,2,31.1,7.7C103.3,14.4,103.3,14.5,103.4,14.7z"/>
	<path class="st5" d="M71.3,150.7c0.6,0.7,0.4,1.5,0.3,2.2c-0.6,5.8,0.4,11.3,3.2,16.5c0.4,0.7,0.7,1.5,0.6,2.4
		c-5.6-4.6-7.5-11.7-5-18.8C70.7,152.2,71,151.5,71.3,150.7z"/>
	<path class="st5" d="M73,39.6c-3.6-1.3-7.2-2.6-10.8-3.8c-4.5-1.5-9.2-2.2-14-1.3c-0.7,0.1-1.5,0.3-2.2-0.3
		c7.1-2.9,14-1.7,20.7,1.5C68.9,36.7,71.3,37.7,73,39.6z"/>
	<path class="st3" d="M102,121.2c-2.8-0.9-5.7-1.7-7.8-4c-0.2-1,0.3-1.9,0.4-2.8c1.1,1.4,2.6,2.2,4.3,2.9c2.5,1,4.9,2.1,7.5,3.7
		C104.6,121.1,103.3,121.1,102,121.2z"/>
	<path class="st1" d="M140.9,184.4c-0.6,0.4-0.8,1.7-1.9,0.5c-0.6-0.6-1.1-0.4-1.5,0.3c-0.2,0.3-0.3,0.9-0.9,0.6
		c-0.4-0.2-0.4-0.7-0.4-1.1c0-1.1,0.6-2,1.2-2.9c0.9-1.3,2-2.5,3-3.7C140.5,180.2,140.4,182.3,140.9,184.4z"/>
	<path class="st3" d="M81.4,118.6c1.2,3.9,1,7.9,0.4,11.9c-0.1,1-0.3,2-1.3,2.5c0.3-3.3,0.9-6.6,0-9.9c-0.2-0.8-0.6-1.5-0.9-2.3
		C79.1,119,80.5,119,81.4,118.6z"/>
	<path class="st5" d="M77.3,101.2c-3.6,1.8-4.2,2.7-3.3,6.7c0.2,1,0.2,2.1,0.2,3.1c-1.5-2.1-2.4-4.4-2.1-7
		C72.3,101.1,74.8,99.8,77.3,101.2z"/>
	<path class="st3" d="M140.9,184.4c-0.5-2.1-0.4-4.2-0.4-6.3c0.9-1.3,1.7-2.7,2.6-4c0.4,1.5-0.4,2.6-0.8,3.8
		c-0.4,1.3-0.6,2.6-0.6,3.9c-0.1,1.5,0.6,2.7,1.8,3.7C142,186.2,141.8,184.5,140.9,184.4z"/>
	<path class="st1" d="M75.8,17.7c1.7-0.1,2.9,1.2,4.5,1.6c1.4,0.4,2.8,0.9,4.1,1.4C80.6,22.5,78.3,19.7,75.8,17.7z"/>
	<path class="st1" d="M108.9,189.4c0.8,0,1.5,0.4,2.1,0.7c0.4,0.2,1,0.4,1,0.9c0,0.6-0.6,0.5-0.9,0.7c-0.6,0.3-1.1,0.2-1.4-0.4
		c-0.3-0.6-0.7-1.2-1-1.8C108.8,189.6,108.9,189.4,108.9,189.4z"/>
	<path class="st3" d="M89,184.4c0.8,0,1.1,0.6,1.1,1.2c0,0.6-0.5,0.4-0.9,0.4C89.1,185.5,89.1,185,89,184.4z"/>
	<path class="st1" d="M160,123.6c0-0.3,0-0.7,0.4-0.8C160.3,123.1,160.3,123.5,160,123.6z"/>
	<path class="st5" d="M104.3,15.1c-0.4,0-0.7,0-0.9-0.4C103.8,14.6,104.1,14.7,104.3,15.1z"/>
	<path class="st3" d="M157,135.9c0-0.4,0-0.7,0.4-0.9C157.4,135.3,157.5,135.7,157,135.9z"/>
	<path class="st3" d="M88.6,183.6c0.4,0.2,0.5,0.5,0.4,0.9C88.6,184.3,88.5,184,88.6,183.6z"/>
	<path class="st3" d="M87.7,182.3c0.4,0.2,0.5,0.5,0.4,0.9C87.8,183,87.6,182.8,87.7,182.3z"/>
	<path class="st5" d="M125.3,33.7c-0.4,0.1-0.7,0-0.9-0.4C124.9,33,125.2,33.3,125.3,33.7z"/>
	<path class="st2" d="M96.9,16.5c0.1,0,0.1,0,0.2-0.1c0,0.1,0,0.1,0,0.2c-0.1,0-0.1,0-0.2,0C96.9,16.6,96.9,16.6,96.9,16.5z"/>
	<path class="st5" d="M157,77.6c-0.4-0.2-0.4-0.5-0.4-0.9C156.9,76.9,157,77.2,157,77.6z"/>
	<path class="st3" d="M70.4,28.2c-0.2,0.4-0.6,0.4-1,0.4C69.7,28.2,70,28.1,70.4,28.2z"/>
	<path class="st5" d="M124.5,33.2c-0.1-0.2-0.3-0.4-0.4-0.6C124.3,32.8,124.6,32.9,124.5,33.2z"/>
	<path class="st3" d="M112.3,21c0.1,0.1,0.2,0.2,0.3,0.2c-0.2,0.2-0.3,0.1-0.4-0.1C112.1,21.1,112.3,21,112.3,21z"/>
	<path class="st5" d="M75.5,171.8c0.1,0.2,0.3,0.4,0.4,0.6C75.8,172.2,75.6,172,75.5,171.8z"/>
	<path class="st3" d="M97.4,179.4c0.1,0.2,0.3,0.4,0.4,0.6C97.7,179.8,97.6,179.6,97.4,179.4z"/>
	<path class="st3" d="M88.1,183.2c0.1,0.1,0.3,0.3,0.4,0.4C88.4,183.5,88.3,183.3,88.1,183.2z"/>
	<path class="st5" d="M74.2,111c0.3,0.1,0.4,0.2,0.1,0.4C74.2,111.2,74.2,111.1,74.2,111z"/>
	<path class="st4" d="M84.8,135c-0.1,0.3-0.2,0.5-0.5,0.5C84.5,135.3,84.7,135.1,84.8,135z"/>
	<path class="st4" d="M119.1,58.2c-1.3,1.8,0.2,3.6-0.1,5.4c-0.1,0.6,0,1.2,0,1.9c-0.1,1.5-0.7,1.9-2,1.1c-0.7-1.5-1.8-2.7-3-3.7
		c-0.8-0.7-2,0.6-3.1,0.7c-1.1,0.1-2.2,0.3-3.3,0.4c-1,0.1-4.4,2.8-4.5,3.7c-0.2,1.4-0.4,2.9-0.5,4.4c-0.2,0.4-0.3,0.8-0.5,1.1
		c-0.8,1.8-1.7,1.9-2.8,0.3c-0.2-0.3-0.4-0.6-0.5-0.9c-1.3-2.2-2.2-4.8-5.5-4.9c-0.2,0-0.5-0.4-0.7-0.7c1.5-0.2,2.9-0.4,4.4-0.5
		c2.3-0.1,4.5-0.6,6.3-2c0.6-0.5,2-0.9,1.5-1.6c-0.8-1.2-0.4-3.3-2.5-3.5c-1.1-0.7-2.2-1.3-3.2-2c-1.2-0.8-1.3-1.6,0.2-2.2
		c1.6-0.6,3.2-1.1,4.7-1.7c1.8-0.7,2.3,0,2.1,1.7c-0.1,0.8-0.1,1.7-0.1,2.5c-1.2,1.2-0.8,2.4-0.1,3.6c0.9,1.5,2.5,1.2,3.8,1
		c2.8-0.4,5.2-1.9,7.5-3.6C117.6,58.3,118.1,57.2,119.1,58.2z M100.2,72.2c0.6-1.5,1.3-2.9,0.8-4.1c-0.3-0.6-1.7,0.4-2.9,0.2
		C98.8,69.7,99.4,70.8,100.2,72.2z M117.6,64.3c0.2-1.3-0.3-2.4-0.5-3.6C114.8,61.9,114.8,62.1,117.6,64.3z"/>
	<path class="st2" d="M111,93.6c-1.6,3-3.9,4.9-6,7c-0.5,0.5-1.2,1-1.9,1.3c-0.5,0.3-1.2,0.4-1.6,0c-0.5-0.6,0.2-1,0.6-1.3
		c4.5-3.7,7.5-8.4,10-13.6c0.5-1.1,1-2.2,2.5-1.6c1.2,0.5,1,1.6,0.7,2.7c-0.3,0.9-0.3,1.9-0.5,3.4c2.7-2.1,4-4.5,5.4-6.9
		c1.2-2.2,2.2-4.6,3.3-6.8c0.4-0.9,1-2,2.1-1.5c1,0.5,0.6,1.6,0.2,2.5c-2.4,5.3-4.6,10.7-9.2,14.7c-0.8,0.6-1.5,1.2-2.4,1.6
		C112.8,95.6,111.7,95.5,111,93.6z"/>
	<path class="st4" d="M61.5,38.3c4.4,0,9.1,4.2,9.7,8.5c0.1,0.4,0.1,1-0.1,1.2c-1.9,2.3-0.1,3.4,1.4,4.6c0.4,0.4,1.2,0.7,0.8,1.3
		c-0.5,0.8-1.1,0.1-1.6-0.2c-1.2-0.7-2.3-1.6-3.1-2.8c-0.8-1.2-1.9-2.2,0.5-2.8c0.7-0.2,0.6-1,0.5-1.7c-0.5-3-5.1-6.4-8.2-6.2
		c-1.6,0.1-2.1,1.1-1.8,2.4c0.4,1.6,1.4,2.7,3,3.2c0.5,0.1,1,0.5,1.3-0.1c0.3-0.5-0.1-1-0.5-1.3c-0.3-0.3-0.8-0.6-1.2-0.8
		c-0.5-0.2-1.2-0.3-1-1.1c0.3-0.9,1-0.9,1.8-0.7c1.7,0.4,3.3,3,2.7,4.6c-0.5,1.5-2.3,2-4.3,1.1c-2.1-0.9-3.9-3.5-3.9-5.8
		C57.6,39.8,59.2,38.4,61.5,38.3z"/>
	<path class="st2" d="M139.5,70.7c1.2-1.3,1-2.9,2.1-3.9c1.6,2.1,1.2,5.7-0.9,7.3c-1.1,0.9-2.2,0.9-2.9-0.6c-0.6-1.2-1.1-1-1.7,0
		c-0.6,1.1-1.2,2.2-1.8,3.3c-0.4,0.7-0.9,1.5-1.8,1c-1-0.5-0.4-1.4,0-2c1.2-2.1,2.2-4.3,3-6.7c0.3-0.8,0.5-1.7,1.6-1.7
		c1.1,0,1.6,0.8,1.8,1.7C139,69.7,139.3,70.1,139.5,70.7z"/>
	<path class="st2" d="M102.5,72.1c0.2-1.5,0.3-2.9,0.5-4.4c0.1-0.9,3.5-3.6,4.5-3.7c1.1-0.1,2.2-0.3,3.3-0.4
		c1.1-0.1,2.3-1.4,3.1-0.7c1.2,1,2.4,2.2,3,3.7c-2.8,0-5.6-0.4-8.4,0.8c-1.8,0.8-3.5,1.7-4.5,3.5C103.7,71.5,103.4,72.2,102.5,72.1z
		"/>
	<path class="st2" d="M119.1,58.2c-1-0.9-1.5,0.2-2.1,0.6c-2.3,1.7-4.6,3.1-7.5,3.6c-1.3,0.2-2.9,0.5-3.8-1
		c-0.7-1.2-1.1-2.4,0.1-3.6c0.2,0.1,0.5,0.2,0.5,0.3c0.9,3,2.9,2.2,5,1.6c2.5-0.8,4.8-1.9,6.9-3.4c0.6-0.4,1.2-1.1,2-1.1l0,0
		C120.3,56.4,119.7,57.3,119.1,58.2z"/>
	<path class="st2" d="M102.1,59.4c2.2,0.1,1.7,2.3,2.5,3.5c0.5,0.8-0.9,1.2-1.5,1.6c-1.8,1.4-4.1,1.9-6.3,2
		c-1.5,0.1-2.9,0.3-4.4,0.5c-0.8,0-1.5-0.2-2.6-0.8c2.4-0.5,4.3-1,6.3-1.3c1.1-0.1,2.1-0.3,3-0.7C101.8,63.2,102.2,62.4,102.1,59.4z
		"/>
	<path class="st4" d="M91.5,49.9c-0.6-0.3-1.2-0.6-2-1c1.4-1.2,2.4-2.5,0.6-3.9c-0.8-0.6-0.2-0.9,0.3-1.2c0.8-0.4,1.6-0.4,2.4-0.4
		c1.7,0.8,3.1,1.8,2.5,3.9C94.8,49.2,93.3,49.8,91.5,49.9z"/>
	<path class="st4" d="M105.6,37c1.4,0.1,2.3,0.6,2.7,1.9c0.4,1.5-0.2,2.6-1.3,3.5c-1,0.8-2.2,0.7-3.4,0.2c-0.7-0.3-0.6-0.6,0-1
		c0.9-0.7,1.3-1.6,0.7-2.8C103.4,37.2,104.5,37.1,105.6,37z"/>
	<path class="st2" d="M91.5,49.9c1.8,0,3.3-0.7,3.8-2.6c0.6-2.1-0.8-3.1-2.5-3.9c2.4-0.8,3,1.1,3.8,2.5c0.9,1.7,0.2,3.2-1.2,4.2
		C94.2,50.8,92.6,52.1,91.5,49.9z"/>
	<path class="st4" d="M73,47.6c-0.3-0.6-1.5-0.7-1-1.5c0.6-0.9,1.4-0.2,2,0.1c1,0.5,1.9,1.1,2.7,2c-1.3,0.5-2.2-0.6-3.3-0.2
		c0,0,0,0,0,0C73.4,47.7,73.2,47.7,73,47.6L73,47.6z"/>
	<path class="st4" d="M72.1,49.3c-0.4-0.9-0.2-1.5,0.8-1.7c0,0,0,0,0,0c0,0.3,0.2,0.4,0.4,0.4c0,0,0,0,0,0c0.7,0.8,1.8,1.3,2.3,2.4
		c-0.8-0.1-1.6-0.2-2.3-0.2l0,0c-0.1-0.5-0.5-0.5-0.9-0.4l0,0C72.6,49.4,72.4,49.3,72.1,49.3L72.1,49.3z"/>
	<path class="st4" d="M73.4,50.1c0.4,0.6,0.8,1.1,1.3,1.9c-1.5,0-2.3-0.9-3.1-1.6c-0.6-0.6,0-1,0.6-1.1c0,0,0,0,0,0
		c0,0.3,0.2,0.4,0.4,0.4c0,0,0,0,0,0C72.7,50.1,73,50.2,73.4,50.1L73.4,50.1z"/>
	<path class="st2" d="M120.3,55.2c0-0.1,0.1-0.1,0.1-0.2C120.3,55.1,120.3,55.2,120.3,55.2L120.3,55.2z"/>
	<path class="st3" d="M148.6,110.1c1,0,2,0,3.5,0c-2.6,2.9-5.2,5-8.1,6.8c-0.2,0.1-0.3,0.2-0.5,0.4c0,0,0,0,0,0
		c-1.1-0.2-1.9,0.8-3.3,0.9C142.6,114.9,145.8,112.7,148.6,110.1z"/>
	<path class="st4" d="M104.2,141.4c0.4-0.5,0.7-1.2,1.6-1.6c0.1,2.1-0.4,3.9-1.5,5.5c-0.6,1-1.1,0.7-1.4-0.2
		C103.1,143.8,103.6,142.6,104.2,141.4z"/>
	<path class="st4" d="M130.4,122.4c0.4,0.8,1.2,1.3,1.2,2.5c-1.3-0.5-2.5-1-3.7-1.6c-0.7-0.3-1.6-0.7-1.1-1.7c0.4-0.9,1.2-0.6,2-0.3
		c0.3,0.1,0.5,0.1,0.8,0.2C129.8,121.8,130.1,122.1,130.4,122.4z"/>
	<path class="st4" d="M137.7,136.8c-0.1,0.4-0.1,0.8-0.2,1.5c-0.9-1.3-1.4-2.5-1.8-3.8c-0.4-1.3-0.1-2.1,1.5-1.9
		C137.7,133.9,138.2,135.3,137.7,136.8z"/>
	<path class="st4" d="M135.3,127.3c0.2,0.9,0.8,1.7,0.4,2.9c-0.9-0.8-1.7-1.5-2.4-2.2c-0.5-0.5-1.2-1-0.6-1.7
		c0.6-0.6,1.3-0.2,1.9,0.2C134.9,126.7,135.1,127,135.3,127.3C135.3,127.3,135.3,127.3,135.3,127.3z"/>
	<path class="st4" d="M137.2,143.9c-0.3,0.7-0.6,1.4-1,2.1c-0.1,0-0.3,0-0.4,0c0-1.1,0-2.3,0-3.4c0-0.9-0.2-2.2,1.1-2.1
		c1.2,0,0.6,1.3,0.8,2.1C137.5,143,137.4,143.5,137.2,143.9z"/>
	<path class="st4" d="M134.2,153.1c-0.8-1.2-0.6-2.5-0.2-3.7c0.4-1.1,1.2-1.5,2-0.1C136.1,151,134.9,152,134.2,153.1z"/>
	<path class="st4" d="M101.2,152.3c0-1.3-0.1-2.7,1.1-3.8c0.7,1.5,0.3,3,0.2,4.4c-0.1,0.8-0.4,1.2-1.2,0.5
		C101.2,153.1,101.2,152.7,101.2,152.3z"/>
	<path class="st3" d="M97.8,124c1.4-0.7,3-0.8,4.3-1.7c0.3,0.6,1,0.2,1.5,0.8C101.7,124,99.8,124.1,97.8,124z"/>
	<path class="st3" d="M142.6,108.4c-0.1,0.1-0.1,0.1-0.2,0.2c0,0,0-0.1,0-0.1C142.5,108.5,142.6,108.5,142.6,108.4
		C142.6,108.4,142.6,108.4,142.6,108.4z"/>
	<path class="st5" d="M116.9,151.5c0.5-0.4,1-0.8,1.4-1.2c0.6-0.5,1.2-1.2,2-0.7c0.8,0.5,0.3,1.2,0.1,1.9c-0.1,0.2,0,0.4,0,0.6
		c0.8-0.1,1-0.7,1.5-1.1c0.6-0.5,1.1-1,1.8-0.4c0.7,0.6,0.2,1.2-0.2,1.7c-1.5,1.6-3,3-5.2,3.5l-0.1-0.1c0-0.1,0.1-0.3,0.1-0.4
		c0.2-0.8,1.8-1.4,0.9-2.2c-0.6-0.6-1.2,0.8-1.9,1.2c-1.2,0.6-2,1.8-3.5,2.2c0.1-2,2.5-2.6,2.3-4.5l0,0
		C116.4,151.9,116.7,151.9,116.9,151.5L116.9,151.5z"/>
	<path class="st5" d="M116,151.9c-1.8,1.4-3.4,3.2-6.2,4.3c2-3,3.9-5.2,6-7.3c0.3-0.3,0.7-0.5,1.1-0.2c0.4,0.3,0.3,0.7,0.2,1.2
		c-0.1,0.5-0.2,1.1-0.4,1.6c0,0,0,0,0,0C116.5,151.5,116.2,151.6,116,151.9L116,151.9z"/>
	<path class="st5" d="M113.5,142.6c0.8-2.7,2.8-4.3,4.9-6c0.4-0.3,0.9-0.5,1.3,0c0.3,0.4,0.2,1-0.1,1.4
		C117.8,139.9,116.1,141.9,113.5,142.6L113.5,142.6z"/>
	<path class="st5" d="M120.7,143.9c0.8-2.1,2.4-3.5,3.8-5.2c0.5-0.6,1.5-1.2,2.2-0.4c0.8,0.8-0.1,1.6-0.7,2.1
		C124.5,141.9,122.9,143.4,120.7,143.9L120.7,143.9z"/>
	<path class="st5" d="M116.8,143.7c0.8-2.4,2.4-4.1,4.1-5.7c0.5-0.5,1.1-0.7,1.7-0.2c0.5,0.5,0,1.1-0.3,1.5
		C120.9,141.3,118.6,142.2,116.8,143.7z"/>
	<path class="st4" d="M110.9,129.9c-0.4,2.3-1.3,4.1-2.4,5.7c-0.3,0.4-0.6,0.9-1.2,0.6c-0.5-0.3-0.4-0.8-0.3-1.3
		C107.6,132.7,108.8,131.1,110.9,129.9z"/>
	<path class="st4" d="M125.8,121.7c-1.8,1-3.4,1.2-5.1,1.1c-0.7-0.1-1.6,0.1-1.6-0.9c0-1,0.8-1.2,1.6-1.3
		C122.4,120.5,124,121.1,125.8,121.7z"/>
	<path class="st4" d="M130.9,159.3c-0.1-1.7-0.3-3,0.4-4.1c0.3-0.4,0.6-0.8,1.2-0.6c0.6,0.2,0.9,0.6,0.9,1.3
		C133.3,157.4,132.4,158.3,130.9,159.3z"/>
	<path class="st4" d="M116.4,123.6c-0.3,1.6-1.3,2.7-2.3,3.8c-0.3,0.3-0.7,0.6-1.1,0.3c-0.5-0.3-0.4-0.9-0.2-1.3
		C113.5,124.9,114.8,124,116.4,123.6L116.4,123.6z"/>
	<path class="st5" d="M113.5,142.7c-0.2,0.1-0.3,0.2-0.5,0.3c0,0-0.1-0.1-0.1-0.1C113.1,142.7,113.3,142.7,113.5,142.7
		C113.5,142.6,113.5,142.7,113.5,142.7z"/>
	<path class="st5" d="M118.2,155.8c-0.2,0.1-0.3,0.3-0.5,0.4l0,0C117.8,156,118,155.8,118.2,155.8
		C118.1,155.7,118.2,155.8,118.2,155.8z"/>
	<path class="st5" d="M117.7,156.1c-0.1,0.1-0.1,0.1-0.2,0.2c0,0,0-0.1,0-0.1C117.6,156.2,117.7,156.2,117.7,156.1
		C117.7,156.1,117.7,156.1,117.7,156.1z"/>
	<path class="st5" d="M120.7,143.9c-0.1,0.1-0.1,0.1-0.2,0.2C120.6,144,120.6,144,120.7,143.9C120.7,143.9,120.7,143.9,120.7,143.9z
		"/>
	<path class="st4" d="M116.5,123.6c0,0,0.1-0.1,0.1-0.1c0,0,0.1,0,0.1,0C116.6,123.5,116.5,123.6,116.5,123.6
		C116.4,123.6,116.5,123.6,116.5,123.6z"/>
	<path class="st2" d="M145.2,108c0.1-0.1,0.1-0.1,0.2-0.2c0,0,0,0.1,0,0.1C145.3,108,145.2,108,145.2,108
		C145.2,108,145.2,108,145.2,108z"/>
	<path class="st3" d="M80.1,149.8c0-0.4,0.1-1.2,0.2-1.2c0.9-0.1,1.3,0.8,2,1.2c-0.1,1.3,0.2,2.6,0.5,4.1
		C81,152.8,81.3,150.8,80.1,149.8z"/>
	<path class="st0" d="M78.5,141.4c0.2,0.9-0.5,1.4-0.8,2.1c0,0.1,0,0.3,0,0.4c0,0,0,0,0,0c-0.7,0.3-1.1,1.2-1.9,1.3
		c0.1-0.1,0.1-0.2,0.1-0.4C76.9,143.8,77.2,142.2,78.5,141.4z"/>
	<path class="st2" d="M143.5,117.3c0.2-0.1,0.3-0.2,0.5-0.4C143.8,117,143.6,117.2,143.5,117.3z"/>
	<path class="st1" d="M87.9,30.6c-0.1,0-0.1,0-0.2,0.1c0-0.1,0-0.1,0-0.2c0.1,0,0.1,0,0.2,0C87.9,30.5,87.9,30.5,87.9,30.6z"/>
	<path class="st1" d="M82.3,31.4c0,0,0.1,0,0.1,0C82.4,31.4,82.4,31.5,82.3,31.4c0,0.1,0,0.1-0.1,0.2C82.3,31.5,82.3,31.5,82.3,31.4
		z"/>
	<path class="st2" d="M77.6,143.9c0-0.1,0-0.3,0-0.4C78,143.6,78,143.8,77.6,143.9z"/>
	<path class="st6" d="M100.2,72.2c-0.7-1.4-1.3-2.5-2.1-3.9c1.2,0.2,2.6-0.9,2.9-0.2C101.5,69.3,100.7,70.7,100.2,72.2z"/>
	<path class="st6" d="M117.6,64.3c-2.8-2.2-2.8-2.4-0.5-3.6C117.3,61.8,117.8,63,117.6,64.3z"/>
	<path class="st1" d="M73.4,48.1c-0.2,0-0.4-0.1-0.4-0.4C73.2,47.7,73.4,47.7,73.4,48.1z"/>
	<path class="st1" d="M73.4,50.2c-0.4,0-0.7-0.1-0.9-0.4C72.9,49.7,73.3,49.7,73.4,50.2z"/>
	<path class="st1" d="M72.6,49.7c-0.2,0-0.4-0.2-0.4-0.4C72.4,49.3,72.6,49.4,72.6,49.7z"/>
	<path class="st3" d="M116,151.9c0.2-0.3,0.5-0.5,0.9-0.4C116.7,151.9,116.4,151.9,116,151.9z"/>
</g>
</svg>
