<?xml version="1.0" encoding="utf-8"?>
<!-- Generator: Adobe Illustrator 27.8.1, SVG Export Plug-In . SVG Version: 6.00 Build 0)  -->
<svg version="1.1" id="Layer_1" xmlns="http://www.w3.org/2000/svg" xmlns:xlink="http://www.w3.org/1999/xlink" x="0px" y="0px"
	 viewBox="0 0 200 200" style="enable-background:new 0 0 200 200;" xml:space="preserve">
<style type="text/css">
	.st0{fill:#8C3E82;}
	.st1{fill:#F48020;}
	.st2{fill:#F5E2B7;}
	.st3{fill:#F37D6E;}
	.st4{fill:#F8E7B0;}
	.st5{fill:#A676A5;}
	.st6{fill:#FAA919;}
	.st7{fill:#F8E7B6;}
	.st8{fill:#C5E1AF;}
	.st9{fill:#F48220;}
	.st10{fill:#8B3982;}
</style>
<g>
	<path class="st0" d="M138.1,51.6c0.2,0.2,0.4,0.4,0.7,0.5c1.1,0.5,2.3,1,3.5,1.4c1.3,0.5,2.5,1.3,3.4,2.4c0.9,1,1.5,2.3,1.3,3.7
		c-0.1,0.6,0,1,0.3,1.5c1.3,2.2,2.4,4.5,3.4,6.8c0.1,0.2,0.2,0.3,0.3,0.5c2.3-1.3,4.8-1.1,7.2-0.8c1.8,0.2,3,1.6,3.3,3.5
		c0.2,1.6,0.1,3.2-0.1,4.7c-0.1,0.5-0.1,0.9-0.2,1.5c0.4,0.3,0.8,0.5,1.1,0.7c2.8,1.8,4.3,4.3,4.7,7.6c0.2,1.8,0.3,3.5,0.3,5.3
		c0,4.6-1,9.1-2.8,13.3c-0.9,2.1-2.3,4-3.9,5.7c-4,4-8.7,7-14.1,8.7c-0.5,0.2-1,0.3-1.5,0.5c-0.1,0-0.1,0.1-0.2,0.2
		c0.9,1.8,1.9,3.5,2.8,5.3c1.5,2.8,3,5.6,4.5,8.4c1,1.8,2.1,3.6,3,5.4c0.9,1.6,1.7,3.2,2.4,4.9c1.8,4.1,3.5,8.2,5.3,12.3
		c1.2,3,2.1,6.1,2.6,9.3c0.4,2.8,0.2,5.6-0.6,8.3c-1.2,3.7-3.8,6.3-7.2,8.1c-2.6,1.4-5.3,2.1-8.2,2.7c-2.3,0.5-4.5,0.9-6.8,1
		c-1,0.1-1.9,0.1-2.9,0c-2.8-0.1-5.5-0.5-8.3-1c-1.7-0.3-3.5-0.6-5.3-0.8c-2.9-0.3-5.7-0.9-8.4-1.8c-4.2-1.3-8.3-2.8-12.4-4.3
		c-2.2-0.8-4.3-1.6-6.6-2c-0.9-0.2-1.9-0.4-2.8-0.7c-0.7-0.2-1.4-0.2-2.1,0.1c-3.6,1.4-7.2,2.9-10.7,4.7c-1.5,0.7-2.9,1.5-4.4,2.2
		c-5.3,2.5-10.9,3.6-16.8,3c-3.3-0.3-6.6-0.9-9.8-1.9c-1.7-0.5-3.3-0.9-5-1.3c-2.3-0.5-4.4-1.3-6.4-2.6c-4.3-3-6.8-7.1-7.7-12.2
		c-0.2-1.3-0.3-2.6-0.3-3.9c-0.1-6.1,0.3-12.2,1.4-18.2c0.4-2.3,0.8-4.5,1.2-6.8c0.2-0.9,0.5-1.9,0.8-2.8c0.2-0.5,0.2-1,0-1.5
		c-1.6-4.3-1.2-8.5,0.4-12.7c1.3-3.1,3-5.9,5.3-8.3c0.5-0.5,0.7-1,0.9-1.6c0.2-0.7,0.4-1.4,0.7-2c1.7-4.1,3.4-8.3,5.1-12.4
		c0.1-0.2,0.1-0.4,0.1-0.6c0.1-0.2,0.1-0.4,0.2-0.6l0-0.1l0.1,0l0-0.1c0.1,0,0.1-0.1,0.1-0.2c0.2-0.4,0.5-0.7,0.6-1.1
		c0.8-1.9,1.6-3.8,2.4-5.7c0.1-0.2,0.2-0.4,0.3-0.6c0.9-2,1.8-3.9,2.7-5.9c2.6-5.7,5.3-11.2,8.7-16.4c2.4-3.7,4.7-7.3,7.8-10.5
		c1.9-2,3.9-3.9,6.1-5.5c3.2-2.3,6.8-3.7,10.7-4.6c1.8-0.4,3.6-0.6,5.4-0.6c2.1,0,4.1,0.2,6.2,0.5c2.8,0.4,5.5,0.9,8.1,1.9
		c3.8,1.4,7.5,2.9,11.1,4.7c0.3,0.2,0.7,0.3,1,0.5c0.6,0.3,1.2,0.7,1.9,1c2.4,1.2,4.7,2.6,6.8,4.3c0.7,0.5,1.4,1,2.1,1.5
		c0.2,0.1,0.4,0.2,0.7,0.3c0.6-2.1,1.3-4.1,1.9-6.1c0.1-0.4,0.2-0.8,0.3-1.3c0.2-0.8,0.7-1.1,1.5-1c0.4,0.1,0.8,0.2,1.2,0.4
		C137.1,50.9,137.6,51.3,138.1,51.6 M160.5,155.8c-0.2-0.3-0.3-0.6-0.5-0.9c-0.1-0.4-0.2-0.7-0.3-1.1c-0.4-1-0.9-2-1.4-3
		c-0.5-1-1-2.1-1.5-3.1c-0.2-1-0.5-2-1.2-2.8c-0.1-0.7-0.4-1.3-0.9-1.8c-0.1-0.3-0.1-0.7-0.2-0.9c-1-1.8-1.9-3.7-2.9-5.5
		c-0.2-0.4-0.5-0.6-0.8-1c-0.3-0.6-0.5-1.2-0.8-1.8c-1.1-2.1-2.2-4.3-3.3-6.4c-0.4-0.7-0.7-1.5-1.1-2.2c-0.9-1.8-1.7-3.6-2.6-5.5
		c-0.4,0-0.6,0.1-0.9,0.1c-1.5,0.3-3.1,0.7-4.7,0.7c-0.7,0-1.3,0.2-2,0.2c-0.7,0-1.4,0.1-2,0c-0.8-0.2-1.6-0.2-2.4-0.2
		c-0.5,0-1.1,0-1.6-0.1c-1.1-0.1-2.2-0.4-3.3-0.5c-2.3-0.2-4.4-0.9-6.6-1.4c-2.1-0.5-4.1-1.1-6.1-1.7c-3.2-1-6.3-1.9-9.6-2.6
		c-2.1-0.5-4.1-1-6.2-1c-0.5,0-0.9-0.2-1.4-0.4c0.7-0.4,1.3-0.5,2-0.5c2.7,0.1,5.5-0.2,8.2,0.3c1,0.2,2,0.3,3,0.5
		c2.6,0.7,5.1,1.5,7.7,2.2c1.8,0.5,3.6,0.9,5.4,1.3c0.2,0.1,0.4,0.2,0.7,0.3c2.5,0.6,5,0.9,7.5,1.1c2.2,0.1,4.4,0.2,6.6,0
		c4.6-0.5,9-1.9,13.2-4c3-1.5,5.6-3.5,8-5.9c2-2,3.5-4.3,4.3-7.1c0.4-1.4,0.9-2.9,1.2-4.3c0.6-2.5,0.9-5.1,0.6-7.7
		c-0.1-0.7-0.2-1.4-0.2-2.1c0-1.4-0.4-2.7-1-4c-0.9-1.9-2.5-3.1-4.5-3.8c-0.4-0.1-0.8-0.2-1.3-0.3c-2.7-0.1-5.2,0.6-7.5,2
		c-2.7,1.7-5.4,3.4-8.3,4.9c-0.5,0.2-1,0.4-1.5,0.6c-1,0.4-2,0.7-3,1c-0.5,0.2-0.9,0.3-1.4,0.4c-1.5,0.4-3.1,0.7-4.6,1
		c-1.3,0.2-2.6,0.5-4,0.5c-0.2,0-0.5,0-0.7,0c-0.9,0.3-1.9,0.2-2.9,0.2c-1.3,0-2.7,0-4,0c-1.3,0-2.5-0.2-3.7-0.5
		c-2.1-0.4-4.2-1.2-6.2-2c-1-0.4-1.9-0.9-2.9-1.3c-0.3-0.2-0.7-0.3-0.7-0.9c0.3,0,0.6,0,0.9,0.1c1.3,0.2,2.5,0.5,3.8,0.8
		c1.3,0.2,2.6,0.4,4,0.7c1.2,0.2,2.3,0.5,3.6,0.5c0.2,0,0.5,0,0.7,0.1c1.5,0.4,3,0.3,4.4,0.1c0.9-0.1,1.8-0.2,2.7-0.2
		c0.4,0,0.9,0,1.3-0.1c1.2-0.2,2.5-0.3,3.7-0.5c2-0.3,4-0.8,6-1.5c0.2-0.1,0.3-0.2,0.5-0.4c-0.4-0.4-0.9-0.6-1.1-1
		c-0.8-1.2-2-2.1-2.9-3.2c-0.4-0.4-0.8-0.9-1.1-1.4c-0.6-0.9-0.4-1.9,0.3-2.6c0.2-0.2,0.5-0.5,0.8-0.6c1.1-0.7,2.2-1.4,3.3-2.1
		c0.7-0.4,1.4-0.7,2.1-0.9c2.2-0.7,4.2-0.1,5.2,1.8c0.3,0.6,0.7,1.2,1,1.8c0.5,0.9,0.9,1.8,1.4,2.7c0.2,0.4,0.6,0.6,1,0.4
		c1.1-0.6,2.3-1.2,3.3-1.8c0.2-0.6,0-1-0.1-1.5c-0.4-1.3-0.8-2.6-1.2-3.9c-0.8-3.3-2.3-6.3-3.9-9.3c-0.1-0.2-0.3-0.3-0.5-0.5
		c-0.2,0.2-0.4,0.3-0.6,0.5c-1.4,1.1-2.9,1.3-4.5,0.8c-2.1-0.6-3.3-2.1-4-4c-0.6-1.8-0.4-3.5,0.9-5c0,0,0.1-0.1,0.1-0.1
		c0.1-0.2,0.2-0.4,0.4-0.6c-0.4-0.3-0.8-0.6-1.2-0.9c-0.4-0.3-0.6-0.8-1.2-0.9c-1,2.8-1.7,5.6-3,8.2c-0.6,0.2-1,0.1-1.5-0.2
		c-0.6-0.4-1.2-0.7-1.8-1.1c-1.8-1.2-3.6-2.5-5.5-3.5c-3.3-1.8-6.7-3.4-10.1-4.9c-0.3-0.1-0.6-0.2-0.9-0.3c-2.4-0.9-4.7-1.9-7.2-2.6
		c-2.9-0.8-5.8-1.2-8.8-1.5c-3.1-0.3-6.2-0.2-9.3,0.7c-3.3,0.9-6.4,2.2-9.1,4.3c-3.1,2.4-5.8,5.2-8.1,8.3c-2.9,3.9-5.5,8.1-7.9,12.4
		c-0.3,0.5-0.5,1-0.7,1.6c-0.1,0.1-0.2,0.1-0.2,0.2c-1,2-2,4-3,6c-0.1,0.2-0.1,0.4-0.1,0.5c-0.1,0.1-0.3,0.3-0.4,0.4
		c-0.6,1.4-1.1,2.7-1.7,4.1c-1.3,3.1-2.7,6.1-4,9.2c-1,2.2-1.9,4.5-2.8,6.7c-0.7,1.7-1.4,3.3-2,5.1c-0.3,0.7-0.8,1.3-0.7,2.2
		c-0.1,0.1-0.2,0.1-0.2,0.2c0,0.1,0.1,0.1,0.1,0.2c0,0,0.1-0.1,0.1-0.1c0-0.1,0-0.2,0-0.3c0.4,0,0.7-0.3,1-0.6
		c1.2-1.1,2.3-2.3,3.1-3.7c0.6-0.9,1.3-1.8,1.7-2.8c0.9-2.3,1.7-4.7,1.7-7.2c0-0.6,0.2-1.2,0.3-1.8c0.1-0.4,0.4-0.6,0.7-0.5
		c0.3,0.1,0.6,0.3,0.6,0.7c0,0.2,0,0.5,0,0.7c0,0.8,0,1.6,0,2.4c0.1,2.6-0.6,4.9-1.7,7.2c-1,2.1-2.2,4-3.9,5.6
		c-0.2,0.2-0.3,0.4-0.4,0.6c0,0.1,0,0.2,0,0.3l0,0c-0.4,0-0.6,0.3-0.8,0.5c-0.8,0.7-1.6,1.4-2.4,2c-1.3,1-2.5,2.1-3.6,3.3
		c-2.4,2.7-4.1,5.9-5.1,9.4c-0.5,2-0.6,4-0.3,6c0.4,2.8,1.9,5.1,3.9,7.1c0.8,0.7,1.6,1.4,2.6,1.7l0,0c0.2,0.1,0.4,0.2,0.6,0.4
		c0.6,0.6,1.4,0.7,2.3,0.8c2.3,0.2,4.4-0.5,6.2-1.8c0.5-0.3,0.9-0.7,1.2-1.2c1.2-1.6,2.1-3.3,2.7-5.2c0.8-2.4,1.3-4.9,1.8-7.4
		c0.7-3.6,1.4-7.2,2.5-10.8c0.9-2.8,2.1-5.5,3.9-7.8c1.2-1.5,2.6-2.5,4.3-3.2c0.8-0.3,1.7-0.5,2.5-0.4c0.2,0,0.3,0.1,0.5,0.2
		c-0.1,0.2-0.1,0.4-0.2,0.5c-0.7,0.7-1.4,1.4-2.3,1.9c-1.1,0.6-2.3,1.3-3.1,2.4c-0.6,0.9-1.2,1.8-1.7,2.7c-1.3,2.3-2.1,4.8-2.6,7.4
		c-0.4,2.3-0.9,4.5-1.4,6.7c-0.4,1.9-0.8,3.8-1.2,5.7c-0.6,2.6-1.6,5.1-3.1,7.4c-0.8,1.3-1.8,2.3-3,3.2c-1.9,1.3-4,2-6.3,2
		c-1.4,0-2.7-0.3-4-0.9c-2.2-1.1-4-2.6-5.6-4.5c-0.1-0.1-0.2-0.3-0.5-0.2c-0.2,1.3-0.5,2.7-0.7,4.1c-0.2,1.1-0.3,2.2-0.5,3.3
		c-0.1,0.9-0.2,1.9-0.3,2.8c-0.1,0.6-0.2,1.3-0.3,1.9c-0.2,1.9-0.5,3.8-0.6,5.7c-0.1,3.3-0.2,6.5,0,9.8c0.1,3.3,1.1,6.3,3.1,9
		c2,2.7,4.7,4.6,7.8,5.6c2.5,0.8,5.2,1.4,7.8,2c0.5,0.1,1.1,0.1,1.7,0.2l0,0c0.2,0.1,0.3,0.2,0.5,0.3c0.2,0.1,0.5,0,0.7,0.1
		c0.2,0.1,0.4,0.2,0.6,0.3c0.4,0.1,0.9,0,1.3,0.1c1.4,0.2,2.7,0.5,4.1,0.5c0.8,0,1.5,0.3,2.3,0.2c0.8-0.1,1.6-0.3,2.4-0.2
		c0.4,0,0.8,0,1.1-0.1c1.5-0.3,3.1-0.7,4.6-1.1c0.5-0.1,0.9-0.3,1.3-0.6c1.1-0.9,2.2-1.8,3.3-2.7c1.2-1.1,2.1-2.4,2.8-3.8
		c1.1-2.1,2.1-4.2,3-6.4c0.7-1.6,1.4-3.2,1.9-4.8c0.8-2.3,1.3-4.6,1.9-6.9c0.6-2.7,1.4-5.5,2.1-8.2c0.9-3.3,2.1-6.5,3.9-9.4
		c1.2-1.9,2.3-3.8,4-5.2c0.3-0.3,0.6-0.6,0.9-0.9c1.6-1.6,3.5-2.6,5.7-3.3c0.6-0.2,1.3-0.4,2-0.4c2.4-0.2,4.7,0.1,7,0.7
		c1.9,0.5,3.7,1.1,5.5,1.6c0.7,0.2,1.5,0.5,2.2,0.5c2,0.1,4,0,6-0.5c2.4-0.6,4.8-0.6,7.2,0.5c1.8,0.8,3.4,1.6,4.8,3
		c1.6,1.6,2.8,3.4,3.9,5.3c1.4,2.5,2.4,5.3,3.2,8c0.7,2.3,1.3,4.7,1.9,7.1c1.1,4.2,2.1,8.4,2.6,12.8c0.1,0.8,0.2,1.5,0.3,2.3
		c0.2,1.4,0.5,2.8,0.5,4.3c0,0.4,0,0.8,0.1,1.2c0,1-0.1,2-0.1,3c0,1-0.3,2,0.2,3c1.7-0.5,3.3-0.9,4.7-1.8c2.7-1.1,4.8-3,6.1-5.6
		c1.1-2.2,1.4-4.6,1.3-7C163.1,163,162,159.3,160.5,155.8 M91.1,151.4c-0.5,2.2-1.1,4.5-1.6,6.7c-0.1,0.3-0.3,0.6-0.3,0.9
		c-0.8,3.3-1.9,6.5-3.4,9.6c-1.3,2.8-2.5,5.6-4.2,8.2c-0.1,0.1-0.1,0.4-0.1,0.5c0,0-0.1,0-0.1,0c0,0,0,0.1,0,0.1
		c0,0,0.1-0.1,0.2-0.1c0.3-0.1,0.6-0.1,0.8-0.2c2.1-0.9,4.1-1.9,6.2-2.8c2.8-1.2,5.6-2.3,8.5-3.1c2.5-0.7,5-1.2,7.7-1.1
		c1.8,0.1,3.6,0.4,5.4,0.7c1.8,0.3,3.7,0.7,5.5,1c0,0.1,0.1,0.3,0.1,0.4c-0.1,0-0.3-0.1-0.4-0.1c-3.6,0-7.2,0-10.8,0
		c-1.5,0-3,0.2-4.5,0.6c-0.6,0.1-0.6,0.1-0.9,0.5c0.4,0,0.8,0,1.2,0.1c1.8,0.5,3.6,1,5.4,1.6c4.2,1.4,8.4,2.8,12.6,4.2
		c2.7,0.9,5.5,1.5,8.3,1.8c1.7,0.2,3.4,0.5,5.1,0.8c2,0.3,4.1,0.7,6.1,0.9c3.4,0.3,6.8,0.1,10.2-0.6c0.5-0.1,1-0.1,1.5-0.5
		c-0.1-2-0.2-3.9-0.3-5.9c0-0.3,0-0.6,0-0.8c-0.2-1.7-0.5-3.4-0.7-5c-0.1-0.6-0.3-1.3-0.4-1.9c-0.1-0.6-0.1-1.2-0.2-1.9
		c-0.5-3-1.1-5.9-1.9-8.8c-0.7-2.5-1.4-5.1-2.1-7.6c-0.5-2.1-1.2-4.1-2.2-6.1c-1.1-3-2.8-5.6-5-7.8c-1.4-1.3-3.2-2-4.8-2.5
		c-0.8,0.2-1.5,0.4-2.2,0.5c-2.4,0.4-4.9,0.3-7.3,0.2c-0.2,0-0.5-0.1-0.7-0.1c-2.5-0.3-5-1-7.4-1.8c-1.5-0.5-2.9-0.9-4.5-1.1
		c-3.2-0.5-6.1,0.3-8.7,2.3c-1.8,1.4-3.2,3-4.4,4.9C93.8,142.1,92.2,146.6,91.1,151.4 M134.5,78.2c0.5,0.5,0.9,0.9,1.2,1.2
		c0.7,0.7,1.4,1.5,2.1,2.1c0.8,0.7,1.2,1.6,1.8,2.5c1.5-0.6,2.9-1.5,4.4-2.3c0.5-0.2,1-0.4,1.3-0.9c-0.1-0.2-0.2-0.5-0.3-0.7
		c-0.6-1.1-1.2-2.3-1.8-3.4c-0.2-0.4-0.4-0.8-0.7-1.1c-0.8-1-1.4-1.2-2.6-0.7C138.1,75.9,136.4,77,134.5,78.2 M152.9,70.1
		c-0.5,1.2,0.4,3,1.3,6.7c0.5,0,1-0.1,1.5-0.1c0.6,0,1.2,0,1.7,0c0.5,0,1,0,1.6,0c0.1-0.2,0.2-0.3,0.2-0.4c0.3-1.5,0.2-3,0.1-4.6
		c0-0.1-0.1-0.3-0.1-0.4c-0.3-1.1-0.7-1.4-1.8-1.5c-1.1-0.1-2.1,0-3.2,0C153.8,69.8,153.3,69.8,152.9,70.1 M139.7,58.1
		c0.2-0.2,0.5-0.3,0.6-0.6c0.3-0.6-0.1-1.5-0.7-1.8c-0.1-0.1-0.3,0-0.4,0c-0.6,0.5-0.8,1.5-0.2,2C139.2,57.9,139.4,58,139.7,58.1"/>
	<path class="st1" d="M52,88c-0.8,1.9-1.6,3.8-2.4,5.7c-0.2,0.4-0.4,0.7-0.6,1.1c0-0.1-0.1-0.2-0.2-0.4c0.4-2.2,0.8-4.5,1.1-6.7
		c0.6-4.8,0.5-9.7-0.6-14.5c-0.3-1.4-0.6-2.7-0.9-4.1c-0.1-0.4-0.2-0.9-0.2-1.3c0-1.1,0.7-1.7,1.8-1.4c0.3,0.1,0.6,0.2,1,0.3
		c0.6,0.1,1.1,0.3,1.7,0.4c1.7,0.3,3-0.3,3.9-1.7c0.8-1.2,1-2.5,1.1-3.8c0.2-2.1-0.2-4.2-0.8-6.3c-0.5-1.8-1-3.7-1.8-5.5
		c-0.3-0.6,0.2-1.2,0.9-1.1c0.3,0,0.6,0.1,0.8,0.2c0.6,0.3,1.1,0.5,1.7,0.8c1.2,0.6,2.4,0.9,3.7,1.2c1.7,0.3,3.2-0.1,4.6-1.1
		c0.5-0.4,0.9-0.8,1.1-1.4c1.6-4.1,3.9-7.9,6.5-11.5c0.9-1.2,1.8-2.3,2.8-3.3c2.7-2.9,5.3-5.9,8.3-8.5c6.5-5.7,13.8-10.1,22.2-12.5
		c2.4-0.7,4.9-1.3,7.4-1.7c1.1-0.2,2.2-0.2,3.2,0.5c0,0.3,0.1,0.6,0.1,0.9c-0.3,0.2-0.5,0.5-0.8,0.7c-2.7,1.9-5.2,4-7.6,6.2
		c-3.3,3.1-5.9,6.7-7.7,10.9c-0.3,0.3-0.4,0.5-0.3,0.9c0,0-0.1,0-0.1,0c0,0,0,0.1,0,0.1c0,0,0.1-0.1,0.1-0.1
		c0.4-0.1,0.7-0.4,0.9-0.8c1.8-1.5,3.6-3,5.5-4.5c5.2-3.9,10.9-6.9,17-9c2.3-0.8,4.7-1.3,7.2-1.5c2.2-0.2,4.4,0,6.6,0.5
		c1.9,0.4,3.8,1,5.6,1.8c1,0.4,2,0.9,2.7,1.8c0,0.7-0.5,1.1-0.9,1.6c-1.8,2-3.3,4.2-4.6,6.6c-2.1,3.7-3.4,7.7-4.4,11.8
		c-0.7,2.9-1,5.8-0.6,8.7c0.1,0.6,0.2,1.2,0.4,1.8c0.2,0.6,0.4,1.3,0.6,1.9c-0.5-0.3-1-0.7-1.6-1c-0.4-0.2-0.8-0.4-1.2-0.4
		c-0.8-0.1-1.3,0.2-1.5,1c-0.1,0.4-0.2,0.8-0.3,1.3c-0.6,2-1.2,4-1.9,6.1c-0.3-0.1-0.5-0.2-0.7-0.3c-0.7-0.5-1.4-1-2.1-1.5
		c-2.1-1.7-4.4-3.1-6.8-4.3c-0.6-0.3-1.3-0.7-1.9-1c0.2-0.1,0.2-0.3,0.1-0.5c-0.9-1.9-1.3-4-1.2-6.1c0-0.5,0-1,0-1.4
		c-0.1-1.7,0.3-3.4,0.6-5.1c0.4-2.2,1.1-4.3,1.9-6.3c1.3-3.1,3.1-6,5.4-8.5c1.8-2,3.6-4,5.8-5.6c0.2-0.2,0.6-0.3,0.4-0.8
		c-0.9-0.1-1.8,0.3-2.7,0.4c-2.4,0.5-4.7,1.3-7,2.2c-1.8,0.7-3.6,1.5-5.4,2.4c-2.6,1.4-5.2,2.9-7.6,4.7c-1.8,1.4-3.6,2.7-5.3,4.2
		c-1.2,1-2.2,2.1-3.4,3.1c-0.9,0.8-1.9,1.5-2.8,2.2c-0.1,0.1-0.3,0.1-0.6,0.1c0.1-0.9,0.2-1.6,0.2-2.4c0-0.1,0.1-0.3,0.1-0.4
		c0.3-1.6,0.9-3,1.5-4.5c1-2.2,2.2-4.3,3.5-6.3c1.2-1.7,2.7-3.1,4-4.7c0.2-0.3,0.6-0.5,0.9-0.8c0.3-0.2,0.5-0.4,0.8-0.6
		c1.1-1.1,2.4-2.1,3.6-3.1c0.2-0.1,0.4-0.3,0.3-0.6c-0.1,0-0.2-0.1-0.3,0c-3.1,0.8-6.1,1.7-9,2.9c-3.1,1.2-6.1,2.8-8.9,4.6
		c-2,1.3-3.9,2.6-5.7,4.1c-1.4,1.2-2.9,2.4-4.2,3.7c-0.8,0.8-1.6,1.6-2.3,2.4c-1.2,1.3-2.4,2.5-3.5,3.8c-1.4,1.7-2.6,3.4-3.9,5.2
		c-1.9,2.7-3.3,5.6-4.9,8.4c-0.3,0.5-0.4,1-0.6,1.5c-0.4,1-0.7,2-1,3c-0.4,1.2-1,2.3-1.7,3.3c-0.1,0.1-0.2,0.3-0.5,0.2
		c-0.3-1.2,0.2-2.5-0.3-3.8c-1,0.2-1.9,0.7-2.9,0.6c-0.9,0-1.8,0-2.7-0.3c-0.9-0.3-1.8-0.5-2.7-0.7c-0.1,0.1-0.1,0.1-0.1,0.1
		c0.1,0.3,0.1,0.6,0.2,0.8c0.8,2.6,1.4,5.2,1.2,7.9c0,0.3,0,0.7,0,1c0,2.1-0.7,4-2,5.6c-0.7,0.9-1.7,1.6-2.9,1.7
		c-1.1,0.1-2.3,0.2-3.4-0.2c-0.1,0-0.3,0-0.6,0.1c0.3,1.8,0.6,3.4,0.9,5.1c0.3,1.5,0.6,3,0.5,4.5c0,0.8,0,1.5,0.2,2.3
		c0.1,0.3,0.1,0.8,0,1.1c-0.3,0.8-0.2,1.5-0.2,2.3c0,0.8,0,1.6-0.2,2.4C51.7,87.3,51.7,87.7,52,88"/>
	<path class="st2" d="M102.3,30.9c-0.1-0.4,0-0.7,0.3-0.9c0.2,0,0.4,0.1,0.6,0.1C103,30.4,102.7,30.7,102.3,30.9L102.3,30.9z"/>
	<path class="st3" d="M118.6,12.2c0-0.3-0.1-0.6-0.1-0.9C118.9,11.7,118.9,11.7,118.6,12.2"/>
	<path class="st2" d="M48.8,95.2c-0.1,0.2-0.1,0.4-0.2,0.6C48.6,95.6,48.6,95.4,48.8,95.2"/>
	<path class="st4" d="M48.9,94.4c0.1,0.1,0.1,0.2,0.2,0.4c0,0.1-0.1,0.1-0.1,0.2l-0.1,0C48.9,94.7,48.9,94.6,48.9,94.4"/>
	<path class="st2" d="M48.9,94.9L48.9,94.9l0.1,0.1l-0.1,0C48.8,95,48.8,95,48.9,94.9"/>
	<path class="st5" d="M154.8,143.1c0.5,0.5,0.8,1.1,0.9,1.8c-0.1,0-0.2,0.1-0.3,0.1c-0.9,0.5-1.2,1.2-0.8,2.2
		c0.2,0.5,0.7,0.9,1.2,0.9c0.4,0,0.7-0.2,1.1-0.3c0.5,1,1,2.1,1.5,3.1c0.5,1,0.9,2,1.4,3c0.1,0.3,0.2,0.7,0.3,1.1
		c0.1,0.3-0.1,0.7,0.3,0.9c0,0.5,0,1,0,1.4c0.3,1.9,0.5,3.9,0.5,5.8c0,1.3-0.1,2.6-0.2,3.9c-0.1,1.9-0.4,3.7-1,5.5
		c-0.3,1-0.6,2-1.3,2.8c-1.3-1.2-2.8-1.6-4.6-1.3c-1.1,0.2-1.8,0.8-2.7,1.3c0-0.4-0.1-0.8-0.1-1.2c0-1.4-0.3-2.9-0.5-4.3
		c-0.1-0.8-0.3-1.5-0.3-2.3c-0.5-4.3-1.4-8.6-2.6-12.8c-0.6-2.4-1.2-4.7-1.9-7.1c-0.9-2.7-1.8-5.5-3.2-8c-1.1-1.9-2.3-3.8-3.9-5.4
		c-1.4-1.4-3.1-2.3-4.8-3c-2.3-1-4.7-1-7.2-0.5c-2,0.5-4,0.6-6,0.5c-0.8,0-1.5-0.3-2.2-0.5c-1.8-0.5-3.7-1.1-5.5-1.6
		c-2.3-0.6-4.6-0.9-7-0.7c-0.7,0.1-1.3,0.2-2,0.4c-2.1,0.7-4.1,1.7-5.7,3.3c-0.3,0.3-0.6,0.6-0.9,0.9c-1.7,1.5-2.9,3.3-4,5.2
		c-1.8,2.9-3,6.1-3.9,9.4c-0.8,2.7-1.5,5.4-2.1,8.2c-0.5,2.3-1.1,4.7-1.9,6.9c-0.6,1.6-1.2,3.2-1.9,4.8c-1,2.1-2,4.3-3,6.4
		c-0.7,1.4-1.6,2.7-2.8,3.8c-1.1,0.9-2.2,1.9-3.3,2.7c-0.4,0.3-0.8,0.5-1.3,0.6c-1.5,0.4-3.1,0.7-4.6,1.1c-0.4,0.1-0.8,0.1-1.1,0.1
		c-0.8,0-1.6,0.2-2.4,0.2c-0.8,0-1.5-0.2-2.3-0.2c-1.4,0-2.8-0.2-4.1-0.5c-0.4-0.1-0.9-0.1-1.3-0.1c-0.2,0-0.4-0.2-0.6-0.3
		c-0.3-0.3-0.8-0.3-1.2-0.3l0,0c-0.4-0.2-0.9-0.4-1.3-0.6c-2.5-0.9-5-1.9-7.4-3.3c-2.4-1.4-4.3-3.2-5.7-5.6c-1-1.6-1.8-3.3-2.6-5
		c-0.2-0.5-0.5-1-0.3-1.5c0.2,0.1,0.3,0.2,0.5,0.3c0.7,0.8,1.6,0.9,2.6,0.9c1.4-0.1,3.2-2,2.4-3.8c-0.3-0.7-0.7-1.2-1.3-1.6
		c-0.7-0.5-1.6-0.6-2.5-0.6c-1.1,0-1.9,1-2,2.1c0,0.7,0,1.4,0,2.1c-0.4-0.3-0.4-0.8-0.5-1.3c-0.7-3.5-1.3-7-1.2-10.6
		c0-1.3,0-2.7-0.1-4c0.1-0.7,0.2-1.3-0.1-1.9c0.1-0.9,0.2-1.9,0.3-2.8c0.1-1.1,0.3-2.2,0.5-3.3c0.2-1.4,0.5-2.8,0.7-4.1
		c0.3-0.2,0.4,0,0.5,0.2c1.6,1.9,3.4,3.4,5.6,4.5c1.3,0.6,2.6,0.9,4,0.9c2.3,0,4.4-0.6,6.3-2c1.2-0.9,2.2-1.9,3-3.2
		c1.5-2.3,2.4-4.8,3.1-7.4c0.5-1.9,0.8-3.8,1.2-5.7c0.5-2.2,1-4.5,1.4-6.7c0.5-2.6,1.3-5.1,2.6-7.4c0.5-0.9,1.1-1.8,1.7-2.7
		c0.8-1.1,1.9-1.7,3.1-2.4c0.9-0.5,1.6-1.2,2.3-1.9c0.1-0.1,0.1-0.3,0.2-0.5c-0.2-0.1-0.3-0.2-0.5-0.2c-0.9-0.1-1.7,0.1-2.5,0.4
		c-1.7,0.7-3.2,1.7-4.4,3.2c-1.8,2.3-3,5-3.9,7.8c-1.1,3.5-1.8,7.1-2.5,10.8c-0.5,2.5-1,5-1.8,7.4c-0.6,1.9-1.6,3.6-2.7,5.2
		c-0.3,0.5-0.8,0.9-1.2,1.2c-1.8,1.3-3.9,2-6.2,1.8c-0.8-0.1-1.6-0.2-2.3-0.8c-0.1-0.2-0.3-0.4-0.6-0.4l0,0c0-0.6-0.5-0.9-0.9-1.3
		c-2.3-2.4-3.5-5.2-3.2-8.5c0.1-0.7,0.1-1.4,0.3-2.1c0.3-1.6,0.5-3.1,1.2-4.6c0.6-0.2,0.9-0.6,1.2-1.2c0.3-0.6,0.3-1.3,0.3-1.9
		c0.3-0.4,0.5-0.9,0.8-1.3c0.5,0.3,1.1,0.7,1.7,0.5c1.4-0.3,2.4-1.1,3-2.4c0.7-1.6,0.8-3.3,0.2-5c0.2-0.3,0.4-0.6,0.6-1
		c0.2-0.4,0.4-0.8,0.7-1.2l0,0c0,0,0.1-0.1,0.1-0.1c0-0.1,0-0.1-0.1-0.2c0.1-0.2,0.3-0.4,0.4-0.6c1.7-1.6,3-3.5,3.9-5.6
		c1.1-2.3,1.8-4.6,1.7-7.2c0-0.8,0-1.6,0-2.4c0-0.2,0-0.5,0-0.7c-0.1-0.4-0.3-0.7-0.6-0.7c-0.3,0-0.7,0.2-0.7,0.5
		c-0.1,0.6-0.3,1.2-0.3,1.8c0,2.5-0.8,4.9-1.7,7.2c-0.4,1-1.1,1.9-1.7,2.8c-0.9,1.4-1.9,2.6-3.1,3.7c-0.3,0.3-0.5,0.6-1,0.6l0,0
		c0-0.8,0.5-1.5,0.7-2.2c0.6-1.7,1.3-3.4,2-5.1c0.9-2.3,1.8-4.5,2.8-6.7c1.3-3.1,2.7-6.1,4-9.2c0.6-1.4,1.1-2.7,1.7-4.1
		c0.1-0.2,0.2-0.3,0.4-0.4c0.1,0,0.2-0.1,0.2-0.1c1.1-2,2.3-4,3.4-6c0-0.1,0-0.2,0-0.3c1.4-1.9,2.7-3.9,4.2-5.8
		c2.7-3.4,5.4-6.7,8.7-9.5c0.8-0.7,1.7-1.4,2.6-2.1c2.3-1.7,4.8-3.1,7.5-4.3c3.7-1.7,7.6-2.5,11.7-2.8c2.7-0.2,5.4,0.1,8.1,0.3
		c0.1,0,0.2,0,0.3,0c1.8,0.3,3.7,0.7,5.5,1c0.9,0.2,1.7,0.3,2.6,0.4c0.2,0,0.4-0.2,0.6-0.2c3.4,1.5,6.8,3.1,10.1,4.9
		c1.9,1,3.6,2.3,5.4,3.5c0.6,0.4,1.2,0.8,1.8,1.1c0.4,0.2,0.9,0.4,1.5,0.2c1.3-2.5,2-5.4,3-8.2c0.6,0,0.8,0.6,1.2,0.9
		c0.4,0.3,0.7,0.6,1.2,0.9c-0.1,0.2-0.3,0.4-0.4,0.6c0,0-0.1,0.1-0.1,0.1c-1.2,1.5-1.5,3.2-0.9,5c0.7,1.9,2,3.4,4,4
		c1.6,0.5,3.1,0.3,4.5-0.8c0.2-0.1,0.4-0.3,0.6-0.5c0.2,0.2,0.4,0.4,0.5,0.5c1.6,3,3.1,6,3.9,9.3c0.3,1.3,0.7,2.6,1.2,3.9
		c0.1,0.5,0.3,0.9,0.1,1.5c-1.1,0.6-2.2,1.2-3.3,1.8c-0.4,0.2-0.7,0-1-0.4c-0.5-0.9-0.9-1.8-1.4-2.7c-0.3-0.6-0.7-1.2-1-1.8
		c-1-1.9-3-2.5-5.2-1.8c-0.7,0.2-1.4,0.6-2.1,0.9c-1.1,0.6-2.2,1.4-3.3,2.1c-0.3,0.2-0.5,0.4-0.8,0.6c-0.7,0.7-0.9,1.7-0.3,2.6
		c0.3,0.5,0.7,0.9,1.1,1.4c1,1.1,2.1,2,2.9,3.2c0.3,0.4,0.7,0.6,1.1,1c-0.2,0.2-0.3,0.3-0.5,0.4c-1.9,0.7-3.9,1.2-6,1.5
		c-1.2,0.2-2.5,0.4-3.7,0.5c-0.4,0.1-0.9,0-1.3,0c-0.9,0-1.8,0.1-2.7,0.2c-1.5,0.1-3,0.3-4.4-0.1c-0.2-0.1-0.5-0.1-0.7-0.1
		c-1.2,0-2.4-0.3-3.5-0.5c-1.3-0.2-2.6-0.4-4-0.7c-1.3-0.2-2.5-0.5-3.8-0.8c-0.3-0.1-0.6-0.1-0.9-0.1c0,0.5,0.4,0.7,0.7,0.9
		c1,0.4,1.9,0.9,2.9,1.3c2,0.8,4,1.5,6.2,2c1.2,0.2,2.4,0.5,3.7,0.5c1.3,0,2.7,0,4,0c1,0,1.9,0.1,2.9-0.2c0.2-0.1,0.5,0,0.7,0
		c1.4,0,2.7-0.3,4-0.5c1.6-0.2,3.1-0.6,4.6-1c0.5-0.1,0.9-0.2,1.4-0.4c1-0.3,2-0.7,3-1c0.5-0.2,1-0.4,1.5-0.6
		c2.9-1.5,5.6-3.2,8.3-4.9c2.3-1.4,4.8-2.1,7.5-2c0.4,0,0.9,0.1,1.3,0.3c2,0.7,3.5,1.9,4.5,3.8c0.6,1.3,1,2.6,1,4
		c0,0.7,0.1,1.4,0.2,2.1c-0.4,0.3-0.4,0.8-0.6,1.3c-0.5,1.9-1.1,3.8-1.7,5.7c-1.5,4.5-4.2,8.3-7.7,11.5c-2.7,2.3-5.5,4.5-8.7,6.1
		c-1.7,0.9-3.5,1.7-5.3,2.2c-3.3,0.9-6.6,1-10,0.8c-2.3-0.2-4.6-0.2-6.9-0.2c-0.4,0-0.9,0-1.2,0.3c-1.8-0.4-3.6-0.8-5.4-1.3
		c-2.6-0.7-5.1-1.5-7.7-2.2c-1-0.3-2-0.4-3-0.5c-2.7-0.4-5.5-0.2-8.2-0.3c-0.7,0-1.3,0-2,0.5c0.5,0.2,0.9,0.4,1.4,0.4
		c2.1,0,4.2,0.6,6.2,1c3.2,0.7,6.4,1.6,9.5,2.6c2,0.6,4,1.3,6.1,1.7c2.2,0.5,4.3,1.2,6.6,1.4c1.1,0.1,2.2,0.3,3.3,0.5
		c0.5,0.1,1.1,0,1.6,0.1c0.8,0,1.6,0,2.4,0.2c0.6,0.1,1.3,0.1,2,0c0.7,0,1.3-0.2,2-0.2c1.6-0.1,3.1-0.4,4.7-0.7
		c0.3-0.1,0.6-0.1,0.9-0.1c0.9,1.8,1.7,3.7,2.6,5.5c0.3,0.7,0.7,1.5,1.1,2.2c1.1,2.1,2.2,4.3,3.3,6.4c0.3,0.6,0.5,1.2,0.8,1.8
		c-0.8-0.1-1.5,0.1-2.2,0.4c-1.3,0.5-2.8,2.3-2.3,4.3c0.5,2.2,1.7,3.7,3.8,4.6c1.4,0.6,3.4,0.1,4.2-1.2
		C154.4,143.5,154.6,143.3,154.8,143.1 M81.8,111.7c-0.3-0.1-0.6-0.1-1-0.2c-1.3-0.2-2.5-0.3-3.6,0.5c-1.5,1-2.5,2.3-2.3,4.2
		c0.2,1.8,1.2,3.1,2.8,4c0.2,0.1,0.4,0.2,0.7,0.2c0.9,0,1.7,0.1,2.6-0.1c0.2-0.1,0.4-0.1,0.7-0.1c0.3,1.3,0.9,2.3,1.8,3.3
		c1.9,2,5.7,1,6.6-1.4c0.5-1.3,0.5-2.6,0-3.9c-0.1-0.4-0.3-0.8-0.5-1.2c0.2-0.1,0.4-0.1,0.5-0.2c1.4-0.1,2.4-0.8,3.4-1.7
		c2.1-2.1,2.4-5.3,0.9-8c-1-1.7-2.6-3-4.5-3.7c-2.5-1-5.3-0.1-6.9,2.1c-0.9,1.2-1.3,2.6-1.3,4C81.8,110.1,81.8,110.9,81.8,111.7
		L81.8,111.7z M61.3,161.6c0.1-0.9-0.2-1.9-0.7-2.8c-0.1-0.2-0.2-0.4-0.3-0.6c-1.5-2.6-3.7-4.3-6.6-4.8c-0.3-0.1-0.6-0.1-0.9,0
		c-0.7,0.2-1.4,0.2-2.1,0.2c-1.7-0.1-2.8,0.8-3.8,2c-0.6,0.8-0.9,1.7-1.2,2.6c-0.5,1.6-0.5,3.2-0.2,4.7c0.4,2.4,1.5,4.3,3.9,5.4
		c0.8,0.4,1.6,0.6,2.5,0.8c2.4,0.4,4.6,0.1,6.5-1.5C60.2,166,61.4,164.2,61.3,161.6 M109.2,67.5c-0.1,1.4,0.5,2.8,1.7,4
		c1.8,1.7,4,2.4,6.5,2.1c0.6-0.1,1.2-0.3,1.7-0.6c2.3-1.6,3.1-3.9,2.6-6.7c-0.4-2-1.7-3.3-3.3-4.3c-1.3-0.8-2.7-1.1-4.3-1
		c-1.1,0.1-2,0.4-2.7,1.1C109.9,63.4,109.2,65.1,109.2,67.5 M84.7,75.1c0.5-0.1,1-0.1,1.4-0.3C88,74,89,71.9,88.6,70
		c-0.4-2-1.7-3.2-3.7-3.8c-2.1-0.6-4.2,1-4.5,3.1c-0.3,1.8,0.3,3.3,1.5,4.6C82.7,74.7,83.6,75.2,84.7,75.1 M76.7,72
		C76.7,72.1,76.6,72.1,76.7,72c-0.3,0.1-0.6,0.1-0.9,0.1c-1.5,0.1-2.5,1.2-2.7,2.7c-0.1,1.7,0.5,3,1.7,4c1,0.8,2,1,3.2,0.5
		c1.2-0.6,2-1.4,2.4-2.7c0.5-1.8-0.3-3.7-2.1-4.3C77.8,72.1,77.2,72.1,76.7,72 M44.9,153.5c0-0.1,0-0.4,0-0.6c-0.2-1.7-1.4-2.8-3-3
		c-1.4-0.2-3.1,1-3.5,2.1c-0.6,2.2-0.2,3.8,1.9,4.8c0.4,0.2,0.9,0.4,1.4,0.3C43.7,156.8,45.1,155.2,44.9,153.5 M77.1,66.3
		c-0.5,0-0.9,0.1-1.4,0.5c-1.2,1.1-1,2.5,0.3,3.6c0.9,0.8,1.7,0.8,2.5,0.2c0.5-0.4,0.7-0.9,0.8-1.5C79.7,67.6,78.7,66.3,77.1,66.3
		 M150.8,148.1c0,0.7,0.5,1.3,1.2,1.3c0.5,0,1-0.5,1.1-1.1c0-0.7-0.5-1.3-1.1-1.4C151.3,146.9,150.8,147.4,150.8,148.1"/>
	<path class="st6" d="M115.6,172c-1.8-0.3-3.7-0.7-5.5-1c-1.8-0.3-3.6-0.6-5.4-0.7c-2.6-0.2-5.1,0.4-7.7,1.1
		c-2.9,0.8-5.7,1.9-8.5,3.1c-2.1,0.9-4.1,1.9-6.2,2.8c-0.3,0.1-0.5,0.2-0.8,0.2c0-0.2,0-0.4,0.1-0.5c1.7-2.6,2.9-5.4,4.2-8.2
		c1.4-3.1,2.5-6.3,3.4-9.6c0.1-0.3,0.2-0.6,0.3-0.9c0.8-0.1,1.6-0.3,2.4-0.4c1.8-0.4,3.6-0.7,5.4-0.8c2.5-0.1,5,0.2,7.4,0.8
		c2.6,0.6,5.1,1.4,7.7,2c1.7,0.4,3.4,0.9,5.1,1c4.5,0.3,9,0.2,13.5-0.9c0.9-0.2,1.9-0.4,2.8-0.6c0.3-0.1,0.7-0.1,0.6-0.7
		c-1.3-0.2-2.6-0.5-3.9-0.7c-1.6-0.2-3.2-0.4-4.9-0.7c-5.2-0.9-10.2-2.3-15.1-4.3c-3.2-1.3-6.5-2.3-10-2.5c-1.4-0.1-2.8,0-4.2,0
		c-1.8,0.1-3.5,0.5-5.2,0.9c1.1-4.8,2.7-9.3,5.4-13.4c1.2-1.9,2.7-3.5,4.4-4.9c2.6-2,5.4-2.8,8.7-2.2c1.5,0.2,3,0.6,4.5,1.1
		c2.4,0.8,4.9,1.5,7.4,1.8c0.2,0,0.5,0.1,0.7,0.1c2.4,0.1,4.9,0.2,7.3-0.2c0.7-0.1,1.4-0.3,2.2-0.5c1.6,0.6,3.4,1.2,4.8,2.5
		c2.3,2.2,4,4.8,5,7.8c-0.2,0-0.4,0-0.6,0.1c-3.7,0.8-7.3,0.7-11,0c-2.3-0.4-4.6-0.9-6.9-1.3c-3.1-0.6-6.1-1.1-9.3-1.1
		c-1.8,0-3.6,0.1-5.3,0.4c-1.9,0.3-3.8,0.7-5.6,1.4c-0.2,0.1-0.6,0.1-0.6,0.5c1.1,0.1,2.2,0,3.3-0.2c1.3-0.2,2.6-0.3,3.9-0.4
		c2.3-0.1,4.5,0.3,6.7,0.7c2.4,0.5,4.8,1.3,7.2,2c2.9,0.9,5.8,1.9,8.6,2.7c1.8,0.6,3.7,1,5.6,1.1c2,0.1,4,0,6,0
		c0.7,2.5,1.4,5.1,2.1,7.6c0.8,2.9,1.4,5.9,1.9,8.9c0.1,0.6,0.1,1.2,0.2,1.9c-0.7,0.1-1.4,0.2-2.1,0.3c-1.8,0.2-3.5,0.5-5.3,0.6
		c-3.4,0.2-6.8-0.1-10.2-0.6c-2.9-0.4-5.8-1-8.7-1.5c-1.6-0.2-3.3-0.4-4.9-0.4c-1.8,0-3.6,0.3-5.4,0.6c-1,0.1-1.9,0.4-2.9,1
		c0.5,0.1,0.8,0.2,1.1,0.3c0.6,0.1,1.1,0.1,1.7,0.2c2.6,0.5,5,1.4,7.3,2.5c3.9,1.9,7.9,3.3,12,4.3c3.7,0.9,7.3,1.5,11.1,1.2
		c0.9-0.1,1.7-0.2,2.6-0.2c1.6,0,3.2-0.2,4.7-0.7c0.1,2,0.2,3.9,0.3,5.9c-0.5,0.4-1,0.4-1.5,0.5c-3.4,0.7-6.8,0.9-10.2,0.6
		c-2-0.2-4.1-0.6-6.1-0.9c-1.7-0.3-3.4-0.6-5.1-0.8c-2.8-0.3-5.6-0.9-8.3-1.8c-4.2-1.4-8.4-2.8-12.6-4.2c-1.8-0.6-3.6-1.1-5.4-1.6
		c-0.1-0.2-0.2-0.4-0.3-0.5c1.5-0.3,3-0.6,4.5-0.6c3.6,0,7.2,0,10.8,0.1c0.1,0,0.3,0,0.4,0c0.2,0.2,0.3,0.2,0.4-0.1
		c0-0.1-0.1-0.2-0.2-0.3C115.7,172,115.6,172,115.6,172"/>
	<path class="st6" d="M52,88c-0.3-0.3-0.3-0.7-0.2-1.1c0.3-0.8,0.2-1.6,0.2-2.4c0-0.8,0-1.5,0.2-2.3c0.1-0.3,0.1-0.8,0-1.1
		c-0.3-0.8-0.2-1.5-0.2-2.3c0-1.5-0.2-3-0.5-4.5c-0.3-1.7-0.6-3.4-0.9-5.1c0.2,0,0.4-0.1,0.6-0.1c1.1,0.4,2.3,0.3,3.4,0.2
		c1.2-0.1,2.2-0.7,2.9-1.7c1.3-1.6,2-3.5,2-5.6c0-0.3,0-0.7,0-1c0.2-2.7-0.5-5.3-1.2-7.9c-0.1-0.3-0.1-0.6-0.2-0.8
		c0,0,0.1-0.1,0.1-0.1c0.9,0.2,1.8,0.5,2.7,0.7c0.9,0.3,1.8,0.2,2.7,0.3c1,0.1,1.8-0.4,2.8-0.6c0.5,1.3,0,2.6,0.3,3.8
		c0.3,0.2,0.4,0,0.5-0.2c0.8-1,1.3-2.1,1.7-3.3c0.4-1,0.7-2,1-3c0.2-0.5,0.3-1,0.6-1.5c1.6-2.8,3-5.8,4.9-8.4
		c1.2-1.8,2.5-3.5,3.9-5.2c1.1-1.3,2.3-2.6,3.5-3.8c0.8-0.8,1.6-1.6,2.3-2.4c1.3-1.3,2.8-2.5,4.2-3.7c1.8-1.5,3.8-2.8,5.7-4.1
		c2.8-1.8,5.8-3.4,8.9-4.6c2.9-1.2,6-2.1,9-2.9c0.1,0,0.2,0,0.3,0c0.2,0.3-0.1,0.4-0.3,0.6c-1.3,1-2.5,1.9-3.6,3.1
		c-0.2,0.2-0.5,0.4-0.8,0.6c-0.3,0.2-0.6,0.5-0.9,0.8c-1.3,1.6-2.8,3-4,4.7c-1.4,2-2.6,4.1-3.5,6.3c-0.6,1.4-1.2,2.9-1.5,4.5
		c0,0.1-0.1,0.3-0.1,0.4c-0.1,0.7-0.2,1.5-0.2,2.4c0.2-0.1,0.4,0,0.6-0.1c0.9-0.7,1.9-1.4,2.8-2.2c1.1-1,2.2-2.1,3.4-3.1
		c1.7-1.5,3.5-2.9,5.3-4.2c2.4-1.8,5-3.3,7.6-4.7c1.7-0.9,3.5-1.7,5.4-2.4c2.3-0.9,4.6-1.7,7-2.2c0.9-0.2,1.7-0.6,2.7-0.4
		c0.2,0.5-0.2,0.6-0.4,0.8c-2.2,1.6-4,3.6-5.8,5.6c-2.3,2.5-4.1,5.3-5.4,8.5c-0.8,2-1.5,4.1-1.9,6.3c-0.3,1.7-0.7,3.4-0.6,5.1
		c0,0.5,0,1,0,1.4c-0.1,2.1,0.3,4.2,1.2,6.1c0.1,0.2,0.1,0.4-0.1,0.5c-0.3-0.2-0.7-0.3-1-0.5c-3.6-1.8-7.3-3.3-11.1-4.7
		c-2.6-0.9-5.4-1.5-8.1-1.9c-2-0.3-4.1-0.5-6.2-0.5c-1.8,0-3.6,0.1-5.4,0.6c-3.8,0.9-7.4,2.3-10.7,4.6c-2.2,1.6-4.2,3.5-6.1,5.5
		c-3,3.2-5.4,6.9-7.7,10.6c-3.3,5.2-6.1,10.8-8.7,16.4c-0.9,2-1.8,3.9-2.7,5.9C52.3,87.6,52.2,87.8,52,88 M84.7,33.7
		c0,0.4-0.1,0.8-0.1,1.3c-0.1,1-0.2,1.9-0.2,2.9c0,0.5,0.2,0.7,0.5,0.8c0.4,0.1,0.7,0,0.9-0.3c0.2-0.2,0.3-0.4,0.4-0.6
		c2.3-4,5.3-7.6,8.3-11c1.9-2.1,4.1-3.9,6.3-5.6c1.1-0.9,2.2-1.9,3.4-2.6c0.4-0.2,0.9-0.5,1.2-1.1c-0.6,0.1-0.9,0.3-1.2,0.5
		c-2.2,1.3-4.3,2.7-6.4,4.1c-1.6,1.1-3,2.3-4.4,3.7c-2.3,2.3-4.3,4.8-6.2,7.3c-0.2,0.2-0.3,0.6-0.8,0.5c0.1-0.4,0.1-0.7,0.2-1.1
		c0-0.4,0.1-0.9,0.1-1.3c-0.1-0.7-0.7-1.1-1.4-0.7c-0.3,0.2-0.5,0.4-0.8,0.6c-2.6,2.9-5.1,5.9-7.4,9c-1.1,1.5-2,3.1-2.9,4.6
		c-0.2,0.4-0.3,0.9-0.5,1.3c-0.1,0.2,0,0.5,0.5,0.5c1.3-1.3,2.1-3,3.3-4.5c1.1-1.5,2.2-2.9,3.3-4.3C82,36.4,83.1,34.9,84.7,33.7
		 M109,31.5c0-0.4,0-0.6,0-0.8c0-0.4-0.2-0.7-0.5-0.8c-0.4-0.2-0.7,0-0.9,0.3c-0.6,0.6-1.2,1.2-1.8,1.9c-1.9,2.1-3.9,4.2-5.8,6.4
		c-0.3,0.4-0.6,0.9-0.8,1.3c-0.1,0.1,0,0.4,0.2,0.5c0.1,0.1,0.4,0.1,0.5,0c0.7-0.7,1.5-1.4,2.2-2.1c0.9-1,1.9-1.9,2.8-2.9
		c0.1-0.1,0.4-0.2,0.7-0.3c-0.1,0.5-0.1,0.8-0.2,1.1c-0.1,0.5-0.3,0.9-0.4,1.4c0,0.2,0.1,0.5,0.2,0.6c0.2,0.2,0.6,0.2,0.8,0
		c0.4-0.4,0.8-0.8,1.2-1.2c0.9-1.1,1.8-2.3,2.7-3.4c2.3-2.7,4.8-5.1,7.7-7.1c1.9-1.2,3.9-2.4,5.8-3.5c1.3-0.7,2.5-1.6,3.8-2.4
		c0.1-0.1,0.2-0.3,0.5-0.6c-0.5,0-0.8,0-1.1,0.1c-1.2,0.4-2.4,0.8-3.5,1.3c-1,0.4-1.9,1-2.8,1.5c-3.7,1.9-7,4.3-9.9,7.4
		C110,30.6,109.6,30.9,109,31.5"/>
	<path class="st7" d="M149,175.6c-1.5,0.5-3.1,0.7-4.7,0.7c-0.9,0-1.7,0.1-2.6,0.2c-3.8,0.2-7.5-0.4-11.1-1.2c-4.2-1-8.2-2.4-12-4.3
		c-2.3-1.1-4.8-2-7.3-2.5c-0.6-0.1-1.1-0.1-1.7-0.2c-0.3-0.1-0.6-0.2-1.1-0.3c1-0.7,2-0.9,2.9-1c1.8-0.3,3.6-0.5,5.4-0.6
		c1.6,0,3.3,0.1,4.9,0.4c2.9,0.4,5.8,1.1,8.7,1.5c3.4,0.5,6.8,0.8,10.2,0.6c1.8-0.1,3.5-0.4,5.3-0.6c0.7-0.1,1.4-0.2,2.1-0.3
		c0.1,0.6,0.3,1.3,0.4,1.9c0.3,1.7,0.5,3.4,0.7,5C149,175,149,175.3,149,175.6"/>
	<path class="st7" d="M91.1,151.4c1.7-0.5,3.5-0.8,5.2-0.9c1.4-0.1,2.8-0.1,4.2,0c3.5,0.2,6.8,1.2,10,2.5c4.9,2,9.9,3.4,15.1,4.3
		c1.6,0.3,3.2,0.4,4.8,0.7c1.3,0.2,2.6,0.4,3.9,0.7c0,0.6-0.3,0.6-0.6,0.7c-0.9,0.2-1.9,0.4-2.8,0.6c-4.4,1.1-9,1.2-13.5,0.9
		c-1.7-0.1-3.4-0.6-5.1-1c-2.6-0.6-5.1-1.3-7.7-2c-2.4-0.6-4.9-0.9-7.4-0.8c-1.8,0.1-3.6,0.4-5.4,0.8c-0.8,0.2-1.6,0.3-2.4,0.4
		C90,155.9,90.6,153.6,91.1,151.4"/>
	<path class="st2" d="M113.5,50.8c-0.2,0.1-0.4,0.3-0.6,0.2c-0.9-0.1-1.7-0.2-2.6-0.4c-1.8-0.3-3.7-0.7-5.5-1c-0.1,0-0.2,0-0.3,0
		c-2.7-0.1-5.4-0.4-8.1-0.3c-4,0.2-8,1-11.7,2.8c-2.6,1.2-5.2,2.6-7.5,4.3c-0.9,0.7-1.7,1.3-2.6,2.1c-3.3,2.8-6.1,6.1-8.7,9.5
		c-1.5,1.9-2.8,3.9-4.2,5.8c-0.1-0.1-0.2-0.2-0.3-0.3c0.2-0.5,0.4-1.1,0.7-1.6c2.5-4.2,5-8.4,7.9-12.4c2.3-3.1,5.1-5.9,8.1-8.3
		c2.7-2.1,5.8-3.3,9.1-4.3c3-0.9,6.1-1,9.3-0.7c3,0.3,5.9,0.8,8.8,1.5c2.5,0.6,4.8,1.7,7.2,2.6C112.9,50.6,113.2,50.7,113.5,50.8"/>
	<path class="st7" d="M143.7,149.5c-2,0-4,0.1-6,0c-1.9-0.1-3.8-0.5-5.6-1.1c-2.9-0.9-5.8-1.8-8.6-2.7c-2.4-0.8-4.8-1.5-7.2-2
		c-2.2-0.5-4.4-0.9-6.7-0.7c-1.3,0.1-2.6,0.2-3.9,0.4c-1.1,0.2-2.2,0.2-3.3,0.2c0-0.4,0.3-0.5,0.6-0.5c1.8-0.7,3.7-1.1,5.6-1.4
		c1.8-0.2,3.5-0.4,5.3-0.4c3.1,0,6.2,0.5,9.3,1.1c2.3,0.5,4.6,0.9,6.9,1.4c3.7,0.7,7.3,0.8,11,0c0.2,0,0.4,0,0.6-0.1
		C142.5,145.3,143.2,147.4,143.7,149.5"/>
	<path class="st2" d="M122.7,116.9c0.4-0.3,0.8-0.3,1.2-0.3c2.3,0,4.6,0,6.9,0.2c3.4,0.3,6.7,0.2,10-0.8c1.9-0.5,3.6-1.3,5.3-2.2
		c3.2-1.6,6-3.8,8.7-6.1c3.6-3.1,6.2-6.9,7.7-11.5c0.6-1.9,1.1-3.8,1.7-5.7c0.1-0.5,0.2-0.9,0.6-1.3c0.2,2.6-0.1,5.2-0.6,7.7
		c-0.3,1.5-0.8,2.9-1.2,4.3c-0.8,2.7-2.3,5.1-4.3,7.1c-2.4,2.3-5,4.4-8,5.9c-4.2,2.1-8.6,3.4-13.2,4c-2.2,0.2-4.4,0.2-6.6,0
		c-2.5-0.1-5.1-0.5-7.5-1.1C123.2,117.1,122.9,117,122.7,116.9"/>
	<path class="st2" d="M36.1,148.9c0,1.3,0.1,2.7,0.1,4c-0.1,3.6,0.5,7.1,1.2,10.6c0.1,0.5,0.1,1,0.5,1.3l0,0c0,0.3,0,0.5,0.3,0.6
		l0,0c-0.1,0.6,0.1,1,0.3,1.5c0.9,1.7,1.7,3.4,2.6,5c1.4,2.3,3.3,4.2,5.7,5.6c2.3,1.3,4.8,2.4,7.4,3.3c0.4,0.2,0.9,0.4,1.3,0.6
		c-0.6,0-1.2,0-1.7-0.2c-2.6-0.6-5.3-1.2-7.8-2c-3.2-1-5.8-2.9-7.8-5.6c-2-2.7-3-5.7-3.1-9c-0.1-3.3-0.1-6.5,0-9.8
		c0.1-1.9,0.4-3.8,0.6-5.7C35.8,148.9,36,148.9,36.1,148.9"/>
	<path class="st2" d="M41.4,122.3c-0.7,1.5-0.9,3-1.2,4.6c-0.1,0.7-0.2,1.4-0.2,2.1c-0.3,3.3,0.9,6.1,3.2,8.5
		c0.3,0.4,0.9,0.7,0.9,1.3c-1-0.3-1.9-1-2.6-1.7c-2-1.9-3.5-4.2-3.9-7.1c-0.3-2-0.2-4,0.3-6c1-3.5,2.7-6.7,5.1-9.4
		c1.1-1.2,2.3-2.4,3.6-3.3c0.8-0.6,1.6-1.4,2.4-2c0.3-0.2,0.4-0.5,0.8-0.5c-0.2,0.4-0.4,0.8-0.7,1.2c-0.2,0.3-0.4,0.7-0.6,1
		c-0.2,0.1-0.3,0.2-0.5,0.3c-0.9,1.2-1.9,2.4-2.8,3.6c-0.7,0.9-1.3,1.8-1.7,3c-0.3,0.4-0.5,0.9-0.8,1.3
		C42.2,120.2,41.6,121.2,41.4,122.3"/>
	<path class="st2" d="M134.5,78.2c1.9-1.3,3.6-2.4,5.5-3.3c1.2-0.6,1.9-0.4,2.6,0.7c0.3,0.3,0.5,0.7,0.7,1.1
		c0.6,1.1,1.2,2.3,1.8,3.4c0.1,0.2,0.2,0.5,0.3,0.7c-0.3,0.5-0.9,0.7-1.3,0.9c-1.5,0.7-2.9,1.7-4.4,2.3c-0.7-0.9-1.1-1.8-1.8-2.5
		c-0.8-0.7-1.4-1.4-2.1-2.1C135.4,79.1,135,78.7,134.5,78.2"/>
	<path class="st3" d="M154.8,143.1c-0.2,0.2-0.4,0.4-0.6,0.6c-0.8,1.3-2.8,1.8-4.2,1.2c-2.1-0.9-3.3-2.4-3.8-4.6
		c-0.5-2.1,1.1-3.8,2.3-4.3c0.7-0.3,1.5-0.4,2.2-0.4c0.3,0.3,0.6,0.6,0.8,1c1,1.8,2,3.7,2.9,5.5
		C154.7,142.4,154.7,142.8,154.8,143.1"/>
	<path class="st2" d="M158.4,175.2c0.8-0.8,1-1.8,1.3-2.8c0.5-1.8,0.8-3.6,1-5.5c0.1-1.3,0.2-2.6,0.2-3.9c0-2-0.2-3.9-0.5-5.8
		c-0.1-0.5,0-1,0-1.4l0.1,0l0.1,0c1.6,3.5,2.6,7.2,2.9,11.1c0.1,2.4-0.2,4.8-1.3,7c-1.3,2.6-3.4,4.5-6.1,5.6
		c0.2-0.7,0.7-1.2,1.1-1.8C157.6,176.9,158.2,176.2,158.4,175.2"/>
	<path class="st2" d="M152.9,70.1c0.4-0.3,0.9-0.3,1.4-0.3c1.1,0,2.1,0,3.2,0c1.1,0.1,1.5,0.4,1.8,1.5c0,0.1,0.1,0.3,0.1,0.4
		c0.1,1.5,0.2,3.1-0.1,4.6c0,0.1-0.1,0.2-0.2,0.4c-0.5,0-1,0-1.6,0c-0.6,0-1.2,0-1.7,0c-0.5,0-1,0.1-1.5,0.1
		C153.3,73.1,152.4,71.2,152.9,70.1"/>
	<path class="st3" d="M158.4,175.2c-0.2,1-0.8,1.7-1.4,2.5c-0.4,0.6-0.9,1.1-1.1,1.8c-1.4,0.9-3.1,1.2-4.7,1.8
		c-0.4-1.1-0.1-2.1-0.2-3c0-1,0-2,0-3c0.8-0.5,1.6-1.1,2.7-1.3C155.6,173.6,157.1,174,158.4,175.2"/>
	<path class="st3" d="M156.9,147.7c-0.4,0.1-0.7,0.3-1.1,0.3c-0.5,0-1-0.4-1.2-0.9c-0.3-0.9,0-1.6,0.8-2.1c0.1,0,0.2-0.1,0.3-0.1
		C156.4,145.7,156.7,146.7,156.9,147.7"/>
	<path class="st8" d="M61.5,73.5c0.1,0.1,0.2,0.2,0.3,0.3c0,0.1,0,0.2,0,0.3c-1.1,2-2.3,4-3.4,6c0,0.1-0.1,0.1-0.2,0.1
		c0-0.2,0.1-0.4,0.1-0.5c1-2,2-4,3-6C61.4,73.7,61.5,73.6,61.5,73.5"/>
	<path class="st2" d="M139.7,58.1c-0.3-0.1-0.5-0.2-0.7-0.3c-0.5-0.6-0.4-1.5,0.2-2c0.1-0.1,0.3-0.1,0.4,0c0.6,0.3,1,1.2,0.7,1.8
		C140.2,57.8,139.9,57.9,139.7,58.1"/>
	<path class="st8" d="M36.1,148.9c-0.1,0-0.3,0-0.4,0c0.1-0.6,0.2-1.3,0.3-1.9C36.3,147.6,36.2,148.2,36.1,148.9"/>
	<path class="st3" d="M99.9,172.9c0.1,0.2,0.2,0.4,0.3,0.5c-0.4,0-0.7,0-1.2-0.1C99.3,172.9,99.3,172.9,99.9,172.9"/>
	<path class="st8" d="M160.5,155.8L160.5,155.8l-0.2,0c-0.4-0.2-0.2-0.6-0.3-0.9C160.2,155.2,160.3,155.5,160.5,155.8"/>
	<path class="st9" d="M115.6,172c0.1,0,0.2,0,0.3,0c0.1,0.1,0.2,0.2,0.2,0.3c-0.1,0.2-0.2,0.2-0.4,0.1
		C115.6,172.3,115.6,172.1,115.6,172"/>
	<path class="st2" d="M55.5,181.2c0.4,0,0.9,0,1.2,0.3c-0.2,0-0.5,0-0.7-0.1C55.8,181.4,55.7,181.3,55.5,181.2"/>
	<path class="st5" d="M46.6,107.9c0,0.1,0,0.2,0,0.3c0,0-0.1,0.1-0.1,0.1c0-0.1-0.1-0.2-0.1-0.2C46.4,108,46.5,108,46.6,107.9
		L46.6,107.9"/>
	<path class="st2" d="M44,138.8c0.3,0,0.5,0.1,0.6,0.4C44.4,139,44.2,138.9,44,138.8"/>
	<path class="st2" d="M49.8,108.5c0,0.1,0.1,0.1,0.1,0.2c0,0-0.1,0.1-0.1,0.1C49.8,108.7,49.8,108.6,49.8,108.5"/>
	<path class="st6" d="M81.5,177.5c0,0-0.1,0.1-0.1,0.1c0,0,0-0.1,0-0.1C81.4,177.5,81.5,177.5,81.5,177.5z"/>
	<path class="st2" d="M102.3,30.9c0,0-0.1,0.1-0.1,0.1C102.2,31,102.2,30.9,102.3,30.9C102.2,30.9,102.3,30.9,102.3,30.9L102.3,30.9
		z"/>
	<path class="st3" d="M81.8,111.7c0-0.8,0-1.5,0-2.3c0-1.5,0.4-2.8,1.3-4c1.5-2.2,4.4-3.1,6.9-2.1c1.9,0.8,3.4,2,4.5,3.7
		c1.6,2.7,1.2,5.9-0.9,8c-0.9,1-2,1.6-3.4,1.7c-0.1,0-0.3,0.1-0.5,0.2c0.2,0.4,0.3,0.8,0.5,1.2c0.5,1.3,0.5,2.6,0,3.9
		c-1,2.4-4.7,3.4-6.6,1.4c-0.9-0.9-1.5-1.9-1.8-3.3c-0.3,0-0.5,0-0.7,0.1c-0.8,0.3-1.7,0.2-2.6,0.1c-0.2,0-0.5-0.1-0.7-0.2
		c-1.5-0.9-2.6-2.1-2.8-4c-0.2-1.9,0.8-3.2,2.3-4.2c1.1-0.7,2.4-0.7,3.6-0.5C81.1,111.5,81.5,111.6,81.8,111.7
		c0,0.1,0.1,0.1,0.1,0.1C81.9,111.7,81.9,111.7,81.8,111.7"/>
	<path class="st3" d="M61.3,161.6c0.1,2.6-1.1,4.4-3,5.9c-1.9,1.5-4.2,1.8-6.5,1.5c-0.9-0.1-1.7-0.4-2.5-0.8c-2.3-1.1-3.5-3-3.8-5.4
		c-0.2-1.6-0.2-3.2,0.2-4.7c0.3-0.9,0.6-1.8,1.2-2.6c0.9-1.2,2.1-2.1,3.8-2c0.7,0,1.4,0.1,2.1-0.2c0.3-0.1,0.6,0,0.9,0
		c3,0.6,5.2,2.2,6.6,4.8c0.1,0.2,0.2,0.4,0.3,0.6C61.2,159.7,61.5,160.7,61.3,161.6"/>
	<path class="st10" d="M109.2,67.5c0-2.3,0.7-4.1,2.3-5.5c0.8-0.7,1.7-1,2.7-1.1c1.5-0.1,3,0.2,4.3,1c1.6,1,3,2.4,3.3,4.3
		c0.5,2.8-0.3,5.1-2.6,6.7c-0.5,0.3-1.1,0.6-1.7,0.6c-2.5,0.3-4.6-0.4-6.5-2.1C109.7,70.3,109.1,68.9,109.2,67.5 M113.9,66.1
		c0.3,0,0.7-0.1,1-0.5c0.3-0.4,0.3-0.8,0.1-1.2c-0.2-0.4-0.5-0.5-0.9-0.5c-0.9,0-1.9,0.5-1.8,1C112.2,65.3,113,66,113.9,66.1"/>
	<path class="st3" d="M84.7,75.1c-1.2,0.1-2.1-0.4-2.8-1.2c-1.2-1.3-1.8-2.8-1.6-4.6c0.3-2.1,2.4-3.7,4.5-3.1c2,0.6,3.3,1.7,3.7,3.8
		c0.4,2-0.6,4-2.5,4.8C85.7,75,85.2,75,84.7,75.1"/>
	<path class="st3" d="M76.7,72c0.6,0.1,1.2,0.1,1.7,0.3c1.8,0.6,2.6,2.5,2.1,4.3c-0.4,1.3-1.2,2.2-2.4,2.7c-1.2,0.5-2.3,0.3-3.2-0.5
		c-1.3-1-1.9-2.4-1.7-4c0.1-1.5,1.2-2.6,2.7-2.7C76.1,72.1,76.4,72.1,76.7,72C76.7,72.1,76.7,72.1,76.7,72"/>
	<path class="st3" d="M44.9,153.5c0.2,1.7-1.1,3.3-3.1,3.6c-0.4,0.1-1-0.1-1.4-0.3c-2.1-1-2.6-2.6-1.9-4.8c0.3-1.1,2.1-2.3,3.4-2.1
		c1.6,0.2,2.7,1.3,3,3C44.9,153.2,44.9,153.4,44.9,153.5"/>
	<path class="st3" d="M37.9,164.8c0-0.7-0.1-1.4,0-2.1c0.1-1.1,0.9-2.1,2-2.1c0.8,0,1.7,0.1,2.5,0.6c0.6,0.4,1,0.9,1.3,1.6
		c0.8,1.7-1.1,3.7-2.4,3.8c-1,0-1.9-0.1-2.6-0.9c-0.1-0.1-0.3-0.2-0.5-0.3l0,0C38.2,165.1,38.2,164.9,37.9,164.8L37.9,164.8z"/>
	<path class="st3" d="M43.6,117.9c0.3-1.1,1-2,1.7-3c0.9-1.2,1.9-2.4,2.8-3.6c0.1-0.1,0.3-0.2,0.5-0.3c0.6,1.7,0.5,3.4-0.2,5
		c-0.6,1.3-1.6,2.2-3,2.4C44.7,118.6,44.2,118.2,43.6,117.9"/>
	<path class="st3" d="M77.1,66.3c1.6,0,2.6,1.3,2.2,2.8c-0.1,0.6-0.3,1.1-0.8,1.5c-0.8,0.6-1.6,0.5-2.5-0.2
		c-1.2-1.1-1.5-2.4-0.3-3.6C76.2,66.4,76.7,66.3,77.1,66.3"/>
	<path class="st3" d="M150.8,148.1c0-0.7,0.5-1.2,1.1-1.2c0.7,0,1.2,0.6,1.1,1.4c0,0.6-0.5,1.2-1.1,1.1
		C151.3,149.4,150.8,148.8,150.8,148.1"/>
	<path class="st3" d="M41.4,122.3c0.2-1.2,0.8-2.1,1.4-3.1c0,0.7,0.1,1.3-0.3,1.9C42.3,121.7,42,122.1,41.4,122.3"/>
	<path class="st4" d="M84.7,33.7c-1.6,1.2-2.7,2.7-3.9,4.1c-1.2,1.4-2.2,2.9-3.3,4.3c-1.1,1.5-2,3.2-3.3,4.5
		c-0.4-0.1-0.5-0.3-0.5-0.5c0.1-0.5,0.2-0.9,0.5-1.3c0.9-1.6,1.9-3.1,2.9-4.6c2.3-3.2,4.7-6.2,7.4-9c0.2-0.2,0.5-0.5,0.8-0.6
		c0.6-0.4,1.3,0,1.4,0.7c0,0.4,0,0.9-0.1,1.3c0,0.4-0.1,0.7-0.2,1.1c0.5,0.1,0.6-0.3,0.8-0.5c1.9-2.6,4-5.1,6.2-7.3
		c1.4-1.4,2.8-2.6,4.4-3.7c2.1-1.5,4.2-2.9,6.4-4.1c0.3-0.2,0.6-0.4,1.2-0.5c-0.4,0.6-0.8,0.9-1.2,1.1c-1.3,0.7-2.3,1.7-3.4,2.6
		c-2.3,1.7-4.5,3.5-6.3,5.6c-3.1,3.5-6,7-8.3,11c-0.1,0.2-0.3,0.4-0.4,0.6c-0.2,0.3-0.5,0.4-0.9,0.3c-0.3-0.1-0.5-0.3-0.5-0.8
		c0-1,0.1-1.9,0.2-2.9C84.6,34.6,84.7,34.1,84.7,33.7"/>
	<path class="st4" d="M109,31.5c0.6-0.5,1-0.9,1.4-1.3c2.8-3.1,6.2-5.4,9.9-7.4c0.9-0.5,1.8-1.1,2.8-1.5c1.1-0.5,2.3-0.9,3.5-1.3
		c0.3-0.1,0.6,0,1.1-0.1c-0.3,0.3-0.4,0.5-0.5,0.6c-1.2,0.8-2.5,1.7-3.8,2.4c-2,1.1-3.9,2.2-5.8,3.5c-3,1.9-5.4,4.4-7.7,7.1
		c-0.9,1.1-1.8,2.3-2.7,3.4c-0.4,0.4-0.8,0.9-1.2,1.2c-0.2,0.2-0.6,0.2-0.8,0c-0.1-0.1-0.3-0.4-0.2-0.6c0.1-0.5,0.3-0.9,0.4-1.4
		c0.1-0.3,0.1-0.6,0.2-1.1c-0.4,0.2-0.6,0.2-0.7,0.3c-1,0.9-1.9,1.9-2.8,2.9c-0.7,0.7-1.4,1.4-2.2,2.1c-0.1,0.1-0.4,0.1-0.5,0
		c-0.1-0.1-0.2-0.4-0.2-0.5c0.2-0.5,0.5-0.9,0.8-1.3c1.9-2.1,3.9-4.3,5.8-6.4c0.6-0.6,1.2-1.2,1.8-1.9c0.2-0.3,0.6-0.4,0.9-0.3
		c0.3,0.1,0.5,0.4,0.5,0.8C109,30.9,109,31.1,109,31.5 M105.7,34.5L105.7,34.5L105.7,34.5L105.7,34.5z"/>
	<path class="st5" d="M37.9,164.8c0.3,0.1,0.3,0.3,0.3,0.6C37.9,165.3,37.9,165,37.9,164.8"/>
	<path class="st5" d="M81.8,111.7c0,0,0.1,0.1,0.1,0.1C81.9,111.8,81.8,111.7,81.8,111.7L81.8,111.7z"/>
	<path class="st2" d="M113.9,66.1c-0.9-0.1-1.7-0.7-1.7-1.2c0-0.5,1-1.1,1.8-1c0.4,0,0.7,0.2,0.9,0.5c0.2,0.4,0.2,0.8-0.1,1.2
		C114.6,66,114.2,66.1,113.9,66.1"/>
	<polygon class="st6" points="105.7,34.5 105.6,34.5 105.6,34.4 	"/>
</g>
</svg>
