<?xml version="1.0" encoding="utf-8"?>
<!-- Generator: Adobe Illustrator 27.9.0, SVG Export Plug-In . SVG Version: 6.00 Build 0)  -->
<svg version="1.1" id="Layer_1" xmlns="http://www.w3.org/2000/svg" xmlns:xlink="http://www.w3.org/1999/xlink" x="0px" y="0px"
	 viewBox="0 0 200 200" style="enable-background:new 0 0 200 200;" xml:space="preserve">
<style type="text/css">
	.st0{fill:#1E5E66;}
	.st1{fill:#BC7A4A;}
	.st2{fill:#B1DFD4;}
	.st3{fill:#5AD4B6;}
	.st4{fill:#F68F4C;}
	.st5{fill:#F8CA73;}
	.st6{fill:#D34D37;}
	.st7{fill:#FDFDFD;}
</style>
<g>
	<path class="st0" d="M45,159.5c-2.4-2.4-4.2-5.1-6.5-8.2c0,1.9,0,3.3,0,4.8c0.1,1.5-0.6,2.4-2,2.3c-1.2-0.1-1.3,0.5-1.3,1.4
		c0,1.9-0.4,3.7-0.9,5.5c-0.9,3.1-2.9,4.2-6.1,2.9c-2.1-0.8-3.5-2.4-4.7-4.2c-6.8-10.2-6.4-20.8-1.4-31.5c1.7-3.6,4-6.9,6.4-10.2
		c3.1-4.4,4.4-9.2,4.7-14.5c0.8-13.5,3.5-26.7,8.2-39.4c2.7-7.2,6.9-13.4,12.1-18.9c1.2-0.6,2.4-1,2.8-2.4c1.5-0.2,2.1-1.8,3.3-2.5
		c0.7-0.5,1.3-1,2-1.5c6.4-4.1,13.2-7.7,19-12.6c4.3-3.6,7.8-7.7,9.6-13.2c0.2-0.6,0.4-1.3,1.3-1.9c1.4,2.8,1.5,5.7,1.8,8.8
		c5.2-4.7,7.1-10.7,8-17.3c2,6.5,1.8,13.7,7,19.3c-0.2-2.1-0.5-3.9-0.6-5.7c0-1.8-0.2-3.8,1.5-5.5c1.4,5.5,5.3,8.8,8.9,12.3
		c0.4,0.4,0.9,0.8,1.1,1.2c2.4,5.1,7.3,7.2,11.6,10.1c2.3,1.5,4.6,3,6.9,4.4c0.7,0.5,1.5,1,2.2,1.5c1.3,1,2.5,1.9,3.8,2.9
		c0.8,0.6,1.6,1.3,2.4,1.9c11.7,12.1,15.6,27.6,18.5,43.4c1.2,6.7,1.6,13.6,2.3,20.4c0.2,2.4,1.4,4.5,2.6,6.5
		c2.2,3.7,4.8,7.2,6.9,10.9c5.3,9.6,6.6,19.5,1.8,29.7c-1.2,2.4-2.6,4.7-4.6,6.5c-1.3,1.1-2.7,1.8-4.5,1.7c-2,0-3.3-0.8-3.6-2.9
		c-0.2-1.5-0.7-2.9-0.9-4.4c-0.2-1.4,0.3-3.2-2.2-3.1c-1,0-1.2-1.1-1.2-2c0-1.5,0-2.9,0-4.7c-1.4,1.8-2.6,3.3-3.8,4.8
		c-1.1,0-2.3-0.4-3.3,0.3c-0.3,0-0.6,0.1-0.9,0.1c-3.3,0.2-6.4-0.7-9.4-1.7c-9.5-3.1-18.5-3-27.4,2.2c-7.1,4.1-14.8,4.1-22.6,2.1
		c-8-2.1-15.8-5.1-24.2-5.7c-7.1-0.5-14.1-0.1-20.4,4c-0.9,0.1-1.7,0.3-2.4,0.9C46.1,158.4,45.5,158.9,45,159.5z M64.4,44.9
		L64.4,44.9c-0.4,0-0.8,0.2-0.9,0.6c-0.6,0.1-1,0.4-1.3,0.9c-4.2,2.4-7.6,5.8-10.5,9.7c-3.7,4.2-6.1,9.1-8,14.3
		c-3.8,10.5-6.1,21.4-7.2,32.5c-1.1,11-2.1,21.9,0.2,32.8c1.5,6.7,2.8,13.5,7.6,19c0.1,0.2,0.3,0.3,0.4,0.5c0.5,0.8,0.9,1.6,1.7,2.2
		c1.3-1.4,3-2.3,4.7-3.2c7.6-3.9,15.7-3.8,23.9-2.6c6.1,1,11.9,3.1,17.9,4.7c4.9,1.3,9.8,2.6,15,1.7c4.6-0.8,8.5-3,12.6-5
		c6.4-2.7,13-2.7,19.6-1.1c3.8,1,7.5,2.3,11.4,3c3.2,0.6,4.9-0.4,6.2-3.5l-0.1,0c0.4,0.1,0.4-0.2,0.5-0.5c0.6-0.5,0.8-1.1,1-1.9
		c4.5-10.2,5.9-20.9,5.4-31.9c-0.3-6.6-0.8-13.2-1.7-19.7c-1.4-9.3-3.4-18.5-6.7-27.3c-0.9-2.5-1.9-4.9-3.3-7.1
		c-0.3-0.7-0.6-1.5-1.3-2c-2.3-4.5-5.6-8.1-9.5-11.3c-2.3-2.6-5.3-4.3-8.2-6.1c-2.8-1.8-5.7-3.6-8.6-5.2c-0.3-0.2-1.1-1.4-1.6,0
		c0,1.8,0.9,3.4,0.4,5.2c-0.5-0.1-0.4-0.5-0.5-0.9c-1-2.6-1.6-5.4-3.2-7.7l0,0c0-0.5-0.1-0.9-0.5-1.2c-1.4-3.7-4.3-6.2-7.1-8.7l0,0
		c0-0.3-0.2-0.5-0.5-0.5c-0.8-0.8-0.5-2.4-2.1-2.9c1.1,5,3.2,9.3,6,13.2c-0.6,0.3-0.9-0.4-1.4-0.5c-0.6-0.6-1.2-1.2-1.9-1.7
		c-4.4-3.9-9.1-7.5-10.8-13.4c-0.2-0.7,0.1-1.6-0.8-2.2c-0.8,1.9-1.8,3.7-3,5.3c-3.1,4-6.3,7.9-8.8,12.4c-0.2,0.4-0.5,0.8-1.1,0.6
		c0.5-1.5,0.9-3.1,1.5-4.6c1-2.6,1.6-5.3,1.7-8.1c0-0.5,0-1.1,0-2.2c-3.6,7.8-9.5,12.7-16,17c-3,2-6,4-9,5.9
		c-0.2,0.1-0.4,0.3-0.6,0.4l0,0c-0.4,0.1-0.7,0.2-0.9,0.6c0,0,0,0,0,0C64.7,44.7,64.6,44.8,64.4,44.9z M28.6,127.8
		c0.4-0.2,0.4-0.6,0.4-1c0.4-0.8,0.8-1.6,0.9-3.2c-5.7,7.9-10,15.6-9.5,25.2c0.2,4.8,1.2,9.3,4.3,13.1l0,0c0,0.4,0.1,0.8,0.5,1
		c0,0,0,0,0,0c0.2,0.2,0.3,0.4,0.5,0.6c0.6,1.1,1.5,1.8,2.5,2.5c2.2,1.5,3.8,0.9,4.4-1.6c0.2-0.9,0.5-1.8,0.6-2.7
		c0.2-2.3,0.7-4.4-0.6-6.7c-1.2-2-1.6-4.6-1.6-7.7c0.8,2.1,1.4,3.7,2.1,5.3c0.6,1.3,1.2,2.6,2.4,3.5c0.7,0.6,1.6,0.8,1.6-0.6
		c-0.1-3,0.6-6.1-0.4-9.1c-2.1-6.6-3.5-13.3-3.9-20.2c0-0.8,0-1.5,0-2.3c-1.5,3.1-2.6,6.2-3.8,9.3c-1,2.8-2.2,5.5-2.3,8.5
		c-0.7,1.3-0.3,2.6-0.3,3.9c0,2,0.8,4.1,0.2,6.6c-2.1-5.9-2-11.4-0.2-16.9c0.7-2.1,1.8-4,2.1-6.2l0-0.1
		C28.6,128.5,28.7,128.2,28.6,127.8L28.6,127.8z M171.7,129.2L171.7,129.2c0,0.4,0,0.7,0.4,1l0,0c0.7,2.2,1.5,4.4,2.1,6.7
		c1.3,5,1.4,10-0.9,14.8c0-1-0.1-2-0.1-3c0.1-2.4,0.6-4.7,0.2-7.2c-0.7-4.2-2.2-8.1-3.8-12c-0.7-1.7-1-3.5-2.1-5.1
		c-0.7,0.9-0.4,1.7-0.4,2.4c-0.4,3.9-0.9,7.8-1.8,11.6c-1.4,5.7-3.4,11.3-2.4,17.3c-0.1,0.6,0.2,0.9,0.8,0.6c1-0.5,1.5-1.3,2.1-2.1
		c1.1-1.6,1.3-3.7,2.7-5.1c0.2,2.5-0.6,4.8-1.7,7c-0.4,0.7-0.8,1.3-0.6,2.2c0.4,2.1,0.7,4.2,1.2,6.2c0.5,2.4,1.7,2.8,3.9,1.7
		c1-0.5,1.9-1.2,2.5-2.1c0.2-0.2,0.3-0.5,0.5-0.7c0,0,0,0,0,0c0.3-0.3,0.6-0.5,0.8-0.8c6.1-9.2,5.6-18.7,1.4-28.4
		c-1.6-3.6-3.7-6.8-6.2-9.8c0,1.5,0.6,2.8,1.2,4C171.2,128.6,171.3,129,171.7,129.2z"/>
	<path class="st1" d="M45,159.5c0.5-0.6,1.1-1,1.9-1.1c0.3,0.2,0.7,0.4,0.9,0.7c6,6.9,13,12.3,21.6,15.5c4.1,1.5,8.1,3.4,12.6,3.7
		l0,0c0.3,0.7,1,0.4,1.5,0.5c0.6,0.6,1.3,0.2,2,0.4c6.4,2.2,12.9,2.4,19.6,1.5c2.2-0.1,4.4,0.1,6.6-0.4c7-1.6,14-3.6,20.6-6.4
		c7.4-3.1,13.7-7.9,19-14c0.5-0.6,1.1-1.2,1.6-1.7c0.5-0.5,1.1-0.9,1.4-1.6c1-0.7,2.2-0.3,3.3-0.3c-6.5,9.1-13.9,15-26.7,21
		c2.5,1.5,5,2.7,7.9,2.7c2.3,0,4.6,0.3,6.2,2.2c0.5,0.6,1.2,0.5,1.9,0.6c1.9,0.2,3.3,1,3.6,3.1c0.2,2.1-1.2,3-2.9,3.4
		c-5.6,1.4-11.2,2.6-16.9,3.3c-3.9,0.5-7.1-0.8-9.7-3.8c-1.1-1.3-2.2-2.6-3.4-3.9c-2.2-2.4-4.8-3.3-8-2.6
		c-7.2,1.4-14.5,1.5-21.8,0.2c-2.2-0.4-3.8,0.5-5.2,2c-1.3,1.4-2.5,2.9-3.7,4.3c-2.6,3.1-5.9,4.4-9.9,3.9
		c-5.6-0.7-11.1-1.9-16.6-3.2c-1.8-0.5-3.3-1.3-3-3.5c0.3-2.1,1.8-2.8,3.7-3c0.5-0.1,1.1,0.1,1.5-0.3c2-2.3,4.6-2.3,7.3-2.5
		c2.4-0.1,4.7-1.2,7.1-2.7C59.2,173.3,51.3,167.4,45,159.5z M118.4,182.1C118.4,182.1,118.4,182.1,118.4,182.1
		c1.8,2,3.6,4.1,5.4,6.1c1.8,2.1,4.1,2.5,6.6,2.2c3.2-0.4,6.5-1,9.6-1.8c2.6-0.7,5.5-0.3,7.8-2c1-0.5,0.8-1.1-0.1-1.4
		c-1.8-0.7-3.7-1.3-5.6-0.3c-2.6,0.1-5.1,0-7.8-0.7c2.1-0.4,4-0.8,5.9-1.2c0.6-0.1,1.3,0.2,1.5-0.6c-2.7-1.4-5.4-0.2-8.1-0.2
		c-1.8,0-3.5-0.2-5.5-0.8c1-0.3,1.8-0.5,2.6-0.8c0.5-0.1,1,0.3,1.4-0.2c-0.7-0.7-1.4-1.2-2.1-1.9c-0.7-0.7-1.4-1.1-2.2-0.2
		c-3.4,0.8-6.8,1.5-10.2,2.3c-0.2,0.1-0.8-0.1-0.6,0.4c0.1,0.3,0.6,0.4,0.9,0.6C118,181.7,118.2,181.9,118.4,182.1z M65.4,184.5
		c-2.7,0.8-5.4,0.5-8.1,0.2c-2-0.3-4-0.3-5.6,1.2c0,0.2,0,0.3,0,0.4c0.4,1.1,1.5,1.1,2.4,1.3c5.3,1,10.7,2,16.1,2.8
		c1.8,0.3,3.8-0.2,5.2-1.6c2.3-2.3,4.4-4.9,6.6-7.3c0-0.8-0.7-1.1-1.3-1.2c-3-0.7-6-1.4-9-2.1c-2.3-1.1-2.5,1.8-4.3,2
		c0.7,0.6,1.3,0.4,1.8,0.4c0.8,0.7,2,0.1,2.8,0.9c-4.5,1.4-9.2-0.6-14,0.7c1,1,1.9,0.7,2.7,0.8C62.1,183.9,64,183.3,65.4,184.5z"/>
	<path class="st1" d="M61.7,43c-0.7,0.5-1.3,1-2,1.5c-1.5-0.9-2.4-2.3-3.3-3.7c-0.7-1.4-1.2-2.8-1.5-4.4c-0.5-2.4-1-4.9-3.6-6.2
		c-0.2,2.4-0.2,4.5-0.5,6.7c-0.5,3.5-0.1,6.9,3.2,9.2c0.6,0.7,1.5,1,2.4,1c-0.4,1.5-1.7,1.9-2.8,2.4c-6.8-1.6-10.4-5.1-11.2-10.8
		c-0.3-2.1,0.1-4.1,0.4-6.1c0.6-4.1,0.2-8.1-1.1-12.1c-1.1-3.3-0.8-3.6,2.7-3.4c5,0.3,9.3,1.9,12.8,5.6c3.4,3.7,3.8,8,2.9,12.5
		C59.5,38.1,60,40.7,61.7,43z M52,46.7c-2.6-3-3.2-6.5-2.7-10.4c0.3-2.1,0.4-4.4-0.2-6.6c-0.2-0.7-0.3-1.4,0.3-1.9
		c0.6-0.5,1.3-0.3,2,0.1c2.7,1.4,4.3,3.6,5,6.5c0.3,1.2,0.5,2.5,1.3,3.7c0.2-1.2,0.4-2.3,0.5-3.4c0.4-3.3,1.1-6.7-1.4-9.7
		c-3-3.7-7.1-5.3-11.6-5.9c-1.3-0.2-1.7,0.3-1.2,1.6c1.5,4,1.4,8.1,0.8,12.3C43.5,40.7,45.4,44.5,52,46.7z"/>
	<path class="st1" d="M140.1,44.6c-0.7-0.5-1.5-1-2.2-1.5c2.7-2.7,2.4-6.2,1.6-9.3c-2-7.7,5.4-15.2,12-16.1c1.4-0.2,2.8-0.4,4.2-0.5
		c2.9-0.4,3.4,0.2,2.4,3c-1.3,3.6-1.8,7.3-1.4,11.1c0.2,2.3,0.8,4.7,0.6,7c-0.5,5.9-4.4,9.7-11.1,11.1c-0.8-0.6-1.6-1.3-2.4-1.9
		c0.3-0.3,0.7-0.6,1-1c0.2-0.2,0.3-0.3,0.5-0.5l0,0c2.7-1,3.5-3.4,3.8-5.9c0.3-3-0.8-5.9-0.5-8.9c0-0.4,0.1-0.8-0.4-1
		c-0.5-0.1-0.7,0.3-0.9,0.5c-2.4,2.8-2.4,6.3-3.4,9.6C142.7,41.8,141.6,43.4,140.1,44.6z M148.2,46.6c5-1.3,7.6-5.3,7.1-10.3
		c-0.4-4.3-1.3-8.7-0.2-13.1c1.1-4.6,1.1-4.6-3.6-3.5c-5.3,1.2-9.7,5.2-10.4,9.7c-0.4,2.9,0.8,5.7,1,8.6c0.7-1.6,1.1-3.3,1.7-4.9
		c0.9-2.4,2.3-4.3,4.8-5.2c1.4-0.5,2.6-0.1,2.2,1.6c-0.7,2.7-0.4,5.3-0.3,8c0.2,3.4-0.4,6.4-2.5,9.1c-0.1,0.1-0.1,0.2-0.2,0.3
		C148,46.7,148.1,46.6,148.2,46.6z"/>
	<path class="st2" d="M151.5,61c0.7,0.5,1,1.2,1.3,2c-0.9,0.2-1.7,0.4-2.7,0.2c-1.7-0.4-3.5-0.8-5.3-0.7c-1.3,0.1-2.6,0.2-3,1.7
		c-0.4,1.6,0.7,2.5,2,3c4,1.7,8.2,2.2,12.4,3c3.3,8.8,5.3,18,6.7,27.3c1,6.5,1.5,13.1,1.7,19.7c0.5,11-0.9,21.7-5.4,31.9
		c-6,1.3-11.6-0.7-17.3-2.2c-4.3-1.1-8.6-2.4-13.2-2c-8.3,0.7-15.3,4.7-23.2,8.4c4.6-0.2,8.3-1.2,11.8-2.9c6.9-3.3,13.9-4,21.3-1.9
		c6.3,1.8,12.5,3.6,19.2,3.1c-1.3,3.1-3,4.1-6.2,3.5c-3.9-0.7-7.6-2-11.4-3c-6.6-1.7-13.2-1.6-19.6,1.1c-0.1-0.1-0.2-0.2-0.3-0.3
		c0.2-1.7-0.6-1.9-2-1.4c-2.2,0.8-4.4,1.7-6.6,2.3c-5.3,1.5-10.4-0.1-15.5-1.2c-7.3-1.5-14-5-21.4-6.1c-9-1.4-17.6-0.3-25.7,3.8
		c-1.9,1-3.5,2.4-4.3,4.4l0,0c-0.1,0-0.3,0-0.4,0c-4.7-5.5-6.1-12.3-7.6-19c-2.4-10.9-1.3-21.9-0.2-32.8c1.1-11.1,3.4-22,7.2-32.5
		c1.9-5.2,4.3-10.1,8-14.3c0.3,3.1,2.6,4.3,5.2,2.4c0.9-0.6,1.6-1.5,2.4-2.3c2.5-2.6,5.2-3.4,8.7-1.8c2.9,1.4,6.2,2,9.3,0.5
		c4.3-2,8.6-1.7,12.8-0.4c4.7,1.4,9.1,1.1,13.5-1.1c3.7-1.9,7.5-2.1,11.1,0.5c1.3,0.9,2.8,1.3,4.2,2c3.3,1.6,7.1,1.8,9.9,4.5
		c1.4,1.4,3.6,1.5,5.6,0c1.8-1.3,3.9-1.8,6.2-1.9c2.7-0.1,4.7,1.7,7.2,2.1C149,60.9,150.2,62.1,151.5,61z M49.4,78.1
		c-0.1,0.2-0.2,0.4-0.4,0.6l0,0c-0.6,0.1-0.6,0.5-0.5,0.9l0,0c-0.3,0.1-0.7,0.2-0.8,0.4c-1.6,3.1-2.3,6.3-1.4,9.7
		c1.1,3.8,1,7.7,0.2,11.6c-0.6,3.1-1.2,6.3-1.1,9.5c0.3,8.6,7.6,14.2,15.9,12c4.6-1.2,8-4.4,11.5-7.4c0.8-0.2,1.6-0.4,2.3-0.6
		c1.3,2.8,2.6,5.6,4,8.5c0.7,1.5,1.7,2.5,3.5,1.7c0.7-0.3,1.2-0.2,1.7,0.3c5.3,4.6,11.5,6,18.4,5.7c4.4-0.2,8.2-1.6,11.1-4.9
		c1.2-1.3,2.5-2.4,4.1-3c2.9-1.2,5-3.1,6-6.2c0.7,0,1.5,0.5,2-0.5c0.7,0,1.1,0.5,1.6,1c3.6,3.5,7.7,5.3,13,4.3
		c6.3-1.1,12.1-6.9,11.8-13.3c-0.3-7-1.8-13.9-0.5-21c0.8-8.1-4-15.6-12-18.4c-4.9-1.7-9.8-1.7-14.3,1.2
		c-7.2,4.7-11.2,11.3-10.9,20.1c-0.4,5.7,1.6,10.8,4.1,15.8c1.5,3,4.1,5.3,5.2,8.5c-0.6,0.1-1.1-0.1-1.5-0.5
		c-2.3-2.3-4.6-1.6-7.2-0.4c-4.5,2.1-9.3,3.3-14.3,3c-6.3-0.3-12.5-1.3-18.1-4.4c-2.2-1.2-4.3-1.6-6.6-0.1c0.1-1.2,1.1-2,1.7-3
		c2.7-3.9,5.6-7.7,5.9-12.7c0.1-0.5,0.1-0.9,0.2-1.4c2.4-8.3,0.6-15.6-5.6-21.7c-4-3.9-8.7-6.2-14.6-5.4c-6.2,0.8-10.4,4.4-13.9,9.1
		C49.4,77.3,49.3,77.7,49.4,78.1C49.3,78.1,49.4,78.1,49.4,78.1z M94.7,108.8c-1,1-0.2,1.5,0.6,2c3,1.7,6.1,1.7,9.3,1
		c1.2-0.3,1.5-1,1.3-2.1c1.2-2.2,0.9-3.4-1.2-4c-2.8-0.8-5.7-1-8.6-0.2C94.4,106,93.7,107,94.7,108.8z M86.8,60.6c0.9,0,1.9,0,2.8,0
		c1,0,1.7-0.3,2.1-1.2c0.5-1,0-1.9-0.6-2.6c-1.4-1.6-6.5-1.8-8.1-0.4c-0.8,0.7-1.3,1.6-1,2.7c0.3,1.1,1.2,1.5,2.4,1.5
		C85.2,60.6,86,60.6,86.8,60.6z M58.8,61.1c-0.1,1.5,0.9,2.5,2.3,2.2c2.4-0.5,4-2,5-4.2c0.5-1,0-1.9-0.6-2.6
		c-0.6-0.7-1.3-1.1-2.3-0.8C62.1,55.9,58.9,59.7,58.8,61.1z M109.4,59.6c2.8,0,4.3-1,4.2-2.7c-0.1-1.5-2.5-3.1-4.8-2.9
		c-1.8,0.1-3,1.1-3.2,2.8C105.4,58.3,107.3,59.6,109.4,59.6z"/>
	<path class="st3" d="M151.5,61c-1.3,1.1-2.5-0.1-3.7-0.3c-2.5-0.4-4.5-2.2-7.2-2.1c-2.3,0.1-4.4,0.5-6.2,1.9c-2,1.5-4.2,1.4-5.6,0
		c-2.9-2.8-6.7-3-9.9-4.5c-1.4-0.7-3-1.1-4.2-2c-3.7-2.6-7.4-2.4-11.1-0.5c-4.4,2.2-8.8,2.5-13.5,1.1c-4.3-1.3-8.6-1.6-12.8,0.4
		c-3.1,1.5-6.4,0.9-9.3-0.5c-3.5-1.6-6.2-0.9-8.7,1.8c-0.8,0.8-1.5,1.6-2.4,2.3c-2.6,1.8-4.9,0.7-5.2-2.4c2.9-3.9,6.2-7.3,10.5-9.7
		c-0.1,1.6-1.7,2.2-2.5,3.3c-0.5,0.7-1.6,1.1-1,2.5c4.7-3.4,9.2-6.6,13.8-9.9c7.5-5.3,14.2-11.4,18.9-19.4c-0.1,2.8-0.7,5.5-1.7,8.1
		c-0.6,1.5-1,3.1-1.5,4.6c-1.9,2.9-2.3,6.2-2.7,9.5c0.6-0.7,0.9-1.5,1.2-2.3c1.5-3.5,2.9-7.1,5.3-10.2c3.3-4.3,6.9-8.5,9.9-13.1
		c1.7,6,6.4,9.6,10.8,13.4c0.6,0.6,1.2,1.2,1.9,1.7c0.8,4.2,1.5,8.4,1.7,12.7c0.8-3.4,1.3-6.9,1.1-10.4c0-0.7-0.3-1.4-0.9-1.8
		c0.3-1.4-0.6-2.5-1.1-3.7c-0.9-2.1-2.5-3.8-2.6-6.2c2.8,2.5,5.7,5,7.1,8.7c0,0.5,0,1,0.5,1.2c0,0,0,0,0,0
		c1.1,6.7,3.2,13.1,7.3,18.7c-0.5-3.6-2.7-6.6-3.5-10.1c0.5-1.8-0.5-3.5-0.4-5.2c5.1,4.3,11.1,7.2,16.6,10.9
		c0.5,0.4,1.2,0.5,1.8,0.4C145.9,52.9,149.2,56.5,151.5,61z M57.4,53.1c0.1-0.2,0.3-0.3,0.4-0.5c-0.1,0-0.1-0.1-0.2-0.1
		C57.5,52.6,57.4,52.9,57.4,53.1c-0.1,0-0.1,0-0.2,0.1c0,0,0,0.1,0,0.1C57.2,53.2,57.3,53.1,57.4,53.1z M112.9,43.1
		c-0.3-7.5-5.5-11.7-10.7-16.7c0.4,1.9,1.2,3.1,2.2,4C108.4,33.9,111.4,38,112.9,43.1z"/>
	<path class="st4" d="M152.8,158.1c-0.5,0.6-1.1,1.2-1.7,1.7c-0.8-0.2-1.4,0.1-2.1,0.5c-0.2,0.2-0.4,0.3-0.5,0.5l0,0
		c-2.7,0.2-4.7,2-7.1,3c-3,1.1-6.1,1.8-9.1,3.5c1.6,0.7,2.9-0.7,4.6,0c-6.8,2.6-13.7,4-20.7,5c0.7,1.1,2.1,0.6,2.6,1.7
		c-2.9,0.4-5.7,0.8-8.5,1.3c0,0.1,0,0.3,0,0.4c3.3,0,6.5,0,9.8,0c-9.7,2-19.2,4.8-29.1,2.4c1.6-0.2,3.3-0.5,5.6-0.8
		c-5.1-0.8-9.7-1.6-14.5-2.3c3-0.9,6-0.3,9.3-1.5c-6.5-0.9-12.5-1.8-18.4-2.6c5.6,0.1,11.1,0.2,16.5-1.6c-5.5,0-11-0.7-16.6-1.4
		c1.3-0.7,2.7,0.2,3.9-0.9c-6.3-1.3-12.4-2-18.4-3.6c-1.4-0.4-2.8-1.2-4.3-1l0,0c-0.1-0.4-0.3-0.3-0.5,0c-1.7-1.4-3.3-2.8-4.3-4.8
		c6.2-4.1,13.2-4.5,20.4-4c8.4,0.6,16.2,3.6,24.2,5.7c7.8,2,15.5,2,22.6-2.1c8.9-5.2,18-5.3,27.4-2.2c3,1,6.2,1.9,9.4,1.7
		C153.1,157.1,152.7,157.5,152.8,158.1z M108.9,161.8c8.3-2,16.4-5.6,25.2-4.5C125,154.5,117,158.4,108.9,161.8z M85.7,158.8
		c-7.2-3.7-14.7-2.8-22.2-1.5c3.8,0.8,7.4-0.3,11.2-0.2C78.5,157.1,82,158.9,85.7,158.8z M127.9,155.5c5.2-0.4,10.4,0.6,15.6,0.7
		C138.4,154.4,133.2,153.5,127.9,155.5z M55.3,156.8c4.3-0.7,8.8-0.7,13.1-1.6C64.4,154.1,58.7,154.8,55.3,156.8z"/>
	<path class="st3" d="M32.7,125.8c0.4,6.9,1.8,13.6,3.9,20.2c1,3,0.3,6.1,0.4,9.1c0,1.3-0.8,1.1-1.6,0.6c-1.2-0.9-1.8-2.2-2.4-3.5
		c-0.7-1.6-1.3-3.2-2.1-5.3c-0.1,3.1,0.3,5.6,1.6,7.7c1.4,2.3,0.8,4.5,0.6,6.7c-0.1,0.9-0.4,1.8-0.6,2.7c-0.6,2.5-2.2,3.1-4.4,1.6
		c-1-0.7-1.9-1.4-2.5-2.5c-0.2-0.2-0.3-0.4-0.5-0.6c0,0,0,0,0,0c0-0.4,0-0.8-0.5-1c0,0,0,0,0,0c0.2-1.1-0.2-2-0.6-3
		c-3.9-10.4-1.1-20,3.4-29.5c0.1-0.2,0.5-0.4,0.7-0.5c-0.3,2.2-1.4,4.1-2.1,6.2c-1.8,5.5-1.9,11,0.2,16.9c0.7-2.6-0.2-4.6-0.2-6.6
		c0-1.3-0.4-2.7,0.3-3.9c0.2,1.3,0.5,2.6,0.7,3.8C27.9,138.3,30.1,132,32.7,125.8z"/>
	<path class="st3" d="M173.2,151.7c2.3-4.8,2.2-9.8,0.9-14.8c-0.6-2.3-1.4-4.5-2.1-6.7c1.8,1.4,2,3.6,2.7,5.5
		c2.3,6.5,3.4,13.1,1.6,19.9c-0.7,2.6-2.2,4.8-2.3,7.6c0,0,0,0,0,0c-0.2,0.2-0.3,0.5-0.5,0.7c-0.6,0.9-1.5,1.6-2.5,2.1
		c-2.2,1.1-3.3,0.6-3.9-1.7c-0.5-2.1-0.8-4.1-1.2-6.2c-0.2-0.8,0.3-1.5,0.6-2.2c1.1-2.2,1.9-4.5,1.7-7c0.2-4.1-0.1-8.2-0.8-12.2
		c0.1,2.4-0.4,4.8-0.6,7.2c-0.5,4.2-1.4,8.3-4.1,11.7c-1-6,1-11.6,2.4-17.3c0.9-3.8,1.5-7.7,1.8-11.6c4.6,10.3,5.9,21,3.3,32.2
		C172.3,156.8,172.3,154.1,173.2,151.7z"/>
	<path class="st2" d="M120.4,153c-4.1,2-8,4.3-12.6,5c-5.2,0.9-10.1-0.4-15-1.7c-6-1.6-11.8-3.8-17.9-4.7
		c-8.2-1.3-16.3-1.3-23.9,2.6c-1.7,0.9-3.3,1.8-4.7,3.2c-0.8-0.6-1.3-1.4-1.7-2.2c0-0.2,0-0.3,0-0.5c0,0,0,0,0,0
		c1.1-0.4,2.3-0.7,3.3-1.3c9.8-5.7,20.2-6,30.9-3.6c6,1.4,11.7,4.1,17.8,5.1c5.2,0.8,10.4,2,15.6,0.6c2.7-0.7,5.3-1.8,8-2.8
		C120.3,152.8,120.3,152.9,120.4,153z"/>
	<path class="st3" d="M157.6,151.4c-6.6,0.6-12.9-1.3-19.2-3.1c-7.4-2.1-14.4-1.4-21.3,1.9c-3.5,1.7-7.2,2.7-11.8,2.9
		c7.9-3.7,14.9-7.7,23.2-8.4c4.5-0.4,8.9,0.9,13.2,2c5.7,1.5,11.3,3.5,17.3,2.2c-0.1,0.7-0.4,1.4-1,1.9
		C157.9,151.1,157.8,151.2,157.6,151.4L157.6,151.4z"/>
	<path class="st2" d="M91.3,22.8c-4.7,8-11.4,14.1-18.9,19.4c-4.6,3.3-9.1,6.6-13.8,9.9c-0.6-1.4,0.5-1.8,1-2.5
		c0.8-1.1,2.4-1.7,2.5-3.3c0.3-0.5,0.8-0.8,1.3-0.9c0.4,0,0.9,0,0.9-0.6c0,0,0,0,0,0c0.3,0,0.5-0.1,0.5-0.4c0,0,0,0,0,0
		c0.4,0,0.8,0,0.9-0.6c0,0,0,0,0,0c0.3,0,0.5-0.1,0.6-0.4c3-2,6-3.9,9-5.9c6.5-4.3,12.4-9.2,16-17C91.3,21.7,91.3,22.3,91.3,22.8z"
		/>
	<path class="st2" d="M174.1,163.2c0.1-2.7,1.6-5,2.3-7.6c1.7-6.8,0.7-13.4-1.6-19.9c-0.7-1.9-0.9-4.1-2.7-5.5c0,0,0,0,0,0
		c0.2-0.5,0.1-0.8-0.4-1c0,0,0,0,0,0c0.1-0.4,0-0.8-0.4-1c-0.6-1.2-1.2-2.5-1.2-4c2.5,3,4.7,6.2,6.2,9.8c4.2,9.7,4.7,19.2-1.4,28.4
		C174.7,162.7,174.4,162.9,174.1,163.2z"/>
	<path class="st3" d="M156,70.1c-4.2-0.7-8.4-1.3-12.4-3c-1.3-0.5-2.4-1.4-2-3c0.4-1.5,1.7-1.6,3-1.7c1.8-0.1,3.6,0.3,5.3,0.7
		c1,0.2,1.8,0.1,2.7-0.2C154.2,65.2,155.1,67.6,156,70.1z"/>
	<path class="st5" d="M49.3,157.5c1,2,2.6,3.4,4.3,4.8c0.2,0,0.3,0,0.5,0c0,0,0,0,0,0c0.6,1.2,1.6,1.9,2.6,2.7
		c5.6,4.1,11.6,7.6,18.1,10.2c2.4,1,5,1.8,7.2,3.2c-4.5-0.3-8.5-2.2-12.6-3.7c-8.6-3.2-15.6-8.6-21.6-15.5c-0.3-0.3-0.6-0.5-0.9-0.7
		C47.6,157.8,48.4,157.6,49.3,157.5z"/>
	<path class="st2" d="M28.2,128.8c-0.2,0.2-0.6,0.3-0.7,0.5c-4.5,9.4-7.2,19.1-3.4,29.5c0.4,0.9,0.8,1.9,0.6,3
		c-3.1-3.8-4.1-8.3-4.3-13.1c-0.5-9.6,3.9-17.3,9.5-25.2c-0.1,1.6-0.5,2.4-0.9,3.2c-0.4,0.2-0.5,0.6-0.4,1c0,0,0,0,0,0
		C28.1,127.9,28.1,128.3,28.2,128.8C28.2,128.8,28.2,128.8,28.2,128.8z"/>
	<path class="st2" d="M173.2,151.7c-0.9,2.4-1,5-2.9,7.2c2.6-11.1,1.3-21.8-3.3-32.2c0-0.8-0.3-1.5,0.4-2.4c1.1,1.6,1.4,3.4,2.1,5.1
		c1.6,3.9,3,7.8,3.8,12c0.4,2.5-0.1,4.8-0.2,7.2C173.1,149.7,173.2,150.7,173.2,151.7z"/>
	<path class="st2" d="M101.9,19.5c-3,4.6-6.6,8.7-9.9,13.1c-2.4,3.1-3.8,6.7-5.3,10.2c-0.3,0.8-0.7,1.6-1.2,2.3
		c0.4-3.3,0.8-6.6,2.7-9.5c0.6,0.2,0.9-0.1,1.1-0.6c2.5-4.5,5.7-8.4,8.8-12.4c1.2-1.6,2.2-3.4,3-5.3
		C102.1,17.8,101.7,18.8,101.9,19.5z"/>
	<path class="st2" d="M142,49.7c-0.6,0.1-1.3,0-1.8-0.4c-5.5-3.7-11.5-6.7-16.6-10.9c0.5-1.5,1.3-0.2,1.6,0c2.9,1.7,5.8,3.4,8.6,5.2
		C136.7,45.4,139.7,47.1,142,49.7z"/>
	<path class="st2" d="M162.8,155.6c2.8-3.4,3.7-7.5,4.1-11.7c0.3-2.4,0.8-4.8,0.6-7.2c0.8,4.1,1,8.1,0.8,12.2
		c-1.4,1.5-1.6,3.5-2.7,5.1c-0.6,0.8-1.2,1.7-2.1,2.1C163,156.5,162.8,156.3,162.8,155.6z"/>
	<path class="st6" d="M56.5,47c-0.9,0-1.8-0.2-2.4-1c-0.2-0.8-0.2-1.6-0.5-2.3c-0.4-1-0.4-2,0.3-2.9c0.8-1.1,1.7-0.1,2.6-0.1
		c0.9,1.4,1.9,2.8,3.3,3.7C58.6,45.2,58,46.7,56.5,47z"/>
	<path class="st2" d="M124,43.6c0.8,3.5,2.9,6.5,3.5,10.1c-4.1-5.6-6.1-12-7.3-18.7c1.7,2.3,2.2,5.1,3.2,7.7
		C123.6,43.1,123.5,43.5,124,43.6z"/>
	<path class="st2" d="M32.7,125.8c-2.6,6.2-4.8,12.5-5.4,19.3c-0.2-1.3-0.5-2.6-0.7-3.8c0.1-3,1.3-5.7,2.3-8.5
		c1.1-3.1,2.3-6.2,3.8-9.3C32.7,124.3,32.7,125.1,32.7,125.8z"/>
	<path class="st6" d="M140.1,44.6c1.5-1.2,2.6-2.7,3.8-4.3c1.1-0.6,1.8-0.3,1.9,0.9c0.1,1.6,0.1,3.2-0.5,4.8c0,0,0,0,0,0
		c-0.2,0.2-0.3,0.3-0.5,0.5c-0.3,0.3-0.7,0.6-1,1C142.6,46.5,141.3,45.5,140.1,44.6z"/>
	<path class="st2" d="M116.4,35.1c0.6,0.4,0.9,1.1,0.9,1.8c0.2,3.5-0.3,6.9-1.1,10.4c-0.2-4.3-0.9-8.5-1.7-12.7
		c0.5,0.1,0.8,0.8,1.4,0.5c0,0,0,0,0,0c0,0.1,0,0.2,0,0.3C116.1,35.3,116.3,35.2,116.4,35.1L116.4,35.1z"/>
	<path class="st2" d="M112.7,25.2c0.2,2.4,1.8,4.1,2.6,6.2c0.5,1.2,1.4,2.3,1.1,3.7c0,0,0,0,0,0c-0.1,0-0.3,0-0.4-0.1c0,0,0,0,0,0
		c-2.8-4-4.9-8.3-6-13.2c1.6,0.4,1.3,2,2.1,2.9C112.3,24.9,112.5,25,112.7,25.2L112.7,25.2z"/>
	<path class="st5" d="M152.8,158.1c-0.1-0.6,0.2-1,0.5-1.5c0.3,0,0.6-0.1,0.9-0.1C154,157.2,153.4,157.6,152.8,158.1z"/>
	<path class="st3" d="M171.7,129.2c0.5,0.1,0.6,0.5,0.4,1C171.7,129.9,171.6,129.6,171.7,129.2z"/>
	<path class="st2" d="M120.3,35.1c-0.5-0.2-0.5-0.7-0.5-1.2C120.2,34.2,120.3,34.6,120.3,35.1z"/>
	<path class="st3" d="M171.2,128.2c0.5,0.2,0.5,0.6,0.4,1C171.3,129,171.2,128.6,171.2,128.2z"/>
	<path class="st2" d="M24.7,161.8c0.5,0.2,0.5,0.6,0.5,1C24.9,162.5,24.7,162.2,24.7,161.8z"/>
	<path class="st3" d="M28.2,128.8c-0.2-0.5-0.1-0.8,0.4-1C28.7,128.2,28.6,128.5,28.2,128.8z"/>
	<path class="st3" d="M28.6,127.8c-0.1-0.4,0-0.8,0.4-1C29.1,127.2,29.1,127.6,28.6,127.8z"/>
	<path class="st3" d="M65.8,43.9c0,0.6-0.4,0.6-0.9,0.6C65,44.1,65.4,44,65.8,43.9z"/>
	<path class="st3" d="M64.4,44.9c-0.1,0.6-0.5,0.6-0.9,0.6C63.6,45.1,64,44.9,64.4,44.9z"/>
	<path class="st2" d="M157.6,151.4c0.2-0.2,0.3-0.3,0.5-0.5C158,151.2,158,151.5,157.6,151.4z"/>
	<path class="st3" d="M112.7,25.2c-0.2-0.2-0.3-0.3-0.5-0.5C112.5,24.7,112.6,24.9,112.7,25.2z"/>
	<path class="st3" d="M44.6,154.7c0,0.2,0,0.3,0,0.5c-0.1-0.2-0.3-0.3-0.4-0.5C44.3,154.6,44.5,154.6,44.6,154.7z"/>
	<path class="st2" d="M25.2,162.7c0.2,0.2,0.3,0.4,0.5,0.6C25.5,163.1,25.4,162.9,25.2,162.7z"/>
	<path class="st2" d="M173.6,163.9c0.2-0.2,0.3-0.5,0.5-0.7C174,163.4,173.8,163.7,173.6,163.9z"/>
	<path class="st3" d="M66.3,43.5c-0.1,0.3-0.2,0.4-0.6,0.4C66,43.8,66.2,43.7,66.3,43.5z"/>
	<path class="st3" d="M64.9,44.5c-0.1,0.3-0.2,0.4-0.5,0.4C64.6,44.8,64.7,44.7,64.9,44.5z"/>
	<path class="st6" d="M82,178.3c-2.2-1.4-4.8-2.2-7.2-3.2c-6.5-2.6-12.5-6.1-18.1-10.2c-1-0.7-2-1.5-2.6-2.7c1.6-0.2,2.9,0.6,4.3,1
		c5.9,1.6,12.1,2.3,18.4,3.6c-1.3,1.1-2.6,0.2-3.9,0.9c5.6,0.7,11.1,1.3,16.6,1.4c-5.4,1.8-10.9,1.7-16.5,1.6
		c6,0.8,11.9,1.7,18.4,2.6c-3.3,1.1-6.3,0.6-9.3,1.5c4.8,0.8,9.4,1.5,14.5,2.3c-2.3,0.3-4,0.6-5.6,0.8c9.9,2.4,19.4-0.4,29.1-2.4
		c-3.3,0-6.5,0-9.8,0c0-0.1,0-0.3,0-0.4c2.8-0.4,5.7-0.8,8.5-1.3c-0.5-1-1.9-0.5-2.6-1.7c7-1,13.9-2.4,20.7-5c-1.7-0.7-3,0.7-4.6,0
		c2.9-1.6,6.1-2.3,9.1-3.5c2.4-0.9,4.4-2.7,7.1-3c-0.3,0.3-0.5,0.7-0.8,0.9c-9.5,7-19.7,12.5-31.1,15.7c-3.9,1.1-7.8,2.2-11.7,3.3
		c-6.6,1-13.2,0.7-19.6-1.5c-0.7-0.2-1.4,0.2-2-0.4C83.1,178.2,82.5,178.3,82,178.3L82,178.3z M71.1,169.8c-0.2,0.1-0.4,0.2-0.5,0.3
		c0.1,0.1,0.3,0.2,0.4,0.2c0.2,0,0.4-0.1,0.6-0.2C71.4,170,71.3,169.9,71.1,169.8z"/>
	<path class="st4" d="M117.9,181.5c-0.3-0.2-0.8-0.3-0.9-0.6c-0.1-0.5,0.4-0.3,0.6-0.4c3.4-0.8,6.8-1.5,10.2-2.3
		c0.9,0.8,1.9,1.5,2.8,2.3c-0.8,0.2-1.6,0.5-2.6,0.8c1.9,0.6,3.7,0.8,5.5,0.8c0.7,0.7,1.6,0.3,2.5,0.4c1.4,0.2,2.8-0.4,4.1,0.4
		c-1.9,0.4-3.8,0.8-5.9,1.2c2.7,0.7,5.3,0.8,7.8,0.7c1.1,0.9,2.7-0.1,3.7,1c-0.8,0.8-1.9,0.4-2.9,0.7c-7.8,1.7-15.3,0.7-22.1-3.7
		c-0.7-0.5-1.5-0.9-2.4-0.8c0,0,0,0,0,0C118.2,181.9,118,181.7,117.9,181.5z"/>
	<path class="st5" d="M105,180.7c3.9-1.1,7.8-2.2,11.7-3.3c11.4-3.2,21.7-8.7,31.1-15.7c0.3-0.2,0.5-0.6,0.8-0.9c0,0,0,0,0,0
		c0.2-0.2,0.4-0.3,0.5-0.5c0.6-0.3,1.3-0.6,2.1-0.5c-5.3,6-11.5,10.9-19,14c-6.7,2.8-13.6,4.8-20.6,6.4
		C109.4,180.8,107.2,180.5,105,180.7z"/>
	<path class="st4" d="M51.7,186.3c0-0.1,0-0.3,0-0.4c2.7,0.1,5.3-0.1,8,0.3c2,0.3,4.2-0.3,6.2-1.1c0.1,0,1.1-0.1,0.3-0.6
		c-0.2-0.1-0.5,0-0.7-0.1c-1.4-1.2-3.3-0.5-4.7-1.4c2.3,0,4.5,0.1,6.7-0.1c1.6-0.2,3.4,0.3,4.6-1.4c-0.8-0.8-2-0.2-2.8-0.9
		c0.8-0.8,1.7-1.6,2.5-2.4c3,0.7,6,1.4,9,2.1c0.6,0.1,1.2,0.4,1.3,1.2c-2.4,0.4-4.4,1.9-6.7,2.7c-5.1,1.7-9.9,4.3-15.6,3
		C57,186.7,54.3,186.6,51.7,186.3z"/>
	<path class="st6" d="M51.7,186.3c2.6,0.3,5.3,0.4,7.9,0.9c5.7,1.3,10.6-1.3,15.6-3c2.3-0.8,4.3-2.3,6.7-2.7c-2.2,2.4-4.3,5-6.6,7.3
		c-1.4,1.4-3.4,1.9-5.2,1.6c-5.4-0.8-10.7-1.8-16.1-2.8C53.2,187.5,52.1,187.4,51.7,186.3z"/>
	<path class="st6" d="M118.4,182.1c0.9-0.1,1.7,0.4,2.4,0.8c6.8,4.4,14.3,5.3,22.1,3.7c1-0.2,2.1,0.2,2.9-0.7c0.8-0.1,1.5,0.1,2,0.8
		c-2.3,1.7-5.2,1.3-7.8,2c-3.2,0.8-6.4,1.4-9.6,1.8c-2.4,0.3-4.8-0.1-6.6-2.2C122,186.1,120.2,184.1,118.4,182.1z"/>
	<path class="st5" d="M65.4,184.5c0.2,0,0.5-0.1,0.7,0.1c0.8,0.6-0.2,0.6-0.3,0.6c-2,0.8-4.1,1.4-6.2,1.1c-2.7-0.4-5.3-0.2-8-0.3
		c1.6-1.6,3.6-1.5,5.6-1.2C60,185,62.7,185.3,65.4,184.5z"/>
	<path class="st5" d="M72,181.6c-1.1,1.7-3,1.2-4.6,1.4c-2.2,0.2-4.5,0.1-6.7,0.1c-0.8-0.2-1.7,0.2-2.7-0.8
		C62.8,181,67.5,182.9,72,181.6z"/>
	<path class="st5" d="M147.8,186.6c-0.5-0.6-1.2-0.9-2-0.8c-1.1-1-2.6-0.1-3.7-1c1.9-1,3.8-0.4,5.6,0.3
		C148.5,185.5,148.8,186.1,147.8,186.6z"/>
	<path class="st5" d="M140.1,183c-1.3-0.8-2.8-0.2-4.1-0.4c-0.8-0.1-1.7,0.3-2.5-0.4c2.7,0,5.4-1.2,8.1,0.2
		C141.4,183.2,140.7,182.9,140.1,183z"/>
	<path class="st5" d="M71.7,178.2c-0.8,0.8-1.7,1.6-2.5,2.4c-0.5-0.1-1.1,0.2-1.8-0.4C69.2,180.1,69.3,177.1,71.7,178.2z"/>
	<path class="st5" d="M130.7,180.6c-0.9-0.8-1.9-1.5-2.8-2.3c0.8-0.9,1.5-0.5,2.2,0.2c0.7,0.7,1.4,1.3,2.1,1.9
		C131.7,180.9,131.2,180.5,130.7,180.6z"/>
	<path class="st5" d="M82,178.3c0.6,0,1.1,0,1.5,0.5C82.9,178.7,82.3,179,82,178.3z"/>
	<path class="st6" d="M117.9,181.5c0.2,0.2,0.3,0.3,0.5,0.5C118.2,181.9,118,181.7,117.9,181.5z"/>
	<path class="st5" d="M52,46.7c-6.6-2.2-8.5-6-7.3-13.7c0.7-4.2,0.7-8.3-0.8-12.3c-0.5-1.4,0-1.8,1.2-1.6c4.6,0.6,8.6,2.3,11.6,5.9
		c2.5,3,1.8,6.3,1.4,9.7c-0.1,1.1-0.3,2.2-0.5,3.4c-0.8-1.2-1-2.4-1.3-3.7c-0.7-2.9-2.3-5.1-5-6.5c-0.7-0.3-1.4-0.5-2-0.1
		c-0.7,0.5-0.6,1.2-0.3,1.9c0.7,2.2,0.5,4.4,0.2,6.6C48.8,40.2,49.3,43.6,52,46.7z"/>
	<path class="st4" d="M56.4,40.8c-0.9,0-1.8-1-2.6,0.1c-0.7,0.9-0.7,1.8-0.3,2.9c0.3,0.7,0.4,1.5,0.5,2.3c-3.3-2.2-3.7-5.7-3.2-9.2
		c0.3-2.2,0.3-4.3,0.5-6.7c2.7,1.3,3.2,3.8,3.6,6.2C55.2,37.9,55.7,39.4,56.4,40.8z"/>
	<path class="st5" d="M148,46.4c2.1-2.7,2.7-5.7,2.5-9.1c-0.1-2.6-0.4-5.3,0.3-8c0.4-1.7-0.7-2.1-2.2-1.6c-2.5,0.9-3.9,2.8-4.8,5.2
		c-0.6,1.6-1,3.3-1.7,4.9c-0.2-2.9-1.4-5.7-1-8.6c0.7-4.5,5.1-8.6,10.4-9.7c4.7-1,4.7-1,3.6,3.5c-1.1,4.4-0.3,8.8,0.2,13.1
		c0.5,5.1-2.1,9.1-7.1,10.3C148.2,46.5,148.1,46.4,148,46.4z"/>
	<path class="st4" d="M145.3,46c0.5-1.5,0.6-3.1,0.5-4.8c-0.1-1.3-0.8-1.6-1.9-0.9c1-3.2,1-6.8,3.4-9.6c0.3-0.3,0.5-0.7,0.9-0.5
		c0.5,0.2,0.4,0.6,0.4,1c-0.3,3,0.8,5.9,0.5,8.9C148.8,42.6,148,44.9,145.3,46z"/>
	<path class="st4" d="M144.8,46.4c0.2-0.2,0.3-0.3,0.5-0.5C145.1,46.1,145,46.3,144.8,46.4z"/>
	<path class="st5" d="M148.2,46.6c-0.1,0-0.2,0.1-0.4,0.1c0.1-0.1,0.1-0.2,0.2-0.3C148.1,46.4,148.2,46.5,148.2,46.6z"/>
	<path class="st0" d="M49.9,77.2c3.5-4.8,7.7-8.3,13.9-9.1c5.9-0.8,10.6,1.5,14.6,5.4c6.2,6.1,8,13.4,5.6,21.7
		c-0.1,0.4-0.1,0.9-0.2,1.4c-0.1,0.2-0.3,0.3-0.4,0.5c-3,8.1-8.8,13.2-16.8,16c-10.4,3.7-17.4-1.9-16-12.7c0.4-2.9,0.6-6-0.9-8.8
		c-2.1-3.8-2.6-7.8-1.3-12c0,0,0,0,0,0c0.4-0.2,0.5-0.5,0.5-0.9c0,0,0,0,0,0c0.1-0.2,0.2-0.4,0.4-0.6c0,0,0,0,0,0
		C49.8,78,49.8,77.6,49.9,77.2z M67.3,76.2c-0.8-0.1-0.9-1-1.5-1.3c-1.3-0.8-2.6-1.7-4.1-0.5c-1.3,1-2.1,2.4-1.6,4.1
		c0.5,1.9,2.1,2.2,3.7,2.3C65.9,80.9,67.3,79,67.3,76.2c0.4,0.2,0.8,0.6,1.3,0.8c1.2,0.4,2.3,0.1,3.2-0.8c0.7-0.8,0.6-1.7,0.1-2.6
		c-0.7-1.1-1.9-1.5-3.1-1.1C66.8,73.1,67.3,74.8,67.3,76.2z M79.5,99.2c-8.8,6.2-17.6,4.1-22.5-3.4C52.5,89,51.9,77,63.2,70.7
		C57.4,71.1,50.6,78,50.2,84c-0.1,1.3,0,2.5,0.6,3.7c2.7,4.8,3.1,9.9,2.1,15.3c-0.9,5,2,8.4,7.1,8.7c1.6,0.1,3.1,0,4.7-0.4
		C71.2,109.1,76.4,105.4,79.5,99.2z"/>
	<path class="st0" d="M114.6,90.3c-0.3-8.8,3.7-15.4,10.9-20.1c4.5-2.9,9.4-2.9,14.3-1.2c8,2.8,12.8,10.3,12,18.4
		c-2.6,4.6-3.6,9.4-2.5,14.7c1.4,6.6-3.2,11.9-9.9,11.9c-9.1-0.1-15.7-4.8-20.7-12C116.3,98.5,115.3,94.4,114.6,90.3z M132.5,76.2
		c0-0.4,0-0.8,0-1.1c0.1-1.2-0.3-2.3-1.5-2.6c-1.3-0.3-2.5,0.1-3.2,1.4c-0.6,1.1-0.4,2,0.6,2.6c1.1,0.8,2.2,1.1,3.4,0
		C132,76.4,132.2,76.1,132.5,76.2c0,0.3,0,0.6,0,0.9c0,2,1.1,3.3,3,3.6c1.6,0.3,3.2-0.1,4-1.8c0.8-1.8,0-3.4-1.4-4.6
		c-1.7-1.3-3.1-0.3-4.4,0.7C133.3,75.5,132.9,75.9,132.5,76.2z M119.8,98.8c3.9,7.2,9.5,11.2,16.8,12.7c6.9,1.4,11-2.4,10-9.3
		c-0.7-5.2-0.2-10,2.3-14.5c0.5-1,0.6-2.1,0.6-3.2c0-6.1-6.6-13.1-13-13.8c9.8,7.8,11.9,16.2,6.2,25
		C137.7,103.6,130.9,104.6,119.8,98.8z"/>
	<path class="st3" d="M48.5,79.6c-1.3,4.2-0.8,8.2,1.3,12c1.5,2.8,1.2,5.8,0.9,8.8c-1.3,10.8,5.6,16.4,16,12.7
		c8-2.8,13.8-7.9,16.8-16c0.1-0.2,0.3-0.4,0.4-0.5c-0.3,5-3.2,8.8-5.9,12.7c-0.6,0.9-1.6,1.7-1.7,3c-1.2,0.5-2.4,1-3.6,1.5
		c-0.6,0.3-1.6,0.5-1.3,1.3c0.2,0.7,1.1,0.2,1.7,0.4c-3.5,3-6.9,6.2-11.5,7.4c-8.2,2.2-15.5-3.5-15.9-12c-0.1-3.2,0.4-6.4,1.1-9.5
		c0.8-3.9,0.9-7.7-0.2-11.6c-1-3.4-0.2-6.7,1.4-9.7C47.9,79.9,48.3,79.8,48.5,79.6z"/>
	<path class="st3" d="M114.6,90.3c0.7,4.1,1.7,8.2,4.1,11.7c5,7.2,11.6,12,20.7,12c6.8,0,11.3-5.3,9.9-11.9
		c-1.1-5.3-0.1-10.1,2.5-14.7c-1.3,7,0.2,14,0.5,21c0.3,6.4-5.4,12.1-11.8,13.3c-5.3,1-9.3-0.8-13-4.3c-0.4-0.4-0.8-1-1.6-1
		c-0.1-0.7-0.7-0.9-1.1-1.3c-0.2-0.5-0.5-0.6-1-0.6l0,0.1c-1.1-3.2-3.8-5.5-5.2-8.5C116.3,101.1,114.2,96.1,114.6,90.3z"/>
	<path class="st0" d="M125,115.1c0.4,0.4,1,0.7,1.1,1.3c-0.4,1-1.3,0.6-2,0.5c-0.6-0.5-1.1-0.7-1.7,0.2c-3.1,4.2-7.9,6.2-11.9,9.3
		c-0.6,0.5-1.4,0.7-2.1,0.9c-8.7,2.5-16.7,1.3-23.7-4.8c-0.5-0.4-0.8-1.3-1.6-0.3c-1.2,1.4-2.1,0.5-2.9-0.5
		c-1.4-1.8-2.5-3.8-3.4-5.9c-0.2-0.4-0.1-1.7-1.3-0.9c-0.8,0.2-1.6,0.4-2.3,0.6c-0.6-0.2-1.5,0.3-1.7-0.4c-0.2-0.9,0.8-1.1,1.3-1.3
		c1.2-0.6,2.4-1,3.6-1.5c2.2-1.5,4.3-1.1,6.6,0.1c5.6,3,11.8,4.1,18.1,4.4c5,0.2,9.8-1,14.3-3c2.6-1.2,4.9-1.9,7.2,0.4
		c0.4,0.4,1,0.5,1.5,0.5c0,0,0-0.1,0-0.1C124.1,115.1,124.6,115,125,115.1z M113.2,121.1c-0.1-3-0.8-4.1-2.6-3.6
		c-7.2,2-14.3,1.5-21.3-0.5c-0.6-0.2-1.2-0.5-2,0.1c-2.9,2.4-2.9,3.4,0.2,5.5c0.9,0.6,1.9,1.2,2.8,1.7c1,0.5,1.8,0.6,2.9-0.4
		c2.9-2.7,7.7-2.6,10.1,0.5c1.6,2.2,3.1,1.7,4.9,0.9c1.4-0.6,2.7-1.2,3.9-2.1C112.8,122.7,113.5,122.1,113.2,121.1z M81.7,120.2
		c1.4-1.6,2.5-3,3.8-4.5c-2.1-0.8-3.9-1.5-5.7-2.3c-0.8-0.4-1.3,0-1.7,0.3c-0.7,0.6,0.2,0.9,0.4,1.3
		C79.5,116.7,80.6,118.4,81.7,120.2z M115.3,120.4c2.1-1.1,3.6-2.5,5-4.1c0.3-0.3,1.1-0.7,0.4-1.3c-0.5-0.4-1-1.1-1.8-0.8
		c-1.5,0.6-3.3,1-4.3,2.1c-0.8,0.8,0.5,2.4,0.6,3.7C115.1,120.2,115.2,120.2,115.3,120.4z M94.1,125.4c2.3,1.1,4.7,1.1,7,1.3
		c0.4,0,0.9,0.1,1-0.3c0.2-0.5-0.3-0.8-0.6-1.1C99.7,123.4,96.3,123.5,94.1,125.4z"/>
	<path class="st3" d="M120.2,152.7c-2.7,0.9-5.3,2.1-8,2.8c-5.2,1.4-10.4,0.2-15.6-0.6c-6.1-1-11.8-3.7-17.8-5.1
		c-10.7-2.4-21.1-2.1-30.9,3.6c-1,0.6-2.2,0.8-3.3,1.3c0.8-2.1,2.4-3.5,4.3-4.4c8.1-4.1,16.7-5.2,25.7-3.8
		c7.4,1.1,14.1,4.6,21.4,6.1c5.1,1,10.2,2.7,15.5,1.2c2.3-0.6,4.4-1.5,6.6-2.3C119.6,150.8,120.3,151.1,120.2,152.7z"/>
	<path class="st3" d="M75.3,114.9c1.2-0.8,1.1,0.5,1.3,0.9c0.9,2.1,2,4.1,3.4,5.9c0.7,1,1.7,1.9,2.9,0.5c0.8-1,1.2-0.1,1.6,0.3
		c7,6,15,7.3,23.7,4.8c0.7-0.2,1.5-0.5,2.1-0.9c4-3,8.9-5,11.9-9.3c0.6-0.9,1.1-0.6,1.7-0.2c-0.9,3.1-3.1,5-6,6.2
		c-1.6,0.7-2.9,1.7-4.1,3c-2.9,3.3-6.7,4.7-11.1,4.9c-6.8,0.3-13.1-1.1-18.4-5.7c-0.5-0.5-1.1-0.5-1.7-0.3c-1.8,0.7-2.8-0.2-3.5-1.7
		C78,120.6,76.7,117.7,75.3,114.9z"/>
	<path class="st0" d="M94.7,108.8c-1-1.8-0.3-2.8,1.5-3.3c2.9-0.8,5.8-0.6,8.6,0.2c2.1,0.6,2.3,1.8,1.2,4
		C102.1,110.8,98.4,110.6,94.7,108.8z M98.8,107.6c1.6,0.9,1.6,0.9,3.7,0.3C101.3,107.2,100.2,107.4,98.8,107.6z"/>
	<path class="st3" d="M86.8,60.6c-0.8,0-1.6,0-2.3,0c-1.1,0-2-0.3-2.4-1.5c-0.3-1.1,0.1-2,1-2.7c1.6-1.4,6.7-1.2,8.1,0.4
		c0.6,0.7,1.1,1.6,0.6,2.6c-0.4,0.9-1.2,1.2-2.1,1.2C88.6,60.6,87.7,60.6,86.8,60.6z"/>
	<path class="st3" d="M58.8,61.1c0.1-1.3,3.2-5.1,4.5-5.5c1-0.3,1.7,0.2,2.3,0.8c0.6,0.7,1.1,1.6,0.6,2.6c-1,2.2-2.7,3.7-5,4.2
		C59.7,63.5,58.7,62.5,58.8,61.1z"/>
	<path class="st3" d="M109.4,59.6c-2.1,0-4-1.3-3.7-2.8c0.3-1.7,1.4-2.8,3.2-2.8c2.3-0.1,4.7,1.4,4.8,2.9
		C113.7,58.7,112.2,59.6,109.4,59.6z"/>
	<path class="st3" d="M94.7,108.8c3.6,1.8,7.4,2,11.2,0.8c0.3,1.1-0.1,1.8-1.3,2.1c-3.2,0.8-6.4,0.7-9.3-1
		C94.5,110.3,93.8,109.8,94.7,108.8z"/>
	<path class="st3" d="M49,78.7c0,0.4-0.1,0.7-0.5,0.9C48.4,79.2,48.4,78.8,49,78.7z"/>
	<path class="st3" d="M49.9,77.2c-0.1,0.4-0.1,0.8-0.6,0.9C49.3,77.7,49.4,77.3,49.9,77.2z"/>
	<path class="st3" d="M49.4,78.1c-0.1,0.2-0.2,0.4-0.4,0.6C49.1,78.5,49.2,78.3,49.4,78.1z"/>
	<path class="st2" d="M112.9,43.1c-1.5-5.1-4.5-9.2-8.4-12.8c-1-0.9-1.8-2.1-2.2-4C107.4,31.4,112.6,35.7,112.9,43.1z"/>
	<path class="st2" d="M57.4,53.1c0.1-0.2,0.1-0.4,0.2-0.6c0.1,0,0.1,0.1,0.2,0.1C57.6,52.7,57.5,52.9,57.4,53.1L57.4,53.1z"/>
	<path class="st2" d="M57.4,53.1c-0.1,0.1-0.1,0.1-0.2,0.2c0,0,0-0.1,0-0.1C57.3,53.1,57.3,53.1,57.4,53.1
		C57.4,53.1,57.4,53.1,57.4,53.1z"/>
	<path class="st5" d="M108.9,161.8c8.1-3.4,16.1-7.2,25.2-4.5C125.2,156.2,117.2,159.7,108.9,161.8z"/>
	<path class="st5" d="M85.7,158.8c-3.7,0.1-7.2-1.7-11-1.8c-3.8-0.1-7.5,1-11.2,0.2C71,155.9,78.5,155,85.7,158.8z"/>
	<path class="st5" d="M127.9,155.5c5.3-2,10.5-1.1,15.6,0.7C138.3,156.1,133.1,155.1,127.9,155.5z"/>
	<path class="st5" d="M55.3,156.8c3.3-2.1,9.1-2.7,13.1-1.6C64.1,156.1,59.7,156.1,55.3,156.8z"/>
	<path class="st6" d="M149.1,160.3c-0.2,0.2-0.4,0.3-0.5,0.5C148.8,160.7,148.9,160.5,149.1,160.3z"/>
	<path class="st6" d="M54.1,162.2c-0.2,0-0.3,0-0.5,0C53.8,161.9,53.9,161.8,54.1,162.2z"/>
	<path class="st0" d="M116,35.1c0.1,0,0.3,0,0.4,0.1c-0.1,0.1-0.3,0.2-0.4,0.3C116,35.3,116,35.2,116,35.1z"/>
	<path class="st4" d="M71.1,169.8c0.2,0.1,0.3,0.2,0.5,0.3c-0.2,0.1-0.4,0.1-0.6,0.2c-0.1,0-0.3-0.1-0.4-0.2
		C70.7,170,70.9,169.9,71.1,169.8z"/>
	<path class="st5" d="M79.5,99.2c-3,6.3-8.2,10-14.8,12c-1.5,0.5-3.1,0.6-4.7,0.4c-5.1-0.4-8-3.7-7.1-8.7c1-5.4,0.6-10.4-2.1-15.3
		c-0.6-1.1-0.7-2.4-0.6-3.7c0.4-6,7.2-12.9,13.1-13.2C51.9,77,52.5,89,57,95.8C61.8,103.2,70.7,105.3,79.5,99.2z"/>
	<path class="st7" d="M67.3,76.2c0,2.8-1.3,4.7-3.5,4.6c-1.6-0.1-3.2-0.4-3.7-2.3c-0.5-1.7,0.4-3.1,1.6-4.1c1.5-1.2,2.8-0.3,4.1,0.5
		C66.4,75.2,66.5,76.1,67.3,76.2L67.3,76.2z"/>
	<path class="st7" d="M67.3,76.2c0-1.4-0.5-3.1,1.4-3.7c1.2-0.4,2.3,0.1,3.1,1.1c0.6,0.8,0.7,1.7-0.1,2.6c-0.9,1-2,1.3-3.2,0.8
		C68.1,76.9,67.7,76.5,67.3,76.2C67.3,76.2,67.3,76.2,67.3,76.2z"/>
	<path class="st5" d="M119.8,98.8c11.1,5.8,17.9,4.8,23-3.1c5.7-8.8,3.6-17.2-6.2-25c6.4,0.7,13,7.7,13,13.8c0,1.1-0.1,2.2-0.6,3.2
		c-2.5,4.6-3,9.4-2.3,14.5c1,6.9-3.2,10.7-10,9.3C129.4,110,123.7,106,119.8,98.8z"/>
	<path class="st7" d="M132.5,76.2c0.4-0.4,0.7-0.7,1.2-1.1c1.3-1,2.7-2.1,4.4-0.7c1.4,1.2,2.2,2.8,1.4,4.6c-0.7,1.6-2.4,2.1-4,1.8
		c-1.8-0.3-3-1.6-3-3.6C132.6,76.8,132.6,76.5,132.5,76.2L132.5,76.2z"/>
	<path class="st7" d="M132.6,76.2c-0.4-0.1-0.5,0.2-0.8,0.4c-1.1,1.1-2.3,0.8-3.4,0c-0.9-0.7-1.2-1.6-0.6-2.6
		c0.7-1.2,1.9-1.7,3.2-1.4c1.2,0.3,1.6,1.4,1.5,2.6C132.5,75.5,132.5,75.9,132.6,76.2C132.5,76.2,132.6,76.2,132.6,76.2z"/>
	<path class="st2" d="M125,115.1c-0.4-0.1-0.9,0-1-0.6C124.5,114.5,124.8,114.6,125,115.1z"/>
	<path class="st6" d="M113.2,121.1c0.3,1-0.3,1.6-1,2.1c-1.2,0.9-2.6,1.5-3.9,2.1c-1.9,0.8-3.3,1.2-4.9-0.9
		c-2.4-3.1-7.2-3.2-10.1-0.5c-1,1-1.9,0.9-2.9,0.4c-1-0.5-1.9-1.1-2.8-1.7c-3.1-2.1-3.1-3.1-0.2-5.5c0.7-0.6,1.3-0.3,2-0.1
		c7.1,2,14.2,2.5,21.3,0.5C112.4,117,113.1,118.1,113.2,121.1z"/>
	<path class="st7" d="M81.7,120.2c-1.1-1.8-2.1-3.5-3.1-5.2c-0.2-0.4-1.2-0.7-0.4-1.3c0.4-0.3,0.9-0.7,1.7-0.3
		c1.8,0.8,3.6,1.5,5.7,2.3C84.2,117.2,83,118.6,81.7,120.2z"/>
	<path class="st7" d="M115.3,120.4c-0.1-0.2-0.2-0.3-0.2-0.3c-0.1-1.3-1.4-2.8-0.6-3.7c1-1.1,2.8-1.5,4.3-2.1
		c0.8-0.3,1.3,0.4,1.8,0.8c0.8,0.6-0.1,0.9-0.4,1.3C118.9,118,117.3,119.4,115.3,120.4z"/>
	<path class="st7" d="M94.1,125.4c2.2-1.9,5.6-2,7.4-0.2c0.3,0.3,0.8,0.6,0.6,1.1c-0.2,0.4-0.7,0.4-1,0.3
		C98.8,126.4,96.4,126.4,94.1,125.4z"/>
	<path class="st7" d="M98.8,107.6c1.4-0.3,2.5-0.4,3.7,0.3C100.4,108.5,100.4,108.5,98.8,107.6z"/>
</g>
</svg>
