<?xml version="1.0" encoding="utf-8"?>
<!-- Generator: Adobe Illustrator 27.8.1, SVG Export Plug-In . SVG Version: 6.00 Build 0)  -->
<svg version="1.1" id="Layer_1" xmlns="http://www.w3.org/2000/svg" xmlns:xlink="http://www.w3.org/1999/xlink" x="0px" y="0px"
	 viewBox="0 0 200 200" style="enable-background:new 0 0 200 200;" xml:space="preserve">
<style type="text/css">
	.st0{fill:#F16722;}
	.st1{fill:#F9A41A;}
	.st2{fill:#F5891F;}
	.st3{fill:#FFCD74;}
	.st4{fill:#FCEEB3;}
	.st5{fill:#FBC29B;}
	.st6{fill:#FCC873;}
	.st7{fill:#AC2653;}
</style>
<g>
	<path class="st0" d="M94,185c0.1-4-0.5-8-1.7-11.9c-1-3.4-2.3-6.7-3.7-9.9c-3-6.7-6.4-13.2-9.8-19.8c-2.4-4.6-4.6-9.2-6.8-13.8
		c-2.6-5.4-4.3-11.2-5.6-17.1c-0.5-2.4-1-4.8-1.3-7.3c-0.5-3.8-0.8-7.6-0.6-11.4c0.2-2.4,0.2-4.7,0.4-7.1c0.5-7.5,2.2-14.8,5.1-21.8
		c1.9-4.5,4.1-8.8,7-12.8c1.6-2.2,3.4-4.2,5.4-6.1c1.9-1.7,3.8-3.4,5.9-4.9c5.5-3.9,11.5-6.6,18.1-7.9c3.2-0.6,6.4-0.7,9.7-0.1
		c1.2,0.2,2.5,0.6,3.6,1.2c3.5,1.9,6.9,4,9.7,6.9c3.5,3.6,5.5,8,6.2,13c0.5,3.4,0.2,6.9-0.2,10.3c-1,8.3-3.9,15.9-7.6,23.4
		c-1.5,3.1-3.1,6.1-4.6,9.2c-2.5,5-4.3,10.2-5.2,15.6c-0.3,1.9-0.6,3.8-0.7,5.8c-0.1,2.2-0.2,4.5-0.1,6.7c0,1.8,0.2,3.7,0.4,5.5
		c0.2,2.3,0.5,4.6,0.8,6.9c0.6,4,1.5,7.9,2.9,11.7c0.5,1.4,1.2,2.9,1.9,4.2c1.6,3,4,5.3,7.1,6.9c0.9,0.5,1.8,0.9,2.7,1.3
		c1.1,0.6,2.2,1.2,3.3,1.9c1.1,0.7,2,1.5,2.6,2.7c0.9,1.5,0.7,2.9-0.5,4.1c-0.4,0.4-0.8,0.7-1.2,1c-1.2,0.7-2.4,1.2-3.8,1.4
		c-1.2,0.2-2.3,0.1-3.5-0.2c-1.2-0.3-2.3-0.6-3.5-0.9c-0.9-0.2-1.8-0.3-2.7-0.2c-1.5,0.3-2.1,1-2,2.5c0.1,0.9,0.4,1.8,0.6,2.7
		c0.3,1.2,0.7,2.3,1.1,3.5c0.1,0.3,0.2,0.6,0.3,0.8c0.7,1.2,0.9,2.4,1.2,3.7c0.2,0.8,0.1,1.6-0.2,2.4c-0.6,1.6-2.1,2.4-3.7,1.9
		c-0.5-0.1-0.9-0.3-1.3-0.5c-1.5-0.8-2.9-1.8-4.1-3c-0.9-1-1.9-1.9-2.9-2.9c-0.6-0.6-1.1-1.2-1.6-1.9c-0.4-0.5-0.7-1-1.2-1.5
		c-0.5-0.5-1.1-1.1-1.8-1.5c-0.8-0.6-1.8-0.6-2.6,0c-1.6,1.2-3.1,2.6-3.3,4.7c-0.2,1.6-0.4,3.2-0.5,4.8c-0.1,1.5-0.5,3-1.2,4.3
		c-0.8,1.4-1.8,1.9-3.4,1.6c-1.7-0.3-2.6-1-2.9-2.8c-0.2-0.9-0.3-1.9-0.3-2.9C94,186.7,94,185.8,94,185 M125.1,87.8
		c0.1-0.1,0.2-0.2,0.3-0.3c2.5-4.9,4.6-9.9,6.1-15.2c1.3-4.9,2.1-9.8,2.1-14.9c0-4.8-1.7-9.1-4.4-13c-0.4-0.5-0.7-1.1-1.4-1.4l0,0
		c-0.1-0.1-0.2-0.2-0.3-0.3c-0.7-1-1.6-1.8-2.6-2.5c-2-1.5-4.1-2.9-6.4-3.9c-1.7-0.7-3.4-1.3-5.3-1.2c-1,0.1-1.9,0-2.9,0
		c-1.3,0-2.5,0.2-3.7,0.5c-2.8,0.6-5.6,1.4-8.2,2.6c-3.1,1.4-6.1,2.8-8.8,4.9c-0.9,0.7-1.9,1.2-2.4,2.3c-0.2,0-0.5,0-0.7,0.1
		c-2.6,2.1-5,4.5-7,7.2c-4.3,5.7-7.3,12.2-9.4,19c-2,6.4-2.8,12.9-3.1,19.6c-0.3,6.5,0.1,12.9,1.4,19.2c1,4.9,2.3,9.7,4.1,14.4
		c0.9,2.4,2,4.7,3.2,7c0.1,0.2,0.1,0.5,0.2,0.7c1.2,2.5,2.4,4.9,3.6,7.3c0.4,0.7,0.6,1.6,1.3,2.2l0,0c0,0.3,0,0.5,0.3,0.6l0,0
		c0.1,0.2,0.2,0.4,0.3,0.6l0,0c0.1,0.2,0.2,0.4,0.3,0.7c0.1,0.4,0.3,0.7,0.4,1.1c0.7,1.4,1.5,2.8,2.2,4.2c2.3,4.3,4.3,8.7,6.3,13.1
		c1.8,3.8,3.3,7.7,4.3,11.8c0.7,2.9,1.3,5.7,1.4,8.7c0,1.1,0.2,2.2,0,3.3c0,0.2,0,0.5,0,0.7c-0.1,1.2,0.1,2.3,0.4,3.4
		c0.1,0.6,0.6,0.8,1.2,0.9c0.5,0.1,0.9-0.1,1.2-0.6c0.5-1,0.9-2,0.9-3.2c0-0.8,0.1-1.5,0.1-2.3c0.4-0.6,0.2-1.2,0.2-1.8
		c0.1-1.7,0.5-3.3,1.5-4.6c0.7-0.9,1.4-1.7,2.3-2.4c1.1-0.9,2.5-1.6,4-1.1c1.7,0.5,3,1.5,4,2.9c1.7,2.3,3.8,4.2,5.8,6.2
		c0.9,1,2.1,1.7,3.3,2.4c1.1,0.5,1.8,0.1,1.9-1.1c0-0.1,0-0.3,0-0.4c-0.2-1.2-0.4-2.4-1.1-3.4c0.1-0.8-0.3-1.4-0.6-2
		c-0.8-1.6-1.5-3.2-1.8-5c-0.2-1.3,0-2.5,0.6-3.6c0.2-0.3,0.4-0.7,0.7-0.9c1.3-0.9,2.8-1.4,4.4-1.2c1.2,0.1,2.3,0.4,3.4,0.8
		c0.8,0.3,1.6,0.4,2.4,0.6c1.8,0.5,3.4,0,5-0.9c1.8-1.1,1.9-2.1,0.4-3.4c-0.1-0.1-0.2-0.2-0.3-0.3c-0.7-0.5-1.4-1-2.2-1.4
		c-1.3-0.7-2.6-1.3-3.9-1.9c-4.1-2-7.1-5-9.1-9c-1.4-2.9-2.4-5.9-3.2-9c-1.2-4.6-1.6-9.2-2.1-13.9c-0.2-2-0.4-3.9-0.6-5.9
		c0-0.3-0.2-0.5-0.3-0.8c0.3-0.5,0.2-1.1,0.2-1.7c0-2.1-0.1-4.1,0.3-6.2c0.3-1.5,0.6-3,0.8-4.5c0.3-2.3,1-4.6,1.7-6.9
		c1.1-3.4,2.5-6.7,4.1-9.9c0.7-1.5,1.4-3,2.2-4.4c0.3-0.6,0.5-1.2,0.7-1.9C125.1,88.4,125.2,88.1,125.1,87.8L125.1,87.8z"/>
	<path class="st0" d="M83.9,39.4c-1.7,0-3.2-0.4-4.5-1.4c-2.7-2-3.4-5.6-1.5-8.4c0.5-0.8,1.2-1.4,1.9-2c0.9-0.8,1.9-1.5,2.9-2.2
		c0.4-0.3,0.8-0.5,1.2-0.8c2.1-1.1,3.2-2.9,3.5-5.2c0.1-0.8,0.2-1.5,0.2-2.3c0-3.3,1.8-5.4,4.6-6.8c1.2-0.6,2.5-0.9,3.9-1
		c1.3-0.1,2.7-0.3,4-0.4c1.3-0.1,2.5-0.5,3.6-1c1.8-0.8,3.6-1.1,5.5-1.1c1.8,0,3.6,0.1,5.3,0.5c4,1.1,7,3.4,9,7
		c1.6,2.9,1.5,5.6-0.4,8.3c-1,1.5-2.3,2.6-3.9,3.3c-2.1,1-4.4,1.5-6.7,1.6c-2.4,0.2-4.8,0.2-7.2,0.3c-1.1,0.1-2.2,0.1-3.3,0.3
		c-1.4,0.1-2.6,0.6-3.8,1.4c-1.2,0.8-2.3,1.8-3.3,2.9c-1,1.1-2,2.1-3,3.1c-0.8,0.7-1.6,1.4-2.5,2C87.8,38.9,85.9,39.3,83.9,39.4
		 M79.3,33.7c0.4,1.8,1.6,2.8,3.3,3.2c1.8,0.3,3.6,0.1,5.2-0.9c1.7-1,3-2.4,4.2-3.9c0.4-0.4,0.9-0.7,1.3-1.1c1-0.9,1.8-1.8,2.9-2.6
		c2.3-1.9,4.9-2.5,7.7-2.7c1.4-0.1,2.8,0.1,4.2-0.3c0.3-0.1,0.6,0,0.9,0c0.7,0,1.3,0,2,0c0.8,0.1,1.5-0.3,2.3-0.3
		c1.6,0.1,3.1-0.4,4.5-1c1.9-0.8,3.5-2,4.3-4c0.3-0.7,0.6-1.5,0.5-2.2c-0.1-0.9-0.4-1.8-0.9-2.6c-0.4-0.6-0.7-1.2-1.1-1.7
		c-0.6-0.7-1.2-1.4-2-1.9c-2.8-2-6-2.8-9.4-2.6c-0.5,0-0.9,0.2-1.4,0.3c-1.4,0.2-2.7,0.4-4.1,0.9c-1.1,0.3-2.1,0.7-3.2,0.7
		c-1.3,0.2-2.7,0.3-4,0.5c-1.9,0.3-3.7,0.8-5,2.3c-0.8,0.8-1.3,1.8-1.3,3c0,1-0.1,2-0.3,3c-0.4,2.9-1.6,5.2-4.2,6.7
		c-0.7,0.4-1.3,0.8-1.9,1.2c-1,0.8-2.1,1.6-3,2.4C79.4,31,78.9,32.2,79.3,33.7"/>
	<path class="st0" d="M46.3,105.4c0.2-1.4,0.3-2.9,0.6-4.3c0.5-2.3,0.1-4.5-1.1-6.6c-0.1-0.2-0.2-0.3-0.3-0.5
		c-1.7-2.8-2.2-5.9-1.6-9.1c0.4-2.1,1.1-4.1,2.5-5.8c1.4-1.6,3.1-2.7,5.2-3.2c2.6-0.6,4.8,0.4,6.2,2.7c1.2,1.9,1.5,4,1.3,6.3
		c-0.2,2.1-0.8,4.2-1.5,6.2c-0.4,1-0.7,2-1.1,3c-0.7,2.2-0.6,4.3,0.3,6.4c0.4,1,1,2,1.5,3c0.7,1.5,1.4,3,1.6,4.6
		c0.3,2.2-0.3,4.2-1.7,6c-1.1,1.4-2.7,1.8-4.4,1.7c-2.3-0.1-4.1-1.2-5.3-3.1C47,110.5,46.3,108.1,46.3,105.4 M45.7,88.3
		c-0.2,0.5,0.1,0.8,0.4,1.1c0,0.9,0.3,1.8,0.7,2.6c0.4,0.7,0.9,1.4,1.3,2.2c0.1,0.4,0.3,0.7,0.4,1.1c0.7,1.7,1,3.5,0.7,5.3
		c-0.3,2-0.6,4.1-0.5,6.1c0.1,1.6,0.6,3,1.5,4.4c0.8,1.3,1.9,2.3,3.6,2.4c1.2,0.1,2.3-0.2,3-1.3c0.8-1.3,1.2-2.7,0.8-4.3
		c-0.3-0.8-0.5-1.7-0.8-2.5c-0.7-1.5-1.4-3.1-2.2-4.6c0-0.2-0.1-0.4-0.1-0.6c-0.7-2.3-0.7-4.6,0.1-6.9c0.2-0.5,0.3-1,0.4-1.5
		c0.2-0.2,0.4-0.5,0.5-0.7c0.4-1.5,0.9-3,1.2-4.4c0.3-1.2,0.4-2.5,0.3-3.7c-0.1-1.4-0.6-2.7-1.5-3.8c-0.4-0.5-0.9-0.9-1.6-0.9
		c-0.5,0-1.1-0.1-1.6,0c-0.6,0.1-1.4,0.1-1.7,0.9c-0.6-0.2-0.9,0.1-1.2,0.5c-0.3,0.3-0.6,0.7-0.9,0.9c-0.7,0.6-1.2,1.2-1.5,2
		c-0.2,0.6-0.4,1.2-0.7,1.7C45.6,85.6,45.4,86.9,45.7,88.3"/>
	<path class="st0" d="M121.3,130.7c0-1.1,0.2-2.3,0.5-3.4c0.1-0.5,0.3-0.9,0.4-1.4c0.8-2.5,0.9-2.5,0.2-5c-0.2-0.7-0.3-1.3-0.5-2
		c-0.4-1.4-0.2-2.7,0.2-4c1.4-4.3,6.1-4.4,8.5-2.4c2,1.7,2.7,3.9,2.2,6.4c-0.3,1.6-0.9,3.1-1.5,4.5c-0.5,1.1-0.9,2.3-1.3,3.4
		c-0.4,1.3-0.3,2.6,0.3,3.8c0.4,0.8,0.8,1.7,1.1,2.5c0.2,0.6,0.4,1.3,0.5,2c0.2,1.7-0.4,2.9-2,3.7c-1.5,0.8-3,0.8-4.4,0
		c-1.5-0.9-2.6-2.1-3.3-3.7C121.6,133.8,121.3,132.3,121.3,130.7 M124.9,124.1c0,0.3-0.1,0.6-0.1,0.8c-0.3,0.3-0.2,0.6-0.2,0.9l0,0
		c-0.3,0.2-0.3,0.6-0.3,0.9c-0.1,0.2-0.2,0.4-0.3,0.7c-0.4,1.3-0.3,2.6-0.3,4c0,1,0.2,2,0.6,2.9c0.4,1,1.1,1.7,1.9,2.3
		c0.6,0.5,1.4,0.7,2.2,0.6c1-0.2,1.6-1,1.3-2c-0.1-0.5-0.3-1-0.5-1.5c-0.7-1.4-1.3-2.9-1.7-4.4c0.1-0.5,0.2-0.9,0.2-1.4
		c0-0.9,0.3-1.7,0.6-2.5c0.3-0.8,0.4-1.6,0.7-2.4c0.3-0.2,0.5-0.4,0.6-0.8c0.3-0.8,0.6-1.6,0.8-2.5c0.1-0.4,0.2-0.8,0.3-1.3
		c0.2-1.6-0.1-3-1.4-4c-1.8-1.6-4.4-0.9-5.1,1.4c-0.4,1.2-0.4,2.5,0.1,3.7c0.7,1.4,0.8,2.8,0.6,4.3
		C124.9,123.9,124.9,124,124.9,124.1"/>
	<path class="st1" d="M124.7,88.4c-0.1,0.7-0.3,1.3-0.7,1.9c-0.8,1.5-1.5,2.9-2.2,4.4c-1.6,3.2-3,6.5-4.1,9.9
		c-0.7,2.3-1.3,4.5-1.7,6.9c-0.2,1.5-0.5,3-0.8,4.5c-0.4,2.1-0.3,4.1-0.3,6.2c0,0.6,0.1,1.2-0.2,1.7c-0.1,1.1-0.3,2.2-0.3,3.3
		c-0.2,4.3-0.1,8.6,0.3,12.9c0.2,1.5,0.4,3.1,0.7,4.6c0.6,3.1,1.7,5.9,3.3,8.7c0.2,0.4,0.4,0.9,0.6,1.3c-0.1,0.3-0.2,0.5-0.3,0.8
		c-0.1,0.8-0.4,1.6-0.7,2.3c-0.7,1.7-3,2.8-5,2c-0.7-0.3-1.4-0.6-2-1.1c-2.2-1.6-3.7-3.7-4.9-6c-1-2-1.7-4.1-2.3-6.2
		c-0.5-2-1-4-1.4-6c-0.3-1.2-0.8-2.4-1.5-3.5c-0.7-1.2-2.1-1.7-3.4-1.3c-1.1,0.3-2.1,0.8-3,1.5c-1,0.8-2,1.7-3.1,2.4
		c-1.9,1.4-3.3,1.2-4.9-0.1c-0.1-0.1-0.2-0.2-0.3-0.3c-1.2-1.1-2.2-2.4-2.9-4c-0.3-0.7-0.6-1.3-0.8-2c-0.3-0.9-0.8-1.8-1.4-2.5
		c-0.5-0.6-1.2-1-2-0.8c-1.5,0.4-3,0.3-4.4-0.2c-0.3-0.6-0.8-1.2-1-1.9c-0.7-1.8-1.5-3.7-2.1-5.6c-1.9-6-2.9-12.2-3.3-18.5
		c-0.2-2.5-0.2-4.9-0.4-7.4c0-0.2,0-0.5-0.1-0.7c0-1.1-0.1-2.2-0.1-3.3c0.1-2.2,0.3-4.4,0.4-6.7c0.1-2.2,0.5-4.3,1-6.4
		c0.6,0.1,1.1,0.3,1.7,0.3c1.3,0.1,2.5-0.1,3.7-0.7c0.6-0.3,1.2-0.8,2-0.7c-0.2,1.2-0.4,2.4-0.6,3.6c-0.5,2.6-0.8,5.2-0.8,7.8
		c0,0.7-0.1,1.3-0.1,2c0,0.9,0,1.8,0,2.8c0,1,0.1,1.9,0.1,2.9c0,2.2,0.1,4.5,0.4,6.7c0.5,3.4,1.3,6.6,2.4,9.8
		c0.9,2.5,2.2,4.8,3.9,6.9c1.1,1.4,2.4,2.5,4.1,3.2c1.5,0.7,3.2,0.9,4.8,0.8c2.6-0.1,4.9-0.9,6.9-2.6c1.2-1,2.2-2,3.2-3.2
		c1.6-2.1,3-4.2,3.9-6.7c1.4-3.9,2-7.9,2.3-11.9c0.3-4.6,0.2-9.3-0.5-13.9c-0.5-3.9-1.4-7.7-2.6-11.4c-0.2-0.5-0.3-0.9-0.4-1.4
		c1.9,0.1,3.5-0.5,4.8-1.9c0.3-0.3,0.5-0.6,0.8-0.8c0.6-0.5,1.2-0.8,2-0.7c1.3,0.1,2.4,0.6,3.4,1.5c1.5,1.4,3,2.9,4,4.7
		c0.3,0.6,0.7,1.1,1.1,1.7c1.1,1.4,2.3,2.6,4.1,3c0.9,0.2,1.9,0.3,2.8,0.4c-0.3,0.8-0.6,1.5-0.8,2.3c-0.5,1.4-1,2.7-1.3,4.1
		c0,0.1,0,0.2,0,0.3l0,0L124.7,88.4z"/>
	<path class="st2" d="M77.1,77.9c-0.8,0-1.3,0.4-2,0.7c-1.2,0.6-2.4,0.8-3.7,0.7c-0.6-0.1-1.1-0.2-1.7-0.3c0.1-0.5,0.2-1,0.3-1.6
		c0.6-2.9,1.5-5.7,2.5-8.5c2-5.8,4.9-11.1,8.6-16c1.2-1.5,2.6-2.9,3.8-4.3c0.5-0.6,1.1-1.2,1.6-1.9c0.3-0.4,0.5-0.8,0.4-1.3
		c0.5-1.1,1.5-1.6,2.4-2.3c2.7-2.1,5.7-3.6,8.8-4.9c2.7-1.2,5.4-2,8.2-2.6c1.2-0.3,2.4-0.5,3.7-0.5c1,0,1.9,0.1,2.9,0
		c1.9-0.1,3.6,0.4,5.3,1.2c2.3,1,4.4,2.4,6.4,3.9c1,0.7,1.9,1.5,2.6,2.5c0.1,0.1,0.2,0.2,0.3,0.3l0,0c0.1,0.3,0.2,0.7,0.3,0.9
		c0.8,1.3,1.3,2.7,1.8,4.1c1.1,3.4,2,7,2.2,10.6c0.2,2.7,0.1,5.4-0.4,8.1c-0.7,3.6-1.7,7-2.9,10.4c-0.5,1.3-1,2.6-1.5,3.9
		c-0.9-0.1-1.9-0.2-2.8-0.4c-1.8-0.4-3-1.6-4.1-3c-0.4-0.5-0.8-1.1-1.1-1.7c-1-1.8-2.5-3.3-4-4.7c-0.9-0.9-2.1-1.3-3.4-1.5
		c-0.8-0.1-1.4,0.2-2,0.7c-0.3,0.3-0.6,0.5-0.8,0.8c-1.3,1.4-2.9,2.1-4.8,1.9c-0.2-0.4-0.4-0.9-0.6-1.3c-0.9-2.4-2.2-4.7-3.8-6.6
		c-1.9-2.3-4.3-3.6-7.2-3.9c-1.3-0.1-2.5,0.1-3.6,0.6c-2.9,1.3-5.2,3.5-7.3,5.9c-1,1.2-1.8,2.6-2.1,4.2c0,0.2-0.1,0.4-0.2,0.5
		C78.3,74.3,77.8,76.1,77.1,77.9 M99,43.4c0.3,0,0.6,0,0.9-0.1c1.4-0.4,2.9-0.9,4.1-1.7c0.4-0.3,0.8-0.6,1.1-0.9
		c0.8-0.9,0.5-2.2-0.7-2.5c-0.5-0.1-1.2-0.1-1.7,0c-1.7,0.3-3.3,0.9-4.7,1.8c-0.4,0.2-0.7,0.5-0.9,0.9c-0.7,1.1-0.2,2.3,1.1,2.5
		C98.5,43.4,98.7,43.4,99,43.4 M92.2,48.3c0.9-0.1,1.8-0.6,2.5-1.5c0.5-0.6,0.4-1.4-0.2-2.1c-0.4-0.5-1.1-0.7-1.8-0.3
		c-1,0.5-1.6,1.2-2,2.2C90.3,47.6,90.8,48.3,92.2,48.3"/>
	<path class="st3" d="M75.2,129.5c1.5,0.5,2.9,0.5,4.4,0.2c0.9-0.2,1.5,0.2,2,0.8c0.6,0.8,1.1,1.6,1.4,2.5c0.2,0.7,0.5,1.3,0.8,2
		c0.6,1.6,1.6,2.8,2.9,4c0.1,0.1,0.2,0.2,0.3,0.3c1.5,1.3,2.9,1.5,4.9,0.1c1.1-0.8,2-1.6,3.1-2.4c0.9-0.7,1.9-1.2,3-1.5
		c1.3-0.3,2.7,0.2,3.4,1.3c0.6,1.1,1.2,2.2,1.5,3.5c0.5,2,0.9,4,1.4,6c0.5,2.2,1.3,4.3,2.3,6.2c1.2,2.3,2.7,4.5,4.9,6
		c0.6,0.5,1.3,0.8,2,1.1c2,0.8,4.3-0.4,5-2c0.3-0.8,0.6-1.5,0.7-2.3c0-0.3,0.2-0.5,0.3-0.8c0.7,1.1,1.5,2.2,2.2,3.3
		c2.4,3.6,5.6,6.1,9.6,7.7c1.2,0.5,2.3,1,3.4,1.6c0.6,0.4,1.1,0.8,1.1,1.6c0,0.2,0.2,0.4,0.3,0.6c-1.6,0.9-3.2,1.3-5,0.9
		c-0.8-0.2-1.6-0.3-2.4-0.6c-1.1-0.4-2.2-0.7-3.4-0.8c-1.6-0.1-3.1,0.3-4.4,1.2c-0.3,0.2-0.5,0.6-0.7,0.9c-0.6,1.1-0.9,2.3-0.6,3.6
		c0.3,1.8,1,3.4,1.8,5c0.3,0.6,0.8,1.2,0.6,2c0,0.4,0,0.9,0,1.3c0,0.5,0.1,0.9,0.1,1.3c-0.8,0.3-1.3,0-1.9-0.3c-2-1.2-3.6-2.8-5-4.5
		c-1-1.1-2-2.2-3.1-3.2c-0.7-0.6-1.5-1-2.3-1.5c-0.4-0.3-0.9-0.2-1.4-0.2c-0.3,0-0.4,0.3-0.4,0.5c-1.6-0.5-2.9,0.1-4,1.1
		c-0.9,0.7-1.6,1.5-2.3,2.4c-1.1,1.3-1.4,2.9-1.5,4.6c-0.1,0.6,0.1,1.3-0.2,1.8c-0.1,0.1-0.3,0.3-0.4,0.4c-0.4,1.1-0.9,2.1-1.2,3.3
		c-0.1,0.4-0.3,0.8-0.4,1.2c-0.2-0.1-0.3-0.1-0.3-0.1c-0.3-0.7-0.7-1.4-0.9-2.1c-0.1-0.3-0.2-0.6-0.5-0.8c0-0.2-0.1-0.5,0-0.7
		c0.2-1.1,0.1-2.2,0-3.3c0-3-0.7-5.8-1.4-8.7c-1-4.1-2.5-8-4.3-11.8c-2-4.4-4-8.8-6.3-13.1c-0.7-1.4-1.5-2.8-2.2-4.2
		c-0.2-0.3-0.3-0.7-0.4-1.1c0-0.3,0-0.5-0.3-0.7l0,0c0-0.3,0-0.5-0.3-0.6l0,0c0-0.3,0-0.5-0.3-0.6l0,0c0.1-0.5-0.1-0.9-0.4-1.4
		c-0.5-1-1-2-1.5-3c-0.6-1.3-1.2-2.6-1.8-3.9c-0.3-0.7-0.5-1.5-1.2-2c-0.1-0.5-0.3-1.1-0.4-1.6C75.3,130.1,75.3,129.8,75.2,129.5
		 M93.9,146.2c0.3-0.4,0.6-0.7,0.9-1c0.4-0.5,0.8-1,1.1-1.5c0.1-0.2,0.2-0.4,0.3-0.7c0-0.2,0-0.4-0.2-0.5c-0.2-0.1-0.5-0.2-0.6-0.1
		c-0.2,0.1-0.4,0.3-0.6,0.4c-0.8,0.7-1.5,1.5-2.3,2.2c-0.1,0.1-0.2,0.2-0.3,0.3c-0.8,0.8-0.8,1.5,0.1,2.2c0.5,0.4,1,0.6,1.6,0.7
		c0.3,0,0.5,0.2,0.8,0.3c-0.2,0.8-0.7,1.3-1.2,1.9c-0.4,0.5-0.4,1,0,1.4c0.3,0.3,0.7,0.6,1.1,0.7c1.1,0.3,2.7-0.4,3.6-1.4
		c-0.4-0.3-0.8-0.2-1.2-0.2c-0.4-0.1-0.9,0.1-1.4-0.2c0.2-0.4,0.4-0.7,0.5-1c0.3-0.5,0.6-1,0.8-1.5c0.4-0.9,0-1.4-0.9-1.5
		c-0.3,0-0.6,0-0.9,0C94.7,146.7,94.4,146.7,93.9,146.2"/>
	<path class="st4" d="M75.2,129.5c0.1,0.3,0.1,0.5,0.2,0.8c0.1,0.5,0.3,1.1,0.4,1.6c-0.1,0-0.3,0-0.4,0c-1.2-2.3-2.3-4.6-3.2-7
		c-1.8-4.7-3.1-9.5-4.1-14.4c-1.3-6.3-1.7-12.7-1.4-19.2c0.3-6.6,1.2-13.2,3.1-19.6c2.1-6.8,5.1-13.3,9.4-19c2-2.7,4.4-5,7-7.2
		c0.2-0.1,0.4-0.1,0.7-0.1c0.1,0.5-0.1,1-0.4,1.3c-0.5,0.6-1.1,1.2-1.6,1.9c-1.3,1.4-2.7,2.8-3.8,4.3c-3.7,4.9-6.6,10.2-8.6,16
		c-1,2.8-1.9,5.6-2.5,8.5c-0.1,0.5-0.2,1-0.3,1.6c-0.6,2.1-0.9,4.3-1,6.4c-0.2,2.2-0.3,4.4-0.4,6.7c0,1.1,0,2.2,0.1,3.3
		c0,0.2,0,0.5,0.1,0.7c0.1,2.5,0.2,4.9,0.4,7.4c0.4,6.3,1.4,12.5,3.3,18.5c0.6,1.9,1.3,3.7,2.1,5.6
		C74.5,128.3,74.9,128.9,75.2,129.5"/>
	<path class="st4" d="M135.9,169.5c-0.1-0.2-0.3-0.4-0.3-0.6c0-0.8-0.4-1.2-1.1-1.6c-1.1-0.6-2.2-1.2-3.4-1.6
		c-4-1.6-7.2-4.2-9.6-7.7c-0.8-1.1-1.5-2.2-2.2-3.3c-0.2-0.4-0.4-0.9-0.6-1.3c-1.5-2.7-2.6-5.6-3.3-8.7c-0.3-1.5-0.5-3-0.7-4.6
		c-0.5-4.3-0.6-8.6-0.3-12.9c0.1-1.1,0.2-2.2,0.3-3.3c0.1,0.3,0.3,0.5,0.3,0.8c0.2,2,0.4,3.9,0.6,5.9c0.5,4.7,0.9,9.3,2.1,13.9
		c0.8,3.1,1.7,6.1,3.2,9c2,4,5,7.1,9.1,9c1.3,0.6,2.6,1.2,3.9,1.9c0.8,0.4,1.5,0.9,2.2,1.4c0.1,0.1,0.2,0.2,0.3,0.3
		C137.9,167.4,137.8,168.4,135.9,169.5"/>
	<path class="st4" d="M127.2,81.1c0.5-1.3,1.1-2.6,1.5-3.9c1.2-3.4,2.3-6.9,2.9-10.4c0.5-2.7,0.5-5.4,0.4-8.1
		c-0.2-3.6-1-7.2-2.2-10.6c-0.5-1.4-1-2.8-1.8-4.1c-0.2-0.3-0.2-0.6-0.3-0.9c0.6,0.3,1,0.9,1.4,1.4c2.7,3.9,4.4,8.1,4.4,13
		c0,5.1-0.8,10-2.1,14.9c-1.4,5.3-3.5,10.3-6.1,15.2c-0.1,0-0.2,0-0.3,0c0.2-1.4,0.8-2.8,1.3-4.1C126.6,82.6,126.9,81.9,127.2,81.1"
		/>
	<path class="st4" d="M108,175.2c0-0.3,0.1-0.5,0.4-0.5c0.5-0.1,1-0.1,1.4,0.2c0.8,0.5,1.6,0.9,2.3,1.5c1.1,1,2.1,2.1,3.1,3.2
		c1.5,1.7,3,3.4,5,4.5c0.5,0.3,1.1,0.6,1.9,0.3c0-0.4-0.1-0.9-0.1-1.3c0-0.4,0-0.9,0-1.3c0.6,1.1,0.8,2.2,1.1,3.4c0,0.1,0,0.3,0,0.4
		c-0.1,1.2-0.8,1.7-1.9,1.1c-1.2-0.6-2.3-1.4-3.3-2.4c-2-2-4.1-3.9-5.8-6.2C111,176.7,109.7,175.7,108,175.2"/>
	<path class="st4" d="M96.1,186.9c0.3,0.2,0.4,0.5,0.5,0.8c0.3,0.7,0.6,1.4,0.9,2.1c0,0.1,0.2,0.1,0.3,0.1c0.1-0.4,0.3-0.8,0.4-1.2
		c0.2-1.2,0.8-2.2,1.2-3.3c0.1-0.2,0.2-0.3,0.4-0.4c0,0.8,0,1.5-0.1,2.3c-0.1,1.1-0.4,2.2-0.9,3.2c-0.3,0.5-0.7,0.7-1.2,0.6
		c-0.6-0.1-1.1-0.3-1.2-0.9C96.3,189.2,96,188,96.1,186.9"/>
	<path class="st5" d="M75.4,131.9c0.1,0,0.3,0,0.4,0c0.7,0.5,0.8,1.3,1.2,1.9c0.6,1.3,1.2,2.6,1.8,3.9c0.5,1,1,2,1.5,3
		c0.2,0.4,0.4,0.9,0.4,1.4c-0.7-0.6-0.9-1.4-1.3-2.2c-1.3-2.4-2.4-4.9-3.6-7.3C75.6,132.4,75.5,132.2,75.4,131.9"/>
	<path class="st5" d="M80.9,142.7c0.3,0.1,0.3,0.3,0.3,0.6C81.1,143.1,81,142.9,80.9,142.7"/>
	<path class="st3" d="M124.7,88.4l0.4-0.6C125.2,88.1,125.1,88.4,124.7,88.4"/>
	<path class="st5" d="M81.2,143.3c0.3,0.1,0.3,0.4,0.3,0.7C81.4,143.7,81.3,143.5,81.2,143.3"/>
	<path class="st5" d="M80.6,142.1c0.3,0.1,0.3,0.3,0.3,0.6C80.7,142.6,80.6,142.4,80.6,142.1"/>
	<path class="st4" d="M127.8,43.1c-0.1-0.1-0.2-0.2-0.3-0.3C127.5,42.8,127.6,42.9,127.8,43.1"/>
	<path class="st3" d="M125.1,87.5c0.1,0,0.2,0,0.3,0c-0.1,0.1-0.2,0.2-0.3,0.3C125.1,87.7,125.1,87.6,125.1,87.5"/>
	<path class="st2" d="M100.3,10.9c1.1,0,2.2-0.3,3.2-0.7c1.3-0.4,2.7-0.7,4.1-0.9c0.5-0.1,0.9-0.2,1.4-0.3c3.4-0.2,6.6,0.6,9.4,2.6
		c0.7,0.5,1.4,1.2,2,1.9c0.4,0.5,0.8,1.1,1.1,1.7c0.5,0.8,0.8,1.7,0.9,2.6c0.1,0.8-0.2,1.5-0.5,2.2c-0.8,2-2.4,3.3-4.3,4
		c-1.4,0.6-2.9,1-4.5,1c-0.8,0-1.5,0.4-2.3,0.3c0-0.3-0.1-0.5-0.4-0.5c-1-0.3-2.1-0.5-3.1-0.9c-2.5-0.9-5-1.8-7.4-3
		c-0.6-0.3-1.1-0.6-1.7-0.8c-2.3-1.2-4.6-1.9-7.2-1.7c0-1.2,0.6-2.1,1.3-3c0.9-1.1,2-1.8,3.3-2.2c1.1-0.4,2.3-0.6,3.5-0.9
		c0.3-0.1,0.6-0.1,0.8-0.2c0.2-0.1,0.4-0.3,0.4-0.5C100.6,11.3,100.4,11.1,100.3,10.9 M108.2,13.3c-0.6-1-1.2-1.5-2.1-1.6
		c-1-0.1-2,0-2.8,0.8c-0.1,0.1-0.1,0.1-0.2,0.2c-0.2,0.4,0,0.9,0.5,1c0.2,0,0.4,0,0.6,0c0.7-0.1,1.4-0.2,2.1-0.1
		C106.9,13.7,107.6,13.5,108.2,13.3 M112.5,16.3c0.2-1.2-0.3-2.1-1.1-2.7c-0.6-0.4-1.2-0.3-1.5,0.2c-0.3,0.4-0.2,1,0.4,1.3
		C111,15.6,111.7,15.9,112.5,16.3"/>
	<path class="st1" d="M91.2,18.3c2.6-0.1,5,0.5,7.2,1.7c0.6,0.3,1.1,0.6,1.7,0.9c2.4,1.2,4.9,2.1,7.4,3c1,0.3,2,0.6,3,0.9
		c0.3,0.1,0.4,0.3,0.4,0.5c-0.7,0-1.3,0-2,0c-0.3,0-0.6-0.1-0.9,0c-1.4,0.4-2.8,0.2-4.2,0.3c-2.8,0.1-5.5,0.8-7.7,2.7
		c-1,0.8-1.9,1.8-2.9,2.6c-0.4,0.4-0.9,0.8-1.3,1.1c-0.9-0.3-1.2-1-1.4-1.8c-0.1-0.4-0.1-0.8-0.1-1.4c-0.3,0.1-0.6,0-0.7,0.1
		c-0.9,0.5-1.5,1.3-2.2,2c-1.5,1.6-2.6,1.8-4.2,1c-0.7-0.4-1.3-0.9-1.3-1.8c0.9-0.7,1.7-1.4,2.6-2c1-0.7,2-1.3,2.9-2.1
		c1.3-1,2.2-2.3,2.7-3.8C90.8,21,91,19.7,91.2,18.3"/>
	<path class="st3" d="M82.1,30.2c0,0.9,0.6,1.4,1.3,1.8c1.5,0.8,2.7,0.6,4.2-1c0.7-0.8,1.3-1.5,2.2-2c0.2-0.1,0.4-0.1,0.7-0.1
		c0,0.5,0,0.9,0.1,1.4C90.7,31,91,31.8,92,32c-1.1,1.6-2.5,2.9-4.2,3.9c-1.6,1-3.4,1.2-5.2,0.9c-1.7-0.3-3-1.3-3.3-3.2
		c0.2-0.3,0.5-0.6,0.7-0.9C80.5,31.9,81.2,30.9,82.1,30.2"/>
	<path class="st4" d="M82.1,30.2c-0.9,0.7-1.5,1.6-2.1,2.6c-0.2,0.3-0.4,0.6-0.7,0.9c-0.3-1.5,0.2-2.7,1.2-3.7c0.9-0.9,2-1.7,3-2.4
		c0.6-0.5,1.3-0.9,2-1.2c2.6-1.5,3.8-3.9,4.2-6.7c0.1-1,0.2-2,0.3-3c0-1.2,0.5-2.1,1.3-3c1.4-1.4,3.1-2,5-2.3c1.3-0.2,2.7-0.3,4-0.5
		c0.1,0.2,0.3,0.4,0.3,0.6c0,0.2-0.3,0.4-0.4,0.5c-0.2,0.1-0.6,0.1-0.8,0.2c-1.2,0.3-2.4,0.5-3.5,0.9c-1.3,0.4-2.5,1.1-3.3,2.2
		c-0.7,0.9-1.3,1.8-1.3,3c-0.2,1.3-0.4,2.7-0.8,3.9c-0.5,1.5-1.5,2.8-2.7,3.8c-0.9,0.8-2,1.4-2.9,2.1C83.8,28.9,82.9,29.6,82.1,30.2
		"/>
	<path class="st2" d="M50.4,79.1c0.3-0.8,1.1-0.8,1.7-0.9c0.5-0.1,1.1-0.1,1.6,0c0.7,0.1,1.2,0.4,1.6,0.9c0.9,1.1,1.4,2.4,1.5,3.8
		c0.1,1.3,0,2.5-0.3,3.7c-0.4,1.5-0.8,3-1.2,4.4c-0.1,0.3-0.3,0.5-0.4,0.7c-0.5,0-0.8,0.3-1.1,0.6c-1.2,1.2-2.6,1.9-4.4,1.7
		c-0.4,0-0.9,0-1.3,0c-0.4-0.7-0.9-1.4-1.3-2.2c-0.4-0.8-0.7-1.7-0.7-2.6c0-0.4,0-0.7,0-1.1c0.1-0.7,0.2-1.3,0.4-2
		c0.5-1.8,1.2-3.6,2.6-5c0.4-0.4,0.9-0.9,1.2-1.4C50.4,79.7,50.4,79.4,50.4,79.1 M47.9,89c0.3-0.8,0.5-1.4,0.7-2
		c0.1-0.5,0.1-1,0.1-1.6c0-0.2-0.2-0.5-0.3-0.6c-0.3-0.2-0.6,0-0.8,0.2C46.8,86.2,46.9,87.7,47.9,89 M48.6,92.1
		c0.2-0.6-0.1-1.1-0.3-1.6c-0.1-0.2-0.3-0.4-0.6-0.2c-0.2,0.1-0.4,0.4-0.4,0.5C47.4,91.5,47.8,92,48.6,92.1"/>
	<path class="st1" d="M48.1,94.2c0.4,0,0.9,0,1.3,0c1.7,0.1,3.2-0.5,4.4-1.7c0.3-0.3,0.6-0.6,1.1-0.6c-0.1,0.5-0.2,1-0.4,1.5
		c-0.7,2.3-0.7,4.6-0.1,6.9c0.1,0.2,0.1,0.4,0.1,0.6c-0.8,0.4-0.9,0.5-0.8,1.2c0.1,0.5,0.2,0.9,0.2,1.4c0.1,2-1.3,3.4-3.2,3.5
		c-0.7,0-1.3-0.1-2-0.3c-0.2-2.1,0.1-4.1,0.5-6.1c0.3-1.8,0-3.6-0.7-5.3C48.4,94.9,48.3,94.5,48.1,94.2"/>
	<path class="st3" d="M48.8,106.7c0.7,0.1,1.3,0.3,2,0.3c1.9-0.1,3.3-1.5,3.2-3.5c0-0.5-0.2-0.9-0.2-1.4c-0.1-0.7,0-0.9,0.8-1.2
		c0.7,1.5,1.5,3,2.2,4.6c0.3,0.8,0.6,1.6,0.8,2.5c0.5,1.6,0,2.9-0.8,4.3c-0.7,1.2-1.8,1.4-3,1.3c-1.6-0.1-2.8-1.1-3.6-2.4
		C49.4,109.7,48.9,108.3,48.8,106.7"/>
	<path class="st4" d="M50.4,79.1c-0.1,0.3-0.1,0.6-0.2,0.8c-0.4,0.5-0.8,1-1.2,1.4c-1.4,1.4-2.1,3.1-2.6,5c-0.2,0.7-0.2,1.3-0.4,2
		l-0.4,0c-0.3-1.4-0.1-2.7,0.4-4c0.2-0.6,0.4-1.2,0.7-1.7c0.3-0.8,0.8-1.5,1.5-2c0.3-0.3,0.6-0.6,0.9-0.9
		C49.5,79.2,49.9,79,50.4,79.1"/>
	<path class="st6" d="M45.7,88.3l0.4,0c0,0.4,0,0.7,0,1.1C45.7,89.1,45.5,88.8,45.7,88.3"/>
	<path class="st1" d="M124.3,134.3c-0.4-0.9-0.6-1.9-0.6-2.9c0-1.3-0.1-2.7,0.3-4c0.1-0.2,0.2-0.4,0.3-0.7c0.3-0.2,0.3-0.6,0.3-0.9
		l0,0c0.4-0.2,0.5-0.5,0.5-0.9c0-0.2,0.1-0.3,0.1-0.5c0.1-0.2,0.1-0.4,0.2-0.6c0.1-0.6,0.2-1.2,0.3-1.7c0.8,0.3,1.6,0.6,2.4,0.8
		c0.3,0.1,0.6,0,0.8,0c-0.2,0.8-0.4,1.6-0.7,2.4c-0.3,0.8-0.6,1.6-0.6,2.5c0,0.5-0.2,0.9-0.2,1.4c-0.5,0.8-0.4,1.7-0.2,2.5
		c0.2,0.7,0,1.2-0.3,1.8c-0.3,0.5-0.7,0.8-1.3,0.8C125.2,134.3,124.8,134.3,124.3,134.3"/>
	<path class="st2" d="M128.9,122.9c-0.3,0-0.6,0-0.8,0c-0.8-0.3-1.6-0.5-2.4-0.8c-0.2-1.2-0.3-2.5-0.5-3.7c-0.1-0.8,0-1.6,0.4-2.4
		c0.3-0.6,0.8-0.9,1.5-0.9c1.2,0,2,0.5,2.4,1.6c0.3,0.8,0.4,1.6,0.6,2.4c0.1,0.2,0.2,0.4,0.3,0.6c-0.3,0.8-0.6,1.6-0.8,2.5
		C129.4,122.5,129.3,122.8,128.9,122.9 M126.5,117.1c-0.1,0-0.2,0-0.3,0.1c-0.5,0.3-0.6,1.3-0.1,1.7c0.2,0.1,0.4,0.2,0.6,0.2
		c0.5,0,0.8-0.5,0.7-1C127.4,117.5,127,117.1,126.5,117.1"/>
	<path class="st4" d="M130.3,119.7c-0.1-0.2-0.2-0.4-0.3-0.6c-0.2-0.8-0.3-1.6-0.6-2.4c-0.4-1.2-1.2-1.7-2.4-1.6
		c-0.7,0-1.2,0.4-1.5,0.9c-0.4,0.7-0.5,1.5-0.4,2.4c0.2,1.2,0.4,2.5,0.5,3.7c-0.1,0.6-0.2,1.2-0.3,1.7l-0.5,0c0.2-1.5,0.1-3-0.6-4.3
		c-0.6-1.2-0.5-2.4-0.1-3.7c0.7-2.3,3.3-2.9,5.1-1.4c1.2,1.1,1.6,2.5,1.4,4C130.6,118.9,130.4,119.3,130.3,119.7"/>
	<path class="st6" d="M124.3,134.3c0.5,0,1,0,1.4,0c0.6,0,1-0.3,1.3-0.8c0.3-0.6,0.5-1.1,0.3-1.8c-0.2-0.8-0.3-1.7,0.2-2.5
		c0.4,1.5,1,3,1.7,4.4c0.2,0.5,0.4,1,0.5,1.5c0.3,1-0.3,1.8-1.3,2c-0.8,0.1-1.5-0.1-2.2-0.6C125.4,135.9,124.7,135.2,124.3,134.3"/>
	<path class="st6" d="M125.1,124.9c0,0.4-0.1,0.8-0.5,0.9c0-0.3-0.1-0.6,0.2-0.9C124.8,124.9,125,124.9,125.1,124.9"/>
	<path class="st6" d="M124.9,123.8l0.5,0c-0.1,0.2-0.1,0.4-0.2,0.6c-0.1-0.1-0.2-0.2-0.3-0.3C124.9,124,124.9,123.9,124.9,123.8"/>
	<path class="st4" d="M124.9,124.1c0.1,0.1,0.2,0.2,0.3,0.3c0,0.2-0.1,0.3-0.1,0.5c-0.1,0-0.2,0-0.3,0
		C124.8,124.7,124.8,124.4,124.9,124.1"/>
	<path class="st6" d="M124.5,125.8c0,0.3,0,0.7-0.3,0.9C124.3,126.4,124.2,126,124.5,125.8"/>
	<path class="st7" d="M77.1,77.9c0.6-1.8,1.1-3.6,2.2-5.2c0.1-0.2,0.2-0.3,0.2-0.5c0.3-1.6,1.1-3,2.1-4.2c2-2.4,4.3-4.5,7.3-5.9
		c1.2-0.5,2.4-0.8,3.6-0.6c2.9,0.3,5.3,1.7,7.2,3.9c1.6,2,2.9,4.2,3.8,6.6c0.2,0.4,0.4,0.9,0.6,1.3c0.1,0.5,0.2,0.9,0.4,1.4
		c1.3,3.7,2.1,7.5,2.6,11.4c0.6,4.6,0.8,9.3,0.5,13.9c-0.3,4.1-0.9,8.1-2.3,11.9c-0.9,2.5-2.3,4.7-3.9,6.7c-0.9,1.2-2,2.2-3.2,3.2
		c-2,1.7-4.3,2.5-6.9,2.6c-1.7,0-3.3-0.2-4.8-0.8c-1.6-0.7-3-1.8-4.1-3.2c-1.7-2.1-3-4.4-3.9-6.9c-1.2-3.2-1.9-6.5-2.4-9.8
		c-0.3-2.2-0.5-4.4-0.4-6.7c0-1-0.1-1.9-0.1-2.9c0-0.9,0-1.8,0-2.8c0-0.7,0.1-1.3,0.1-2c0-2.6,0.3-5.2,0.8-7.8
		C76.7,80.3,76.9,79.1,77.1,77.9 M89.4,63.6c-0.2,0.1-0.4,0.2-0.6,0.3c-2,1.1-3.8,2.5-5.2,4.3c0.1,0.1,0.2,0.1,0.2,0.1
		c0.3-0.1,0.6-0.1,0.8-0.3c2-0.8,3.9-0.8,5.9-0.2c2.9,0.9,5.2,2.7,7,5.1c3.8,5.2,6.4,11,7.5,17.4c0.1,0.4,0.1,0.8,0.2,1.1
		c0.1,0.3-0.1,0.7,0.3,1c0-0.6,0-1.1,0-1.6c0-2.3-0.3-4.6-0.7-6.9c-0.6-4-1.6-7.8-3.1-11.6c-1-2.4-2.2-4.7-4-6.7
		c-1.5-1.6-3.3-2.6-5.6-2.8C91.2,62.6,90.2,62.7,89.4,63.6L89.4,63.6z M79.7,84.1c0,0.5,0,1.1,0.1,1.6c0.2,2.1,1.2,3.8,2.7,5.1
		c1.6,1.5,3.7,1.3,5.1-0.5c0.4-0.4,0.7-1,0.9-1.5c1.2-2.5,1.6-5.2,1.1-7.9c-0.2-1.4-0.6-2.9-1.7-4c-2-2.1-4-2.3-6,0
		c-0.7,0.8-1.2,1.8-1.5,2.8C80,81.2,79.7,82.6,79.7,84.1"/>
	<path class="st4" d="M99,43.4c-0.3,0-0.6,0-0.8,0c-1.3-0.2-1.8-1.4-1.1-2.5c0.2-0.3,0.6-0.7,0.9-0.9c1.5-0.9,3-1.5,4.7-1.8
		c0.6-0.1,1.2-0.1,1.7,0.1c1.2,0.3,1.6,1.5,0.7,2.5c-0.3,0.4-0.7,0.6-1.1,0.9c-1.3,0.8-2.7,1.3-4.1,1.7C99.6,43.4,99.3,43.4,99,43.4
		"/>
	<path class="st4" d="M92.2,48.3c-1.3,0-1.9-0.8-1.5-1.8c0.4-1,1.1-1.7,2-2.2c0.8-0.4,1.4-0.3,1.8,0.3c0.6,0.7,0.7,1.5,0.2,2.1
		C94,47.7,93,48.3,92.2,48.3"/>
	<path class="st7" d="M93.9,146.2c0.4,0.5,0.8,0.5,1.2,0.5c0.3,0,0.6,0,0.9,0c0.9,0,1.3,0.6,0.9,1.5c-0.2,0.5-0.5,1-0.8,1.5
		c-0.2,0.3-0.3,0.6-0.5,1c0.5,0.3,1,0.2,1.4,0.2c0.4,0.1,0.9-0.1,1.2,0.2c-0.9,1-2.5,1.7-3.6,1.4c-0.4-0.1-0.8-0.4-1.1-0.7
		c-0.5-0.4-0.5-0.9,0-1.4c0.5-0.5,1-1.1,1.2-1.9c-0.3-0.1-0.5-0.3-0.8-0.3c-0.6-0.1-1.1-0.3-1.6-0.7c-0.9-0.7-0.9-1.4-0.1-2.2
		c0.1-0.1,0.2-0.2,0.3-0.3c0.8-0.7,1.5-1.5,2.3-2.2c0.2-0.2,0.3-0.4,0.6-0.4c0.2,0,0.5,0,0.6,0.1c0.1,0.1,0.2,0.3,0.2,0.5
		c0,0.2-0.1,0.5-0.3,0.7c-0.4,0.5-0.7,1-1.1,1.5C94.6,145.5,94.3,145.8,93.9,146.2"/>
	<path class="st4" d="M108.2,13.3c-0.6,0.2-1.3,0.5-1.9,0.3c-0.7-0.1-1.4-0.1-2.1,0.1c-0.2,0-0.4,0-0.6,0c-0.5,0-0.7-0.6-0.5-1
		c0-0.1,0.1-0.2,0.2-0.2c0.8-0.7,1.8-0.9,2.8-0.8C107,11.8,107.6,12.2,108.2,13.3"/>
	<path class="st4" d="M112.5,16.3c-0.8-0.4-1.5-0.8-2.2-1.2c-0.6-0.4-0.7-0.9-0.4-1.3c0.3-0.5,1-0.6,1.5-0.2
		C112.3,14.3,112.8,15.1,112.5,16.3"/>
	<path class="st4" d="M47.9,89c-1-1.3-1.1-2.8-0.3-3.9c0.2-0.2,0.5-0.4,0.8-0.2c0.2,0.1,0.3,0.4,0.3,0.6c0,0.5,0,1.1-0.1,1.6
		C48.4,87.7,48.2,88.2,47.9,89"/>
	<path class="st5" d="M48.6,92.1c-0.8-0.1-1.1-0.7-1.3-1.4c0-0.2,0.2-0.4,0.4-0.5c0.2-0.1,0.5,0,0.6,0.2
		C48.5,91,48.8,91.5,48.6,92.1"/>
	<path class="st4" d="M126.5,117.1c0.5,0,0.9,0.4,0.9,1c0.1,0.5-0.3,1-0.7,1c-0.2,0-0.5-0.1-0.6-0.2c-0.4-0.4-0.4-1.3,0.1-1.7
		C126.3,117.2,126.4,117.1,126.5,117.1"/>
	<path class="st4" d="M79.7,84.1c0-1.5,0.3-2.9,0.7-4.3c0.3-1,0.8-2,1.5-2.8c2.1-2.3,4-2.1,6,0c1,1.1,1.4,2.5,1.7,4
		c0.4,2.7,0.1,5.4-1.1,7.9c-0.3,0.5-0.6,1-0.9,1.5c-1.4,1.7-3.5,1.9-5.1,0.5c-1.5-1.4-2.5-3.1-2.7-5.1
		C79.7,85.1,79.7,84.6,79.7,84.1"/>
	<path class="st6" d="M92.3,63c2.2,0.2,4.1,1.2,5.6,2.8c1.8,1.9,3,4.2,4,6.7c1.5,3.7,2.5,7.6,3.1,11.6c0.4,2.3,0.7,4.6,0.7,6.9
		c0,0.5,0,1.1,0,1.6c-0.4-0.3-0.2-0.7-0.3-1c-0.1-0.4-0.2-0.8-0.2-1.1c-1.1-6.4-3.7-12.2-7.5-17.4c-1.8-2.4-4.1-4.2-7-5.1
		c-2-0.6-4-0.7-5.9,0.2c-0.3,0.1-0.5,0.2-0.8,0.3c0,0-0.1,0-0.2-0.1c1.4-1.8,3.2-3.2,5.2-4.3c0.2-0.1,0.4-0.2,0.6-0.3l0,0
		C90.3,63.4,91.3,63.2,92.3,63"/>
	<path class="st0" d="M92.3,63c-1,0.2-1.9,0.4-2.9,0.7C90.2,62.7,91.2,62.6,92.3,63"/>
	<path class="st0" d="M89.4,63.6c-0.2,0.1-0.4,0.2-0.6,0.3C89,63.8,89.2,63.7,89.4,63.6"/>
</g>
</svg>
