<?xml version="1.0" encoding="utf-8"?>
<!-- Generator: Adobe Illustrator 27.9.0, SVG Export Plug-In . SVG Version: 6.00 Build 0)  -->
<svg version="1.1" id="Layer_1" xmlns="http://www.w3.org/2000/svg" xmlns:xlink="http://www.w3.org/1999/xlink" x="0px" y="0px"
	 viewBox="0 0 200 200" style="enable-background:new 0 0 200 200;" xml:space="preserve">
<style type="text/css">
	.st0{fill:#FFFFFF;}
	.st1{fill:#8F3E83;}
	.st2{fill:#A73059;}
	.st3{fill:#FFCD74;}
	.st4{fill:#FE8A02;}
	.st5{fill:#FADA9B;}
	.st6{fill:#F89B8D;}
	.st7{fill:#FEFEFE;}
</style>
<path class="st0" d="M148.4,184c0.4,0.3,0.7,0.6,1.1,1c3.2,2.9,6.5,5.8,9.7,8.7c0.2,0.2,0.5,0.5,0.8,0c-0.6-0.9-1.2-1.9-1.8-2.8
	c-2.2-3.4-4.7-6.5-7.1-9.8c0.2-0.2,0.4-0.3,0.6-0.5c3.3,1.7,6.6,3.3,9.9,4.9c0.4,0.2,0.8,0.6,1.2,0.1c-0.1-0.2-0.1-0.3-0.2-0.4
	c-2.6-2.7-5.3-5.2-8.3-7.4c-0.7-0.5-1.5-1-2.2-1.4c-0.5-0.3-1-0.5-1.6-0.4c-0.8,0.1-1.6,0.8-1.4,1.6c0.1,0.5,0.6,1.1,0.5,1.6
	c-0.2,0.7-1.1,0.2-1.7,0.6c-0.9,0.6-1,1.4-0.9,2.3c-0.2,0.2-0.4,0.4-0.5,0.7c-0.7,0-1.5-0.1-2,0.7c-0.4,0.7-0.4,1.4-0.2,2.1
	c0.2,0.7,0.5,1.3,0.9,2c1.8,3.3,4.1,6.4,6.7,9.2c0.2,0.2,0.3,0.3,0.7,0.1c-0.1-0.8-0.6-1.6-0.9-2.4c-1.3-3.3-3-6.5-3.9-9.9
	C148,184.3,148.2,184.2,148.4,184z"/>
<path class="st0" d="M110.1,16.4c0.1-0.9,0.1-1.4,0.2-1.9c0.2-1.8-1.2-3.2-3.3-2.7c-1,0.2-1.8,0.7-2.6,1.3c-1.9,1.4-3.4,3.2-4.6,5.2
	c-1.8,3.2-3.1,6.6-3.9,10.2c-0.2,1-0.7,1.7-1.6,2.3c-4,2.5-7.7,5.3-11.3,8.4c-8.2,7-15.9,14.5-22.7,23c-2.6,3.3-5,6.8-7.3,10.3
	c-0.4,0.5-0.7,1.1-1.1,1.6c-0.2,0.2-0.4,0.2-0.6,0c-0.3-0.2-0.5-0.4-0.7-0.7c-2.2-2.1-3.6-2.4-6.3-1c-0.7,0.3-1.3,0.7-1.9,1.1
	c-1.7,1.2-3.5,2.4-5.1,3.7c-2.9,2.3-3.5,4.7-2.4,8.2c0.4,1.2,1.1,2.4,1.8,3.5c0.5,0.8,0.5,0.9-0.2,1.7c-1,1.1-2,2.1-2.7,3.4
	c-1.2,2.3-1.1,4.5,0.5,6.6c0.3,0.4,0.6,0.8,1,1.1c1,0.7,0.9,1.6,0.4,2.6c-0.7,1.5-1.2,3-1.8,4.5c-1.4,3.9-2.5,7.9-2.9,12
	c-0.5,5.2,0.3,10.2,2.9,14.8c1.2,2.1,2.5,4.2,3.8,6.2c0.7,1.2,1.6,2.3,2.5,3.3c3.6,4,7.5,7.6,12,10.6c9.6,6.5,19.7,12.1,30.3,16.9
	c7.1,3.2,14.5,5.6,22.2,7c7.8,1.4,15.7,2.5,23.6,3.2c2.9,0.3,5.6,0.1,8.4-0.6c2-0.5,3.7-1.5,5.2-2.9c2.2-2,3.8-4.4,5-7.1
	c1.8-4.1,3.1-8.3,4.2-12.7c2.5-9.7,4-19.5,4.2-29.5c0.1-5.3,0-10.7-0.2-16c-0.1-3.2-0.3-6.3-0.8-9.4c-0.6-4-1.4-8-1.9-12
	c-1.3-9.6-3.8-18.9-6.5-28.1c-3.2-10.8-8.1-21-12.9-31.1c-1.1-2.2-2.4-4.2-4-6c-0.2-0.2-0.3-0.4,0-0.9c0.9-0.6,2.1-0.9,3.3-1.3
	c3.3-1.1,6.5-2.5,9.2-4.8c1.6-1.3,2.9-2.9,3.8-4.7c0.9-1.8,1.3-3.6,0.9-5.6c-0.4-2.2-1.8-3.6-3.9-4.1c-0.9-0.2-1.9-0.4-2.9-0.3
	c-3.9,0.2-7.5,1-10.8,3.3c-0.5,0.3-0.8,0.8-1.5,0.8c-0.3-0.4-0.1-0.8-0.1-1.1c0.2-2.2-0.6-3.3-2.7-3.9c-1.3-0.4-2.6,0-3.8,0.5
	c-2,0.9-3.5,2.3-4.9,3.9c-1.4,1.7-2.5,3.6-3.6,5.5C111.4,14.7,111.1,15.4,110.1,16.4z"/>
<path class="st0" d="M141.2,24.3c-0.5,0-0.8,0-1.1,0c-1.6,0.1-1.6,0.1-1.9,1.8c-0.1,0.4-0.3,0.5-0.6,0.5c-0.2,0-0.5-0.1-0.7-0.1
	c-0.7,0-1.3,0.2-1.6,0.9c-0.3,0.6-0.2,1.3,0.5,2c0.5,0.5,1.2,0.9,1.8,1.3c3.6,2.1,7.4,3.9,11.2,5.7c0.3,0.1,0.6,0.3,1.1,0
	c-0.7-1.1-1.7-1.9-2.6-2.7c-1-0.9-2.1-1.8-3.1-2.7c-0.9-0.8-2.1-1.5-2.9-2.5c0.6-0.4,1.1-0.2,1.5-0.1c2.2,0.5,4.5,0.5,6.8,0.5
	c0.9,0,1.8-0.1,2.7-0.2c0.1,0,0.2-0.2,0.2-0.3c0-0.1-0.1-0.3-0.2-0.4c-0.2-0.1-0.5-0.1-0.7-0.2c-2.5-0.9-5-1.7-7.6-2.6
	c-0.1,0-0.2-0.2-0.2-0.4c-0.1-0.2,0-0.3,0.2-0.3c0.2,0,0.5-0.1,0.7-0.1c2-0.3,4-0.8,5.9-1.5c0.7-0.3,1.5-0.4,2-1.2
	c-0.2-0.4-0.5-0.3-0.9-0.3c-2.2,0-4.4,0-6.6,0c-0.7,0-1.5,0-2.2,0.1C141.3,21.6,140.9,22.2,141.2,24.3z"/>
<path class="st0" d="M39.7,50.2c1.2,4.4,1.9,8.4,2.7,12.5c0.2,1.1,0.5,2.2,0.8,3.3c0.2,0.6,0.5,1.2,1,1.6c0.9,0.8,2.1,0.5,2.6-0.6
	c0.2-0.5,0.2-0.9,0.1-1.4c-0.1-0.6-0.2-1.3-0.4-1.9c-1.2-3.9-2.8-7.7-4.9-11.3C41.1,51.6,40.8,50.8,39.7,50.2z"/>
<path class="st0" d="M50.6,49.3c-0.3,1.8-0.7,3.5-1,5.2c-0.6,3.3-1.4,6.5-1.7,9.8c-0.1,0.8-0.2,1.6,0,2.4c0.3,1,1.6,1.4,2.3,0.6
	c0.3-0.3,0.5-0.6,0.6-1c0.2-0.8,0.4-1.6,0.5-2.4c0.5-4.3,0.3-8.7-0.1-13C51.3,50.4,51.3,49.8,50.6,49.3z"/>
<path class="st0" d="M31.4,56.9c0.3,0.6,0.4,0.8,0.5,1c2.5,3.2,4.8,6.5,6.9,10c0.3,0.4,0.5,0.8,0.9,1.2c0.6,0.7,1.5,0.8,2.2,0.4
	c0.7-0.4,1-1.3,0.6-2.2c-0.3-0.7-0.7-1.3-1.1-1.9c-2.5-3.2-5.5-5.9-8.9-8.1C32.2,57.1,32,57.1,31.4,56.9z"/>
<path class="st1" d="M110.1,16.4c1-0.9,1.3-1.7,1.7-2.4c1.1-1.9,2.2-3.8,3.6-5.5c1.4-1.6,2.9-3,4.9-3.9c1.2-0.5,2.4-0.9,3.8-0.5
	c2.1,0.6,2.9,1.7,2.7,3.9c0,0.4-0.3,0.8,0.1,1.1c0.6,0,1-0.5,1.5-0.8c3.2-2.3,6.9-3.2,10.8-3.3c1,0,2,0.1,2.9,0.3
	c2.1,0.6,3.5,1.9,3.9,4.1c0.4,2,0,3.9-0.9,5.6c-0.9,1.8-2.2,3.4-3.8,4.7c-2.7,2.3-5.9,3.6-9.2,4.8c-1.2,0.4-2.5,0.8-3.3,1.3
	c-0.3,0.5-0.2,0.7,0,0.9c1.7,1.8,3,3.9,4,6c4.9,10.1,9.7,20.3,12.9,31.1c2.7,9.2,5.2,18.6,6.5,28.1c0.6,4,1.3,8,1.9,12
	c0.5,3.1,0.8,6.3,0.8,9.4c0.1,5.3,0.3,10.7,0.2,16c-0.2,10-1.7,19.8-4.2,29.5c-1.1,4.3-2.4,8.6-4.2,12.7c-1.2,2.7-2.9,5.1-5,7.1
	c-1.5,1.4-3.2,2.4-5.2,2.9c-2.8,0.7-5.6,0.9-8.4,0.6c-7.9-0.7-15.8-1.8-23.6-3.2c-7.7-1.4-15-3.8-22.2-7
	c-10.6-4.7-20.7-10.4-30.3-16.9c-4.5-3-8.4-6.6-12-10.6c-0.9-1-1.8-2.1-2.5-3.3c-1.3-2-2.6-4.1-3.8-6.2c-2.5-4.6-3.4-9.6-2.9-14.8
	c0.4-4.1,1.5-8.1,2.9-12c0.6-1.5,1.1-3,1.8-4.5c0.5-1,0.6-1.8-0.4-2.6c-0.4-0.3-0.7-0.7-1-1.1c-1.6-2.1-1.7-4.3-0.5-6.6
	c0.7-1.3,1.7-2.4,2.7-3.4c0.7-0.8,0.7-0.8,0.2-1.7c-0.7-1.1-1.3-2.2-1.8-3.5c-1.1-3.4-0.5-5.9,2.4-8.2c1.7-1.3,3.4-2.5,5.1-3.7
	c0.6-0.4,1.2-0.8,1.9-1.1c2.8-1.3,4.1-1.1,6.3,1c0.2,0.2,0.5,0.5,0.7,0.7c0.2,0.1,0.5,0.2,0.6,0c0.4-0.5,0.8-1,1.1-1.6
	c2.4-3.5,4.7-7,7.3-10.3c6.7-8.5,14.5-16,22.7-23c3.6-3,7.3-5.9,11.3-8.4c0.9-0.5,1.3-1.2,1.6-2.3c0.8-3.6,2.1-7,3.9-10.2
	c1.2-2.1,2.7-3.8,4.6-5.2c0.8-0.6,1.6-1.1,2.6-1.3c2.1-0.5,3.6,0.9,3.3,2.7C110.2,14.9,110.2,15.4,110.1,16.4z M139.6,57.4
	c0-0.6-0.2-1.1-0.7-1.6c-2.5-7.1-5.9-13.8-9.1-20.7c-0.8-1.7-1.7-3.3-2.9-4.8c-0.4-0.6-0.9-1.1-1.4-1.6c-0.7-0.7-0.9-0.7-1.7-0.3
	c-0.5,0.3-1,0.6-1.5,0.9c-2.5,1.4-4.6,3.3-6.8,5.1c-2.9,2.5-5.6,5.2-7.9,8.2c-3.1,4-5.7,8.4-8.3,12.8c-0.2,0.3-0.2,0.6-0.3,0.9
	c-1.6,0.7-2.2,0.5-2.7-1c-0.2-0.5-0.3-1.1-0.4-1.6c-0.6-3.6-1.2-7.1-1.2-10.8c0-2.3,0-4.7,0-7c0.1-0.4,0.2-0.8-0.3-1.2
	C87.5,39.4,81.5,45,75.5,50.7c-8.2,7.9-15.2,16.8-21.3,26.4c-0.2,0.3-0.4,0.5-0.1,0.9c2.1-0.9,4.1-2.1,6.5-2.3
	c1.3,0.3,2,1.2,2.5,2.4c1.2,2.6,2,5.3,2.7,8c0.3,1.2-0.2,1.7-1.8,1.7c-0.9-1.3-1.5-2.9-2-4.4c-0.4-1.2-0.7-2.5-1.6-3.5
	c-0.1-0.3-0.2-0.6-0.6-0.6c-0.2,0-0.3,0-0.5,0.1c-3.9,1.6-3.7,1.3-4.1,5.2c-0.1,0.7,0.1,1.5-0.4,2c-0.9-1.6-1.7-3.1-2.6-4.7
	c-1-1.8-2-3.7-3.4-5.3c-1.6-1.8-1.7-2.3-4.2-0.6c-0.1,0-0.1,0.1-0.2,0.2c-0.3,0.1-0.5,0.2-0.5,0.5l0,0c-2.2,0.9-3.9,2.4-5.6,4
	c-0.8,0.7-0.8,1.7-0.5,2.7c0.5,1.7,1.4,3,2.6,4.3c1.2,1.2,2.3,2.5,3.5,3.7c1.5,1.4,2.7,3.2,4.4,4.4c0,0,0,0,0,0
	c0,0.4,0.1,0.8,0.1,1.1c-2.8-1-5.2-2.8-7.8-4.2c-0.4-0.2-0.7-0.4-1.1-0.5c-0.3-0.1-0.4,0.2-0.5,0.4c-1,0.7-1.6,1.7-2.3,2.8
	c-0.7,1.1-0.5,2.1,0.4,3.1c1,1.1,2.1,2,3.5,2.4c1.9,0.5,3.8,1.2,5.8,1.3c1.2,0.9,2.7,1.2,4,1.8c0,0.4-0.2,0.5-0.5,0.7
	c-1.4-0.2-2.9-0.1-4.3,0.1c-1.9,0.2-3.8,0.3-5.8-0.1c-0.4-0.1-0.8,0-1,0.4c-2.3,4.9-4.1,10-4.7,15.4c-0.4,3.7,0,7.4,1.3,11
	c1.4,3.5,3.4,6.6,5.6,9.6c0.6,0.8,1.2,1.7,2.2,2.2c2.3,2.4,4.6,4.7,7.3,6.7c2.8,2.1,5.6,4.1,8.7,5.7c0.4,0.3,0.7,0.6,1.1,0.9
	c7.5,4.5,15.2,8.7,23.2,12.1c3.9,1.7,7.9,3.4,12,4.6c2.2,0.6,4.5,1.3,6.9,1.3c1.5,0.8,3.2,0.7,4.7,0.9c4.9,0.6,9.8,1.5,14.6,2.3
	c4.1,0.7,8.2,0.9,12.3,0.9c1.9,0,3.5-0.7,4.8-2c1.5-1.5,2.8-3.1,3.8-5c1.4-2.8,2.5-5.6,3.3-8.6c2-7.3,3.9-14.7,4.5-22.3
	c0.4-4.8,0.9-9.5,0.9-14.3c-0.1-5.3,0.1-10.7-0.5-16c-0.2-2.1-0.3-4.2-0.7-6.3c-0.9-5.7-1.8-11.3-2.8-17c-0.7-4.3-1.7-8.6-3-12.7
	c0.1-0.8-0.2-1.4-0.4-2.1C143,67.2,141.6,62.2,139.6,57.4z M121.9,9.7c0.4,0.1,0.5-0.2,0.6-0.5c0.3-0.4,0.5-0.8,0.8-1.2
	c0.1-0.1,0.1-0.4,0-0.4c-0.2-0.1-0.4-0.3-0.6-0.2c-1.3,0.3-2.4,0.9-3.4,1.8c-1.8,1.6-3,3.6-4.2,5.6c-1.2,1.9-2.3,3.9-3.5,5.8
	c-0.4,0.7-1,1.3-1.8,1.5c-2.4-0.7-3.7-2.1-3.5-4.7c0-0.6,0.5-1.2,0.3-1.9c-1,0.4-1.6,1.1-2.3,1.8c-1.6,1.8-2.7,4-3.7,6.2
	c-1.7,4.1-2.5,8.4-2.8,12.7c-0.4,3.9-0.2,7.9,0,11.9c0.1,1.1,0.3,2.2,0.5,3.4c0,0.1,0,0.2,0.1,0.2c0.1,0,0.2,0,0.3,0
	c0.5-0.7,0.9-1.5,1.1-2.3c0.4-0.7,0.9-1.3,1.3-2c3.8-6.4,8.2-12.2,14.1-16.7c1.8-1.4,3.7-2.7,5.5-3.9c3.1-2.1,6.4-3.7,10-4.8
	c3.2-0.9,6.1-2.4,8.7-4.6c0.9-0.8,1.8-1.6,2.2-2.8c0.5-0.5,0.7-1.1,0.9-1.7c0.7-2.7-0.2-4-3-4.2c-0.2,0-0.5,0-0.7,0
	c-3.3,0.3-6.4,1-9,3.1c-0.8,0.6-1.5,1.2-2.3,1.8c-1,0.8-2.1,1.5-3.5,1.5c-1.5-0.6-2-1.7-1.8-3.2C121.9,11,122.2,10.4,121.9,9.7
	L121.9,9.7z"/>
<path class="st2" d="M151.2,181.1c2.4,3.2,4.9,6.4,7.1,9.8c0.6,0.9,1.2,1.9,1.8,2.8c-0.4,0.5-0.6,0.2-0.8,0
	c-3.2-2.9-6.5-5.8-9.7-8.7c-0.4-0.3-0.7-0.6-1.1-1c-0.2-0.2-0.4-0.5-0.7-0.2c-0.3,0.3,0,0.5,0.1,0.8c1,3.4,2.6,6.6,3.9,9.9
	c0.3,0.8,0.8,1.5,0.9,2.4c-0.4,0.2-0.5,0.1-0.7-0.1c-2.6-2.8-4.8-5.8-6.7-9.2c-0.3-0.6-0.7-1.3-0.9-2c-0.2-0.7-0.3-1.4,0.2-2.1
	c0.5-0.7,1.2-0.7,2-0.7c0.2,0.1,0.5,0.2,0.6,0.2c0.3-0.3,0.1-0.6-0.1-0.8c0-0.9,0-1.8,0.9-2.3c0.6-0.3,1.5,0.1,1.7-0.6
	c0.1-0.4-0.4-1-0.5-1.6c-0.1-0.8,0.6-1.5,1.4-1.6c0.6-0.1,1.1,0.1,1.6,0.4c0.8,0.5,1.5,0.9,2.2,1.4c3,2.2,5.7,4.7,8.3,7.4
	c0.1,0.1,0.1,0.3,0.2,0.4c-0.5,0.5-0.9,0-1.2-0.1c-3.3-1.6-6.6-3.3-9.9-4.9c-0.3-0.2-0.5-0.4-0.8-0.1
	C150.9,180.6,151.1,180.9,151.2,181.1z"/>
<path class="st2" d="M141.2,24.3c-0.3-2.1,0-2.7,1.7-2.9c0.7-0.1,1.5-0.1,2.2-0.1c2.2,0,4.4,0,6.6,0c0.3,0,0.7,0,0.9,0.3
	c-0.5,0.7-1.3,0.9-2,1.2c-1.9,0.7-3.9,1.2-5.9,1.5c-0.2,0-0.5,0.1-0.7,0.1c-0.2,0-0.3,0.1-0.2,0.3c0,0.1,0.1,0.3,0.2,0.4
	c2.5,0.9,5,1.7,7.6,2.6c0.2,0.1,0.5,0.1,0.7,0.2c0.1,0.1,0.2,0.2,0.2,0.4c0,0.1-0.1,0.3-0.2,0.3c-0.9,0.1-1.8,0.2-2.7,0.2
	c-2.3,0-4.5-0.1-6.8-0.5c-0.4-0.1-0.9-0.3-1.5,0.1c0.8,1,2,1.6,2.9,2.5c1,0.9,2.1,1.8,3.1,2.7c0.9,0.8,1.9,1.7,2.6,2.7
	c-0.5,0.3-0.8,0.2-1.1,0c-3.8-1.8-7.6-3.6-11.2-5.7c-0.6-0.4-1.2-0.8-1.8-1.3c-0.7-0.6-0.8-1.3-0.5-2c0.3-0.7,0.9-0.9,1.6-0.9
	c0.2,0,0.5,0.1,0.7,0.1c0.3,0,0.5-0.1,0.6-0.5c0.3-1.7,0.4-1.7,1.9-1.8C140.5,24.3,140.8,24.3,141.2,24.3z"/>
<path class="st2" d="M39.7,50.2c1.1,0.7,1.4,1.4,1.8,2.1c2,3.6,3.6,7.4,4.9,11.3c0.2,0.6,0.3,1.3,0.4,1.9c0.1,0.5,0.1,1-0.1,1.4
	c-0.4,1.1-1.7,1.4-2.6,0.6c-0.5-0.4-0.8-1-1-1.6c-0.3-1.1-0.6-2.2-0.8-3.3C41.6,58.6,40.9,54.5,39.7,50.2z"/>
<path class="st2" d="M50.6,49.3c0.7,0.5,0.7,1.1,0.7,1.6c0.4,4.3,0.6,8.7,0.1,13c-0.1,0.8-0.3,1.6-0.5,2.4c-0.1,0.4-0.4,0.7-0.6,1
	c-0.7,0.8-2.1,0.4-2.3-0.6c-0.2-0.8-0.1-1.6,0-2.4c0.3-3.3,1.1-6.5,1.7-9.8C49.9,52.8,50.3,51.1,50.6,49.3z"/>
<path class="st2" d="M31.4,56.9c0.6,0.2,0.8,0.2,1,0.3c3.4,2.2,6.5,4.9,8.9,8.1c0.4,0.6,0.8,1.2,1.1,1.9c0.4,0.8,0.1,1.7-0.6,2.2
	c-0.7,0.4-1.6,0.3-2.2-0.4c-0.3-0.3-0.6-0.7-0.9-1.2c-2.1-3.5-4.4-6.8-6.9-10C31.8,57.7,31.7,57.4,31.4,56.9z"/>
<path class="st3" d="M59.5,155.7c-3.1-1.6-5.9-3.6-8.7-5.7c-2.6-2-5-4.3-7.3-6.7c-0.1-0.3-0.1-0.6-0.2-0.9
	c-1.4-3.6-2.8-7.2-4.2-10.8c-1-2.4-1.5-4.9-1.8-7.5c-0.4-2.8,0.2-5.6,0.6-8.4c0-0.2,0.3-0.4,0.5-0.5c3.8-2.5,7-5.8,10.6-8.6
	c0.6-0.5,1.3-1,1.3-1.9c0.3-0.2,0.5-0.3,0.5-0.7c0.8-1.6,1.6-3.1,2.5-4.7c2.4-4.1,5.5-7.5,9.5-10.2c0.5-0.4,1.1-0.7,1.4-1.3
	c1.6,0,2.1-0.5,1.8-1.7c-0.7-2.7-1.5-5.4-2.7-8c-0.6-1.1-1.2-2.1-2.5-2.4c0-0.2,0-0.3,0.1-0.5c1.5-2.8,3.5-5.4,5.4-8
	c1-1.4,2-2.7,3.1-4c2.1-2.7,4.3-5.4,6.5-8.1c1.5-1.9,3.1-3.7,4.7-5.5c3.7-4.1,8.2-7.5,12-11.6c0.7-0.8,1.4-1.6,2.3-2.1
	c0,2.3,0.1,4.7,0,7c-0.1,3.6,0.6,7.2,1.2,10.8c0.1,0.6,0.2,1.1,0.4,1.6c0.5,1.5,1.1,1.7,2.7,1c1-0.2,1.5-1,2-1.6
	c3.6-3.8,7.6-7.1,11.2-10.7c0.9-0.9,1.9-1.7,2.9-2.5c0.8-0.6,1.5-1.2,2.4-1.6c2.9-1.3,4.7-1.2,6.7,1.1c1.4,1.6,2.4,3.4,3.2,5.4
	c1.3,3.1,2.3,6.4,3.1,9.7c0.9,3.8,1.7,7.6,2.6,11.3c0.8,3.4,1.6,6.7,1.9,10.2c0.1,1.7,0.3,3.4,0.5,5.1c0.3,2.3,0.7,4.6,0.8,7
	c0.1,4,0.4,8.1,0.6,12.1c-2.4,0.8-4.9,1.7-7.2,2.7c-2.1,1-4.4,1.7-6.6,2.3c-1.2,0.4-2.5,0.7-3.6,1.3c-0.3,0-0.5,0.1-0.5,0.4l0.1,0
	c-0.4,0-0.8,0.1-1.1,0.4c-2.2,2.7-3.1,5.8-2.7,9.2c0.2,1.3,0.3,2.7,0.5,4.1c-0.8,2.2-0.2,4.3,0.8,6.3c0.5,0.9,1,1.8,1.5,2.7
	c-0.2,0.3-0.4,0.6-0.6,0.8c-1.4,1.2-1.6,2.7-0.9,4.4c1.5,3.9,1.8,8.2,2.3,12.3c0.2,1.4,0.1,2.7,0.1,4.1c-0.1,2.3-1.2,4-3.3,5
	c-1.2,0.6-2.4,1-3.7,1.2c-2.5,0.5-5.1,1-7.6,1.3c-2.2,0.2-4.5,0.7-6.7,0.6c-6.3-0.1-12.6,0.3-18.9-0.4c-2-0.2-4-0.5-6-0.9
	c-3.7-0.7-7.3-2.1-10.8-3.5C61.2,155.7,60.4,155.4,59.5,155.7z M70.6,115.7c0,2.8,0.4,5.4,1.3,7.6c2.2,5.5,6,9.1,11.8,10.5
	c2.3,0.6,4.1,0,5.8-1.6c2.2-2.1,3.4-4.7,4.1-7.6c0.9-3.2,1.1-6.5,1.5-9.8c0.4-2.6,0.6-5.3,1.3-7.9c1.2-4.7,2.9-9.3,4.8-13.7
	c0.6-1.5,1.4-2.9,1.9-4.4c0.8-2,0.2-3.3-1.7-4.1c-0.5-0.2-1.1-0.4-1.6-0.5c-1.2-0.3-2.5-0.7-3.8-0.9c-4-0.8-7.9-1.5-11.8-2.6
	c-0.9-0.3-1.7-0.4-2.6-0.4c-1,0-1.7,0.4-2.1,1.3c-0.9,1.9-1.9,3.8-2.7,5.7c-2,5-3.6,10.2-4.7,15.5C71.1,107,70.7,111.4,70.6,115.7z
	 M89.2,68.7c-1.2,0.1-2.3,1.5-2.3,3c0.1,1.5,1.4,2.7,2.9,2.6c1.5-0.1,2.8-1.7,2.7-3.2C92.4,69.9,90.6,68.6,89.2,68.7z M114.2,63.2
	c0.9,0,1.7,0,2.2-0.8c0.9-1.3,0.8-2.3-0.4-3.4c-0.3-0.3-0.6-0.5-1-0.7c-1.1-0.7-1.6-0.6-2.5,0.4c-0.8,0.9-1.2,2.3-0.6,3.3
	C112.4,63,113.2,63.3,114.2,63.2z M103.9,74.4c0-1.5-1.1-2.8-2.4-2.8c-1.3,0-2.6,1.4-2.6,2.7c0,1.3,1.1,2.4,2.5,2.4
	C102.8,76.8,103.8,75.8,103.9,74.4z M56.8,120.1c0.9,0.1,1.6-0.3,2-1.2c0.5-1,0.3-1.7-0.5-2.7c-0.5-0.7-1.3-0.6-2-0.4
	c-1.1,0.3-1.7,1.4-1.5,2.9C54.9,119.7,55.5,120.1,56.8,120.1z M105.8,62.9c0-1.1-0.8-2.1-1.9-2.1c-1.1-0.1-2.5,1.3-2.5,2.5
	c0,1,0.9,1.9,2.1,1.9C104.9,65.2,105.9,64.3,105.8,62.9z M110.7,130.1c0-1.3-0.9-2.3-2-2.2c-1,0-1.9,1.3-1.8,2.5
	c0,0.8,0.9,1.6,1.8,1.7C109.7,132.2,110.7,131.2,110.7,130.1z M102.4,124.8c0,1,0.9,2,1.7,2c1.1,0,2.2-1.2,2.2-2.4
	c0-0.8-1.1-1.8-2-1.7C103.2,122.7,102.4,123.7,102.4,124.8z M49.9,125.1c0,1.3,1.2,2.4,2.3,2c0.8-0.3,1.3-0.9,1.5-1.7
	c0.2-0.7-0.4-1.2-0.9-1.6c-0.2-0.2-0.4-0.3-0.6-0.4c-0.9-0.5-1.5-0.3-2,0.5C50,124.3,49.9,124.7,49.9,125.1z M108.7,57.9
	c0-1.1-1-2-2-2c-0.9,0-1.8,0.9-1.8,1.9c0,0.9,0.9,1.8,1.9,1.8C107.7,59.7,108.7,58.8,108.7,57.9z M100.5,132.4
	c0,0.8,0.2,1.2,0.5,1.5c0.4,0.4,1.3,0.4,1.8,0.1c0.6-0.5,1.4-0.9,1.4-1.8c0-0.7-0.9-1.6-1.7-1.8c-0.7-0.1-1.6,0.5-1.8,1.2
	C100.5,131.9,100.5,132.2,100.5,132.4z M57.3,123.2c-0.6-0.1-1.4,0.7-1.5,1.6c-0.1,0.8,0.3,1.5,1.1,1.6c0.9,0.2,1.7-0.3,1.8-1.1
	C58.8,124.3,58.1,123.3,57.3,123.2z"/>
<path class="st4" d="M137,101.7c-0.2-4-0.5-8.1-0.6-12.1c0-2.3-0.5-4.6-0.8-7c-0.2-1.7-0.4-3.4-0.5-5.1c-0.3-3.5-1-6.9-1.9-10.2
	c-0.9-3.8-1.7-7.6-2.6-11.3c-0.8-3.3-1.8-6.5-3.1-9.7c-0.8-1.9-1.8-3.8-3.2-5.4c-2-2.3-3.8-2.4-6.7-1.1c-0.9,0.4-1.6,1-2.4,1.6
	c-1,0.8-2,1.6-2.9,2.5c-3.7,3.6-7.7,6.9-11.2,10.7c-0.6,0.6-1.1,1.4-2,1.6c0.1-0.3,0.1-0.6,0.3-0.9c2.6-4.4,5.2-8.8,8.3-12.8
	c2.4-3,5-5.7,7.9-8.2c2.1-1.8,4.3-3.7,6.8-5.1c0.5-0.3,1-0.6,1.5-0.9c0.8-0.4,1-0.4,1.7,0.3c0.5,0.5,1,1.1,1.4,1.6
	c1.1,1.5,2.1,3.1,2.9,4.8c3.2,6.8,6.6,13.5,9.1,20.7c0,0.6,0,1.1,0.4,1.6c0,0.6,0.1,1.3,0.3,1.9c1,3.4,1.9,6.8,2.8,10.2
	c0.5,1.6,1,3.2,1.5,4.8c0.7,3.8,1.4,7.6,2.1,11.5c0.4,2.5,0.9,4.9,1.2,7.4c0.4,3,0.6,6,1.1,8.9c0.7,4.8,1,9.7,1.2,14.5
	c0.1,3.6,0.1,7.3-0.3,10.9c-0.3,2.5-0.5,5-1.1,7.4c-1.1,4.5-2.2,9-3.5,13.4c-1.9,6.3-4.5,12.3-7.9,18c-2.5,4.2-6,7-10.8,8
	c-4,0.8-8.1,1-12.1,0.5c-3.7-0.4-7.4-0.4-11.2-0.3c-2.4,0-4.6-0.7-6.9-1.3c-4.1-1.2-8.1-2.9-12-4.6c-8-3.4-15.7-7.6-23.2-12.1
	c-0.4-0.2-0.8-0.6-1.1-0.9c0.9-0.3,1.7,0.1,2.6,0.4c3.5,1.5,7.1,2.8,10.8,3.5c2,0.4,4,0.7,6,0.9c6.3,0.7,12.6,0.4,18.9,0.4
	c2.3,0,4.5-0.4,6.7-0.6c2.6-0.3,5.1-0.9,7.6-1.3c1.3-0.2,2.5-0.7,3.7-1.2c2-1,3.2-2.7,3.3-5c0.1-1.4,0.1-2.8-0.1-4.1
	c-0.5-4.2-0.8-8.4-2.3-12.3c-0.7-1.7-0.5-3.1,0.9-4.4c0.2-0.2,0.4-0.5,0.6-0.8c1.4,1.7,2.4,3.6,3.6,5.4c1.2,1.7,2.4,3.4,3.9,4.9
	c2.1,2.1,5.8,1.9,7.7-0.1c0.5-0.6,1-1.2,1.5-1.9c0.9-1.3,1.5-2.8,2.1-4.3c0.5-1.3,1.1-2.3,2.7-2.2c0.4,0,0.8-0.2,1.2-0.3
	c1.3-0.3,2.2-1,2.6-2.3c1.1-3.2,1.9-6.5,2.3-9.9c0.2-1.6-0.3-3-1.2-4.3c-0.6-0.8-1.1-1.6-1.7-2.3c-0.7-0.8-1-1.7-0.9-2.9
	c0.2-2.2-0.1-4.3-0.9-6.4C140.2,102.9,139,101.7,137,101.7z"/>
<path class="st4" d="M141.4,14.3c-0.4,1.2-1.2,2-2.2,2.8c-2.6,2.2-5.5,3.7-8.7,4.6c-3.6,1-6.9,2.7-10,4.8c-1.9,1.3-3.7,2.5-5.5,3.9
	c-5.9,4.6-10.3,10.4-14.1,16.7c-0.4,0.7-0.9,1.4-1.3,2c0-0.2-0.1-0.3-0.1-0.5c-0.4-7,0.3-13.9,1.6-20.7c0.6-2.9,1.5-5.6,3-8.2
	c0.6-1,1-2,2.1-2.6c-0.2,2.6,1.1,4.1,3.5,4.7c-0.1,0.2-0.1,0.5-0.2,0.7c-1.5,4.1-3,8.2-4.4,12.3c-0.2,0.6-0.4,1.2-0.2,1.9
	c0,0.1,0.2,0.3,0.3,0.3c0.1,0,0.3,0,0.4-0.1c0.6-0.6,1.1-1.4,1.4-2.2c0.6-1.4,1.2-2.8,1.8-4.2c1.8-4.2,3.3-8.6,5.7-12.6
	c1.6-2.7,3.4-5.3,5.7-7.5c0.5-0.4,0.9-1,1.6-0.9c0.2,0.6,0,1.2-0.1,1.9c-0.1,1.5,0.4,2.6,1.8,3.2c-0.3,0.4-0.6,0.8-0.9,1.1
	c-1.2,1.5-2.3,2.9-3.4,4.4c-0.6,0.8-1.2,1.5-1.4,2.5c-0.1,0.3,0,0.7,0.2,0.9c0.3,0.2,0.6,0.2,0.9,0c0.6-0.4,1.1-0.9,1.7-1.4
	c2.3-2.3,4.6-4.7,7-7c2.4-2.4,5.3-3.9,8.6-4.6c0.8-0.2,1.5-0.4,2.4-0.4c0.8,0,1.4,0.4,1.7,1.1C140.8,12.3,141.1,13.3,141.4,14.3z"/>
<path class="st5" d="M102.7,174.6c3.7,0,7.4,0,11.2,0.3c4,0.4,8.1,0.3,12.1-0.5c4.8-1,8.3-3.8,10.8-8c3.4-5.7,6-11.7,7.9-18
	c1.3-4.4,2.4-8.9,3.5-13.4c0.6-2.4,0.8-4.9,1.1-7.4c0.4-3.6,0.4-7.3,0.3-10.9c-0.2-4.8-0.5-9.7-1.2-14.5c-0.4-3-0.7-5.9-1.1-8.9
	c-0.3-2.5-0.8-5-1.2-7.4c-0.7-3.8-1.4-7.6-2.1-11.5c0.2,0,0.5,0,0.7,0c1.3,4.2,2.2,8.4,3,12.7c1,5.7,1.9,11.3,2.8,17
	c0.3,2.1,0.4,4.2,0.7,6.3c0.6,5.3,0.4,10.7,0.5,16c0.1,4.8-0.4,9.5-0.9,14.3c-0.7,7.6-2.6,15-4.5,22.3c-0.8,3-1.9,5.8-3.3,8.6
	c-0.9,1.9-2.2,3.6-3.8,5c-1.4,1.3-2.9,2-4.8,2c-4.1,0-8.2-0.2-12.3-0.9c-4.9-0.8-9.7-1.7-14.6-2.3
	C105.8,175.2,104.2,175.4,102.7,174.6z"/>
<path class="st4" d="M64.1,87.8c-0.3,0.6-0.8,0.9-1.4,1.3c-3.9,2.7-7.1,6.1-9.5,10.2c-0.9,1.5-1.7,3.1-2.5,4.7
	c-1.3-0.7-2.8-0.9-4-1.8c-1.4-1.2-3.1-1.7-4.6-2.5c-2.3-1.2-3.3-2.8-2.6-5.2c0.2-0.7,0.2-1.3-0.2-1.8c0.1-0.2,0.2-0.5,0.5-0.4
	c0.4,0.1,0.7,0.4,1.1,0.5c2.6,1.4,5,3.1,7.8,4.2c0.2,0.1,0.5,0.3,0.8,0.4c0.1,0.2,0.3,0.4,0.6,0.4c0,0.1,0,0.1,0.1,0.2
	c0,0,0.1,0,0.1,0c-0.1-0.1-0.2-0.1-0.2-0.2c0.1-0.3,0-0.5-0.3-0.7c-0.3-1.1-0.3-1.2-1.2-1.3c0,0,0,0,0,0c0.4-0.8-0.2-1.4-0.6-2
	c-1.3-2.1-2.8-4.2-4.3-6.1c-1.1-1.3-2-2.7-2.8-4.2c-0.6-1.1-0.6-2.1,0.4-3c0.8-0.8,1.6-1.6,2.4-2.4c0.3-0.3,0.7-0.7,0.6-1.3l0,0
	c0.3,0,0.5-0.2,0.5-0.5c0.1-0.1,0.1-0.1,0.2-0.2c2.5-1.7,2.6-1.2,4.2,0.6c1.4,1.6,2.4,3.4,3.4,5.3c0.9,1.5,1.7,3.1,2.6,4.7
	c0.3,1,0.5,2,1.2,2.9c0.1,0.1,0.3,0.2,0.4,0.2c0.1,0,0.3-0.2,0.3-0.3c0.4-1.7,0.5-3.5,0.6-5.3c0.1-1.9,0.6-3.5,2.8-3.9
	c0.1,0,0.3-0.2,0.4-0.2c0.9,1,1.2,2.3,1.6,3.5C62.6,85,63.2,86.5,64.1,87.8z"/>
<path class="st5" d="M94.6,36c-0.9,0.5-1.6,1.4-2.3,2.1c-3.8,4.1-8.3,7.4-12,11.6c-1.6,1.8-3.2,3.6-4.7,5.5
	c-2.2,2.7-4.3,5.4-6.5,8.1c-1,1.3-2.1,2.7-3.1,4c-1.8,2.6-3.8,5.2-5.4,8c-0.1,0.1-0.1,0.3-0.1,0.5c-2.4,0.1-4.4,1.3-6.5,2.3
	c-0.3-0.4-0.1-0.7,0.1-0.9c6.1-9.6,13.1-18.5,21.3-26.4c6-5.7,12-11.3,18.8-15.9C94.8,35.2,94.7,35.6,94.6,36z"/>
<path class="st5" d="M38.4,115.2c-0.2,0.2-0.4,0.3-0.5,0.5c-0.3,2.8-0.9,5.6-0.6,8.4c0.3,2.5,0.9,5.1,1.8,7.5
	c1.4,3.6,2.8,7.2,4.2,10.8c0.1,0.3,0.2,0.6,0.2,0.9c-1-0.5-1.5-1.4-2.2-2.2c-2.3-2.9-4.3-6-5.6-9.6c-1.4-3.6-1.7-7.2-1.3-11
	c0.6-5.4,2.4-10.5,4.7-15.4c0.9,0.8,0.8,1.9,0.6,2.9c-0.4,1.8-0.7,3.6-1.2,5.3C38.3,113.9,38.2,114.5,38.4,115.2z"/>
<path class="st5" d="M106.2,17.3c-1,0.6-1.5,1.6-2.1,2.6c-1.4,2.6-2.4,5.3-3,8.2c-1.3,6.8-2,13.7-1.6,20.7c0,0.2,0,0.3,0.1,0.5
	c-0.2,0.9-0.6,1.6-1.1,2.3c-0.1,0-0.2,0-0.3,0c-0.1,0-0.1-0.1-0.1-0.2c-0.2-1.1-0.4-2.2-0.5-3.4c-0.2-4-0.3-7.9,0-11.9
	c0.4-4.3,1.1-8.6,2.8-12.7c1-2.2,2.1-4.4,3.7-6.2c0.6-0.7,1.3-1.4,2.3-1.8C106.7,16.1,106.3,16.7,106.2,17.3z"/>
<path class="st5" d="M141.4,14.3c-0.3-1-0.6-2-1-3c-0.3-0.8-0.9-1.1-1.7-1.1c-0.8,0-1.6,0.2-2.4,0.4c-3.3,0.7-6.2,2.3-8.6,4.6
	c-2.4,2.3-4.6,4.7-7,7c-0.5,0.5-1.1,1-1.7,1.4c-0.3,0.2-0.6,0.2-0.9,0c-0.3-0.2-0.3-0.6-0.2-0.9c0.2-1,0.8-1.7,1.4-2.5
	c1.1-1.5,2.3-2.9,3.4-4.4c0.3-0.4,0.6-0.8,0.9-1.1c1.4,0,2.5-0.6,3.5-1.5c0.8-0.6,1.5-1.2,2.3-1.8c2.7-2.1,5.8-2.8,9-3.1
	c0.2,0,0.5,0,0.7,0c2.8,0.3,3.7,1.5,3,4.2C142.1,13.3,141.9,13.9,141.4,14.3z"/>
<path class="st5" d="M121.9,9.7c-0.8-0.1-1.2,0.4-1.6,0.9c-2.3,2.2-4.1,4.8-5.7,7.5c-2.4,4-3.9,8.3-5.7,12.6
	c-0.6,1.4-1.2,2.8-1.8,4.2c-0.4,0.8-0.8,1.6-1.4,2.2c-0.1,0.1-0.3,0.1-0.4,0.1c-0.1,0-0.3-0.2-0.3-0.3c-0.2-0.7,0-1.3,0.2-1.9
	c1.5-4.1,3-8.2,4.4-12.3c0.1-0.2,0.1-0.5,0.2-0.7c0.8-0.2,1.4-0.7,1.8-1.5c1.1-1.9,2.3-3.9,3.5-5.8c1.2-2,2.4-4,4.2-5.6
	c1-0.9,2.1-1.5,3.4-1.8c0.2,0,0.4,0.1,0.6,0.2c0.1,0.1,0.1,0.3,0,0.4c-0.2,0.4-0.5,0.8-0.8,1.2C122.2,9.3,121.9,9.4,121.9,9.7
	L121.9,9.7z"/>
<path class="st4" d="M38.4,115.2c-0.1-0.6,0-1.2,0.1-1.9c0.4-1.8,0.8-3.6,1.2-5.3c0.2-1,0.4-2.1-0.6-2.9c0.2-0.4,0.6-0.5,1-0.4
	c1.9,0.4,3.8,0.3,5.8,0.1c1.4-0.2,2.9-0.3,4.3-0.1c0,0.9-0.7,1.4-1.3,1.9C45.3,109.4,42.1,112.6,38.4,115.2z"/>
<path class="st5" d="M44.1,76.8c0.1,0.6-0.3,0.9-0.6,1.3c-0.8,0.8-1.5,1.7-2.4,2.4c-1,0.9-1,1.9-0.4,3c0.8,1.5,1.7,2.9,2.8,4.2
	c1.6,1.9,3,4,4.3,6.1c0.4,0.6,0.9,1.2,0.6,2c-1.7-1.2-2.9-2.9-4.4-4.4c-1.2-1.2-2.3-2.4-3.5-3.7c-1.2-1.2-2.1-2.6-2.6-4.3
	c-0.3-1-0.3-2,0.5-2.7C40.2,79.3,41.9,77.7,44.1,76.8z"/>
<path class="st5" d="M39.2,92.6c0.4,0.6,0.4,1.2,0.2,1.8c-0.7,2.5,0.3,4.1,2.6,5.2c1.6,0.8,3.3,1.3,4.6,2.5c-2-0.1-3.9-0.8-5.8-1.3
	c-1.4-0.4-2.6-1.3-3.5-2.4c-0.8-0.9-1-1.9-0.4-3.1C37.6,94.3,38.2,93.3,39.2,92.6z"/>
<path class="st5" d="M60.5,79.9c-0.1,0.1-0.3,0.2-0.4,0.2c-2.2,0.4-2.6,2.1-2.8,3.9c-0.1,1.8-0.2,3.5-0.6,5.3c0,0.1-0.2,0.3-0.3,0.3
	c-0.1,0-0.3-0.1-0.4-0.2c-0.6-0.9-0.8-1.9-1.2-2.9c0.6-0.6,0.4-1.4,0.4-2c0.4-3.9,0.2-3.6,4.1-5.2c0.1-0.1,0.3-0.1,0.5-0.1
	C60.3,79.4,60.4,79.6,60.5,79.9z"/>
<path class="st3" d="M144.7,74.3c-0.2,0-0.5,0-0.7,0c-0.5-1.6-1.1-3.2-1.5-4.8c-1-3.4-1.9-6.8-2.8-10.2c-0.2-0.6-0.3-1.2-0.3-1.9
	c0.1,0,0.2,0,0.3,0c2,4.8,3.4,9.8,4.6,14.8C144.4,72.9,144.8,73.6,144.7,74.3z"/>
<path class="st5" d="M49.3,97.3c-0.3-0.1-0.5-0.3-0.8-0.4c0-0.4-0.1-0.8-0.1-1.1c0.8,0.1,0.9,0.1,1.2,1.3
	C49.5,97.1,49.4,97.2,49.3,97.3z"/>
<path class="st6" d="M139.6,57.4c-0.1,0-0.2,0-0.3,0c-0.4-0.4-0.4-1-0.4-1.6C139.4,56.3,139.6,56.8,139.6,57.4z"/>
<path class="st4" d="M121.9,9.7c0-0.3,0.3-0.4,0.6-0.5C122.4,9.5,122.3,9.8,121.9,9.7z"/>
<path class="st5" d="M44.6,76.3c0,0.3-0.2,0.5-0.5,0.5C44.1,76.5,44.3,76.4,44.6,76.3z"/>
<path class="st0" d="M147.8,184.5c-0.1-0.2-0.4-0.5-0.1-0.8c0.3-0.3,0.5,0.1,0.7,0.2C148.2,184.2,148,184.3,147.8,184.5z"/>
<path class="st0" d="M147,182.1c0.2,0.3,0.4,0.6,0.1,0.8c-0.1,0.1-0.4-0.1-0.6-0.2C146.6,182.5,146.8,182.3,147,182.1z"/>
<path class="st0" d="M151.2,181.1c-0.1-0.2-0.3-0.5-0.2-0.6c0.3-0.3,0.6-0.1,0.8,0.1C151.6,180.8,151.4,180.9,151.2,181.1z"/>
<path class="st1" d="M70.6,115.7c0.2-4.4,0.5-8.7,1.5-13c1.2-5.3,2.7-10.5,4.7-15.5c0.8-1.9,1.8-3.8,2.7-5.7
	c0.4-0.9,1.2-1.3,2.1-1.3c0.9,0,1.8,0.1,2.6,0.4c3.9,1.1,7.9,1.8,11.8,2.6c1.3,0.3,2.5,0.6,3.8,0.9c0.5,0.1,1.1,0.3,1.6,0.5
	c1.9,0.8,2.5,2.1,1.7,4.1c-0.6,1.5-1.3,3-1.9,4.4c-1.9,4.5-3.5,9-4.8,13.7c-0.7,2.6-1,5.2-1.3,7.9c-0.5,3.3-0.7,6.6-1.5,9.8
	c-0.8,2.9-2,5.5-4.1,7.6c-1.6,1.6-3.5,2.2-5.8,1.6c-5.8-1.5-9.7-5-11.8-10.5C71,121.1,70.6,118.5,70.6,115.7z M75.7,120.1
	c0,0.5,0,0.8,0,1.1c0,2.9,1.1,5.1,3.6,6.6c0.9,0.5,1.8,1.2,2.7,1.6c0.9,0.4,1.8,0.8,2.8,0.8c0.8,0,1.5-0.2,2.2-0.8
	c1.7-1.6,2.7-3.7,3.2-5.9c0.6-2.6,1.2-5.2,1.2-7.9c0-0.5,0.1-1,0.2-1.4c0.4-1.5,0.2-3,0.7-4.5c0.3-0.8-0.1-1.3-1-1.7
	c-0.4-0.2-0.8-0.3-1.2-0.4c-2.8-0.9-5,0-6.4,2.4c-0.5,0.8-0.8,1.6-0.4,2.5c0.4,0.9,0.3,1.7,0.2,2.6c0,0.2-0.2,0.4-0.3,0.6
	c-0.2,0.2-0.5,0-0.7-0.1c-0.8-0.7-1.5-1.4-2.1-2.3c-0.5-0.8-1.2-0.9-1.8-0.3c-1,0.8-1.8,1.8-2.3,3C75.7,117.5,75.6,118.8,75.7,120.1
	z M82.5,84c-0.3,1.3-0.2,2.5,0.3,3.6c0.5,1,1.4,1.1,2.1,0.4c0.4-0.4,0.7-0.9,1-1.3c0.3-0.4,0.8-0.8,0.7-1.5
	C85.4,84.6,84.1,84,82.5,84z M98.3,87.8c-1.1-0.6-2.2-0.7-3.2-1c-0.9-0.3-1.1,0.1-1.3,0.9c-0.1,0.9,0.1,1.7,0.7,2.5
	c0.6,0.8,1.4,0.9,2,0.1C97.2,89.6,97.7,88.8,98.3,87.8z"/>
<path class="st4" d="M115.7,122.1c-0.2-1.3-0.3-2.7-0.5-4.1c-0.4-3.4,0.5-6.5,2.7-9.2c0.3-0.3,0.6-0.5,1.1-0.4c0.6,1.7,1,2,2.6,1.9
	c0.2,0,0.5,0,0.7-0.1c2.5-0.6,5-1.2,7.4-2.3c2.1-0.9,4-2,6.2-2.5c0.2,0.5,0.5,1,0.7,1.5c0.5,1.7,0,3-1.6,3.8
	c-2.9,1.5-5.8,3.2-8.6,4.9c-0.3,0.2-0.7,0.3-0.7,0.9c1.9,0.1,4-0.2,8.7-1.5c1.8,0.9,3.4-0.1,5.1-0.8c0.9,1.3,1.8,2.6,2.5,3.9
	c-0.6,2.4-1.1,4.9-1.8,7.3c-0.3,1.2-0.7,1.4-1.9,1.4c-1.6,0-3.1-0.4-4.4-1.1c-1.9-0.9-3.8-1.9-5.6-2.9c-1.5-0.8-2.9-1.8-4.3-2.7
	c-0.1-0.1-0.3,0-0.4,0c-0.3,0.2-0.2,0.4,0,0.6c1.6,1.9,3.4,3.5,5.2,5.1c0.9,0.8,1.8,1.7,3,2.1c0.7,1,1.5,2,2.2,3.1
	c-0.9,1.8-2.1,3.4-3.6,4.8c-0.7,0.7-1.5,0.9-2.4,0.4c-0.7-0.3-1.4-0.9-2.2-0.7c-0.9-1.4-1.9-2.8-2.7-4.3
	C120.9,127.9,118.5,124.9,115.7,122.1z M121.9,119.1c0-0.2-0.1-0.3-0.2-0.1C121.7,119,121.8,119.1,121.9,119.1
	c0.1,0.2,0.2,0.4,0.5,0.5c0.1,0.1,0.1,0.2,0.2,0.3c0-0.1,0.1-0.2,0.1-0.2c-0.1,0-0.2-0.1-0.4-0.1
	C122.4,119.3,122.2,119.1,121.9,119.1z"/>
<path class="st1" d="M142,118.2c-0.7-1.4-1.6-2.6-2.5-3.9c-1.7,0.7-3.3,1.7-5.1,0.8c-0.3-0.5-0.3-0.9,0-1.4c0.4-0.7,1-1.2,1.8-1.5
	c0.6-0.2,1.2-0.5,1.8-0.8c0.7-0.3,0.9-0.8,0.9-1.6c0-1.5-0.4-2.9-0.9-4.2c-0.2-0.5-0.7-0.7-1.2-0.6c-0.3,0.1-0.6,0.3-0.9,0.4
	c-2.2,0.5-4.2,1.6-6.2,2.5c-2.4,1-4.9,1.6-7.4,2.3c-0.2,0.1-0.5,0.1-0.7,0.1c-1.5,0.1-1.9-0.1-2.6-1.9c0,0-0.1,0-0.1,0
	c0.3,0,0.4-0.2,0.5-0.4c1.2-0.6,2.4-0.9,3.6-1.3c2.2-0.7,4.5-1.3,6.6-2.3c2.3-1.1,4.8-2,7.2-2.7c2.1,0,3.2,1.1,4,3
	c0.8,2.1,1.1,4.2,0.9,6.4c-0.1,1.2,0.1,2,0.9,2.9c0.6,0.7,1.2,1.5,1.7,2.3c0.9,1.3,1.4,2.7,1.2,4.3c-0.4,3.4-1.2,6.7-2.3,9.9
	c-0.4,1.2-1.3,2-2.6,2.3c-0.4,0.1-0.8,0.3-1.2,0.3c-1.7-0.2-2.2,0.9-2.7,2.2c-0.6,1.5-1.2,3-2.1,4.3c-0.5,0.7-1,1.3-1.5,1.9
	c-1.9,2-5.6,2.2-7.7,0.1c-1.5-1.5-2.7-3.2-3.9-4.9c-1.2-1.8-2.2-3.8-3.6-5.4c-0.5-0.9-1.1-1.8-1.5-2.7c-1-2-1.6-4.1-0.8-6.3
	c2.7,2.8,5.2,5.8,7,9.2c0.8,1.5,1.8,2.9,2.7,4.3c0.6,0.9,1.1,1.8,1.8,2.6c1.6,1.9,3,1.8,4.6-0.2c0.1-0.1,0.2-0.3,0.3-0.4
	c0.9-1.6,1.8-3.3,2.7-4.9c0.2-0.4,0.1-0.8-0.3-1.1c-0.2-0.2-0.5-0.4-0.8-0.5c-0.7-1-1.5-2-2.2-3.1c0.1-0.2,0.3-0.5,0.4-0.5
	c0.4,0,0.8,0,1.2,0.1c1.7,0.3,3.4,1,4.9,1.8c1.3,0.6,2.4,0.1,2.8-1.3c0.7-2.5,1.3-5,1.7-7.5C142.8,119.7,142.6,118.9,142,118.2z"/>
<path class="st1" d="M89.2,68.7c1.4-0.1,3.2,1.1,3.3,2.3c0.1,1.5-1.2,3.1-2.7,3.2c-1.5,0.1-2.8-1.1-2.9-2.6
	C86.9,70.2,87.9,68.8,89.2,68.7z"/>
<path class="st5" d="M114.2,63.2c-1,0.1-1.8-0.2-2.3-1.2c-0.5-1-0.2-2.4,0.6-3.3c0.9-0.9,1.4-1,2.5-0.4c0.3,0.2,0.7,0.4,1,0.7
	c1.2,1.1,1.3,2.1,0.4,3.4C115.9,63.2,115.1,63.2,114.2,63.2z"/>
<path class="st1" d="M103.9,74.4c0,1.4-1,2.4-2.5,2.3c-1.4,0-2.5-1.1-2.5-2.4c0-1.3,1.3-2.7,2.6-2.7C102.8,71.6,103.9,73,103.9,74.4
	z"/>
<path class="st5" d="M56.8,120.1c-1.3,0-1.9-0.4-2-1.4c-0.2-1.5,0.4-2.6,1.5-2.9c0.7-0.2,1.5-0.2,2,0.4c0.7,0.9,1,1.7,0.5,2.7
	C58.3,119.8,57.7,120.2,56.8,120.1z"/>
<path class="st5" d="M105.8,62.9c0,1.4-0.9,2.3-2.3,2.2c-1.1,0-2.1-0.9-2.1-1.9c0-1.1,1.4-2.5,2.5-2.5
	C105,60.8,105.8,61.8,105.8,62.9z"/>
<path class="st5" d="M110.7,130.1c0,1.1-1,2.1-2,2c-0.9-0.1-1.8-0.9-1.8-1.7c0-1.2,0.8-2.5,1.8-2.5
	C109.8,127.9,110.7,128.8,110.7,130.1z"/>
<path class="st5" d="M102.4,124.8c0-1.1,0.8-2,1.9-2.1c0.9-0.1,2,0.9,2,1.7c0,1.3-1.1,2.5-2.2,2.4
	C103.3,126.8,102.5,125.8,102.4,124.8z"/>
<path class="st5" d="M49.9,125.1c0-0.4,0.1-0.8,0.3-1.1c0.5-0.8,1.2-1,2-0.5c0.2,0.1,0.4,0.2,0.6,0.4c0.5,0.4,1,0.9,0.9,1.6
	c-0.2,0.8-0.6,1.5-1.5,1.7C51.2,127.5,49.9,126.4,49.9,125.1z"/>
<path class="st5" d="M108.7,57.9c0,0.9-1,1.8-2,1.8c-1,0-1.9-1-1.9-1.8c0-1,0.9-1.8,1.8-1.9C107.8,55.9,108.7,56.8,108.7,57.9z"/>
<path class="st5" d="M100.5,132.4c0-0.1,0-0.4,0.1-0.7c0.3-0.8,1.2-1.4,1.8-1.2c0.8,0.2,1.8,1,1.7,1.8c0,0.9-0.8,1.3-1.4,1.8
	c-0.5,0.4-1.4,0.3-1.8-0.1C100.7,133.6,100.5,133.2,100.5,132.4z"/>
<path class="st5" d="M57.3,123.2c0.8,0.1,1.4,1.2,1.3,2c-0.1,0.8-0.9,1.3-1.8,1.1c-0.7-0.1-1.2-0.8-1.1-1.6
	C55.9,123.9,56.7,123.1,57.3,123.2z"/>
<path class="st4" d="M119.5,108.1c-0.1,0.2-0.2,0.4-0.5,0.4C119.1,108.2,119.2,108.1,119.5,108.1z"/>
<path class="st5" d="M49.9,97.7c0.1,0.1,0.2,0.1,0.2,0.2c0,0-0.1,0-0.1,0C50,97.8,50,97.8,49.9,97.7L49.9,97.7z"/>
<path class="st5" d="M49.9,97.7c-0.3,0-0.5-0.1-0.6-0.4c0.1-0.1,0.2-0.2,0.3-0.3C49.9,97.2,50,97.4,49.9,97.7
	C49.9,97.7,49.9,97.7,49.9,97.7z"/>
<path class="st2" d="M75.7,120.1c-0.1-1.2,0-2.6,0.5-3.9c0.5-1.3,1.3-2.2,2.3-3c0.7-0.6,1.4-0.5,1.8,0.3c0.6,0.9,1.3,1.7,2.1,2.3
	c0.2,0.2,0.4,0.3,0.7,0.1c0.2-0.1,0.3-0.4,0.3-0.6c0.1-0.9,0.1-1.8-0.2-2.6c-0.4-0.9-0.1-1.7,0.4-2.5c1.4-2.4,3.7-3.2,6.4-2.4
	c0.4,0.1,0.8,0.2,1.2,0.4c0.9,0.4,1.3,0.8,1,1.7c-0.5,1.5-0.3,3-0.7,4.5c-0.1,0.5-0.2,1-0.2,1.4c0,2.7-0.6,5.3-1.2,7.9
	c-0.5,2.2-1.4,4.3-3.2,5.9c-0.6,0.6-1.3,0.8-2.2,0.8c-1,0-1.9-0.4-2.8-0.8c-0.9-0.5-1.8-1.1-2.7-1.6c-2.5-1.5-3.7-3.7-3.6-6.6
	C75.7,120.9,75.7,120.6,75.7,120.1z"/>
<path class="st7" d="M82.5,84c1.5,0.1,2.8,0.6,4.2,1.1c0.1,0.7-0.4,1-0.7,1.5c-0.3,0.5-0.6,0.9-1,1.3c-0.7,0.8-1.7,0.6-2.1-0.4
	C82.3,86.4,82.2,85.3,82.5,84z"/>
<path class="st7" d="M98.3,87.8c-0.7,0.9-1.2,1.7-1.8,2.5c-0.6,0.8-1.4,0.7-2-0.1c-0.6-0.7-0.8-1.6-0.7-2.5c0.1-0.8,0.4-1.2,1.3-0.9
	C96.2,87.2,97.2,87.2,98.3,87.8z"/>
<path class="st5" d="M142,118.2c0.6,0.7,0.8,1.5,0.6,2.5c-0.4,2.5-1,5-1.7,7.5c-0.4,1.4-1.5,1.9-2.8,1.3c-1.6-0.8-3.2-1.5-4.9-1.8
	c-0.4-0.1-0.8-0.1-1.2-0.1c-0.2,0-0.3,0.3-0.4,0.5c-1.2-0.4-2-1.3-3-2.1c-1.8-1.6-3.6-3.2-5.2-5.1c-0.1-0.2-0.2-0.4,0-0.6
	c0.1-0.1,0.3-0.1,0.4,0c1.5,0.9,2.9,1.8,4.3,2.7c1.8,1,3.7,2,5.6,2.9c1.4,0.7,2.9,1.1,4.4,1.1c1.3,0,1.6-0.2,1.9-1.4
	C140.9,123.1,141.4,120.6,142,118.2z"/>
<path class="st5" d="M135.9,105.4c0.3-0.1,0.6-0.3,0.9-0.4c0.5-0.1,1,0,1.2,0.6c0.6,1.4,0.9,2.8,0.9,4.2c0,0.7-0.2,1.3-0.9,1.6
	c-0.6,0.3-1.2,0.5-1.8,0.8c-0.8,0.3-1.4,0.8-1.8,1.5c-0.3,0.5-0.3,0.9,0,1.4c-4.7,1.3-6.8,1.6-8.7,1.5c0-0.5,0.4-0.7,0.7-0.9
	c2.8-1.7,5.6-3.4,8.6-4.9c1.6-0.8,2.1-2.1,1.6-3.8C136.4,106.4,136.1,105.9,135.9,105.4z"/>
<path class="st5" d="M133.8,131.1c0.3,0.2,0.5,0.3,0.8,0.5c0.3,0.3,0.5,0.7,0.3,1.1c-0.9,1.6-1.8,3.3-2.7,4.9
	c-0.1,0.1-0.2,0.3-0.3,0.4c-1.6,2-3,2-4.6,0.2c-0.7-0.8-1.2-1.7-1.8-2.6c0.9-0.2,1.5,0.4,2.2,0.7c0.9,0.4,1.7,0.3,2.4-0.4
	C131.7,134.5,132.9,133,133.8,131.1z"/>
<path class="st5" d="M122.4,119.6c0.1,0,0.2,0.1,0.4,0.1c0,0.1-0.1,0.2-0.1,0.2C122.5,119.8,122.4,119.7,122.4,119.6L122.4,119.6z"
	/>
<path class="st5" d="M122.4,119.6c-0.3-0.1-0.4-0.2-0.5-0.5l0,0C122.2,119.1,122.4,119.3,122.4,119.6
	C122.4,119.6,122.4,119.6,122.4,119.6z"/>
<path class="st5" d="M121.9,119.1c-0.1,0-0.2-0.1-0.2-0.1C121.8,118.8,121.8,118.9,121.9,119.1C121.9,119.1,121.9,119.1,121.9,119.1
	z"/>
</svg>
