<?xml version="1.0" encoding="utf-8"?>
<!-- Generator: Adobe Illustrator 27.9.0, SVG Export Plug-In . SVG Version: 6.00 Build 0)  -->
<svg version="1.1" id="Layer_1" xmlns="http://www.w3.org/2000/svg" xmlns:xlink="http://www.w3.org/1999/xlink" x="0px" y="0px"
	 viewBox="0 0 200 200" style="enable-background:new 0 0 200 200;" xml:space="preserve">
<style type="text/css">
	.st0{fill:#982B4F;}
	.st1{fill:#FFFFFF;}
	.st2{fill:#0AAAA1;}
	.st3{fill:#B7FCE5;}
	.st4{fill:#FC8371;}
	.st5{fill:#FBC673;}
	.st6{fill:#FB8170;}
	.st7{fill:#62E6CE;}
	.st8{fill:#FECB74;}
	.st9{fill:#9E3654;}
	.st10{fill:#03ABA2;}
	.st11{fill:#FFEFD5;}
</style>
<g>
	<path class="st0" d="M156.5,66.7c3.4,2.6,7.1,4.6,11.6,4.6c2.4,0.2,4.5-0.4,6.7-1.2c1.7-0.6,3.4-1.3,5.2-1.5
		c0.2,0.6-0.1,0.8-0.4,1.1c-1.9,2-3.5,4.2-5.1,6.5c-0.8,1.1-1.6,2.3-2.4,3.4c-2.1,2.7-4.6,5-7.7,6.6c-1.8,0.6-3.6,1.1-5.6,1.7
		c1.2,2.2,2,4.5,2.7,6.8c0.2,1.2,0.3,2.4,0.5,3.5c0.5,3.6,0.5,7.2,0.5,10.7c0,2.6,0.1,5.1,0.6,7.7c0.6,3.5,1.8,6.8,3.6,9.8
		c0.6,0.9,1.2,1.8,1.7,2.8c0.8,1.5,1.8,2.5,3.6,2.7c0.3,0,0.5,0.2,0.8,0.3c0.1,0,0.1,0.2,0.1,0.2c0,0.1-0.1,0.4-0.2,0.4
		c-1.6,0.9-3.3,1.2-5,0.8c-2.8-0.6-5.4-1.7-7.9-3.2c-2.7-1.7-5.1-3.6-7.4-5.8c-1.5-1.5-3-2.9-4.6-4.4c-2.7-2.5-5.8-4.2-9.5-4.8
		c-0.1-0.8-0.2-1.5-0.3-2.3c-0.6-2.3-1.1-4.7-1.8-7c-0.4-1.3-0.6-2.6-1.4-3.7l0,0.1c-0.1-0.6,0.1-1.3-0.6-1.7l0,0.1
		c0-0.4-0.1-0.8-0.1-1.1c0.6-1,0.9-1,1.3-0.3c0.2,0.3,0.4,0.6,0.5,1c1.5,3.7,3.1,7.4,3.4,11.5c0.1,1.2,0.3,1.4,1.4,1.6
		c2.1,0.4,4,1.3,5.8,2.4c1.2,0.8,2.4,1.7,3.5,2.6c0.2,0.3,0.4,0.5,0.8,0.6l0,0c3.3,4,7.2,7.2,11.7,9.7c0.8,0.4,1.6,0.9,2.6,0.9
		c0.1,0.2,0.3,0.4,0.5,0.1c-0.1-0.1-0.2-0.2-0.3-0.3c-1.5-2.4-3.1-4.8-4-7.5c-1-3.3-1.7-6.6-1.7-10c0-2.9,0-5.9,0-8.8c0-3-0.4-6-1-9
		c-0.3-1.5-0.9-3-1.6-4.4c-0.7-1.3-1.5-2.1-3.2-2.2c-3.4-0.2-6.5-1.4-9.2-3.4c-1.4-1-2.6-2.1-3.4-3.6c-0.3-0.6-0.5-1.2-0.4-1.8
		c0-0.2,0.2-0.3,0.3-0.4c0.1-0.1,0.4,0,0.5,0.1c0.3,0.2,0.6,0.5,0.8,0.8c1.2,1.7,2.8,2.9,4.7,3.8c2.7,1.4,5.5,2,8.5,2.3
		c1.8,0.1,3.7-0.1,5.3-0.9c3.8-1,6.8-3.2,8.8-6.7l0,0c0.3-0.1,0.5-0.3,0.6-0.5c0.9-0.9,1.7-1.8,2.1-3.2c-0.5,0-0.9-0.1-1.2,0
		c-3.4,0.8-6.8,0.3-10-1c-3.6-1.5-6.8-3.6-9.6-6.3c-3-3-5.6-6.4-8.2-9.6c-1.4-1.7-2.9-3.3-4.6-4.8c-2.1-1.9-4.5-3.5-7.2-4.5
		c-1.4-0.5-2.8-0.7-4.2,0.1c-1.7,0.9-3.6,1.2-5.5,1.6c-2.2,0.4-4.2-0.3-6.1-1.2c-0.5-0.2-0.8-0.7-1.2-1.1c-0.2-0.3-0.2-0.7,0-1
		c0.2-0.3,0.5-0.2,0.8-0.1c1.1,0.4,2.2,0.9,3.4,0.9c3.6,0.3,6.9-0.7,9.9-2.7c1.1-0.7,2.3-1.5,2.8-2.9l0,0c0.4,0,0.6-0.3,0.7-0.6
		c2.8-3,3.8-6.8,4.2-10.8c0.2-2.3,0.1-4.6,0.1-6.9c0.5-1.2,0.7-2.4,0.4-3.7c-0.7-0.1-1,0.2-1.3,0.5c-2.7,2.4-5.7,4-9.1,5.1
		c-5.6,1.9-11.4,2.1-17.1,1.1c-3.5-0.6-7-1.4-10.5-2.2c-3.8-0.8-7.6-1.1-11.5-0.9c-0.7,0-1.5,0-2.1,0.5c-0.9,0-1.7,0.3-2.6,0.8
		c-1.2,0.7-2.6,1.4-3.9,2c-0.6,0.2-1.3,0.3-1.8-0.2c-0.3-0.3,0.1-1,0.8-1.5c0.9-0.6,1.8-1.2,2.7-1.8c1.2-0.8,2.4-1.6,3.5-2.6
		c2.1-1.8,4-3.7,4.8-6.5c0.5-0.5,0.8-1.2,1-1.9c0.1-0.3,0.1-0.6-0.2-0.7c-0.1-0.1-0.4-0.1-0.5,0c-3.7,2-7.7,2.8-11.7,3.9
		c-2.8,0.8-5.6,1.7-8.4,2.6c-3.1,1.1-5.8,2.8-8,5.1c-1.5,1.6-3,3.2-4.3,5c-1.1,1.5-2,3.1-2.4,4.9c-0.7-0.1-1.5-0.2-2.2-0.2
		c0.1-2.2,1-4,2.2-5.8c2.5-3.6,5.5-6.8,9.1-9.4c2.6-1.2,5.1-2.5,7.9-3.2c2.4-0.7,4.8-1.3,7.2-2c2.7-0.8,5.5-1.4,8.2-2.5
		c2.5-1.1,4.5-2.8,6.2-4.9c0.2-0.3,0.4-0.6,0.9-0.4c0.2,1.8-0.1,3.7-0.6,5.4c-1,3.4-2.1,6.9-4.5,9.7c-0.2,0.2-0.2,0.5-0.2,0.7
		c0,0.4,0.4,0.3,0.6,0.3c1.8,0.1,3.7,0.1,5.5,0.3c3.7,0.5,7.4,1.3,11.1,2.1c3.9,0.9,7.8,1.5,11.8,1.4c6.2-0.2,11.7-2.1,16.5-6.1
		c1.5-1.2,3.1-2.3,4.8-3.3c0.3-0.2,0.7-0.3,1-0.4c0.3-0.1,0.6,0.1,0.6,0.4c0,0.5,0,1-0.2,1.4c-1.1,2.4-1,5-1.1,7.6
		c0,2.8,0,5.5-0.4,8.3c-0.6,4.4-2.3,8.3-5.4,11.6c-0.4,0.4-1,0.8-1.1,1.5c0.3,0.6,0.9,0.6,1.4,0.8c2,0.8,3.8,1.9,5.4,3.2
		c2.2,1.8,4.3,3.8,6.1,6c2.1,2.5,4.1,5,6.2,7.4C153.1,63.9,154.5,65.6,156.5,66.7z"/>
	<path class="st1" d="M161.7,94.7c-0.7-2.4-1.5-4.7-2.7-6.8c1.9-0.6,3.8-1.2,5.6-1.7c0.2,0.3,0.7,0.5,0.7,0.8c0.3,1.7,1.2,3,1.9,4.5
		C166,92.6,163.5,94.1,161.7,94.7z"/>
	<path class="st0" d="M138.8,123.1c0.8,0.8,1.8,1.3,2.8,1.8c5,2.9,10,5.9,14.8,9.1c6.3,4.2,9.5,10,9.7,17.6
		c0.2,7.8-1.8,15.1-4.9,22.2c-1.4,3.2-3.7,5.9-6.1,8.5c-0.6,0.6-1.2,1.1-1.7,1.8c-2.1,2.8-4.8,4.8-7.8,6.5c-0.8,0.4-1.6,0.9-2.4,1.4
		c-3,1-5.9,2.2-9,2.5c-5.7,0.7-11.3,1.4-17,0.4c-3.3-0.6-6.5-1.2-9.6-2.5c-5.2-2.3-9.1-5.8-11.5-11c-2.1-4.5-4-9.1-5.4-13.9
		c-0.2-0.8-0.3-1.6-1-2.2c-0.1-0.8-0.2-1.7-0.4-2.5c-0.2-1-0.4-2-0.6-3c-0.5-3-1.3-5.9-1.4-9c-0.2-4.7,0.5-9.4,1.9-13.9
		c2.1-6.5,4.9-12.7,8.7-18.4c1.5-2.3,3.5-3.4,6.2-3.7c0.5,0,0.9-0.1,1.4-0.1c1.8-0.1,3.7-0.2,5.5-0.4c5.2-0.4,10.3,0.2,15,2.7
		c1,0.5,2,1,3,1.5c0.7,0.3,1.4,0.6,2,0.8c1.8,0.9,3.6,1.7,5.5,2.6C137.2,122.5,138,122.8,138.8,123.1z M101.4,184.3
		c2.5,3.4,6,5.4,9.9,6.6c3.2,1,6.5,1.4,9.8,1.7c2,0.2,4,0.2,6.1-0.1c2.4-0.4,4.9-0.8,7.4-0.9c1.8,0,3.3-0.5,5-1.6
		c-0.9-0.2-1.6-0.5-2.5-0.5c-3-0.2-5.7-1.3-8.3-2.8c-5-2.8-9.8-5.8-14.4-9.2c-6.3-4.8-9.4-11.2-9.7-19c-0.2-4.7-0.1-9.4,0.4-14
		c0.5-5.1,1.2-10.2,1.8-15.3c0.3-2.4,1.3-4.4,3.5-5.7c1-0.6,2.1-1.2,3.1-1.8c1.6-1,3.6-1.4,5.2-2.5c1-0.2,1.9-0.5,3.3-0.8
		c-1.8-1.1-3.3-1.3-5-1.4c-4.2-0.2-8.5,0.1-12.7,0.6c-2.2,0.2-3.9,1.4-5,3.5c-3,5.8-5.7,11.8-7.4,18.1c-1,3.7-1.6,7.4-1.5,11.2
		c0.1,2.5,0.6,4.9,1.1,7.4c1.5,8,4.1,15.7,7.6,23C99.6,182,100.2,183.3,101.4,184.3z M110.6,168.9c0.1,0.5,0.2,0.9,0.7,1
		c0.1,0.2,0.3,0.4,0.4,0.6c0.1,0.9,0.7,1.5,1.3,2.1c2,2.1,4.2,3.8,6.6,5.4c3.1,2.1,6.4,4,9.6,5.9c1.7,1.1,3.6,1.8,5.6,2.3
		c3.1,0.9,6.1,1.2,9.1-0.4c0.7-0.4,1.5-0.8,2.2-1.2c1.4-0.9,2.8-1.8,4.2-2.7c1.3-0.7,2.4-1.7,3.4-2.8c2.6-3,4.9-6.3,6.1-10.1
		c0.4-1.3,0.9-2.6,1.3-3.9c1.5-5.1,2.4-10.3,1.7-15.8c-0.7-5.3-3-9.4-7.3-12.4c-2.4-1.7-4.8-3.4-7.4-4.9c-1.6-0.9-3-2.2-4.8-2.6
		c-0.2-0.1-0.4-0.3-0.6-0.4c-0.2-0.5-0.6-0.6-1.1-0.7c-3.1-2-6.2-3.9-9.5-5.6c-1-0.5-2-0.9-3.1-1.3c-3.2-1.1-6.5-1.2-9.7,0.2
		c-2.4,1-4.7,2.1-7,3.3c-0.5,0.3-0.9,0.6-1.4,0.9c-1,0.8-1.5,1.7-1.6,3c-0.4,3.4-0.8,6.8-1.2,10.1c-0.6,6.1-1.1,12.3-0.9,18.5
		c0.1,1.7,0.2,3.5,0.6,5.2C108.6,165,109.1,167.1,110.6,168.9z"/>
	<path class="st0" d="M83.6,165.9c0.2,1.6-0.1,3.1-0.5,4.6c-1,3.3-2,6.5-3.4,9.6c-0.9,1.9-1.9,3.8-3.5,5.2c-0.1,0.1-0.3,0.2-0.4,0.4
		c-1.7,2.7-4.4,3.9-7.3,4.5c-7,1.3-14,2.5-21.1,2.4c-2.4,0-4.8-0.3-7.2-0.6c-3.2-0.4-5.7-1.9-7.7-4.4c-1.9-2.6-3.6-5.3-5.3-8.1
		c-1.8-3.1-3.3-6.4-4.8-9.6c-2.1-4.8-2.4-9.8-1.7-14.9c1.2-7.6,3.5-14.9,6.5-21.9c0.3-0.7,0.6-1.3,1-2c1-2,2.5-3.4,4.6-4.1
		c0.6-0.2,1.2-0.4,1.8-0.7c0.5,0.6,1,1.2,1.3,1.9c-0.7,0.3-1.3,0.7-2,1c-1.6,0.7-2.7,1.8-3.5,3.4c-0.3,0.7-0.7,1.3-0.9,2
		c-2.7,6.8-4.8,13.7-6,20.9c-0.8,4.5-0.4,9,1.6,13.2c1.2,2.6,2.4,5.2,3.7,7.7c1.1,2.1,2.2,4.2,3.8,6c0.3,1.4,1.4,2.3,2.2,3.5
		c1.1,1.7,2.7,2.5,4.5,2.9c2.6,0.6,5.3,0.8,7.9,1c3,0.2,6.1-0.3,9.1-0.7c2-0.2,4.2-0.1,6.4-1.3c-5.3-0.1-9.8-2.3-14.5-3.9
		c-0.3,0.7,0.2,1.1,0.3,1.6c0.4,1.5-0.6,2.9-2.2,2.6c-0.8-0.1-1.6-0.5-2.3-0.8c-0.3-0.1-0.6-0.5-0.5-0.9c0-0.4,0.3-0.7,0.6-0.8
		c0.5-0.1,1.1-0.1,1.6-0.2c0.2-0.1,0.5-0.3,0.6-0.5c0.4-0.9,0.2-2.1-0.6-2.7c-0.8-0.6-1.7-1.1-2.5-1.7c-1.7-1.2-3.4-2.6-4.4-4.5
		c-1-1.9-1.9-3.8-2.3-5.9c-0.7-3.1-0.5-6.2-0.2-9.3c0.2-2.1,0.3-4.2,0.4-6.3c0.1-4,0.7-7.9,1.3-11.8c0.2-1.4,0.7-2.9,1.2-4.2
		c0.4-1,0.8-2.1,1.9-2.6c0.6,0.5,1,1.1,1.3,1.9c-0.6,1.3-1.1,2.7-1.4,4.2c-0.8,4.4-1.3,8.9-1.5,13.4c-0.1,2.3-0.2,4.6-0.4,6.9
		c-0.3,2.6-0.3,5.1,0.3,7.7c0.7,2.8,1.9,5.4,4.2,7.2c4.5,3.6,9.5,5.9,15,7.2c4,0.9,8,0.6,12.1,0.1c2.4-0.3,4.2-1.3,5.2-3.5
		c1.2-1.9,2.1-4,2.8-6.2c1-3,1.9-6,2.9-9.1C82.2,165.6,82.9,165.6,83.6,165.9z"/>
	<path class="st2" d="M35.9,128.2c-0.3-0.7-0.8-1.3-1.3-1.9c-1.1-2.3-2.6-4.3-3.9-6.5c-1.4-2.5-2.2-5.1-2.4-8
		c0.2-1.7,0.4-3.5,0.7-5.2c1.6-10.3,3.5-20.5,5.7-30.7c0.6-2.8,1.4-5.5,1.8-8.4c0.6-4,1.3-8,2.2-11.9c1.1-4.7,2.1-9.3,3.2-14
		c0.3-0.9,0.5-1.9,0.8-2.8c0.4-1.4,0.9-2.7,2.2-3.6c0.2,1.6,0.3,3.1,0,4.7c-1,4.7-2,9.3-2.7,14.1c-0.6,4.5-1.7,8.9-2.7,13.2
		c-3.1,13.6-5.7,27.4-7.8,41.2c-0.6,3.7-0.3,7.2,1.9,10.3c0.9,1.4,1.7,2.8,2.6,4.2c2,3.1,4.1,6.1,6.1,9.2
		c5.4,8.1,11.3,15.9,17.2,23.7c1.1,1.5,2.3,2.9,4.1,3.6c1.8,1.2,3.8,1.6,5.9,2.1c3.8,0.9,7.8,0.5,11.7,1c2.7,0.3,5.5,0.1,8.2,0.1
		c0.1,0.8,0.2,1.7,0.4,2.5c-1,0.5-2.1,0.5-3.2,0.5c-1,0-2,0-3,0.1c-0.7-0.3-1.4-0.3-2-0.1c-0.7-0.1-1.5-0.2-2.2-0.2
		c-3.6,0-7.1-0.2-10.7-0.9c-0.5-0.1-0.8,0-1.2,0.5c-1.8,2.3-2.1,2.4-4.9,1.6c-1.8-0.5-3.5-1.1-5.2-1.7c-0.5-0.2-1-0.4-1.5-0.6
		c-1.2-0.6-1.7-1.5-1.7-2.9c0.1-1.4,0.4-2.7,0.9-4c0.6-1.3,0.3-2.2-0.5-3.3c-2.8-3.7-5.5-7.4-8.2-11c-0.3-0.4-0.5-0.8-1-0.9l0,0
		c0-0.5-0.2-0.8-0.6-1c-0.7-1.3-1.4-2.5-2.6-3.5c-0.3-0.7-0.7-1.4-1.3-1.9c-0.9-2.2-2.3-4-3.8-5.9C37,129.3,36.7,128.6,35.9,128.2z"
		/>
	<path class="st3" d="M63.6,159.6c-1.8-0.7-3-2.2-4.1-3.6c-5.9-7.8-11.8-15.6-17.2-23.7c-2-3.1-4.1-6.1-6.1-9.2
		c-0.9-1.4-1.7-2.8-2.6-4.2c-2.2-3.2-2.4-6.7-1.9-10.3c2.1-13.8,4.7-27.6,7.8-41.2c1-4.4,2.1-8.8,2.7-13.2c0.7-4.7,1.7-9.4,2.7-14.1
		c0.3-1.6,0.2-3.1,0-4.7c0-1,0.2-1.9,1.1-2.5c0,0.5,0.3,0.8,0.8,0.9c1.6,0.3,3.2,0.6,4.7,1.2c-0.5,2.2-0.9,4.5-1.5,6.7
		c-0.8,3.2-1.9,6.3-2.8,9.5c-2.3,8.4-4.6,16.8-6.6,25.3c-0.4,1.8-1,3.6-0.9,5.4c-0.7,0.6-0.5,1.5-0.5,2.2c-0.2,0.2-0.4,0.4-0.4,0.7
		c-1.1,5.9-2.2,11.9-3.4,17.8c-0.5,2.9-0.7,5.8-0.7,8.8c0,1.1,0.3,2.2,0.9,3.1c4.4,7.1,8.7,14.3,13.5,21.2
		c4.9,7.1,9.5,14.4,14.2,21.7c0.2,0.4,0.5,0.8,0.6,1.2C64.2,159.1,63.9,159.3,63.6,159.6z"/>
	<path class="st2" d="M51.5,35c-1.5-0.7-3.1-0.9-4.7-1.2c-0.5-0.1-0.7-0.4-0.8-0.9c2.1-0.2,4.3-0.5,6.4-0.7c0.7,0.1,1.5,0.2,2.2,0.2
		c0.5,0.4,1.2,0.5,1.8,0.4c0.7,0.2,1.5,0.5,2.3,0.4c3,0.6,5.9,1.2,8.9,1.8c2.2,0.7,4.4,1.3,6.6,2c2.3,0.9,4.7,1.9,7,2.8
		c0.3,0.3,0.7,0.5,1.1,0.5c0.3,0.3,0.7,0.5,1.1,0.6c0.3,0.3,0.7,0.5,1.1,0.6c0.4,0.2,0.7,0.4,1.1,0.6c1.7,1.1,3.4,2.1,5.2,3
		c0.7,0.7,1.5,1.2,2.4,1.6c0.4,0.5,0.9,0.9,1.5,1.1c2.7,2.3,5.5,4.5,8.2,6.8c0.1,0.1,0.3,0.1,0.5,0.1l0,0c-0.1,0.5,0.2,0.7,0.6,0.8
		c0.7,1.2,1.7,1.9,2.6,2.8c3.1,3.6,6.1,7.2,9.2,10.8c0.2,0.3,0.5,0.5,0.9,0.5c0,0,0-0.1,0-0.1c0.2,1,0.2,1.1,1.1,1.1l0,0
		c-0.2,0.5,0,0.8,0.6,0.6l0,0c-0.3,0.6-0.2,0.8,0.6,1.1l0,0c0,0.4,0.1,0.6,0.6,0.6l0,0c-0.1,0.9,0.6,1.4,1.1,1.9l0,0.1
		c0.4,0.5,0.7,1.1,1.1,1.6c4.2,6.2,7.9,12.6,10.7,19.6c0.5,1.3,1.1,2.5,1.6,3.8c0,0.5,0,0.9,0.5,1.1c0,0,0-0.1,0-0.1
		c0,0.6,0,1.3,0.6,1.7c0,0,0-0.1,0-0.1c0.5,3.4,1.8,6.6,2.5,10c0.1,0.3,0.5,0.5,0.7,0.8c0.1,0.8,0.2,1.5,0.3,2.3
		c-0.2,1.6,0.5,3.2,0.7,4.8c0.1,1,0.4,2-0.4,2.8c-0.8-0.3-1.7-0.6-2.3-1.2c-0.5-4.7-1.9-9.2-3.1-13.7c-2.5-10-6.8-19.2-12.4-27.8
		c-3.8-5.8-8.5-10.9-12.9-16.2c-0.4-0.4-0.8-0.8-1.3-1c-2.7-4.1-6.5-7.2-10.2-10.3c-3.1-2.6-6.4-4.9-10-6.9
		c-4.4-2.4-8.7-4.8-13.4-6.4c-5.6-1.9-11.3-3.1-17.1-4C54.6,35.4,53.1,34.8,51.5,35z"/>
	<path class="st4" d="M134,99.7c-0.5-1.3-1.1-2.5-1.6-3.8c-2.8-7-6.4-13.4-10.7-19.6c-0.4-0.5-0.7-1.1-1.1-1.6
		c0.9-0.1,1.6,0.3,2.1,1c2,2.6,3.7,5.3,5.2,8.1c1.4,2.6,2.6,5.3,4,7.9c0.8,1.5,1.6,3,2.9,4.5c0.2-0.9-0.1-1.3-0.3-1.8
		c-0.7-1.6-1.4-3.2-2-4.8c-0.1-0.2,0-0.6,0.1-0.7c0.2-0.2,0.5,0,0.7,0.2c0.9,1.4,1.8,2.8,2.7,4.2c0.5,0.8,1.1,1.5,0,2.4
		c-0.4,0.3,0,0.9,0.1,1.3c1.4,4,2.8,8,4.2,12c0.4,1.1,0.9,2.2,1.4,3.3c0.1,0.3,0.3,0.5,0.6,0.5c0.5-0.1,0.4-0.5,0.3-0.9
		c-0.6-3.9-1.8-7.7-3.3-11.3c-0.5-1.3-1.3-2.5-1.5-3.8c-0.3-2.6-1.3-5-2.5-7.3c-2.4-4.8-5.3-9.2-8.3-13.7c-0.4-0.6-1-1.1-1.5-1.6
		c-0.4-0.4-0.7-0.2-1,0.7l-0.2,0.2c-1.1-0.7-1.8-1.8-2.7-2.8c-1.1-1.3-2.2-2.5-3.3-3.7c-0.4-0.4-0.8-0.9-1.4-0.6
		c-0.4,0.2-0.2,0.8-0.3,1.3c0,0.1,0,0.2-0.1,0.3c-0.4,0-0.7-0.3-0.9-0.5c-3.1-3.6-6.1-7.2-9.2-10.8c1-0.1,1.8,0.3,2.4,1
		c1.1,1.1,2.1,2.3,3.3,3.3c0.9,0.8,1.7,1.9,3.2,1.9c0.4,0,0.9,0.6,1.3,0.9c0.8,0.7,1.6,1.5,2.3,2.3c0.4,0.4,0.8,0.8,1.4,0.7
		c0.1,0.3,0.3,0.5,0.6,0.5c0,0.2,0,0.3,0,0.5c0,0.1,0.1,0.2,0.1,0.2c0.2,0,0.3-0.1,0.2-0.3c-0.1-0.1-0.2-0.2-0.4-0.3
		c-0.2-0.2-0.4-0.4-0.5-0.6c-0.1-0.3-0.2-0.7-0.4-1c-3.2-4.4-7-8.2-10.8-12c-1.5-1.5-3.5-1.8-5.4-2.3c-0.3-0.1-0.5,0.2-0.5,0.5
		c0,0.4-0.1,0.7-0.1,1.1c-0.2,0-0.4,0-0.5-0.1c-2.7-2.2-5.5-4.5-8.2-6.8c0.2-0.2,0.4-0.4,0.6-0.5c1.1,0.3,1.9,1.1,2.8,1.7
		c0.6,0.4,1.2,0.8,2,0.8c0.1,0.7,0.5,1,1.2,1c0,0.1,0,0.1,0.1,0.2c0,0,0.1,0,0.1,0c-0.1-0.1-0.2-0.1-0.3-0.2c0-0.7-0.4-1-1-1.2
		c-1.9-2.4-4.5-4.1-7.1-5.7c-3.6-2.2-7.5-4-11.3-5.8c-1.7-0.8-3.6-1.5-5.4-2.1c-0.7-0.3-1.6-0.5-2.3,0.3c0,0.3-0.1,0.5-0.1,0.8
		c-2.2-0.7-4.4-1.3-6.6-2c0-0.2,0-0.3,0-0.5c0.6-0.1,1.3,0.2,1.9-0.3c-0.2-0.2-0.3-0.5-0.5-0.6c-3-1.2-6-2-9.2-2
		c-0.3,0-0.7-0.1-1,0.2c-0.1,0.1,0,0.3,0,0.5c0,0.3,0,0.5,0,0.8c-0.8,0.1-1.5-0.2-2.3-0.4c0.1-0.7,0.5-1.4,0.9-2
		c2.6-3.9,6.1-6.8,10.2-9c3.3-1.8,6.9-2.8,10.5-3.9c3.5-1,7-2,10.1-4.2c0.3-0.2,0.7-0.2,1-0.3c-0.8,2.8-2.7,4.7-4.8,6.5
		c-1.1,0.9-2.3,1.7-3.5,2.6c-0.9,0.6-1.8,1.2-2.7,1.8c-0.8,0.5-1.1,1.2-0.8,1.5c0.5,0.5,1.2,0.4,1.8,0.2c1.3-0.6,2.7-1.2,3.9-2
		c0.8-0.5,1.6-0.8,2.6-0.8c0.8,0.9,1.9,0.7,2.8,0.6c3.5-0.2,7,0.4,10.3,1.3c2.7,0.7,5.3,1.6,7.9,2.5c2.4,0.8,5,1.5,7.5,1.7
		c3.7,0.3,7.3,0.1,10.9-0.7c2.3-0.5,4.4-1.4,6.4-2.4c1.9-0.9,3.5-2.3,5.3-3.5c0,2.3,0.1,4.6-0.1,6.9c-0.4,4-1.3,7.8-4.2,10.8
		c-0.3,0.1-0.6,0.2-0.7,0.6l0,0c-0.9-0.2-1.6,0.3-2.4,0.6c-2.4,0.9-4.7,2-7.3,2.4c-3.8,0.7-7.5,0.4-11-1.4c-1.4-0.7-2.8-1.4-4.2-2.1
		c-3-1.5-6.3-1.9-9.6-2.2c-1.7-0.2-3.4,0.4-5.3,1.3c1.2,0.3,2,0.7,2.9,0.8c4.6,0.5,8.6,2.7,12.5,4.9c3.4,2,6.9,3.8,10.9,4.5
		c2,0.4,4,0.8,5.9,1.1c3,0.5,5.9,1.3,8.8,2.4c2.5,0.9,4.7,2.5,6.9,4c0.4,0.3,0.7,0.6,1,1c2,2.4,4,4.8,6.1,7.1
		c1.7,1.9,3.7,3.6,5.4,5.5c1.7,1.8,3.8,3.2,6,4.4c1.4,0.9,3,1.3,4.6,1.7c2.3,0.6,4.6,0.4,6.9,0.5c-2,3.4-5,5.6-8.8,6.7
		c-0.7-0.3-1.3-0.6-2.1-0.6c-2.6,0.1-5.1-0.7-7.6-1.3c-2.3-0.5-4.6-1.4-6.5-3c-1.7-1.4-3.5-2.7-5-4.3c-1-1.1-2.1-2.1-3.1-3.1
		c-2-1.9-4.4-3.4-6.8-4.6c-2.1-1-4.3-1-6.5-0.8c-0.1,0-0.3,0.2-0.4,0.3c-0.1,0.3,0,0.5,0.3,0.7c1.1,0.5,2.1,1.1,3.2,1.6
		c0.5,0.2,1,0.4,1.5,0.7c4.1,2.4,7.3,5.9,10.3,9.5c1.2,1.4,2.2,3,3.5,4.2c3.2,2.7,6.6,5,10.8,5.7c1.5,0.2,2.5,1,2.8,2.6
		c0.1,0.5,0.4,1,0.4,1.6c0.7,4.1,1.3,8.1,1.1,12.3c-0.1,1.7,0.1,3.3,0,5c-0.2,3.5,0.4,6.9,1.3,10.3c0.2,0.8,0.4,1.6,0.3,2.4l0,0
		c-0.8-0.4-1.6-0.9-2.3-1.4c-1.2-0.9-2.4-1.7-3.6-2.5c-0.6-0.4-1.2-0.5-1.8-0.4c0,0,0,0,0,0c-0.1-0.3-0.4-0.5-0.8-0.6
		c-1.2-0.9-2.3-1.8-3.5-2.6c-1.8-1.1-3.7-2-5.8-2.4c-1.2-0.3-1.4-0.5-1.4-1.6c-0.3-4.1-1.9-7.8-3.4-11.5c-0.1-0.3-0.3-0.6-0.5-1
		c-0.4-0.7-0.6-0.6-1.3,0.3C134.3,99.7,134.1,99.7,134,99.7z M71.1,34.7c-0.1,0-0.1-0.1-0.2-0.1c-0.1,0-0.1,0-0.2,0.1
		c0.1,0,0.1,0.1,0.2,0.1C70.9,34.8,71,34.7,71.1,34.7z"/>
	<path class="st5" d="M169.9,77.6c-2.3-0.1-4.6,0.1-6.9-0.5c-1.6-0.4-3.2-0.8-4.6-1.7c-2.1-1.3-4.2-2.6-6-4.4
		c-1.8-1.9-3.7-3.6-5.4-5.5c-2.1-2.3-4.1-4.7-6.1-7.1c-0.3-0.3-0.6-0.7-1-1c-2.2-1.5-4.4-3.1-6.9-4c-2.8-1.1-5.7-1.9-8.8-2.4
		c-2-0.3-4-0.7-5.9-1.1c-3.9-0.8-7.4-2.6-10.9-4.5c-3.9-2.2-7.9-4.5-12.5-4.9c-0.9-0.1-1.7-0.5-2.9-0.8c1.9-0.9,3.6-1.5,5.3-1.3
		c3.3,0.3,6.6,0.7,9.6,2.2c1.4,0.7,2.8,1.4,4.2,2.1c3.5,1.8,7.1,2,11,1.4c2.6-0.5,4.9-1.5,7.3-2.4c0.8-0.3,1.5-0.7,2.4-0.6
		c-0.5,1.4-1.7,2.2-2.8,2.9c-3,2-6.3,3-9.9,2.7c-1.2-0.1-2.3-0.5-3.4-0.9c-0.3-0.1-0.5-0.1-0.8,0.1c-0.3,0.3-0.3,0.7,0,1
		c0.3,0.4,0.7,0.9,1.2,1.1c1.9,0.9,3.9,1.6,6.1,1.2c1.9-0.3,3.8-0.7,5.5-1.6c1.4-0.7,2.8-0.6,4.2-0.1c2.7,1,5,2.6,7.2,4.5
		c1.6,1.5,3.2,3.1,4.6,4.8c2.7,3.3,5.2,6.6,8.2,9.6c2.8,2.8,6,4.8,9.6,6.3c3.2,1.3,6.5,1.9,10,1c0.3-0.1,0.7,0,1.2,0
		c-0.4,1.4-1.2,2.3-2.1,3.2C170.2,77.1,170,77.3,169.9,77.6L169.9,77.6z"/>
	<path class="st5" d="M158.8,123.5c0.1-0.8-0.1-1.6-0.3-2.4c-0.9-3.4-1.5-6.8-1.3-10.3c0.1-1.7,0-3.3,0-5c0.2-4.1-0.5-8.2-1.1-12.3
		c-0.1-0.5-0.4-1-0.4-1.6c-0.2-1.6-1.3-2.4-2.8-2.6c-4.2-0.7-7.6-3.1-10.8-5.7c-1.4-1.2-2.4-2.8-3.5-4.2c-3-3.6-6.2-7-10.3-9.5
		c-0.5-0.3-1-0.5-1.5-0.7c-1.1-0.5-2.1-1.1-3.2-1.6c-0.3-0.1-0.4-0.4-0.3-0.7c0.1-0.1,0.2-0.3,0.4-0.3c2.2-0.2,4.4-0.2,6.5,0.8
		c2.5,1.2,4.8,2.7,6.8,4.6c1.1,1,2.1,2,3.1,3.1c1.5,1.7,3.3,2.9,5,4.3c1.8,1.6,4.1,2.4,6.5,3c2.5,0.6,5,1.4,7.6,1.3
		c0.8,0,1.4,0.3,2.1,0.6c-1.7,0.8-3.5,1.1-5.3,0.9c-2.9-0.2-5.8-0.9-8.5-2.3c-1.8-0.9-3.5-2.1-4.7-3.8c-0.2-0.3-0.5-0.6-0.8-0.8
		c-0.1-0.1-0.4-0.1-0.5-0.1c-0.1,0.1-0.3,0.2-0.3,0.4c-0.1,0.7,0.1,1.3,0.4,1.8c0.8,1.5,2,2.6,3.4,3.6c2.8,2,5.9,3.1,9.2,3.4
		c1.7,0.1,2.5,0.9,3.2,2.2c0.7,1.4,1.3,2.9,1.6,4.4c0.6,3,1,6,1,9c0,2.9,0,5.9,0,8.8c0,3.4,0.7,6.8,1.7,10c0.8,2.8,2.4,5.1,4,7.5
		l-0.2,0.2c-1,0.1-1.8-0.4-2.6-0.9c-4.5-2.5-8.5-5.7-11.7-9.7c0.7,0,1.3,0,1.8,0.4c1.2,0.9,2.5,1.6,3.6,2.5
		C157.2,122.6,158,123.1,158.8,123.5c0.1,0.3,0.2,0.3,0.2,0.1C159.1,123.6,158.9,123.5,158.8,123.5z"/>
	<path class="st5" d="M136.8,22.8c-1.8,1.2-3.3,2.5-5.3,3.5c-2.1,1-4.2,1.8-6.4,2.4c-3.6,0.9-7.3,1.1-10.9,0.7
		c-2.5-0.2-5-0.9-7.5-1.7c-2.6-0.8-5.2-1.7-7.9-2.5c-3.4-0.9-6.8-1.6-10.3-1.3c-1,0.1-2.1,0.3-2.8-0.6c0.6-0.5,1.4-0.5,2.1-0.5
		c3.9-0.2,7.7,0.1,11.5,0.9c3.5,0.8,7,1.6,10.5,2.2c5.8,1,11.5,0.8,17.1-1.1c3.3-1.2,6.4-2.8,9.1-5.1c0.3-0.3,0.6-0.7,1.3-0.5
		C137.4,20.4,137.3,21.6,136.8,22.8z"/>
	<path class="st5" d="M89.2,13.4c-0.3,0.1-0.8,0.1-1,0.3c-3.1,2.2-6.6,3.1-10.1,4.2c-3.6,1-7.2,2.1-10.5,3.9
		c-4.1,2.2-7.6,5.1-10.2,9c-0.4,0.6-0.8,1.3-0.9,2c-0.6,0.1-1.3,0.1-1.8-0.4c0.4-1.8,1.3-3.4,2.4-4.9c1.3-1.8,2.8-3.4,4.3-5
		c2.3-2.3,5-4.1,8-5.1c2.8-1,5.6-1.8,8.4-2.6c4-1.1,8-2,11.7-3.9c0.1-0.1,0.4-0.1,0.5,0c0.3,0.1,0.3,0.5,0.2,0.7
		C90,12.2,89.7,12.8,89.2,13.4z"/>
	<path class="st6" d="M138.2,113.2c-0.2-0.3-0.6-0.5-0.7-0.8c-0.8-3.3-2-6.6-2.5-10c0.9,1.1,1,2.5,1.4,3.7
		C137.1,108.5,137.6,110.9,138.2,113.2z"/>
	<path class="st6" d="M135,102.5c-0.6-0.4-0.6-1.1-0.6-1.7C135.1,101.2,135,101.9,135,102.5z"/>
	<path class="st6" d="M134,99.7c0.1,0,0.2,0,0.4,0c0,0.4,0.1,0.8,0.1,1.1C134.1,100.6,134,100.2,134,99.7z"/>
	<path class="st5" d="M131.7,41.1c0.1-0.3,0.4-0.5,0.7-0.6C132.3,40.8,132.1,41.1,131.7,41.1z"/>
	<path class="st4" d="M169.9,77.6c0.1-0.3,0.3-0.5,0.6-0.5C170.4,77.3,170.2,77.5,169.9,77.6z"/>
	<path class="st5" d="M150.3,118.5c0.3,0.1,0.6,0.2,0.8,0.6C150.7,119,150.5,118.8,150.3,118.5z"/>
	<path class="st5" d="M165.5,129.5c0.1,0.1,0.2,0.2,0.3,0.3c-0.2,0.3-0.4,0.1-0.5-0.1C165.3,129.7,165.5,129.5,165.5,129.5z"/>
	<path class="st7" d="M51.5,35c1.6-0.2,3.1,0.4,4.6,0.6c5.8,0.9,11.5,2.1,17.1,4c4.7,1.6,9.1,4,13.4,6.4c3.6,1.9,6.8,4.3,10,6.9
		c3.8,3.1,7.5,6.2,10.2,10.3c0,0.8,0.1,1.4,0.7,2c0.5,0.5,1.1,1.1,1.4,1.7c0.9,1.7,2.2,3.2,3.3,4.7c2.8,4,5.5,8,7.8,12.3
		c2.9,5.5,5.1,11.2,6.9,17.1c1,3.4,1.9,6.9,2.5,10.4c0.5,2.6,0.8,5.3,1.6,7.8c-0.7-0.3-1.4-0.5-2-0.8c-1-0.5-2-1-3-1.5
		c-4.7-2.5-9.8-3.1-15-2.7c-1.8,0.1-3.7,0.3-5.5,0.4c-0.5,0-0.9,0.1-1.4,0.1c-2.6,0.3-4.7,1.4-6.2,3.7c-3.8,5.7-6.6,11.9-8.7,18.4
		c-1.4,4.5-2.2,9.1-1.9,13.9c0.1,3.1,0.8,6,1.4,9c0.2,1,0.4,2,0.6,3c-2.7,0-5.5,0.2-8.2-0.1c-3.9-0.4-7.9,0-11.7-1
		c-2-0.5-4.1-0.9-5.9-2.1c0.3-0.2,0.6-0.5,0.4-0.9c-0.2-0.4-0.4-0.8-0.6-1.2c-4.7-7.2-9.3-14.6-14.2-21.7c-4.8-6.9-9.1-14-13.5-21.2
		c-0.6-1-0.9-2-0.9-3.1c-0.1-3,0.1-5.9,0.7-8.8c1.1-5.9,2.2-11.9,3.4-17.8c0-0.2,0.3-0.4,0.4-0.7c0,0,0,0,0,0c0,1.8-0.1,3.7,0,5.5
		c0.2,4.2,2.2,7.4,6.1,9c4.4,1.9,9.1,2.1,13.7,0.8c2.5-0.7,4.6-2.2,6.3-4.3c0.3-0.4,0.3-0.8-0.2-1.1c0.2-0.3,0.4-0.6,0.6-0.9
		c6.3-7.5,2.8-17.9-5.1-21.4c-3.4-1.5-6.9-1.8-10.4-0.4c-2.1,0.8-3.9,1.9-5.3,3.7c-0.4,0.5-0.7,1.1-1.3,1.4c-0.2-0.3-0.4-0.5-0.6,0
		l0,0c-0.5,0.2-0.6,0.6-0.6,1.1l0,0c-0.2,0.2-0.5,0.5-0.7,0.7c-1,1.1-1.2,2.6-2,3.7L39.9,82c-0.1-1.9,0.4-3.6,0.9-5.4
		c2-8.5,4.2-16.9,6.6-25.3c0.9-3.2,1.9-6.3,2.8-9.5C50.6,39.5,51,37.2,51.5,35z M98.5,87c0.3-0.1,0.5-0.1,0.8-0.2
		c-0.1-0.2-0.2-0.3-0.2-0.5c0.1-0.1,0.2-0.3,0.3-0.4c1.4-1,1.5-2.3,0.9-3.9c-0.8-2.1-1.3-4.4-2-6.6c-1.1-3.5-1.1-3.7-5.1-2.3
		c-1.4,0.5-2.7,1.2-4,1.8C84.1,77.1,79,79.3,74,81.5c-0.9,0-1.6,0.3-1.9,1.2c-0.2,0.5-0.4,1-0.5,1.6c-0.2,2.1-0.5,4.2-0.6,6.3
		c-0.1,2.8,0,5.7,0.5,8.5c0.5,2.6,1.7,3.4,4,2.2c2-1,3.8-2.2,5.7-3.3c3.6-2.1,7.2-4.3,10.9-6.4c1.9-1.1,3.8-2.2,5.7-3.3
		C98.2,87.9,98.6,87.6,98.5,87L98.5,87z"/>
	<path class="st8" d="M142.8,129.1c0.2,0.1,0.4,0.3,0.6,0.4c-0.1,0.7,0.3,1.2,0.7,1.7c2.9,3.6,5,7.6,6.5,12.1
		c0.6,1.9,1.2,3.9,1.1,5.9c1.1,3.7,0.1,7.3-0.5,10.9c-0.3,1.8-1.1,3.5-1.7,5.2c-0.6,1.8-1.6,3.3-3,4.6c-3.9,3.8-8.8,5.6-14.1,6.2
		c-2.5,0.3-4.9,0-7.4-0.5c-4-0.8-7.8-1.9-11.2-4.2c-0.6-0.4-1.2-0.8-2-0.7c-0.1-0.2-0.3-0.4-0.4-0.6c0-0.5-0.2-0.9-0.7-1
		c-1.5-1.8-2-3.9-2.5-6.1c-0.4-1.7-0.6-3.5-0.6-5.2c-0.3-6.2,0.2-12.3,0.9-18.5c0.3-3.4,0.8-6.8,1.2-10.1c0.1-1.3,0.7-2.3,1.6-3
		c0.4-0.4,0.9-0.7,1.4-0.9c2.3-1.2,4.6-2.3,7-3.3c3.2-1.3,6.5-1.3,9.7-0.2c1,0.4,2.1,0.8,3.1,1.3c3.3,1.7,6.4,3.6,9.5,5.6
		C141.9,128.9,142.3,129.1,142.8,129.1z M142.8,149c0.2-1.2-0.2-2-1.4-2.7c-3.3-1.8-6.9-2.6-10.5-3.1c-1.6-0.2-2.5,0.5-3,2.2
		c-0.9,3.4-1.8,6.8-2.6,10.2c-0.2,0.7-0.2,1.5-0.2,2.2c0,0.7,0.4,1.2,1,1.5c0.5,0.2,1,0.4,1.6,0.5c2.9,0.3,5.8,1,8.7,1.6
		c1.7,0.3,2.4,0,3-1.6c1-2.5,1.9-5,2.8-7.5C142.6,151.3,142.8,150.2,142.8,149z"/>
	<path class="st4" d="M111.7,170.5c0.8-0.1,1.4,0.3,2,0.7c3.4,2.3,7.3,3.4,11.2,4.2c2.4,0.5,4.9,0.8,7.4,0.5
		c5.3-0.6,10.2-2.3,14.1-6.2c1.3-1.3,2.3-2.8,3-4.6c0.6-1.7,1.4-3.4,1.7-5.2c0.6-3.6,1.6-7.2,0.5-10.9c0.1-2.1-0.5-4-1.1-5.9
		c-1.5-4.4-3.6-8.4-6.5-12.1c-0.4-0.5-0.8-1-0.7-1.7c1.9,0.4,3.3,1.7,4.8,2.6c2.5,1.5,5,3.2,7.4,4.9c4.3,3,6.6,7.2,7.3,12.4
		c0.7,5.4-0.2,10.6-1.7,15.8c-0.4,1.3-0.8,2.6-1.3,3.9c-1.2,3.9-3.5,7.1-6.1,10.1c-1,1.1-2.1,2-3.4,2.8c-1.4,0.8-2.8,1.8-4.2,2.7
		c-0.7,0.4-1.4,0.8-2.2,1.2c-3,1.5-6,1.3-9.1,0.4c-2-0.6-3.8-1.3-5.6-2.3c-3.2-2-6.5-3.9-9.6-5.9c-2.4-1.6-4.6-3.3-6.6-5.4
		C112.5,171.9,111.8,171.4,111.7,170.5z"/>
	<path class="st6" d="M118.5,119.1c-1.6,1.1-3.5,1.5-5.2,2.5c-1,0.6-2.1,1.2-3.1,1.8c-2.1,1.3-3.2,3.3-3.5,5.7
		c-0.6,5.1-1.2,10.2-1.8,15.3c-0.5,4.7-0.5,9.4-0.4,14c0.3,7.8,3.4,14.1,9.7,19c4.6,3.5,9.4,6.5,14.4,9.2c2.6,1.4,5.3,2.5,8.3,2.8
		c0.8,0.1,1.6,0.3,2.5,0.5c-1.7,1.1-3.2,1.6-5,1.6c-2.5,0.1-4.9,0.5-7.4,0.9c-2,0.3-4.1,0.3-6.1,0.1c-3.3-0.3-6.6-0.7-9.8-1.7
		c-3.9-1.2-7.4-3.2-9.9-6.6c0.3-0.3,0.4-0.6,0.3-1c-0.6-1.9-1.2-3.9-1.8-5.8c-0.3-1.1-0.9-2-0.8-3.2c0.7,0.6,1.4,1.2,2.1,1.8
		c0.8,0.6,2.1,0.6,2.8,0.1c1.2-0.9,1.9-3.5,1.4-5c-0.2-0.6-0.9-0.8-1.3-0.3c-0.5,0.7-0.9,1.4-1.3,2.1c-0.3,0.4-0.8,0.5-1.2,0.2
		c-0.5-0.4-1-0.8-1.4-1.3c-0.6-0.6-1.4-0.9-2.2-0.8c-1-2.5-1.7-5.1-2.2-7.7c0.3,0.2,0.6,0.4,0.9,0.6c1.2,0.7,1.9,0.7,3-0.2
		c1.1-1,2-2.2,2.2-3.7c0-0.2,0-0.6-0.2-0.7c-0.2-0.2-0.5-0.2-0.7,0c-0.4,0.3-0.9,0.6-1.3,1c-1.2,1.1-1.9,1.4-3-0.4
		c-0.5-0.9-1.2-1.9-2.5-1.9c-0.8-2-1.2-4-1.2-6.1c0-0.5,0.1-0.9,0.5-1.2c0.5,0.6,1,1.3,1.6,1.9c1.1,1.2,2.6,1.3,3.9,0.2
		c1-0.8,1.7-1.9,2.1-3.2c0.1-0.3,0.2-0.5-0.1-0.8c-0.2-0.2-0.5-0.2-0.7,0c-0.8,0.5-1.5,1-2.3,1.5c-0.8,0.6-1.2,0.5-1.8-0.4
		c-0.7-1.1-1.2-2.3-2.1-3.2c0.1-1.7,0.5-3.4,1.3-5c0.3,0.3,0.7,0.6,1,0.9c1,0.8,1.9,0.8,3.1,0.2c1.5-0.8,2.5-2.1,3.3-3.5
		c0.1-0.1,0-0.4-0.1-0.5c-0.1-0.1-0.4-0.1-0.5,0c-0.5,0.2-1,0.5-1.5,0.8c-2.9,1.3-3,1.3-4.3-1.6c0.8-2.3,1.7-4.6,2.5-6.8
		c0.3,0.4,0.7,0.9,1,1.3c0.8,0.7,1.7,0.8,2.5,0.3c1-0.7,1.7-1.6,2.1-2.8c0-0.1-0.1-0.4-0.2-0.5c-0.1-0.1-0.3-0.1-0.5-0.1
		c-0.3,0.1-0.5,0.2-0.7,0.3c-1.9,1.1-2.2,0.4-2.8-1.2c-0.1-0.2-0.1-0.5-0.1-0.8c0.6-1.1,1.1-2.3,1.6-3.4c0.3-0.6,0.6-1.1,1.2-1.3
		c0.8,1.1,1.8,1.5,3.1,1.1c1.4-0.4,2.5-1.2,3.3-2.4c0.2-0.3,0-0.8-0.4-0.8c-0.9-0.2-1.6,0.3-2.4,0.5c-0.5,0.1-1.1,0.2-1.4-0.4
		c0.2-0.3,0.5-0.5,0.9-0.6c1.6-0.5,3.3-0.4,4.9-0.7C113.4,119,116,119.1,118.5,119.1z M111,178.6c-0.4,0.1-0.6,0.4-0.8,0.8
		c-0.3,1-0.6,1.9-0.6,2.9c0,0.7-0.5,0.9-1.1,0.9c-0.9,0.1-1.8-0.6-2.7-0.3c-0.4,0.1-0.9,0.3-1,0.9c-0.1,0.4,0.2,0.7,0.5,0.9
		c0.2,0.2,0.4,0.4,0.7,0.4c1.1,0.3,2.1,0.6,3.2,0.7c2.1,0.3,3.1-0.7,3.2-2.7C112.5,181.5,112,180,111,178.6z M120.5,187.9
		c-1,0.6-1.9,0.2-2.6,0.7c-0.3,0.2-0.5,0.5-0.5,0.9c0,0.2,0.2,0.6,0.4,0.7c1,0.5,2,0.8,3.2,0.7c1.5-0.2,2.5-1.4,2.3-2.9
		c-0.3-1.5-0.8-3-2.1-4C119.8,185.2,120.3,186.6,120.5,187.9z"/>
	<path class="st5" d="M103,122.9c-0.6,0.2-1,0.8-1.2,1.3c-0.5,1.1-1.1,2.3-1.6,3.4c-0.1-0.1-0.3-0.2-0.4-0.3
		c-0.1-0.1-0.3-0.2-0.4-0.3c-0.7-0.3-1.3,0-1.4,0.7c-0.1,1.2,0.7,2.2,0.9,3.3c-0.8,2.3-1.7,4.6-2.5,6.8c-0.2-0.1-0.3-0.2-0.5-0.3
		c-0.2-0.1-0.3-0.2-0.5-0.3c-0.9-0.3-1.5,0.2-1.3,1.1c0.3,1.1,0.8,2.2,1.2,3.2c-0.8,1.6-1.1,3.3-1.3,5c-0.4,0.1-0.9,0.1-1.2,0.6
		c-0.3,0.4-0.2,0.9-0.1,1.3c0.2,0.7,0.5,1.4,0.7,2.1c-0.4,0.3-0.5,0.8-0.5,1.2c0,2.1,0.4,4.2,1.2,6.1c-0.4,0.9-0.3,1.8,0.2,2.6
		c0.5,0.9,0.9,1.8,1.4,2.7c0.4,2.7,1.2,5.2,2.2,7.7c-0.3,0.8-0.2,1.6,0.4,2.2c0.3,0.3,0.5,0.7,0.8,1.1c-0.1,1.2,0.5,2.1,0.8,3.2
		c0.6,1.9,1.2,3.9,1.8,5.8c0.1,0.4,0.1,0.7-0.3,1c-1.1-1-1.8-2.3-2.4-3.7c-3.5-7.4-6.1-15-7.6-23c-0.5-2.4-1-4.9-1.1-7.4
		c-0.1-3.8,0.5-7.5,1.5-11.2c1.7-6.3,4.4-12.3,7.4-18.1c1-2.1,2.7-3.2,5-3.5c4.2-0.5,8.4-0.8,12.7-0.6c1.6,0.1,3.2,0.4,5,1.4
		c-1.3,0.3-2.3,0.6-3.3,0.8c-2.6,0-5.1-0.2-7.7,0.4c-1.6,0.3-3.3,0.2-4.9,0.7c-0.4,0.1-0.7,0.3-0.9,0.6c-0.3-0.4-0.6-0.9-0.9-1.3
		c-0.2-0.3-0.6-0.5-0.9-0.3c-0.4,0.2-0.7,0.6-0.7,1.1C102.7,121.1,102.9,122,103,122.9z"/>
	<path class="st3" d="M131.1,119.3c-0.8-2.5-1.1-5.2-1.6-7.8c-0.6-3.5-1.5-7-2.5-10.4c-1.8-5.9-4-11.7-6.9-17.1
		c-2.3-4.3-5-8.4-7.8-12.3c-1.1-1.6-2.4-3-3.3-4.7c-0.3-0.6-0.9-1.2-1.4-1.7c-0.6-0.6-0.7-1.3-0.7-2c0.5,0.2,0.9,0.6,1.3,1
		c4.4,5.3,9.1,10.4,12.9,16.2c5.7,8.6,9.9,17.8,12.4,27.8c1.2,4.5,2.6,9,3.1,13.7C134.7,121,132.9,120.2,131.1,119.3z"/>
	<path class="st4" d="M110.6,168.9c0.5,0.1,0.7,0.5,0.7,1C110.8,169.7,110.7,169.3,110.6,168.9z"/>
	<path class="st4" d="M142.8,129.1c-0.5,0-0.9-0.2-1.1-0.7C142.2,128.4,142.6,128.6,142.8,129.1z"/>
	<path class="st8" d="M42.3,137.8c1.1,1,1.9,2.2,2.6,3.5c0.1,0.4,0.2,0.9,0.6,1c0,0,0,0,0,0c-0.2,1.2,0.3,2.2,0.8,3.2
		c1,2.4,1.8,4.8,2.6,7.3c1.6,5,3.5,9.8,6,14.5c1.8,3.3,3.9,6.3,6.7,8.6c2.3,1.9,4.8,3.6,7.8,4.5c2.1,0.6,4.3,0.9,6.5,0.7
		c-1.1,2.2-2.8,3.2-5.2,3.5c-4,0.5-8.1,0.8-12.1-0.1c-5.5-1.3-10.6-3.6-15-7.2c-2.3-1.9-3.6-4.4-4.2-7.2c-0.6-2.5-0.6-5.1-0.3-7.7
		c0.2-2.3,0.3-4.6,0.4-6.9c0.2-4.5,0.7-9,1.5-13.4C41.2,140.5,41.7,139.1,42.3,137.8z"/>
	<path class="st6" d="M37.2,130c1.4,1.8,2.9,3.7,3.8,5.9c-1.1,0.5-1.6,1.6-1.9,2.6c-0.5,1.4-0.9,2.8-1.2,4.2
		c-0.6,3.9-1.2,7.8-1.3,11.8c0,2.1-0.2,4.2-0.4,6.3c-0.3,3.1-0.5,6.2,0.2,9.3c0.5,2.1,1.3,4,2.3,5.9c1.1,1.9,2.7,3.2,4.4,4.5
		c0.8,0.6,1.7,1.1,2.5,1.7c0.8,0.6,1.1,1.8,0.6,2.7c-0.1,0.2-0.4,0.4-0.6,0.5c-0.5,0.1-1.1,0.1-1.6,0.2c-0.4,0.1-0.6,0.4-0.6,0.8
		c0,0.4,0.2,0.8,0.5,0.9c0.8,0.3,1.5,0.7,2.3,0.8c1.5,0.2,2.6-1.1,2.2-2.6c-0.1-0.5-0.6-0.9-0.3-1.6c4.7,1.7,9.2,3.9,14.5,3.9
		c-2.1,1.2-4.3,1.1-6.4,1.3c-3,0.3-6,0.9-9.1,0.7c-2.6-0.2-5.3-0.3-7.9-1c-1.8-0.5-3.4-1.3-4.5-2.9c-0.7-1.1-1.9-2-2.2-3.5
		c0.1-0.9-0.2-1.7-0.6-2.6c-0.5-1.2-1.2-2.4-1.1-3.8c3.2,0.6,3.7-0.9,3.3-3.7c-0.1-0.5-0.8-0.8-1-0.4c-0.7,1.2-1.7,1.2-2.8,0.8
		c-0.3-0.1-0.7,0-1.1,0c-1.7-1.9-2.4-4.2-3.3-6.5c-0.7-1.8-0.8-3.7-0.6-5.6c0.2-2,0.7-3.9,1.1-5.9c0.1-0.4,0.3-0.7,0.6-0.9
		c0.6,0.7,1.1,1.5,1.7,2.2c0.9,0.9,2,0.9,2.9,0c0.6-0.6,1.1-1.3,1.3-2.1c0.1-0.6,0.8-1.3,0.3-1.8c-0.6-0.6-1.2,0.2-1.7,0.4
		c-0.5,0.2-0.8,0.8-1.4,0.7c-0.7-0.4-0.9-1.2-1.3-1.8c-0.3-0.5-0.7-0.8-1.3-0.9c0.3-2,0.9-3.9,1.4-5.8c1.1,1,2.3,0.9,3.5,0.1
		c0.4-0.3,0.9-0.6,1.2-1.1c0.4-0.5,1.1-0.9,0.8-1.6c-0.4-0.8-1.1-0.2-1.7-0.1c-0.4,0.1-0.9,0.2-1.3,0.3c-0.8,0.1-1.1-0.4-1.2-1.2
		c-0.1-1.4,0.5-2.7,0.8-4c0.1-0.6,0.4-1.2,1-1.6c0.2,0.2,0.4,0.4,0.5,0.6c1.1,1.8,1.8,2,3.5,0.9c0.4-0.3,0.7-0.6,1.1-0.9
		c0.2-0.2,0.3-0.5,0.2-0.7c-0.1-0.1-0.3-0.2-0.5-0.2c-2.2,0-2.2,0-2.9-1.8c-0.1-0.3-0.2-0.7-0.3-1C34.6,131.1,35.8,130.5,37.2,130z
		 M33.2,162.9c0-0.2,0-0.3,0-0.3c0-0.5-0.2-1-0.7-1.1c-0.2-0.1-0.6,0.3-0.9,0.6c-0.5,0.5-0.8,1.3-1.4,1.7c-0.9,0.5-1.4-0.5-2.2-0.8
		c-0.5-0.1-0.9-0.2-1.2,0.2c-0.2,0.3-0.2,0.7-0.1,1c0.4,1,1.2,1.9,2,2.5c1.2,0.9,2.8,0.6,3.5-0.8C32.9,165,33.2,163.9,33.2,162.9z
		 M38.6,182.5c-0.6,0-1.2-0.2-1.7-0.1c-0.6,0.1-1.1,1.1-0.7,1.5c0.9,0.9,2,1.5,3.4,1.5c0.9-0.1,1.8-0.9,1.8-1.8
		c-0.1-1.7-0.4-3.3-1.8-4.6C38.8,180,39,181.2,38.6,182.5z"/>
	<path class="st4" d="M75.9,181c-2.2,0.2-4.4-0.1-6.5-0.7c-3-0.9-5.5-2.6-7.8-4.5c-2.9-2.4-5-5.3-6.7-8.6c-2.5-4.6-4.4-9.5-6-14.5
		c-0.8-2.4-1.5-4.9-2.6-7.3c-0.4-1-0.9-2-0.8-3.2c0.5,0.2,0.7,0.6,1,0.9c2.7,3.7,5.4,7.4,8.2,11c0.8,1,1.1,2,0.5,3.3
		c-0.5,1.3-0.9,2.6-0.9,4c-0.1,1.3,0.5,2.3,1.7,2.9c0.5,0.2,1,0.5,1.5,0.6c1.7,0.6,3.5,1.2,5.2,1.7c2.8,0.8,3,0.7,4.9-1.6
		c0.3-0.4,0.7-0.6,1.2-0.5c3.5,0.7,7.1,0.9,10.7,0.9c0.7,0,1.5,0.1,2.2,0.2c-1,3-1.9,6-2.9,9.1C77.9,176.9,77.1,179,75.9,181z"/>
	<path class="st5" d="M32.2,135.6c-0.6,0.3-0.9,1-1,1.6c-0.3,1.3-0.9,2.6-0.8,4c-0.2,0-0.4-0.1-0.5-0.1c-1.3,0-1.7,0.4-1.4,1.6
		c0.2,0.7,0.4,1.4,0.6,2.1c-0.6,1.9-1.2,3.8-1.4,5.8c-0.6,0.4-0.7,1-0.6,1.7c0.1,0.5,0.1,1.1,0.2,1.6c-0.3,0.2-0.5,0.5-0.6,0.9
		c-0.4,2-0.9,3.9-1.1,5.9c-0.2,1.9-0.1,3.8,0.6,5.6c0.9,2.3,1.6,4.6,3.3,6.5c-0.4,1.2,0.5,1.9,1,2.7c0.1,0.3,0.3,0.5,0.6,0.6l0,0
		c-0.1,1.4,0.6,2.6,1.1,3.8c0.3,0.8,0.6,1.7,0.6,2.6c-1.6-1.8-2.7-3.9-3.8-6c-1.3-2.5-2.5-5.1-3.7-7.7c-2-4.2-2.3-8.7-1.6-13.2
		c1.2-7.2,3.2-14.1,6-20.9c0.3-0.7,0.6-1.3,0.9-2c0.7-1.6,1.9-2.7,3.5-3.4c0.7-0.3,1.3-0.6,2-1c0.7,0.4,1.1,1,1.3,1.8
		c-1.4,0.5-2.7,1.1-3.5,2.5c-1.5-0.1-1.7,0.1-1.7,1.2C32.1,134.3,32.2,135,32.2,135.6z"/>
	<path class="st4" d="M45.5,142.3c-0.5-0.2-0.6-0.6-0.6-1C45.3,141.5,45.5,141.8,45.5,142.3z"/>
	<path class="st7" d="M39.3,84.2c0.1-0.8-0.2-1.6,0.5-2.2c0,0,0.1,0.1,0.1,0.1C39.9,82.8,40.2,83.6,39.3,84.2L39.3,84.2z"/>
	<path class="st9" d="M124.6,74.7c0.3-0.9,0.6-1.1,1-0.7c0.5,0.5,1.1,1,1.5,1.6c3,4.4,5.9,8.9,8.3,13.7c1.2,2.3,2.1,4.6,2.5,7.3
		c0.2,1.3,0.9,2.6,1.5,3.8c1.5,3.7,2.7,7.4,3.3,11.3c0.1,0.3,0.2,0.8-0.3,0.9c-0.3,0.1-0.5-0.2-0.6-0.5c-0.5-1.1-1-2.2-1.4-3.3
		c-1.4-4-2.8-8-4.2-12c-0.1-0.4-0.5-1-0.1-1.3c1.1-0.8,0.5-1.6,0-2.4c-0.9-1.4-1.8-2.8-2.7-4.2c-0.2-0.2-0.5-0.4-0.7-0.2
		c-0.2,0.1-0.2,0.5-0.1,0.7c0.6,1.6,1.3,3.2,2,4.8c0.2,0.5,0.5,1,0.3,1.8c-1.2-1.5-2.1-3-2.9-4.5c-1.4-2.6-2.6-5.3-4-7.9
		c-1.5-2.9-3.2-5.6-5.2-8.1c-0.6-0.7-1.2-1.1-2.1-1c0,0,0-0.1,0-0.1c0.1-1.6,0.1-1.6-1.1-1.9c0,0,0,0,0,0c0-0.4-0.2-0.6-0.6-0.6
		c0,0,0,0,0,0c0.2-0.6,0-1-0.6-1.1c0,0,0,0,0,0c0-0.4-0.2-0.6-0.6-0.6c0,0,0,0,0,0c0-0.8-0.3-1.2-1.1-1.1c0,0,0,0.1,0,0.1
		c0-0.1,0.1-0.2,0.1-0.3c0.1-0.4-0.2-1.1,0.3-1.3c0.6-0.3,1,0.2,1.4,0.6c1.1,1.2,2.2,2.4,3.3,3.7c0.8,1,1.6,2.1,2.7,2.8
		c0.1,0.1,0.3,0.3,0.3,0.3C125.1,75,124.8,74.9,124.6,74.7z M131.9,86.8c-0.1-0.2-0.1-0.4-0.2-0.5c-0.1-0.1-0.2-0.1-0.4-0.1
		c0,0-0.1,0.2-0.1,0.2c0.1,0.2,0.2,0.4,0.4,0.7c0,0.2,0,0.3,0.1,0.5c0.1,0.1,0.2,0.2,0.3,0.3c0.1-0.1,0.2-0.3,0.2-0.4
		C132.2,87.2,132,87,131.9,86.8z M125.5,76.2l-0.1-0.1l0,0.2L125.5,76.2z M129.2,82.2l-0.1,0.2l0.1,0L129.2,82.2z M129.9,83.4
		l-0.1-0.1l0,0.2L129.9,83.4z"/>
	<path class="st9" d="M103.5,54.4c0-0.4,0-0.7,0.1-1.1c0-0.3,0.2-0.5,0.5-0.5c1.9,0.5,3.9,0.8,5.4,2.3c3.8,3.8,7.6,7.6,10.8,12
		c0.2,0.3,0.3,0.7,0.4,1c0,0,0,0,0,0c-0.6,0.1-1-0.3-1.4-0.7c-0.8-0.8-1.5-1.6-2.3-2.3c-0.4-0.4-0.9-0.9-1.3-0.9
		c-1.5-0.1-2.3-1.1-3.2-1.9c-1.2-1-2.2-2.2-3.3-3.3c-0.7-0.7-1.4-1.1-2.4-1c-0.9-0.9-2-1.7-2.6-2.8
		C104.1,54.7,103.9,54.4,103.5,54.4L103.5,54.4z M114.9,63.4l-0.1,0.1l0.1,0L114.9,63.4z"/>
	<path class="st6" d="M58.7,33.1c0-0.3,0-0.5,0-0.8c2.1,0.5,4.2,0.9,6.3,1.4c0.8,0.2,1.9-0.1,2.5,0.7c0,0.2,0,0.3,0,0.5
		C64.6,34.3,61.7,33.7,58.7,33.1z"/>
	<path class="st6" d="M74.1,36.8c0-0.3,0.1-0.5,0.1-0.8c1.3,0.5,2.6,1,3.8,1.5c1.1,0.5,2.4,0.9,3.3,1.8c-0.1,0.1-0.2,0.2-0.2,0.2
		C78.8,38.7,76.5,37.8,74.1,36.8z"/>
	<path class="st6" d="M90.8,44.9c-1.8-0.8-3.5-1.8-5.2-3c0.1-0.1,0.2-0.2,0.2-0.3c2,0.6,3.8,1.5,5.5,2.8
		C91.1,44.6,91,44.7,90.8,44.9z"/>
	<path class="st4" d="M90.8,44.9c0.2-0.2,0.3-0.3,0.5-0.5c0.9,0.3,1.8,0.7,2.4,1.5c-0.1,0.2-0.3,0.4-0.4,0.5
		C92.3,46.1,91.5,45.6,90.8,44.9z"/>
	<path class="st4" d="M94.8,47.5c-0.6-0.2-1.2-0.5-1.5-1.1c0.1-0.2,0.3-0.4,0.4-0.5c0.7,0.1,1.3,0.5,1.7,1.1
		C95.1,47.2,95,47.4,94.8,47.5z"/>
	<path class="st4" d="M119.5,72.6c1.2,0.4,1.2,0.4,1.1,1.9C120.1,74,119.4,73.6,119.5,72.6z"/>
	<path class="st4" d="M116.8,69.3c0.9-0.1,1.2,0.3,1.1,1.1C117,70.4,116.9,70.3,116.8,69.3z"/>
	<path class="st4" d="M118.4,70.9c0.6,0.2,0.7,0.6,0.6,1.1C118.2,71.7,118.1,71.6,118.4,70.9z"/>
	<path class="st6" d="M82.3,40.2c-0.4-0.1-0.8-0.2-1.1-0.5c0.1-0.1,0.1-0.2,0.2-0.2c0.5,0,0.9,0.1,1.1,0.6
		C82.4,40,82.4,40.1,82.3,40.2z"/>
	<path class="st6" d="M83.4,40.7c-0.4-0.1-0.8-0.2-1.1-0.6c0.1-0.1,0.1-0.1,0.2-0.2c0.5,0,0.9,0.1,1.1,0.6
		C83.5,40.6,83.5,40.7,83.4,40.7z"/>
	<path class="st6" d="M84.5,41.3c-0.4-0.1-0.8-0.2-1.1-0.6c0.1-0.1,0.1-0.1,0.2-0.2c0.5,0,0.9,0.1,1.1,0.6
		C84.6,41.1,84.6,41.2,84.5,41.3z"/>
	<path class="st6" d="M85.6,41.9c-0.4-0.2-0.7-0.4-1.1-0.6c0.1-0.1,0.1-0.2,0.2-0.2c0.5,0,0.9,0.1,1.1,0.6
		C85.7,41.7,85.7,41.8,85.6,41.9z"/>
	<path class="st4" d="M103.5,54.3c0.5,0.1,0.6,0.4,0.6,0.8C103.7,55,103.4,54.8,103.5,54.3z"/>
	<path class="st4" d="M117.9,70.4c0.4,0,0.5,0.2,0.6,0.6C117.8,71.2,117.7,70.9,117.9,70.4z"/>
	<path class="st4" d="M119,72c0.4,0,0.6,0.2,0.6,0.6C119.1,72.7,118.9,72.5,119,72z"/>
	<path class="st9" d="M85.8,41.6c-0.2-0.4-0.7-0.5-1.1-0.6c-0.2-0.5-0.7-0.5-1.1-0.6c-0.2-0.5-0.7-0.5-1.1-0.6
		c-0.2-0.5-0.7-0.5-1.1-0.6c-0.9-0.9-2.2-1.3-3.3-1.8c-1.2-0.6-2.5-1-3.8-1.5c0.6-0.9,1.5-0.6,2.3-0.3c1.8,0.6,3.7,1.3,5.4,2.1
		c3.8,1.9,7.7,3.6,11.3,5.8c2.6,1.6,5.1,3.2,7.1,5.7l-0.1,0.1c-0.8,0-1.4-0.4-2-0.8c-0.9-0.6-1.7-1.4-2.8-1.7c-0.4-0.6-1-1-1.7-1.1
		c-0.6-0.8-1.5-1.2-2.4-1.5C89.6,43.1,87.8,42.2,85.8,41.6z"/>
	<path class="st9" d="M67.6,34.4c-0.7-0.8-1.7-0.5-2.5-0.7c-2.1-0.5-4.2-0.9-6.3-1.4c0-0.2-0.1-0.4,0-0.5c0.3-0.3,0.7-0.2,1-0.2
		c3.2,0,6.3,0.8,9.2,2c0.2,0.1,0.3,0.4,0.5,0.6C68.8,34.6,68.2,34.3,67.6,34.4z"/>
	<path class="st9" d="M100.2,49.3c0.6,0.1,1.1,0.5,1,1.2l0,0c-0.7,0-1.1-0.3-1.2-1C100.1,49.4,100.2,49.3,100.2,49.3z"/>
	<path class="st9" d="M121.2,68.7c0.1,0.1,0.3,0.2,0.4,0.3c0.1,0.2,0,0.3-0.2,0.3c0,0-0.1-0.1-0.1-0.2
		C121.2,69,121.2,68.9,121.2,68.7C121.2,68.7,121.2,68.7,121.2,68.7z"/>
	<path class="st9" d="M71.1,34.7c-0.1,0-0.1,0.1-0.2,0.1c-0.1,0-0.1-0.1-0.2-0.1c0.1,0,0.1-0.1,0.2-0.1C70.9,34.6,71,34.7,71.1,34.7
		z"/>
	<path class="st9" d="M101.3,50.5c0.1,0.1,0.2,0.1,0.3,0.2c0,0-0.1,0-0.1,0C101.4,50.6,101.3,50.5,101.3,50.5
		C101.3,50.4,101.3,50.5,101.3,50.5z"/>
	<path class="st9" d="M121.2,68.7c-0.3,0-0.5-0.2-0.6-0.5c0,0,0,0,0,0C120.9,68.3,121,68.5,121.2,68.7
		C121.2,68.7,121.2,68.7,121.2,68.7z"/>
	<path class="st4" d="M158.8,123.5c0.1,0,0.2,0.1,0.2,0.1C159,123.8,158.9,123.7,158.8,123.5C158.8,123.5,158.8,123.5,158.8,123.5z"
		/>
	<path class="st10" d="M43.8,76.5c0.6-0.3,0.9-0.9,1.3-1.4c1.4-1.8,3.2-2.9,5.3-3.7c3.6-1.4,7-1.1,10.4,0.4
		c7.9,3.5,11.4,14,5.1,21.4c-0.2,0.3-0.4,0.6-0.6,0.9c-0.6,0.5-1.2,1.1-1.9,1.6c-6.1,4.7-14.2,3-18.4-1.7c-3.7-4.1-4.4-8.9-2.9-14.1
		c0.2-0.8,0.8-1.5,0.6-2.3c0,0,0,0,0,0c0.6-0.2,0.8-0.5,0.6-1.1c0,0,0,0,0,0C43.4,76.6,43.6,76.6,43.8,76.5z M47.6,80.6
		c0,1.7,0.3,2.2,1.8,2.7c1.3,0.5,2.4,0.1,3.3-0.8c0.8-0.8,1-1.7,0.6-2.8c-0.4-1.2-1.2-2.1-2.5-2.2c-2.1-0.2-3.2,1-3.1,2.6
		C47.6,80.2,47.6,80.4,47.6,80.6z"/>
	<path class="st10" d="M74,81.5c5.1-2.2,10.1-4.4,15.2-6.5c1.3-0.6,2.7-1.3,4-1.8c3.9-1.5,3.9-1.3,5.1,2.3c0.7,2.2,1.2,4.4,2,6.6
		c0.6,1.6,0.5,2.8-0.9,3.9c-0.1,0.1-0.2,0.3-0.3,0.4c-0.3,0.1-0.5,0.3-0.5,0.6c0,0,0,0,0,0c-1.6,0.2-2.9,1-4.3,1.8
		c-5.2,2.8-10.4,5.6-15.4,8.6c-2.5,1.5-3.9,0.7-4.3-2.2c-0.3-2.6-0.3-5.1-0.7-7.7C73.5,85.5,73.5,83.5,74,81.5z M85.9,82.9
		c0-1.5-1.1-2.6-2.6-2.6c-1.8,0-3.3,1.2-3.2,2.7c0,1.6,1.7,3.3,3.2,3.3C84.6,86.2,85.9,84.6,85.9,82.9z"/>
	<path class="st3" d="M74,81.5c-0.4,2-0.4,4-0.1,6c0.4,2.5,0.4,5.1,0.7,7.7c0.3,2.9,1.8,3.6,4.3,2.2c5.1-3,10.3-5.8,15.4-8.6
		c1.4-0.7,2.7-1.6,4.3-1.8c0,0.6-0.4,1-0.9,1.3c-1.9,1.1-3.8,2.2-5.7,3.3c-3.6,2.1-7.2,4.3-10.9,6.4c-1.9,1.1-3.8,2.3-5.7,3.3
		c-2.3,1.2-3.5,0.4-4-2.2c-0.5-2.8-0.6-5.6-0.5-8.5c0.1-2.1,0.4-4.2,0.6-6.3c0.1-0.5,0.3-1,0.5-1.6C72.4,81.8,73,81.4,74,81.5z"/>
	<path class="st3" d="M42.7,77.6c0.2,0.9-0.4,1.6-0.6,2.3c-1.5,5.2-0.8,10,2.9,14.1c4.2,4.7,12.3,6.4,18.4,1.7
		c0.6-0.5,1.3-1.1,1.9-1.6c0.5,0.3,0.5,0.7,0.2,1.1c-1.7,2.1-3.8,3.5-6.3,4.3c-4.6,1.3-9.3,1.1-13.7-0.8c-3.9-1.7-5.9-4.8-6.1-9
		c-0.1-1.8,0-3.7,0-5.5c0.8-0.6,0.5-1.4,0.6-2.2c0.8-1.2,1-2.7,2-3.7C42.2,78.1,42.5,77.8,42.7,77.6z"/>
	<path class="st3" d="M43.3,76.5c0.2,0.6,0.1,1-0.6,1.1C42.7,77.1,42.8,76.7,43.3,76.5z"/>
	<path class="st3" d="M98.5,87c0-0.4,0.3-0.5,0.5-0.6c0.1,0.2,0.2,0.3,0.2,0.5C99,86.8,98.8,86.9,98.5,87z"/>
	<path class="st3" d="M43.8,76.5c-0.2,0.1-0.4,0.2-0.6,0C43.4,76,43.6,76.2,43.8,76.5z"/>
	<path class="st0" d="M142.8,149c0,1.2-0.2,2.3-0.6,3.3c-0.9,2.5-1.8,5-2.8,7.5c-0.6,1.6-1.4,1.9-3,1.6c-2.9-0.6-5.7-1.3-8.7-1.6
		c-0.5,0-1.1-0.2-1.6-0.5c-0.6-0.3-1-0.8-1-1.5c0-0.7,0-1.5,0.2-2.2c0.8-3.4,1.7-6.8,2.6-10.2c0.5-1.7,1.4-2.5,3-2.2
		c3.6,0.5,7.2,1.3,10.5,3.1C142.6,147,143,147.8,142.8,149z M132.8,146.7c-0.1,0-0.1-0.1-0.2-0.1
		C132.7,146.6,132.8,146.7,132.8,146.7c0,0,0,0.1,0.1,0.2c0,0,0.1,0.1,0.1,0.1C133,146.9,132.9,146.8,132.8,146.7z M131.2,147.8
		c0-0.1-0.1-0.1-0.1-0.2c0,0-0.1,0-0.1,0C131,147.7,131.1,147.7,131.2,147.8c0,0.1,0,0.1,0.1,0.2c0,0,0.1,0,0.2,0.1
		C131.3,148,131.2,147.9,131.2,147.8z M133.9,148.4c0-0.2,0.1-0.5-0.3-0.3C133.7,148.2,133.8,148.3,133.9,148.4
		c0.1,0.3,0.2,0.5,0.5,0.6c0,0.3,0.1,0.7,0.1,1c-0.6,0.3-1.1-0.1-1.6-0.1c-0.1-0.3-0.3-0.5-0.6-0.5c0-0.1,0-0.2-0.1-0.2
		c0,0-0.1,0-0.2-0.1c0.1,0.1,0.1,0.2,0.2,0.3c0.1,0.3,0.2,0.5,0.5,0.6c0.1,0.3,0.1,0.6,0.2,0.9c-0.1,0.1-0.2,0.2-0.3,0.3
		c-0.4,0-0.7,0-0.9,0.4c-0.2,0.5-0.6,0.6-1.1,0.3c-0.3-0.1-0.6-0.5-0.9-0.2c-0.4,0.4,0,0.8,0.3,1.2c0.2,0.3,0.4,0.6,0.6,0.9
		c-0.3,0-0.5,0.1-0.8,0c-0.9,0-0.9,0.1-0.6,0.8c0.1,0.2,0.2,0.5,0.3,0.7c-0.1,0-0.2,0-0.3,0.1c-0.5,0-1.1,0-1.2,0.7
		c0,0.2,0.1,0.6,0.2,0.7c0.5,0.4,1,0.4,1.5,0.1c0.2-0.2,0.2-0.6,0.3-0.9c0.7,0.1,1,0.6,1.4,1c0.5,0.5,1.1,0.8,1.9,0.6
		c0.8,0.3,1.7,0.7,2.5,1c0.8,0.3,1.2,0.1,1.5-0.7c0.5-1.3,1-2.7,1.4-4.1c0.2-0.6,0.2-1.1,0-1.7c1.2-0.9,1.4-1.3,0.5-2
		c-1-0.9-1.7-2.1-3.1-2.5c-0.1-0.2-0.3-0.4-0.5-0.1c0,0,0.2,0.2,0.3,0.3c0,0.4,0.1,0.7,0.1,1.1c-0.6,0.4-1-0.2-1.5-0.2
		C134.5,148.5,134.3,148.3,133.9,148.4z"/>
	<path class="st0" d="M111,178.6c1,1.4,1.5,2.9,1.4,4.6c-0.1,2.1-1.1,3-3.2,2.7c-1.1-0.1-2.1-0.5-3.2-0.7c-0.3-0.1-0.5-0.3-0.7-0.4
		c-0.3-0.2-0.5-0.5-0.5-0.9c0.1-0.5,0.5-0.7,1-0.9c0.9-0.3,1.8,0.4,2.7,0.3c0.6,0,1.1-0.2,1.1-0.9c0-1,0.3-2,0.6-2.9
		C110.4,179,110.6,178.7,111,178.6z"/>
	<path class="st0" d="M99.1,174.3c-0.3-0.4-0.5-0.8-0.8-1.1c-0.6-0.7-0.7-1.4-0.4-2.2c0.9,0,1.6,0.2,2.2,0.8
		c0.4,0.5,0.9,0.9,1.4,1.3c0.4,0.3,0.9,0.3,1.2-0.2c0.5-0.7,0.8-1.4,1.3-2.1c0.4-0.5,1.1-0.3,1.3,0.3c0.5,1.5-0.2,4.1-1.4,5
		c-0.7,0.6-2,0.6-2.8-0.1C100.5,175.5,99.8,174.9,99.1,174.3z"/>
	<path class="st0" d="M93.5,150.5c-0.2-0.7-0.5-1.4-0.7-2.1c-0.2-0.5-0.2-0.9,0.1-1.3c0.3-0.4,0.8-0.5,1.2-0.6
		c0.9,0.9,1.5,2.1,2.1,3.2c0.5,0.9,0.9,1,1.8,0.4c0.8-0.5,1.5-1,2.3-1.5c0.2-0.2,0.5-0.2,0.7,0c0.2,0.2,0.1,0.5,0.1,0.8
		c-0.3,1.3-1.1,2.3-2.1,3.2c-1.3,1.1-2.8,1-3.9-0.2C94.5,151.8,94,151.2,93.5,150.5z"/>
	<path class="st0" d="M95.8,163.2c-0.5-0.9-0.9-1.8-1.4-2.7c-0.5-0.9-0.6-1.7-0.2-2.6c1.3,0,1.9,1,2.5,1.9c1,1.8,1.8,1.5,3,0.4
		c0.4-0.4,0.8-0.7,1.3-1c0.2-0.2,0.6-0.2,0.7,0c0.1,0.2,0.2,0.5,0.2,0.7c-0.3,1.5-1.1,2.7-2.2,3.7c-1,0.9-1.7,1-3,0.2
		C96.4,163.7,96.1,163.5,95.8,163.2z"/>
	<path class="st0" d="M95.3,141.6c-0.4-1.1-0.9-2.1-1.2-3.2c-0.2-0.8,0.4-1.3,1.3-1.1c0.2,0,0.3,0.2,0.5,0.3
		c0.2,0.1,0.3,0.2,0.5,0.3c1.4,2.9,1.4,2.9,4.3,1.6c0.5-0.2,1-0.5,1.5-0.8c0.1-0.1,0.4-0.1,0.5,0c0.1,0.1,0.2,0.4,0.1,0.5
		c-0.8,1.5-1.8,2.7-3.3,3.5c-1.1,0.6-2.1,0.6-3.1-0.2C96,142.2,95.7,141.9,95.3,141.6z"/>
	<path class="st0" d="M120.5,187.9c-0.1-1.3-0.6-2.7,0.6-3.9c1.3,1,1.8,2.5,2.1,4c0.3,1.5-0.8,2.7-2.3,2.9c-1.1,0.1-2.2-0.2-3.2-0.7
		c-0.2-0.1-0.3-0.4-0.4-0.7c0-0.4,0.2-0.7,0.5-0.9C118.6,188,119.5,188.5,120.5,187.9z"/>
	<path class="st0" d="M98.8,131c-0.2-1.1-1-2.1-0.9-3.3c0.1-0.7,0.6-1,1.4-0.7c0.2,0.1,0.3,0.2,0.4,0.3c0.1,0.1,0.3,0.2,0.4,0.3
		c0,0.3,0,0.6,0.1,0.8c0.6,1.5,0.9,2.2,2.8,1.2c0.2-0.1,0.5-0.3,0.7-0.3c0.2,0,0.4,0,0.5,0.1c0.1,0.1,0.2,0.3,0.2,0.5
		c-0.4,1.2-1.1,2.1-2.1,2.8c-0.8,0.5-1.7,0.4-2.5-0.3C99.5,131.9,99.2,131.4,98.8,131z"/>
	<path class="st9" d="M103,122.9c-0.1-0.9-0.3-1.7-0.4-2.6c-0.1-0.5,0.2-0.9,0.7-1.1c0.3-0.1,0.7,0,0.9,0.3c0.3,0.4,0.6,0.9,0.9,1.3
		c0.3,0.6,0.9,0.5,1.4,0.4c0.8-0.2,1.5-0.6,2.4-0.5c0.4,0.1,0.6,0.5,0.4,0.8c-0.8,1.2-1.9,2-3.3,2.4
		C104.8,124.3,103.8,124,103,122.9z"/>
	<path class="st0" d="M33.2,162.9c0,1.1-0.3,2.1-0.8,3.1c-0.7,1.3-2.3,1.6-3.5,0.8c-0.9-0.7-1.6-1.5-2-2.5c-0.2-0.4-0.2-0.7,0.1-1
		c0.3-0.4,0.8-0.4,1.2-0.2c0.7,0.2,1.3,1.3,2.2,0.8c0.6-0.4,0.9-1.1,1.4-1.7c0.2-0.3,0.6-0.6,0.9-0.6c0.5,0.1,0.6,0.6,0.7,1.1
		C33.2,162.6,33.2,162.7,33.2,162.9z"/>
	<path class="st0" d="M27.3,153.9c-0.1-0.5-0.1-1.1-0.2-1.6c-0.1-0.7,0.1-1.3,0.6-1.7c0.6,0.1,1,0.4,1.3,0.9
		c0.4,0.6,0.5,1.4,1.3,1.8c0.6,0.1,1-0.5,1.4-0.7c0.5-0.3,1.1-1,1.7-0.4c0.5,0.5-0.1,1.2-0.3,1.8c-0.2,0.8-0.7,1.5-1.3,2.1
		c-0.9,0.9-2.1,0.9-2.9,0C28.3,155.4,27.8,154.6,27.3,153.9z"/>
	<path class="st0" d="M38.6,182.5c0.4-1.3,0.1-2.5,1-3.5c1.4,1.2,1.7,2.9,1.8,4.6c0,0.9-0.9,1.7-1.8,1.8c-1.4,0.1-2.5-0.5-3.4-1.5
		c-0.4-0.4,0-1.4,0.7-1.5C37.4,182.3,38,182.4,38.6,182.5z"/>
	<path class="st0" d="M29.2,144.8c-0.2-0.7-0.5-1.4-0.6-2.1c-0.3-1.2,0.1-1.6,1.4-1.6c0.2,0,0.4,0.1,0.5,0.1
		c0.1,0.7,0.4,1.2,1.2,1.2c0.4,0,0.9-0.2,1.3-0.3c0.6-0.1,1.3-0.7,1.7,0.1c0.3,0.6-0.4,1.1-0.8,1.6c-0.3,0.4-0.8,0.7-1.2,1.1
		C31.5,145.6,30.3,145.7,29.2,144.8z"/>
	<path class="st0" d="M32.2,135.6c-0.1-0.6-0.1-1.3-0.2-1.9c0-1.2,0.2-1.3,1.7-1.2c0.1,0.3,0.2,0.7,0.3,1c0.7,1.9,0.7,1.9,2.9,1.8
		c0.2,0,0.4,0.1,0.5,0.2c0.1,0.3,0,0.5-0.2,0.7c-0.3,0.3-0.7,0.6-1.1,0.9c-1.7,1.1-2.4,0.9-3.5-0.9C32.6,136,32.4,135.8,32.2,135.6z
		"/>
	<path class="st0" d="M30.5,175.4c-0.5-0.8-1.4-1.5-1-2.7c0.4,0,0.8-0.1,1.1,0c1.1,0.4,2.1,0.5,2.8-0.8c0.2-0.4,0.9-0.2,1,0.4
		c0.4,2.8-0.1,4.2-3.3,3.7c0,0,0,0,0,0C31,175.7,30.8,175.5,30.5,175.4z"/>
	<path class="st6" d="M30.5,175.4c0.3,0.1,0.5,0.2,0.6,0.6C30.8,175.9,30.6,175.7,30.5,175.4z"/>
	<path class="st4" d="M131.9,86.8c0.1,0.2,0.3,0.4,0.4,0.6c0,0.1-0.1,0.3-0.2,0.4c-0.1-0.1-0.3-0.2-0.3-0.3
		c-0.1-0.1-0.1-0.3-0.1-0.5C131.7,87,131.8,86.9,131.9,86.8z"/>
	<path class="st4" d="M131.6,87.1c-0.1-0.2-0.3-0.4-0.4-0.7c0,0,0.1-0.2,0.1-0.2c0.1,0,0.3,0,0.4,0.1c0.1,0.1,0.1,0.3,0.2,0.5
		C131.8,86.9,131.7,87,131.6,87.1z"/>
	<path class="st4" d="M124.6,74.7c0.2,0.1,0.4,0.2,0.1,0.5c0,0-0.2-0.2-0.3-0.3C124.4,74.9,124.6,74.7,124.6,74.7z"/>
	<polygon class="st4" points="125.5,76.2 125.3,76.2 125.3,76.1 	"/>
	<polygon class="st4" points="129.2,82.2 129.3,82.3 129.2,82.3 	"/>
	<polygon class="st4" points="129.9,83.4 129.7,83.4 129.8,83.3 	"/>
	<polygon class="st4" points="114.9,63.4 114.9,63.5 114.8,63.5 	"/>
	<path class="st11" d="M47.6,80.6c0-0.2,0-0.4,0-0.6c-0.1-1.6,1.1-2.8,3.1-2.6c1.3,0.1,2.1,1,2.5,2.2c0.4,1,0.2,2-0.6,2.8
		c-0.9,0.9-2,1.3-3.3,0.8C47.9,82.7,47.6,82.2,47.6,80.6z"/>
	<path class="st11" d="M85.9,82.9c0,1.6-1.3,3.3-2.7,3.3c-1.5,0.1-3.1-1.7-3.2-3.3c0-1.5,1.4-2.7,3.2-2.7
		C84.8,80.3,85.8,81.4,85.9,82.9z"/>
	<path class="st6" d="M132.9,149.9c0.5,0,1.1,0.4,1.6,0.1c0,0,0,0,0,0c-0.3,0.6,0,1,0.6,1.1l0,0c0,0.4,0.2,0.6,0.6,0.6l0,0
		c0.1,0.5,0.4,0.6,0.9,0.6c0.5,0.1,0.7,0.4,0.9,0.8c0.3,0.5,0.8,0.9,1.4,0.9c-0.5,1.4-0.9,2.7-1.4,4.1c-0.3,0.8-0.7,1-1.5,0.7
		c-0.9-0.3-1.7-0.7-2.5-1c0-0.1,0-0.2,0-0.3c0.4-0.2,0.4-0.5,0-0.7l0,0c-0.2-0.2-0.4-0.4-0.6-0.6l0,0c-0.1-0.3-0.3-0.5-0.6-0.6l0,0
		c-0.1-0.3-0.3-0.5-0.6-0.6l0,0c-0.1-0.3-0.2-0.5-0.6-0.6l0,0c0-0.3-0.2-0.5-0.6-0.6l0,0c-0.2-0.3-0.4-0.6-0.6-0.9
		c-0.3-0.4-0.7-0.7-0.3-1.2c0.3-0.4,0.6,0,0.9,0.2c0.5,0.2,0.9,0.2,1.1-0.3c0.2-0.4,0.5-0.4,0.9-0.4c0.1,0.1,0.4,0.3,0.4,0.3
		c0.4-0.2,0.1-0.4-0.1-0.6c-0.1-0.3-0.1-0.6-0.2-0.9C132.8,150.1,132.9,149.9,132.9,149.9z M134,152.7c-0.1-0.2-0.1-0.5-0.5-0.2
		c0,0,0.2,0.2,0.3,0.3c0.1,0.2,0.2,0.5,0.5,0.2C134.4,153,134.1,152.8,134,152.7z M133.5,154.3c-0.1-0.1-0.3-0.3-0.4-0.3
		c-0.4,0.3-0.1,0.4,0.1,0.6c0.1,0.1,0.3,0.3,0.4,0.3C134,154.6,133.7,154.5,133.5,154.3z"/>
	<path class="st5" d="M138.8,153.9c-0.7,0-1.1-0.4-1.4-0.9c-0.2-0.4-0.5-0.7-0.9-0.8c-0.2-0.3-0.4-0.6-0.9-0.6l0,0
		c0-0.4-0.1-0.7-0.6-0.6c0,0,0,0,0,0c0.3-0.6,0-0.9-0.6-1.1c0,0,0,0,0,0c0-0.3-0.1-0.7-0.1-1c0.1-0.1,0.1-0.1,0.2-0.2
		c0.5,0,1,0.6,1.5,0.2c0,0,0,0,0,0c-0.3,0.6,0.1,0.9,0.6,1.1l0,0c0,0.3,0.2,0.5,0.6,0.6l0,0c0.2,0.3,0.4,0.6,0.6,0.9
		c0.3,0.3,0.5,0.7,1,0.8C139.1,152.8,139.1,153.3,138.8,153.9z"/>
	<path class="st5" d="M133.4,157.3c0,0.1,0,0.2,0,0.3c-0.8,0.2-1.3,0-1.9-0.6c-0.4-0.4-0.8-1-1.4-1l0,0c0-0.4-0.2-0.6-0.6-0.6l0,0
		c-0.1-0.2-0.2-0.5-0.3-0.7c-0.3-0.8-0.2-0.9,0.6-0.8c0.3,0,0.5,0,0.8,0c0,0,0,0,0,0c-0.1,0.5,0.1,0.7,0.6,0.6c0,0,0,0,0,0
		c-0.1,0.5,0.1,0.7,0.6,0.6c0,0,0,0,0,0c-0.1,0.5,0.1,0.7,0.6,0.6c0,0,0,0,0,0c-0.1,0.5,0.1,0.6,0.6,0.6c0,0,0,0,0,0
		c0,0.4,0.2,0.6,0.6,0.6c0,0,0,0,0,0C133.4,156.9,133.4,157.1,133.4,157.3z"/>
	<path class="st4" d="M138.8,152.2c-0.5-0.1-0.7-0.4-1-0.8c0-0.4-0.1-0.7-0.6-0.9c0,0,0,0,0,0c0-0.4-0.2-0.6-0.6-0.6c0,0,0,0,0,0
		c0.2-0.6,0-1-0.6-1.1c0,0,0,0,0,0c0-0.4-0.1-0.7-0.1-1.1c0.1-0.1,0.2-0.2,0.2-0.2c1.3,0.5,2.1,1.7,3.1,2.5
		C140.2,150.9,140,151.3,138.8,152.2z"/>
	<path class="st4" d="M130.1,156.1c-0.1,0.3-0.1,0.8-0.3,0.9c-0.4,0.4-1,0.3-1.5-0.1c-0.2-0.1-0.3-0.5-0.2-0.7
		c0.1-0.7,0.7-0.6,1.2-0.7c0.1,0,0.2,0,0.3-0.1c0,0,0,0,0,0C129.5,155.9,129.7,156.1,130.1,156.1L130.1,156.1z"/>
	<path class="st6" d="M132.3,149.5c0.3,0,0.5,0.2,0.6,0.5c0,0-0.1,0.1-0.1,0.1C132.5,150,132.3,149.8,132.3,149.5L132.3,149.5z"/>
	<path class="st6" d="M132.3,149.5c-0.1-0.1-0.1-0.2-0.2-0.3c0.1,0,0.1,0,0.2,0.1C132.3,149.3,132.3,149.4,132.3,149.5
		C132.3,149.5,132.3,149.5,132.3,149.5z"/>
	<path class="st5" d="M134.4,149c-0.3-0.1-0.5-0.3-0.5-0.6l0,0c0.4-0.1,0.6,0.1,0.7,0.4C134.6,148.8,134.5,148.9,134.4,149z"/>
	<path class="st5" d="M134,148.4c-0.1-0.1-0.2-0.2-0.3-0.3C134,147.9,133.9,148.2,134,148.4C133.9,148.4,134,148.4,134,148.4z"/>
	<path class="st6" d="M131.2,147.8c0.1,0.1,0.2,0.2,0.2,0.3c-0.1,0-0.1,0-0.2-0.1C131.2,148,131.2,147.9,131.2,147.8
		C131.2,147.8,131.2,147.8,131.2,147.8z"/>
	<path class="st4" d="M136.1,147.9c-0.1-0.1-0.3-0.3-0.3-0.3c0.2-0.3,0.4-0.1,0.5,0.1C136.2,147.7,136.1,147.8,136.1,147.9z"/>
	<path class="st6" d="M131.2,147.8c-0.1-0.1-0.2-0.1-0.3-0.2c0.1,0,0.1,0,0.1,0C131.1,147.7,131.1,147.8,131.2,147.8
		C131.2,147.8,131.2,147.8,131.2,147.8z"/>
	<path class="st5" d="M132.8,146.7c0.1,0.1,0.1,0.2,0.2,0.3c0,0-0.1,0-0.1-0.1C132.9,146.8,132.9,146.8,132.8,146.7L132.8,146.7z"/>
	<path class="st5" d="M132.9,146.7c-0.1,0-0.2,0-0.2-0.1C132.7,146.7,132.8,146.7,132.9,146.7C132.8,146.7,132.9,146.7,132.9,146.7z
		"/>
	<path class="st0" d="M134.5,150c0.6,0.2,0.8,0.5,0.6,1.1C134.5,151,134.3,150.6,134.5,150z"/>
	<path class="st0" d="M133.4,157.3c0-0.2,0-0.5,0-0.7C133.8,156.9,133.7,157.1,133.4,157.3z"/>
	<path class="st0" d="M133.4,156.7c-0.4,0-0.6-0.1-0.6-0.6C133,156.3,133.2,156.5,133.4,156.7z"/>
	<path class="st0" d="M132.8,156.1c-0.4,0.1-0.7-0.1-0.6-0.6C132.6,155.6,132.7,155.8,132.8,156.1z"/>
	<path class="st0" d="M132.3,155.6c-0.5,0.1-0.7-0.1-0.6-0.6C132,155.1,132.2,155.3,132.3,155.6z"/>
	<path class="st0" d="M133.5,154.3c0.2,0.2,0.5,0.3,0.1,0.6c0,0-0.2-0.2-0.4-0.3C133.4,154.5,133.4,154.4,133.5,154.3z"/>
	<path class="st0" d="M131.7,155c-0.5,0.1-0.7-0.1-0.6-0.6C131.5,154.5,131.7,154.7,131.7,155z"/>
	<path class="st0" d="M133.3,154.6c-0.2-0.2-0.5-0.3-0.1-0.6c0,0,0.2,0.2,0.4,0.3C133.4,154.4,133.4,154.5,133.3,154.6z"/>
	<path class="st0" d="M131.2,154.5c-0.5,0.1-0.7-0.1-0.6-0.6C130.9,153.9,131.1,154.1,131.2,154.5z"/>
	<path class="st0" d="M134,152.7c0.1,0.1,0.3,0.3,0.3,0.3c-0.3,0.4-0.3,0-0.5-0.2L134,152.7z"/>
	<path class="st0" d="M133.9,152.8c-0.1-0.1-0.3-0.3-0.3-0.3c0.3-0.4,0.4,0,0.5,0.2C134,152.7,133.9,152.8,133.9,152.8z"/>
	<path class="st0" d="M135.6,151.7c0.5-0.1,0.7,0.2,0.9,0.6C136,152.3,135.7,152.1,135.6,151.7z"/>
	<path class="st0" d="M135,151.1c0.5-0.1,0.6,0.1,0.6,0.6C135.3,151.7,135.1,151.5,135,151.1z"/>
	<path class="st0" d="M133,151c0.2,0.2,0.4,0.4,0.1,0.6c-0.1,0-0.3-0.2-0.4-0.3C132.7,151.2,132.9,151.1,133,151z"/>
	<path class="st0" d="M136.1,148.9c0.6,0.2,0.7,0.6,0.6,1.1C136.2,149.8,135.8,149.6,136.1,148.9z"/>
	<path class="st0" d="M137.2,150.6c0.4,0.1,0.6,0.5,0.6,0.9C137.6,151.1,137.4,150.8,137.2,150.6z"/>
	<path class="st0" d="M136.7,150c0.4,0,0.6,0.2,0.6,0.6C136.9,150.6,136.7,150.4,136.7,150z"/>
	<path class="st0" d="M130.1,156.1c-0.4,0-0.6-0.2-0.6-0.6C129.9,155.5,130.1,155.7,130.1,156.1z"/>
</g>
</svg>
