<?xml version="1.0" encoding="utf-8"?>
<!-- Generator: Adobe Illustrator 27.9.0, SVG Export Plug-In . SVG Version: 6.00 Build 0)  -->
<svg version="1.1" id="Layer_1" xmlns="http://www.w3.org/2000/svg" xmlns:xlink="http://www.w3.org/1999/xlink" x="0px" y="0px"
	 viewBox="0 0 200 200" style="enable-background:new 0 0 200 200;" xml:space="preserve">
<style type="text/css">
	.st0{fill:#206199;}
	.st1{fill:#007C5D;}
	.st2{fill:#64DBEC;}
	.st3{fill:#C9E59C;}
	.st4{fill:#F3FF93;}
	.st5{fill:#FDFDFD;}
</style>
<g>
	<path class="st0" d="M155.9,107.6c-2.2-0.5-4.4-0.3-6.6,0.5c-0.4,0.2-1.2,0.2-1,1c0.2,0.6,0.5,1.3,1.3,1.4
		c10.2,1.1,17.9,6.9,24.9,13.9c2.3,2.3,4.2,5,4.9,8.3c0.3,1.2,0.4,2.4-0.6,3.2c-0.9,0.8-2.1,0.2-3.1-0.1c-0.7-0.3-1.3-0.5-2.4-0.9
		c0.9,1.8,2,2.8,3,4c1.8,2.3,3.4,4.7,3.9,7.7c0.2,1.8,0,3.5-1.6,4.4c-1.6,0.9-3,0.1-4.3-0.9c-0.7-0.6-1.4-1.3-2-2
		c-2.3-3.2-4.9-6-7.5-8.8c0.2-0.4,0.4-0.9,0.6-1.3c2,0.6,3.2,2.2,4.4,3.6c2.1,2.5,3.8,5.4,6.5,7.3c1,0.7,1.5,0.3,1.6-0.8
		c0.1-0.9,0-1.9-0.3-2.8c-1.2-3.3-3.4-5.8-5.8-8.3l0,0c0-0.1,0-0.3,0-0.4c-0.7-1-1.3-2-0.5-3.1c0.7-1,1.8-0.5,2.8-0.5
		c0.5,0,1,0.4,1.6,0.2c0.6,0.2,0.9,1,1.7,0.9c1.5-6.1-17-21.3-27.4-21.8c0,0.2,0,0.4,0,0.6c0.2,0.4,0.4,0.9,0.6,1.3
		c-0.2,0.8,0.3,1.4,0.5,2.2c0.1,0.3,0.3,0.5,0.4,0.8c0.6,3.4,1.1,6.8-0.1,10.1c-0.6,0.6-0.9,1.3-0.8,2.1c-1.1,3.4-3.7,5.7-6.2,8.5
		c8.3,3.6,12.7,10.6,16.7,18c-0.5,0.3-1,0.9-1.7,0.9c-2.6-3.4-4.4-7.3-7.2-10.6c-2.4-2.8-5.3-4.8-8.4-6.7c-0.8-0.5-1.3-0.2-1.8,0.3
		c-7.6,6.4-16.7,10-26,13.1c-3.1,1-6.4,1.5-9.6,1.4c-5.5-0.2-11,0.3-16.5-0.3c-5.5-0.6-10.5-2.6-15.5-4.8c-6-2.6-11.9-5.4-16.8-9.9
		c-0.8-0.7-1.5-0.5-2.3-0.1c-5.8,3.1-10,7.8-13.4,13.3c-0.8,0-1.6,0-2.4,0c3.7-6.6,8.5-12.2,16-15.3c-2.6-2.2-4.1-4.7-5.8-7.2
		c0-0.3-0.1-0.5-0.1-0.8c-0.3-1-0.7-2-1.1-2.9c-0.5-3.6-0.2-7.1,0.7-10.5c0.2-0.6,0.4-1.2,0.6-1.7c0.8-2,0.6-2.2-1.4-1.9
		c-0.4,0-0.8,0.2-1.1,0.4c-0.3,0-0.6,0-0.8,0.1c-9.1,2.5-16.3,7.9-22.3,15c-1.6,1.8-3,4-2.9,6.7c0.4-0.1,0.6-0.1,0.7-0.2
		c0.4-0.2,0.8-0.5,1.2-0.8c0.7-0.1,1.5-0.2,2.1-0.4c1-0.4,1.7,0,2.3,0.7c0.6,0.7,0.3,1.5,0.1,2.3c-0.2,0.7-1.1,1-1.2,1.8
		c-0.3,0.3-0.6,0.5-0.4,1l0,0c-1.8,0.6-2.4,2.4-3.4,3.8c-1,1.4-1.7,3.1-1.9,4.9c-0.1,1.3,0.2,1.6,1.3,1.7c2.3-0.5,3.1-2.7,4.4-4.2
		c2.4-2.7,4.3-6.1,8.1-7.3c0,0.4,0.1,0.7,0.1,1.1c-3.1,3.2-5.9,6.7-8.7,10.2c-0.5,0.6-1,1.1-1.6,1.6c-1.1,0.9-2.4,1.4-3.8,0.8
		c-1.4-0.6-1.9-2-1.9-3.5c0-3.9,2.3-6.7,4.5-9.5c0.8-0.9,1.6-1.9,2.5-3c-1.4-0.2-2.2,0.6-3.2,0.9c-2.1,0.6-3,0-3-2.1
		c0-3.4,1.9-6.1,4-8.4c6.4-7.1,13.9-12.7,23.5-14.7c1-0.2,2-0.2,3-0.4c0.8-0.1,1.8,0,1.9-1.1c0.1-1-1-0.9-1.6-1.2
		c-2.3-1.1-4.7-0.8-7.2-0.4c-0.4-0.4-0.8-0.8-1.3-1.3c3.2-1.4,6.5-1.2,9.6,0.2c1.4,0.6,2.1,0.4,2.7-0.8c0.2-0.4,0.5-0.8,0.8-1.2
		c0.7-1,0.4-1.6-0.8-1.8c-0.2-0.5-0.6-0.7-1-0.9c-4.2-3-8.8-5.1-13.7-6.8c0.6-0.2,1.2-0.4,1.6-0.9c0.5,0,1,0,1.6,0
		c4.6,2.4,9.4,4.3,13.2,8.1c0.5,0.5,0.8,0.2,1.1-0.3c1.4-1.9,2.8-3.6,4.5-5.2c0.5-0.4,0.8-0.8,0.1-1.4c-2.4-2-4.7-4.1-7-6.1
		c-0.1,0-0.3,0-0.4,0l0,0c-1.1-1.8-3.1-2.5-4.5-4c1.4,0.2,2.7,0.5,4.1,0.7c3,2.1,5.7,4.7,8.2,7.3c1.3,1.3,2.1,1.2,3.5,0.1
		c9.6-7.9,20.6-12.6,32.7-15.2c2-0.4,3.9-0.1,5.8,0.4c11.4,2.8,21.9,7.4,31,15c1.1,0.9,1.7,0.5,2.5-0.3c4.3-3.9,8.5-8.1,13.4-11.2
		c0.8,0.3,1.6,0.5,2.4,0.8c-0.2,0.2-0.3,0.4-0.6,0.6c-5.1,3.2-9.4,7.4-14,11.3c-0.7,0.6-1.5,1.2-0.2,2c1.3,1.5,2.6,3,3.9,4.4
		c0.5,0.5,1.1,1.3,1.9,0.6c3.1-2.9,7-4.5,10.6-6.6c0.4,0,0.8,0,1.2-0.1c0.4,0.3,0.9,0.6,1.3,0.9c-0.4,0.2-0.8,0.5-1.2,0.6
		c-3.8,1.5-7.4,3.6-10.8,5.9c-0.6,0.4-1.8,0.8-0.4,1.7c0.8,1.1,0.8,3.4,2.9,2.5c3.1-1.3,6.2-1.2,9.3-0.5
		C157,106.6,156.5,107.1,155.9,107.6z M119.3,148.5L119.3,148.5c0.3,0,0.7,0.1,0.8-0.4l0,0c6.1-2,11.8-4.7,17.1-8.3
		c3.7-2.4,6.5-5.6,9-9.2c1.7-2.4,2.5-5,2.5-8c0-5.2-2-9.8-4.6-14.1c-0.6-0.9-0.9-2.1-2.1-2.6c0.2-1.4-1.2-1.9-1.8-2.7
		c-4.6-6.1-10.5-10.6-17-14.5c-6.8-4.1-14.5-6.2-22-8.7c-0.4-0.1-1-0.2-1.4-0.1c-2.5,1.2-5.4,1.4-7.8,2.8c-0.1-0.2-0.3-0.2-0.4,0
		l0,0c-0.4,0.1-0.8,0.1-1.2,0.2C81.4,86.2,73,90.4,66,96.8c-6.2,5.6-11.5,12-13.9,20.2c-2.3,8.1,0.1,14.3,7.1,19.3l0,0
		c0.1,0.5,0.4,0.7,0.8,0.8l0,0c0.1,0.1,0.3,0.3,0.4,0.4l0,0c0.2,0.4,0.6,0.4,1,0.4c0.3,0.8,1,1.2,1.6,1.7c4.9,3.4,10.4,5.8,15.9,8.1
		c4.4,1.8,8.9,3.3,13.7,3.3c4.4,0,8.8-0.1,13.2,0c4.3,0.1,8.5-0.6,12.5-2.1C118.7,148.9,119.1,148.9,119.3,148.5z"/>
	<path class="st1" d="M42.1,106.5c0.4,0.4,0.8,0.8,1.3,1.3c-3.1,1.2-5.8,3.3-9.1,4.1c-3.6,0.8-6.3-0.4-7.9-3.7
		c-0.3-0.7-0.7-0.6-1.3-0.5c-2.3,0.4-4.6,0.3-6-1.9c-1.5-2.3-1.2-4.8,0.2-7.1c2.8-4.5,7.2-6,12.2-6.1c1.5-0.1,2.9-0.5,4.3-1.2
		c0.4-0.2,0.9-0.3,0.9-0.8c0-0.5-0.5-0.8-1-1c-1.8-0.8-3.5-0.1-5.2,0.2c-3.1,0.6-5.9,2.3-9.1,2.9C18,93.1,15,91.6,14.2,89
		c-0.4-1.3,0.5-2.3,0.5-3.6c-1-0.4-1.9,0.2-2.7,0.4c-1.4,0.3-2.7,0.3-4-0.1c-2.6-0.8-3.9-2.8-3.2-5.5c0.5-2,1.6-3.7,3.4-4.9
		c6.9-4.6,14.3-5.5,22.1-3.1c9,2.8,16.5,8,23.8,13.8c-1.4-0.2-2.7-0.5-4.1-0.7c-4.7-3.1-9.4-6.4-14.6-8.8c-6.8-3.1-13.8-5-21.1-1.9
		c-2.6,1.1-5.3,2-6.6,4.7c-0.7,1.3-1.3,2.8,0.6,3.8c1.5,0.7,3,0.5,4.5,0.1c3.8-1,7.3-2.9,11.2-3.6c3.3-0.6,10.5,0.8,12.9,2.7
		c-2.5-0.2-5-0.8-7.5-0.7c-3.6-0.4-7.1,0.2-10.4,1.8c-1.6,0.7-3.3,3.6-2.9,5.1c0.4,1.7,1.8,2,3.3,2c2.2,0.2,4.1-0.5,6.1-1.2
		c2.6-1,5.4-1.9,8.1-2.5c2.1-0.5,3.8,0,5.1,1.5c1.2,1.4,0.8,3.1-0.4,4.5c1,0.8,2.3,0.4,3.1,1.4c-0.4,0.5-1,0.7-1.6,0.9
		c-3.7-0.5-7.3-1.2-11.1-0.5c-5,1-8.3,4.3-8.1,8.5c0.6,2.2,1.9,3,4.2,2.4c1.6-0.4,3.1-1.4,4.6-2c2.1-0.9,4.3-1.6,6.7-1.3
		c-0.6,0.2-1,0.6-1.5,1c-2,0.2-3.4,1.5-5,2.5c-1.8,1.1-1.7,2.2,0,3.6c1.2,0.3,2.5,1,3.7,0.7c3-0.7,5.7-2,8.1-3.9
		C41.6,106.3,41.8,106.4,42.1,106.5z"/>
	<path class="st1" d="M157.7,96c-0.4-0.3-0.9-0.6-1.3-0.9c1.6-1.3,3.8-1.2,5.5-2.3c-1.6-2.2-1.7-3.5-0.1-4.8
		c1.3-1.1,2.7-1.7,4.5-1.2c2.7,0.7,5.3,1.4,7.9,2.5c2.2,0.9,4.4,1.6,6.9,1.4c2.9-0.3,3.9-2.3,2.3-4.7c-0.3-0.4-0.6-0.7-0.9-1.1
		c-0.5-1.3-1.8-1.5-2.9-2c-4.3-1.8-8.8-1.5-13.3-0.8c-0.8,0-1.5,0.1-2.8,0.2c6.2-3.1,12-3.5,17.9-1c2.8,1.2,5.6,2.5,8.7,2.5
		c2.7,0,3.7-1.5,2.6-4c-0.6-1.3-1.6-2.2-2.7-2.9c-4.1-2.5-8.6-3.9-13.5-3.6c-5.4,0.7-10.4,2.6-15.2,5.3c-2.6,1.5-5.1,3-7.7,4.5
		c-0.8-0.3-1.6-0.5-2.4-0.8c7.2-5,14.5-9.8,23.4-10.9c7.3-0.9,14.1,0.5,19.4,6.1c2,2.1,2.1,4.6,0.9,6.6c-1,1.7-3.6,2.6-6.2,2
		c-1-0.2-2-0.5-2.9-0.7c-0.1,0.2-0.3,0.3-0.3,0.4c1.2,4.8-1.6,7.7-6.6,6.8c-2.5-0.4-4.8-1.4-7.2-2.3c-1.7-0.7-3.6-0.9-5.4-1.1
		c-0.6-0.1-1.3,0.2-2,0.4c-0.3,0.1-0.7,0.5-0.8,0.8c-0.1,0.5,0.4,0.6,0.7,0.8c1.9,1.1,4.1,1.4,6.3,1.5c3.7,0.2,6.8,1.8,9.2,4.5
		c1.7,1.9,2.2,4.2,1.9,6.6c-0.4,2.9-3.1,4.4-6.6,3.8c-0.6-0.1-1.2-0.7-1.6,0.5c-0.9,2.8-3.8,4.4-6.9,3.9c-2.3-0.3-4.2-1.4-6.2-2.5
		c-1.4-0.8-2.9-1.4-4.5-1.9c0.5-0.5,1.1-1,1.6-1.5c0.1,0,0.3,0,0.4,0c2.4,1.2,4.7,2.5,7.2,3.5c2.3,0.9,4.6,0.7,6.3-1.3
		c0.8-1,0.3-1.8-0.6-2.3c-1.2-0.7-2.2-1.6-3.5-1.9c-1.1-0.6-2.2-1.2-3.5-1.9c2-0.1,3.7,0.3,5.3,0.9c2,0.7,3.9,1.8,6,2.5
		c2.9,0.9,5-1.3,4.2-4.2c-0.8-3.1-4.1-5.9-7.5-6.3c-1.2-0.6-2.6-0.7-3.9-0.8C164.5,94.2,161.1,95.1,157.7,96z"/>
	<path class="st1" d="M34.9,138.6c0-0.4-0.1-0.7-0.1-1.1c-0.5-1.3-0.2-2.6,0.3-3.9c0.8-2.1,2.6-3.4,3.8-5.1c0.1,0,0.1,0,0.1-0.1
		c0,0,0-0.1,0-0.1c-0.1,0.1-0.1,0.1-0.2,0.2c-0.3,0-0.6,0-0.8,0.1c-1.2,0.4-2.6,0.9-3.6-0.3c-1.1-1.2-1.1-2.7-0.5-4.2
		c0.9-2.4,2.7-4,4.6-5.5c1.3-1,2.9-1.5,3.9-2.7l0,0c0.4,0,0.7,0,0.8-0.4l0,0c2.3,0,4.3-1.4,6.6-1.3c-0.2,0.6-0.4,1.2-0.6,1.7
		c-1.2,0.4-2.4,0.8-3.6,1.2c-2.5,0.5-4.6,1.9-6.6,3.3c-1.5,1.1-2.9,2.3-3.4,4.1c-0.2,0.8-0.8,1.9,0.6,2.3c0.9,0,1.7-0.4,2.5-0.6
		c1.6-0.4,2.4,0.3,2.4,1.9c0,0.8-0.5,1.3-0.8,2c-1.4,1-2.6,2.3-3.3,3.9c-0.5,1.2-1.1,2.7,0.9,3.4c1.7,0.9,2.8-0.4,3.8-1.3
		c3.1-2.7,4.3-6.8,6.8-9.8c0.3,1,0.7,2,1.1,2.9c-1.7,0.7-2,2.4-2.8,3.8c-2,3.2-3.9,6.6-8.3,6.9c-0.7,0.1-1,0.6-1.1,1.3
		c-2.4,2-4.7,4.1-6,7c-0.8,1.8-0.5,2.2,1.5,2.3c1.7-0.6,2.9-2,4.5-3.1c-0.3,2-1,3.4-2,4.7c-3.5,1.4-5,4.3-5.6,7.8
		c-0.2,1.1-0.1,2.5,1.5,2.9c0.4,0,0.8-0.1,1.1-0.4c3.2-2.6,5-6.1,6.7-9.7c0.1,0,0.3,0,0.4,0c0.8,0,1.6,0,2.4,0
		c-1.8,3.3-3.7,6.4-6,9.4c-0.1,0.2-0.3,0.3-0.4,0.5c-2,2.3-3.9,3-5.6,2.1c-1.8-0.9-2.7-3.5-2.1-6.1c0.4-1.7,1.1-3.2,2.1-4.6
		c0.4-0.6,0.7-1,0-1.7c-1.4-1.3-1.2-2.9-0.5-4.5c0.9-2.1,2.5-3.7,4.3-5.1c0.6-0.5,1.2-0.9,1.7-1.4C37.2,139.6,37.1,139.4,34.9,138.6
		z"/>
	<path class="st1" d="M159.6,156.7c0.7,0,1.2-0.5,1.7-0.9c0,0,0.2,0,0.2,0l0.2,0c1.3,2.6,2.6,5.1,5.2,6.6c1.1,0.8,1.6,0,2-0.8
		c1.2-2.9-2-8.5-5.2-9l0,0c0-0.3-0.2-0.4-0.4-0.4l0,0c0-0.3-0.1-0.6-0.4-0.8c-0.4-0.8-0.8-1.6-1.1-2.4c-0.2-0.4-0.2-0.9,0.1-1.1
		c0.4-0.3,0.7,0.1,1,0.4c1.1,1,2,2.1,3.7,2.2c1.8-0.3,1.2-1.4,0.8-2.4c-1.2-2.9-3.9-4.6-5.7-7c-0.9-1.7-2.9-1.5-4.3-2.4
		c-2.2-2-3.7-4.5-5.1-7.1c-0.4-0.8-0.6-1.8-1.5-2.3c-0.1-0.8,0.1-1.5,0.8-2.1c0.9,0.5,1.4,1.3,1.9,2.1c1.5,2.5,2.7,5.2,5,7.1
		c1.1,0.8,2.2,2,3.8,1c1.6-0.6,1.3-1.9,0.8-3c-0.8-1.9-2.2-3.4-3.8-4.7c-0.3-0.9-1.3-1.7-0.3-2.8c0.7-0.8,1.5-1.1,2.5-0.6
		c0.5,0.3,1.1,0.4,1.7,0.7c0.6,0.3,0.9,0.1,1-0.5c0.8-1.3,0.1-2.4-0.6-3.3c-3.2-4-7.3-6.2-12.4-6.8c-0.2-0.7-0.6-1.4-0.5-2.2
		c4.7,0.8,8.9,2.7,12.6,5.7c0.2,0.1,0.3,0.3,0.5,0.4l0,0c0.1,0.4,0.4,0.7,0.8,0.8l0,0c0.3,0.5,0.6,1,0.9,1.6c1,1.7,1.2,3.6,0.3,5.2
		c-0.9,1.8-2.7,0.8-4.8,0.5c3,2.8,5,5.6,4.4,9.5c-0.2,0.4-0.4,0.9-0.6,1.3c-0.9-0.4-1.8,0.1-2,0.8c-0.3,0.6,0.7,1.1,1.2,1.5
		c2.1,1.6,4,3.2,5.3,5.5c1,1.8,1.5,3.7-0.4,5.3c-0.7,0.6-0.2,0.9,0.1,1.3c1.1,1.6,1.9,3.4,2.2,5.4c0.4,2.3-0.6,4.8-2.3,5.6
		c-1.4,0.7-3.6,0-5.1-1.7C162.2,161,160.6,159,159.6,156.7z"/>
	<path class="st0" d="M111.6,57c3.7,7.6-0.8,16.1-9.6,18c-2.6,0.6-5.3,1-8,1.3c-6.7,0.7-15.6-3.8-16-13.7c-0.1-1.5-0.4-3.1,0.3-4.6
		c0.5,0.6,1,1.3,1.7,1.6c0.1,1.5,0.2,3.1,0.4,4.6c0.9,5.3,4.1,8.2,8.8,8c0.8-0.2,1.5-0.4,2.3-0.6c1.9-0.6,3.3-2.2,5.1-3l0,0
		c-0.1,0.5-0.3,1.1-0.4,1.6c0,0-0.1,0-0.1,0.1c0,0,0,0.1,0,0.1c0.1-0.1,0.1-0.1,0.2-0.2c2-0.5,2.7-2.9,4.8-3.6
		c-0.1,1.4-1.2,2.2-1.4,3.6c2.8-1.4,3.6-4.1,5-6.7c0.5,2.2-0.3,3.8-0.6,5.4c-0.3,0.2-0.4,0.5-0.4,0.8c-0.1,0.1-0.3,0.3-0.4,0.4
		c-0.1,0.1-0.1,0.1-0.2,0.2c0.1-0.1,0.1-0.1,0.2-0.2c0.1-0.1,0.3-0.3,0.4-0.4c0.3-0.2,0.4-0.5,0.4-0.8c1-0.1,1.5-0.9,1.8-1.7
		c0.7-1.7,1.2-3.5,1.9-5.3c0.1-0.1,0.2-0.1,0.4-0.1c0.2,2.7-0.2,5.3-1.2,7.9c-0.1,0.1-0.3,0.3-0.4,0.4c0,0-0.1,0-0.1,0.1
		c0,0,0,0.1,0,0.1c0.1-0.1,0.1-0.1,0.2-0.2c0.1-0.1,0.3-0.3,0.4-0.4c1-0.1,1.5-0.9,2-1.6c2.1-2.8,2-5.9,1.2-9.1c0-0.2,0-0.5,0-0.7
		C110.7,57.9,111.1,57.5,111.6,57z M98.4,71c0.2-0.1,0.4-0.1,0.5-0.2c0-0.1-0.1-0.1-0.1-0.2C98.7,70.8,98.6,70.9,98.4,71
		c-0.1,0-0.1,0-0.2,0.1c0,0,0,0.1,0,0.1C98.3,71.1,98.4,71.1,98.4,71z"/>
	<path class="st1" d="M111.6,57c-0.5,0.4-0.9,0.9-1.4,1.3c-2.4-4.7-6.6-6.8-11.5-8c1.1,1.4,1.9,2.8,2.4,4.4c0.7,2.7-0.3,5.7-2.3,6.8
		c-2.5,1.4-5.4,1-7.3-1c-2.2-2.3-2.8-5.1-2.3-8.3c0.3-2,1.1-3.8,1.9-5.8c-1.2,0.3-1.9,0.6-2.5,1.2c-0.1,0.1-0.3,0.3-0.4,0.4
		c0,0,0,0,0,0c-1.5,0.3-2.5,1.3-3.6,2.2c-2.9,2.4-3.9,5.7-4.5,9.2c-0.8-0.3-1.2-1-1.7-1.6c0.4-4.6,3-7.9,6.6-10.5
		c1.9-1.3,3.9-2.4,6-3.4c1.9-0.9,2.3-2.7,1-4.1c-0.5-0.5-1.2-0.9-2-0.6c-0.4,0.2-0.7,0.9-1.2,0.3c-0.4-0.4-0.2-1-0.1-1.6
		c0.5-2.2,4.1-3.7,6.8-2.8c3.8,1.3,4.7,5.7,1.6,8.5c-1.2,1-2.5,1.9-3.5,3.1c-2.5,2.9-3.3,6.3-2,10c0.7,2,2.9,3.6,4.6,3.4
		c1.9-0.2,3.1-1.2,3.6-3.1c0.3-1.2-0.1-2.3-0.6-3.3c-0.6-1.3-1.4-2.5-2-3.8c-0.2-0.4-1-0.8-0.6-1.3c0.2-0.3,0.9-0.2,1.3-0.2
		C103.3,48.5,110,52.7,111.6,57z M90.4,37.8c1.6,0.6,3.1,1.4,3.7,3.1c0.4-0.5,0.3-1.2,0.9-1.4c0,1.1,1,2,1.7,1.6
		c0.9-0.5,0.6-1.9,0.1-2.8C95.9,36.4,92.6,36.1,90.4,37.8z"/>
	<path class="st2" d="M91.9,82.8c2.5-1.4,5.3-1.6,7.8-2.8c0.4-0.2,1-0.1,1.4,0.1c7.5,2.5,15.2,4.6,22,8.7c6.4,3.9,12.4,8.4,17,14.5
		c0.6,0.9,2,1.3,1.8,2.7c1.3,4.5,2.5,8.9,1.9,13.7c-0.9,7.8-3.6,14.6-9.9,19.7c-2.7,2.2-5.7,3.6-8.7,5.3c-1.8,1-3.9,1.6-5.2,3.4
		c0,0,0,0,0,0c-0.4-0.1-0.7,0-0.8,0.4c0,0,0,0,0,0c-0.4,0-0.7,0-0.9,0.4c-4,1.5-8.2,2.2-12.5,2.1c-4.4-0.1-8.8,0-13.2,0
		c-4.8,0-9.3-1.4-13.7-3.3c-5.5-2.3-11-4.6-15.9-8.1c-0.7-0.5-1.3-0.9-1.7-1.7c-0.3-0.1-0.7-0.3-1-0.4c0,0,0,0,0,0
		c-0.1-0.1-0.3-0.3-0.4-0.4c0,0,0,0,0,0c0-0.6-0.2-0.9-0.8-0.8c0,0,0,0,0,0c0.2-0.8-0.3-1.3-0.7-1.8c-2.2-3.8-4-7.8-3.3-12.3
		c0.7-4.8,2.4-9.3,5-13.4c1.4-2.2,2.6-4.6,5-6c-1,7.3,1.3,13.2,7.2,17.6c4.8,3.5,10,4.7,15.9,3c6.8-2,9.1-12,4-17
		c-3.6-3.5-8.1-4.1-12.7-4.2c-3.7-0.1-7.2-0.1-9.5-3.7c-0.1-0.2-0.4-0.3-0.7-0.5c4.7-4.3,10-7.9,15.6-11.1c2.2-1.2,4.6-2.1,6.4-4
		c0,0,0,0,0,0c0,0,0.2,0,0.2,0L91.9,82.8z M115.1,129.8c-0.6-0.3-1.3-0.5-2-0.3c-7.7,1.8-15.5,1-23.3,0.4c-2-0.1-4-0.4-6,0.2
		c-0.7,0.4-0.4,0.7,0.1,1c1.3,0.6,2.6,1.2,3.9,1.7c-0.7,0.9-2.3,1.7-1.3,3.1c0.8,1.2,2.3,1.6,3.8,1.6c1.4-0.1,2.2-0.9,2.5-2.1
		c0.3-1.7,1.4-1.8,2.6-1.6c2.8,0.5,5.5,0.6,8.3,0c0.9-0.2,1.8-0.2,2.4,1c1.2,2.8,2.9,3.3,5.6,1.9c1.3-0.7,1.3-1.6,0.7-2.7
		c-0.3-0.4-0.7-0.8-1.1-1.3c1.3-0.6,2.6-1,3.8-1.7C115.4,130.9,116.8,130.3,115.1,129.8z M133.9,105.9c0.2-2.2-0.2-4.5-1.5-6.4
		c-1.5-2.1-3-2.1-4.5,0c-0.9,1.3-2.1,1.9-3.7,2.2c-3.7,0.6-7.4,0.2-11.1,1.1c-5,1.2-8.8,5-9,9.5c-0.2,6.5,2.4,10.1,8.3,11.5
		C121.9,126,134.6,117.4,133.9,105.9z"/>
	<path class="st3" d="M176.3,73.1c4.9-0.3,9.4,1.1,13.5,3.6c1.2,0.7,2.2,1.7,2.7,2.9c1.1,2.5,0.1,3.9-2.6,4c-3.1,0-5.9-1.3-8.7-2.5
		c-5.9-2.5-11.7-2-17.9,1c1.3-0.1,2.1-0.1,2.8-0.2c0.2,0.1,0.3,0.3,0.5,0.3c5.3,0.5,10.6,0.8,15.8,2.5c0.3,0.4,0.6,0.7,0.9,1.1
		c1.6,2.4,0.6,4.4-2.3,4.7c-2.5,0.3-4.7-0.5-6.9-1.4c-2.6-1-5.2-1.8-7.9-2.5c-1.8-0.4-3.2,0.1-4.5,1.2c-1.6,1.3-1.5,2.7,0.1,4.8
		c-1.7,1-3.9,1-5.5,2.3c-0.4,0-0.8,0-1.2,0.1c-0.6-0.2-1.3,0.2-2-0.4c1.6-1.4,4.1-2.2,3.8-4.9c-0.2-1.7-1.9-1.5-3.2-1.8
		c0.3-1.1,1.2-1.9,1.1-3.1c0.7-0.5,1.3-1,2-1.4c5.5-3.8,11.7-6.2,17.8-8.8C175.3,74.3,176.3,74.3,176.3,73.1z"/>
	<path class="st3" d="M41.3,94.3c-0.7-1-2.1-0.6-3.1-1.4c1.1-1.4,1.6-3,0.4-4.5c-1.3-1.5-3-2-5.1-1.5c-2.8,0.7-5.5,1.5-8.1,2.5
		c-2,0.8-4,1.4-6.1,1.2c-2-2.3-2-2.5,0.2-4.6c0.6-0.6,1.4-1.1,2.1-1.5c2.4-1.4,5.1-1.9,7.7-2.8c2.5-0.1,4.9,0.5,7.5,0.7
		c-2.4-1.9-9.6-3.3-12.9-2.7c-3.9,0.7-7.4,2.7-11.2,3.6c-1.6,0.4-3,0.6-4.5-0.1c0.2-1.8,1-3.2,2.3-4.4c2.7-2.6,6.2-3.3,9.7-3.7
		c5.9-0.6,11.3,1.3,16.5,3.6c3.5,1.5,6.8,3.4,9.6,6c-0.8,0.4-1.1,1.1-0.8,1.9c0.5,1.3-0.1,1.4-1.2,1.6c-2.7,0.5-3.2,1.9-1.5,3.9
		c0.2,0.2,0.4,0.4,0.6,0.6c1.2,0.9,0.3,1.2-0.4,1.5C42.4,94.3,41.8,94.3,41.3,94.3z"/>
	<path class="st4" d="M91.5,82.8c-1.8,1.9-4.2,2.8-6.4,4c-5.6,3.1-10.9,6.7-15.6,11.1c-3.1,0.1-3.3,2.8-4.2,4.8
		c-2.4,1.4-3.6,3.8-5,6c-2.6,4.1-4.3,8.6-5,13.4c-0.7,4.5,1.1,8.5,3.3,12.3c0.3,0.6,0.9,1.1,0.7,1.8c-6.9-5-9.3-11.2-7.1-19.3
		c2.3-8.3,7.7-14.6,13.9-20.2c7-6.4,15.4-10.6,24.3-13.7C90.7,82.9,91.1,82.9,91.5,82.8z"/>
	<path class="st2" d="M42.9,94.2c0.7-0.4,1.6-0.7,0.4-1.5c-0.2-0.2-0.4-0.4-0.6-0.6c-1.7-1.9-1.2-3.4,1.5-3.9
		c1.2-0.2,1.7-0.3,1.2-1.6c-0.3-0.7,0.1-1.5,0.8-1.9c1.7,0.3,2.8,1.6,4.1,2.4c1.3,0.8,2.3,2.1,4,2.2c0,0,0,0,0,0
		c0.2,0.5,0.3,0.3,0.4,0c2.3,2.1,4.6,4.2,7,6.1c0.8,0.7,0.4,1-0.1,1.4c-1.7,1.6-3.2,3.3-4.5,5.2c-0.3,0.4-0.6,0.8-1.1,0.3
		C52.3,98.6,47.5,96.6,42.9,94.2z"/>
	<path class="st2" d="M38.8,128.5c-1.2,1.7-3,3-3.8,5.1c-0.5,1.3-0.8,2.5-0.3,3.9c-3.8,1.2-5.7,4.5-8.1,7.3c-1.3,1.5-2,3.7-4.4,4.2
		c-0.4-2.2,0.4-4.1,1.5-5.9c0.8-1.4,2.2-2.6,2.5-4.3c0,0,0,0,0,0c0.4-0.2,0.4-0.6,0.4-1c0.1-0.8,0.9-1.1,1.2-1.8
		c0.2-0.8,0.6-1.5-0.1-2.3c-0.6-0.7-1.3-1.1-2.3-0.7c-0.7,0.2-1.4,0.3-2.1,0.4c0.2-0.4,0.3-0.9,0.5-1.3c2.7-4.5,6.3-8.2,10.3-11.5
		c2.5-2.1,5.2-4,8.4-4.7c-1,1.3-2.7,1.7-3.9,2.7c-1.9,1.5-3.8,3.1-4.6,5.5c-0.6,1.5-0.6,3,0.5,4.2c1,1.1,2.4,0.7,3.6,0.3
		C38.3,128.5,38.6,128.6,38.8,128.5L38.8,128.5z"/>
	<path class="st4" d="M120.1,148.1c1.3-1.8,3.4-2.3,5.2-3.4c2.9-1.7,6-3.1,8.7-5.3c6.3-5.1,9-11.9,9.9-19.7
		c0.6-4.8-0.6-9.2-1.9-13.7c1.2,0.4,1.6,1.6,2.1,2.6c2.7,4.3,4.6,8.8,4.6,14.1c0,3-0.8,5.6-2.5,8c-2.5,3.5-5.4,6.7-9,9.2
		C131.8,143.4,126.1,146.1,120.1,148.1z"/>
	<path class="st2" d="M165.4,137.9c0.6-3.9-1.4-6.7-4.4-9.5c2.1,0.3,3.8,1.2,4.8-0.5c0.9-1.7,0.7-3.5-0.3-5.2
		c-0.3-0.5-0.6-1-0.9-1.6c1.8,0,2.5,1.5,3.6,2.5c3.1,2.7,5.7,5.9,7.6,9.6c-0.6,0.2-1-0.2-1.6-0.2c-1,0-2.1-0.5-2.8,0.5
		c-0.7,1.1-0.2,2.2,0.5,3.1c-0.3,0.2-0.4,0.3,0,0.4l0,0c-0.2,0.8,0.4,1.4,0.8,2c1.8,3.1,3.7,6.1,3.7,9.8c-2.8-1.9-4.4-4.8-6.5-7.3
		C168.6,140.1,167.4,138.6,165.4,137.9z"/>
	<path class="st3" d="M40.5,130.2c0.3-0.6,0.9-1.1,0.8-2c0-1.6-0.9-2.3-2.4-1.9c-0.8,0.2-1.6,0.7-2.5,0.6c2-3.5,4.8-6.2,8.2-8.3
		c0.6-0.3,1.3-0.6,1.2-1.5c1.2-0.4,2.4-0.8,3.6-1.2c-0.9,3.5-1.2,7-0.7,10.5c-2.6,3.1-3.8,7.1-6.8,9.8c-1,0.9-2.1,2.2-3.8,1.3
		c-0.3-2,0.9-3.6,1.8-5.2C40.2,131.7,40.6,131,40.5,130.2z"/>
	<path class="st2" d="M150.7,129.4c0.9,0.5,1.1,1.5,1.5,2.3c1.4,2.6,2.9,5,5.1,7.1c-0.6,1.7,1,2.3,1.7,3.4c0.8,1.2,2.1,2.5-0.2,3.6
		c-0.8,0.4-0.2,1,0,1.4c0.9,1.9,1.8,3.8,2.7,5.7c0.5,1,0.8,2,0.1,3.1l-0.2,0c0,0-0.2,0-0.2,0c-4-7.4-8.4-14.4-16.7-18
		C147,135.1,149.6,132.8,150.7,129.4z"/>
	<path class="st2" d="M154.8,84.9c0.1,1.2-0.7,2-1.1,3.1c1.3,0.3,3,0.2,3.2,1.8c0.4,2.7-2.2,3.5-3.8,4.9c0.7,0.7,1.4,0.3,2,0.4
		c-3.6,2.1-7.5,3.7-10.6,6.6c-0.8,0.7-1.4,0-1.9-0.6c-1.3-1.5-2.6-2.9-3.9-4.4c1.4-0.6,2.6-1.4,3.8-2.4
		C146.6,91.2,150.7,88,154.8,84.9z"/>
	<path class="st3" d="M164.2,126.5c-0.1,0.6-0.4,0.8-1,0.5c-0.5-0.3-1.1-0.4-1.7-0.7c-1-0.5-1.8-0.2-2.5,0.6c-1,1.1-0.1,1.9,0.3,2.8
		c0.7,2.7,2.5,4.9,2.9,7.7c-1.6,1-2.7-0.2-3.8-1c-2.4-1.8-3.5-4.6-5-7.1c-0.5-0.8-1-1.6-1.9-2.1c1.2-3.4,0.6-6.8,0.1-10.1
		c1.7,0.8,3.4,1.6,5.1,2.3C160,120.9,162.1,123.7,164.2,126.5z"/>
	<path class="st2" d="M39.7,152.6c-0.1,0-0.3,0-0.4,0c-1.4-1.2-0.5-2.5,0-3.7c0.4-1.1,1.8-2.1-0.2-3.2c-0.5-0.3-0.3-1.4,0-2.1
		c0.5-0.9,1.2-1.8,2.1-2.4c4.1-2.8,7.1-6.4,8.7-11.1c1.6,2.5,3.2,5,5.8,7.2C48.2,140.4,43.4,146,39.7,152.6z"/>
	<path class="st3" d="M49.9,130.1c-1.6,4.7-4.6,8.3-8.7,11.1c-0.9,0.6-1.5,1.5-2.1,2.4c-0.4,0.7-0.6,1.8,0,2.1
		c2,1.1,0.6,2.1,0.2,3.2c-0.4,1.2-1.3,2.5,0,3.7c-1.7,3.6-3.5,7.1-6.7,9.7c-0.3,0.3-0.7,0.4-1.1,0.4c-0.7-2.8,0.3-5,2-7.2
		c0.8-1.1,2.4-1.7,2.2-3.4c1-1.3,1.8-2.8,2-4.7c-1.6,1.2-2.8,2.6-4.5,3.1c-0.9-1.9,0.3-3.2,1.5-4.4c1.3-1.4,2.9-2.7,3-4.8
		c0.1-0.7,0.3-1.2,1.1-1.3c4.4-0.3,6.3-3.6,8.3-6.9c0.8-1.3,1.1-3.1,2.8-3.8C49.8,129.6,49.8,129.9,49.9,130.1z"/>
	<path class="st2" d="M42.1,106.5c-0.3-0.1-0.5-0.2-0.8-0.3c-1.1-0.8-2-1.7-2.1-3.3c-0.1-1.4,1.9-2,1.5-3.1c-0.4-1-2.3-1.2-2.3-2.8
		c3.4,0.5,6.5,1.7,9.6,3.2c2,1,4,2.2,6.4,2.6c1.2,0.2,1.5,0.8,0.8,1.8c-0.3,0.4-0.6,0.8-0.8,1.2c-0.6,1.2-1.3,1.5-2.7,0.8
		C48.6,105.3,45.3,105.1,42.1,106.5z"/>
	<path class="st4" d="M154.8,84.9c-4.1,3.2-8.1,6.3-12.2,9.5c-1.2,0.9-2.4,1.7-3.8,2.4c-1.3-0.8-0.5-1.4,0.2-2
		c4.6-3.9,8.9-8.1,14-11.3c0.2-0.1,0.4-0.4,0.6-0.6c2.6-1.5,5.1-3.1,7.7-4.5c4.7-2.7,9.7-4.6,15.2-5.3c0,1.2-1.1,1.3-1.8,1.6
		c-6.1,2.6-12.3,5-17.8,8.8C156.1,83.9,155.4,84.4,154.8,84.9z"/>
	<path class="st4" d="M54.4,89.3c-1.7,0-2.7-1.4-4-2.2c-1.4-0.8-2.5-2.1-4.1-2.4c-2.8-2.6-6.1-4.5-9.6-6c-5.2-2.3-10.6-4.2-16.5-3.6
		c-3.5,0.4-7,1-9.7,3.7c-1.2,1.2-2.1,2.7-2.3,4.4c-1.9-1-1.3-2.5-0.6-3.8c1.4-2.7,4-3.7,6.6-4.7c7.4-3.1,14.3-1.2,21.1,1.9
		c5.2,2.4,9.9,5.6,14.6,8.8C51.2,86.8,53.3,87.5,54.4,89.3z"/>
	<path class="st4" d="M175.7,133.3c-1.9-3.7-4.5-6.9-7.6-9.6c-1.1-0.9-1.8-2.5-3.6-2.5c0,0,0,0,0,0c0-0.6-0.3-0.8-0.8-0.8
		c0,0,0,0,0,0c-0.2-0.1-0.3-0.3-0.5-0.4c-3.7-3-7.9-5-12.6-5.7c-0.2-0.4-0.4-0.8-0.6-1.3c-0.1-0.2,0-0.4,0-0.6
		c10.5,0.5,28.9,15.6,27.4,21.8C176.6,134.3,176.3,133.5,175.7,133.3z"/>
	<path class="st2" d="M158,106.1c-0.1,0-0.3,0-0.4,0c-3.1-0.6-6.2-0.8-9.3,0.5c-2.2,0.9-2.2-1.4-2.9-2.5c1.3-0.5,2.4-1.1,3.7-1.6
		c2.9-1.4,5.5-3.4,8.6-4.3c0,1.5-1.7,1.6-2.3,2.5c0.7,0.7,1.5,0.3,2.2,0.4c1,0.1,1.9,0.4,2.3,1.4c0.4,1.1,0,2-0.8,2.7
		C158.6,105.6,158.3,105.8,158,106.1z"/>
	<path class="st4" d="M54.4,102.8c-2.3-0.3-4.3-1.6-6.4-2.6c-3-1.5-6.2-2.7-9.6-3.2c-6.9-2.5-13.5-0.2-17.9,6.1
		c-0.2-4.3,3.1-7.5,8.1-8.5c3.8-0.7,7.4,0,11.1,0.5c4.8,1.7,9.5,3.8,13.7,6.8C53.8,102.2,54.2,102.3,54.4,102.8z"/>
	<path class="st4" d="M42.5,115.9c-3.3,0.7-6,2.6-8.4,4.7c-3.9,3.3-7.6,7-10.3,11.5c-0.2,0.4-0.4,0.9-0.5,1.3
		c-0.4,0.3-0.8,0.6-1.2,0.8c-0.2,0.1-0.4,0.1-0.7,0.2c-0.1-2.8,1.3-4.9,2.9-6.7c6-7,13.2-12.5,22.3-15c0.3-0.1,0.5,0,0.8-0.1
		c-0.9,1.7-2.9,1.6-4.1,2.9c0,0,0,0,0,0C43,115.5,42.7,115.5,42.5,115.9L42.5,115.9z"/>
	<path class="st4" d="M157.6,98.3c-3.1,0.9-5.8,2.8-8.6,4.3c-1.2,0.6-2.4,1.2-3.7,1.6c-1.4-0.9-0.2-1.3,0.4-1.7
		c3.4-2.3,6.9-4.4,10.8-5.9c0.4-0.2,0.8-0.4,1.2-0.6c3.4-0.9,6.8-1.8,10.3-1.7c1.3,0,2.7,0.2,3.9,0.8c-0.6,1.2-1.7,0.8-2.7,0.9
		C165.2,96,161.2,96.3,157.6,98.3z"/>
	<path class="st4" d="M164.2,126.5c-2.1-2.8-4.1-5.6-7.5-7.1c-1.7-0.7-3.4-1.6-5.1-2.3c-0.1-0.3-0.3-0.5-0.4-0.8
		c5,0.6,9.2,2.9,12.4,6.8C164.2,124.1,165,125.2,164.2,126.5z"/>
	<path class="st4" d="M176.4,148.9c0-3.7-1.9-6.8-3.7-9.8c-0.4-0.6-1-1.2-0.8-2c2.4,2.5,4.6,5,5.8,8.3c0.3,0.9,0.4,1.8,0.3,2.8
		C177.9,149.2,177.4,149.6,176.4,148.9z"/>
	<path class="st4" d="M26.2,138.7c-0.3,1.7-1.7,2.9-2.5,4.3c-1.1,1.8-1.8,3.7-1.5,5.9c-1.1-0.1-1.4-0.4-1.3-1.7
		c0.1-1.8,0.8-3.4,1.9-4.9C23.7,141.1,24.4,139.4,26.2,138.7z"/>
	<path class="st2" d="M43.3,115.5c1.1-1.3,3.2-1.2,4.1-2.9c0.4-0.1,0.8-0.3,1.1-0.4c2-0.2,2.2,0,1.4,1.9
		C47.6,114.1,45.6,115.4,43.3,115.5z"/>
	<path class="st4" d="M59.2,136.3c0.6-0.1,0.9,0.2,0.8,0.8C59.6,137,59.3,136.7,59.2,136.3z"/>
	<path class="st4" d="M60.4,137.5c0.3,0.1,0.7,0.3,1,0.4C61.1,137.9,60.7,137.9,60.4,137.5z"/>
	<path class="st4" d="M26.6,137.7c0,0.4,0,0.8-0.4,1C26,138.3,26.3,138,26.6,137.7z"/>
	<path class="st4" d="M119.2,148.5c0.1-0.4,0.5-0.5,0.8-0.4C119.9,148.6,119.6,148.5,119.2,148.5z"/>
	<path class="st4" d="M118.4,148.9c0.2-0.4,0.5-0.4,0.9-0.4C119.1,148.9,118.7,148.9,118.4,148.9z"/>
	<path class="st4" d="M54.8,89.3c-0.1,0.3-0.3,0.5-0.4,0C54.5,89.3,54.6,89.3,54.8,89.3z"/>
	<path class="st4" d="M171.9,137.1c-0.4-0.1-0.4-0.3,0-0.4C171.9,136.8,171.9,137,171.9,137.1z"/>
	<path class="st4" d="M60,137.1c0.1,0.1,0.3,0.3,0.4,0.4C60.3,137.4,60.2,137.2,60,137.1z"/>
	<path class="st4" d="M91.9,82.8l-0.2,0c0,0-0.2,0-0.2,0C91.6,82.6,91.7,82.6,91.9,82.8z"/>
	<path class="st3" d="M20.5,103.2c4.4-6.4,11-8.6,17.9-6.1c0,1.6,2,1.7,2.3,2.8c0.4,1.1-1.6,1.7-1.5,3.1c0.1,1.5,1,2.4,2.1,3.3
		c-2.5,1.8-5.2,3.2-8.1,3.9c-1.3,0.3-2.5-0.5-3.7-0.7c-0.2-1.6,0.6-2.6,1.9-3.5c1.1-0.7,2.7-1.1,3.2-2.7c0.5-0.4,0.9-0.8,1.5-1
		c-2.4-0.3-4.6,0.4-6.7,1.3c-1.5,0.7-3,1.6-4.6,2C22.4,106.1,21.1,105.3,20.5,103.2z"/>
	<path class="st4" d="M29.3,81.7c-2.6,0.9-5.3,1.4-7.7,2.8c-0.8,0.4-1.5,0.9-2.1,1.5c-2.2,2.2-2.2,2.3-0.2,4.6c-1.5,0-2.9-0.3-3.3-2
		c-0.4-1.5,1.3-4.4,2.9-5.1C22.2,81.9,25.7,81.3,29.3,81.7z"/>
	<path class="st4" d="M34.5,103.2c-0.5,1.5-2,1.9-3.2,2.7c-1.3,0.9-2.1,1.9-1.9,3.5c-1.7-1.4-1.7-2.5,0-3.6
		C31.1,104.7,32.5,103.4,34.5,103.2z"/>
	<path class="st3" d="M157.6,98.3c3.6-2,7.6-2.3,11.7-2.4c1,0,2.1,0.3,2.7-0.9c3.4,0.4,6.7,3.1,7.5,6.3c0.8,2.9-1.4,5.1-4.2,4.2
		c-2.1-0.7-4-1.8-6-2.5c-1.6-0.6-3.3-1-5.3-0.9c1.3,0.7,2.4,1.3,3.5,1.9c-0.6,0-1.1,0.1-1.8,0.2c2.1,1.5,4,2.8,5.9,4.1
		c-1.8,2.1-4.1,2.2-6.3,1.3c-2.5-1-4.8-2.3-7.2-3.5c0.3-0.3,0.6-0.5,0.9-0.8c0.7-0.8,1.2-1.6,0.8-2.7c-0.4-1-1.3-1.3-2.3-1.4
		c-0.7-0.1-1.5,0.3-2.2-0.4C156,99.8,157.6,99.8,157.6,98.3z"/>
	<path class="st4" d="M182.4,84.9c-5.1-1.7-10.5-2-15.8-2.5c-0.2,0-0.3-0.2-0.5-0.3c4.5-0.6,9-1,13.3,0.8
		C180.6,83.3,181.9,83.6,182.4,84.9z"/>
	<path class="st4" d="M171.5,108.3c-1.9-1.3-3.8-2.7-5.9-4.1c0.7-0.1,1.3-0.1,1.8-0.2c1.3,0.3,2.4,1.3,3.5,1.9
		C171.8,106.4,172.3,107.2,171.5,108.3z"/>
	<path class="st4" d="M45.8,117.1c0,0.9-0.7,1.1-1.2,1.5c-3.4,2.1-6.2,4.9-8.2,8.3c-1.4-0.5-0.8-1.5-0.6-2.3
		c0.5-1.8,1.9-3.1,3.4-4.1C41.2,119,43.3,117.6,45.8,117.1z"/>
	<path class="st4" d="M35.6,152.1c0.2,1.7-1.4,2.4-2.2,3.4c-1.6,2.2-2.6,4.4-2,7.2c-1.6-0.4-1.7-1.8-1.5-2.9
		C30.5,156.4,32.1,153.5,35.6,152.1z"/>
	<path class="st4" d="M37.6,141.3c-0.2,2.1-1.8,3.4-3,4.8c-1.1,1.3-2.3,2.5-1.5,4.4c-2-0.1-2.3-0.5-1.5-2.3
		C32.9,145.4,35.2,143.3,37.6,141.3z"/>
	<path class="st4" d="M40.5,130.2c0.1,0.8-0.2,1.5-0.6,2.2c-0.9,1.6-2.1,3.1-1.8,5.2c-2-0.7-1.4-2.2-0.9-3.4
		C37.8,132.5,39,131.2,40.5,130.2z"/>
	<path class="st2" d="M42.5,115.9c0.2-0.4,0.5-0.4,0.8-0.4C43.2,115.9,42.9,115.9,42.5,115.9z"/>
	<path class="st2" d="M38.8,128.5c0.1-0.1,0.1-0.1,0.2-0.2c0,0,0,0.1,0,0.1C38.9,128.5,38.9,128.5,38.8,128.5
		C38.8,128.5,38.8,128.5,38.8,128.5z"/>
	<path class="st3" d="M161.7,155.9c0.7-1,0.4-2-0.1-3.1c-0.9-1.9-1.9-3.7-2.7-5.7c-0.2-0.4-0.8-1,0-1.4c2.3-1.1,0.9-2.4,0.2-3.6
		c-0.7-1.1-2.3-1.7-1.7-3.4c1.4,0.9,3.4,0.7,4.3,2.4c-0.7,0.8,0.1,1.4,0.5,1.9c1.8,2.3,3.2,4.8,4.4,7.5c-1.6-0.1-2.6-1.2-3.7-2.2
		c-0.3-0.3-0.6-0.7-1-0.4c-0.3,0.3-0.3,0.8-0.1,1.1c0.3,0.8,0.7,1.6,1.1,2.4c0,0.3,0.1,0.6,0.4,0.8c0,0,0,0,0,0
		c0.1,0.1,0.3,0.3,0.4,0.4c0,0,0,0,0,0c0,0.4,0.2,0.8,0.5,1.1c2.5,2.4,3.2,5.4,2.7,8.8C164.2,161,162.9,158.4,161.7,155.9z"/>
	<path class="st4" d="M166.9,162.4c0.6-3.4-0.1-6.3-2.7-8.8c-0.3-0.3-0.5-0.6-0.5-1.1c3.2,0.5,6.4,6.1,5.2,9
		C168.5,162.4,168,163.2,166.9,162.4z"/>
	<path class="st4" d="M166.6,150.6c-1.2-2.6-2.6-5.2-4.4-7.5c-0.4-0.5-1.1-1.1-0.5-1.9c1.8,2.4,4.5,4.1,5.7,7
		C167.8,149.2,168.4,150.3,166.6,150.6z"/>
	<path class="st4" d="M162.2,137.4c-0.4-2.8-2.2-5-2.9-7.7c1.6,1.3,2.9,2.8,3.8,4.7C163.5,135.6,163.8,136.8,162.2,137.4z"/>
	<path class="st2" d="M163.7,120.3c0.5,0,0.9,0.2,0.8,0.8C164.1,121,163.9,120.8,163.7,120.3z"/>
	<path class="st4" d="M163.3,152.2c-0.3-0.1-0.4-0.4-0.4-0.8C163.3,151.6,163.4,151.9,163.3,152.2z"/>
	<path class="st2" d="M163.3,119.9c0.2,0.1,0.3,0.3,0.5,0.4C163.6,120.2,163.4,120.1,163.3,119.9z"/>
	<path class="st4" d="M163.7,152.6c-0.1-0.1-0.3-0.3-0.4-0.4C163.6,152.2,163.7,152.3,163.7,152.6z"/>
	<path class="st3" d="M88.6,47.7c0.6-0.6,1.3-0.9,2.5-1.2c-0.8,2-1.7,3.9-1.9,5.8c-0.4,3.1,0.2,5.9,2.3,8.3c1.9,2,4.8,2.4,7.3,1
		c2-1.1,3-4.2,2.3-6.8c-0.4-1.7-1.3-3.1-2.4-4.4c4.9,1.2,9.1,3.3,11.5,8c0,0.2,0,0.5,0,0.7c-1.1,0.6-1.4,1.8-2,2.8
		c-0.1,0-0.3,0.1-0.4,0.1c-1.6,0.5-3.2,0.6-4.8,0.3c-3.1-0.5-3.3-0.4-3.3,2.7c0,1.4-0.5,2-1.9,1.9c-1,0-2-0.1-2.9-0.6
		c-1.4-0.7-2.7-1.6-3.9-2.5c-0.9-0.7-2.2-0.9-2.5,0.4c-0.5,2.2-1.6,1.4-2.8,0.8c-0.7-0.3-1.1-1-2-1l0,0c-0.1-0.1-0.3-0.3-0.4-0.4
		c-0.7-3.5-0.1-6.9,1.2-10.3c0.8-2.1,2.8-3.3,3.7-5.3c0,0,0,0,0,0C88.3,48,88.5,47.9,88.6,47.7z"/>
	<path class="st2" d="M83.7,64.1c0.8,0,1.3,0.7,2,1c1.2,0.5,2.2,1.4,2.8-0.8c0.3-1.2,1.6-1.1,2.5-0.4c1.2,0.9,2.5,1.9,3.9,2.5
		c0.9,0.5,1.9,0.6,2.9,0.6c1.4,0,1.9-0.5,1.9-1.9c0-3,0.3-3.1,3.3-2.7c1.6,0.2,3.2,0.2,4.8-0.3c-0.6,1.8-1.2,3.5-1.9,5.3
		c-0.3,0.8-0.7,1.6-1.8,1.7c0,0,0,0,0,0c0.4-1.6,1.1-3.2,0.6-5.4c-1.4,2.6-2.2,5.3-5,6.7c0.2-1.4,1.3-2.2,1.4-3.6
		c-2.1,0.7-2.8,3.1-4.8,3.6l0,0c0.1-0.5,0.3-1.1,0.4-1.6c0.1-0.1,0.1-0.1,0.2-0.2c-0.1,0.1-0.1,0.1-0.2,0.2c-1.8,0.8-3.2,2.3-5.1,3
		c-0.8,0.2-1.5,0.4-2.3,0.6c-0.2-0.5-0.7-0.6-1-0.9C86.2,69.2,83.9,67.4,83.7,64.1z"/>
	<path class="st4" d="M83.7,64.1c0.1,3.3,2.5,5.2,4.6,7.2c0.3,0.3,0.8,0.4,1,0.9c-4.7,0.2-7.9-2.7-8.8-8c-0.3-1.5-0.3-3.1-0.4-4.6
		c0.6-3.5,1.6-6.9,4.5-9.2c1.1-0.9,2.1-1.9,3.6-2.2c-0.9,2-2.8,3.2-3.7,5.3c-1.3,3.3-1.9,6.7-1.2,10.3
		C83.5,63.8,83.6,63.9,83.7,64.1L83.7,64.1z"/>
	<path class="st2" d="M108.2,61.9c0.6-1,0.9-2.2,2-2.8c0.8,3.2,0.9,6.3-1.2,9.1c-0.5,0.7-1,1.5-2,1.6c0,0,0,0,0,0
		C107.9,67.2,108.3,64.6,108.2,61.9z"/>
	<path class="st2" d="M103.7,69.8c0-0.3,0.1-0.6,0.4-0.8c0,0,0,0,0,0C104.2,69.3,104.1,69.6,103.7,69.8
		C103.7,69.8,103.7,69.8,103.7,69.8z"/>
	<path class="st2" d="M98.4,71c0.1-0.1,0.3-0.2,0.4-0.3c0,0.1,0.1,0.1,0.1,0.2C98.8,70.9,98.6,71,98.4,71C98.4,71,98.4,71,98.4,71z"
		/>
	<path class="st2" d="M96.4,70.2c-0.1,0.1-0.1,0.1-0.2,0.2c0,0,0-0.1,0-0.1C96.3,70.2,96.3,70.2,96.4,70.2
		C96.4,70.2,96.4,70.2,96.4,70.2z"/>
	<path class="st2" d="M106.6,70.2c0.1-0.1,0.3-0.3,0.4-0.4c0,0,0,0,0,0C106.9,69.9,106.7,70,106.6,70.2L106.6,70.2z"/>
	<path class="st2" d="M103.3,70.2c0.1-0.1,0.3-0.3,0.4-0.4c0,0,0,0,0,0C103.6,69.9,103.5,70.1,103.3,70.2
		C103.3,70.2,103.3,70.2,103.3,70.2z"/>
	<path class="st2" d="M106.6,70.2c-0.1,0.1-0.1,0.1-0.2,0.2c0,0,0-0.1,0-0.1C106.5,70.2,106.5,70.2,106.6,70.2
		C106.6,70.2,106.6,70.2,106.6,70.2z"/>
	<path class="st2" d="M98.4,71c-0.1,0.1-0.1,0.1-0.2,0.2c0,0,0-0.1,0-0.1C98.3,71,98.4,71,98.4,71C98.4,71,98.4,71,98.4,71z"/>
	<path class="st2" d="M103.3,70.2c-0.1,0.1-0.1,0.1-0.2,0.2C103.2,70.3,103.3,70.2,103.3,70.2C103.3,70.2,103.3,70.2,103.3,70.2z"/>
	<path class="st3" d="M90.4,37.8c2.1-1.7,5.4-1.4,6.5,0.6c0.5,0.9,0.7,2.3-0.1,2.8c-0.7,0.4-1.6-0.5-1.7-1.6
		c-0.7,0.2-0.6,0.9-0.9,1.4C93.5,39.2,92,38.4,90.4,37.8z"/>
	<path class="st4" d="M88.6,47.7c-0.1,0.1-0.3,0.3-0.4,0.4C88.3,48,88.5,47.9,88.6,47.7z"/>
	<path class="st0" d="M133.9,105.9c0.7,11.5-12,20.1-21.5,17.8c-5.8-1.4-8.4-5-8.3-11.5c0.1-4.5,3.9-8.3,9-9.5
		c3.7-0.9,7.4-0.5,11.1-1.1c1.6-0.3,2.8-0.9,3.7-2.2c1.5-2.1,3.1-2.1,4.5,0C133.8,101.5,134.1,103.8,133.9,105.9z M122.5,110.2
		c3.8,1.3,3.8,4.3,3.3,7.7c2.2-1.5,3.7-3.4,4.7-5.5c1.6-3.6,2.2-7.4,0.5-11.2c-0.2-0.5-0.6-1.9-1.5-0.6c-1.9,2.8-4.8,3-7.8,3.2
		c-3.4,0.2-6.8,0.4-10,1.6c-3.9,1.5-6,5.1-5.2,8.7c0.2-0.3,0.3-0.6,0.4-0.8c1.7-5.5,5.3-7.8,10.9-7.1
		C120.7,106.4,122.5,108,122.5,110.2c-0.8,0-1.6,0-2.4,0c-0.6,0-1.1,0.2-1.4,0.7c-0.2,0.4,0.1,0.8,0.4,1.1c0.5,0.5,1.1,0.5,1.7,0.2
		C121.6,111.7,122,110.9,122.5,110.2z M112.4,119.1c2.5,0.1,4.7-1.7,4.8-4c0.1-2.1-1.9-4.1-4.1-4.2c-2.4-0.1-4.4,2-4.4,4.8
		C108.6,117.7,110.1,119.1,112.4,119.1z"/>
	<path class="st0" d="M65.2,102.7c0.9-2,1.2-4.7,4.2-4.8c0.2,0.2,0.5,0.3,0.7,0.5c2.3,3.6,5.8,3.6,9.5,3.7c4.6,0.1,9.2,0.7,12.7,4.2
		c5.1,5,2.8,15-4,17c-5.9,1.7-11.1,0.5-15.9-3C66.5,115.9,64.2,110,65.2,102.7z M76.8,110.2c0.3,0.9,0.8,1.7,1.8,2.1
		c0.9,0.4,1.5,0,1.8-0.8c0.4-1-0.4-1.2-1.1-1.2C78.4,110.1,77.6,110.2,76.8,110.2c-0.9-1.3,0-2,0.9-2.6c4.2-3.1,10.9-1.7,13.4,3
		c0.6,1.1,1,2.2,1.5,3.6c0.2-5-1.8-7.9-6.4-9.3c-3.1-0.9-6.3-1.1-9.5-1.3c-2.7-0.2-5.5-0.3-7.2-3c-0.7-1.1-1.1-0.4-1.5,0.4
		c-1.1,2.3-1.1,4.7-0.7,7.2c0.6,3.9,2.3,7.2,5.7,9.4c0.1,0.1,0,0.4,0.3,0.1c-0.1,0-0.2-0.1-0.3-0.1c0-1-0.1-2,0-3
		C73.2,112.3,74.7,110.6,76.8,110.2z M86.5,110.5c-2.9,0-4.5,1.7-4.4,4.6c0,2.8,1.5,4.5,4.1,4.4c2.3,0,4.6-2.4,4.5-4.6
		C90.6,112.8,88.4,110.5,86.5,110.5z"/>
	<path class="st0" d="M115.1,129.8c1.7,0.6,0.3,1.2-0.1,1.4c-1.2,0.6-2.4,1.1-3.8,1.7c0.4,0.5,0.8,0.8,1.1,1.3
		c0.7,1.1,0.6,2-0.7,2.7c-2.6,1.4-4.3,0.9-5.6-1.9c-0.5-1.2-1.4-1.2-2.4-1c-2.8,0.5-5.5,0.5-8.3,0c-1.3-0.2-2.3-0.1-2.6,1.6
		c-0.2,1.1-1.1,2-2.5,2.1c-1.5,0.1-3-0.4-3.8-1.6c-1-1.5,0.6-2.2,1.3-3.1c-1.3-0.6-2.6-1.1-3.9-1.7c-0.6-0.3-0.8-0.6-0.1-1
		c1,0.3,2.1,0.7,3.1,0.9c6.7,1.3,13.5,1.1,20.2,0.7C109.9,131.5,112.8,131.6,115.1,129.8z M89.2,135.8c1.5,0.3,1.9-0.6,2.2-1.5
		c0.3-0.8-0.3-1-0.8-1c-1.2,0-2.2,0.7-2.5,1.7C87.7,135.7,88.9,135.6,89.2,135.8z M109.8,135.8c0.4-0.1,1.4-0.1,1.2-0.9
		c-0.3-1-1.3-1.7-2.4-1.7c-0.3,0-1.1,0-0.8,0.8C107.9,134.9,108.1,136.1,109.8,135.8z"/>
	<path class="st4" d="M115.1,129.8c-2.4,1.8-5.3,1.7-7.9,1.9c-6.7,0.4-13.5,0.6-20.2-0.7c-1.1-0.2-2.1-0.6-3.1-0.9
		c2-0.7,4-0.4,6-0.2c7.8,0.6,15.5,1.4,23.3-0.4C113.8,129.3,114.5,129.5,115.1,129.8z"/>
	<path class="st2" d="M83.7,64.1c-0.1-0.1-0.3-0.3-0.4-0.4C83.5,63.8,83.6,63.9,83.7,64.1z"/>
	<path class="st0" d="M96.8,68.5c0.1-0.1,0.1-0.1,0.2-0.2C96.9,68.4,96.9,68.5,96.8,68.5C96.8,68.6,96.8,68.5,96.8,68.5z"/>
	<path class="st5" d="M122.5,110.2c0-2.2-1.8-3.7-4.6-4.1c-5.7-0.7-9.2,1.6-10.9,7.1c-0.1,0.2-0.2,0.5-0.4,0.8
		c-0.9-3.6,1.3-7.2,5.2-8.7c3.2-1.3,6.6-1.4,10-1.6c2.9-0.2,5.8-0.4,7.8-3.2c0.9-1.3,1.2,0.1,1.5,0.6c1.6,3.8,1.1,7.6-0.5,11.2
		c-1,2.2-2.5,4-4.7,5.5C126.3,114.4,126.3,111.4,122.5,110.2L122.5,110.2z"/>
	<path class="st2" d="M112.4,119.1c-2.3-0.1-3.8-1.4-3.8-3.4c0.1-2.7,2-4.9,4.4-4.8c2.2,0.1,4.2,2.1,4.1,4.2
		C117.1,117.4,114.9,119.2,112.4,119.1z M114.3,114.8c-0.3-0.8-0.6-1.8-1.8-1.7c-0.9,0.1-1.5,0.8-1.4,1.7c0.1,0.9,0.6,1.7,1.7,1.7
		C113.7,116.4,114.4,115.9,114.3,114.8z"/>
	<path class="st5" d="M122.5,110.2c-0.5,0.7-0.9,1.5-1.7,1.9c-0.6,0.3-1.2,0.3-1.7-0.2c-0.3-0.3-0.6-0.7-0.4-1.1
		c0.3-0.5,0.8-0.7,1.4-0.7C120.9,110.2,121.7,110.2,122.5,110.2C122.5,110.2,122.5,110.2,122.5,110.2z"/>
	<path class="st5" d="M73.1,117.5c-3.4-2.2-5.1-5.5-5.7-9.4c-0.4-2.4-0.4-4.9,0.7-7.2c0.4-0.7,0.8-1.5,1.5-0.4
		c1.7,2.7,4.5,2.9,7.2,3c3.2,0.2,6.4,0.3,9.5,1.3c4.6,1.4,6.6,4.3,6.4,9.3c-0.6-1.4-1-2.5-1.5-3.6c-2.5-4.7-9.2-6.2-13.4-3
		c-0.9,0.7-1.8,1.4-0.9,2.7l0,0c-2.1,0.5-3.6,2.1-3.7,4.4C73.1,115.5,73.1,116.5,73.1,117.5L73.1,117.5z"/>
	<path class="st2" d="M86.5,110.5c1.9,0,4.1,2.2,4.2,4.4c0.1,2.2-2.2,4.6-4.5,4.6c-2.6,0-4.1-1.6-4.1-4.4
		C82,112.2,83.6,110.6,86.5,110.5z M86.3,116.3c1.1,0,1.5-0.7,1.5-1.6c0.1-1-0.5-1.6-1.4-1.7c-1.1,0-1.6,0.9-1.7,1.8
		C84.6,115.9,85.4,116.2,86.3,116.3z"/>
	<path class="st5" d="M76.8,110.2c0.8,0,1.6-0.1,2.4,0c0.7,0.1,1.5,0.3,1.1,1.2c-0.3,0.8-0.9,1.2-1.8,0.8
		C77.6,111.8,77.1,111.1,76.8,110.2C76.8,110.2,76.8,110.2,76.8,110.2z"/>
	<path class="st5" d="M73.1,117.5c0.1,0,0.2,0.1,0.3,0.1C73.1,117.9,73.2,117.6,73.1,117.5C73.1,117.5,73.1,117.5,73.1,117.5z"/>
	<path class="st5" d="M89.2,135.8c-0.3-0.2-1.5-0.1-1.2-0.9c0.3-1,1.4-1.7,2.5-1.7c0.5,0,1.1,0.3,0.8,1
		C91.1,135.2,90.7,136.1,89.2,135.8z"/>
	<path class="st5" d="M109.8,135.8c-1.7,0.2-1.8-0.9-2.1-1.8c-0.2-0.8,0.5-0.8,0.8-0.8c1.2,0,2.1,0.7,2.4,1.7
		C111.2,135.8,110.1,135.8,109.8,135.8z"/>
	<path class="st5" d="M114.3,114.8c0.1,1.2-0.6,1.6-1.5,1.7c-1,0.1-1.6-0.8-1.7-1.7c-0.1-0.9,0.5-1.6,1.4-1.7
		C113.7,113,114,114,114.3,114.8z"/>
	<path class="st5" d="M86.3,116.3c-0.8-0.1-1.6-0.5-1.5-1.5c0.1-0.9,0.6-1.8,1.7-1.8c0.9,0,1.5,0.7,1.4,1.7
		C87.7,115.6,87.3,116.3,86.3,116.3z"/>
</g>
</svg>
