<?xml version="1.0" encoding="utf-8"?>
<!-- Generator: Adobe Illustrator 27.8.1, SVG Export Plug-In . SVG Version: 6.00 Build 0)  -->
<svg version="1.1" id="Layer_1" xmlns="http://www.w3.org/2000/svg" xmlns:xlink="http://www.w3.org/1999/xlink" x="0px" y="0px"
	 viewBox="0 0 200 200" style="enable-background:new 0 0 200 200;" xml:space="preserve">
<style type="text/css">
	.st0{fill:#8D3D84;}
	.st1{fill:#E396C0;}
	.st2{fill:#C867A7;}
	.st3{fill:#F4CCE0;}
	.st4{fill:#F5E2B7;}
	.st5{fill:#8B3982;}
</style>
<g>
	<path class="st0" d="M92.8,165.8c0,0.4,0.1,0.9,0.1,1.3c0.1,0.8,0.2,1.6,0.2,2.5c0,2.3-0.8,4.3-2.5,5.9c-2,2-4.1,3.8-6.4,5.5
		c-3.1,2.3-6.2,4.4-9.5,6.3c-1.7,1-3.5,1.8-5.5,2.2c-3,0.6-5.8,0.2-8.3-1.8c-1.7-1.3-3.2-2.7-4.4-4.4c-1.5-2.2-2.2-4.7-2-7.3
		c0.2-2.9,0.8-5.8,2-8.5c0.7-1.7,1.4-3.4,2.1-5c0.1-0.3,0.3-0.7,0.4-1.1c-0.2-0.2-0.4-0.4-0.6-0.6c-6.5-4.1-11.1-9.9-15-16.5
		c-2.6-4.5-4.6-9.3-6.5-14.1c-2.9-7.5-4.7-15.3-6-23.1c-1-6.1-1.8-12.3-2.5-18.5c-0.4-3.2-0.6-6.5-0.8-9.7
		c-0.3-4.2-0.4-8.4-0.7-12.5c-0.2-2.7-0.5-5.4-0.7-8.1c-0.3-3-0.6-5.9-0.9-8.9c-0.3-3.4-0.6-6.8-0.9-10.2c-0.1-1.6-0.2-3.3-0.2-5
		c0-3.5,0-7,0.4-10.6c0.4-4.5,2.8-7.4,6.8-9.1c0.8-0.3,1.6-0.6,2.4-0.8c3.3-0.8,6.6-1.7,10-2.2c2-0.3,3.9-0.4,5.9-0.2
		c1.2,0.1,2.4,0.5,3.5,1c0.7,0.4,1.3,0.8,1.8,1.4c1,1.1,1.8,2.3,2.5,3.7c1.2,2.6,2.1,5.3,3.1,8c0.9,2.5,2,4.9,3,7.3
		c2.2,5.7,4.4,11.5,6.7,17.3c0.3,0.7,0.5,1.3,0.8,2.1c0.5-0.2,0.9-0.3,1.3-0.5c5.8-2.9,11.9-4.5,18.3-5.5c5.2-0.8,10.5-1.4,15.8-1.3
		c3.4,0,6.8,0.4,10.1,1.3c0.3,0.1,0.5,0.1,0.9,0.2c0.2-0.4,0.5-0.8,0.6-1.1c3.4-7.1,6.7-14.1,10.1-21.2c1.3-2.8,2.8-5.5,4.3-8.2
		c1.8-3.3,4.6-4.8,8.2-5c1.8-0.1,3.5,0.2,5.3,0.4c4,0.6,7.9,1.7,11.7,3c2.2,0.8,4.4,1.6,6.6,2.5c1.2,0.5,2.4,1.2,3.4,2
		c1.8,1.5,3,3.4,3.3,5.7c0.1,0.4,0.2,0.8,0.1,1.1c-0.2,1.2,0,2.4,0,3.6c-0.1,2.3-0.1,4.6-0.4,6.9c-0.5,4.5-1.2,9.1-1.7,13.6
		c-0.3,3.1-0.6,6.1-0.8,9.2c-0.3,3.7-0.6,7.4-0.8,11c-0.2,2.3-0.3,4.6-0.4,6.9c-0.5,6.8-1.2,13.5-2.2,20.2c-0.9,5.5-1.9,11-3.1,16.4
		c-1.7,7.4-3.7,14.6-6.8,21.6c-0.6,1.5-1.3,2.9-2.1,4.3c-1.2,2.2-2.9,4.1-4.8,5.8c-0.5,0.5-1,1-1.6,1.5c0.2,0.3,0.4,0.7,0.6,1
		c0.5,0.8,1.1,1.5,1.5,2.4c1.4,2.5,1.9,5.1,1.2,8c-0.6,2.3-1.4,4.4-2.6,6.4c-0.6,1-1.4,2-2.2,2.8c-2.7,2.7-5.5,5.4-8.2,8.1
		c-2.9,2.8-6,5.2-9.7,6.8c-3.4,1.5-6.8,1.7-10.3,0.8c-3.1-0.8-5.3-2.8-6.9-5.5c-0.7-1.3-1-2.7-0.8-4.1c0.3-2.1,1-4.1,1.7-6
		c0.3-0.8,0.6-1.6,0.9-2.5c-0.3-0.1-0.4-0.2-0.5-0.1c-3.1,0.7-6.3,0.9-9.5,0.9c-1.8,0-3.5,0.1-5.3,0.1c-1,0-2-0.1-3-0.1
		C93,165.6,92.9,165.7,92.8,165.8 M72.4,54.4c-0.3,0-0.3,0.2-0.2,0.4l1.1,3.3c0,0.2,0,0.3,0.1,0.5c1,2.8,1.2,5.7,1.6,8.6
		c0,0.3,0.2,0.8-0.3,1.1c-0.2-0.3-0.3-0.4-0.5-0.7c-1.2-2.6-2.5-5.2-3.4-8c-0.9-2.8-1.8-5.6-2.9-8.4c-2-5.3-4-10.6-6.1-15.8
		c-0.6-1.5-1.3-2.9-1.9-4.4c-0.1-0.4-0.3-0.8-0.4-1.2c-1.4-3.4-2.7-6.8-4.1-10.3c-0.3-0.8-0.7-1.5-1.1-2.2c-1-1.9-2.6-2.9-4.7-3.1
		c-1.5-0.2-3.1-0.1-4.6,0.1c-2.9,0.4-5.7,1.1-8.5,1.8c-1.3,0.3-2.7,0.6-4,1.1c-2.4,1-4.1,2.7-4.7,5.3c-0.1,0.5-0.2,1.1-0.4,1.6
		c-0.3,0.3-0.3,0.6-0.2,1c-0.1,3.6-0.3,7.1-0.2,10.7c0.1,2.9,0.3,5.7,0.5,8.6c0.2,2.8,0.6,5.6,0.8,8.4c0.3,2.6,0.5,5.3,0.8,7.9
		c0.2,2.7,0.4,5.5,0.6,8.2c0.2,2.9,0.2,5.7,0.4,8.6c0.2,3.1,0.5,6.1,0.8,9.2c0.3,3.4,0.7,6.9,1.1,10.3c0.5,3.9,1.2,7.8,1.8,11.7
		c1.3,7.9,3.4,15.6,6.4,23c0.2,0.4,0.4,0.7,0.6,1.1l0,0c0,0.2,0,0.4,0.1,0.6c0.1,0.1,0.2,0.3,0.2,0.4c1.3,3.1,2.7,6.1,4.4,9
		c2.3,4,5,7.7,8.3,11c0.6,0.6,1.3,1.2,1.9,1.9c1.1,1.2,2.5,1.9,3.8,2.9c0.2,0.1,0.4,0.2,0.6,0.3c0.2-0.2,0.4-0.4,0.5-0.6
		c1.8-2.9,3.6-5.9,5.5-8.8c1.4-2.2,3.1-4.1,5.2-5.7c1.8-1.3,3.6-2.6,5.9-2.9c0.2,0,0.4-0.1,0.6-0.1c1.4,0.2,2.8,0.6,4,1.5
		c2.5,1.7,4.3,4,5.5,6.9c1.4,3.4,2.6,6.8,3.5,10.3c0.2,0.9,0.6,1.8,0.9,2.7c0.2,0.8,0.8,1.2,1.6,1.1c0.2,0,0.3,0,0.5,0
		c2.8,0,5.6,0,8.4,0c0.4,0,0.8,0,1.2-0.1c0.7-0.1,1.4-0.2,2.1-0.2c1.4,0,2.7-0.3,4.1-0.5c0.7-0.1,1.4-0.3,2.1-0.5
		c0.6-0.1,1-0.6,1.3-1.2c1.4-3.3,2.9-6.5,4.7-9.6c1.4-2.5,2.8-4.9,4.5-7.3c2.3-3.3,5.1-5.8,8.6-7.7c1.5-0.8,2.9-0.8,4.5-0.3
		c1.3,0.4,2.4,1.1,3.4,2c1.3,1.3,2.8,2.5,3.8,4.1c0.4,0.5,0.8,1.1,1.2,1.5c0.3,0.4,0.6,0.8,1.3,0.8c0.9-0.9,2-1.9,3-3
		c1.6-1.7,2.8-3.7,3.7-5.8c1.1-2.5,2.1-5.1,3.1-7.6c0.4-1,1-1.9,1-3c0.2-0.5,0.4-0.9,0.5-1.4c0.9-3.5,1.9-6.9,2.7-10.4
		c0.8-3.4,1.4-6.9,2.1-10.3c0.5-2.8,0.9-5.5,1.3-8.3c0.4-2.9,0.9-5.9,1.2-8.8c0.3-2.4,0.5-4.8,0.7-7.2c0.2-3.1,0.4-6.2,0.6-9.4
		c0.1-1.9,0.3-3.7,0.4-5.6c0.1-2.2,0.3-4.5,0.4-6.7c0-0.3,0-0.6,0-0.8c0.3-2.8,0.6-5.6,0.9-8.3c0.3-2.4,0.6-4.8,0.9-7.2
		c0.1-1,0.2-2,0.3-2.9c0.7-3.6,0.8-7.2,0.7-10.8c0-1-0.3-2-0.5-3.1c-0.2-1.1-0.8-1.9-1.6-2.6c-1.1-0.9-2.3-1.7-3.7-2.1
		c-1.1-0.5-2.2-1-3.3-1.4c-3.7-1.4-7.5-2.6-11.4-3.4c-2.3-0.4-4.7-0.9-7-0.8c-2.8,0.1-5,1.2-6.1,3.9c-0.6,1.4-1.3,2.8-2.1,4.1
		c-1.6,2.7-3,5.5-4.4,8.3c-2.7,5.7-5.5,11.4-8.2,17.1c-1.7,3.5-3.2,7.1-4.5,10.8c-0.8,1.6-1.7,3.2-2.5,4.8c0,0.1-0.1,0.2-0.2,0.3
		c-0.1,0.1-0.2,0.1-0.3,0.1c0,0-0.1-0.1-0.1-0.1c0-1.7,0.3-3.4,0.6-5c0.5-2.3,1.4-4.5,2.3-6.7c0.3-0.7,0.7-1.4,0.7-2.1
		c-1.1-0.6-2.7-0.8-6.1-0.9c-0.4-0.1-0.9-0.2-1.3-0.2c-3-0.1-5.9-0.4-8.9-0.1c-1.7,0.2-3.4,0.2-5.1,0.5c-5,0.8-10,1.8-14.8,3.2
		C77.4,52.2,74.8,53.2,72.4,54.4 M129.2,177.7h0.2l0.2,0c1.7-1.1,3.3-2.4,4.7-3.8c2.2-2.2,4.4-4.4,6.5-6.5c0.3-0.3,0.6-0.7,1-0.9
		c1.5-0.9,2.4-2.3,3.2-3.7c1.3-2.1,2-4.5,2.4-7c0-0.3,0-0.7,0-1c-0.6-2.8-2.1-5-4-7.1c0,0-0.1,0-0.1-0.1c-0.1-0.1-0.3-0.2-0.4-0.4
		l0,0c-0.2-0.4-0.3-0.8-0.5-1.2c-0.9-1.2-1.8-2.4-2.8-3.5c-1-1.1-2.2-2.2-3.3-3.2c-1.7-1.5-3.7-1.3-5.3-0.3c-2.8,1.9-5.3,4.1-7.2,7
		c-5,7.8-8.8,16.1-11.6,24.9c-0.3,0.9-0.4,1.9-0.5,2.9c-0.1,0.7-0.1,1.5,0.4,2.2c0.6,1.3,1.7,2.1,2.7,3c0.4,0.3,0.8,0.6,1.3,0.5
		c0.7,0.8,1.7,0.9,2.7,1c3.7,0.5,7.1-0.5,10.2-2.6C129.1,178,129.1,177.9,129.2,177.7L129.2,177.7z M58.4,181c0,0.1,0,0.2,0.1,0.3
		c0.1,0.5,0.4,0.7,0.8,0.8c0.2,0.7,0.6,1.3,1.2,1.8c1.1,0.9,2.1,1.7,3.3,2.5c0.7,0.5,1.6,0.7,2.5,0.7c1.2,0,2.4,0,3.6-0.4
		c0.5-0.2,0.9-0.4,1.3-0.6c0.6,0.1,1.1-0.2,1.5-0.5c2.5-1.4,5-2.7,7.3-4.5c2.4-1.9,5-3.6,7.1-5.8c0.2-0.2,0.4-0.3,0.7-0.5
		c1.9-1.5,2.9-3.4,2.8-5.8c0-1.3-0.3-2.5-0.7-3.7c-0.7-2.3-1.4-4.6-2.2-6.9c-0.7-2.1-1.4-4.2-2.2-6.2c-0.4-1-0.8-2-1.3-3
		c-0.9-1.9-2.3-3.3-4-4.5c-1.4-0.9-2.9-1.1-4.4-0.2c-0.6,0.4-1.2,0.7-1.9,1c-0.9,0.5-1.8,1.1-2.5,1.8c-0.9,0.9-1.7,1.9-2.4,2.9
		c-1.4,2-2.6,4.2-4,6.3c-2.7,4-4.6,8.4-6.3,12.9c-1,2.5-1.5,5.2-1.5,7.9C57.2,178.5,57.4,179.9,58.4,181L58.4,181z"/>
	<path class="st1" d="M92.8,165.8c0.1-0.1,0.2-0.1,0.3-0.2C93,165.6,92.9,165.7,92.8,165.8"/>
	<path class="st1" d="M110.1,48c3.4,0.1,5,0.3,6.1,0.9c-0.1,0.8-0.5,1.4-0.7,2.1c-0.9,2.2-1.8,4.4-2.3,6.7c-0.4,1.7-0.6,3.3-0.6,5
		c0,0,0.1,0.1,0.1,0.1c0.1,0,0.2,0,0.3-0.1c0.1-0.1,0.1-0.2,0.2-0.3c0.8-1.6,1.7-3.2,2.5-4.8c0.5,0.1,1-0.1,1.2-0.6
		c0.4-0.9,0.9-1.9,1.3-2.8c1.7-3.7,3.3-7.4,5.1-11.1c2-4.1,4.1-8.1,6.2-12.2c0.4-0.7,0.9-1.4,1.3-2.1c0.8,0.6,1.7,0.9,2.7,1
		c1.8,0.2,3.5,1,4.9,2.1c2,1.4,3.8,3,5.8,4.3c2.5,1.6,5.2,2.2,8.1,2.5c1.4,0.1,2.8-0.2,4.2-0.5c1.7-0.4,3.3-0.8,5-1.1
		c0.5-0.1,1-0.1,1.5,0c1.6,0.4,3.2,0.2,4.8,0.3c-0.1,1-0.2,2-0.3,2.9c-0.3,2.4-0.7,4.8-0.9,7.2c-0.3,2.8-0.6,5.6-0.9,8.4
		c0,0.3,0,0.6,0,0.8c-0.1,2.2-0.3,4.5-0.4,6.7c-0.1,1.9-0.2,3.7-0.4,5.6c-0.2,3.1-0.4,6.3-0.6,9.4c-0.2,2.4-0.4,4.8-0.7,7.2
		c-0.3,2.9-0.8,5.9-1.2,8.8c-0.4,2.8-0.8,5.5-1.3,8.3c-0.6,3.5-1.3,6.9-2.1,10.3c-0.8,3.5-1.8,6.9-2.7,10.4
		c-0.1,0.5-0.3,0.9-0.5,1.4c-1.2-0.3-1.7-1.4-2.1-2.4c-0.7-1.6-0.9-3.4-1-5.1c-0.1-2.2,0.1-4.5-0.3-6.7c-0.2-1.1-0.5-2-1.3-2.7
		c-0.3-0.3-0.6-0.6-0.9-0.9c-0.7-0.8-1.6-1.3-2.7-1.4c-0.6,0-1.2-0.3-1.8-0.4c-0.7-0.2-1.5-0.3-2.3-0.5c-0.9-0.2-1.6,0.1-2.1,0.9
		c-0.2,0.3-0.3,0.6-0.1,0.9c0.4,0.7,0.7,1.4,1.2,2c1.3,1.6,1.9,3.4,1.7,5.5c-0.1,1.1-0.7,2-1.6,2.5c-0.5,0.3-1.1,0.4-1.7,0.2
		c-1.6-0.5-2.7-1.6-3.2-3.1c-0.4-1-0.5-2.1-0.8-3.2c-0.1-0.5-0.2-1-0.4-1.4c-0.5-1.2-1.4-1.6-2.6-1.2c-0.7,0.2-1.5,0.4-2.2,0.6
		c-0.4,0.1-0.8,0.3-1.3,0.4c0.2,0.9,0.3,1.8,0.8,2.5c0.6,1,1,2.1,1.6,3.1c0.9,1.8,1.5,3.6,2,5.6c0.4,1.6,0.2,3.1-0.5,4.5
		c-1.5,3.2-5.2,4.1-8.2,1.2c-1-1-1.4-2.4-1.3-3.8c0.2-2.1,0.7-4.2,1.1-6.3c0.2-0.9,0.2-1.8,0-2.8c-0.1-0.2-0.1-0.4-0.1-0.6
		c-0.1-1.6-0.7-3-1.4-4.4c-0.4-0.9-1.1-1.2-2-1.2c-1.5-0.1-2.9,0.2-4.3,0.7c-1.1,0.1-2.3,0.2-3.4,0.2c-2.9,0-5.7,0.5-8.5,0.8
		c-2.6,0.3-5.1,0.6-7.7,0.6c-1.9,0-3.8,0-5.8,0c-0.7,0-1.4-0.1-2.1-0.2c-2.5-0.3-4.9-0.6-7.4-0.5c-0.1,0-0.3,0.1-0.6,0.1
		c0.6,0.5,1.2,0.7,1.8,0.9c0,0.4-0.2,0.6-0.5,0.8c-1.3,0.6-1.8,1.8-2.3,2.9c-0.2,0.6-0.3,1.2-0.5,1.7c-0.4,1-0.8,2-1.3,3
		c-0.3,0.7-0.9,1.1-1.5,1.5c-1.8,1.2-4.9,0.7-6.3-1.4c-0.7-1-1.2-2.1-1.4-3.3c-0.2-1.2-0.3-2.5-0.4-3.8c-0.1-2.1-1.5-3.3-3.6-3.1
		c-0.6,0-1,0.3-1.1,0.8c-0.2,0.9-0.5,1.9-0.5,2.9c0,1.1,0.2,2.3,0.5,3.4c0.5,2,1.1,3.9,1.7,5.8c0.6,2,0.8,4,0.7,6
		c0,0.5-0.2,1-0.3,1.4c-0.4,1-1,1.8-1.9,2.4c-0.8,0.6-1.7,0.7-2.6,0.7c-0.4,0-0.8,0-1.2,0c-0.6,0-1.2-0.1-1.7-0.4
		c-1.3-0.6-2.2-1.6-2.9-2.8c-1.1-1.7-1.4-3.7-1.5-5.7c-0.1-1.3,0.1-2.6,0.2-3.9c0.2-1.7,0.2-3.5,0-5.3c-0.1-1.6-0.8-3-2-4.2
		c-1.9-2-4.6-0.9-5.4,0.8c-0.2,0.5-0.4,1-0.6,1.5c-0.4,1.1-0.7,2.2-1.1,3.3c-0.9,2.3-3.1,3.7-5.2,3.5c-0.7,0-1.4-0.1-2.1-0.3
		c-0.5-0.2-1.1-0.3-1.6-0.4c-0.2-0.9-0.4-1.7-0.5-2.6c-0.3-2.1-0.5-4.1-0.7-6.2c-0.1-1-0.2-2.1-0.4-3.1c-0.2-1.2-0.4-2.5-0.6-3.7
		c-0.3-2.1-0.5-4.2-0.7-6.4c-0.3-1.9-0.6-3.8-0.6-5.7c0-0.2,0-0.4-0.1-0.7c-0.4-1.9-0.3-3.9-0.6-5.9c-0.2-1.9-0.3-3.8-0.4-5.7
		c0-0.1,0-0.2,0-0.3c-0.2-1.8-0.4-3.6-0.6-5.4c-0.2-2-0.2-4-0.4-6.1c-0.1-1.1-0.2-2.3-0.4-3.4c-0.2-1.6-0.4-3.3-0.6-4.9
		c-0.2-2.5-0.5-4.9-0.4-7.4c0-0.2,0-0.4-0.1-0.7c-0.1-0.8-0.2-1.5-0.2-2.3c0-1.4,0.1-2.9-0.1-4.3c-0.3-1.6-0.2-3.3-0.2-4.9
		c1.6,0.5,3.3,0.9,4.8,1.6c1.5,0.6,2.9,1.4,4.5,1.6c0.4,0.1,0.9,0.2,1.3,0.1c1.7-0.3,3.4-0.8,4.9-1.8c1.4-1,2.8-2.2,4.1-3.3
		c1.1-1,2.3-1.8,3.9-2.1c0.6-0.1,1.2-0.3,1.8-0.3c1.8-0.1,3.2-0.9,4.3-2.4c0.6,1.5,1.3,2.9,1.9,4.4c2.1,5.3,4.1,10.5,6.1,15.8
		c1,2.8,1.9,5.6,2.9,8.4c0.9,2.8,2.2,5.4,3.4,8c0.1,0.2,0.3,0.4,0.5,0.7c0.5-0.3,0.3-0.7,0.3-1.1c-0.4-2.9-0.6-5.8-1.6-8.6
		c-0.1-0.2,0-0.3-0.1-0.5c2.7-1.2,5.4-2.5,8.2-3.5c2.5-1,5-1.7,7.5-2.5c2.9-0.9,5.8-1.5,8.8-2.1c2.9-0.6,5.9-1,9-1.1
		c1,0,2.1-0.3,3.1-0.4C109.9,48.3,110,48.1,110.1,48 M137.2,82.5c0-0.8,0-1.5-0.1-2.3c-0.1-0.5-0.2-1.1-0.4-1.6
		c-0.7-2.2-1.7-4.3-3.2-6.1c-0.4-0.5-0.8-1-1.3-1.5c-2.8-2.4-6.1-3.7-9.8-3.7c-1.7,0-3.4,0.1-5.1,0.3c-1.3,0.2-2.6,0.6-3.8,1.1
		c-2.7,1.1-4.6,3.1-6.1,5.6c-1.5,2.6-2.2,5.5-2.8,8.4c-0.4,2.3-0.4,4.6,0,6.9c0.9,4.8,5.2,9.6,9.5,10.5c0.3,0.1,0.6,0.2,0.9,0.3
		c2.3,0.8,4.7,1,7.1,0.5c3.2-0.6,5.9-1.9,8.2-4.3c1.4-1.5,2.7-3.2,3.9-4.9C136.2,89,137.3,85.9,137.2,82.5 M63.4,88.1
		c0,2.4,0.3,3.7,1.1,6c1.6,4.3,4.4,7.4,8.8,9c1.9,0.7,3.8,1.1,5.7,1.4c2.3,0.3,4.4,0,6.5-0.8c3.1-1.2,5.8-3.1,7.8-5.9
		c1.7-2.4,2.9-5.1,3.2-8c0.4-4-0.5-7.8-2.7-11.2c-2.7-4.3-6.6-6.5-11.7-6.6c-2.6,0-5.1,0.6-7.6,1.3C68.3,74.7,63.1,81.4,63.4,88.1"
		/>
	<path class="st2" d="M117.9,107.3c1.4-0.5,2.8-0.9,4.3-0.7c0.9,0.1,1.6,0.4,2,1.2c0.6,1.4,1.3,2.8,1.4,4.4c0,0.2,0.1,0.4,0.1,0.6
		c0.3,0.9,0.2,1.8,0,2.8c-0.4,2.1-0.9,4.2-1.1,6.3c-0.1,1.4,0.3,2.7,1.3,3.8c3,2.9,6.7,2,8.2-1.2c0.6-1.4,0.8-2.9,0.5-4.5
		c-0.5-1.9-1.1-3.8-2-5.6c-0.5-1-1-2.1-1.6-3.1c-0.4-0.8-0.6-1.6-0.8-2.6c0.5-0.2,0.9-0.3,1.3-0.4c0.7-0.2,1.5-0.3,2.2-0.6
		c1.3-0.4,2.2,0,2.6,1.2c0.2,0.5,0.2,1,0.4,1.4c0.3,1.1,0.4,2.2,0.8,3.2c0.5,1.5,1.6,2.6,3.2,3.1c0.6,0.2,1.2,0.1,1.7-0.2
		c0.9-0.6,1.5-1.4,1.6-2.5c0.2-2.1-0.4-3.9-1.7-5.5c-0.5-0.6-0.8-1.3-1.2-2c-0.2-0.3-0.1-0.6,0.1-0.9c0.5-0.7,1.3-1.1,2.2-0.9
		c0.8,0.1,1.5,0.3,2.2,0.5c0.6,0.1,1.2,0.4,1.8,0.4c1.1,0,2,0.6,2.7,1.4c0.3,0.3,0.6,0.6,0.9,0.9c0.8,0.7,1.1,1.7,1.3,2.8
		c0.3,2.2,0.2,4.5,0.3,6.7c0.1,1.8,0.3,3.5,1,5.1c0.4,1,0.8,2.1,2.1,2.4c0,1.1-0.6,2-1,3c-1,2.6-2,5.1-3.1,7.6
		c-0.9,2.1-2.1,4.1-3.7,5.8c-1,1-2,2-3,3c-0.7,0-1-0.5-1.3-0.8c-0.4-0.5-0.9-1-1.2-1.5c-1.1-1.6-2.5-2.8-3.8-4.1
		c-1-0.9-2.1-1.6-3.3-2c-1.5-0.5-3-0.5-4.5,0.3c-3.5,1.9-6.4,4.5-8.6,7.7c-1.7,2.3-3.1,4.8-4.5,7.3c-1.8,3.1-3.3,6.4-4.7,9.6
		c-0.3,0.6-0.6,1-1.3,1.2c-0.7,0.2-1.4,0.4-2.1,0.5c-1.4,0.2-2.7,0.5-4.1,0.5c-0.7,0-1.4,0.1-2.1,0.2c-0.4,0-0.8,0.1-1.2,0.1
		c-2.8,0-5.6,0-8.4,0c-0.2,0-0.3,0-0.5,0c-0.8,0-1.4-0.3-1.6-1.1c-0.3-0.9-0.6-1.8-0.9-2.7c-0.9-3.5-2.2-6.9-3.6-10.3
		c-1.1-2.8-3-5.1-5.5-6.8c-1.2-0.8-2.6-1.2-4-1.5c-0.2,0-0.4,0-0.6,0.1c-2.3,0.3-4.1,1.6-5.9,2.9c-2.1,1.5-3.8,3.5-5.2,5.7
		c-1.9,2.9-3.6,5.9-5.5,8.8c-0.1,0.2-0.3,0.4-0.5,0.6c-0.3-0.1-0.5-0.1-0.6-0.3c-1.3-0.9-2.7-1.7-3.8-2.9c-0.6-0.6-1.3-1.2-1.9-1.9
		c-3.3-3.3-6-7-8.3-11c-1.7-2.9-3.1-6-4.4-9c-0.1-0.1-0.2-0.3-0.2-0.4c0.3-0.2,0.3-0.5-0.1-0.6l0,0c-0.1-0.5-0.1-1.1-0.2-1.6
		c-0.3-1.3-0.7-2.5-1-3.8c-0.8-3.4-1.5-6.8-1.9-10.3c0.5,0.1,1.1,0.3,1.6,0.4c0.7,0.2,1.4,0.3,2.1,0.3c2.1,0.1,4.4-1.3,5.2-3.5
		c0.4-1.1,0.7-2.2,1.1-3.3c0.2-0.5,0.3-1,0.6-1.5c0.8-1.7,3.5-2.8,5.4-0.8c1.1,1.2,1.9,2.6,2,4.2c0.1,1.8,0.2,3.5,0,5.3
		c-0.2,1.3-0.3,2.6-0.2,3.9c0.1,2,0.4,3.9,1.5,5.7c0.7,1.2,1.7,2.2,2.9,2.8c0.6,0.3,1.1,0.5,1.7,0.4c0.4,0,0.8,0,1.2,0
		c1,0.1,1.8-0.1,2.6-0.7c0.9-0.7,1.5-1.5,1.9-2.4c0.2-0.4,0.3-0.9,0.3-1.4c0.1-2-0.1-4.1-0.7-6c-0.6-1.9-1.2-3.9-1.7-5.8
		c-0.3-1.1-0.5-2.3-0.5-3.4c0-1,0.3-1.9,0.5-2.9c0.1-0.5,0.6-0.8,1.1-0.8c2.1-0.2,3.4,1,3.6,3.1c0.1,1.3,0.2,2.5,0.4,3.8
		c0.2,1.2,0.8,2.3,1.4,3.3c1.5,2.1,4.5,2.6,6.3,1.4c0.6-0.4,1.2-0.8,1.5-1.5c0.4-1,0.9-2,1.3-3c0.2-0.6,0.3-1.2,0.5-1.7
		c0.5-1.2,1-2.4,2.3-2.9c0.3-0.1,0.6-0.4,0.5-0.8c0.9,0.3,1.7,0.7,2.6,1c0.5,0.2,0.6,0.5,0.7,1c0.3,2.1,0.6,4.2,1,6.3
		c0.2,1.1,0.7,2.2,1.1,3.3c0.3,0.7,0.8,1.2,1.5,1.5c0.6,0.2,1.1,0.5,1.7,0.7c0.2,0.1,0.6,0.1,0.8,0c1.4-0.3,2.6-0.9,3.4-2.1
		c1.6-2.2,3.1-4.6,4.5-6.9c0.2-0.3,0.4-0.5,0.6-0.8c0.2,0.3,0.4,0.5,0.6,0.7c0.7,1.3,1.4,2.6,2.1,3.9c0.5,0.9,1.1,1.8,1.7,2.6
		c0.9,1.2,2,1.9,3.5,1.7c0.4,0,0.8,0,1.2,0c0.8,0,1.5-0.3,2.1-0.8c1-0.8,1.5-1.9,1.6-3.2c0.1-2.4,0.5-4.7,0.4-7.1
		c0-0.5-0.1-1.1-0.2-1.6c-0.1-0.7,0-0.9,0.7-1.2C116.5,108,117.3,107.9,117.9,107.3 M115.3,134.1c0.1-1.6-0.7-2.8-1.8-3.9
		c-1-1-3.3-1-4.3-0.1c-1.6,1.4-2.5,3.2-2.2,5.4c0.3,2.4,2.8,4,5.1,3.2C113.5,138.1,115.5,135.9,115.3,134.1 M52.8,130.8
		c0-1.8-1.4-3-3.2-2.7c-0.4,0.1-0.7,0.2-1.1,0.3c-1.2,0.5-2,2-1.7,3.2c0.4,1.4,1.5,2.3,3,2.3C51.6,134,52.9,132.5,52.8,130.8
		 M104.9,143.6c0.9,0,1.8-0.9,1.8-1.8c0-0.8-0.8-1.8-1.6-1.8c-1,0-2,0.9-2,1.8C103.2,142.6,104.1,143.6,104.9,143.6 M114.1,140.5
		c-0.4,0-1,0.5-1,1.1c-0.1,0.6,0.3,1.1,0.9,1.1c0.6,0,1.3-0.5,1.3-1C115.2,141.1,114.6,140.5,114.1,140.5 M49.6,138.4
		c-0.2-0.4-0.3-0.7-0.6-1c-0.3-0.4-0.7-0.3-1.2,0c-0.3,0.2-0.5,0.7-0.3,1c0.1,0.2,0.3,0.4,0.5,0.6c0.3,0.2,0.6,0.4,0.9,0.1
		C49.2,139,49.4,138.7,49.6,138.4 M53,136.1c0-0.4-0.5-0.9-1-1c-0.4,0-1,0.4-1.1,0.8c-0.1,0.4,0.5,1.1,1.1,1.1
		C52.4,137,53,136.5,53,136.1"/>
	<path class="st3" d="M167.8,37.5c-1.6,0-3.2,0.2-4.8-0.3c-0.5-0.1-1-0.1-1.5,0c-1.7,0.3-3.3,0.7-5,1.1c-1.4,0.3-2.8,0.6-4.2,0.5
		c-2.9-0.2-5.6-0.9-8.1-2.5c-2-1.3-3.9-2.9-5.8-4.3c-1.5-1.1-3.1-1.9-4.9-2.1c-1-0.1-1.9-0.4-2.7-1c1.6-3.1,3.9-5.7,6.6-8
		c0.9-0.8,2-1.5,3.1-2.1c1.9-1.2,4.1-1.5,6.3-1.7c2.5-0.3,4.9,0,7.4,0.4c1.8,0.3,3.6,0.8,5.4,1.2c1,0.3,2,0.4,3.1,0.3
		c1.4,0.4,2.6,1.2,3.7,2.1c0.8,0.7,1.4,1.5,1.6,2.6c0.2,1,0.5,2,0.5,3.1C168.7,30.3,168.5,33.9,167.8,37.5"/>
	<path class="st2" d="M87.7,158.2c0.7,2.3,1.5,4.6,2.2,6.9c0.4,1.2,0.6,2.4,0.6,3.7c0.1,2.5-0.9,4.3-2.8,5.8
		c-0.2,0.2-0.5,0.3-0.7,0.5c-2.1,2.3-4.7,3.9-7.1,5.8c-2.3,1.8-4.8,3.1-7.3,4.5c-0.5,0.3-0.9,0.6-1.5,0.5c-0.4-0.1-0.7-0.3-1.1-0.3
		c-1.7-0.2-3-1.2-4.3-2.2c-0.2-0.2-0.4-0.4-0.5-0.6c-0.3-0.9-0.7-1.8-0.7-2.7c-0.2-1.8,0-3.6,0.4-5.4c0.8-3.2,2.2-6.2,3.8-9.1
		c1.1-1.9,2-3.9,2.9-5.9c0.1-0.2,0.1-0.6,0.1-0.8c0-0.1-0.3-0.3-0.5-0.3c-0.3,0-0.7,0.2-0.9,0.3c-0.7,0.6-1.5,1.1-2.2,1.8
		c-1.7,1.6-3,3.6-4.3,5.6c-1.9,2.9-3.3,5.9-4.1,9.3c-0.5,2-0.8,4-0.3,6c0,0.1,0,0.3-0.1,0.5c-0.4-0.1-0.8-0.3-0.8-0.8
		c0,0,0.1-0.1,0.1-0.1c0-0.1-0.1-0.1-0.1-0.2l0,0c0.1-1.3,0.2-2.5,0.3-3.8c0.3-2.1,0.5-4.1,0.9-6.2c0.4-2.2,1.3-4.2,2.5-6.1
		c2.3-3.6,4.3-7.4,7.3-10.6c1.6-1.7,3.3-3.2,5.4-4.3c1.7-0.9,3.4-1,5.2-0.4c1.7,0.5,2.9,1.6,3.7,3.1c0.4,0.7,0.7,1.5,1.1,2.2
		c0.5,0.9,1.1,1.8,1.6,2.7C86.8,158.2,87.2,158.4,87.7,158.2 M75.6,168.4c0.1,0.2,0.1,0.5,0.1,0.7c0.6,1.1,2.5,1.1,3.4-0.1
		c0.9-1.3,1-2.8,0.3-4.2c-0.7-1.3-2.5-2.5-4.3-1.2c-0.7,0.4-1.2,0.9-1.6,1.6c-1.1,2-1.1,4.1-0.2,6.2c1,2.3,3.5,3.2,5.6,2.1
		c1.3-0.7,2.4-1.7,3.2-3c1-1.7,1.2-3.5,1.2-5.4c0-2.7-1.1-4.8-3.2-6.4c-1.6-1.2-4.3-1.7-6.5,0.3c-0.6,0.5-1,1.2-1.1,2
		c0,0.1,0.2,0.4,0.3,0.5c0.1,0.1,0.3,0,0.4-0.1c0.2-0.2,0.4-0.5,0.6-0.8c1.1-1.2,3.1-1.6,4.5-0.8c1.3,0.7,2.4,1.8,2.8,3.3
		c0.6,1.7,0.6,3.5,0,5.2c-0.5,1.4-1.4,2.6-2.8,3.4c-1.2,0.7-2.9,0.5-3.5-1.2c-0.4-1.3-0.4-2.5,0.1-3.7c0.2-0.5,0.6-0.9,1-1.2
		c0.3-0.3,0.8-0.3,1.2,0c0.5,0.3,0.7,0.8,0.6,1.4c-0.1,0.5-0.3,0.9-0.8,1.1C76.6,168,76.2,168.2,75.6,168.4"/>
	<path class="st2" d="M143.2,147.6c0,0,0.1,0,0.1,0.1c1.9,2,3.4,4.3,4,7.1c0.1,0.3,0.1,0.7,0,1c-0.4,2.5-1.1,4.8-2.4,7
		c-0.9,1.4-1.7,2.8-3.2,3.7c-0.4,0.2-0.6,0.6-1,0.9c-2.2,2.2-4.4,4.3-6.5,6.5c-1.4,1.5-3,2.7-4.7,3.8c-0.1-0.2-0.2-0.1-0.3,0l0,0
		c-0.4,0-0.9,0.1-1.3,0.2c-1.1,0.2-2.1,0.5-3.1,0.8c-1-0.5-1.9-1.1-2.7-1.8c-0.7-0.6-1.1-1.3-1.1-2.1c-0.1-1.6-0.2-3.3,0-4.9
		c0.4-2.3,1.1-4.6,2.2-6.7c0.7-1.4,1.5-2.8,2.3-4.2c0.6-1,1.1-2.1,2-2.8c0.4,0.1,0.6,0,0.9-0.3c1.2-1.4,2.7-2,4.4-2.4
		c1.1-0.3,2.1,0,3,0.5c1,0.5,1.5,1.4,1.6,2.5c0.3,2.9-1.7,5.9-4.1,7.2c-0.5,0.2-1.1,0.2-1.6,0.2c-0.6,0-1.2-0.5-1.3-1.1
		c-0.3-1.6,0-3.1,1.4-4.2c0.2-0.1,0.4-0.3,0.6-0.3c0.3-0.1,0.7,0,0.8,0.3c0.1,0.2,0.2,0.6,0,0.8c-0.3,0.4-0.6,0.7-1,1.1
		c-0.2,0.2-0.6,0.4-0.4,0.9c0.6,0.5,1.3,0.6,2.1,0.3c0.7-0.2,1.2-0.8,1.4-1.5c0.1-0.3,0.2-0.5,0.2-0.8c0.2-1.2-0.8-2.8-2-3.1
		c-1.2-0.2-2.3-0.1-3.2,0.8c-1.8,1.6-2.2,3.7-1.8,6c0.2,1.1,0.8,1.9,1.8,2.4c1.2,0.5,2.4,0.5,3.5,0c1.3-0.5,2.3-1.5,3.2-2.6
		c1.8-2,2.6-4.4,2.3-7.2c-0.2-2.1-2.2-4-4.3-4.2c-2.1-0.2-4,0.2-5.8,1.4c-0.4,0.2-0.7,0.4-1.1,0.7c-0.6-0.2-1.1,0-1.5,0.4
		c-0.4,0.3-0.8,0.6-1.1,1c-0.7,0.9-1.4,1.8-2.1,2.7c-1.5,2-2.9,4.1-4.1,6.3c-1.6,2.8-2.9,5.7-3.6,8.8c-0.5,2-0.7,4,0.1,6
		c0.1,0.2,0.1,0.5,0.1,0.8c-0.5,0-1-0.2-1.3-0.5c-1-0.9-2.1-1.8-2.7-3c0.6-0.7,0.7-1.6,1-2.4c0.6-2,1.2-3.9,2.2-5.7
		c1.2-2.3,2.4-4.6,3.6-6.9c2.3-4.4,4.8-8.6,8-12.4c1.3-1.6,2.9-2.9,4.6-4c0.4-0.2,0.8-0.4,1.2-0.5c1.3,0,2.7-0.1,3.9,0.1
		c1.6,0.3,3.2,0.7,4.4,2.1c0.5,0.5,1.1,0.9,1.9,0.8l0,0C142.9,147.4,143,147.5,143.2,147.6"/>
	<path class="st3" d="M59.9,30.9c-1.1,1.5-2.4,2.3-4.3,2.4c-0.6,0-1.2,0.2-1.8,0.3c-1.5,0.3-2.7,1-3.9,2c-1.3,1.2-2.7,2.3-4.1,3.3
		c-1.4,1-3.1,1.5-4.9,1.8c-0.4,0.1-0.9,0-1.3-0.1c-1.6-0.2-3-1-4.5-1.6c-1.6-0.6-3.2-1.1-4.8-1.5C30.2,37,30,36.4,30,35.9
		c0-2-0.3-4.1,0.2-6.1c0.2-0.8,0.3-1.6,0.4-2.4c0.2-1.8,0.7-3.5,1.6-5.1c1.3-2.1,3.1-3.5,5.4-4.4c2.9-1.1,5.9-1.8,8.9-2.5
		c1.1-0.3,2.1-0.7,3-1.3c2.1,0.1,3.7,1.1,4.7,3.1c0.4,0.7,0.8,1.5,1.1,2.2c1.4,3.4,2.7,6.8,4.1,10.3C59.6,30,59.7,30.5,59.9,30.9"/>
	<path class="st4" d="M49.5,14.1c-0.9,0.6-1.9,1.1-3,1.3c-3,0.7-6,1.4-8.9,2.5c-2.3,0.9-4.1,2.2-5.4,4.4c-1,1.6-1.5,3.3-1.6,5.1
		c-0.1,0.8-0.2,1.6-0.4,2.4c-0.5,2-0.2,4-0.2,6.1c0,0.5,0.2,1.1,0.3,1.6c0,1.6,0,3.3,0.2,4.9c0.2,1.4,0,2.9,0.1,4.3
		c0,0.8,0.1,1.5,0.2,2.3c0,0.2,0.1,0.4,0.1,0.7c-0.1,2.5,0.2,4.9,0.4,7.4c0.1,1.6,0.4,3.3,0.6,4.9c0.1,1.1,0.3,2.3,0.4,3.4
		c0.1,2,0.2,4.1,0.4,6.1c0.1,1.8,0.4,3.6,0.6,5.4c0,0.1,0,0.2,0,0.3c0.1,1.9,0.2,3.8,0.4,5.7c0.2,2,0.2,3.9,0.6,5.9
		c0,0.2,0,0.4,0.1,0.7c0,1.9,0.4,3.8,0.6,5.7c0.3,2.1,0.5,4.2,0.7,6.4c0.2,1.2,0.4,2.5,0.6,3.7c0.1,1,0.3,2.1,0.4,3.1
		c0.2,2.1,0.4,4.1,0.7,6.2c0.1,0.9,0.4,1.7,0.5,2.6c0.3,3.5,1,6.9,1.9,10.3c0.3,1.3,0.7,2.5,1,3.8c0.1,0.5,0.1,1.1,0.2,1.6
		c-0.2-0.4-0.5-0.7-0.6-1.1c-3-7.4-5.1-15.1-6.4-23c-0.6-3.9-1.3-7.8-1.8-11.7c-0.5-3.4-0.8-6.9-1.1-10.3c-0.3-3.1-0.6-6.1-0.8-9.2
		c-0.2-2.9-0.3-5.7-0.4-8.6c-0.2-2.7-0.4-5.5-0.6-8.2c-0.2-2.6-0.5-5.3-0.8-7.9c-0.3-2.8-0.6-5.6-0.8-8.4c-0.2-2.9-0.4-5.7-0.5-8.6
		c-0.2-3.6,0-7.2,0.2-10.7c0.1-0.3,0.1-0.7,0.2-1c0.1-0.5,0.2-1.1,0.4-1.6c0.6-2.6,2.3-4.3,4.7-5.3c1.3-0.5,2.6-0.8,4-1.1
		c2.8-0.7,5.7-1.4,8.5-1.8C46.4,14,48,13.9,49.5,14.1"/>
	<path class="st4" d="M142.8,147.3c-0.8,0.1-1.4-0.3-1.9-0.8c-1.2-1.4-2.7-1.8-4.4-2.1c-1.3-0.2-2.6-0.1-3.9-0.1
		c-0.4,0-0.9,0.2-1.2,0.5c-1.7,1.1-3.3,2.4-4.6,4c-3.2,3.8-5.7,8-8,12.4c-1.2,2.3-2.3,4.6-3.6,6.9c-1,1.8-1.6,3.7-2.2,5.7
		c-0.2,0.8-0.3,1.7-1,2.4c-0.5-0.7-0.5-1.5-0.4-2.2c0.1-1,0.2-2,0.5-2.9c2.8-8.8,6.6-17.1,11.6-24.9c1.9-2.9,4.3-5.1,7.2-7
		c1.6-1.1,3.6-1.2,5.3,0.3c1.1,1,2.3,2.1,3.3,3.2c1,1.1,1.9,2.3,2.8,3.5C142.5,146.4,142.6,146.9,142.8,147.3"/>
	<path class="st4" d="M162.7,19c-1,0.1-2.1,0-3.1-0.3c-1.8-0.4-3.6-0.9-5.4-1.2c-2.4-0.4-4.9-0.7-7.4-0.4c-2.2,0.2-4.4,0.6-6.3,1.7
		c-1.1,0.7-2.2,1.3-3.1,2.1c-2.6,2.3-4.9,4.9-6.6,8c-0.4,0.7-1,1.3-1.3,2.1c-2.1,4-4.2,8.1-6.2,12.2c-1.8,3.6-3.4,7.4-5.1,11.1
		c-0.4,0.9-0.9,1.9-1.3,2.8c-0.2,0.5-0.7,0.7-1.2,0.6c1.3-3.7,2.8-7.3,4.5-10.8c2.7-5.7,5.5-11.4,8.2-17.1c1.3-2.8,2.8-5.6,4.4-8.3
		c0.8-1.3,1.5-2.7,2.1-4.1c1.1-2.8,3.3-3.8,6.1-3.9c2.4-0.1,4.7,0.4,7,0.8c3.9,0.7,7.6,2,11.4,3.4C160.5,18,161.6,18.5,162.7,19"/>
	<path class="st4" d="M87.7,158.2c-0.6,0.2-1,0-1.3-0.5c-0.5-0.9-1.1-1.8-1.6-2.7c-0.4-0.7-0.7-1.5-1.1-2.2c-0.9-1.5-2-2.5-3.7-3.1
		c-1.8-0.6-3.5-0.5-5.2,0.4c-2.1,1.1-3.8,2.6-5.4,4.3c-3,3.1-5,6.9-7.3,10.6c-1.2,1.9-2.1,3.9-2.5,6.1c-0.4,2-0.6,4.1-0.9,6.2
		c-0.2,1.2-0.2,2.5-0.3,3.8c-1-1.1-1.3-2.5-1.3-4c0-2.7,0.5-5.4,1.5-7.9c1.7-4.5,3.6-8.9,6.3-12.9c1.4-2.1,2.6-4.2,4-6.3
		c0.7-1,1.6-2,2.4-2.9c0.7-0.8,1.6-1.4,2.5-1.8c0.6-0.3,1.3-0.7,1.9-1c1.5-0.9,2.9-0.7,4.4,0.2c1.7,1.2,3.1,2.6,4.1,4.5
		c0.5,1,0.9,2,1.3,3C86.3,154,87,156.1,87.7,158.2"/>
	<path class="st1" d="M59.3,182.1c0-0.2,0.1-0.3,0.1-0.5c-0.6-2-0.2-4,0.3-6c0.8-3.4,2.2-6.4,4.1-9.3c1.3-2,2.6-3.9,4.3-5.6
		c0.7-0.6,1.4-1.2,2.2-1.8c0.3-0.2,0.6-0.3,0.9-0.3c0.1,0,0.4,0.2,0.5,0.3c0.1,0.2,0,0.6-0.1,0.8c-0.8,2-1.8,4-2.9,5.9
		c-1.6,2.9-3,5.9-3.8,9.1c-0.4,1.8-0.6,3.6-0.4,5.4c0.1,0.9,0.5,1.8,0.7,2.7c0.1,0.2,0.3,0.5,0.5,0.6c1.3,1,2.6,2,4.3,2.2
		c0.4,0.1,0.7,0.2,1.1,0.3c-0.4,0.2-0.8,0.5-1.3,0.6c-1.2,0.4-2.4,0.4-3.6,0.4c-0.9,0-1.8-0.2-2.5-0.7c-1.1-0.8-2.2-1.6-3.3-2.5
		C59.9,183.4,59.6,182.8,59.3,182.1"/>
	<path class="st1" d="M127.6,156.1c-0.9,0.7-1.4,1.8-2,2.8c-0.8,1.3-1.6,2.8-2.3,4.2c-1.1,2.1-1.9,4.4-2.2,6.7
		c-0.2,1.6-0.1,3.3,0,4.9c0,0.8,0.5,1.5,1.1,2.1c0.8,0.7,1.6,1.3,2.7,1.8c1-0.2,2.1-0.5,3.1-0.8c0.4-0.1,0.9-0.1,1.3-0.2
		c-0.1,0.1-0.2,0.3-0.3,0.4c-3.1,2-6.5,3.1-10.2,2.6c-1-0.1-2-0.2-2.7-1c0-0.3,0-0.6-0.1-0.8c-0.8-2-0.6-4-0.1-6
		c0.7-3.1,2-6,3.6-8.8c1.3-2.2,2.7-4.3,4.1-6.3c0.7-0.9,1.4-1.8,2.1-2.7c0.3-0.4,0.7-0.7,1.1-1c0.4-0.3,1-0.6,1.5-0.4
		c-0.1,0.3-0.3,0.7-0.4,1C127.6,155.1,127.5,155.6,127.6,156.1"/>
	<path class="st4" d="M110.1,48c-0.1,0.1-0.2,0.3-0.4,0.3c-1,0.2-2.1,0.4-3.1,0.4c-3,0.1-6,0.5-9,1.1c-3,0.6-5.9,1.2-8.8,2.1
		c-2.5,0.8-5,1.6-7.5,2.5c-2.8,1.1-5.4,2.4-8.2,3.5c-0.4-1.1-0.7-2.2-1.1-3.3c0.1-0.1,0.1-0.3,0.2-0.4c2.5-1.2,5.1-2.1,7.7-2.9
		c4.9-1.4,9.8-2.5,14.8-3.2c1.7-0.3,3.4-0.3,5.1-0.5c3-0.3,5.9,0,8.9,0.1C109.3,47.8,109.7,47.9,110.1,48"/>
	<path class="st2" d="M27.3,24c-0.1,0.3-0.1,0.7-0.2,1C27,24.6,27,24.3,27.3,24"/>
	<path class="st4" d="M40.9,132.7c0.4,0.2,0.4,0.4,0.1,0.6C40.9,133.2,40.9,133,40.9,132.7"/>
	<path class="st4" d="M58.4,181c0,0.1,0.1,0.1,0.1,0.2c0,0,0,0.1-0.1,0.1C58.5,181.2,58.4,181.1,58.4,181"/>
	<path class="st1" d="M72.4,54.4c-0.1,0.1-0.1,0.3-0.2,0.4C72,54.6,72.1,54.4,72.4,54.4"/>
	<path class="st4" d="M143.2,147.6c-0.1-0.1-0.3-0.2-0.4-0.4C142.9,147.4,143,147.5,143.2,147.6"/>
	<path class="st1" d="M129.2,177.7c0.1-0.2,0.2-0.2,0.3,0l-0.2,0H129.2z"/>
	<path class="st5" d="M137.2,82.5c0,3.4-1,6.5-2.9,9.3c-1.1,1.8-2.4,3.4-3.9,4.9c-2.3,2.4-5,3.6-8.2,4.3c-2.4,0.5-4.8,0.2-7.1-0.6
		c-0.3-0.1-0.6-0.3-0.9-0.3c-4.3-0.9-8.5-5.7-9.5-10.5c-0.5-2.3-0.5-4.6,0-6.9c0.6-2.9,1.3-5.8,2.8-8.4c1.4-2.5,3.4-4.5,6.1-5.6
		c1.2-0.5,2.5-0.9,3.8-1c1.7-0.2,3.4-0.3,5.1-0.3c3.7-0.1,7,1.3,9.8,3.7c0.5,0.4,0.9,1,1.3,1.5c1.5,1.8,2.5,3.9,3.2,6.1
		c0.2,0.5,0.3,1.1,0.4,1.6C137.2,80.9,137.2,81.7,137.2,82.5 M130.2,75.3c0-3.4-1.7-5.5-4.5-5.8c-0.7-0.1-1.4,0-2.1,0.1
		c-2.3,0.4-3.9,1.6-4.7,3.9c-0.4,1.3-0.4,2.6-0.1,3.9c0.4,1.5,1.3,2.5,2.9,2.9c2.2,0.6,4.2,0.1,6-1.1
		C129.3,78.2,130.1,76.6,130.2,75.3"/>
	<path class="st5" d="M63.4,88c-0.3-6.6,4.9-13.3,11.1-14.9c2.5-0.6,5-1.3,7.6-1.2c5.1,0.1,9,2.3,11.7,6.6c2.1,3.4,3,7.2,2.7,11.2
		c-0.3,3-1.5,5.6-3.2,8c-2,2.8-4.6,4.7-7.8,5.9c-2.1,0.8-4.2,1.1-6.5,0.8c-2-0.3-3.9-0.7-5.7-1.4c-4.4-1.6-7.2-4.7-8.8-9
		C63.6,91.8,63.4,90.4,63.4,88 M83.7,74.1c-1.8,0-3.2,0.6-4.4,1.8c-1.1,1.1-1.5,2.4-1.4,3.9c0.3,2.6,2.7,4.5,5.2,4.2
		c1.7-0.2,3.1-1,4.3-2.2c0.6-0.6,0.9-1.3,1-2C89,76.8,86.8,74.1,83.7,74.1"/>
	<path class="st0" d="M117.9,107.3c-0.6,0.6-1.4,0.6-2.1,0.9c-0.8,0.3-0.9,0.5-0.7,1.2c0.1,0.5,0.2,1.1,0.2,1.6
		c0.2,2.4-0.2,4.7-0.4,7.1c-0.1,1.2-0.6,2.3-1.6,3.2c-0.6,0.5-1.3,0.9-2.1,0.8c-0.4,0-0.8,0-1.2,0c-1.6,0.2-2.7-0.6-3.5-1.7
		c-0.6-0.8-1.2-1.7-1.7-2.6c-0.7-1.3-1.4-2.6-2.2-3.9c-0.1-0.2-0.3-0.4-0.6-0.7c-0.3,0.3-0.5,0.5-0.6,0.8c-1.4,2.4-2.9,4.7-4.5,6.9
		c-0.9,1.2-2.1,1.8-3.4,2.1c-0.3,0.1-0.6,0-0.8,0c-0.6-0.2-1.1-0.4-1.7-0.7c-0.7-0.3-1.2-0.8-1.5-1.5c-0.4-1.1-0.9-2.1-1.1-3.3
		c-0.4-2.1-0.7-4.2-1-6.3c-0.1-0.5-0.2-0.8-0.7-1c-0.9-0.3-1.8-0.6-2.6-1c-0.6-0.2-1.2-0.4-1.8-0.9c0.3-0.1,0.4-0.1,0.6-0.1
		c2.5-0.1,4.9,0.3,7.4,0.5c0.7,0.1,1.4,0.2,2.1,0.2c1.9,0,3.8,0,5.8,0c2.6,0,5.1-0.3,7.7-0.6c2.8-0.3,5.6-0.8,8.5-0.8
		C115.6,107.6,116.7,107.4,117.9,107.3 M100.6,111.3c-1.4-0.1-2.6-0.2-3.8-0.3c-1.2,0-2.4-0.1-3.6-0.1c-1.2,0-2.4-0.4-3.7-0.2
		c0,0.5,0,0.9,0.1,1.3c0.3,1.4,0.6,2.8,0.9,4.2c0.2,0.9,0.5,1.7,0.8,2.5c0.2,0.5,0.6,1,0.9,1.3c0.7,0.6,1.5,0.6,2.2-0.1
		c0.5-0.4,1-0.9,1.3-1.4c1.5-2.1,2.9-4.2,4.4-6.4C100.4,112,100.4,111.7,100.6,111.3 M103.8,111c0.1,0.3,0.1,0.5,0.2,0.6
		c1,1.8,2.1,3.5,3.1,5.3c0.5,0.8,0.9,1.5,1.5,2.2c0.8,1,2.6,1.1,3.6,0.2c0.3-0.2,0.4-0.6,0.5-1c0.1-0.3,0.1-0.7,0.1-1
		c0.1-2.5,0.2-5.1,0.2-7.6c0-0.1-0.1-0.3-0.2-0.6C109.9,110.2,106.9,110.6,103.8,111"/>
	<path class="st1" d="M115.3,134.1c0.2,1.9-1.9,4-3.1,4.5c-2.3,0.8-4.8-0.7-5.1-3.2c-0.3-2.2,0.6-3.9,2.2-5.4c1-0.9,3.3-0.9,4.3,0.1
		C114.6,131.3,115.4,132.5,115.3,134.1"/>
	<path class="st1" d="M52.8,130.8c0,1.7-1.3,3.2-2.9,3.2c-1.5,0-2.6-0.9-3-2.3c-0.3-1.3,0.4-2.7,1.7-3.2c0.4-0.1,0.7-0.3,1.1-0.3
		C51.4,127.9,52.8,129.1,52.8,130.8"/>
	<path class="st1" d="M104.9,143.6c-0.8,0-1.7-1-1.7-1.7c0-0.9,1-1.8,2-1.8c0.8,0,1.6,1,1.6,1.8
		C106.7,142.7,105.7,143.6,104.9,143.6"/>
	<path class="st1" d="M114.1,140.5c0.5,0,1.1,0.7,1.1,1.2c0,0.5-0.7,1-1.3,1c-0.6,0-1-0.5-0.9-1.1
		C113.1,141,113.6,140.4,114.1,140.5"/>
	<path class="st1" d="M49.6,138.4c-0.2,0.3-0.4,0.6-0.6,0.8c-0.3,0.2-0.6,0.1-0.9-0.1c-0.2-0.2-0.4-0.4-0.5-0.6
		c-0.2-0.3,0-0.8,0.3-1c0.4-0.3,0.9-0.3,1.2,0C49.3,137.7,49.4,138.1,49.6,138.4"/>
	<path class="st1" d="M53,136.1c0,0.4-0.6,0.9-1,0.9c-0.5,0-1.2-0.7-1.1-1.1c0.1-0.4,0.7-0.9,1.1-0.8
		C52.5,135.1,53.1,135.7,53,136.1"/>
	<path class="st3" d="M75.6,168.4c0.5-0.2,1-0.4,1.4-0.5c0.5-0.2,0.8-0.6,0.8-1.1c0.1-0.6-0.2-1.1-0.6-1.4c-0.4-0.3-0.9-0.3-1.2,0
		c-0.4,0.3-0.8,0.8-1,1.2c-0.5,1.2-0.5,2.4-0.1,3.7c0.6,1.7,2.3,1.9,3.5,1.2c1.4-0.8,2.3-1.9,2.8-3.4c0.6-1.7,0.6-3.5,0-5.2
		c-0.5-1.5-1.5-2.5-2.8-3.3c-1.4-0.8-3.4-0.4-4.5,0.8c-0.2,0.2-0.4,0.5-0.6,0.8c-0.1,0.1-0.3,0.1-0.4,0.1c-0.2-0.1-0.4-0.3-0.3-0.5
		c0.1-0.8,0.5-1.5,1.1-2c2.3-2,4.9-1.5,6.5-0.3c2.1,1.6,3.2,3.7,3.2,6.4c0,1.9-0.2,3.7-1.2,5.4c-0.8,1.3-1.9,2.3-3.2,3
		c-2.1,1.1-4.6,0.2-5.6-2.1c-0.9-2.1-0.9-4.2,0.2-6.2c0.4-0.7,0.9-1.2,1.6-1.6c1.9-1.2,3.6-0.1,4.3,1.2c0.8,1.4,0.7,2.9-0.3,4.2
		c-0.8,1.2-2.8,1.2-3.4,0.1C75.7,168.8,75.7,168.6,75.6,168.4"/>
	<path class="st3" d="M127.6,156.1c-0.1-0.5,0-1,0.2-1.4c0.2-0.3,0.3-0.7,0.4-1c0.4-0.2,0.8-0.4,1.1-0.7c1.8-1.2,3.7-1.6,5.8-1.4
		c2.1,0.2,4,2.1,4.3,4.2c0.3,2.7-0.5,5.1-2.3,7.2c-0.9,1-1.8,2.1-3.2,2.6c-1.2,0.4-2.4,0.5-3.5,0c-1-0.5-1.6-1.4-1.8-2.4
		c-0.4-2.3,0-4.4,1.8-6c1-0.9,2.1-1,3.2-0.8c1.2,0.2,2.2,1.9,2,3.1c0,0.3-0.1,0.5-0.2,0.8c-0.2,0.7-0.6,1.3-1.4,1.5
		c-0.8,0.3-1.5,0.2-2.1-0.3c-0.1-0.5,0.2-0.6,0.4-0.9c0.3-0.4,0.7-0.7,1-1.1c0.1-0.2,0.1-0.5,0-0.8c-0.2-0.3-0.5-0.4-0.8-0.3
		c-0.2,0.1-0.4,0.2-0.6,0.3c-1.4,1.1-1.7,2.5-1.4,4.2c0.1,0.6,0.6,1.1,1.3,1.1c0.5,0,1.2,0,1.6-0.2c2.4-1.2,4.4-4.3,4.1-7.2
		c-0.1-1.1-0.7-2-1.6-2.5c-0.9-0.5-1.9-0.8-3-0.5c-1.7,0.4-3.3,1-4.4,2.4C128.3,156.1,128,156.2,127.6,156.1"/>
	<path class="st4" d="M130.2,75.3c-0.1,1.3-0.9,2.9-2.5,3.9c-1.8,1.2-3.8,1.6-6,1.1c-1.5-0.4-2.5-1.4-2.9-2.9
		c-0.3-1.3-0.3-2.6,0.1-3.9c0.8-2.2,2.4-3.5,4.7-3.9c0.7-0.1,1.4-0.2,2.1-0.1C128.5,69.8,130.2,71.8,130.2,75.3"/>
	<path class="st4" d="M83.7,74.1c3.1,0,5.3,2.7,4.8,5.7c-0.1,0.8-0.5,1.5-1,2c-1.2,1.2-2.7,2-4.3,2.2c-2.5,0.3-4.9-1.7-5.2-4.2
		c-0.2-1.5,0.2-2.8,1.4-3.9C80.6,74.8,81.9,74.2,83.7,74.1"/>
	<path class="st4" d="M100.6,111.3c-0.2,0.4-0.2,0.7-0.4,0.9c-1.4,2.1-2.9,4.3-4.4,6.4c-0.4,0.5-0.9,1-1.3,1.4
		c-0.7,0.6-1.5,0.7-2.2,0.1c-0.4-0.3-0.7-0.8-1-1.3c-0.3-0.8-0.6-1.7-0.8-2.5c-0.3-1.4-0.6-2.8-0.9-4.2c-0.1-0.4-0.1-0.8-0.1-1.3
		c1.3-0.2,2.5,0.2,3.7,0.2c1.2,0,2.4,0,3.6,0.1C98,111.1,99.2,111.2,100.6,111.3"/>
	<path class="st4" d="M103.8,111c3.1-0.4,6.1-0.8,9-1.8c0.1,0.3,0.2,0.4,0.2,0.6c-0.1,2.5-0.2,5.1-0.2,7.6c0,0.3,0,0.7-0.1,1
		c-0.1,0.3-0.3,0.7-0.5,1c-0.9,0.9-2.8,0.8-3.6-0.2c-0.6-0.7-1-1.4-1.5-2.2c-1.1-1.7-2.1-3.5-3.1-5.3
		C103.9,111.5,103.9,111.3,103.8,111"/>
</g>
</svg>
