<?xml version="1.0" encoding="utf-8"?>
<!-- Generator: Adobe Illustrator 27.9.0, SVG Export Plug-In . SVG Version: 6.00 Build 0)  -->
<svg version="1.1" id="Layer_1" xmlns="http://www.w3.org/2000/svg" xmlns:xlink="http://www.w3.org/1999/xlink" x="0px" y="0px"
	 viewBox="0 0 200 200" style="enable-background:new 0 0 200 200;" xml:space="preserve">
<style type="text/css">
	.st0{fill:#17483F;}
	.st1{fill:#D2D42E;}
	.st2{fill:#94D478;}
	.st3{fill:#F9DD9D;}
	.st4{fill:#E9EB9B;}
	.st5{fill:#F8F9F9;}
	.st6{fill:#D33F6B;}
</style>
<g>
	<path class="st0" d="M111.6,193c-2.8,1-5.4,3.2-8.1,0.3c-1.6-1.7-1.1-3.5,1.3-6.7c-3.2-0.7-6.3-1.6-9.3-2.9
		c-1.8-0.8-3.5-0.1-5.1,0.5c-5,1.8-9.7,4.1-14.2,6.8c-1.4,0.8-2.8,1.7-4.3,2.1c-3,0.7-4.9-0.8-4.9-3.9c0-0.5,0.6-1.2-0.5-1.5
		c-3.3-1-3.9-4.7-1.3-7c1.9-1.7,4.3-2.3,6.9-2.9c-1.5-1.5-2.8-3-3.8-4.7c-3.1-5.5-1.5-10.7,1.7-15.5c1.2-1.7,1.4-3,0.7-4.7
		c-0.3-0.7-0.5-1.5-0.9-2.5c-2.1,2.5-4.2,4.8-6.1,7.2c-1,1.3-1.8,2.7-1.8,4.4c0,0.7-0.3,1.4-0.9,1.6c-0.7,0.3-1.2-0.4-1.6-0.8
		c-0.7-0.8-1.4-1.7-1.6-3.2c-1.4,2-2.7,3.8-4,5.6c-1.7,2.5-2,2.5-3.4-0.3c-0.6-1.3-0.6-2.7-0.9-4.1c-1.8,0.9-3.2,2.2-4.7,3.3
		c-0.7,0.5-1.5,1.5-2.5,0.9c-1-0.6-0.9-1.8-0.8-2.8c0.3-3.2,1.4-6.1,3.5-8.6c3.2-3.8,7.1-6.8,11.5-9.1c3.2-1.7,6-3.9,8.6-6.5
		c1.2-1.2,1.7-2.5,1.3-4.3c-1.3-6.1-3-11.9-6.9-16.9c-1.3-1.7-2.9-2.5-5.1-2.9c-8-1.3-15-4.9-20.8-10.6c-3-3-4.4-6.7-4.7-10.9
		c-0.1-0.8-0.2-1.3-0.9-1.8c-1.6-1.3-1.5-3.3-1.7-5.1c-0.8-6.7-0.8-13.5,0.7-20.2c0.5-2.3,1.4-4.2,3.2-5.6c2.5-1.9,4.5-4.2,7.2-5.8
		c0.4-0.2,0.6-0.6,0.9-1c2.2-3.3,5-5.9,8.2-8.2c1-0.7,1.4-1.4,1.3-2.7c-0.7-6.9,1.1-13.2,5-19c2-3.1,4.1-6.1,6.3-9
		c1.3-1.9,2.5-1.8,3.3,0.4c1,2.7,2.9,4.3,5.2,5.7c2.5,1.5,4.9,3.3,6.6,5.7c0.7,1,1.2,2.2,1.5,3.4c0.1,0.5-0.3,1.6,0.8,1.4
		c0.8-0.1,1.5-0.3,2-1.3c2.6-6,6.3-11.2,11-15.8c4.5-4.4,9.8-7.1,15.7-8.8c2.3-0.7,4.6-1.4,6.6-2.8c0.4-0.3,0.8-0.7,1.4-0.3
		c0.5,0.3,0.1,0.8,0.1,1.2c-0.1,2.4,0.4,4.8,1,7.2c1.8,7,4.2,13.9,4.9,21.1c0.3,3.7-0.3,7.3-0.7,11.2c5-2.6,10-4.5,14.1-8.2
		c2.6-2.3,3.6-2.1,4.8,1.2c3.2,9.2,4.3,15.5-1.7,25.8c2.3,0.2,4.4,0.3,6.5-0.6c1.9-0.8,2.8,0,3.4,1.8c2.2,6.1-0.2,17.4-8.5,20.7
		c-4.2,1.6-8.2,3.5-12.3,5.2c-2.9,1.2-5.4,2.9-7.8,4.8c-1.4,1.1-1.4,2.9-2.4,4.1c-3.1,3.3-2,6.9-1,10.5c1.6,5.4,5.1,9.3,10,12.1
		c5.6,3.2,11,6.7,15.5,11.5c6.7,7.1,12.9,14.5,15.4,24.2c0.6,2.3,1.1,4.6,1.5,6.9c0.4,2,1.4,2.5,3.2,1.5c1.6-0.9,2.7-2.3,3.4-3.9
		c0.7-1.7,1.5-3.3,3.7-3.1c2.3,0.2,4.2,1.2,5.2,3.5c1.3,3.4,1.1,6.8,0.2,10.2c-2.3,8.8-8.5,13.5-16.9,15.9
		c-6.6,1.9-13.4,2.5-20.2,3.1c-2.1,0.2-4.1,0.4-6.2,0.5c-0.8,0-1.4,0.3-1.9,0.9c-0.9,1-1.8,2-2.6,3c-2.1,2.5-4.8,3.8-7.9,4.4
		c-2.5,0.5-4.1-0.9-4.2-3.5C111.6,194.2,111.6,193.7,111.6,193z M65.2,141.4L65.2,141.4c-0.4-0.1-0.6,0-0.4,0.4l0,0
		c-0.6-0.3-0.7,0.2-1,0.5c-0.3,0.2-0.5,0.5-0.8,0.7c-0.2,0.2-0.3,0.4-0.5,0.6c0,0,0,0,0,0c-3,1.9-6.1,3.7-9,5.7
		c-3,2-5.7,4.4-7.8,7.4c-1,1.4-1.8,2.8-1.7,4.6c1.1-0.4,1.9-1.1,2.6-1.8c0.2-0.1,0.3-0.3,0.5-0.4l0,0c2.2-0.8,3.6-2.5,4.9-4.4
		c0.4-0.6,0.7-1.5,1.6-1.1c0.7,0.4,0.5,1.3,0.3,2c-0.3,1.2-0.7,2.3-1.1,3.5l0,0c-0.6,0.2-0.5,0.8-0.6,1.2c-0.1,0.2-0.2,0.4-0.2,0.6
		c0,0.6-0.7,1.1-0.1,1.8c3.1-3,5.3-6.2,6.3-9.3c0.5-0.2,0.7-0.9,1.3-0.7c0.6,0.2,0.5,0.9,0.4,1.4c-0.1,1.3-0.4,2.6,0.2,4.1
		c1.5-2.4,3.1-4.4,5-6.2c3.8-3.7,4.3-7.9,1.4-12.6c-0.5,0.6-1,1.1-1.4,1.7c0,0-0.1,0.1-0.1,0.1C65.1,141.2,65.1,141.3,65.2,141.4z
		 M73.1,180.2L73.1,180.2c-1.8-0.2-3.1,1-4.4,1.9c-0.6,0.5-1.6,1-1.2,1.8c0.5,1,1.6,0.8,2.5,0.2c1.4,0.2,2.8-0.3,4.6,0.3
		c-1.4,0.9-2.6,1.5-3.7,2.2c-1.2,0.8-1.8,2.1-1.2,3.2c0.6,1.2,1.8,0.3,2.7-0.1c0.5-0.2,1.1-0.5,1.6-0.8c5.3-3.2,10.7-6.3,17.1-7.7
		c-8.1-5.6-14.5-12.2-18.4-21.1c-0.1-0.4,0-0.9-0.5-1.2c-0.5-0.3-0.6,0.3-0.7,0.6c-2.5,5.4-3.4,9.4,0.6,14.2
		c1.2,1.5,2.4,2.9,3.6,4.4c-0.1,0.6,0.8,1,0.6,1.7c-1-0.1-1.8-1.4-2.8-0.2C73.4,179.8,73,179.7,73.1,180.2z M135.5,65.4
		c1.7-0.5,3.5-0.9,5.3-2.2c-2,0-3.7,0.2-5.2-0.1c-1.4-0.3-2.2,0.2-2.8,1.3c-2.9,2.2-5.8,4.3-9.1,5.7c-1.8,0.8-2.2,1.7-1.7,3.8
		c2.5-3.5,5.8-5.4,9.5-6.8C132.8,66.6,134.1,66,135.5,65.4z M117.3,175.4c-0.1,0.4,0.2,0.4,0.5,0.5c1.9,1.8,4.1,3.1,6.7,3.6
		c-0.3,1.1-1.5,0.8-1.9,1.5c-2.8,1.1-5.6,2.1-8.3,3.2c-2.9,1.2-5.7,2.6-7.9,4.9c-0.7,0.7-1.4,1.5-0.8,2.5c0.6,0.9,1.7,0.6,2.5,0.1
		c1.5-0.1,2.9-0.5,4.2-1c0.6-0.2,1.1-1.2,1.9-0.6c0.8,0.6,0.3,1.4,0.2,2.2c-0.2,1-0.9,2.3,0,3.1c0.9,0.8,2.1,0.1,3.1-0.2
		c0.9-0.2,1.6-0.7,2.1-1.5c2.2-3.3,5.3-5.9,8.1-8.7c2.9-2.9,6.6-4.2,10.5-5.2c-2.2,2.6-4.9,4.6-7.9,6.9c3.9,0.1,7.2-0.6,10.5-0.9
		c6.1-0.6,12.2-1.9,17.8-4.4c4.8-2.2,8.5-5.5,9.5-11l0,0c0.4-0.2,0.4-0.6,0.4-0.9c0.7-2,0.7-4.1,0.4-6.3c-0.2-2.5-0.5-2.9-2.4-3.6
		c-1.6,3.6-4.2,6.2-8.1,7.3c-2.1-0.5-4.5-0.4-5.3-3c-0.4-1.5-0.6-3.1-1-4.7c-1-4.6-2.3-9.2-5-13.2c-0.7-1.1-1.3-2.3-2.1-3.4
		c-6.1-8.5-13.6-15.3-22.7-20.5c-4.9-2.7-8.9-6.5-11.7-11.4c-1-1.8-1.8-3.7-2.7-5.7c-0.7,0.6-1.2,1-1.7,1.5c-4.6,2.9-9.6,5-15,5.7
		c-3.7,0.5-7.4,0.6-11.1,0.9c-6.4-0.2-12.8,1.2-19.7,1.1c4.5,4.8,6.6,10.2,8,16c4-3.7,5.5-3.6,10.8,0.8c2.8-3.4,5.4-4,9.3-2.2
		c2.6,1.2,4.8,3.1,6.6,5.4c1.4,1.8,2.3,3.8,3.3,6.1c1.9-2.1,3.2-4.2,4-6.5c0.7-1.9,1.2-3.8,1.8-5.6c0.3-0.9,0.8-2,1.7-0.3
		c-0.9,5.7-3.1,10.8-6.6,15.3c-2.4,3.1-4.3,6.4-5.1,10.3c-0.6,2.9-1.1,5.8-0.2,9.1c0.6-0.8,1-1.3,1.4-1.9c2-1.8,3.7-3.7,4.5-6.3
		c0.3-1.1,0-3.1,1.6-2.9c1.1,0.2,0.2,2,0.4,3.1c-0.4,1-0.8,2-1.3,3c-0.9,1.7-0.1,2.9,1.1,4.3c0.2-0.8,0.3-1.2,0.4-1.6
		c0.1-0.3,0.3-0.5,0.4-0.8c3.2-4.6,4.8-9.5,3.5-15.1c-0.2-0.7,0-1.4,0.9-1.5c0.8-0.1,1.1,0.5,1.3,1.2c0.5,1.6,0.7,3.3,0.8,5
		c0,0.2,0.3,0.2,0.4-0.1c0-0.1,0-0.1,0-0.2c3-4.1,2.8-8.4,0.8-12.9c0-0.6,0-1.2,0.8-1.3c0.6-0.1,1,0.3,1.2,0.7
		c0.4,0.7,0.7,1.5,1,2.2c1.8,4.5,0.5,8.6-1.6,12.6c-2.7,5.2-2.4,5.9,1.7,10c0.9,0.9,1.5,1.1,2.4,0c2.6-3,6.1-3.9,10-3.4
		c0.8,0.1,1.9,0.3,1.8,1.2c0,1.1-1.2,0.4-1.8,0.6c-0.2,0.1-0.4,0.2-0.6,0.2c-6.4-0.3-10.7,5.5-11.4,11.5
		C113.7,172.7,115,174.5,117.3,175.4L117.3,175.4z M103.7,12.4c-0.2,0.1-0.3,0.3-0.5,0.4c-5.8,3.2-10.2,7.9-14.4,12.7
		c-1.7,2-3.2,4.2-4.2,6.7c-1.2,2.2-2.4,4.4-3.7,6.6c0.3-5.1,2.2-9.6,5.2-13.5c4.4-5.7,10-10.1,15.9-14.1c2.1-1.4,4.2-2.8,5.8-4.7
		c0.1-0.2,0.4-0.6,0.4-0.6c-0.3-0.3-0.6-0.1-0.8,0.2C96,9.6,87.7,16.9,82,27.4c-0.9,1.8-1.9,3.5-3.2,5c-0.3,0.3-0.4,0.8-1.1,0.8
		c-3-0.2-5.3,1.9-8.4,2.4c2.8,2.2,5.8,3,8.3,4.7c-3.3,0.8-5.9-1.2-8.8-1.8c-1.4-0.7-2.8-1.5-4.3-2.2c-2.3-1-2.9-0.7-3.9,1.5
		c-1.3,2.8-1.5,5.9-3.2,8.6c-0.7,1.1-1.4,2.2-2.3,3.6c-0.3-3.2,1.5-5.6,1.3-8.5c-5.5,3.2-10.7,6.4-14.8,11.1
		c-0.5,0.5-1.2,1.2-0.6,1.9c2.2,2.6,2,6.1,3.2,9c2.4,5.9,0.8,11.1-2.4,16.2c-2.7,4.3-5.8,8.3-9.6,11.7c-0.5,0.4-1.1,0.7-1,1.6
		c0.4,2.8,1.1,5.5,3.1,7.6c6.9,7.1,15.4,10.7,25.1,11c8.5,0.3,16.8-1.2,25.3-1.5c4.2-0.1,8.5-0.5,12.4-2.4c8-2.5,13.5-7.8,16.4-15.6
		c2-5.3,3.8-10.6,4.6-16.2c1.9-13.8-2.3-25.1-13.4-33.7c-3.5-2.9-7.5-5.1-11.6-7.1c-0.9-0.4-2.2-0.6-1.5-2.1c1-0.2,1.9,0.2,2.8,0.6
		c4.4,1.6,8.3,4,12.1,6.7c2.6,1.9,5,3.9,7.1,6.7c4.7-11.4,1.9-22-1.4-32.6c-0.2-3.1-1.7-6.1-1.3-9.9c-2.2,3.1-4.4,5.2-6.7,7.1
		C104.1,11.9,103.7,12,103.7,12.4z M73.5,151.6C73.5,151.6,73.5,151.6,73.5,151.6c0.4,1.4,0.7,2.8,1.1,4.2
		c5,14.5,14.9,23.8,29.7,27.8c2,0.5,4.2,1.3,6-0.6c2.8-1.2,5.7-2.5,8.7-3.8c-1.2-0.5-2.2-0.8-3.2-1.2c-3.3-1.5-5.1-4.9-4.8-8.4
		c0.2-2.2,2.4-4.2,1.4-6.1c-1-1.9-3.1-3.3-4.3-5.2c-1-1.6-1.5-1.2-2,0.3c-1.1,1.2-1.6,2.8-2.2,4.2c-1,2.4-2.4,2.7-4.2,0.9
		c-0.7-0.7-1.2-1.5-1.8-2.3c-0.9,1.2-1.9,2.2-2.5,3.6c-0.4,0.9-0.8,2.4-2,2.3c-1.3,0-1.3-1.6-1.8-2.5c-0.2-0.4-0.4-1-0.4-1.5
		c-0.6-5.5-0.5-11,2.5-15.8c2.2-3.4,2.3-6.1,0.4-9.6c-1.9-3.4-4.3-5.9-7.9-7.1c-2.7-0.9-4.3-0.1-5.4,2.6c-0.7,1.7-1.6,1.9-2.9,0.5
		c-0.8-1-1.6-1.9-2.7-2.6c-1.3-0.9-2.5-1.4-4.1-0.5c-1.6,1-2.3,2.5-2.1,4.3c0.8,5.3,2.1,10.4,3.9,15.5
		C73.2,151,73.1,151.4,73.5,151.6z M62.6,20.4c-0.8-1.1-1.7-2.2-2.5-3.4c-0.9,1.5-1.8,3-2.4,4.6c-3.2,5.6-3.5,11.8-4,18.2
		c2-0.9,3.8-1.3,4.6-3.6c1-2.9,3.4-3.8,6.4-2.7c0.8,0.3,1.6,0.8,2.5,0.4c1.6-0.6,3.2-1.1,4.8-1.7c0.8-0.3,1.1-0.5,0.8-1.6
		c-0.6-3-2.5-4.9-4.8-6.6C66.2,22.8,64.4,21.6,62.6,20.4z M139,66.3c-4.4,1.3-8.6,3.1-12.3,5.7c-2.3,1.6-4.5,3.5-5.7,6
		c-1.4,3.1-2.1,6.5-3.1,9.8c-0.1,0.3-0.1,0.6,0.1,0.8c0.3,0.4,0.6,0,0.9-0.1c5.4-2.9,11.2-5.1,16.9-7.4c3.6-1.4,6.1-3.9,7.1-7.8
		c1.3-3.2,1.4-6.5,0.4-10.1C141.9,64.7,140.3,65.3,139,66.3z M136.5,42.8c-0.2-2.1-0.9-4.1-1.7-6.2c-1.2,1.3-2.3,2.5-3.3,3.7
		c-1.9,1.5-3.8,3-5.8,4.4c-2.8,2-5.2,4.3-7.2,7.1c-0.6,0.7-0.9,1.4-0.5,2.4c2,4.5,3.5,9.2,3.8,14.3
		C136.2,62.8,138.8,51.6,136.5,42.8z M41,75.6c1.2-2.2,2.7-4.2,2.3-6.9c-0.6-3.9-2.6-7.3-3.4-11.1c-0.3-1.3-1.4-1.5-2.2-0.9
		c-2.6,2.1-5.5,4-7.5,6.7c-0.4,0.5-0.9,1.2-0.5,2.1c0.8-0.3,1.6-0.8,2.4-1c1.3-0.2,2.1,0.2,1.4,1.7c-0.3,0.6-0.7,1.2,0,1.7
		c0.6,0.5,1.3,0.4,1.9,0.1c0.6-0.4,0.9-1,0.5-1.7c-0.3-0.6-0.4-1.1,0.2-1.6c0.7-0.6,1.3,0.1,1.8,0.3c0.9,0.4,1.3,1.3,1.7,2.2
		C40.9,69.9,41.3,72.6,41,75.6z M129.5,39.5c-3.9,1.9-8,3.2-11.6,5.8c-1.9,1.4-2.4,4.6-1,6.1C119.5,45.6,125.1,43.2,129.5,39.5z
		 M28.6,82.4c0,1.9,0.5,3.4,0.8,4.9c0.2,1.3,0.9,1.3,1.8,0.8c2.4-1.4,3.9-3.5,5.3-5.8C33.9,83.7,31.4,84.2,28.6,82.4z M52.5,29.5
		c-2.3,4.1-2.9,8.3-2.8,12.9c1.7-0.6,2.5-1.3,2-3.1c-0.3-1.2,0-2.6,0.1-3.9C51.9,33.3,52.2,31.4,52.5,29.5z"/>
	<path class="st1" d="M97.3,107.9c-3.9,1.9-8.2,2.3-12.4,2.4c-8.5,0.2-16.8,1.8-25.3,1.5c-9.8-0.4-18.3-4-25.1-11
		c-2-2.1-2.7-4.8-3.1-7.6c-0.1-0.9,0.5-1.2,1-1.6c3.8-3.4,6.9-7.4,9.6-11.7c3.2-5.1,4.9-10.3,2.4-16.2c-1.2-3-1.1-6.4-3.2-9
		c-0.6-0.8,0.1-1.4,0.6-1.9c4.1-4.7,9.3-8,14.8-11.1c0.2,2.9-1.7,5.3-1.3,8.5c0.9-1.4,1.6-2.5,2.3-3.6c1.4-0.2,1.8-1.5,2.2-2.5
		c1.6-4.1,4-6.5,8.7-5.4c0.1,0,0.3,0,0.4,0c2.9,0.7,5.5,2.7,8.8,1.8c-2.5-1.7-5.5-2.5-8.3-4.7c3.1-0.6,5.4-2.7,8.4-2.4
		c0.8,0.1,0.8-0.5,1.1-0.8c1.4-1.5,2.3-3.2,3.2-5c5.6-10.5,14-17.8,25.5-21.3c0.1,0.1,0.3,0.3,0.4,0.4c-1.6,1.9-3.7,3.3-5.8,4.7
		c-5.9,4-11.6,8.4-15.9,14.1c-3,3.9-4.9,8.4-5.2,13.5c1.2-2.2,2.4-4.4,3.7-6.6c2.5-0.1,4.9,0.2,7.3,1c-0.7,1.5,0.6,1.7,1.5,2.1
		c4.1,2,8.1,4.1,11.6,7.1c0,0.5,0,1,0.4,1.5c5.2,5.6,7.2,12.6,8.7,19.9c0.3,1.2,1,2.6,0.3,3.8c-0.8,1.4-0.8,2.2,0.5,3.2
		c0.4,0.3,0.4,0.9,0,1.4c-1-0.6-2-0.9-3,0.1c-0.8,0.9-1,1.8-0.7,2.8c0.3,1,1.1,1.2,2.1,1.3c0.6,0.1,1.5-1,1.8,0.3
		c0.2,1-0.1,1.7-1.3,2.1c-1.8,0.7-2,2.3-0.5,3.4c1,0.8,0.8,1.4,0.5,2.2c-1,2.8-2.2,5.4-3.7,8c-2.7,4.8-5.8,9.2-10.3,12.4
		C98.8,105.6,97.7,106.5,97.3,107.9z M99.6,46.4c0.1,0.2,0.1,0.4,0.2,0.6c0.1,0,0.2-0.1,0.2-0.1C99.9,46.7,99.8,46.6,99.6,46.4
		c-1.4-3.4-4.3-5.4-7.1-7.5c-0.8-0.6-1.4-0.3-1.7,0.6c-0.3,0.7-0.6,1.3-0.9,2c-0.2,0.7-0.9,1.6-0.1,2c0.9,0.4,1.1-0.7,1.4-1.3
		c0.6-1.5,1.2-1.5,2.3-0.4C95.3,43.6,96.9,45.7,99.6,46.4z M42.7,100.4c0.7,0.3,0.9,1.1,1.3,1.7c4.4,6,10.9,8.2,17.6,5.7
		c4.2-1.6,8-4,11.3-7.1c1.3-1.3,2.7-2.5,4.1-3.7c1.8-1.4,2.7-1,3.3,1.2c0.4,1.3-0.1,2.3-0.3,3.5c-0.4,2.4,0.4,3.2,2.8,2.7
		c3-0.6,5.1-2.4,6.9-4.8c1.2-1.6,2.6-3,4.8-3c0.4,0,0.9-0.2,1.3-0.4c0.6-0.3,1.4-0.5,1.1-1.3c-0.2-0.7-0.9-0.6-1.5-0.4
		c-1.7,0.4-3.3,0-4.7-0.8c-1.6-1-3.1-0.9-4.8-0.6c-5.2,1-10.5,1.5-15.6-0.6c-1.1-0.5-2.1-0.1-3.1,0.4c-4,2-8.2,3-12.7,3.1
		c-3.4,0.1-6.5-0.8-9.6-2.1c-1-0.4-2.3-1.2-3.1-0.5c-1.9,1.5-3.8,3.1-6.2,3.9c-0.5,0.2-0.6,0.9,0,1c2.4,0.4,2.9,2.6,4.2,4.1
		c1,1.1,1.6,0.6,2.2-0.3C42.4,101.5,42.1,100.8,42.7,100.4z M74.1,78.9c0,1,0,1.9,0,2.9c0,3.7,1.5,6.2,5.1,7.5c3.6,1.3,7.3,1.4,11,2
		c10,1.5,15.9-5.1,17-13.6c0.7-5.7-2.3-10.3-4.3-15.2c-2.6-6.4-7.4-8.7-14.2-8c-7.8,0.8-11.9,4.1-13.5,11.8
		C74.3,70.4,74.3,74.6,74.1,78.9z M57,52.6c-2.3,0-3.7,1.6-3.7,4.2c0,1.6,0,3.4,1.9,3.7c2.2,0.3,5-2.2,5.1-4.2
		C60.4,54.2,58.9,52.6,57,52.6z M51.9,60.8c-0.4-1.2-0.8-2.4-2.2-2.3c-1.5,0.1-2.4,1.3-2.5,2.6c-0.1,1.3,0.9,2.1,2.3,2.1
		C51.1,63.2,51.5,62,51.9,60.8z M55.4,61c-1.6,0.1-2.1,1.1-2.1,2.6c0,1.5,0.7,1.8,2,1.9c1.7,0,2.4-0.9,2.4-2.4
		C57.7,61.6,56.8,61,55.4,61z M56.7,88.9c-2.3,0.5-4.4,1.3-6,3.1c-0.5,0.5-0.7,1.2,0,1.7c0.6,0.5,1.1,0,1.5-0.4
		C53.5,91.8,55,90.3,56.7,88.9z M42.2,90.7c1.7,1,3.1,1.8,4.6,2.6c0.7,0.4,1.5,0.8,1.9,0c0.5-0.8-0.1-1.5-0.9-1.9
		C46.2,90.5,44.4,90.4,42.2,90.7z"/>
	<path class="st2" d="M101.8,154.9c-0.2-1.1,0.7-3-0.4-3.1c-1.5-0.2-1.2,1.8-1.6,2.9c-0.8,2.6-2.6,4.5-4.5,6.3
		c-0.4-1.6,0.3-3,0.5-4.5c1.2-6.1,4.7-11,7.7-16.2c2.2-3.8,3.5-7.7,2.2-12.1c-0.9-1.7-1.4-0.6-1.7,0.3c-0.7,1.9-1.2,3.8-1.8,5.6
		c-0.8,2.3-2.1,4.5-4,6.5c-0.9-2.3-1.9-4.3-3.3-6.1c-1.8-2.3-4-4.1-6.6-5.4c-3.9-1.8-6.5-1.2-9.3,2.2c-5.3-4.4-6.8-4.5-10.8-0.8
		c-1.4-5.8-3.5-11.2-8-16c6.9,0.1,13.3-1.3,19.7-1.1c4.2,2.3,8.2,4.8,11.4,8.5c2.6,3.1,6.1,3.6,9.8,2.9c2.1-0.4,3.7,0,5.3,1.2
		c3.7,2.7,6.3,6.1,7.6,10.5c1,3.2,2.4,4.1,5.7,3.7c1-0.1,1.3,0.4,1.8,0.9c1.3,1.8,1.4,3.9,1.4,6.1c0,3.1,2.5,5.3,5.4,4.6
		c2.6-0.7,3.9,0.5,5,2.4c1.5,2.4,1.6,5.1,1.5,7.9c-0.1,3.2,0.9,4.2,4,4c2.7-0.2,4.1,0.8,5,3.2c2.9,7.2,10.2,7.9,16.1,6.2
		c3.1-0.9,5.5-3,8-4.8c-1,5.5-4.7,8.8-9.5,11c-5.7,2.5-11.7,3.8-17.8,4.4c-3.3,0.3-6.6,1-10.5,0.9c3.1-2.4,5.8-4.3,7.9-6.9
		c-3.9,0.9-7.6,2.3-10.5,5.2c-2.8,2.8-5.9,5.3-8.1,8.7c-0.5,0.8-1.2,1.3-2.1,1.5c-1,0.3-2.2,1-3.1,0.2c-1-0.8-0.2-2.1,0-3.1
		c0.1-0.8,0.6-1.6-0.2-2.2c-0.8-0.6-1.3,0.4-1.9,0.6c-1.4,0.5-2.8,0.9-4.2,1c0-2.3,1.6-3.5,3.3-4.6c3.3-2.2,7.1-3.4,10.6-5.2
		c0.4-0.2,1.1-0.2,0.6-0.9c0.4-0.7,1.5-0.4,1.9-1.5c-2.6-0.5-4.8-1.8-6.7-3.6c-0.2-0.2-0.3-0.3-0.5-0.5c0,0,0,0,0,0
		c0-0.3,0-0.6,0-0.9c-1.7-7.1,0.3-11.3,6.8-14.5c0.5-0.3,1.1-0.5,1.2-1.1c0.2-0.1,0.4-0.2,0.6-0.2c0.6-0.2,1.8,0.5,1.8-0.6
		c0-0.9-1-1.1-1.8-1.2c-3.9-0.5-7.3,0.4-10,3.4c-1,1.1-1.5,0.9-2.4,0c-4.2-4.1-4.4-4.8-1.7-10c2.1-4,3.4-8.1,1.6-12.6
		c-0.3-0.7-0.6-1.5-1-2.2c-0.2-0.5-0.6-0.8-1.2-0.7c-0.8,0.1-0.8,0.7-0.8,1.3c-0.8,0.7-0.5,1.7-0.3,2.5c0.3,1.2,0.2,2.4,0,3.7
		c-0.3,2.2-0.8,4.5-0.6,6.7c0,0.1,0,0.2,0,0.2c-0.1,0.2-0.4,0.3-0.4,0.1c-0.1-1.7-0.3-3.3-0.8-5c-0.2-0.7-0.5-1.3-1.3-1.2
		c-0.9,0.1-1,0.9-0.9,1.5c1.3,5.6-0.3,10.6-3.5,15.1c-0.2,0.2-0.3,0.5-0.4,0.8C102,158.7,101.9,156.8,101.8,154.9z"/>
	<path class="st1" d="M168.2,170.6c-2.5,1.8-5,3.9-8,4.8c-5.9,1.8-13.2,1-16.1-6.2c-0.9-2.3-2.4-3.4-5-3.2c-3.2,0.3-4.1-0.8-4-4
		c0.1-2.7,0-5.4-1.5-7.9c-1.1-1.9-2.5-3.1-5-2.4c-2.9,0.8-5.3-1.4-5.4-4.6c0-2.2-0.1-4.3-1.4-6.1c-0.4-0.6-0.8-1.1-1.8-0.9
		c-3.3,0.4-4.7-0.5-5.7-3.7c-1.3-4.4-3.9-7.8-7.6-10.5c-1.6-1.2-3.3-1.7-5.3-1.2c-3.7,0.7-7.2,0.2-9.8-2.9
		c-3.2-3.7-7.2-6.2-11.4-8.5c3.7-0.3,7.4-0.4,11.1-0.9c5.4-0.8,10.4-2.8,15-5.7c0,0.5,0.3,1.1,0.1,1.5c-0.7,1.2-0.7,3.1-2.4,3.5
		c-1.2,0.2-1.9,0.6-2,1.9c-0.1,0.8,0.2,1.5,1.1,1.6c1.2,0.2,2.1-0.2,2.4-1.4c0.2-0.8,0.4-1.2,1.2-1.2c0.8,0,1.4,0.2,1.8,1
		c0.6,1.2,1.3,2.3,2.1,3.4c4.4,6,10.5,9.9,16.7,13.8c6.7,4.2,13.7,8.1,18.6,14.5c0.4,0.5,0.8,0.9,1.4,0.9c2.7,4,4.1,8.5,5,13.2
		c0.3,1.6,0.5,3.2,1,4.7c0.8,2.6,3.2,2.5,5.3,3c0.1,0.9-0.7,2.2,0.8,2.5c2.7,0.6,3.3-1.2,3.2-3.5c1,0.6,0.8,2,2,1.6
		c0.8-0.3,0.6-1,0.4-1.7c-0.3-0.7,0.4-0.8,0.8-1c1.1-0.6,2.2-1,3.3-1.6c0.3,2.1,0.3,4.2-0.4,6.3
		C168.2,169.9,168.1,170.2,168.2,170.6L168.2,170.6z M108.5,118.3c0-1.2-0.6-1.6-1.7-1.6c-1.1,0-1.7,0.8-1.7,1.7
		c0,1,0.9,1.8,1.9,1.8C108,120,108.5,119.2,108.5,118.3z M157.4,168.8c-0.2-0.8-0.5-1.4-1.4-1.4c-0.9,0-1.8,0.1-1.9,1.3
		c-0.1,1,0.7,1.5,1.5,1.6C156.5,170.5,157,169.6,157.4,168.8z M158.8,170.2c-0.4,0.3-1.2,0.3-1.2,1.2c0,1,0.7,1.2,1.4,1.3
		c0.8,0,1.2-0.5,1.1-1.3C160.1,170.6,159.7,170.2,158.8,170.2z"/>
	<path class="st3" d="M73.2,150.7c-1.8-5-3.1-10.2-3.9-15.5c-0.3-1.8,0.4-3.3,2.1-4.3c1.5-1,2.8-0.4,4.1,0.5c1,0.7,1.9,1.6,2.7,2.6
		c1.2,1.5,2.2,1.3,2.9-0.5c1.1-2.6,2.6-3.5,5.4-2.6c3.7,1.2,6,3.8,7.9,7.1c1.9,3.5,1.8,6.2-0.4,9.6c-3.1,4.7-3.1,10.3-2.5,15.8
		c0.1,0.5,0.2,1,0.4,1.5c0.5,0.9,0.6,2.4,1.8,2.5c1.3,0,1.6-1.4,2-2.3c0.6-1.3,1.6-2.4,2.5-3.6c0.6,0.8,1.1,1.6,1.8,2.3
		c1.8,1.8,3.2,1.5,4.2-0.9c0.6-1.5,1.1-3,2.2-4.2c1.1,4.5,0.8,8.7-2.9,11.9c-3.6,3.2-7.7,4-12.2,2.2c-1.8-0.7-3.5-1.5-5.2-2.2l0,0
		c0-0.6-0.3-0.9-0.9-0.9c0,0,0,0,0,0c-0.2-0.2-0.3-0.3-0.5-0.5c0,0,0,0,0,0c-0.2-0.2-0.3-0.3-0.5-0.5l0,0c-0.2-0.2-0.3-0.4-0.5-0.6
		c-0.1-0.1-0.2-0.2-0.3-0.3c-0.3-0.3-0.7-0.6-1-0.9l0,0c-0.2-0.2-0.3-0.3-0.5-0.5l0,0c-0.2-0.2-0.3-0.3-0.5-0.5
		c-2.2-2.6-3.8-5.6-5.1-8.8c-0.8-2-1.2-4.2-2.9-5.7c0,0,0,0,0,0C73.6,151.2,73.6,150.9,73.2,150.7z"/>
	<path class="st2" d="M91.9,33.3c-2.4-0.8-4.8-1.1-7.3-1c0.9-2.5,2.4-4.7,4.2-6.7c4.3-4.8,8.7-9.6,14.4-12.7
		c0.4,1.4-1.3,1.9-1.4,3.1c-0.1,0.1-0.1,0.2-0.2,0.3c0.1-0.1,0.2-0.1,0.2-0.2c1.2,0,1.6-1.7,3-1.7c-0.2,1.7-1.7,2.6-2,4.2
		c2.1-0.5,2.3-3.1,4.2-3.5l0.1,0.1c-0.6,1.5-1.2,2.9-1.8,4.4c-0.1,0.2-0.2,0.3-0.3,0.5c0,0,0.1,0.1,0.2,0.1c0.1-0.2,0.1-0.4,0.2-0.6
		c2-0.7,2.2-3.1,3.9-4l0,0c0.1,0.6-0.2,1.8,1.1,0.8c0.7-0.5,1.3-1.1,1.9-1.7c3.3,10.6,6.1,21.2,1.4,32.6c-2.1-2.7-4.5-4.8-7.1-6.7
		c-3.8-2.7-7.7-5.1-12.1-6.7C93.8,33.5,92.9,33.1,91.9,33.3z"/>
	<path class="st2" d="M136.5,42.8c2.3,8.8-0.3,20.1-14.6,25.6c-0.4-5-1.8-9.7-3.8-14.3c-0.4-1-0.1-1.6,0.5-2.4
		c2-2.7,4.4-5.1,7.2-7.1c2-1.4,3.8-2.9,5.8-4.4c0.1,0.8-0.7,1.5-0.3,2.3c1,0,1.1-1.3,2.2-1.5c-0.4,1.6-0.8,3-0.4,4.5
		c0.8-0.4,0.6-1.6,1.5-1.8c0.4,1-0.2,2.1,0.4,3.1C135.4,45.4,135.9,44.1,136.5,42.8z"/>
	<path class="st2" d="M142.9,73.3c-1,3.8-3.4,6.4-7.1,7.8c-5.7,2.2-11.5,4.4-16.9,7.4c-0.3,0.2-0.6,0.5-0.9,0.1
		c-0.1-0.2-0.1-0.6-0.1-0.8c1-3.3,1.7-6.7,3.1-9.8c1.2-2.5,3.4-4.4,5.7-6c3.8-2.6,7.9-4.4,12.3-5.7c0,1.4-1.9,1.9-1.5,3.4
		c1.1,0,1.5-1.5,2.7-1.3c0.6,1.1-0.4,2.3,0,3.5c1.3-0.3,1.1-1.9,2.1-2.2C142.9,70.9,142.1,72.2,142.9,73.3z"/>
	<path class="st1" d="M86,170.5c1.7,0.8,3.4,1.5,5.2,2.2c4.5,1.8,8.7,0.9,12.2-2.2c3.6-3.2,3.9-7.4,2.9-11.9c0.4-1.5,1-1.9,2-0.3
		c1.2,1.9,3.3,3.3,4.3,5.2c1,1.9-1.2,3.9-1.4,6.1c-0.3,3.5,1.5,6.8,4.8,8.4c0.9,0.4,1.9,0.7,3.2,1.2c-3,1.3-5.9,2.5-8.7,3.8
		c-0.4-0.6-1.2-0.7-1.8-0.8c-4.5-1-8.8-2.6-13-4.6C91.9,175.9,88.6,173.7,86,170.5z"/>
	<path class="st4" d="M97.3,107.9c0.4-1.4,1.5-2.2,2.5-3c4.6-3.2,7.7-7.6,10.3-12.4c1.4-2.6,2.7-5.2,3.7-8c0.3-0.8,0.6-1.5-0.5-2.2
		c-1.5-1.1-1.3-2.7,0.5-3.4c1.2-0.5,1.5-1.1,1.3-2.1c-0.3-1.3-1.2-0.3-1.8-0.3c-1-0.1-1.8-0.3-2.1-1.3c-0.3-1-0.1-2,0.7-2.8
		c1-1,2-0.7,3-0.1c0.4-0.5,0.4-1.2,0-1.4c-1.3-0.9-1.3-1.8-0.5-3.2c0.7-1.2-0.1-2.6-0.3-3.8c-1.5-7.2-3.5-14.2-8.7-19.9
		c-0.4-0.4-0.4-0.9-0.4-1.5c11.1,8.6,15.3,19.9,13.4,33.7c-0.8,5.6-2.6,10.9-4.6,16.2C110.8,100.1,105.4,105.4,97.3,107.9z"/>
	<path class="st2" d="M72.8,160.3c3.9,8.9,10.3,15.5,18.4,21.1c-6.4,1.4-11.8,4.5-17.1,7.7c-0.5,0.3-1,0.6-1.6,0.8
		c-0.9,0.4-2.1,1.3-2.7,0.1c-0.6-1.1,0-2.4,1.2-3.2c1.1-0.7,2.2-1.4,3.7-2.2c-1.7-0.6-3.2-0.1-4.6-0.3c0-1,0.6-1.7,1.3-2.4
		c0.6-0.5,1.8-0.5,1.8-1.7c0,0,0,0,0,0c0.2-0.2,0.3-0.3,0.5-0.5c1-1.2,1.8,0.1,2.8,0.2c0.2-0.7-0.7-1-0.6-1.7
		c0.1-1.5-0.8-2.6-1.5-3.8C71.7,170,70.8,165.3,72.8,160.3z"/>
	<path class="st4" d="M147.2,146.2c-0.7,0-1.1-0.5-1.4-0.9c-5-6.4-12-10.3-18.6-14.5c-6.1-3.9-12.3-7.8-16.7-13.8
		c-0.8-1.1-1.5-2.2-2.1-3.4c-0.4-0.8-0.9-1-1.8-1c-0.9,0-1.1,0.4-1.2,1.2c-0.3,1.2-1.2,1.6-2.4,1.4c-0.9-0.1-1.2-0.8-1.1-1.6
		c0.1-1.2,0.8-1.6,2-1.9c1.7-0.4,1.7-2.3,2.4-3.5c0.2-0.4,0-1-0.1-1.5c0.5-0.5,1.1-0.9,1.7-1.5c0.9,2.1,1.6,3.9,2.7,5.7
		c2.8,4.9,6.8,8.6,11.7,11.4c9.1,5.1,16.6,12,22.7,20.5C145.8,143.9,146.5,145.1,147.2,146.2z"/>
	<path class="st2" d="M62.6,20.4c1.8,1.2,3.7,2.4,5.5,3.7c2.3,1.7,4.2,3.6,4.8,6.6c0.2,1,0,1.3-0.8,1.6c-1.6,0.5-3.2,1.1-4.8,1.7
		c-1,0.4-1.7-0.1-2.5-0.4c-3-1-5.4-0.2-6.4,2.7c-0.8,2.3-2.6,2.7-4.6,3.6c0.5-6.5,0.8-12.6,4-18.2c0,0.5,0.1,1,0.1,1.5
		c0.6-0.2,0.5-1,1.2-1.1c0,0.8,0.1,1.5,0.1,2.6c0.6-1.2,1-2.1,1.6-3.3c0.1,0.9,0.2,1.5,0.3,2.2C61.9,22.6,62.1,21.4,62.6,20.4z"/>
	<path class="st2" d="M52.9,159.1c0.4-1.2,0.7-2.3,1.1-3.5c0.2-0.7,0.4-1.6-0.3-2c-0.9-0.4-1.2,0.5-1.6,1.1
		c-1.3,1.9-2.7,3.6-4.9,4.4c-0.3-1.1,0.4-1.8,0.9-2.6c2.5-3.7,6.3-5.8,9.7-8.4c1.7-1.3,3.9-2.3,4.7-4.6c0,0,0,0,0,0
		c0.3-0.1,0.4-0.3,0.5-0.6c0.3-0.2,0.5-0.5,0.8-0.7c0.4,0,0.8,0,1-0.5c0,0,0,0,0,0c0.2-0.2,0.3-0.3,0.5-0.5c0,0,0,0,0,0
		c0.4-0.1,0.4-0.3,0-0.5c0.5-0.6,0.9-1.1,1.4-1.7c2.8,4.7,2.4,9-1.4,12.6c-1.9,1.8-3.5,3.8-5,6.2c-0.6-1.5-0.3-2.8-0.2-4.1
		c0-0.5,0.1-1.1-0.4-1.4c-0.6-0.3-0.8,0.5-1.3,0.7c-0.8,0.2-1,1-1.5,1.5C55.3,156.1,54.9,158.3,52.9,159.1z"/>
	<path class="st5" d="M41,75.6c0.3-3-0.1-5.7-1.4-8.4c-0.4-0.9-0.8-1.8-1.7-2.2c-0.5-0.2-1.1-0.9-1.8-0.3c-0.6,0.5-0.5,1-0.2,1.6
		c0.4,0.7,0.1,1.3-0.5,1.7c-0.6,0.4-1.3,0.4-1.9-0.1c-0.7-0.6-0.2-1.1,0-1.7c0.6-1.5-0.1-1.9-1.4-1.7c-0.8,0.2-1.6,0.6-2.4,1
		c-0.4-0.9,0.1-1.5,0.5-2.1c2.1-2.7,4.9-4.6,7.5-6.7c0.8-0.6,1.9-0.4,2.2,0.9c0.9,3.8,2.9,7.2,3.4,11.1C43.7,71.4,42.2,73.4,41,75.6
		z"/>
	<path class="st4" d="M86,170.5c2.6,3.2,6,5.4,9.6,7.1c4.2,1.9,8.5,3.5,13,4.6c0.6,0.1,1.3,0.2,1.8,0.8c-1.8,1.9-4,1.2-6,0.6
		c-14.8-4-24.7-13.3-29.7-27.8c-0.5-1.4-0.8-2.8-1.2-4.2c1.7,1.5,2.1,3.7,2.9,5.7c1.3,3.2,2.9,6.2,5.1,8.8c0.2,0.2,0.3,0.3,0.5,0.5
		c0,0,0,0,0,0c0.2,0.2,0.3,0.3,0.5,0.5c0,0,0,0,0,0c0,0.6,0.4,0.9,1,0.9c0.1,0.1,0.2,0.2,0.3,0.3c0.2,0.2,0.3,0.4,0.5,0.6
		c0,0,0,0,0,0c0.2,0.2,0.3,0.3,0.5,0.5c0,0,0,0,0,0c0.2,0.2,0.3,0.3,0.5,0.5c0,0,0,0,0,0C85.1,170.2,85.4,170.5,86,170.5L86,170.5z"
		/>
	<path class="st4" d="M105.9,128.2c1.2,4.4,0,8.3-2.2,12.1c-3,5.2-6.6,10.1-7.7,16.2c-0.3,1.5-0.9,3-0.5,4.5c-0.4,0.5-0.8,1-1.4,1.9
		c-0.9-3.3-0.4-6.2,0.2-9.1c0.8-3.9,2.7-7.3,5.1-10.3C102.8,138.9,105,133.8,105.9,128.2z"/>
	<path class="st4" d="M112.4,14.6c-0.6,0.6-1.3,1.2-1.9,1.7c-1.3,1-1-0.2-1.1-0.8c0.1-0.1,0.1-0.2,0.2-0.2c-0.1,0.1-0.1,0.1-0.2,0.2
		c-1.7,0.9-1.9,3.4-3.9,4l0,0c0.6-1.5,1.2-2.9,1.8-4.4c0.1-0.2,0.2-0.3,0.3-0.5c0,0-0.1-0.1-0.2-0.1c-0.1,0.2-0.2,0.4-0.2,0.6
		c-1.9,0.5-2.1,3-4.2,3.5c0.2-1.6,1.8-2.5,2-4.2c-1.4,0-1.8,1.7-3,1.7l-0.1-0.1c0.1-1.2,1.7-1.7,1.4-3.1c0.2-0.1,0.3-0.3,0.5-0.4
		c0.4,0,0.8-0.1,0.8-0.6c2.3-2,4.5-4.1,6.7-7.1C110.8,8.5,112.2,11.5,112.4,14.6z M105.4,13.3c-0.1,0.1-0.1,0.2-0.2,0.3
		C105.3,13.5,105.4,13.4,105.4,13.3c0.1,0,0.2-0.1,0.2-0.2C105.5,13.2,105.5,13.2,105.4,13.3z"/>
	<path class="st4" d="M125.3,158.9c-0.1,0.7-0.7,0.9-1.2,1.1c-6.5,3.2-8.5,7.4-6.8,14.5c0.1,0.3,0,0.6,0,0.9c-2.3-1-3.6-2.7-3.4-5
		C114.6,164.5,118.8,158.6,125.3,158.9z"/>
	<path class="st4" d="M62.6,143.5c-0.8,2.3-3,3.2-4.7,4.6c-3.4,2.6-7.3,4.7-9.7,8.4c-0.5,0.8-1.2,1.5-0.9,2.6c0,0,0,0,0,0
		c-0.2,0.1-0.3,0.3-0.5,0.4c-0.7,0.7-1.5,1.4-2.6,1.8c-0.1-1.9,0.7-3.3,1.7-4.6c2.1-3,4.8-5.4,7.8-7.4
		C56.5,147.3,59.5,145.4,62.6,143.5z"/>
	<path class="st4" d="M72.8,160.3c-2,5-1.1,9.7,1.5,14.2c0.7,1.2,1.6,2.3,1.5,3.8c-1.2-1.5-2.4-3-3.6-4.4c-4-4.8-3.1-8.8-0.6-14.2
		c0.1-0.3,0.2-0.8,0.7-0.6C72.8,159.4,72.7,159.9,72.8,160.3z"/>
	<path class="st4" d="M168.9,163.4c-1.1,0.5-2.2,1-3.3,1.6c-0.4,0.2-1.1,0.3-0.8,1c0.3,0.7,0.4,1.4-0.4,1.7c-1.2,0.4-0.9-1-2-1.6
		c0.1,2.4-0.5,4.1-3.2,3.5c-1.5-0.3-0.7-1.6-0.8-2.5c3.9-1.1,6.5-3.7,8.1-7.3C168.4,160.5,168.7,160.9,168.9,163.4z"/>
	<path class="st1" d="M129.5,39.5c-4.4,3.7-10,6.1-12.5,11.9c-1.4-1.5-0.9-4.7,1-6.1C121.5,42.7,125.7,41.4,129.5,39.5z"/>
	<path class="st4" d="M142.9,73.3c-0.8-1.1,0-2.4-0.6-3.6c-1.1,0.4-0.8,1.9-2.1,2.2c-0.5-1.2,0.6-2.4,0-3.5
		c-1.2-0.2-1.6,1.2-2.7,1.3c-0.3-1.5,1.6-2.1,1.5-3.4c1.4-1,3-1.6,4.3-3.1C144.2,66.8,144.2,70.1,142.9,73.3z"/>
	<path class="st4" d="M122.6,181.1c0.5,0.8-0.2,0.7-0.6,0.9c-3.5,1.8-7.3,3-10.6,5.2c-1.6,1.1-3.3,2.2-3.3,4.6
		c-0.9,0.5-1.9,0.8-2.5-0.1c-0.7-1,0.1-1.8,0.8-2.5c2.3-2.2,5.1-3.7,7.9-4.9C117,183.1,119.8,182.1,122.6,181.1z"/>
	<path class="st4" d="M136.5,42.8c-0.5,1.3-1.1,2.7-1.7,4.1c-0.6-1,0-2.1-0.4-3.1c-0.9,0.3-0.7,1.4-1.5,1.8c-0.4-1.5,0-3,0.4-4.5
		c-1.1,0.3-1.2,1.5-2.2,1.5c-0.5-0.9,0.3-1.5,0.3-2.3c1.1-1.2,2.1-2.4,3.3-3.7C135.6,38.6,136.3,40.6,136.5,42.8z"/>
	<path class="st5" d="M28.6,82.4c2.9,1.8,5.4,1.3,7.9-0.2c-1.4,2.3-2.9,4.5-5.3,5.8c-0.9,0.5-1.6,0.6-1.8-0.8
		C29.1,85.8,28.6,84.3,28.6,82.4z"/>
	<path class="st4" d="M68.8,38.4c-0.1,0-0.3,0-0.4,0c-4.7-1.1-7.2,1.4-8.7,5.4c-0.4,1-0.8,2.3-2.2,2.5c1.7-2.6,2-5.8,3.2-8.6
		c1-2.2,1.6-2.5,3.9-1.5C66,36.9,67.4,37.7,68.8,38.4z"/>
	<path class="st1" d="M135.5,65.4c-1.3,0.6-2.6,1.2-4,1.8c-3.7,1.4-7,3.3-9.5,6.8c-0.5-2-0.1-3,1.7-3.8c3.3-1.4,6.2-3.5,9.1-5.7
		C133.6,64.7,134.5,65.1,135.5,65.4z"/>
	<path class="st1" d="M52.5,29.5c-0.2,1.9-0.5,3.9-0.7,5.8c-0.1,1.3-0.5,2.7-0.1,3.9c0.5,1.8-0.3,2.5-2,3.1
		C49.5,37.8,50.1,33.5,52.5,29.5z"/>
	<path class="st4" d="M62.6,20.4c-0.5,1-0.7,2.2-1.6,3.3c-0.1-0.7-0.2-1.3-0.3-2.2c-0.5,1.1-1,2-1.6,3.3c-0.1-1.1-0.1-1.9-0.1-2.6
		c-0.7,0.1-0.6,0.8-1.2,1.1c0-0.6-0.1-1-0.1-1.5c0.5-1.7,1.5-3.1,2.4-4.6C60.9,18.1,61.8,19.3,62.6,20.4z"/>
	<path class="st4" d="M109.4,149c-0.2-2.3,0.2-4.5,0.6-6.7c0.2-1.3,0.2-2.4,0-3.7c-0.2-0.8-0.5-1.7,0.3-2.5
		C112.2,140.5,112.4,144.9,109.4,149z"/>
	<path class="st4" d="M52.9,159.1c2-0.8,2.5-2.9,3.8-4.3c0.5-0.5,0.8-1.2,1.5-1.5c-1,3.1-3.2,6.4-6.3,9.3c-0.6-0.6,0.1-1.2,0.1-1.8
		c0.1-0.2,0.2-0.4,0.2-0.6C53,160.1,52.9,159.6,52.9,159.1L52.9,159.1z"/>
	<path class="st4" d="M135.5,65.4c-0.9-0.3-1.8-0.6-2.7-0.9c0.6-1.2,1.4-1.6,2.8-1.3c1.6,0.3,3.2,0.1,5.2,0.1
		C139,64.5,137.2,64.9,135.5,65.4z"/>
	<path class="st4" d="M73.1,180.2c0,1.2-1.2,1.1-1.8,1.7c-0.7,0.7-1.3,1.4-1.3,2.4c-0.9,0.5-2,0.8-2.5-0.2c-0.5-0.9,0.6-1.4,1.2-1.8
		C70.1,181.2,71.3,180,73.1,180.2z"/>
	<path class="st4" d="M101.8,154.9c0.1,1.9,0.1,3.8,0.2,5.6c-0.1,0.4-0.2,0.8-0.4,1.6c-1.3-1.4-2-2.6-1.1-4.3
		C101,156.9,101.4,155.9,101.8,154.9z"/>
	<path class="st2" d="M52.9,159.1c0,0.5,0.1,1.1-0.6,1.2C52.4,159.8,52.3,159.3,52.9,159.1z"/>
	<path class="st1" d="M107.5,6.1c0.2-0.3,0.5-0.5,0.8-0.2c0,0-0.3,0.4-0.4,0.6C107.8,6.4,107.6,6.2,107.5,6.1z"/>
	<path class="st4" d="M73.2,150.7c0.4,0.2,0.4,0.6,0.3,1C73.1,151.4,73.2,151,73.2,150.7z"/>
	<path class="st4" d="M64.8,141.8c-0.2,0.5-0.5,0.5-1,0.5C64.1,142,64.2,141.4,64.8,141.8z"/>
	<path class="st2" d="M168.2,170.6c-0.1-0.4,0-0.7,0.4-0.9C168.6,170,168.6,170.4,168.2,170.6z"/>
	<path class="st2" d="M104.4,11.8c0,0.5-0.3,0.6-0.8,0.6C103.7,12,104.1,11.9,104.4,11.8z"/>
	<path class="st2" d="M46.7,159.5c0.2-0.1,0.3-0.3,0.5-0.4C47,159.2,46.8,159.4,46.7,159.5z"/>
	<path class="st4" d="M65.2,141.3c-0.2,0.2-0.3,0.3-0.5,0.5C64.6,141.3,64.8,141.2,65.2,141.3z"/>
	<path class="st2" d="M52.3,160.3c-0.1,0.2-0.2,0.4-0.2,0.6C52.1,160.7,52.2,160.5,52.3,160.3z"/>
	<path class="st4" d="M65.2,140.9c0.3,0.2,0.4,0.3,0,0.5c0-0.1-0.1-0.2-0.1-0.3C65.1,141,65.2,141,65.2,140.9z"/>
	<path class="st4" d="M117.3,175.4c0.2,0.2,0.3,0.3,0.5,0.5C117.5,175.8,117.2,175.8,117.3,175.4z"/>
	<path class="st4" d="M73.6,179.8c-0.2,0.2-0.3,0.3-0.5,0.5C73,179.7,73.4,179.8,73.6,179.8z"/>
	<path class="st4" d="M63,143c0,0.3-0.1,0.5-0.5,0.6C62.7,143.4,62.8,143.2,63,143z"/>
	<path class="st0" d="M42.7,100.4c-0.6,0.4-0.3,1.1-0.6,1.6c-0.6,1-1.3,1.4-2.2,0.3c-1.3-1.5-1.8-3.7-4.2-4.1c-0.6-0.1-0.4-0.8,0-1
		c2.4-0.8,4.2-2.4,6.2-3.9c0.8-0.6,2.1,0.1,3.1,0.5c3.1,1.2,6.2,2.2,9.6,2.1c4.5-0.2,8.7-1.1,12.7-3.1c1-0.5,2-0.9,3.1-0.4
		C75.5,94.5,80.8,94,86,93c1.7-0.3,3.3-0.4,4.8,0.6c1.4,0.9,3,1.2,4.7,0.8c0.6-0.1,1.3-0.3,1.5,0.4c0.3,0.9-0.5,1.1-1.1,1.3
		c-0.4,0.2-0.8,0.4-1.3,0.4c-2.3,0-3.6,1.4-4.8,3c-1.8,2.3-4,4.1-6.9,4.8c-2.4,0.5-3.2-0.3-2.8-2.7c0.2-1.1,0.7-2.2,0.3-3.5
		c-0.6-2.2-1.6-2.7-3.3-1.2c-1.4,1.1-2.8,2.4-4.1,3.7c-3.3,3.1-7.1,5.5-11.3,7.1c-6.7,2.5-13.2,0.3-17.6-5.7
		C43.6,101.5,43.4,100.7,42.7,100.4z M44.1,96.7c-0.1,0-0.2-0.1-0.3-0.1c0.1,0.1,0.1,0.2,0.2,0.3c2.1,5,5.4,8.7,10.9,9.4
		c4.7,0.6,8.7-1.6,12.6-4.4c-5.4-2.5-10.4-4.2-16.3-1.4c1.4-1.5,0.6-2.1-0.5-2.2C48.4,98.1,46.3,97.1,44.1,96.7z M82.3,102.2
		c3.6-1,5.4-3.2,6.8-6c0.4-0.8-0.2-0.9-0.6-1c-1.4-0.5-3.2,0.6-3.5,2c-0.1,0.6-0.3,1.3-0.5,1.9c-1.5-0.5-1.2-2.2-2.2-3.2
		C82.9,98,83.2,99.9,82.3,102.2z"/>
	<path class="st0" d="M74.1,78.9c0.2-4.2,0.3-8.5,1.1-12.7c1.6-7.6,5.7-10.9,13.5-11.8c6.8-0.7,11.5,1.6,14.2,8
		c2,4.9,5,9.6,4.3,15.2c-1,8.5-6.9,15.1-17,13.6c-3.7-0.6-7.4-0.7-11-2c-3.7-1.3-5.2-3.8-5.1-7.5C74.1,80.8,74.1,79.8,74.1,78.9z
		 M76.8,78.7c0,0.7,0,1.5,0,2.2c0.1,4,0.8,5,4.6,6c3.5,1,7.2,1.3,10.9,1.4c8.1,0.3,13.8-6.9,11.9-14.8c-1-4.3-2.8-8.3-4.8-12.2
		c-2.1-4.1-5.1-6.3-10.1-4.6c-0.5,0.2-1.2,0.2-1.7,0.2c-4.9,0.5-8.4,3.5-9.5,8.4C77,69.8,77.1,74.3,76.8,78.7z"/>
	<path class="st4" d="M57,52.6c1.9,0,3.4,1.6,3.3,3.6c-0.1,2-2.9,4.6-5.1,4.2c-1.9-0.3-1.9-2.1-1.9-3.7C53.3,54.2,54.7,52.6,57,52.6
		z"/>
	<path class="st4" d="M99.6,46.4c-2.7-0.7-4.3-2.9-6.2-4.7c-1.1-1.1-1.7-1.1-2.3,0.4c-0.2,0.6-0.5,1.8-1.4,1.3
		c-0.8-0.4-0.1-1.3,0.1-2c0.2-0.7,0.6-1.3,0.9-2c0.4-0.8,1-1.1,1.7-0.6C95.3,41,98.2,43,99.6,46.4L99.6,46.4z"/>
	<path class="st4" d="M51.9,60.8c-0.4,1.2-0.8,2.4-2.4,2.4c-1.4,0-2.3-0.9-2.3-2.1c0.1-1.3,1-2.6,2.5-2.6
		C51.2,58.3,51.6,59.6,51.9,60.8z"/>
	<path class="st4" d="M55.4,61c1.4,0,2.3,0.6,2.3,2.1c0,1.5-0.7,2.4-2.4,2.4c-1.3,0-2.1-0.4-2-1.9C53.3,62.1,53.7,61,55.4,61z"/>
	<path class="st0" d="M56.7,88.9c-1.7,1.4-3.1,2.9-4.6,4.4c-0.4,0.4-0.8,1-1.5,0.4c-0.7-0.6-0.5-1.2,0-1.7
		C52.2,90.2,54.3,89.4,56.7,88.9z"/>
	<path class="st0" d="M42.2,90.7c2.2-0.3,3.9-0.2,5.6,0.7c0.8,0.4,1.4,1.1,0.9,1.9c-0.4,0.8-1.3,0.4-1.9,0
		C45.4,92.6,44,91.7,42.2,90.7z"/>
	<path class="st4" d="M99.7,46.4c0.1,0.2,0.2,0.3,0.3,0.5c0,0-0.1,0.1-0.2,0.1C99.8,46.8,99.7,46.6,99.7,46.4
		C99.6,46.4,99.7,46.4,99.7,46.4z"/>
	<path class="st4" d="M108.5,118.3c0,0.9-0.5,1.8-1.5,1.8c-1,0-1.9-0.7-1.9-1.8c0-0.9,0.5-1.7,1.7-1.7
		C107.9,116.6,108.5,117.1,108.5,118.3z"/>
	<path class="st4" d="M157.4,168.8c-0.4,0.8-0.8,1.7-1.9,1.5c-0.8-0.1-1.5-0.6-1.5-1.6c0.1-1.2,1-1.3,1.9-1.3
		C156.9,167.4,157.2,168,157.4,168.8z"/>
	<path class="st4" d="M158.8,170.2c0.9,0,1.3,0.4,1.4,1.2c0,0.8-0.4,1.3-1.1,1.3c-0.7,0-1.5-0.3-1.4-1.3
		C157.6,170.5,158.3,170.4,158.8,170.2z"/>
	<path class="st1" d="M86,170.5c-0.6,0-0.9-0.3-0.9-0.9C85.6,169.7,86,169.9,86,170.5z"/>
	<path class="st1" d="M83.4,167.9c-0.6,0-1-0.3-1-0.9C82.8,167.3,83.1,167.6,83.4,167.9z"/>
	<path class="st1" d="M82,166.6c-0.2-0.2-0.3-0.3-0.5-0.5C81.7,166.2,81.9,166.4,82,166.6z"/>
	<path class="st1" d="M82.5,167c-0.2-0.2-0.3-0.3-0.5-0.5C82.1,166.7,82.3,166.8,82.5,167z"/>
	<path class="st1" d="M84.2,168.8c-0.2-0.2-0.3-0.4-0.5-0.6C83.9,168.4,84.1,168.6,84.2,168.8z"/>
	<path class="st1" d="M84.7,169.2c-0.2-0.2-0.3-0.3-0.5-0.5C84.4,168.9,84.5,169.1,84.7,169.2z"/>
	<path class="st1" d="M85.1,169.6c-0.2-0.2-0.3-0.3-0.5-0.5C84.8,169.3,85,169.5,85.1,169.6z"/>
	<path class="st4" d="M105.4,19.5c-0.1,0.2-0.1,0.4-0.2,0.6c-0.1,0-0.2-0.1-0.2-0.1C105.2,19.8,105.3,19.6,105.4,19.5
		C105.4,19.5,105.4,19.5,105.4,19.5z"/>
	<path class="st4" d="M101.9,16c-0.1,0.1-0.2,0.1-0.2,0.2C101.7,16.1,101.8,16,101.9,16C101.9,15.9,101.9,16,101.9,16z"/>
	<path class="st2" d="M107.1,15c0.1-0.2,0.2-0.4,0.2-0.6c0.1,0,0.2,0.1,0.2,0.1C107.4,14.7,107.3,14.9,107.1,15
		C107.2,15.1,107.1,15,107.1,15z"/>
	<path class="st2" d="M109.4,15.5c0.1-0.1,0.1-0.1,0.2-0.2C109.5,15.4,109.5,15.5,109.4,15.5C109.4,15.5,109.4,15.5,109.4,15.5z"/>
	<path class="st2" d="M105.4,13.3c-0.1,0.1-0.2,0.1-0.2,0.2C105.3,13.4,105.3,13.4,105.4,13.3L105.4,13.3z"/>
	<path class="st2" d="M105.4,13.3c0.1-0.1,0.2-0.1,0.2-0.2C105.6,13.2,105.5,13.3,105.4,13.3C105.4,13.3,105.4,13.3,105.4,13.3z"/>
	<path class="st6" d="M44.1,96.7c2.2,0.4,4.3,1.4,6.6,1.6c1.1,0.1,1.9,0.6,0.5,2.2c5.9-2.8,11-1.1,16.3,1.4c-4,2.8-8,5-12.6,4.4
		c-5.5-0.7-8.8-4.5-10.9-9.4L44.1,96.7z"/>
	<path class="st5" d="M82.3,102.2c0.9-2.3,0.6-4.3,0.1-6.3c0.9,0.9,0.7,2.6,2.2,3.2c0.2-0.6,0.4-1.3,0.5-1.9c0.3-1.4,2.1-2.5,3.5-2
		c0.4,0.1,1,0.2,0.6,1C87.7,99,85.9,101.3,82.3,102.2z"/>
	<path class="st6" d="M44,96.8c-0.1-0.1-0.1-0.2-0.2-0.3c0.1,0,0.2,0.1,0.3,0.1C44.1,96.7,44,96.8,44,96.8z"/>
	<path class="st5" d="M76.8,78.7c0.3-4.5,0.3-9,1.3-13.3c1.1-4.9,4.5-7.9,9.5-8.4c0.6-0.1,1.2,0,1.7-0.2c5-1.6,8,0.5,10.1,4.6
		c2,3.9,3.8,7.9,4.8,12.2c1.9,7.9-3.8,15.1-11.9,14.8C88.6,88.3,85,88,81.4,87c-3.9-1.1-4.5-2-4.6-6C76.7,80.2,76.8,79.5,76.8,78.7z
		 M88.8,83.7c9.7-0.1,14.6-8.7,9.7-17c-1.7-3-5.6-4.7-8.9-3.9c-0.9,0.2-2,0.6-2.3,1.5c-0.3,1.1,0.8,1.3,1.6,1.7c0.6,0.3,1,0.8,1,1.6
		c0,0.8-0.6,1.2-1.2,1.4c-1.6,0.5-3.1,0.3-4-1.2c-0.6-1-1.1-0.9-1.9-0.2c-2.7,2.4-4,7.7-2.7,11.1C81.4,81.9,84.5,83.7,88.8,83.7z"/>
	<path class="st0" d="M88.8,83.7c-4.3,0.1-7.4-1.7-8.6-5.1c-1.3-3.5,0-8.8,2.7-11.1c0.8-0.7,1.3-0.7,1.9,0.2c0.9,1.6,2.4,1.8,4,1.2
		c0.6-0.2,1.2-0.6,1.2-1.4c0-0.7-0.3-1.3-1-1.6c-0.8-0.4-2-0.5-1.6-1.7c0.3-0.9,1.4-1.3,2.3-1.5c3.3-0.8,7.2,0.9,8.9,3.9
		C103.3,75,98.4,83.5,88.8,83.7z"/>
</g>
</svg>
